<?xml version="1.0" encoding="utf-8" standalone="no"?>
<!DOCTYPE svg PUBLIC "-//W3C//DTD SVG 1.1//EN"
  "http://www.w3.org/Graphics/SVG/1.1/DTD/svg11.dtd">
<!-- Created with matplotlib (http://matplotlib.org/) -->
<svg height="432pt" version="1.1" viewBox="0 0 576 432" width="576pt" xmlns="http://www.w3.org/2000/svg" xmlns:xlink="http://www.w3.org/1999/xlink">
 <defs>
  <style type="text/css">
*{stroke-linecap:butt;stroke-linejoin:round;}
  </style>
 </defs>
 <g id="figure_1">
  <g id="patch_1">
   <path d="
M0 432
L576 432
L576 0
L0 0
z
" style="fill:#ffffff;"/>
  </g>
  <g id="axes_1">
   <g id="patch_2">
    <path d="
M122.4 388.8
L468 388.8
L468 43.2
L122.4 43.2
z
" style="fill:#ffffff;"/>
   </g>
   <g id="patch_3">
    <path clip-path="url(#p23ab9b749c)" d="
M295.2 331.2
C325.751 331.2 355.056 319.062 376.659 297.459
C398.262 275.856 410.4 246.551 410.4 216
C410.4 185.449 398.262 156.144 376.659 134.541
C355.056 112.938 325.751 100.8 295.2 100.8
C264.649 100.8 235.344 112.938 213.741 134.541
C192.138 156.144 180 185.449 180 216
C180 246.551 192.138 275.856 213.741 297.459
C235.344 319.062 264.649 331.2 295.2 331.2
L295.2 331.2" style="fill:none;stroke:#000000;stroke-dasharray:6.000000,6.000000;stroke-dashoffset:0.0;stroke-linejoin:miter;"/>
   </g>
   <g id="LineCollection_1">
    <path clip-path="url(#p23ab9b749c)" d="
M282.982 326.733
L286.473 326.505
L289.964 326.654
L293.455 326.224
L296.945 326.632
L297.28 325.964
L296.002 322.473
L296.945 321.917
L300.436 323.92
L303.927 321.551
L305.522 322.473
L303.81 325.964
L303.927 326.187
L307.418 325.818
L310.909 323.73
L312.534 322.473
L314.4 321.253
L316.778 322.473
L317.891 324.123
L321.382 323.293
L328.364 321.307
L331.855 320.11
L338.836 317.308
L339.526 315.491
L342.327 313.182
L343.971 312
L345.818 310.492
L349.309 311.891
L354.748 308.509
L356.291 307.492
L359.721 305.018
L358.378 301.527
L359.782 300.236
L362.771 301.527
L363.273 302.324
L363.55 301.527
L366.764 298.487
L368.343 298.036
L370.255 295.684
L371.458 294.545
L373.745 292.861
L377.236 289.133
L378.636 287.564
L380.727 285.909
L382.337 284.073
L381.42 280.582
L384.218 279.443
L387.709 275.693
L391.2 274.245
L393.344 273.6
L398.182 267.775
L398.58 266.618
L401.823 263.127
L402.107 259.636
L405.164 258.425
L407.002 256.145
L408.655 255.104
L412.145 255.431
L415.636 253.79
L422.618 249.852
L426.109 247.463
L429.6 244.607
L433.091 241.177
L435.24 238.691
L436.582 236.912
L437.733 235.2
L440.073 231.028
L441.923 228.218
L442.928 224.727
L443.564 223.66
L445.514 221.236
L447.055 216.915
L447.911 214.255
L448.751 210.764
L447.055 209.332
L446.123 207.273
L448.159 203.782
L449.795 200.291
L449.72 196.8
L449.44 193.309
L448.951 189.818
L448.238 186.327
L447.055 182.143
L446.188 179.345
L444.853 175.855
L443.268 172.364
L441.529 168.873
L439.535 165.382
L436.582 160.731
L434.99 158.4
L433.091 155.818
L429.6 155.78
L428.812 154.909
L429.6 151.357
L426.109 147.167
L423.722 144.436
L422.618 143.79
L419.88 140.945
L419.127 139.796
L417.072 137.455
L413.322 130.473
L411.206 126.982
L408.655 123.252
L405.164 118.711
L403.268 116.509
L399.824 113.018
L398.182 111.518
L394.691 108.677
L390.853 106.036
L387.709 105.565
L384.28 102.545
L384.218 102.313
L380.727 100.694
L376.119 99.0545
L373.745 98.248
L370.255 97.2792
L366.764 96.5123
L363.273 96.4266
L361.178 95.5636
L359.782 94.8105
L356.291 93.2161
L352.8 95.373
L349.309 94.0786
L346.626 92.0727
L345.818 91.1319
L344.898 92.0727
L342.327 94.4132
L338.836 94.8716
L337.933 95.5636
L335.345 96.6439
L334.101 95.5636
L333.112 92.0727
L331.855 88.4363
L328.205 88.5818
L324.873 87.3317
L323.617 88.5818
L321.382 89.4202
L319.97 88.5818
L317.891 85.7281
L314.4 85.358
L311.606 88.5818
L310.909 88.9079
L310.209 88.5818
L307.418 85.3377
L304.688 88.5818
L303.927 88.984
L302.883 88.5818
L300.436 87.2873
L296.945 87.7056
L292.207 88.5818
L289.964 90.449
L286.473 91.9167
L282.982 92.4531
L279.491 92.2347
L276 93.0265
L272.509 92.4363
L269.018 95.6602
L265.527 96.2082
L262.036 95.0179
L259.041 95.5636
L259.49 99.0545
L258.545 99.7366
L256.789 99.0545
L255.055 97.0756
L250.945 99.0545
L249.363 102.545
L248.073 103.574
L244.582 102.559
L241.091 103.545
L237.6 104.919
L236.412 106.036
L234.109 107.571
L232.068 109.527
L234.336 113.018
L234.109 113.888
L230.618 113.858
L227.127 116.704
L226.762 116.509
L223.636 114.329
L221.416 116.509
L223.636 119.18
L224.106 120
L223.636 121.76
L221.811 123.491
L220.817 126.982
L220.145 127.207
L219.818 126.982
L216.655 124.051
L213.385 126.982
L213.164 128.823
L212.582 130.473
L212.181 133.964
L213.164 135.667
L213.742 137.455
L213.889 140.945
L213.164 141.727
L211.681 140.945
L209.673 137.883
L208.218 140.945
L206.182 143.209
L203.767 144.436
L202.93 147.927
L202.691 148.166
L199.2 147.821
L198.802 147.927
L196.484 151.418
L196.462 154.909
L195.709 155.316
L192.218 157.716
L190.036 161.891
L189.104 165.382
L188.727 165.66
L186.497 168.873
L185.236 171.488
L184.952 172.364
L185.236 173.834
L186.543 175.855
L185.236 177.429
L181.745 179.078
L181.558 179.345
L181.745 180.643
L183.824 182.836
L181.745 184.769
L181.196 186.327
L181.222 189.818
L181.745 191.779
L182.286 193.309
L181.745 194.191
L178.255 196.877
L176.16 200.291
L178.255 201.534
L181.745 203.787
L178.112 207.273
L174.764 209.83
L174.547 210.764
L177.149 214.255
L177.063 217.745
L174.608 221.236
L176.931 224.727
L175.869 228.218
L176.038 231.709
L176.588 235.2
L178.255 237.206
L178.809 238.691
L179.276 242.182
L181.745 244.333
L182.378 245.673
L181.99 249.164
L182.508 252.655
L183.982 256.145
L185.66 259.636
L188.976 266.618
L192.218 268.491
L193.475 270.109
L192.878 273.6
L195.709 277.788
L197.767 280.582
L199.2 282.319
L202.691 282.966
L205.401 284.073
L203.979 287.564
L206.182 289.687
L209.673 290.217
L210.59 291.055
L211.949 294.545
L213.164 295.487
L216.655 297.924
L217.243 298.036
L220.145 299.085
L222.45 301.527
L223.636 302.24
L227.127 304.03
L233.292 308.509
L234.109 309.091
L237.6 311.38
L240.046 312
L241.091 312.114
L244.859 315.491
L248.073 317.128
L251.564 318.656
L255.055 316.566
L257.48 318.982
L258.545 321.332
L265.527 323.368
L267.075 322.473
L269.018 321.919
L272.007 318.982
L272.509 318.711
L272.911 318.982
L272.953 322.473
L276 322.733
L279.491 323.236
L281.049 322.473
L282.982 322.064
L283.697 322.473
L282.982 324.448
L282.248 325.964
L282.982 326.733
L282.982 326.733" style="fill:none;stroke:#000000;"/>
    <path clip-path="url(#p23ab9b749c)" d="
M373.745 284.112
L373.741 284.073
L373.745 284.068
L373.757 284.073
L373.745 284.112" style="fill:none;stroke:#000000;"/>
    <path clip-path="url(#p23ab9b749c)" d="
M391.2 271.777
L390.173 270.109
L391.2 269.463
L393.136 270.109
L391.2 271.777" style="fill:none;stroke:#000000;"/>
    <path clip-path="url(#p23ab9b749c)" d="
M185.236 235.929
L184.493 235.2
L185.236 234.805
L185.669 235.2
L185.236 235.929" style="fill:none;stroke:#000000;"/>
    <path clip-path="url(#p23ab9b749c)" d="
M181.745 222.224
L180.279 221.236
L181.745 220.369
L182.399 221.236
L181.745 222.224" style="fill:none;stroke:#000000;"/>
    <path clip-path="url(#p23ab9b749c)" d="
M178.255 183.527
L180.055 182.836
L178.255 182.513
L177.514 182.836
L178.255 183.527" style="fill:none;stroke:#000000;"/>
    <path clip-path="url(#p23ab9b749c)" d="
M195.709 169.355
L194.698 168.873
L195.709 168.455
L196.07 168.873
L195.709 169.355" style="fill:none;stroke:#000000;"/>
    <path clip-path="url(#p23ab9b749c)" d="
M206.182 132.125
L207.808 130.473
L206.182 129.422
L205.109 130.473
L206.182 132.125" style="fill:none;stroke:#000000;"/>
    <path clip-path="url(#p23ab9b749c)" d="
M209.673 128.639
L212.473 126.982
L210.862 123.491
L209.673 122.522
L208.788 123.491
L208.596 126.982
L209.673 128.639" style="fill:none;stroke:#000000;"/>
    <path clip-path="url(#p23ab9b749c)" d="
M213.164 121.228
L214.573 120
L213.164 117.364
L212.16 120
L213.164 121.228" style="fill:none;stroke:#000000;"/>
    <path clip-path="url(#p23ab9b749c)" d="
M241.091 109.599
L240.953 109.527
L241.091 109.3
L241.191 109.527
L241.091 109.599" style="fill:none;stroke:#000000;"/>
    <path clip-path="url(#p23ab9b749c)" d="
M370.255 106.745
L369.343 106.036
L370.255 104.569
L371.351 106.036
L370.255 106.745" style="fill:none;stroke:#000000;"/>
    <path clip-path="url(#p23ab9b749c)" d="
M377.236 107.249
L375.76 106.036
L377.236 103.685
L380.727 103.193
L383.081 106.036
L380.727 107.539
L377.236 107.249" style="fill:none;stroke:#000000;"/>
    <path clip-path="url(#p23ab9b749c)" d="
M342.327 99.5086
L342.056 99.0545
L342.327 98.5423
L345.818 98.6003
L349.309 98.2137
L352.8 96.0741
L356.291 96.9255
L357.884 99.0545
L356.291 99.8978
L352.8 99.5961
L349.309 99.3765
L345.818 99.2289
L342.327 99.5086" style="fill:none;stroke:#000000;"/>
   </g>
   <g id="LineCollection_2">
    <path clip-path="url(#p23ab9b749c)" d="
M279.491 291.846
L280.322 291.055
L282.982 287.903
L284.196 287.564
L286.473 287.372
L286.887 287.564
L289.964 291.311
L293.455 291.34
L303.927 291.864
L307.418 291.837
L310.909 291.555
L314.4 290.964
L317.891 290.173
L321.382 288.938
L324.873 287.247
L328.364 285.28
L331.855 282.891
L335.345 280.168
L338.966 277.091
L342.846 273.6
L343.745 270.109
L345.818 268.047
L349.309 267.114
L349.755 266.618
L351.001 263.127
L354.007 259.636
L356.291 256.829
L357.454 256.145
L359.28 252.655
L357.596 249.164
L359.782 248.073
L362.255 245.673
L363.273 242.147
L361.492 238.691
L363.273 236.515
L364.2 235.2
L365.915 231.709
L366.922 224.727
L367.276 221.236
L367.445 217.745
L367.424 214.255
L367.189 210.764
L366.121 203.782
L365.269 200.291
L364.13 196.8
L361.398 189.818
L359.64 186.327
L357.741 182.836
L355.447 179.345
L352.78 175.855
L352.8 175.691
L353.033 172.364
L352.8 172.087
L349.309 170.665
L345.818 170.331
L344.355 168.873
L345.818 167.719
L347.601 165.382
L345.818 163.856
L340.388 158.4
L339.893 154.909
L342.327 151.866
L345.055 151.418
L345.477 147.927
L345.818 147.479
L346.076 147.927
L346.644 151.418
L345.818 153.887
L345.818 155.098
L349.309 156.872
L350.32 158.4
L352.8 160.805
L354.636 161.891
L356.291 162.066
L359.782 163.874
L363.273 164.431
L366.764 164.623
L370.255 164.546
L373.745 164.344
L377.269 165.382
L379.656 168.873
L380.727 169.895
L384.218 171.907
L386.071 172.364
L386.415 175.855
L386.512 179.345
L387.797 182.836
L389.897 186.327
L389.824 189.818
L389.377 196.8
L389.408 200.291
L389.835 203.782
L390.867 207.273
L391.2 207.919
L392.349 210.764
L395.036 214.255
L399.72 221.236
L401.673 222.986
L405.225 224.727
L408.655 225.533
L412.145 225.125
L413.025 224.727
L415.636 223.777
L418.54 221.236
L419.127 220.448
L420.883 217.745
L421.754 214.255
L421.619 210.764
L422.138 207.273
L422.353 203.782
L422.043 200.291
L421.234 196.8
L419.935 193.309
L419.127 191.745
L418.261 189.818
L415.636 186.28
L412.087 182.836
L411.101 179.345
L410.412 175.855
L408.546 172.364
L405.164 168.838
L399.349 165.382
L399.335 161.891
L398.714 158.4
L398.182 157.376
L397.204 154.909
L394.691 152.224
L391.2 150.098
L387.709 148.914
L385.805 147.927
L385.255 144.436
L384.569 140.945
L384.218 140.019
L383.526 137.455
L381.523 133.964
L380.727 133.022
L377.236 129.772
L373.745 127.849
L369.77 126.982
L366.764 126.597
L359.782 126.794
L356.291 126.449
L352.8 125.044
L351.979 123.491
L352.8 120.407
L353.209 120
L352.8 119.835
L349.309 116.94
L347.824 116.509
L345.818 115.746
L342.327 116.075
L338.836 116.539
L335.345 118.299
L331.855 122.423
L330.237 123.491
L330.791 126.982
L328.364 130.073
L327.484 130.473
L324.678 133.964
L324.873 134.035
L327.5 137.455
L327.499 140.945
L324.873 143.442
L321.382 143.241
L317.891 145.887
L315.626 147.927
L314.953 151.418
L314.4 153.102
L313.858 151.418
L313.163 147.927
L310.909 145.461
L307.418 145.966
L303.927 147.213
L300.436 147.545
L297.515 144.436
L296.945 143.616
L295.973 144.436
L293.455 146.122
L291.921 144.436
L289.964 141.731
L287.645 140.945
L286.473 139.777
L285.763 140.945
L283.281 144.436
L284.783 147.927
L282.982 148.518
L279.491 149.311
L276 147.873
L275.422 144.436
L272.509 141.847
L270.342 144.436
L269.018 145.487
L267.964 144.436
L265.527 142.349
L264.164 140.945
L264.403 137.455
L262.036 135.447
L260.11 133.964
L258.545 131.88
L255.055 132.435
L251.862 130.473
L251.564 130.055
L248.073 129.647
L244.582 129.836
L241.091 136.537
L239.333 137.455
L238.258 140.945
L234.951 144.436
L234.869 147.927
L237.6 153.142
L239.173 154.909
L240.599 158.4
L241.091 160.667
L241.832 161.891
L241.091 162.258
L236.639 165.382
L234.109 166.571
L232.48 165.382
L230.618 162.611
L227.127 162.377
L225.003 165.382
L223.636 167.018
L219.897 168.873
L216.655 172.527
L213.164 174.204
L211.846 175.855
L213.164 177.575
L216.037 179.345
L213.164 186.186
L212.715 186.327
L213.287 189.818
L216.655 191.067
L218.918 193.309
L216.655 196.601
L213.164 196.196
L212.472 196.8
L213.164 197.39
L216.264 200.291
L216.655 201.411
L220.029 203.782
L216.655 204.579
L213.164 205.123
L209.673 204.853
L206.182 209.579
L205.442 210.764
L203.93 214.255
L203.354 217.745
L203.455 221.236
L204.234 224.727
L206.182 228.783
L208.066 231.709
L209.673 233.83
L213.164 232.964
L216.655 233.552
L219.441 231.709
L219.626 228.218
L220.145 227.922
L220.618 228.218
L223.636 231.262
L224.796 231.709
L223.636 232.789
L220.145 234.705
L219.99 235.2
L217.858 238.691
L217.744 242.182
L220.145 243.782
L220.496 245.673
L220.192 249.164
L220.147 252.655
L220.435 256.145
L221.185 259.636
L222.716 263.127
L225.104 266.618
L227.127 268.66
L230.618 271.148
L234.109 272.705
L237.6 273.451
L241.091 273.225
L243.569 273.6
L244.582 273.993
L248.073 275.617
L255.522 280.582
L258.545 282.372
L260.343 284.073
L262.036 285.04
L265.527 287.646
L269.018 288.849
L272.509 290.389
L276 289.749
L278.832 291.055
L279.491 291.846
L279.491 291.846" style="fill:none;stroke:#000000;"/>
    <path clip-path="url(#p23ab9b749c)" d="
M345.818 263.888
L344.61 263.127
L345.818 262.435
L346.632 263.127
L345.818 263.888" style="fill:none;stroke:#000000;"/>
    <path clip-path="url(#p23ab9b749c)" d="
M241.091 168.968
L240.966 168.873
L241.091 168.513
L241.242 168.873
L241.091 168.968" style="fill:none;stroke:#000000;"/>
    <path clip-path="url(#p23ab9b749c)" d="
M248.073 159.04
L247.781 158.4
L248.073 158.282
L248.401 158.4
L248.073 159.04" style="fill:none;stroke:#000000;"/>
    <path clip-path="url(#p23ab9b749c)" d="
M331.855 159.659
L331.209 158.4
L331.855 156.98
L332.755 158.4
L331.855 159.659" style="fill:none;stroke:#000000;"/>
    <path clip-path="url(#p23ab9b749c)" d="
M251.564 156.614
L250.715 154.909
L251.564 154.134
L251.97 154.909
L251.564 156.614" style="fill:none;stroke:#000000;"/>
    <path clip-path="url(#p23ab9b749c)" d="
M321.382 155.255
L320.57 154.909
L321.382 154.574
L321.699 154.909
L321.382 155.255" style="fill:none;stroke:#000000;"/>
    <path clip-path="url(#p23ab9b749c)" d="
M328.364 155.692
L327.284 154.909
L328.364 153.614
L329.991 154.909
L328.364 155.692" style="fill:none;stroke:#000000;"/>
    <path clip-path="url(#p23ab9b749c)" d="
M255.055 152.003
L253.994 151.418
L255.055 149.707
L258.113 147.927
L258.545 147.777
L260.753 147.927
L258.545 150.193
L258.288 151.418
L255.055 152.003" style="fill:none;stroke:#000000;"/>
    <path clip-path="url(#p23ab9b749c)" d="
M265.527 154.053
L263.199 151.418
L262.947 147.927
L265.527 147.417
L266.036 147.927
L269.018 151.066
L269.328 151.418
L269.018 152.784
L265.527 154.053" style="fill:none;stroke:#000000;"/>
    <path clip-path="url(#p23ab9b749c)" d="
M335.345 148.65
L334.587 147.927
L335.345 147.106
L336.366 147.927
L335.345 148.65" style="fill:none;stroke:#000000;"/>
    <path clip-path="url(#p23ab9b749c)" d="
M262.036 147.605
L261.321 144.436
L262.036 143.175
L263.337 144.436
L262.036 147.605" style="fill:none;stroke:#000000;"/>
    <path clip-path="url(#p23ab9b749c)" d="
M272.509 137.615
L276 139.74
L277.076 137.455
L279.491 136.076
L282.982 137.073
L286.171 133.964
L286.473 133.39
L287.84 130.473
L286.473 128.146
L286.275 126.982
L285.49 123.491
L283.767 120
L282.982 118.434
L281.359 116.509
L279.491 115.838
L276 114.809
L272.509 115.25
L270.339 116.509
L269.018 117.36
L266.473 120
L265.527 122.455
L264.969 123.491
L264.425 126.982
L265.117 130.473
L265.527 131.442
L266.829 133.964
L269.018 136.331
L272.196 137.455
L272.509 137.615" style="fill:none;stroke:#000000;"/>
    <path clip-path="url(#p23ab9b749c)" d="
M307.418 135.07
L310.909 135.825
L314.4 135.556
L317.891 134.023
L318.084 133.964
L321.382 131.595
L322.34 130.473
L324.456 126.982
L324.873 125.42
L326.034 123.491
L325.693 120
L324.873 117.742
L324.643 116.509
L322.781 113.018
L321.382 111.547
L318.582 109.527
L317.891 109.087
L314.4 107.783
L310.909 107.65
L307.418 108.591
L305.754 109.527
L303.927 110.638
L301.442 113.018
L300.436 114.8
L299.313 116.509
L298.236 120
L298.123 123.491
L298.999 126.982
L300.436 129.411
L301.157 130.473
L303.927 133.187
L305.413 133.964
L307.418 135.07" style="fill:none;stroke:#000000;"/>
   </g>
   <g id="LineCollection_3">
    <path clip-path="url(#p23ab9b749c)" d="
M272.509 278.176
L276 279.179
L278.491 277.091
L279.491 274.855
L280.327 273.6
L279.491 271.667
L278.999 270.109
L276 267.127
L272.509 268.761
L271.217 270.109
L269.519 273.6
L271.279 277.091
L272.509 278.176" style="fill:none;stroke:#000000;"/>
    <path clip-path="url(#p23ab9b749c)" d="
M303.927 275.555
L307.418 276.87
L310.909 277.026
L314.4 276.279
L317.891 273.648
L317.944 273.6
L320.738 270.109
L321.382 268.201
L322.27 266.618
L323.593 263.127
L324.873 260.271
L325.354 259.636
L328.364 257.008
L329.838 256.145
L328.364 255.631
L326.921 252.655
L328.364 251.574
L331.855 251.929
L335.345 251.397
L338.836 250.265
L340.258 249.164
L342.327 247.044
L343.344 245.673
L344.39 242.182
L343.905 238.691
L342.327 235.551
L342.113 235.2
L341.258 231.709
L342.327 229.439
L343.953 228.218
L344.295 224.727
L345.173 221.236
L345.818 219.033
L346.207 217.745
L347.124 214.255
L347.537 210.764
L347.314 207.273
L346.261 203.782
L345.818 202.892
L344.62 200.291
L342.327 197.207
L341.948 196.8
L338.836 193.336
L338.808 193.309
L336.021 189.818
L335.345 188.934
L333.657 186.327
L331.855 183.959
L331.123 182.836
L328.364 179.71
L328.036 179.345
L324.873 176.522
L323.876 175.855
L321.382 172.808
L317.891 173.546
L315.291 172.364
L314.4 171.62
L310.909 170.912
L307.418 170.202
L303.927 171.012
L300.436 170.311
L296.945 170.394
L293.455 170.645
L289.964 169.418
L286.473 170.514
L283.805 172.364
L282.982 172.677
L279.491 173.443
L276 175.611
L275.624 175.855
L272.509 177.811
L270.586 179.345
L269.018 180.699
L266.79 182.836
L265.527 183.476
L262.831 186.327
L262.036 188.367
L260.918 189.818
L258.545 191.501
L257.078 193.309
L255.055 196.485
L254.835 196.8
L255.055 197.553
L256.138 200.291
L255.055 203.205
L254.765 203.782
L253.072 207.273
L253.14 210.764
L252.702 214.255
L252.448 217.745
L252.842 221.236
L255.032 224.727
L254.829 228.218
L255.055 228.659
L256.717 231.709
L258.335 235.2
L258.545 235.581
L260.158 238.691
L262.036 241.374
L262.612 242.182
L265.527 245.521
L265.675 245.673
L269.018 248.782
L269.522 249.164
L272.509 251.443
L274.66 252.655
L276 253.552
L279.491 255.754
L280.233 256.145
L282.982 257.831
L286.473 258.095
L289.964 258.861
L290.988 259.636
L292.798 263.127
L293.455 264.043
L296.733 266.618
L296.945 266.826
L298.432 270.109
L300.436 272.386
L301.389 273.6
L303.927 275.555" style="fill:none;stroke:#000000;"/>
    <path clip-path="url(#p23ab9b749c)" d="
M234.109 261.045
L237.6 262.695
L241.091 260.85
L242.247 259.636
L242.87 256.145
L241.091 253.845
L238.37 252.655
L237.6 252.269
L236.552 252.655
L234.109 253.363
L232.119 256.145
L232.807 259.636
L234.109 261.045" style="fill:none;stroke:#000000;"/>
    <path clip-path="url(#p23ab9b749c)" d="
M216.655 223.121
L220.145 221.937
L220.94 221.236
L222.632 217.745
L220.145 214.441
L217.268 214.255
L216.655 214.202
L216.555 214.255
L213.164 216.464
L212.425 217.745
L213.164 219.331
L214.206 221.236
L216.655 223.121" style="fill:none;stroke:#000000;"/>
    <path clip-path="url(#p23ab9b749c)" d="
M408.655 217.357
L412.145 216.901
L414.479 214.255
L413.007 210.764
L413.162 207.273
L412.432 203.782
L412.145 203.398
L408.655 200.812
L405.164 203.599
L405.064 203.782
L404.538 207.273
L405.164 208.097
L406.8 210.764
L405.657 214.255
L408.655 217.357" style="fill:none;stroke:#000000;"/>
    <path clip-path="url(#p23ab9b749c)" d="
M405.164 198.57
L407.617 196.8
L408.655 195.279
L409.371 193.309
L408.655 192.452
L405.164 190.098
L401.952 193.309
L403.718 196.8
L405.164 198.57" style="fill:none;stroke:#000000;"/>
    <path clip-path="url(#p23ab9b749c)" d="
M398.182 182.224
L401.673 180.894
L402.965 179.345
L401.673 176.516
L400.885 175.855
L398.182 174.739
L396.869 175.855
L395.331 179.345
L398.182 182.224" style="fill:none;stroke:#000000;"/>
    <path clip-path="url(#p23ab9b749c)" d="
M223.636 179.243
L226.807 175.855
L223.636 172.81
L220.479 175.855
L223.636 179.243" style="fill:none;stroke:#000000;"/>
    <path clip-path="url(#p23ab9b749c)" d="
M387.709 163.894
L390.515 161.891
L391.012 158.4
L387.709 155.697
L384.726 158.4
L385.333 161.891
L387.709 163.894" style="fill:none;stroke:#000000;"/>
    <path clip-path="url(#p23ab9b749c)" d="
M244.582 148.703
L246.239 147.927
L247.82 144.436
L244.582 141.606
L241.349 144.436
L243.004 147.927
L244.582 148.703" style="fill:none;stroke:#000000;"/>
    <path clip-path="url(#p23ab9b749c)" d="
M366.764 146.38
L370.255 147.105
L373.418 144.436
L373.745 142.768
L374.276 140.945
L373.745 140.112
L371.417 137.455
L370.255 136.668
L367.122 137.455
L366.764 137.51
L363.868 140.945
L364.768 144.436
L366.764 146.38" style="fill:none;stroke:#000000;"/>
    <path clip-path="url(#p23ab9b749c)" d="
M342.327 130.602
L345.818 130.838
L346.234 130.473
L348.448 126.982
L345.818 124.093
L342.327 124.293
L339.892 126.982
L342.186 130.473
L342.327 130.602" style="fill:none;stroke:#000000;"/>
    <path clip-path="url(#p23ab9b749c)" d="
M276 128.365
L277.671 126.982
L278.956 123.491
L276 120.717
L272.729 123.491
L273.938 126.982
L276 128.365" style="fill:none;stroke:#000000;"/>
    <path clip-path="url(#p23ab9b749c)" d="
M310.909 123.351
L314.4 123.156
L317.08 120
L315.08 116.509
L314.4 115.909
L310.909 115.508
L309.704 116.509
L307.858 120
L310.909 123.351" style="fill:none;stroke:#000000;"/>
   </g>
   <g id="LineCollection_4">
    <path clip-path="url(#p23ab9b749c)" d="
M276 274.345
L276.664 273.6
L276 272.843
L274.945 273.6
L276 274.345" style="fill:none;stroke:#000000;"/>
    <path clip-path="url(#p23ab9b749c)" d="
M307.418 270.113
L310.909 272.146
L313.271 270.109
L313.824 266.618
L310.909 263.654
L307.418 265.258
L306.416 266.618
L307.414 270.109
L307.418 270.113" style="fill:none;stroke:#000000;"/>
    <path clip-path="url(#p23ab9b749c)" d="
M237.6 256.98
L238.103 256.145
L237.6 255.687
L237.076 256.145
L237.6 256.98" style="fill:none;stroke:#000000;"/>
    <path clip-path="url(#p23ab9b749c)" d="
M289.964 242.493
L293.455 242.651
L296.901 242.182
L296.945 242.178
L300.436 241.735
L303.927 240.908
L307.418 239.408
L309.093 238.691
L310.909 237.749
L314.4 235.213
L314.418 235.2
L317.821 231.709
L317.891 231.602
L320.167 228.218
L317.891 225.993
L317.397 224.727
L317.891 223.844
L320.938 221.236
L321.382 219.772
L322.46 217.745
L324.039 214.255
L324.873 211.286
L326.861 214.255
L328.364 214.599
L329.253 214.255
L331.855 213.746
L335.345 213.584
L338.404 210.764
L338.826 207.273
L335.345 203.808
L331.855 204.003
L328.364 206.4
L326.593 207.273
L324.873 210.42
L321.382 207.411
L321.307 207.273
L320.624 203.782
L321.382 200.848
L321.97 200.291
L321.382 197.392
L321.227 196.8
L321.382 196.586
L322.139 193.309
L322.059 189.818
L321.382 188.569
L320.323 186.327
L317.891 184.14
L314.559 182.836
L314.4 182.747
L310.909 181.451
L307.418 182.378
L306.364 182.836
L303.927 183.989
L300.436 184.626
L296.945 183.612
L294.432 182.836
L293.455 182.52
L289.964 182.036
L286.981 182.836
L286.473 182.904
L282.982 184.786
L281.248 186.327
L279.491 189.025
L278.793 189.818
L276 192.17
L274.471 193.309
L272.509 195.791
L272.004 196.8
L269.368 200.291
L269.018 200.747
L266.361 203.782
L265.869 207.273
L265.73 210.764
L266.463 214.255
L267.001 217.745
L268.675 221.236
L269.018 222.179
L269.644 224.727
L269.641 228.218
L272.073 231.709
L272.509 232.284
L274.916 235.2
L276 236.252
L279.372 238.691
L279.491 238.776
L282.982 240.783
L286.473 241.871
L288.543 242.182
L289.964 242.493" style="fill:none;stroke:#000000;"/>
    <path clip-path="url(#p23ab9b749c)" d="
M335.345 245.594
L338.836 242.235
L338.868 242.182
L338.836 242.133
L335.345 238.96
L332.122 242.182
L335.345 245.594" style="fill:none;stroke:#000000;"/>
    <path clip-path="url(#p23ab9b749c)" d="
M216.655 220.743
L219.689 217.745
L216.655 214.819
L213.704 217.745
L216.655 220.743" style="fill:none;stroke:#000000;"/>
    <path clip-path="url(#p23ab9b749c)" d="
M408.655 207.82
L409.169 207.273
L408.655 206.576
L408.157 207.273
L408.655 207.82" style="fill:none;stroke:#000000;"/>
    <path clip-path="url(#p23ab9b749c)" d="
M317.891 200.916
L317.342 200.291
L317.891 198.596
L320.703 200.291
L317.891 200.916" style="fill:none;stroke:#000000;"/>
    <path clip-path="url(#p23ab9b749c)" d="
M405.164 193.813
L405.648 193.309
L405.164 192.883
L404.738 193.309
L405.164 193.813" style="fill:none;stroke:#000000;"/>
    <path clip-path="url(#p23ab9b749c)" d="
M223.636 176.247
L224.004 175.855
L223.636 175.502
L223.271 175.855
L223.636 176.247" style="fill:none;stroke:#000000;"/>
    <path clip-path="url(#p23ab9b749c)" d="
M370.255 142.611
L371.648 140.945
L370.255 139.534
L368.483 140.945
L370.255 142.611" style="fill:none;stroke:#000000;"/>
   </g>
   <g id="LineCollection_5">
    <path clip-path="url(#p23ab9b749c)" d="
M335.345 242.23
L335.395 242.182
L335.345 242.136
L335.3 242.182
L335.345 242.23" style="fill:none;stroke:#000000;"/>
    <path clip-path="url(#p23ab9b749c)" d="
M286.473 232.701
L289.964 234.238
L293.455 234.831
L296.945 234.613
L300.436 233.383
L303.494 231.709
L303.927 231.522
L307.418 229.002
L308.215 228.218
L310.162 224.727
L310.909 222.279
L311.447 221.236
L312.66 217.745
L312.189 214.255
L311.331 210.764
L310.909 210.049
L309.6 207.273
L307.418 204.476
L306.797 203.782
L303.927 201.036
L301.775 200.291
L300.436 199.657
L296.945 198.632
L293.455 198.799
L289.964 198.91
L288.384 200.291
L286.473 202.058
L284.541 203.782
L282.982 205.433
L281.297 203.782
L279.491 202.422
L276 201.899
L273.576 203.782
L272.509 205.926
L271.875 207.273
L272.509 208.664
L274.224 210.764
L276 212.437
L277.836 214.255
L278.172 217.745
L276.606 221.236
L276.065 224.727
L279.14 228.218
L279.491 228.525
L282.982 230.583
L284.935 231.709
L286.473 232.701" style="fill:none;stroke:#000000;"/>
    <path clip-path="url(#p23ab9b749c)" d="
M216.655 218.912
L217.835 217.745
L216.655 216.607
L215.507 217.745
L216.655 218.912" style="fill:none;stroke:#000000;"/>
    <path clip-path="url(#p23ab9b749c)" d="
M335.345 208.746
L336.479 207.273
L335.345 206.144
L333.862 207.273
L335.345 208.746" style="fill:none;stroke:#000000;"/>
    <path clip-path="url(#p23ab9b749c)" d="
M289.964 193.026
L293.183 189.818
L289.964 186.607
L286.569 189.818
L289.964 193.026" style="fill:none;stroke:#000000;"/>
    <path clip-path="url(#p23ab9b749c)" d="
M310.909 190.526
L314.4 192.818
L317.471 189.818
L314.4 186.422
L310.909 189.269
L310.475 189.818
L310.909 190.526" style="fill:none;stroke:#000000;"/>
   </g>
   <g id="LineCollection_6">
    <path clip-path="url(#p23ab9b749c)" d="
M293.455 230.741
L296.945 229.489
L298.746 228.218
L300.436 227.174
L303.7 224.727
L303.927 224.511
L306.335 221.236
L307.235 217.745
L307.17 214.255
L305.875 210.764
L303.927 208.477
L302.596 207.273
L300.436 205.577
L296.945 204.612
L293.455 204.603
L289.964 205.845
L288.444 207.273
L286.473 209.191
L285.113 210.764
L283.936 214.255
L283.647 217.745
L284.285 221.236
L286.473 224.375
L286.685 224.727
L289.964 227.989
L290.13 228.218
L293.455 230.741" style="fill:none;stroke:#000000;"/>
    <path clip-path="url(#p23ab9b749c)" d="
M279.491 225.051
L280.321 224.727
L279.491 224.177
L279.178 224.727
L279.491 225.051" style="fill:none;stroke:#000000;"/>
    <path clip-path="url(#p23ab9b749c)" d="
M276 207.599
L276.405 207.273
L276 206.905
L275.684 207.273
L276 207.599" style="fill:none;stroke:#000000;"/>
    <path clip-path="url(#p23ab9b749c)" d="
M314.4 190.048
L314.636 189.818
L314.4 189.557
L314.126 189.818
L314.4 190.048" style="fill:none;stroke:#000000;"/>
   </g>
   <g id="LineCollection_7">
    <path clip-path="url(#p23ab9b749c)" d="
M289.964 221.452
L293.455 224.357
L296.945 224.226
L300.436 224.28
L303.488 221.236
L303.84 217.745
L303.691 214.255
L301.566 210.764
L300.436 209.661
L296.945 207.98
L293.455 207.917
L290.144 210.764
L289.964 211.045
L287.41 214.255
L287.479 217.745
L289.783 221.236
L289.964 221.452" style="fill:none;stroke:#000000;"/>
   </g>
   <g id="LineCollection_8">
    <path clip-path="url(#p23ab9b749c)" d="
M300.436 222.356
L301.559 221.236
L301.7 217.745
L300.644 214.255
L300.436 214.003
L296.945 210.945
L293.455 210.879
L290.281 214.255
L290.441 217.745
L293.455 220.823
L296.945 221.036
L298.164 221.236
L300.436 222.356" style="fill:none;stroke:#000000;"/>
   </g>
   <g id="LineCollection_9">
    <path clip-path="url(#p23ab9b749c)" d="
M293.455 217.914
L296.945 219.001
L298.452 217.745
L297.943 214.255
L296.945 213.323
L293.455 213.094
L292.363 214.255
L293.289 217.745
L293.455 217.914" style="fill:none;stroke:#000000;"/>
   </g>
   <g id="LineCollection_10"/>
   <g id="LineCollection_11"/>
   <g id="LineCollection_12"/>
   <g id="LineCollection_13"/>
   <g id="LineCollection_14"/>
   <g id="LineCollection_15"/>
   <g id="LineCollection_16"/>
   <g id="LineCollection_17"/>
   <g id="LineCollection_18"/>
   <g id="LineCollection_19"/>
   <g id="patch_4">
    <path d="
M122.4 43.2
L468 43.2
L468 43.2" style="fill:none;stroke:#000000;stroke-linecap:square;stroke-linejoin:miter;"/>
   </g>
   <g id="patch_5">
    <path d="
M468 388.8
L468 43.2
L468 43.2" style="fill:none;stroke:#000000;stroke-linecap:square;stroke-linejoin:miter;"/>
   </g>
   <g id="patch_6">
    <path d="
M122.4 388.8
L468 388.8
L468 388.8" style="fill:none;stroke:#000000;stroke-linecap:square;stroke-linejoin:miter;"/>
   </g>
   <g id="patch_7">
    <path d="
M122.4 388.8
L122.4 43.2
L122.4 43.2" style="fill:none;stroke:#000000;stroke-linecap:square;stroke-linejoin:miter;"/>
   </g>
   <g id="matplotlib.axis_1">
    <g id="xtick_1">
     <g id="line2d_1">
      <defs>
       <path d="
M0 0
L0 -4" id="mb1445623b5" style="stroke:#000000;stroke-width:0.5;"/>
      </defs>
      <g>
       <use style="stroke:#000000;stroke-width:0.5;" x="122.4" xlink:href="#mb1445623b5" y="388.8"/>
      </g>
     </g>
     <g id="line2d_2">
      <defs>
       <path d="
M0 0
L0 4" id="m3a68111ca7" style="stroke:#000000;stroke-width:0.5;"/>
      </defs>
      <g>
       <use style="stroke:#000000;stroke-width:0.5;" x="122.4" xlink:href="#m3a68111ca7" y="43.2"/>
      </g>
     </g>
     <g id="text_1">
      <!-- −1.5 -->
      <defs>
       <path d="
M10.5938 35.5
L73.1875 35.5
L73.1875 27.2031
L10.5938 27.2031
z
" id="BitstreamVeraSans-Roman-2212"/>
       <path d="
M12.4062 8.29688
L28.5156 8.29688
L28.5156 63.9219
L10.9844 60.4062
L10.9844 69.3906
L28.4219 72.9062
L38.2812 72.9062
L38.2812 8.29688
L54.3906 8.29688
L54.3906 0
L12.4062 0
z
" id="BitstreamVeraSans-Roman-31"/>
       <path d="
M10.6875 12.4062
L21 12.4062
L21 0
L10.6875 0
z
" id="BitstreamVeraSans-Roman-2e"/>
       <path d="
M10.7969 72.9062
L49.5156 72.9062
L49.5156 64.5938
L19.8281 64.5938
L19.8281 46.7344
Q21.9688 47.4688 24.1094 47.8281
Q26.2656 48.1875 28.4219 48.1875
Q40.625 48.1875 47.75 41.5
Q54.8906 34.8125 54.8906 23.3906
Q54.8906 11.625 47.5625 5.09375
Q40.2344 -1.42188 26.9062 -1.42188
Q22.3125 -1.42188 17.5469 -0.640625
Q12.7969 0.140625 7.71875 1.70312
L7.71875 11.625
Q12.1094 9.23438 16.7969 8.0625
Q21.4844 6.89062 26.7031 6.89062
Q35.1562 6.89062 40.0781 11.3281
Q45.0156 15.7656 45.0156 23.3906
Q45.0156 31 40.0781 35.4375
Q35.1562 39.8906 26.7031 39.8906
Q22.75 39.8906 18.8125 39.0156
Q14.8906 38.1406 10.7969 36.2812
z
" id="BitstreamVeraSans-Roman-35"/>
      </defs>
      <g transform="translate(108.99 401.918125)scale(0.12 -0.12)">
       <use xlink:href="#BitstreamVeraSans-Roman-2212"/>
       <use x="83.7890625" xlink:href="#BitstreamVeraSans-Roman-31"/>
       <use x="147.412109375" xlink:href="#BitstreamVeraSans-Roman-2e"/>
       <use x="179.19921875" xlink:href="#BitstreamVeraSans-Roman-35"/>
      </g>
     </g>
    </g>
    <g id="xtick_2">
     <g id="line2d_3">
      <g>
       <use style="stroke:#000000;stroke-width:0.5;" x="180.0" xlink:href="#mb1445623b5" y="388.8"/>
      </g>
     </g>
     <g id="line2d_4">
      <g>
       <use style="stroke:#000000;stroke-width:0.5;" x="180.0" xlink:href="#m3a68111ca7" y="43.2"/>
      </g>
     </g>
     <g id="text_2">
      <!-- −1.0 -->
      <defs>
       <path d="
M31.7812 66.4062
Q24.1719 66.4062 20.3281 58.9062
Q16.5 51.4219 16.5 36.375
Q16.5 21.3906 20.3281 13.8906
Q24.1719 6.39062 31.7812 6.39062
Q39.4531 6.39062 43.2812 13.8906
Q47.125 21.3906 47.125 36.375
Q47.125 51.4219 43.2812 58.9062
Q39.4531 66.4062 31.7812 66.4062
M31.7812 74.2188
Q44.0469 74.2188 50.5156 64.5156
Q56.9844 54.8281 56.9844 36.375
Q56.9844 17.9688 50.5156 8.26562
Q44.0469 -1.42188 31.7812 -1.42188
Q19.5312 -1.42188 13.0625 8.26562
Q6.59375 17.9688 6.59375 36.375
Q6.59375 54.8281 13.0625 64.5156
Q19.5312 74.2188 31.7812 74.2188" id="BitstreamVeraSans-Roman-30"/>
      </defs>
      <g transform="translate(166.464375 401.918125)scale(0.12 -0.12)">
       <use xlink:href="#BitstreamVeraSans-Roman-2212"/>
       <use x="83.7890625" xlink:href="#BitstreamVeraSans-Roman-31"/>
       <use x="147.412109375" xlink:href="#BitstreamVeraSans-Roman-2e"/>
       <use x="179.19921875" xlink:href="#BitstreamVeraSans-Roman-30"/>
      </g>
     </g>
    </g>
    <g id="xtick_3">
     <g id="line2d_5">
      <g>
       <use style="stroke:#000000;stroke-width:0.5;" x="237.6" xlink:href="#mb1445623b5" y="388.8"/>
      </g>
     </g>
     <g id="line2d_6">
      <g>
       <use style="stroke:#000000;stroke-width:0.5;" x="237.6" xlink:href="#m3a68111ca7" y="43.2"/>
      </g>
     </g>
     <g id="text_3">
      <!-- −0.5 -->
      <g transform="translate(224.19 401.918125)scale(0.12 -0.12)">
       <use xlink:href="#BitstreamVeraSans-Roman-2212"/>
       <use x="83.7890625" xlink:href="#BitstreamVeraSans-Roman-30"/>
       <use x="147.412109375" xlink:href="#BitstreamVeraSans-Roman-2e"/>
       <use x="179.19921875" xlink:href="#BitstreamVeraSans-Roman-35"/>
      </g>
     </g>
    </g>
    <g id="xtick_4">
     <g id="line2d_7">
      <g>
       <use style="stroke:#000000;stroke-width:0.5;" x="295.2" xlink:href="#mb1445623b5" y="388.8"/>
      </g>
     </g>
     <g id="line2d_8">
      <g>
       <use style="stroke:#000000;stroke-width:0.5;" x="295.2" xlink:href="#m3a68111ca7" y="43.2"/>
      </g>
     </g>
     <g id="text_4">
      <!-- 0.0 -->
      <g transform="translate(286.4521875 401.918125)scale(0.12 -0.12)">
       <use xlink:href="#BitstreamVeraSans-Roman-30"/>
       <use x="63.623046875" xlink:href="#BitstreamVeraSans-Roman-2e"/>
       <use x="95.41015625" xlink:href="#BitstreamVeraSans-Roman-30"/>
      </g>
     </g>
    </g>
    <g id="xtick_5">
     <g id="line2d_9">
      <g>
       <use style="stroke:#000000;stroke-width:0.5;" x="352.8" xlink:href="#mb1445623b5" y="388.8"/>
      </g>
     </g>
     <g id="line2d_10">
      <g>
       <use style="stroke:#000000;stroke-width:0.5;" x="352.8" xlink:href="#m3a68111ca7" y="43.2"/>
      </g>
     </g>
     <g id="text_5">
      <!-- 0.5 -->
      <g transform="translate(344.1778125 401.918125)scale(0.12 -0.12)">
       <use xlink:href="#BitstreamVeraSans-Roman-30"/>
       <use x="63.623046875" xlink:href="#BitstreamVeraSans-Roman-2e"/>
       <use x="95.41015625" xlink:href="#BitstreamVeraSans-Roman-35"/>
      </g>
     </g>
    </g>
    <g id="xtick_6">
     <g id="line2d_11">
      <g>
       <use style="stroke:#000000;stroke-width:0.5;" x="410.4" xlink:href="#mb1445623b5" y="388.8"/>
      </g>
     </g>
     <g id="line2d_12">
      <g>
       <use style="stroke:#000000;stroke-width:0.5;" x="410.4" xlink:href="#m3a68111ca7" y="43.2"/>
      </g>
     </g>
     <g id="text_6">
      <!-- 1.0 -->
      <g transform="translate(401.915625 401.918125)scale(0.12 -0.12)">
       <use xlink:href="#BitstreamVeraSans-Roman-31"/>
       <use x="63.623046875" xlink:href="#BitstreamVeraSans-Roman-2e"/>
       <use x="95.41015625" xlink:href="#BitstreamVeraSans-Roman-30"/>
      </g>
     </g>
    </g>
    <g id="xtick_7">
     <g id="line2d_13">
      <g>
       <use style="stroke:#000000;stroke-width:0.5;" x="468.0" xlink:href="#mb1445623b5" y="388.8"/>
      </g>
     </g>
     <g id="line2d_14">
      <g>
       <use style="stroke:#000000;stroke-width:0.5;" x="468.0" xlink:href="#m3a68111ca7" y="43.2"/>
      </g>
     </g>
     <g id="text_7">
      <!-- 1.5 -->
      <g transform="translate(459.64125 401.918125)scale(0.12 -0.12)">
       <use xlink:href="#BitstreamVeraSans-Roman-31"/>
       <use x="63.623046875" xlink:href="#BitstreamVeraSans-Roman-2e"/>
       <use x="95.41015625" xlink:href="#BitstreamVeraSans-Roman-35"/>
      </g>
     </g>
    </g>
   </g>
   <g id="matplotlib.axis_2">
    <g id="ytick_1">
     <g id="line2d_15">
      <defs>
       <path d="
M0 0
L4 0" id="m71e820122c" style="stroke:#000000;stroke-width:0.5;"/>
      </defs>
      <g>
       <use style="stroke:#000000;stroke-width:0.5;" x="122.4" xlink:href="#m71e820122c" y="388.8"/>
      </g>
     </g>
     <g id="line2d_16">
      <defs>
       <path d="
M0 0
L-4 0" id="m81ec2b1422" style="stroke:#000000;stroke-width:0.5;"/>
      </defs>
      <g>
       <use style="stroke:#000000;stroke-width:0.5;" x="468.0" xlink:href="#m81ec2b1422" y="388.8"/>
      </g>
     </g>
     <g id="text_8">
      <!-- −1.5 -->
      <g transform="translate(91.58 392.11125)scale(0.12 -0.12)">
       <use xlink:href="#BitstreamVeraSans-Roman-2212"/>
       <use x="83.7890625" xlink:href="#BitstreamVeraSans-Roman-31"/>
       <use x="147.412109375" xlink:href="#BitstreamVeraSans-Roman-2e"/>
       <use x="179.19921875" xlink:href="#BitstreamVeraSans-Roman-35"/>
      </g>
     </g>
    </g>
    <g id="ytick_2">
     <g id="line2d_17">
      <g>
       <use style="stroke:#000000;stroke-width:0.5;" x="122.4" xlink:href="#m71e820122c" y="331.2"/>
      </g>
     </g>
     <g id="line2d_18">
      <g>
       <use style="stroke:#000000;stroke-width:0.5;" x="468.0" xlink:href="#m81ec2b1422" y="331.2"/>
      </g>
     </g>
     <g id="text_9">
      <!-- −1.0 -->
      <g transform="translate(91.32875 334.51125)scale(0.12 -0.12)">
       <use xlink:href="#BitstreamVeraSans-Roman-2212"/>
       <use x="83.7890625" xlink:href="#BitstreamVeraSans-Roman-31"/>
       <use x="147.412109375" xlink:href="#BitstreamVeraSans-Roman-2e"/>
       <use x="179.19921875" xlink:href="#BitstreamVeraSans-Roman-30"/>
      </g>
     </g>
    </g>
    <g id="ytick_3">
     <g id="line2d_19">
      <g>
       <use style="stroke:#000000;stroke-width:0.5;" x="122.4" xlink:href="#m71e820122c" y="273.6"/>
      </g>
     </g>
     <g id="line2d_20">
      <g>
       <use style="stroke:#000000;stroke-width:0.5;" x="468.0" xlink:href="#m81ec2b1422" y="273.6"/>
      </g>
     </g>
     <g id="text_10">
      <!-- −0.5 -->
      <g transform="translate(91.58 276.91125)scale(0.12 -0.12)">
       <use xlink:href="#BitstreamVeraSans-Roman-2212"/>
       <use x="83.7890625" xlink:href="#BitstreamVeraSans-Roman-30"/>
       <use x="147.412109375" xlink:href="#BitstreamVeraSans-Roman-2e"/>
       <use x="179.19921875" xlink:href="#BitstreamVeraSans-Roman-35"/>
      </g>
     </g>
    </g>
    <g id="ytick_4">
     <g id="line2d_21">
      <g>
       <use style="stroke:#000000;stroke-width:0.5;" x="122.4" xlink:href="#m71e820122c" y="216.0"/>
      </g>
     </g>
     <g id="line2d_22">
      <g>
       <use style="stroke:#000000;stroke-width:0.5;" x="468.0" xlink:href="#m81ec2b1422" y="216.0"/>
      </g>
     </g>
     <g id="text_11">
      <!-- 0.0 -->
      <g transform="translate(100.904375 219.31125)scale(0.12 -0.12)">
       <use xlink:href="#BitstreamVeraSans-Roman-30"/>
       <use x="63.623046875" xlink:href="#BitstreamVeraSans-Roman-2e"/>
       <use x="95.41015625" xlink:href="#BitstreamVeraSans-Roman-30"/>
      </g>
     </g>
    </g>
    <g id="ytick_5">
     <g id="line2d_23">
      <g>
       <use style="stroke:#000000;stroke-width:0.5;" x="122.4" xlink:href="#m71e820122c" y="158.4"/>
      </g>
     </g>
     <g id="line2d_24">
      <g>
       <use style="stroke:#000000;stroke-width:0.5;" x="468.0" xlink:href="#m81ec2b1422" y="158.4"/>
      </g>
     </g>
     <g id="text_12">
      <!-- 0.5 -->
      <g transform="translate(101.155625 161.71125)scale(0.12 -0.12)">
       <use xlink:href="#BitstreamVeraSans-Roman-30"/>
       <use x="63.623046875" xlink:href="#BitstreamVeraSans-Roman-2e"/>
       <use x="95.41015625" xlink:href="#BitstreamVeraSans-Roman-35"/>
      </g>
     </g>
    </g>
    <g id="ytick_6">
     <g id="line2d_25">
      <g>
       <use style="stroke:#000000;stroke-width:0.5;" x="122.4" xlink:href="#m71e820122c" y="100.8"/>
      </g>
     </g>
     <g id="line2d_26">
      <g>
       <use style="stroke:#000000;stroke-width:0.5;" x="468.0" xlink:href="#m81ec2b1422" y="100.8"/>
      </g>
     </g>
     <g id="text_13">
      <!-- 1.0 -->
      <g transform="translate(101.43125 104.11125)scale(0.12 -0.12)">
       <use xlink:href="#BitstreamVeraSans-Roman-31"/>
       <use x="63.623046875" xlink:href="#BitstreamVeraSans-Roman-2e"/>
       <use x="95.41015625" xlink:href="#BitstreamVeraSans-Roman-30"/>
      </g>
     </g>
    </g>
    <g id="ytick_7">
     <g id="line2d_27">
      <g>
       <use style="stroke:#000000;stroke-width:0.5;" x="122.4" xlink:href="#m71e820122c" y="43.2"/>
      </g>
     </g>
     <g id="line2d_28">
      <g>
       <use style="stroke:#000000;stroke-width:0.5;" x="468.0" xlink:href="#m81ec2b1422" y="43.2"/>
      </g>
     </g>
     <g id="text_14">
      <!-- 1.5 -->
      <g transform="translate(101.6825 46.51125)scale(0.12 -0.12)">
       <use xlink:href="#BitstreamVeraSans-Roman-31"/>
       <use x="63.623046875" xlink:href="#BitstreamVeraSans-Roman-2e"/>
       <use x="95.41015625" xlink:href="#BitstreamVeraSans-Roman-35"/>
      </g>
     </g>
    </g>
   </g>
  </g>
 </g>
 <defs>
  <clipPath id="p23ab9b749c">
   <rect height="345.6" width="345.6" x="122.4" y="43.2"/>
  </clipPath>
 </defs>
</svg>
