<?xml version="1.0" encoding="utf-8" standalone="no"?>
<!DOCTYPE svg PUBLIC "-//W3C//DTD SVG 1.1//EN"
  "http://www.w3.org/Graphics/SVG/1.1/DTD/svg11.dtd">
<!-- Created with matplotlib (http://matplotlib.org/) -->
<svg height="432pt" version="1.1" viewBox="0 0 576 432" width="576pt" xmlns="http://www.w3.org/2000/svg" xmlns:xlink="http://www.w3.org/1999/xlink">
 <defs>
  <style type="text/css">
*{stroke-linecap:butt;stroke-linejoin:round;}
  </style>
 </defs>
 <g id="figure_1">
  <g id="patch_1">
   <path d="
M0 432
L576 432
L576 0
L0 0
z
" style="fill:#ffffff;"/>
  </g>
  <g id="axes_1">
   <g id="patch_2">
    <path d="
M122.4 388.8
L468 388.8
L468 43.2
L122.4 43.2
z
" style="fill:#ffffff;"/>
   </g>
   <g id="patch_3">
    <path clip-path="url(#p23ab9b749c)" d="
M295.2 331.2
C325.751 331.2 355.056 319.062 376.659 297.459
C398.262 275.856 410.4 246.551 410.4 216
C410.4 185.449 398.262 156.144 376.659 134.541
C355.056 112.938 325.751 100.8 295.2 100.8
C264.649 100.8 235.344 112.938 213.741 134.541
C192.138 156.144 180 185.449 180 216
C180 246.551 192.138 275.856 213.741 297.459
C235.344 319.062 264.649 331.2 295.2 331.2
L295.2 331.2" style="fill:none;stroke:#000000;stroke-dasharray:6.000000,6.000000;stroke-dashoffset:0.0;stroke-linejoin:miter;"/>
   </g>
   <g id="LineCollection_1">
    <path clip-path="url(#p23ab9b749c)" d="
M286.56 318.535
L286.924 317.952
L288.288 316.724
L290.016 317.044
L291.05 316.224
L291.744 315.493
L292.419 316.224
L293.472 317.943
L295.2 316.557
L296.928 317.275
L297.31 316.224
L298.656 315.185
L300.384 315.343
L302.112 314.272
L302.818 314.496
L303.291 316.224
L303.84 317.753
L304.803 316.224
L305.568 315.718
L307.296 315.589
L307.864 316.224
L309.024 317.281
L309.68 316.224
L309.024 315.108
L308.344 314.496
L307.157 312.768
L307.296 312.666
L309.024 310.845
L309.258 311.04
L309.442 312.768
L310.752 314.267
L311.202 314.496
L312.48 315.624
L313.113 312.768
L314.208 310.982
L314.269 311.04
L314.936 312.768
L315.936 314.447
L317.664 314.267
L317.897 314.496
L319.392 315.555
L320.779 314.496
L321.696 312.768
L322.848 311.831
L323.487 311.04
L324.576 310.08
L326.304 311.655
L328.032 312.454
L329.76 311.074
L331.488 311.34
L331.842 311.04
L333.372 309.312
L334.244 307.584
L334.944 306.455
L336.672 306.096
L336.759 305.856
L338.4 305.365
L339.799 304.128
L340.128 303.487
L341.856 303.732
L343.973 302.4
L347.04 300.32
L350.496 297.73
L352.224 297.715
L352.77 297.216
L353.239 295.488
L353.952 295.255
L355.68 295.046
L357.255 293.76
L357.114 292.032
L360.864 288.169
L362.792 286.848
L363.763 285.12
L365.325 283.392
L366.048 283.266
L367.776 284.43
L368.968 283.392
L367.618 281.664
L367.776 280.566
L368.318 279.936
L371.014 276.48
L371.232 276.438
L372.855 274.752
L372.96 274.004
L373.725 273.024
L374.688 272.83
L376.155 271.296
L376.432 269.568
L378.144 270.975
L381.59 266.112
L381.395 264.384
L384.716 259.2
L385.056 259.022
L386.784 258.794
L388.059 257.472
L387.161 255.744
L388.512 255.357
L390.24 256.408
L390.853 255.744
L392.293 254.016
L391.968 253.471
L390.24 252.906
L389.282 252.288
L391.522 248.832
L392.773 247.104
L393.696 246.763
L394.556 247.104
L395.424 248.337
L397.152 246.513
L398.88 244.89
L400.342 243.648
L402.336 243.132
L404.064 241.576
L407.52 240.644
L409.248 239.183
L411.225 238.464
L412.704 237.271
L414.432 236.516
L420.721 231.552
L422.479 229.824
L424.024 228.096
L425.371 226.368
L427.559 222.912
L429.17 219.456
L429.984 216.985
L430.204 216
L430.123 214.272
L430.779 210.816
L431.046 207.36
L430.774 203.904
L430.617 202.176
L429.085 200.448
L428.694 196.992
L428.035 193.536
L427.132 190.08
L426.528 188.312
L426.317 186.624
L425.211 184.896
L425.716 183.168
L425.429 181.44
L424.8 180.677
L423.072 180.873
L422.828 179.712
L423.859 177.984
L423.072 177.103
L421.344 176.834
L420.858 176.256
L418.555 171.072
L418.96 169.344
L420.133 167.616
L419.616 167.036
L416.16 166.555
L415.789 165.888
L416.16 165.719
L417.125 164.16
L415.479 162.432
L416.16 161.485
L417.636 160.704
L416.039 157.248
L414.935 155.52
L414.432 153.752
L412.65 150.336
L410.519 146.88
L407.903 143.424
L405.792 141.085
L404.064 139.404
L402.336 137.902
L398.88 135.304
L395.424 133.154
L393.696 133.244
L393.015 134.784
L391.968 135.501
L390.24 135.341
L389.734 134.784
L388.512 133.619
L386.784 135.002
L385.05 134.784
L385.056 134.761
L386.142 133.056
L386.242 131.328
L385.897 127.872
L386.784 126.564
L387.946 126.144
L385.931 124.416
L386.016 122.688
L385.056 121.746
L383.328 121.246
L381.6 121.707
L381.081 120.96
L381.6 119.399
L381.797 119.232
L381.6 119.089
L379.872 117.634
L379.326 119.232
L378.144 119.931
L377.401 119.232
L378.144 117.958
L379.707 117.504
L377.514 115.776
L376.416 115.534
L374.813 114.048
L374.688 113.635
L368.027 108.864
L364.32 106.483
L360.864 104.554
L357.408 102.944
L353.952 101.674
L348.768 99.9966
L347.04 99.728
L345.312 99.3378
L338.686 98.496
L338.38 98.496
L336.672 99.7457
L335.177 98.496
L334.944 98.0146
L333.216 98.352
L331.488 100.539
L329.76 100.105
L328.032 98.9873
L326.304 98.6821
L326.129 98.496
L324.576 98.0244
L322.848 98.2616
L321.12 98.0036
L319.392 97.588
L319.03 98.496
L317.664 99.626
L315.936 99.883
L313.168 96.768
L312.48 95.3214
L312.059 95.04
L310.752 93.8239
L309.876 93.312
L309.024 92.9656
L307.296 92.8257
L305.02 93.312
L306.027 95.04
L305.568 95.6158
L304.961 95.04
L303.84 94.2544
L302.112 94.5276
L301.496 95.04
L300.384 96.8491
L298.656 97.6751
L295.557 96.768
L295.2 96.0127
L293.472 95.9977
L291.744 95.857
L290.016 95.3596
L288.929 96.768
L288.288 97.0855
L287.788 96.768
L287.798 95.04
L284.832 94.7011
L281.376 94.5171
L279.648 94.5159
L277.92 95.5158
L274.464 95.7919
L271.008 96.2698
L267.552 97.052
L264.096 98.157
L260.64 99.618
L257.184 101.486
L253.728 103.782
L250.272 106.542
L247.766 108.864
L244.501 112.32
L239.904 117.569
L238.309 119.232
L238.176 119.829
L236.448 121.56
L234.72 123.105
L234.649 122.688
L232.992 121.407
L231.264 121.884
L229.536 121.822
L226.08 122.331
L225.688 122.688
L224.352 124.888
L223.53 124.416
L222.624 124.182
L222.26 124.416
L221.682 126.144
L222.624 126.665
L223.521 127.872
L222.624 128.769
L220.896 128.985
L220.704 129.6
L220.366 131.328
L219.168 132.346
L217.44 133.058
L215.908 134.784
L215.204 136.512
L213.984 137.708
L213.11 138.24
L212.245 139.968
L212.184 141.696
L210.772 143.424
L208.8 144.196
L207.072 144.838
L205.344 146.563
L204.349 146.88
L203.616 147.545
L201.093 150.336
L199.688 152.064
L197.214 155.52
L194.976 159.261
L193.386 162.432
L191.503 167.616
L191.52 167.652
L192.158 169.344
L191.853 171.072
L190.816 174.528
L190.042 177.984
L189.258 183.168
L188.964 186.624
L188.796 191.808
L188.849 196.992
L188.902 198.72
L188.407 200.448
L189.048 202.176
L188.064 202.371
L186.778 203.904
L188.064 205.41
L189.23 205.632
L188.064 205.904
L186.879 207.36
L186.732 209.088
L188.064 210.594
L189.792 210.027
L190.007 210.816
L189.792 212.131
L189.325 212.544
L188.332 214.272
L188.259 216
L189.238 217.728
L188.064 219.839
L187.678 219.456
L187.596 217.728
L186.336 216.664
L184.608 217.023
L184.093 217.728
L184.424 219.456
L184.129 221.184
L184.608 221.737
L185.244 221.184
L186.336 220.548
L186.967 221.184
L186.336 222.451
L185.944 222.912
L185.437 224.64
L186.336 225.753
L188.064 227.512
L188.456 228.096
L188.817 229.824
L188.064 230.348
L186.746 231.552
L187.208 233.28
L188.064 234.203
L189.792 234.559
L190.8 235.008
L189.792 235.398
L188.613 236.736
L190.53 238.464
L191.52 239.612
L193.703 240.192
L194.976 241.487
L195.158 241.92
L194.976 242.193
L193.79 243.648
L193.684 245.376
L195.132 247.104
L196.942 248.832
L197.246 250.56
L196.381 252.288
L196.704 252.862
L197.683 254.016
L198.232 255.744
L197.517 257.472
L198.21 259.2
L198.516 260.928
L199.066 262.656
L200.017 264.384
L200.16 265.594
L201.071 267.84
L202.712 271.296
L204.635 274.752
L207.072 278.466
L209.493 281.664
L212.551 285.12
L214.211 286.848
L217.44 289.76
L220.896 292.458
L224.352 294.813
L228.44 297.216
L231.772 298.944
L235.526 300.672
L238.176 301.787
L239.904 301.006
L241.172 302.4
L240.997 304.128
L241.632 304.585
L242.812 304.128
L243.36 303.691
L246.816 304.805
L247.379 305.856
L248.086 307.584
L248.544 307.937
L250.272 306.844
L252 307.117
L252.484 307.584
L251.887 309.312
L252 309.626
L252.288 309.312
L253.728 308.735
L255.456 308.676
L257.184 310.181
L258.573 309.312
L257.977 307.584
L258.912 306.669
L259.889 307.584
L260.64 309.253
L262.368 309.056
L262.625 309.312
L262.368 309.873
L260.64 309.42
L260.305 311.04
L260.64 312.858
L260.716 312.768
L264.096 310.694
L264.555 311.04
L265.073 312.768
L265.824 313.318
L267.552 313.853
L271.008 315.344
L272.736 314.895
L274.393 316.224
L274.464 316.886
L277.92 316.705
L279.648 316.341
L281.376 316.274
L283.104 316.9
L284.832 317.323
L285.885 317.952
L286.56 318.535
L286.56 318.535" style="fill:none;stroke:#000000;"/>
    <path clip-path="url(#p23ab9b749c)" d="
M322.848 316.344
L323.089 316.224
L322.848 316.04
L322.294 316.224
L322.848 316.344" style="fill:none;stroke:#000000;"/>
    <path clip-path="url(#p23ab9b749c)" d="
M277.92 315.673
L277.228 314.496
L277.92 314.032
L278.612 314.496
L277.92 315.673" style="fill:none;stroke:#000000;"/>
    <path clip-path="url(#p23ab9b749c)" d="
M288.288 315.368
L287.741 314.496
L286.56 314.012
L284.901 312.768
L286.56 311.763
L287.742 312.768
L288.288 314.01
L288.723 314.496
L288.288 315.368" style="fill:none;stroke:#000000;"/>
    <path clip-path="url(#p23ab9b749c)" d="
M271.008 313.074
L270.182 312.768
L270.653 311.04
L271.008 310.784
L271.383 311.04
L271.296 312.768
L271.008 313.074" style="fill:none;stroke:#000000;"/>
    <path clip-path="url(#p23ab9b749c)" d="
M319.392 312.964
L319.199 312.768
L319.392 312.599
L319.751 312.768
L319.392 312.964" style="fill:none;stroke:#000000;"/>
    <path clip-path="url(#p23ab9b749c)" d="
M324.576 312.917
L324.622 312.768
L324.576 312.716
L324.503 312.768
L324.576 312.917" style="fill:none;stroke:#000000;"/>
    <path clip-path="url(#p23ab9b749c)" d="
M276.192 312.599
L276.098 311.04
L276.192 310.999
L276.242 311.04
L276.192 312.599" style="fill:none;stroke:#000000;"/>
    <path clip-path="url(#p23ab9b749c)" d="
M352.224 300.92
L352.543 300.672
L352.224 300.117
L351.721 300.672
L352.224 300.92" style="fill:none;stroke:#000000;"/>
    <path clip-path="url(#p23ab9b749c)" d="
M360.864 295.634
L361.013 295.488
L360.864 295.266
L360.648 295.488
L360.864 295.634" style="fill:none;stroke:#000000;"/>
    <path clip-path="url(#p23ab9b749c)" d="
M362.592 292.568
L363.118 292.032
L362.592 291.107
L361.834 292.032
L362.592 292.568" style="fill:none;stroke:#000000;"/>
    <path clip-path="url(#p23ab9b749c)" d="
M372.96 280.242
L373.188 279.936
L374.688 278.4
L374.868 278.208
L374.688 277.913
L372.96 276.851
L371.553 278.208
L372.546 279.936
L372.96 280.242" style="fill:none;stroke:#000000;"/>
    <path clip-path="url(#p23ab9b749c)" d="
M376.416 276.741
L376.827 276.48
L376.416 276.093
L376.003 276.48
L376.416 276.741" style="fill:none;stroke:#000000;"/>
    <path clip-path="url(#p23ab9b749c)" d="
M381.6 274.776
L381.639 274.752
L381.6 274.717
L381.518 274.752
L381.6 274.776" style="fill:none;stroke:#000000;"/>
    <path clip-path="url(#p23ab9b749c)" d="
M378.144 273.861
L378.92 273.024
L378.144 271.441
L376.983 273.024
L378.144 273.861" style="fill:none;stroke:#000000;"/>
    <path clip-path="url(#p23ab9b749c)" d="
M385.056 263.266
L385.614 262.656
L385.056 261.66
L383.843 262.656
L385.056 263.266" style="fill:none;stroke:#000000;"/>
    <path clip-path="url(#p23ab9b749c)" d="
M390.24 259.447
L390.84 259.2
L390.24 258.844
L389.861 259.2
L390.24 259.447" style="fill:none;stroke:#000000;"/>
    <path clip-path="url(#p23ab9b749c)" d="
M189.792 242.221
L190.211 241.92
L189.792 241.589
L189.508 241.92
L189.792 242.221" style="fill:none;stroke:#000000;"/>
    <path clip-path="url(#p23ab9b749c)" d="
M186.336 236.43
L187.042 235.008
L186.336 234.365
L185.929 235.008
L186.336 236.43" style="fill:none;stroke:#000000;"/>
    <path clip-path="url(#p23ab9b749c)" d="
M191.52 231.928
L191.38 231.552
L190.965 229.824
L191.52 229.704
L191.656 229.824
L191.779 231.552
L191.52 231.928" style="fill:none;stroke:#000000;"/>
    <path clip-path="url(#p23ab9b749c)" d="
M182.88 228.607
L183.11 228.096
L182.88 227.925
L182.738 228.096
L182.88 228.607" style="fill:none;stroke:#000000;"/>
    <path clip-path="url(#p23ab9b749c)" d="
M189.792 226.881
L189.06 226.368
L189.792 225.583
L190.486 226.368
L189.792 226.881" style="fill:none;stroke:#000000;"/>
    <path clip-path="url(#p23ab9b749c)" d="
M188.064 225.19
L187.538 224.64
L186.993 222.912
L188.064 222.473
L188.35 222.912
L188.662 224.64
L188.064 225.19" style="fill:none;stroke:#000000;"/>
    <path clip-path="url(#p23ab9b749c)" d="
M189.792 221.381
L189.479 221.184
L189.792 220.999
L189.944 221.184
L189.792 221.381" style="fill:none;stroke:#000000;"/>
    <path clip-path="url(#p23ab9b749c)" d="
M181.152 216.087
L182.88 216.115
L183.06 216
L182.88 215.868
L181.152 215.925
L181.084 216
L181.152 216.087" style="fill:none;stroke:#000000;"/>
    <path clip-path="url(#p23ab9b749c)" d="
M184.608 213.139
L186.336 213.302
L187.914 212.544
L186.336 211.666
L185.734 210.816
L184.608 209.935
L183.851 210.816
L184.103 212.544
L184.608 213.139" style="fill:none;stroke:#000000;"/>
    <path clip-path="url(#p23ab9b749c)" d="
M184.608 204.629
L185.531 203.904
L184.608 203.169
L183.997 203.904
L184.608 204.629" style="fill:none;stroke:#000000;"/>
    <path clip-path="url(#p23ab9b749c)" d="
M182.88 200.448
L182.881 200.448
L182.88 200.448
L182.88 200.448
L182.88 200.448" style="fill:none;stroke:#000000;"/>
    <path clip-path="url(#p23ab9b749c)" d="
M423.072 175.219
L423.562 174.528
L423.072 173.963
L422.084 174.528
L423.072 175.219" style="fill:none;stroke:#000000;"/>
    <path clip-path="url(#p23ab9b749c)" d="
M417.888 162.565
L417.968 162.432
L417.888 161.698
L417.726 162.432
L417.888 162.565" style="fill:none;stroke:#000000;"/>
    <path clip-path="url(#p23ab9b749c)" d="
M217.44 132.691
L217.445 131.328
L217.44 131.318
L217.431 131.328
L217.44 132.691" style="fill:none;stroke:#000000;"/>
    <path clip-path="url(#p23ab9b749c)" d="
M388.512 131.902
L388.925 131.328
L390.24 129.908
L390.484 129.6
L390.24 129.366
L388.973 127.872
L388.512 126.597
L387.984 127.872
L387.842 129.6
L387.985 131.328
L388.512 131.902" style="fill:none;stroke:#000000;"/>
    <path clip-path="url(#p23ab9b749c)" d="
M381.6 129.632
L381.571 129.6
L381.6 129.477
L381.636 129.6
L381.6 129.632" style="fill:none;stroke:#000000;"/>
    <path clip-path="url(#p23ab9b749c)" d="
M229.536 126.275
L229.215 126.144
L229.536 125.907
L229.713 126.144
L229.536 126.275" style="fill:none;stroke:#000000;"/>
    <path clip-path="url(#p23ab9b749c)" d="
M385.056 126.345
L384.613 126.144
L385.056 125.577
L385.541 126.144
L385.056 126.345" style="fill:none;stroke:#000000;"/>
    <path clip-path="url(#p23ab9b749c)" d="
M227.808 125.234
L226.932 124.416
L227.808 123.473
L228.474 124.416
L227.808 125.234" style="fill:none;stroke:#000000;"/>
    <path clip-path="url(#p23ab9b749c)" d="
M381.6 125.213
L380.788 124.416
L381.6 123.07
L382.699 124.416
L381.6 125.213" style="fill:none;stroke:#000000;"/>
    <path clip-path="url(#p23ab9b749c)" d="
M310.752 102.248
L310.369 101.952
L310.752 101.505
L311.358 101.952
L310.752 102.248" style="fill:none;stroke:#000000;"/>
    <path clip-path="url(#p23ab9b749c)" d="
M312.48 100.314
L312.421 100.224
L312.48 100.145
L312.586 100.224
L312.48 100.314" style="fill:none;stroke:#000000;"/>
    <path clip-path="url(#p23ab9b749c)" d="
M305.568 98.6403
L305.445 98.496
L305.568 98.1875
L305.742 98.496
L305.568 98.6403" style="fill:none;stroke:#000000;"/>
    <path clip-path="url(#p23ab9b749c)" d="
M315.936 97.4962
L317.601 96.768
L315.936 95.3479
L315.269 96.768
L315.936 97.4962" style="fill:none;stroke:#000000;"/>
    <path clip-path="url(#p23ab9b749c)" d="
M326.304 98.3005
L326.985 96.768
L326.502 95.04
L326.304 94.9642
L326.054 95.04
L325.875 96.768
L326.304 98.3005" style="fill:none;stroke:#000000;"/>
    <path clip-path="url(#p23ab9b749c)" d="
M309.024 95.2688
L308.687 95.04
L309.024 94.4455
L309.33 95.04
L309.024 95.2688" style="fill:none;stroke:#000000;"/>
    <path clip-path="url(#p23ab9b749c)" d="
M319.392 95.906
L321.12 95.9182
L322.848 96.0897
L323.486 95.04
L322.848 94.4607
L321.308 93.312
L321.12 92.9274
L319.392 92.4297
L318.976 93.312
L318.768 95.04
L319.392 95.906" style="fill:none;stroke:#000000;"/>
    <path clip-path="url(#p23ab9b749c)" d="
M300.384 93.3357
L300.402 93.312
L300.384 93.2967
L300.351 93.312
L300.384 93.3357" style="fill:none;stroke:#000000;"/>
   </g>
   <g id="LineCollection_2">
    <path clip-path="url(#p23ab9b749c)" d="
M274.464 288.594
L276.192 288.687
L277.972 288.576
L279.648 287.782
L283.104 286.946
L283.217 286.848
L284.239 285.12
L284.832 284.813
L286.56 284.838
L288.288 285.497
L289.15 285.12
L290.016 284.338
L291.744 284.277
L295.2 285.289
L302.112 286.212
L305.568 286.432
L309.024 286.348
L312.48 285.876
L315.936 284.923
L317.664 284.283
L321.12 282.452
L322.848 281.32
L324.659 279.936
L326.626 278.208
L328.335 276.48
L329.76 274.527
L333.216 270.343
L333.726 269.568
L336.104 267.84
L336.215 266.112
L338.4 265.332
L339.159 264.384
L340.128 263.649
L341.856 263.36
L342.134 262.656
L343.584 261.111
L345.312 260.661
L347.04 258.517
L348.798 257.472
L350.496 255.627
L351.64 254.016
L351.853 252.288
L352.224 251.671
L353.536 250.56
L353.098 248.832
L353.952 247.82
L355.086 247.104
L355.395 245.376
L355.68 244.732
L356.282 243.648
L356.074 241.92
L357.256 240.192
L357.688 238.464
L357.408 237.724
L357.185 236.736
L356.665 235.008
L355.433 233.28
L355.68 232.74
L357.157 231.552
L356.734 229.824
L356.923 228.096
L357.408 227.722
L358.97 226.368
L357.408 225.539
L356.734 224.64
L357.408 223.593
L359.136 224.612
L359.771 222.912
L359.136 222.505
L358.198 221.184
L359.136 219.733
L360.587 219.456
L359.835 217.728
L361.008 214.272
L360.864 214.076
L360.126 212.544
L360.864 210.762
L360.651 209.088
L360.864 207.329
L358.874 205.632
L359.136 205.394
L359.867 203.904
L358.908 202.176
L359.136 201.547
L359.947 200.448
L359.452 198.72
L359.136 196.342
L358.894 196.992
L358.211 200.448
L357.408 200.772
L357.185 200.448
L357.029 198.72
L357.052 196.992
L356.716 195.264
L357.408 194.01
L358.285 193.536
L357.408 192.962
L356.6 191.808
L356.219 190.08
L355.68 189.303
L354.475 188.352
L354.564 186.624
L353.618 184.896
L353.435 183.168
L351.867 181.44
L351.145 179.712
L350.496 179.578
L348.768 177.887
L348.647 177.984
L347.04 178.911
L346.082 177.984
L347.387 176.256
L347.04 174.818
L346.78 174.528
L345.312 172.451
L343.584 171.866
L342.588 171.072
L341.856 169.131
L340.128 166.815
L334.917 164.16
L334.658 162.432
L333.216 161.927
L331.699 160.704
L331.488 160.323
L328.032 158.323
L325.343 157.248
L322.848 156.145
L321.095 155.52
L319.392 156.048
L318.752 155.52
L317.664 154.453
L315.936 155.016
L314.568 153.792
L314.208 153.2
L312.48 153.792
L310.752 153.043
L309.024 151.897
L307.296 152.807
L305.568 152.715
L304.749 153.792
L303.84 154.418
L303.034 153.792
L302.112 152.63
L301.187 152.064
L300.384 150.687
L298.656 151.945
L296.928 151.558
L295.905 152.064
L295.2 152.242
L294.416 152.064
L293.472 151.409
L291.744 151.608
L291.338 152.064
L290.016 152.644
L288.288 153.959
L287.881 155.52
L286.56 156.961
L285.178 155.52
L286.56 153.984
L287.928 153.792
L286.832 152.064
L286.56 151.858
L284.832 152.898
L284.259 153.792
L283.104 154.689
L281.705 153.792
L281.376 152.923
L279.648 153.203
L277.519 153.792
L277.92 153.887
L279.648 156.201
L280.656 157.248
L279.648 157.85
L278.807 157.248
L277.92 156.463
L276.399 155.52
L276.192 154.806
L276 155.52
L274.464 156.649
L272.736 155.85
L271.008 155.747
L270.743 157.248
L269.28 158.682
L267.672 157.248
L267.552 156.952
L265.824 155.867
L264.096 157.126
L263.516 157.248
L262.368 157.809
L261.501 157.248
L261.197 155.52
L260.64 155.485
L258.912 154.854
L258.297 153.792
L257.184 153.528
L256.822 153.792
L255.041 155.52
L255.456 155.953
L257.184 155.701
L258.912 155.577
L260.541 157.248
L260.13 158.976
L260.398 160.704
L258.912 160.905
L255.456 162.826
L253.728 164.36
L253.616 164.16
L253.674 162.432
L252 162.086
L250.272 160.46
L250.067 160.704
L250.045 162.432
L248.199 164.16
L248.544 164.765
L249.316 165.888
L248.943 167.616
L248.544 168.301
L246.816 169.548
L245.088 169.788
L243.36 171.2
L241.632 171.541
L239.904 171.513
L237.991 171.072
L236.448 170.608
L234.72 168.83
L232.992 167.579
L231.264 166.615
L229.22 165.888
L227.808 165.503
L226.08 165.274
L224.352 165.291
L222.624 165.569
L220.896 166.031
L219.168 166.775
L217.44 167.97
L215.712 169.741
L214.76 171.072
L213.984 172.877
L213.44 174.528
L213.207 176.256
L213.265 177.984
L213.704 179.712
L213.984 180.296
L214.669 181.44
L215.712 183.489
L217.44 185.72
L219.168 187.185
L221.073 188.352
L223.544 190.08
L224.352 191.527
L224.846 191.808
L226.08 192.795
L227.808 192.265
L229.027 193.536
L230.046 195.264
L230.66 196.992
L231.383 200.448
L231.391 202.176
L231.264 203.945
L229.536 204.509
L228.59 205.632
L228.833 207.36
L227.808 207.795
L226.08 206.586
L225.36 207.36
L226.354 209.088
L226.08 209.253
L224.352 209.24
L224.172 209.088
L223.592 207.36
L224.352 205.897
L224.647 205.632
L224.352 205.422
L222.624 205.865
L222.055 205.632
L220.896 204.935
L219.95 205.632
L219.168 205.976
L217.44 205.77
L215.694 207.36
L213.984 206.217
L212.256 206.951
L210.528 208.14
L208.8 209.864
L208.074 210.816
L207.072 212.746
L206.476 214.272
L206.12 216
L206.037 217.728
L206.211 219.456
L206.692 221.184
L207.431 222.912
L208.8 224.883
L210.528 226.541
L212.256 227.71
L213.984 228.589
L215.712 229.048
L217.44 228.754
L219.168 229.783
L220.896 229.318
L222.624 230.146
L224.352 229.446
L225.736 228.096
L226.08 226.342
L226.431 226.368
L226.377 228.096
L226.449 229.824
L228.458 231.552
L229.536 232.965
L230.078 233.28
L230.035 238.464
L229.536 240.897
L229.271 241.92
L228.701 243.648
L229.507 245.376
L227.808 247.824
L227.252 248.832
L226.501 250.56
L225.999 252.288
L225.648 254.016
L225.526 255.744
L225.632 257.472
L226.08 259.695
L226.42 260.928
L227.22 262.656
L228.379 264.384
L230.031 266.112
L231.264 267.116
L232.992 268.119
L234.72 268.869
L236.448 269.277
L238.176 269.509
L240.001 269.568
L241.632 269.479
L243.36 269.222
L245.088 268.792
L248.544 267.499
L252 266.038
L253.728 265.62
L253.873 266.112
L255.456 267.422
L257.184 265.982
L257.343 266.112
L257.542 267.84
L257.567 269.568
L257.184 270.151
L256.511 269.568
L255.456 268.372
L254.465 269.568
L255.456 270.435
L256.22 271.296
L256.729 273.024
L257.497 274.752
L257.755 276.48
L258.327 278.208
L258.912 279.433
L260.644 281.664
L262.368 282.684
L263.133 283.392
L264.096 284.677
L265.824 285.811
L267.552 285.963
L268.84 286.848
L269.28 287.317
L271.008 288.02
L274.464 288.594
L274.464 288.594" style="fill:none;stroke:#000000;"/>
    <path clip-path="url(#p23ab9b749c)" d="
M258.912 273.772
L257.745 273.024
L258.912 272.462
L259.398 273.024
L258.912 273.772" style="fill:none;stroke:#000000;"/>
    <path clip-path="url(#p23ab9b749c)" d="
M359.136 230.125
L359.244 229.824
L359.136 229.585
L359.089 229.824
L359.136 230.125" style="fill:none;stroke:#000000;"/>
    <path clip-path="url(#p23ab9b749c)" d="
M222.624 229.216
L221.96 228.096
L222.624 227.714
L223.244 228.096
L222.624 229.216" style="fill:none;stroke:#000000;"/>
    <path clip-path="url(#p23ab9b749c)" d="
M407.52 218.033
L409.248 218.593
L410.976 218.53
L412.704 217.743
L412.725 217.728
L414.432 216.17
L414.57 216
L415.423 214.272
L415.562 212.544
L415.153 210.816
L414.963 209.088
L414.828 207.36
L414.767 205.632
L414.432 204.219
L414.342 203.904
L413.253 202.176
L412.704 201.491
L410.976 200.538
L410.279 200.448
L409.248 199.351
L409.067 198.72
L409.248 198.651
L410.976 197.571
L411.365 196.992
L411.102 195.264
L411.07 193.536
L410.976 193.184
L410.828 191.808
L410.161 190.08
L409.248 189.151
L407.52 188.549
L405.792 188.431
L404.064 188.493
L402.336 188.966
L400.841 190.08
L400.608 190.382
L399.724 191.808
L399.37 193.536
L399.49 195.264
L400.144 196.992
L400.608 197.687
L401.415 198.72
L402.336 199.699
L403.595 200.448
L403.676 202.176
L403.216 203.904
L402.75 205.632
L403.188 207.36
L404.064 208.44
L405.437 209.088
L404.442 210.816
L404.166 212.544
L404.321 214.272
L405.09 216
L405.792 216.766
L407.046 217.728
L407.52 218.033" style="fill:none;stroke:#000000;"/>
    <path clip-path="url(#p23ab9b749c)" d="
M350.496 185.676
L349.782 184.896
L350.496 183.76
L351.66 184.896
L350.496 185.676" style="fill:none;stroke:#000000;"/>
    <path clip-path="url(#p23ab9b749c)" d="
M348.768 183.456
L348.472 183.168
L348.768 182.646
L349.378 183.168
L348.768 183.456" style="fill:none;stroke:#000000;"/>
    <path clip-path="url(#p23ab9b749c)" d="
M395.424 183.644
L397.152 184.339
L398.88 184.73
L400.608 184.455
L402.336 184.213
L403.729 183.168
L404.064 182.82
L404.665 181.44
L405.695 179.712
L405.765 177.984
L405.461 176.256
L404.486 174.528
L404.064 174.006
L402.52 172.8
L402.336 172.687
L400.608 172.213
L398.88 172.027
L397.152 172.127
L396.555 172.8
L395.424 174.503
L395.315 174.528
L393.696 175.511
L393.498 176.256
L392.847 177.984
L393.696 179.364
L393.806 179.712
L394.16 181.44
L394.994 183.168
L395.424 183.644" style="fill:none;stroke:#000000;"/>
    <path clip-path="url(#p23ab9b749c)" d="
M338.4 172.991
L338.214 172.8
L338.4 172.361
L338.732 172.8
L338.4 172.991" style="fill:none;stroke:#000000;"/>
    <path clip-path="url(#p23ab9b749c)" d="
M338.4 170.31
L337.651 169.344
L338.4 168.18
L339.866 169.344
L338.4 170.31" style="fill:none;stroke:#000000;"/>
    <path clip-path="url(#p23ab9b749c)" d="
M252 165.947
L251.965 165.888
L252 165.851
L252.069 165.888
L252 165.947" style="fill:none;stroke:#000000;"/>
    <path clip-path="url(#p23ab9b749c)" d="
M385.056 166.39
L386.784 167.014
L388.512 167.128
L390.24 166.803
L391.931 165.888
L391.968 165.87
L393.696 164.298
L393.811 164.16
L394.853 162.432
L395.252 160.704
L395.255 158.976
L394.869 157.248
L393.865 155.52
L393.696 155.316
L392.059 153.792
L391.968 153.721
L390.24 152.795
L388.512 152.457
L386.784 152.528
L385.056 153.062
L383.923 153.792
L383.328 154.224
L382.149 155.52
L381.6 156.632
L381.279 157.248
L380.854 158.976
L380.92 160.704
L381.488 162.432
L381.6 162.633
L382.421 164.16
L383.328 165.158
L384.315 165.888
L385.056 166.39" style="fill:none;stroke:#000000;"/>
    <path clip-path="url(#p23ab9b749c)" d="
M253.728 162.409
L254.513 160.704
L253.728 160.123
L253.082 160.704
L253.728 162.409" style="fill:none;stroke:#000000;"/>
    <path clip-path="url(#p23ab9b749c)" d="
M321.12 161.051
L320.689 160.704
L321.12 160.095
L321.69 160.704
L321.12 161.051" style="fill:none;stroke:#000000;"/>
    <path clip-path="url(#p23ab9b749c)" d="
M252 159.563
L252.526 158.976
L252.686 157.248
L252 156.538
L251.207 155.52
L251.614 153.792
L252 153.417
L252.701 153.792
L253.728 154.649
L254.554 153.792
L253.892 152.064
L255.456 151.466
L257.184 150.479
L257.596 150.336
L257.184 148.908
L257.143 148.608
L255.456 147.262
L254.893 146.88
L255.456 145.711
L255.665 145.152
L255.456 144.583
L255.069 143.424
L254.375 141.696
L253.728 141.033
L252.93 139.968
L252 139.08
L250.884 138.24
L250.272 137.829
L248.544 137.027
L246.816 136.657
L245.162 136.512
L245.088 136.504
L245.014 136.512
L243.36 136.643
L241.632 137.085
L239.904 137.989
L239.561 138.24
L238.176 139.371
L237.62 139.968
L236.448 141.636
L236.407 141.696
L235.947 143.424
L235.188 145.152
L235.326 146.88
L235.279 148.608
L236.219 150.336
L236.448 151.918
L236.517 152.064
L237.628 153.792
L238.176 154.358
L239.436 155.52
L239.904 156.634
L241.632 156.932
L242.054 157.248
L243.36 157.815
L245.088 157.953
L246.816 158.88
L248.544 157.87
L250.272 158.236
L251.526 158.976
L252 159.563" style="fill:none;stroke:#000000;"/>
    <path clip-path="url(#p23ab9b749c)" d="
M257.184 160.003
L258.078 158.976
L257.184 158.673
L256.481 158.976
L257.184 160.003" style="fill:none;stroke:#000000;"/>
    <path clip-path="url(#p23ab9b749c)" d="
M284.832 159.002
L284.793 158.976
L284.832 158.924
L284.866 158.976
L284.832 159.002" style="fill:none;stroke:#000000;"/>
    <path clip-path="url(#p23ab9b749c)" d="
M324.576 159.189
L324.344 158.976
L324.576 157.968
L325.049 158.976
L324.576 159.189" style="fill:none;stroke:#000000;"/>
    <path clip-path="url(#p23ab9b749c)" d="
M290.016 158.259
L288.846 157.248
L290.016 155.527
L291.158 157.248
L290.016 158.259" style="fill:none;stroke:#000000;"/>
    <path clip-path="url(#p23ab9b749c)" d="
M315.936 157.987
L315.14 157.248
L315.936 155.739
L316.846 157.248
L315.936 157.987" style="fill:none;stroke:#000000;"/>
    <path clip-path="url(#p23ab9b749c)" d="
M291.744 154.225
L291.444 153.792
L291.744 152.799
L292.065 153.792
L291.744 154.225" style="fill:none;stroke:#000000;"/>
    <path clip-path="url(#p23ab9b749c)" d="
M303.84 152.46
L304.45 152.064
L303.84 151.215
L303.238 152.064
L303.84 152.46" style="fill:none;stroke:#000000;"/>
    <path clip-path="url(#p23ab9b749c)" d="
M366.048 147.2
L367.776 147.902
L369.504 147.874
L371.232 147.66
L372.858 146.88
L372.107 145.152
L372.96 144.275
L374.688 145.073
L374.984 143.424
L375.785 141.696
L375.652 139.968
L374.688 138.463
L374.57 138.24
L373.277 136.512
L372.96 136.3
L371.232 135.49
L369.504 135.079
L367.776 135.287
L366.048 136.139
L365.58 136.512
L364.32 137.809
L364.026 138.24
L363.12 139.968
L363.244 141.696
L363.058 143.424
L363.981 145.152
L364.32 145.874
L365.393 146.88
L366.048 147.2" style="fill:none;stroke:#000000;"/>
    <path clip-path="url(#p23ab9b749c)" d="
M341.856 134.936
L343.584 135.328
L345.312 135.226
L346.771 134.784
L347.04 134.717
L348.768 133.37
L349.117 133.056
L350.496 131.352
L350.512 131.328
L351.316 129.6
L351.592 127.872
L351.465 126.144
L350.914 124.416
L350.496 123.745
L349.81 122.688
L348.768 121.682
L347.532 120.96
L347.04 120.68
L345.312 120.154
L343.584 120.086
L341.856 120.403
L340.669 120.96
L340.128 121.206
L338.4 122.674
L338.386 122.688
L337.126 124.416
L336.672 125.91
L336.579 126.144
L336.407 127.872
L336.672 129.116
L336.742 129.6
L337.361 131.328
L338.4 132.431
L339.001 133.056
L340.128 134.114
L341.595 134.784
L341.856 134.936" style="fill:none;stroke:#000000;"/>
    <path clip-path="url(#p23ab9b749c)" d="
M271.008 133.625
L272.736 134.42
L274.464 134.746
L276.192 134.748
L277.92 134.425
L279.648 133.628
L280.383 133.056
L281.376 132.236
L282.142 131.328
L283.104 129.694
L283.154 129.6
L283.85 127.872
L284.174 126.144
L284.182 124.416
L283.907 122.688
L283.139 120.96
L283.104 120.906
L281.963 119.232
L281.376 118.654
L279.707 117.504
L279.648 117.467
L277.92 116.715
L276.192 116.361
L274.464 116.316
L272.736 116.695
L271.091 117.504
L271.008 117.543
L269.28 118.848
L268.898 119.232
L267.671 120.96
L267.552 121.261
L266.911 122.688
L266.535 124.416
L266.502 126.144
L266.789 127.872
L267.464 129.6
L267.552 129.762
L268.489 131.328
L269.28 132.247
L270.259 133.056
L271.008 133.625" style="fill:none;stroke:#000000;"/>
    <path clip-path="url(#p23ab9b749c)" d="
M310.752 127.876
L312.48 127.997
L312.714 127.872
L314.208 127.324
L315.936 127.307
L317.664 126.153
L317.67 126.144
L318.775 124.416
L319.392 123.34
L319.87 122.688
L320.102 120.96
L320.314 119.232
L319.573 117.504
L319.392 116.783
L319.233 115.776
L317.812 114.048
L317.664 113.911
L315.936 112.665
L314.864 112.32
L314.208 112.073
L312.48 111.853
L310.752 112.098
L310.257 112.32
L309.024 112.778
L307.522 114.048
L307.296 114.268
L306.062 115.776
L305.568 117.034
L305.28 117.504
L304.589 119.232
L304.906 120.96
L304.949 122.688
L305.568 124.12
L305.729 124.416
L307.05 126.144
L307.296 126.281
L309.024 127.49
L310.738 127.872
L310.752 127.876" style="fill:none;stroke:#000000;"/>
   </g>
   <g id="LineCollection_3">
    <path clip-path="url(#p23ab9b749c)" d="
M272.736 278.925
L274.464 279.333
L276.192 279.183
L277.92 278.375
L278.155 278.208
L279.648 276.786
L279.912 276.48
L280.791 274.752
L280.756 273.024
L280.857 271.296
L280.17 269.568
L279.648 268.563
L279.065 267.84
L277.92 266.667
L276.56 266.112
L276.192 266.034
L274.464 265.971
L273.747 266.112
L272.736 266.39
L271.008 267.485
L270.67 267.84
L269.459 269.568
L269.28 270.029
L268.811 271.296
L268.651 273.024
L268.954 274.752
L269.28 275.371
L269.745 276.48
L271.008 277.83
L271.564 278.208
L272.736 278.925" style="fill:none;stroke:#000000;"/>
    <path clip-path="url(#p23ab9b749c)" d="
M307.296 274.887
L309.024 275.229
L310.752 275.16
L312.48 274.687
L314.208 273.87
L315.251 273.024
L316.752 271.296
L317.664 269.08
L318.063 267.84
L318.23 266.112
L318.078 264.384
L317.664 262.449
L317.229 260.928
L316.024 257.472
L315.803 255.744
L316.068 254.016
L317.664 252.639
L319.392 251.851
L321.12 251.452
L322.848 251.645
L324.576 250.92
L325.026 250.56
L326.304 249.86
L327.273 250.56
L328.032 251.571
L331.488 251.734
L334.944 251.634
L336.672 251.137
L338.4 250.479
L340.854 248.832
L342.396 247.104
L343.332 245.376
L343.868 243.648
L344.062 241.92
L343.746 240.192
L343.584 238.301
L343.011 236.736
L341.856 234.335
L341.055 233.28
L340.128 231.41
L338.857 229.824
L338.228 228.096
L338.4 227.894
L339.482 226.368
L339.734 224.64
L340.128 223.514
L340.499 222.912
L341.856 220.961
L342.623 219.456
L343.584 217.102
L344.123 216
L344.976 212.544
L345.375 209.088
L345.024 205.632
L344.553 203.904
L343.584 201.756
L342.879 200.448
L341.643 198.72
L340.078 196.992
L338.159 195.264
L336.37 193.536
L334.568 191.808
L332.755 190.08
L331.488 189.02
L328.737 184.896
L327.481 183.168
L326.003 181.44
L322.848 178.803
L321.804 177.984
L321.12 177.273
L319.253 176.256
L315.936 174.849
L313.806 174.528
L312.48 173.963
L310.752 173.672
L302.112 173.099
L300.384 173.114
L296.928 172.866
L293.472 172.871
L290.016 173.098
L286.56 173.663
L284.832 174.105
L283.104 174.861
L281.376 175.297
L279.497 176.256
L276.192 178.522
L274.464 179.322
L274.214 179.712
L272.356 181.44
L271.008 182.756
L269.739 183.168
L269.676 184.896
L269.28 185.327
L267.552 185.271
L265.824 187.369
L265.098 188.352
L265.824 188.895
L266.289 190.08
L265.824 190.606
L264.096 190.878
L263.24 191.808
L262.156 193.536
L261.084 195.264
L260.335 196.992
L260.032 198.72
L259.881 200.448
L258.912 202.781
L257.864 203.904
L257.328 207.36
L257.398 209.088
L257.184 209.487
L256.662 210.816
L256.941 212.544
L256.33 214.272
L256.965 216
L256.594 219.456
L257.521 221.184
L257.764 222.912
L257.649 224.64
L258.697 228.096
L259.532 229.824
L260.061 231.552
L260.64 232.294
L262.368 233.052
L262.533 233.28
L262.368 234.021
L261.821 235.008
L262.368 235.834
L263.16 236.736
L264.096 237.114
L265.023 238.464
L265.108 240.192
L266.16 241.92
L269.28 245.576
L270.348 247.104
L272.08 248.832
L272.736 249.156
L274.464 250.788
L276.671 252.288
L277.92 253.594
L278.607 254.016
L279.648 254.412
L280.032 254.016
L281.376 253.318
L282.228 254.016
L283.104 256.151
L284.832 256.979
L287.521 257.472
L288.288 257.608
L290.016 258.628
L291.744 259.359
L294.417 260.928
L295.2 261.543
L296.928 263.349
L298.663 266.112
L299.549 267.84
L302.112 271.504
L303.84 273.141
L305.568 274.264
L307.296 274.887
L307.296 274.887" style="fill:none;stroke:#000000;"/>
    <path clip-path="url(#p23ab9b749c)" d="
M236.448 261.301
L238.176 261.414
L239.227 260.928
L239.904 260.627
L241.239 259.2
L241.615 257.472
L241.388 255.744
L239.915 254.016
L239.904 254.007
L238.176 253.163
L236.448 253.282
L235.3 254.016
L234.72 254.403
L233.675 255.744
L233.335 257.472
L233.802 259.2
L234.72 260.29
L235.807 260.928
L236.448 261.301" style="fill:none;stroke:#000000;"/>
    <path clip-path="url(#p23ab9b749c)" d="
M319.392 247.511
L319.147 247.104
L319.392 246.911
L319.676 247.104
L319.392 247.511" style="fill:none;stroke:#000000;"/>
    <path clip-path="url(#p23ab9b749c)" d="
M217.44 221.211
L217.508 221.184
L219.168 220.651
L220.316 219.456
L220.747 217.728
L220.355 216
L219.168 214.747
L217.711 214.272
L217.44 214.165
L216.949 214.272
L215.712 214.402
L213.985 216
L213.984 216.005
L213.388 217.728
L213.984 219.29
L214.027 219.456
L215.712 221.021
L217.313 221.184
L217.44 221.211" style="fill:none;stroke:#000000;"/>
    <path clip-path="url(#p23ab9b749c)" d="
M409.248 215.134
L410.976 215.073
L411.778 214.272
L411.675 212.544
L410.976 211.829
L409.248 211.762
L408.463 212.544
L408.365 214.272
L409.248 215.134" style="fill:none;stroke:#000000;"/>
    <path clip-path="url(#p23ab9b749c)" d="
M409.248 208.089
L410.119 207.36
L410.775 205.632
L409.248 204.135
L407.52 205.09
L407.079 205.632
L407.52 206.854
L407.831 207.36
L409.248 208.089" style="fill:none;stroke:#000000;"/>
    <path clip-path="url(#p23ab9b749c)" d="
M405.792 196.047
L406.936 195.264
L407.516 193.536
L405.792 191.906
L404.074 193.536
L404.749 195.264
L405.792 196.047" style="fill:none;stroke:#000000;"/>
    <path clip-path="url(#p23ab9b749c)" d="
M222.624 179.845
L224.352 179.867
L224.63 179.712
L226.08 178.785
L226.726 177.984
L227.095 176.256
L226.24 174.528
L226.08 174.357
L224.352 173.146
L222.624 173.152
L220.896 174.453
L220.829 174.528
L219.946 176.256
L220.331 177.984
L220.896 178.714
L222.406 179.712
L222.624 179.845" style="fill:none;stroke:#000000;"/>
    <path clip-path="url(#p23ab9b749c)" d="
M398.88 180.543
L400.608 179.726
L400.622 179.712
L401.458 177.984
L400.608 176.932
L398.88 176.332
L397.232 177.984
L397.858 179.712
L398.88 180.543" style="fill:none;stroke:#000000;"/>
    <path clip-path="url(#p23ab9b749c)" d="
M386.784 161.636
L388.512 162.163
L390.118 160.704
L390.157 158.976
L388.512 157.437
L386.784 157.908
L385.829 158.976
L385.922 160.704
L386.784 161.636" style="fill:none;stroke:#000000;"/>
    <path clip-path="url(#p23ab9b749c)" d="
M245.088 148.769
L245.376 148.608
L246.816 147.684
L247.403 146.88
L247.568 145.152
L246.816 144.046
L246.157 143.424
L245.088 142.755
L243.36 143.008
L242.82 143.424
L241.643 145.152
L241.712 146.88
L243.36 148.567
L244.044 148.608
L245.088 148.769" style="fill:none;stroke:#000000;"/>
    <path clip-path="url(#p23ab9b749c)" d="
M369.504 143.484
L369.605 143.424
L371.232 141.932
L371.377 141.696
L371.232 141.399
L370.369 139.968
L369.504 139.396
L368.52 139.968
L367.776 140.806
L367.293 141.696
L367.776 142.424
L369.386 143.424
L369.504 143.484" style="fill:none;stroke:#000000;"/>
    <path clip-path="url(#p23ab9b749c)" d="
M343.584 129.484
L345.312 129.312
L346.616 127.872
L346.31 126.144
L345.312 125.159
L343.584 124.907
L342.211 126.144
L341.985 127.872
L343.584 129.484" style="fill:none;stroke:#000000;"/>
    <path clip-path="url(#p23ab9b749c)" d="
M274.464 127.337
L276.192 127.534
L277.847 126.144
L277.92 125.836
L278.403 124.416
L277.92 123.563
L277.342 122.688
L276.192 121.864
L274.464 122.131
L273.785 122.688
L272.829 124.416
L273.201 126.144
L274.464 127.337" style="fill:none;stroke:#000000;"/>
    <path clip-path="url(#p23ab9b749c)" d="
M310.752 120.977
L312.48 122.042
L314.123 120.96
L314.208 120.822
L314.99 119.232
L314.208 118.024
L313.538 117.504
L312.48 116.917
L311.386 117.504
L310.752 117.94
L309.903 119.232
L310.736 120.96
L310.752 120.977" style="fill:none;stroke:#000000;"/>
   </g>
   <g id="LineCollection_4">
    <path clip-path="url(#p23ab9b749c)" d="
M274.464 276.132
L276.192 275.153
L276.561 274.752
L276.515 273.024
L276.192 272.643
L274.464 271.697
L272.996 273.024
L272.94 274.752
L274.464 276.132" style="fill:none;stroke:#000000;"/>
    <path clip-path="url(#p23ab9b749c)" d="
M309.024 270.721
L310.752 270.897
L312.319 269.568
L312.48 268.79
L312.829 267.84
L312.48 267.122
L311.884 266.112
L310.752 265.213
L309.024 265.356
L308.13 266.112
L307.343 267.84
L307.721 269.568
L309.024 270.721" style="fill:none;stroke:#000000;"/>
    <path clip-path="url(#p23ab9b749c)" d="
M236.448 258.407
L238.176 258.457
L239.013 257.472
L238.176 256.464
L236.448 256.514
L235.672 257.472
L236.448 258.407" style="fill:none;stroke:#000000;"/>
    <path clip-path="url(#p23ab9b749c)" d="
M334.944 245.675
L336.672 245.692
L337.149 245.376
L338.4 244.392
L338.947 243.648
L339.098 241.92
L338.4 240.759
L337.881 240.192
L336.672 239.264
L334.944 239.203
L333.404 240.192
L333.216 240.426
L332.317 241.92
L332.564 243.648
L333.216 244.425
L334.407 245.376
L334.944 245.675" style="fill:none;stroke:#000000;"/>
    <path clip-path="url(#p23ab9b749c)" d="
M288.288 240.279
L290.016 240.603
L293.472 240.539
L295.2 240.808
L297.022 240.192
L298.656 240.823
L301.716 240.192
L302.112 240.093
L303.84 239.221
L305.568 238.97
L307.296 237.865
L309.412 236.736
L311.82 235.008
L312.48 234.394
L314.208 232.04
L314.814 231.552
L315.936 230.467
L316.419 229.824
L318.413 226.368
L319.392 224.405
L321.424 219.456
L321.167 217.728
L322.547 216
L323.074 214.272
L323.937 210.816
L322.821 209.088
L321.972 207.36
L321.12 206.293
L320.759 205.632
L319.392 202.004
L319.075 200.448
L319.502 196.992
L320.356 193.536
L320.655 191.808
L320.659 190.08
L320.317 188.352
L319.386 186.624
L317.664 184.698
L315.936 183.637
L314.208 183.251
L312.48 183.208
L310.752 183.459
L309.024 184.075
L307.296 185.029
L303.84 187.036
L302.112 187.536
L300.384 187.163
L295.2 183.945
L293.472 183.152
L291.744 182.631
L290.016 182.426
L288.288 182.623
L286.56 183.236
L284.832 184.12
L283.104 185.54
L282.057 186.624
L280.833 188.352
L279.648 190.532
L277.568 193.536
L275.98 195.264
L271.901 198.72
L271.008 199.58
L270.286 200.448
L269.199 202.176
L268.301 203.904
L267.838 205.632
L267.639 207.36
L267.628 209.088
L268.291 210.816
L268.258 212.544
L268.561 214.272
L269.188 216
L269.144 217.728
L269.982 222.912
L270.599 224.64
L271.013 226.368
L271.73 228.096
L272.801 229.824
L274.464 231.764
L276.192 233.845
L277.92 235.201
L281.376 237.632
L283.104 237.99
L283.868 238.464
L284.832 239.241
L286.56 239.851
L288.288 240.279
L288.288 240.279" style="fill:none;stroke:#000000;"/>
    <path clip-path="url(#p23ab9b749c)" d="
M217.44 219.051
L218.688 217.728
L217.44 216.396
L215.871 217.728
L217.44 219.051" style="fill:none;stroke:#000000;"/>
    <path clip-path="url(#p23ab9b749c)" d="
M329.76 212.758
L331.488 213.465
L333.216 213.655
L334.944 213.394
L336.429 212.544
L336.672 212.445
L338.191 210.816
L338.4 210.269
L338.908 209.088
L338.888 207.36
L338.4 206.316
L338.127 205.632
L336.672 204.145
L336.02 203.904
L334.944 203.342
L333.216 203.208
L331.488 203.703
L331.079 203.904
L329.76 204.762
L328.778 205.632
L328.032 206.924
L327.518 207.36
L326.849 209.088
L327.429 210.816
L328.032 211.173
L329.344 212.544
L329.76 212.758" style="fill:none;stroke:#000000;"/>
    <path clip-path="url(#p23ab9b749c)" d="
M405.792 194.052
L406.247 193.536
L405.792 193.106
L405.339 193.536
L405.792 194.052" style="fill:none;stroke:#000000;"/>
    <path clip-path="url(#p23ab9b749c)" d="
M398.88 178.216
L399.113 177.984
L398.88 177.794
L398.69 177.984
L398.88 178.216" style="fill:none;stroke:#000000;"/>
    <path clip-path="url(#p23ab9b749c)" d="
M222.624 176.969
L224.352 176.48
L224.502 176.256
L224.352 176.088
L222.624 175.696
L222.112 176.256
L222.624 176.969" style="fill:none;stroke:#000000;"/>
    <path clip-path="url(#p23ab9b749c)" d="
M245.088 145.362
L245.189 145.152
L245.088 145.052
L244.878 145.152
L245.088 145.362" style="fill:none;stroke:#000000;"/>
    <path clip-path="url(#p23ab9b749c)" d="
M369.504 143.047
L370.858 141.696
L369.504 140.319
L368.133 141.696
L369.504 143.047" style="fill:none;stroke:#000000;"/>
    <path clip-path="url(#p23ab9b749c)" d="
M276.192 125.151
L276.802 124.416
L276.192 123.777
L275.249 124.416
L276.192 125.151" style="fill:none;stroke:#000000;"/>
    <path clip-path="url(#p23ab9b749c)" d="
M312.48 120.686
L313.909 119.232
L312.48 117.815
L311.045 119.232
L312.48 120.686" style="fill:none;stroke:#000000;"/>
   </g>
   <g id="LineCollection_5">
    <path clip-path="url(#p23ab9b749c)" d="
M310.752 268.229
L311.037 267.84
L310.752 267.535
L310.221 267.84
L310.752 268.229" style="fill:none;stroke:#000000;"/>
    <path clip-path="url(#p23ab9b749c)" d="
M293.472 233.499
L295.2 233.491
L296.417 233.28
L296.928 233.22
L298.656 232.779
L300.384 232.03
L301.226 231.552
L302.112 231.096
L303.84 229.91
L303.947 229.824
L305.568 228.56
L306.059 228.096
L307.296 226.8
L307.678 226.368
L308.853 224.64
L309.024 224.305
L309.815 222.912
L310.481 221.184
L310.752 219.783
L310.842 219.456
L311.109 217.728
L311.214 216
L311.13 214.272
L310.792 212.544
L310.752 212.397
L310.409 210.816
L309.755 209.088
L309.024 207.783
L308.783 207.36
L307.533 205.632
L307.296 205.355
L305.788 203.904
L305.568 203.709
L303.84 202.455
L303.307 202.176
L302.112 201.514
L300.384 200.793
L299.162 200.448
L298.656 200.261
L296.928 199.809
L295.2 199.54
L293.472 199.393
L291.744 199.551
L290.016 200.142
L289.531 200.448
L288.288 201.047
L286.751 202.176
L286.56 202.301
L284.832 203.651
L284.311 203.904
L283.104 204.679
L281.376 205.279
L279.648 204.662
L278.798 203.904
L277.92 203.433
L276.192 202.863
L274.464 203.367
L273.85 203.904
L272.759 205.632
L272.736 207.004
L272.716 207.36
L272.736 207.408
L273.44 209.088
L274.464 210.3
L275.483 210.816
L276.192 211.493
L277.492 212.544
L277.92 213.377
L278.256 214.272
L278.261 216
L278.009 217.728
L277.92 217.897
L277.205 219.456
L276.626 221.184
L276.406 222.912
L276.596 224.64
L277.577 226.368
L277.92 226.761
L279.648 228.026
L279.952 228.096
L281.376 228.711
L283.104 229.139
L284.556 229.824
L284.832 229.978
L286.56 231.054
L287.478 231.552
L288.288 232
L290.016 232.784
L291.744 233.222
L292.24 233.28
L293.472 233.499" style="fill:none;stroke:#000000;"/>
    <path clip-path="url(#p23ab9b749c)" d="
M334.944 210.062
L336.011 209.088
L336.216 207.36
L334.944 206.169
L333.323 207.36
L333.47 209.088
L334.944 210.062" style="fill:none;stroke:#000000;"/>
    <path clip-path="url(#p23ab9b749c)" d="
M288.288 192.996
L290.016 193.295
L291.744 192.214
L292.002 191.808
L292.804 190.08
L292.461 188.352
L291.744 187.565
L290.016 186.66
L288.288 186.892
L286.82 188.352
L286.613 190.08
L287.228 191.808
L288.288 192.996" style="fill:none;stroke:#000000;"/>
    <path clip-path="url(#p23ab9b749c)" d="
M312.48 191.396
L314.208 191.803
L315.936 190.767
L316.401 190.08
L316.226 188.352
L315.936 188.013
L314.208 186.789
L312.48 187.521
L311.656 188.352
L311.449 190.08
L312.48 191.396" style="fill:none;stroke:#000000;"/>
    <path clip-path="url(#p23ab9b749c)" d="
M369.504 141.844
L369.652 141.696
L369.504 141.545
L369.354 141.696
L369.504 141.844" style="fill:none;stroke:#000000;"/>
    <path clip-path="url(#p23ab9b749c)" d="
M312.48 119.582
L312.824 119.232
L312.48 118.891
L312.135 119.232
L312.48 119.582" style="fill:none;stroke:#000000;"/>
   </g>
   <g id="LineCollection_6">
    <path clip-path="url(#p23ab9b749c)" d="
M291.744 228.811
L293.472 229.664
L295.2 229.63
L296.928 228.501
L297.457 228.096
L298.656 227.1
L300.042 226.368
L300.384 226.272
L302.112 225.341
L302.911 224.64
L303.84 223.589
L304.381 222.912
L305.233 221.184
L305.568 219.817
L305.708 219.456
L306.135 217.728
L306.216 216
L305.938 214.272
L305.568 213.329
L305.354 212.544
L304.459 210.816
L303.84 210.043
L303.045 209.088
L302.112 208.225
L300.774 207.36
L300.384 207.091
L298.656 206.283
L296.928 205.953
L295.2 205.918
L293.472 206.158
L291.744 206.816
L290.861 207.36
L290.016 207.781
L288.464 209.088
L288.288 209.268
L286.925 210.816
L286.56 211.58
L286.001 212.544
L285.493 214.272
L285.375 216
L285.414 217.728
L285.713 219.456
L286.372 221.184
L286.56 221.512
L287.186 222.912
L288.288 224.479
L288.387 224.64
L289.553 226.368
L290.016 226.876
L290.878 228.096
L291.744 228.811" style="fill:none;stroke:#000000;"/>
    <path clip-path="url(#p23ab9b749c)" d="
M279.648 224.799
L281.376 225.535
L282.374 224.64
L282.436 222.912
L281.376 221.932
L279.648 222.701
L279.48 222.912
L279.5 224.64
L279.648 224.799" style="fill:none;stroke:#000000;"/>
    <path clip-path="url(#p23ab9b749c)" d="
M276.192 207.287
L276.839 205.632
L276.192 205.049
L275.281 205.632
L276.192 207.287" style="fill:none;stroke:#000000;"/>
   </g>
   <g id="LineCollection_7">
    <path clip-path="url(#p23ab9b749c)" d="
M293.472 227.035
L295.2 226.834
L295.536 226.368
L295.2 225.675
L293.472 225.428
L292.937 226.368
L293.472 227.035" style="fill:none;stroke:#000000;"/>
    <path clip-path="url(#p23ab9b749c)" d="
M293.472 223.025
L295.2 223.617
L296.928 223.606
L298.656 223.788
L300.384 223.315
L300.863 222.912
L302.091 221.184
L302.112 220.744
L302.485 219.456
L303.237 217.728
L303.449 216
L302.865 214.272
L302.112 213.12
L301.826 212.544
L300.491 210.816
L300.384 210.712
L298.656 209.371
L296.928 209.153
L295.2 209.199
L293.472 209.385
L291.744 210.232
L291.071 210.816
L290.016 212.229
L289.772 212.544
L288.962 214.272
L288.77 216
L289.067 217.728
L290.016 219.436
L290.024 219.456
L291.1 221.184
L291.744 221.906
L293.381 222.912
L293.472 223.025" style="fill:none;stroke:#000000;"/>
   </g>
   <g id="LineCollection_8">
    <path clip-path="url(#p23ab9b749c)" d="
M298.656 221.595
L300.384 221.783
L300.949 221.184
L300.384 220.294
L299.412 219.456
L300.384 218.559
L301.027 217.728
L301.981 216
L300.384 214.335
L300.019 214.272
L299.961 212.544
L298.656 211.17
L296.928 211.008
L295.2 211.379
L293.472 210.985
L291.832 212.544
L291.744 213.204
L291.123 214.272
L290.405 216
L291.161 217.728
L291.744 218.475
L292.83 219.456
L293.472 220.009
L295.2 220.612
L296.928 220.6
L297.961 221.184
L298.656 221.595" style="fill:none;stroke:#000000;"/>
   </g>
   <g id="LineCollection_9">
    <path clip-path="url(#p23ab9b749c)" d="
M293.472 218.005
L295.2 219.284
L296.928 218.246
L297.546 217.728
L298.401 216
L297.273 214.272
L296.928 213.497
L295.2 213.309
L294.26 212.544
L293.472 211.966
L292.863 212.544
L293.269 214.272
L291.96 216
L293.187 217.728
L293.472 218.005" style="fill:none;stroke:#000000;"/>
    <path clip-path="url(#p23ab9b749c)" d="
M300.384 216.99
L301.241 216
L300.384 215.106
L299.076 216
L300.384 216.99" style="fill:none;stroke:#000000;"/>
   </g>
   <g id="LineCollection_10">
    <path clip-path="url(#p23ab9b749c)" d="
M295.2 218.462
L296.062 217.728
L296.928 216
L295.2 214.272
L293.472 216
L294.361 217.728
L295.2 218.462" style="fill:none;stroke:#000000;"/>
   </g>
   <g id="LineCollection_11">
    <path clip-path="url(#p23ab9b749c)" d="
M295.2 217.728
L296.928 216
L295.2 214.272
L293.472 216
L295.2 217.728" style="fill:none;stroke:#000000;"/>
   </g>
   <g id="LineCollection_12">
    <path clip-path="url(#p23ab9b749c)" d="
M295.2 217.728
L296.928 216
L295.2 214.272
L293.472 216
L295.2 217.728" style="fill:none;stroke:#000000;"/>
   </g>
   <g id="LineCollection_13">
    <path clip-path="url(#p23ab9b749c)" d="
M295.2 217.728
L296.928 216
L295.2 214.272
L293.472 216
L295.2 217.728" style="fill:none;stroke:#000000;"/>
   </g>
   <g id="LineCollection_14">
    <path clip-path="url(#p23ab9b749c)" d="
M295.2 217.728
L296.928 216
L295.2 214.272
L293.472 216
L295.2 217.728" style="fill:none;stroke:#000000;"/>
   </g>
   <g id="LineCollection_15">
    <path clip-path="url(#p23ab9b749c)" d="
M295.2 217.728
L296.928 216
L295.2 214.272
L293.472 216
L295.2 217.728" style="fill:none;stroke:#000000;"/>
   </g>
   <g id="LineCollection_16">
    <path clip-path="url(#p23ab9b749c)" d="
M295.2 217.728
L296.928 216
L295.2 214.272
L293.472 216
L295.2 217.728" style="fill:none;stroke:#000000;"/>
   </g>
   <g id="LineCollection_17">
    <path clip-path="url(#p23ab9b749c)" d="
M295.2 217.728
L296.928 216
L295.2 214.272
L293.472 216
L295.2 217.728" style="fill:none;stroke:#000000;"/>
   </g>
   <g id="LineCollection_18">
    <path clip-path="url(#p23ab9b749c)" d="
M295.2 217.728
L296.928 216
L295.2 214.272
L293.472 216
L295.2 217.728" style="fill:none;stroke:#000000;"/>
   </g>
   <g id="LineCollection_19">
    <path clip-path="url(#p23ab9b749c)" d="
M295.2 217.728
L296.928 216
L295.2 214.272
L293.472 216
L295.2 217.728" style="fill:none;stroke:#000000;"/>
   </g>
   <g id="patch_4">
    <path d="
M122.4 43.2
L468 43.2
L468 43.2" style="fill:none;stroke:#000000;stroke-linecap:square;stroke-linejoin:miter;"/>
   </g>
   <g id="patch_5">
    <path d="
M468 388.8
L468 43.2
L468 43.2" style="fill:none;stroke:#000000;stroke-linecap:square;stroke-linejoin:miter;"/>
   </g>
   <g id="patch_6">
    <path d="
M122.4 388.8
L468 388.8
L468 388.8" style="fill:none;stroke:#000000;stroke-linecap:square;stroke-linejoin:miter;"/>
   </g>
   <g id="patch_7">
    <path d="
M122.4 388.8
L122.4 43.2
L122.4 43.2" style="fill:none;stroke:#000000;stroke-linecap:square;stroke-linejoin:miter;"/>
   </g>
   <g id="matplotlib.axis_1">
    <g id="xtick_1">
     <g id="line2d_1">
      <defs>
       <path d="
M0 0
L0 -4" id="mb1445623b5" style="stroke:#000000;stroke-width:0.5;"/>
      </defs>
      <g>
       <use style="stroke:#000000;stroke-width:0.5;" x="122.4" xlink:href="#mb1445623b5" y="388.8"/>
      </g>
     </g>
     <g id="line2d_2">
      <defs>
       <path d="
M0 0
L0 4" id="m3a68111ca7" style="stroke:#000000;stroke-width:0.5;"/>
      </defs>
      <g>
       <use style="stroke:#000000;stroke-width:0.5;" x="122.4" xlink:href="#m3a68111ca7" y="43.2"/>
      </g>
     </g>
     <g id="text_1">
      <!-- 1.5 -->
      <defs>
       <path d="
M10.5938 35.5
L73.1875 35.5
L73.1875 27.2031
L10.5938 27.2031
z
" id="BitstreamVeraSans-Roman-2212"/>
       <path d="
M12.4062 8.29688
L28.5156 8.29688
L28.5156 63.9219
L10.9844 60.4062
L10.9844 69.3906
L28.4219 72.9062
L38.2812 72.9062
L38.2812 8.29688
L54.3906 8.29688
L54.3906 0
L12.4062 0
z
" id="BitstreamVeraSans-Roman-31"/>
       <path d="
M10.6875 12.4062
L21 12.4062
L21 0
L10.6875 0
z
" id="BitstreamVeraSans-Roman-2e"/>
       <path d="
M10.7969 72.9062
L49.5156 72.9062
L49.5156 64.5938
L19.8281 64.5938
L19.8281 46.7344
Q21.9688 47.4688 24.1094 47.8281
Q26.2656 48.1875 28.4219 48.1875
Q40.625 48.1875 47.75 41.5
Q54.8906 34.8125 54.8906 23.3906
Q54.8906 11.625 47.5625 5.09375
Q40.2344 -1.42188 26.9062 -1.42188
Q22.3125 -1.42188 17.5469 -0.640625
Q12.7969 0.140625 7.71875 1.70312
L7.71875 11.625
Q12.1094 9.23438 16.7969 8.0625
Q21.4844 6.89062 26.7031 6.89062
Q35.1562 6.89062 40.0781 11.3281
Q45.0156 15.7656 45.0156 23.3906
Q45.0156 31 40.0781 35.4375
Q35.1562 39.8906 26.7031 39.8906
Q22.75 39.8906 18.8125 39.0156
Q14.8906 38.1406 10.7969 36.2812
z
" id="BitstreamVeraSans-Roman-35"/>
      </defs>
      <g transform="translate(108.99 401.918125)scale(0.12 -0.12)">
       <use xlink:href="#BitstreamVeraSans-Roman-2212"/>
       <use x="83.7890625" xlink:href="#BitstreamVeraSans-Roman-31"/>
       <use x="147.412109375" xlink:href="#BitstreamVeraSans-Roman-2e"/>
       <use x="179.19921875" xlink:href="#BitstreamVeraSans-Roman-35"/>
      </g>
     </g>
    </g>
    <g id="xtick_2">
     <g id="line2d_3">
      <g>
       <use style="stroke:#000000;stroke-width:0.5;" x="180.0" xlink:href="#mb1445623b5" y="388.8"/>
      </g>
     </g>
     <g id="line2d_4">
      <g>
       <use style="stroke:#000000;stroke-width:0.5;" x="180.0" xlink:href="#m3a68111ca7" y="43.2"/>
      </g>
     </g>
     <g id="text_2">
      <!-- 1.0 -->
      <defs>
       <path d="
M31.7812 66.4062
Q24.1719 66.4062 20.3281 58.9062
Q16.5 51.4219 16.5 36.375
Q16.5 21.3906 20.3281 13.8906
Q24.1719 6.39062 31.7812 6.39062
Q39.4531 6.39062 43.2812 13.8906
Q47.125 21.3906 47.125 36.375
Q47.125 51.4219 43.2812 58.9062
Q39.4531 66.4062 31.7812 66.4062
M31.7812 74.2188
Q44.0469 74.2188 50.5156 64.5156
Q56.9844 54.8281 56.9844 36.375
Q56.9844 17.9688 50.5156 8.26562
Q44.0469 -1.42188 31.7812 -1.42188
Q19.5312 -1.42188 13.0625 8.26562
Q6.59375 17.9688 6.59375 36.375
Q6.59375 54.8281 13.0625 64.5156
Q19.5312 74.2188 31.7812 74.2188" id="BitstreamVeraSans-Roman-30"/>
      </defs>
      <g transform="translate(166.464375 401.918125)scale(0.12 -0.12)">
       <use xlink:href="#BitstreamVeraSans-Roman-2212"/>
       <use x="83.7890625" xlink:href="#BitstreamVeraSans-Roman-31"/>
       <use x="147.412109375" xlink:href="#BitstreamVeraSans-Roman-2e"/>
       <use x="179.19921875" xlink:href="#BitstreamVeraSans-Roman-30"/>
      </g>
     </g>
    </g>
    <g id="xtick_3">
     <g id="line2d_5">
      <g>
       <use style="stroke:#000000;stroke-width:0.5;" x="237.6" xlink:href="#mb1445623b5" y="388.8"/>
      </g>
     </g>
     <g id="line2d_6">
      <g>
       <use style="stroke:#000000;stroke-width:0.5;" x="237.6" xlink:href="#m3a68111ca7" y="43.2"/>
      </g>
     </g>
     <g id="text_3">
      <!-- 0.5 -->
      <g transform="translate(224.19 401.918125)scale(0.12 -0.12)">
       <use xlink:href="#BitstreamVeraSans-Roman-2212"/>
       <use x="83.7890625" xlink:href="#BitstreamVeraSans-Roman-30"/>
       <use x="147.412109375" xlink:href="#BitstreamVeraSans-Roman-2e"/>
       <use x="179.19921875" xlink:href="#BitstreamVeraSans-Roman-35"/>
      </g>
     </g>
    </g>
    <g id="xtick_4">
     <g id="line2d_7">
      <g>
       <use style="stroke:#000000;stroke-width:0.5;" x="295.2" xlink:href="#mb1445623b5" y="388.8"/>
      </g>
     </g>
     <g id="line2d_8">
      <g>
       <use style="stroke:#000000;stroke-width:0.5;" x="295.2" xlink:href="#m3a68111ca7" y="43.2"/>
      </g>
     </g>
     <g id="text_4">
      <!-- 0.0 -->
      <g transform="translate(286.4521875 401.918125)scale(0.12 -0.12)">
       <use xlink:href="#BitstreamVeraSans-Roman-30"/>
       <use x="63.623046875" xlink:href="#BitstreamVeraSans-Roman-2e"/>
       <use x="95.41015625" xlink:href="#BitstreamVeraSans-Roman-30"/>
      </g>
     </g>
    </g>
    <g id="xtick_5">
     <g id="line2d_9">
      <g>
       <use style="stroke:#000000;stroke-width:0.5;" x="352.8" xlink:href="#mb1445623b5" y="388.8"/>
      </g>
     </g>
     <g id="line2d_10">
      <g>
       <use style="stroke:#000000;stroke-width:0.5;" x="352.8" xlink:href="#m3a68111ca7" y="43.2"/>
      </g>
     </g>
     <g id="text_5">
      <!-- 0.5 -->
      <g transform="translate(344.1778125 401.918125)scale(0.12 -0.12)">
       <use xlink:href="#BitstreamVeraSans-Roman-30"/>
       <use x="63.623046875" xlink:href="#BitstreamVeraSans-Roman-2e"/>
       <use x="95.41015625" xlink:href="#BitstreamVeraSans-Roman-35"/>
      </g>
     </g>
    </g>
    <g id="xtick_6">
     <g id="line2d_11">
      <g>
       <use style="stroke:#000000;stroke-width:0.5;" x="410.4" xlink:href="#mb1445623b5" y="388.8"/>
      </g>
     </g>
     <g id="line2d_12">
      <g>
       <use style="stroke:#000000;stroke-width:0.5;" x="410.4" xlink:href="#m3a68111ca7" y="43.2"/>
      </g>
     </g>
     <g id="text_6">
      <!-- 1.0 -->
      <g transform="translate(401.915625 401.918125)scale(0.12 -0.12)">
       <use xlink:href="#BitstreamVeraSans-Roman-31"/>
       <use x="63.623046875" xlink:href="#BitstreamVeraSans-Roman-2e"/>
       <use x="95.41015625" xlink:href="#BitstreamVeraSans-Roman-30"/>
      </g>
     </g>
    </g>
    <g id="xtick_7">
     <g id="line2d_13">
      <g>
       <use style="stroke:#000000;stroke-width:0.5;" x="468.0" xlink:href="#mb1445623b5" y="388.8"/>
      </g>
     </g>
     <g id="line2d_14">
      <g>
       <use style="stroke:#000000;stroke-width:0.5;" x="468.0" xlink:href="#m3a68111ca7" y="43.2"/>
      </g>
     </g>
     <g id="text_7">
      <!-- 1.5 -->
      <g transform="translate(459.64125 401.918125)scale(0.12 -0.12)">
       <use xlink:href="#BitstreamVeraSans-Roman-31"/>
       <use x="63.623046875" xlink:href="#BitstreamVeraSans-Roman-2e"/>
       <use x="95.41015625" xlink:href="#BitstreamVeraSans-Roman-35"/>
      </g>
     </g>
    </g>
   </g>
   <g id="matplotlib.axis_2">
    <g id="ytick_1">
     <g id="line2d_15">
      <defs>
       <path d="
M0 0
L4 0" id="m71e820122c" style="stroke:#000000;stroke-width:0.5;"/>
      </defs>
      <g>
       <use style="stroke:#000000;stroke-width:0.5;" x="122.4" xlink:href="#m71e820122c" y="388.8"/>
      </g>
     </g>
     <g id="line2d_16">
      <defs>
       <path d="
M0 0
L-4 0" id="m81ec2b1422" style="stroke:#000000;stroke-width:0.5;"/>
      </defs>
      <g>
       <use style="stroke:#000000;stroke-width:0.5;" x="468.0" xlink:href="#m81ec2b1422" y="388.8"/>
      </g>
     </g>
     <g id="text_8">
      <!-- 1.5 -->
      <g transform="translate(91.58 392.11125)scale(0.12 -0.12)">
       <use xlink:href="#BitstreamVeraSans-Roman-2212"/>
       <use x="83.7890625" xlink:href="#BitstreamVeraSans-Roman-31"/>
       <use x="147.412109375" xlink:href="#BitstreamVeraSans-Roman-2e"/>
       <use x="179.19921875" xlink:href="#BitstreamVeraSans-Roman-35"/>
      </g>
     </g>
    </g>
    <g id="ytick_2">
     <g id="line2d_17">
      <g>
       <use style="stroke:#000000;stroke-width:0.5;" x="122.4" xlink:href="#m71e820122c" y="331.2"/>
      </g>
     </g>
     <g id="line2d_18">
      <g>
       <use style="stroke:#000000;stroke-width:0.5;" x="468.0" xlink:href="#m81ec2b1422" y="331.2"/>
      </g>
     </g>
     <g id="text_9">
      <!-- 1.0 -->
      <g transform="translate(91.32875 334.51125)scale(0.12 -0.12)">
       <use xlink:href="#BitstreamVeraSans-Roman-2212"/>
       <use x="83.7890625" xlink:href="#BitstreamVeraSans-Roman-31"/>
       <use x="147.412109375" xlink:href="#BitstreamVeraSans-Roman-2e"/>
       <use x="179.19921875" xlink:href="#BitstreamVeraSans-Roman-30"/>
      </g>
     </g>
    </g>
    <g id="ytick_3">
     <g id="line2d_19">
      <g>
       <use style="stroke:#000000;stroke-width:0.5;" x="122.4" xlink:href="#m71e820122c" y="273.6"/>
      </g>
     </g>
     <g id="line2d_20">
      <g>
       <use style="stroke:#000000;stroke-width:0.5;" x="468.0" xlink:href="#m81ec2b1422" y="273.6"/>
      </g>
     </g>
     <g id="text_10">
      <!-- 0.5 -->
      <g transform="translate(91.58 276.91125)scale(0.12 -0.12)">
       <use xlink:href="#BitstreamVeraSans-Roman-2212"/>
       <use x="83.7890625" xlink:href="#BitstreamVeraSans-Roman-30"/>
       <use x="147.412109375" xlink:href="#BitstreamVeraSans-Roman-2e"/>
       <use x="179.19921875" xlink:href="#BitstreamVeraSans-Roman-35"/>
      </g>
     </g>
    </g>
    <g id="ytick_4">
     <g id="line2d_21">
      <g>
       <use style="stroke:#000000;stroke-width:0.5;" x="122.4" xlink:href="#m71e820122c" y="216.0"/>
      </g>
     </g>
     <g id="line2d_22">
      <g>
       <use style="stroke:#000000;stroke-width:0.5;" x="468.0" xlink:href="#m81ec2b1422" y="216.0"/>
      </g>
     </g>
     <g id="text_11">
      <!-- 0.0 -->
      <g transform="translate(100.904375 219.31125)scale(0.12 -0.12)">
       <use xlink:href="#BitstreamVeraSans-Roman-30"/>
       <use x="63.623046875" xlink:href="#BitstreamVeraSans-Roman-2e"/>
       <use x="95.41015625" xlink:href="#BitstreamVeraSans-Roman-30"/>
      </g>
     </g>
    </g>
    <g id="ytick_5">
     <g id="line2d_23">
      <g>
       <use style="stroke:#000000;stroke-width:0.5;" x="122.4" xlink:href="#m71e820122c" y="158.4"/>
      </g>
     </g>
     <g id="line2d_24">
      <g>
       <use style="stroke:#000000;stroke-width:0.5;" x="468.0" xlink:href="#m81ec2b1422" y="158.4"/>
      </g>
     </g>
     <g id="text_12">
      <!-- 0.5 -->
      <g transform="translate(101.155625 161.71125)scale(0.12 -0.12)">
       <use xlink:href="#BitstreamVeraSans-Roman-30"/>
       <use x="63.623046875" xlink:href="#BitstreamVeraSans-Roman-2e"/>
       <use x="95.41015625" xlink:href="#BitstreamVeraSans-Roman-35"/>
      </g>
     </g>
    </g>
    <g id="ytick_6">
     <g id="line2d_25">
      <g>
       <use style="stroke:#000000;stroke-width:0.5;" x="122.4" xlink:href="#m71e820122c" y="100.8"/>
      </g>
     </g>
     <g id="line2d_26">
      <g>
       <use style="stroke:#000000;stroke-width:0.5;" x="468.0" xlink:href="#m81ec2b1422" y="100.8"/>
      </g>
     </g>
     <g id="text_13">
      <!-- 1.0 -->
      <g transform="translate(101.43125 104.11125)scale(0.12 -0.12)">
       <use xlink:href="#BitstreamVeraSans-Roman-31"/>
       <use x="63.623046875" xlink:href="#BitstreamVeraSans-Roman-2e"/>
       <use x="95.41015625" xlink:href="#BitstreamVeraSans-Roman-30"/>
      </g>
     </g>
    </g>
    <g id="ytick_7">
     <g id="line2d_27">
      <g>
       <use style="stroke:#000000;stroke-width:0.5;" x="122.4" xlink:href="#m71e820122c" y="43.2"/>
      </g>
     </g>
     <g id="line2d_28">
      <g>
       <use style="stroke:#000000;stroke-width:0.5;" x="468.0" xlink:href="#m81ec2b1422" y="43.2"/>
      </g>
     </g>
     <g id="text_14">
      <!-- 1.5 -->
      <g transform="translate(101.6825 46.51125)scale(0.12 -0.12)">
       <use xlink:href="#BitstreamVeraSans-Roman-31"/>
       <use x="63.623046875" xlink:href="#BitstreamVeraSans-Roman-2e"/>
       <use x="95.41015625" xlink:href="#BitstreamVeraSans-Roman-35"/>
      </g>
     </g>
    </g>
   </g>
  </g>
 </g>
 <defs>
  <clipPath id="p23ab9b749c">
   <rect height="345.6" width="345.6" x="122.4" y="43.2"/>
  </clipPath>
 </defs>
</svg>
