<?xml version="1.0" encoding="utf-8" standalone="no"?>
<!DOCTYPE svg PUBLIC "-//W3C//DTD SVG 1.1//EN"
  "http://www.w3.org/Graphics/SVG/1.1/DTD/svg11.dtd">
<!-- Created with matplotlib (http://matplotlib.org/) -->
<svg height="432pt" version="1.1" viewBox="0 0 576 432" width="576pt" xmlns="http://www.w3.org/2000/svg" xmlns:xlink="http://www.w3.org/1999/xlink">
 <defs>
  <style type="text/css">
*{stroke-linecap:butt;stroke-linejoin:round;}
  </style>
 </defs>
 <g id="figure_1">
  <g id="patch_1">
   <path d="
M0 432
L576 432
L576 0
L0 0
z
" style="fill:#ffffff;"/>
  </g>
  <g id="axes_1">
   <g id="patch_2">
    <path d="
M122.4 388.8
L468 388.8
L468 43.2
L122.4 43.2
z
" style="fill:#ffffff;"/>
   </g>
   <g id="patch_3">
    <path clip-path="url(#p23ab9b749c)" d="
M295.2 331.2
C325.751 331.2 355.056 319.062 376.659 297.459
C398.262 275.856 410.4 246.551 410.4 216
C410.4 185.449 398.262 156.144 376.659 134.541
C355.056 112.938 325.751 100.8 295.2 100.8
C264.649 100.8 235.344 112.938 213.741 134.541
C192.138 156.144 180 185.449 180 216
C180 246.551 192.138 275.856 213.741 297.459
C235.344 319.062 264.649 331.2 295.2 331.2
L295.2 331.2" style="fill:none;stroke:#000000;stroke-dasharray:6.000000,6.000000;stroke-dashoffset:0.0;stroke-linejoin:miter;"/>
   </g>
   <g id="LineCollection_1">
    <path clip-path="url(#p23ab9b749c)" d="
M279.648 316.906
L284.832 317.273
L290.016 317.375
L295.2 317.246
L300.384 316.903
L303.84 316.555
L305.568 316.811
L307.296 316.805
L312.48 316.01
L317.664 314.94
L322.848 313.553
L328.032 311.817
L333.216 309.699
L333.516 309.312
L335.117 307.584
L338.421 305.856
L340.128 304.897
L343.973 302.4
L347.04 300.32
L351.141 297.216
L353.952 294.878
L357.408 291.719
L359.136 289.894
L362.592 286.373
L366.048 282.565
L368.318 279.936
L371.232 276.202
L376.432 269.568
L378.144 270.975
L380.36 267.84
L379.747 266.112
L381.6 264.063
L392.744 247.104
L393.696 246.763
L394.556 247.104
L395.424 248.337
L397.152 246.513
L398.88 244.89
L400.342 243.648
L402.336 243.132
L404.064 241.576
L407.52 240.644
L409.248 239.183
L411.225 238.464
L412.704 237.271
L414.432 236.516
L420.721 231.552
L422.479 229.824
L424.024 228.096
L425.371 226.368
L427.559 222.912
L429.17 219.456
L429.984 216.985
L430.204 216
L430.123 214.272
L430.779 210.816
L431.046 207.36
L430.774 203.904
L430.617 202.176
L429.085 200.448
L428.694 196.992
L428.035 193.536
L427.132 190.08
L425.934 186.624
L424.415 183.168
L423.544 181.44
L423.072 180.873
L422.318 179.712
L420.858 176.256
L418.555 171.072
L415.789 165.888
L414.736 164.16
L415.479 162.432
L416.16 161.298
L417.523 160.704
L415.286 155.52
L413.608 152.064
L411.646 148.608
L409.248 145.13
L407.52 142.979
L405.792 141.085
L404.064 139.404
L402.336 137.902
L398.88 135.304
L395.424 133.154
L391.968 135.501
L384.971 134.784
L383.328 133.602
L383.272 133.056
L383.328 131.979
L383.491 131.328
L383.328 131.132
L379.606 127.872
L379.872 127.498
L381.6 127.224
L383.328 124.967
L387.298 124.416
L385.056 122.156
L381.6 119.062
L377.514 115.776
L372.899 112.32
L367.776 108.694
L364.32 106.483
L360.864 104.554
L357.408 102.944
L353.952 101.674
L348.768 99.9966
L347.04 99.728
L345.312 99.3378
L338.686 98.496
L338.187 98.496
L336.672 98.8096
L333.216 98.352
L331.488 100.539
L329.76 100.142
L328.032 99.5354
L326.304 98.6821
L321.12 98.0491
L321.045 98.496
L319.392 99.6734
L317.664 99.6216
L315.936 101.035
L314.208 100.997
L312.48 102.445
L309.024 102.345
L307.296 102.364
L306.867 101.952
L308.397 100.224
L308.179 98.496
L309.698 96.768
L309.463 95.04
L310.967 93.312
L310.752 93.1301
L307.296 93.1613
L305.568 94.7161
L303.84 94.755
L303.154 95.04
L302.112 95.8934
L300.594 96.768
L300.384 97.5296
L291.744 95.6602
L287.798 95.04
L284.832 94.7011
L281.376 94.5171
L279.648 94.5159
L277.92 95.5158
L274.464 95.7919
L271.008 96.2698
L267.552 97.052
L264.096 98.157
L260.64 99.618
L257.184 101.486
L253.728 103.782
L250.272 106.542
L247.766 108.864
L244.501 112.32
L236.448 121.56
L232.992 124.557
L231.019 126.144
L229.536 126.323
L227.808 125.234
L226.08 124.213
L225.161 124.416
L224.352 125.129
L222.429 126.144
L220.896 128.985
L218.831 131.328
L215.712 135.337
L213.984 139.417
L210.772 143.424
L208.8 144.196
L207.072 144.838
L205.344 146.563
L204.349 146.88
L203.616 147.545
L201.093 150.336
L199.688 152.064
L197.214 155.52
L194.976 159.261
L193.386 162.432
L191.503 167.616
L191.52 167.652
L192.158 169.344
L191.853 171.072
L190.816 174.528
L190.042 177.984
L189.258 183.168
L188.964 186.624
L188.796 191.808
L188.849 196.992
L189.135 203.904
L189.699 212.544
L190.397 219.456
L191.205 224.64
L191.52 226.377
L189.792 227.468
L189.423 228.096
L189.363 229.824
L190.152 233.28
L191.147 236.736
L191.52 237.009
L193.248 237.638
L195.243 243.648
L196.942 248.832
L197.246 250.56
L197.181 252.288
L198.24 255.744
L197.517 257.472
L198.516 260.928
L199.682 264.384
L201.071 267.84
L202.712 271.296
L204.635 274.752
L207.072 278.466
L209.493 281.664
L212.551 285.12
L214.211 286.848
L217.44 289.76
L220.896 292.458
L224.352 294.813
L228.44 297.216
L231.772 298.944
L235.526 300.672
L238.176 301.787
L243.36 303.691
L248.544 305.317
L252 306.259
L253.728 306.565
L262.368 309.85
L267.552 311.492
L271.008 312.408
L276.192 313.509
L276.756 314.496
L279.296 316.224
L279.648 316.906
L279.648 316.906" style="fill:none;stroke:#000000;"/>
   </g>
   <g id="LineCollection_2">
    <path clip-path="url(#p23ab9b749c)" d="
M277.92 288.597
L277.935 288.576
L279.648 287.277
L281.376 287.197
L283.104 285.743
L284.832 284.989
L288.288 284.585
L290.016 284.541
L291.744 284.616
L293.472 284.84
L295.2 285.289
L302.112 286.212
L305.568 286.432
L309.024 286.348
L312.48 285.876
L315.936 284.923
L317.664 284.283
L321.12 282.452
L322.848 281.32
L324.659 279.936
L326.626 278.208
L328.335 276.48
L329.76 274.527
L333.216 270.343
L333.864 269.568
L334.944 267.574
L338.4 263.754
L342.923 259.2
L345.312 258.6
L348.768 254.975
L350.496 254.42
L352.404 252.288
L353.041 248.832
L353.661 243.648
L353.97 240.192
L354.26 236.736
L354.281 233.28
L354.499 231.552
L354.167 228.096
L355.68 227.341
L357.358 226.368
L358.039 219.456
L357.246 217.728
L357.919 214.272
L358.208 210.816
L358.101 207.36
L357.889 205.632
L357.328 202.176
L356.648 195.264
L357.615 193.536
L357.408 191.804
L355.971 188.352
L353.42 183.168
L350.496 178.677
L348.705 176.256
L345.312 172.095
L342.776 169.344
L340.128 166.815
L336.956 164.16
L333.216 161.433
L329.189 158.976
L328.032 158.323
L325.343 157.248
L322.848 156.145
L321.12 155.504
L317.664 154.811
L315.936 155.016
L310.752 154.003
L309.024 154.05
L303.84 153.173
L302.112 153.464
L296.928 152.948
L296.18 153.792
L295.2 155.31
L291.744 154.953
L291.744 155.753
L293.472 155.696
L294.072 157.248
L293.955 158.976
L295.413 160.704
L295.2 162.434
L295.197 162.432
L293.276 160.704
L293.053 158.976
L291.744 157.631
L290.016 158.264
L288.288 158.295
L287.587 158.976
L286.56 160.684
L282.969 160.704
L281.376 159.509
L277.92 159.601
L276.192 158.542
L274.464 158.477
L272.736 158.019
L271.008 158.315
L269.28 158.469
L267.552 158.976
L264.096 159.706
L262.368 159.816
L260.398 160.704
L258.912 161.471
L257.184 161.865
L255.976 162.432
L255.456 162.826
L252 165.947
L249.39 167.616
L247.114 169.344
L246.816 169.548
L245.088 170.522
L243.36 171.2
L241.632 171.541
L239.904 171.513
L237.991 171.072
L236.448 170.608
L234.72 168.83
L232.992 167.579
L231.264 166.615
L229.22 165.888
L227.808 165.503
L226.08 165.274
L224.352 165.291
L222.624 165.569
L220.896 166.031
L219.168 166.775
L217.44 167.97
L215.712 169.741
L214.76 171.072
L213.984 172.877
L213.44 174.528
L213.207 176.256
L213.265 177.984
L213.704 179.712
L213.984 180.296
L214.669 181.44
L215.712 183.489
L217.44 185.72
L219.168 187.185
L221.073 188.352
L223.544 190.08
L224.352 191.527
L224.846 191.808
L226.08 192.795
L227.808 192.265
L229.027 193.536
L230.046 195.264
L230.66 196.992
L231.383 200.448
L231.391 202.176
L231.264 203.945
L230.882 205.632
L230.149 207.36
L229.536 208.246
L228.582 209.088
L227.808 209.532
L226.08 209.908
L224.352 209.878
L222.473 209.088
L220.896 207.817
L219.698 207.36
L219.168 206.355
L217.44 206.717
L215.712 207.364
L213.984 207.664
L212.256 207.273
L211.723 207.36
L210.528 208.169
L208.8 209.918
L208.111 210.816
L207.072 212.809
L206.496 214.272
L206.131 216
L206.04 217.728
L206.209 219.456
L206.692 221.184
L207.459 222.912
L208.8 224.821
L210.528 226.474
L212.256 227.615
L213.984 228.318
L215.712 228.681
L217.44 228.523
L218.12 228.096
L219.168 227.675
L220.896 227.646
L222.624 226.344
L224.352 226.197
L226.08 226.464
L227.808 227.685
L228.106 228.096
L229.073 229.824
L229.719 231.552
L230.078 233.28
L230.035 238.464
L229.536 240.897
L229.271 241.92
L228.701 243.648
L229.507 245.376
L227.808 247.824
L227.252 248.832
L226.501 250.56
L225.999 252.288
L225.648 254.016
L225.526 255.744
L225.632 257.472
L226.08 259.695
L226.42 260.928
L227.22 262.656
L228.379 264.384
L230.031 266.112
L231.264 267.116
L232.992 268.119
L234.72 268.869
L236.448 269.277
L238.176 269.509
L240.001 269.568
L241.632 269.479
L243.36 269.222
L245.088 268.792
L248.544 267.499
L252 266.038
L253.728 265.62
L255.456 265.442
L257.184 265.522
L258.912 265.838
L259.792 266.112
L260.64 266.853
L260.64 267.909
L259.219 269.568
L259.551 273.024
L258.416 274.752
L258.912 277.238
L260.803 279.936
L260.947 281.664
L262.48 283.392
L264.759 285.12
L265.824 285.387
L267.916 286.848
L271.008 287.35
L274.464 287.588
L276.192 287.612
L277.92 288.597
L277.92 288.597" style="fill:none;stroke:#000000;"/>
    <path clip-path="url(#p23ab9b749c)" d="
M407.52 218.033
L409.248 218.593
L410.976 218.53
L412.704 217.743
L412.725 217.728
L414.432 216.17
L414.57 216
L415.423 214.272
L415.562 212.544
L415.153 210.816
L414.432 209.557
L414.088 209.088
L414.347 207.36
L414.172 205.632
L413.641 203.904
L413.232 202.176
L412.704 201.514
L410.976 200.534
L409.248 200.731
L407.52 200.51
L407.071 200.448
L407.52 200.252
L409.067 198.72
L409.248 198.591
L410.492 196.992
L410.976 195.309
L410.99 195.264
L411.07 193.536
L410.976 193.184
L410.828 191.808
L409.541 190.08
L409.248 189.778
L407.52 188.549
L405.792 188.433
L404.064 188.493
L402.336 188.966
L400.841 190.08
L400.608 190.382
L399.724 191.808
L399.37 193.536
L399.49 195.264
L400.144 196.992
L400.608 197.687
L401.415 198.72
L402.336 199.699
L403.595 200.448
L404.064 201.079
L404.349 202.176
L404.064 202.558
L403.305 203.904
L403.121 205.632
L404.064 206.636
L405.079 205.632
L405.792 205.218
L407.52 205.438
L407.553 205.632
L408.339 207.36
L407.52 207.521
L405.792 208.673
L405.437 209.088
L404.442 210.816
L404.166 212.544
L404.321 214.272
L405.09 216
L405.792 216.766
L407.046 217.728
L407.52 218.033" style="fill:none;stroke:#000000;"/>
    <path clip-path="url(#p23ab9b749c)" d="
M397.152 183.759
L398.88 184.184
L400.608 184.378
L402.336 183.768
L402.984 183.168
L404.064 182.15
L404.699 181.44
L405.695 179.712
L405.765 177.984
L405.455 176.256
L404.321 174.528
L404.064 174.241
L402.336 172.911
L401.944 172.8
L400.608 172.451
L398.88 172.137
L397.833 172.8
L397.152 173.112
L395.424 174.503
L395.393 174.528
L393.894 176.256
L393.733 177.984
L393.806 179.712
L394.636 181.44
L395.424 182.415
L396.391 183.168
L397.152 183.759" style="fill:none;stroke:#000000;"/>
    <path clip-path="url(#p23ab9b749c)" d="
M385.056 166.39
L386.784 167.014
L388.512 167.128
L390.24 166.803
L391.931 165.888
L391.968 165.87
L393.696 164.298
L393.811 164.16
L394.853 162.432
L395.252 160.704
L395.255 158.976
L394.869 157.248
L393.865 155.52
L393.696 155.316
L392.059 153.792
L391.968 153.721
L390.24 152.795
L388.512 152.457
L386.784 152.528
L385.056 153.062
L383.923 153.792
L383.328 154.224
L382.149 155.52
L381.6 156.632
L381.279 157.248
L380.854 158.976
L380.92 160.704
L381.488 162.432
L381.6 162.633
L382.421 164.16
L383.328 165.158
L384.315 165.888
L385.056 166.39" style="fill:none;stroke:#000000;"/>
    <path clip-path="url(#p23ab9b749c)" d="
M243.36 156.444
L245.088 156.597
L246.414 155.52
L246.816 155.253
L248.544 155.262
L250.108 153.792
L250.272 153.646
L252 153.357
L253.263 152.064
L253.35 150.336
L253.728 149.891
L254.644 148.608
L254.648 146.88
L254.587 145.152
L255.32 143.424
L254 141.696
L253.728 141.359
L252.468 139.968
L252 139.632
L250.651 138.24
L250.272 137.83
L248.544 137.027
L246.816 136.65
L245.162 136.512
L245.088 136.504
L245.014 136.512
L243.36 136.643
L241.632 137.085
L239.904 137.989
L239.667 138.24
L238.238 139.968
L238.176 140.035
L236.792 141.696
L236.448 142.755
L236.103 143.424
L235.599 145.152
L235.486 146.88
L235.684 148.608
L236.344 150.336
L236.448 150.451
L237.702 152.064
L238.176 152.55
L239.449 153.792
L239.904 154.261
L241.632 154.565
L242.707 155.52
L243.36 156.444" style="fill:none;stroke:#000000;"/>
    <path clip-path="url(#p23ab9b749c)" d="
M366.048 147.262
L367.776 147.773
L369.504 147.874
L370.006 146.88
L370.502 145.152
L371.232 144.652
L372.454 143.424
L372.625 141.696
L372.96 140.857
L373.84 139.968
L374.57 138.24
L372.96 136.58
L372.818 136.512
L371.232 135.612
L369.504 135.233
L367.776 135.319
L366.048 136.095
L365.526 136.512
L364.32 137.755
L364.048 138.24
L363.452 139.968
L363.248 141.696
L363.419 143.424
L364.32 144.583
L364.709 145.152
L365.647 146.88
L366.048 147.262" style="fill:none;stroke:#000000;"/>
    <path clip-path="url(#p23ab9b749c)" d="
M341.856 134.936
L343.584 135.328
L345.312 135.226
L346.771 134.784
L347.04 134.717
L348.768 133.37
L349.117 133.056
L350.496 131.352
L350.512 131.328
L351.316 129.6
L351.592 127.872
L351.465 126.144
L350.914 124.416
L350.496 123.745
L349.81 122.688
L348.768 121.682
L347.532 120.96
L347.04 120.68
L345.312 120.154
L343.584 120.086
L341.856 120.403
L340.669 120.96
L340.128 121.206
L338.4 122.674
L338.386 122.688
L337.126 124.416
L336.672 125.91
L336.579 126.144
L336.407 127.872
L336.672 129.116
L336.742 129.6
L337.361 131.328
L338.4 132.431
L339.001 133.056
L340.128 134.114
L341.595 134.784
L341.856 134.936" style="fill:none;stroke:#000000;"/>
    <path clip-path="url(#p23ab9b749c)" d="
M271.008 133.625
L272.736 134.42
L274.464 134.746
L276.192 134.748
L277.92 134.425
L279.648 133.628
L280.383 133.056
L281.376 132.236
L282.142 131.328
L283.104 129.694
L283.154 129.6
L283.85 127.872
L284.174 126.144
L284.182 124.416
L283.907 122.688
L283.139 120.96
L283.104 120.906
L281.963 119.232
L281.376 118.654
L279.707 117.504
L279.648 117.467
L277.92 116.715
L276.192 116.361
L274.464 116.316
L272.736 116.695
L271.091 117.504
L271.008 117.543
L269.28 118.848
L268.898 119.232
L267.671 120.96
L267.552 121.261
L266.911 122.688
L266.535 124.416
L266.502 126.144
L266.789 127.872
L267.464 129.6
L267.552 129.762
L268.489 131.328
L269.28 132.247
L270.259 133.056
L271.008 133.625" style="fill:none;stroke:#000000;"/>
    <path clip-path="url(#p23ab9b749c)" d="
M310.752 127.873
L312.48 127.942
L313.757 127.872
L314.208 127.829
L315.936 127.307
L317.664 126.147
L317.674 126.144
L319.108 124.416
L319.392 123.779
L319.87 122.688
L320.179 120.96
L320.216 119.232
L320.014 117.504
L319.392 116.165
L319.233 115.776
L317.864 114.048
L317.664 113.862
L315.936 112.665
L314.854 112.32
L314.208 112.079
L312.48 111.858
L310.752 112.098
L310.203 112.32
L309.024 112.729
L307.302 114.048
L307.296 114.055
L306.041 115.776
L305.568 116.694
L305.098 117.504
L304.589 119.232
L304.5 120.96
L304.905 122.688
L305.568 124.085
L305.729 124.416
L307.272 126.144
L307.296 126.17
L309.024 126.558
L310.751 127.872
L310.752 127.873" style="fill:none;stroke:#000000;"/>
   </g>
   <g id="LineCollection_3">
    <path clip-path="url(#p23ab9b749c)" d="
M272.736 278.925
L274.464 279.333
L276.192 279.183
L277.92 278.375
L278.155 278.208
L279.648 276.786
L279.912 276.48
L280.791 274.752
L281.024 273.024
L280.853 271.296
L280.157 269.568
L279.648 269.119
L278.498 267.84
L277.92 267.333
L276.192 266.931
L274.652 266.112
L274.464 265.98
L273.527 266.112
L272.736 266.29
L271.008 267.446
L270.67 267.84
L269.459 269.568
L269.28 270.029
L268.811 271.296
L268.627 273.024
L268.954 274.752
L269.28 275.371
L269.745 276.48
L271.008 277.83
L271.564 278.208
L272.736 278.925" style="fill:none;stroke:#000000;"/>
    <path clip-path="url(#p23ab9b749c)" d="
M307.296 274.887
L309.024 275.229
L310.752 275.16
L312.48 274.687
L314.208 273.87
L315.251 273.024
L316.752 271.296
L317.664 269.08
L318.063 267.84
L318.23 266.112
L318.078 264.384
L317.664 262.449
L317.229 260.928
L316.024 257.472
L315.803 255.744
L316.068 254.016
L317.664 252.639
L319.392 251.893
L321.12 251.799
L321.455 250.56
L320.165 248.832
L321.12 248.018
L324.576 247.926
L326.304 249.422
L328.032 249.46
L329.419 250.56
L329.76 251.744
L333.216 251.79
L334.944 251.625
L336.672 251.223
L338.4 250.479
L340.128 249.472
L340.854 248.832
L342.396 247.104
L343.332 245.376
L343.868 243.648
L344.117 241.92
L343.982 240.192
L342.899 236.736
L341.856 234.759
L340.112 233.28
L339.388 231.552
L338.976 229.824
L339.014 228.096
L339.455 226.368
L340.902 222.912
L343.291 217.728
L344.568 214.272
L344.976 212.544
L345.368 209.088
L345.27 207.36
L345.022 205.632
L344.553 203.904
L343.584 201.756
L342.879 200.448
L341.643 198.72
L340.128 196.987
L334.944 192.154
L333.216 190.433
L331.442 188.352
L327.34 183.168
L324.576 180.271
L322.848 178.77
L321.12 177.53
L317.664 175.535
L315.936 174.853
L314.208 174.372
L312.48 174.404
L309.024 173.942
L307.296 174.017
L305.568 173.915
L302.112 173.092
L298.656 172.934
L295.2 172.861
L293.472 173.4
L290.016 173.53
L288.288 173.672
L286.56 173.954
L283.104 174.933
L279.648 176.476
L276.192 178.487
L271.008 182.137
L269.28 183.677
L266.524 186.624
L265.13 188.352
L262.886 191.808
L261.078 195.264
L259.557 198.72
L257.774 203.904
L256.977 207.36
L256.687 209.088
L256.513 210.816
L256.516 214.272
L256.82 217.728
L257.492 221.184
L258.32 222.912
L259.178 226.368
L259.737 228.096
L261.087 231.552
L262.368 232.078
L264.096 232.585
L266.262 235.008
L266.586 236.736
L265.42 238.464
L264.876 240.192
L265.824 241.558
L266.466 240.192
L267.552 238.523
L269.28 240.739
L270.866 241.92
L271.008 242.19
L271.554 243.648
L274.464 245.746
L274.773 247.104
L276.52 248.832
L276.983 250.56
L278.897 252.288
L279.648 254.44
L281.376 255.369
L290.016 258.628
L291.744 259.359
L294.417 260.928
L295.2 261.524
L296.928 263.349
L298.663 266.112
L299.549 267.84
L302.112 271.504
L303.84 273.141
L305.568 274.264
L307.296 274.887
L307.296 274.887" style="fill:none;stroke:#000000;"/>
    <path clip-path="url(#p23ab9b749c)" d="
M236.448 261.301
L238.176 261.414
L239.227 260.928
L239.904 260.627
L241.239 259.2
L241.615 257.472
L241.388 255.744
L239.915 254.016
L239.904 254.007
L238.176 253.163
L236.448 253.282
L235.3 254.016
L234.72 254.403
L233.675 255.744
L233.335 257.472
L233.802 259.2
L234.72 260.29
L235.807 260.928
L236.448 261.301" style="fill:none;stroke:#000000;"/>
    <path clip-path="url(#p23ab9b749c)" d="
M319.392 247.457
L319.163 247.104
L319.392 246.911
L319.662 247.104
L319.392 247.457" style="fill:none;stroke:#000000;"/>
    <path clip-path="url(#p23ab9b749c)" d="
M217.44 221.211
L217.508 221.184
L219.168 220.651
L220.316 219.456
L220.747 217.728
L220.355 216
L219.168 214.813
L217.672 214.272
L217.44 214.167
L216.927 214.272
L215.712 214.395
L213.985 216
L213.984 216.005
L213.388 217.728
L213.984 219.29
L214.027 219.456
L215.712 221.021
L217.313 221.184
L217.44 221.211" style="fill:none;stroke:#000000;"/>
    <path clip-path="url(#p23ab9b749c)" d="
M409.248 215.134
L410.976 215.073
L411.778 214.272
L411.675 212.544
L410.976 211.829
L409.248 211.762
L408.463 212.544
L408.365 214.272
L409.248 215.134" style="fill:none;stroke:#000000;"/>
    <path clip-path="url(#p23ab9b749c)" d="
M409.248 206.846
L410.775 205.632
L409.248 204.135
L408.061 205.632
L409.248 206.846" style="fill:none;stroke:#000000;"/>
    <path clip-path="url(#p23ab9b749c)" d="
M405.792 196.047
L406.936 195.264
L407.516 193.536
L405.792 191.906
L404.074 193.536
L404.749 195.264
L405.792 196.047" style="fill:none;stroke:#000000;"/>
    <path clip-path="url(#p23ab9b749c)" d="
M222.624 179.845
L224.352 179.867
L224.63 179.712
L226.08 178.785
L226.726 177.984
L227.095 176.256
L226.24 174.528
L226.08 174.357
L224.352 173.146
L222.624 173.152
L220.896 174.453
L220.829 174.528
L219.946 176.256
L220.331 177.984
L220.896 178.714
L222.406 179.712
L222.624 179.845" style="fill:none;stroke:#000000;"/>
    <path clip-path="url(#p23ab9b749c)" d="
M398.88 180.543
L400.608 179.726
L400.622 179.712
L401.458 177.984
L400.608 176.932
L398.88 176.332
L397.232 177.984
L397.858 179.712
L398.88 180.543" style="fill:none;stroke:#000000;"/>
    <path clip-path="url(#p23ab9b749c)" d="
M386.784 161.636
L388.512 162.163
L390.118 160.704
L390.157 158.976
L388.512 157.437
L386.784 157.908
L385.829 158.976
L385.922 160.704
L386.784 161.636" style="fill:none;stroke:#000000;"/>
    <path clip-path="url(#p23ab9b749c)" d="
M245.088 148.769
L245.376 148.608
L246.816 147.684
L247.403 146.88
L247.568 145.152
L246.816 144.046
L246.157 143.424
L245.088 142.755
L243.36 143.008
L242.82 143.424
L241.643 145.152
L241.712 146.88
L243.36 148.567
L244.044 148.608
L245.088 148.769" style="fill:none;stroke:#000000;"/>
    <path clip-path="url(#p23ab9b749c)" d="
M369.504 143.485
L369.603 143.424
L371.232 141.928
L371.313 141.696
L371.232 141.399
L370.369 139.968
L369.504 139.396
L368.52 139.968
L367.776 140.806
L367.294 141.696
L367.776 142.424
L369.386 143.424
L369.504 143.485" style="fill:none;stroke:#000000;"/>
    <path clip-path="url(#p23ab9b749c)" d="
M343.584 129.484
L345.312 129.312
L346.616 127.872
L346.31 126.144
L345.312 125.159
L343.584 124.907
L342.211 126.144
L341.985 127.872
L343.584 129.484" style="fill:none;stroke:#000000;"/>
    <path clip-path="url(#p23ab9b749c)" d="
M274.464 127.337
L276.192 127.534
L277.847 126.144
L277.92 125.836
L278.403 124.416
L277.92 123.563
L277.342 122.688
L276.192 121.864
L274.464 122.131
L273.785 122.688
L272.829 124.416
L273.201 126.144
L274.464 127.337" style="fill:none;stroke:#000000;"/>
    <path clip-path="url(#p23ab9b749c)" d="
M310.752 120.977
L312.48 122.042
L314.123 120.96
L314.208 120.822
L314.99 119.232
L314.208 118.026
L313.536 117.504
L312.48 116.917
L311.386 117.504
L310.752 117.942
L309.899 119.232
L310.736 120.96
L310.752 120.977" style="fill:none;stroke:#000000;"/>
   </g>
   <g id="LineCollection_4">
    <path clip-path="url(#p23ab9b749c)" d="
M274.464 276.132
L276.192 275.153
L276.561 274.752
L276.515 273.024
L276.192 272.643
L274.464 271.697
L272.996 273.024
L272.94 274.752
L274.464 276.132" style="fill:none;stroke:#000000;"/>
    <path clip-path="url(#p23ab9b749c)" d="
M309.024 270.721
L310.752 270.897
L312.319 269.568
L312.48 268.79
L312.829 267.84
L312.48 267.122
L311.884 266.112
L310.752 265.213
L309.024 265.356
L308.13 266.112
L307.343 267.84
L307.721 269.568
L309.024 270.721" style="fill:none;stroke:#000000;"/>
    <path clip-path="url(#p23ab9b749c)" d="
M236.448 258.407
L238.176 258.457
L239.013 257.472
L238.176 256.464
L236.448 256.514
L235.672 257.472
L236.448 258.407" style="fill:none;stroke:#000000;"/>
    <path clip-path="url(#p23ab9b749c)" d="
M334.944 245.675
L336.672 245.692
L337.149 245.376
L338.4 244.392
L338.947 243.648
L339.098 241.92
L338.4 240.759
L337.881 240.192
L336.672 239.264
L334.944 239.203
L333.404 240.192
L333.216 240.426
L332.317 241.92
L332.564 243.648
L333.216 244.425
L334.407 245.376
L334.944 245.675" style="fill:none;stroke:#000000;"/>
    <path clip-path="url(#p23ab9b749c)" d="
M288.288 240.194
L290.016 240.514
L293.472 240.888
L296.928 240.787
L298.656 240.595
L301.02 240.192
L302.112 240.07
L303.84 239.665
L306.556 238.464
L307.296 238.118
L309.481 236.736
L312.48 234.131
L313.557 233.28
L315.936 230.343
L316.341 229.824
L317.34 226.368
L318.465 224.64
L319.392 222.763
L320.431 221.184
L322.026 217.728
L323.563 212.544
L323.814 210.816
L322.848 208.941
L321.972 207.36
L321.12 206.293
L320.759 205.632
L320.073 203.904
L319.061 200.448
L319.052 198.72
L319.224 196.992
L319.949 195.264
L320.631 191.808
L320.659 190.08
L320.317 188.352
L319.386 186.624
L317.664 184.698
L315.936 183.637
L314.208 183.251
L312.48 183.208
L310.752 183.459
L309.024 184.075
L307.296 185.03
L305.568 186.166
L303.84 187.037
L300.384 187.957
L296.644 184.896
L295.2 184.028
L293.472 183.152
L291.744 182.619
L290.016 182.448
L288.288 182.633
L286.56 183.248
L284.832 184.154
L283.104 185.623
L282.074 186.624
L277.92 193.119
L277.589 193.536
L275.98 195.264
L271.917 198.72
L271.008 199.588
L270.289 200.448
L269.164 202.176
L268.302 203.904
L267.84 205.632
L267.642 207.36
L267.628 209.088
L267.772 210.816
L268.077 212.544
L269.061 216
L269.582 217.728
L271.718 224.64
L271.017 226.368
L271.746 228.096
L272.828 229.824
L274.464 231.973
L276.192 233.776
L279.648 236.432
L281.376 237.466
L283.144 238.464
L284.832 239.235
L286.56 239.806
L288.288 240.194
L288.288 240.194" style="fill:none;stroke:#000000;"/>
    <path clip-path="url(#p23ab9b749c)" d="
M217.44 219.051
L218.688 217.728
L217.44 216.396
L215.871 217.728
L217.44 219.051" style="fill:none;stroke:#000000;"/>
    <path clip-path="url(#p23ab9b749c)" d="
M329.76 212.758
L331.488 213.465
L333.216 213.655
L334.944 213.394
L336.429 212.544
L336.672 212.445
L338.191 210.816
L338.4 210.269
L338.908 209.088
L338.888 207.36
L338.4 206.316
L338.127 205.632
L336.672 204.145
L336.02 203.904
L334.944 203.342
L333.216 203.208
L331.488 203.703
L331.079 203.904
L329.76 204.762
L328.774 205.632
L328.032 207.07
L327.685 207.36
L326.849 209.088
L327.429 210.816
L328.032 211.173
L329.344 212.544
L329.76 212.758" style="fill:none;stroke:#000000;"/>
    <path clip-path="url(#p23ab9b749c)" d="
M405.792 194.052
L406.247 193.536
L405.792 193.106
L405.339 193.536
L405.792 194.052" style="fill:none;stroke:#000000;"/>
    <path clip-path="url(#p23ab9b749c)" d="
M398.88 178.216
L399.113 177.984
L398.88 177.794
L398.69 177.984
L398.88 178.216" style="fill:none;stroke:#000000;"/>
    <path clip-path="url(#p23ab9b749c)" d="
M222.624 176.969
L224.352 176.48
L224.502 176.256
L224.352 176.088
L222.624 175.696
L222.112 176.256
L222.624 176.969" style="fill:none;stroke:#000000;"/>
    <path clip-path="url(#p23ab9b749c)" d="
M245.088 145.362
L245.189 145.152
L245.088 145.052
L244.878 145.152
L245.088 145.362" style="fill:none;stroke:#000000;"/>
    <path clip-path="url(#p23ab9b749c)" d="
M369.504 143.047
L370.858 141.696
L369.504 140.319
L368.133 141.696
L369.504 143.047" style="fill:none;stroke:#000000;"/>
    <path clip-path="url(#p23ab9b749c)" d="
M276.192 125.151
L276.802 124.416
L276.192 123.777
L275.249 124.416
L276.192 125.151" style="fill:none;stroke:#000000;"/>
    <path clip-path="url(#p23ab9b749c)" d="
M312.48 120.686
L313.909 119.232
L312.48 117.815
L311.045 119.232
L312.48 120.686" style="fill:none;stroke:#000000;"/>
   </g>
   <g id="LineCollection_5">
    <path clip-path="url(#p23ab9b749c)" d="
M310.752 268.229
L311.037 267.84
L310.752 267.535
L310.221 267.84
L310.752 268.229" style="fill:none;stroke:#000000;"/>
    <path clip-path="url(#p23ab9b749c)" d="
M293.472 233.499
L295.2 233.498
L296.275 233.28
L296.928 233.191
L298.656 232.77
L300.384 232.017
L301.192 231.552
L302.112 231.064
L303.84 229.91
L303.948 229.824
L305.568 228.562
L306.063 228.096
L307.296 226.777
L307.646 226.368
L308.868 224.64
L309.024 224.313
L309.807 222.912
L310.429 221.184
L310.752 219.789
L310.861 219.456
L311.11 217.728
L311.214 216
L311.124 214.272
L310.793 212.544
L310.752 212.424
L310.339 210.816
L309.675 209.088
L309.024 207.824
L308.772 207.36
L307.497 205.632
L307.296 205.4
L305.724 203.904
L305.568 203.768
L303.84 202.539
L303.106 202.176
L302.112 201.602
L300.384 200.849
L298.836 200.448
L298.656 200.389
L296.928 199.823
L295.2 199.496
L293.472 199.419
L291.744 199.582
L290.016 200.19
L289.603 200.448
L288.288 201.068
L286.816 202.176
L286.56 202.336
L284.832 203.562
L284.372 203.904
L283.104 204.742
L281.376 205.311
L279.648 204.662
L278.798 203.904
L277.92 203.433
L276.192 202.863
L274.464 203.367
L273.852 203.904
L272.76 205.632
L272.736 207.082
L272.72 207.36
L272.736 207.398
L273.442 209.088
L274.464 210.3
L275.483 210.816
L276.192 211.479
L277.539 212.544
L277.92 213.226
L278.326 214.272
L278.237 216
L278.025 217.728
L277.92 217.928
L277.286 219.456
L276.626 221.184
L276.406 222.912
L276.596 224.64
L277.577 226.368
L277.92 226.761
L279.648 228.026
L279.952 228.096
L281.376 228.675
L283.104 229.092
L284.654 229.824
L284.832 229.935
L286.56 231.042
L287.493 231.552
L288.288 232
L290.016 232.784
L291.744 233.222
L292.24 233.28
L293.472 233.499" style="fill:none;stroke:#000000;"/>
    <path clip-path="url(#p23ab9b749c)" d="
M334.944 210.062
L336.011 209.088
L336.216 207.36
L334.944 206.169
L333.323 207.36
L333.47 209.088
L334.944 210.062" style="fill:none;stroke:#000000;"/>
    <path clip-path="url(#p23ab9b749c)" d="
M288.288 192.987
L290.016 193.295
L291.744 192.18
L292.001 191.808
L292.804 190.08
L292.459 188.352
L291.744 187.565
L290.016 186.66
L288.288 186.892
L286.82 188.352
L286.613 190.08
L287.228 191.808
L288.288 192.987" style="fill:none;stroke:#000000;"/>
    <path clip-path="url(#p23ab9b749c)" d="
M312.48 191.395
L314.208 191.803
L315.936 190.767
L316.401 190.08
L316.226 188.352
L315.936 188.013
L314.208 186.789
L312.48 187.521
L311.656 188.352
L311.449 190.08
L312.48 191.395" style="fill:none;stroke:#000000;"/>
    <path clip-path="url(#p23ab9b749c)" d="
M369.504 141.844
L369.652 141.696
L369.504 141.545
L369.354 141.696
L369.504 141.844" style="fill:none;stroke:#000000;"/>
    <path clip-path="url(#p23ab9b749c)" d="
M312.48 119.582
L312.824 119.232
L312.48 118.891
L312.135 119.232
L312.48 119.582" style="fill:none;stroke:#000000;"/>
   </g>
   <g id="LineCollection_6">
    <path clip-path="url(#p23ab9b749c)" d="
M291.744 228.811
L293.472 229.664
L295.2 229.63
L296.928 228.501
L297.459 228.096
L298.656 227.102
L300.042 226.368
L300.384 226.272
L302.112 225.34
L302.907 224.64
L303.84 223.586
L304.379 222.912
L305.227 221.184
L305.568 219.81
L305.708 219.456
L306.135 217.728
L306.215 216
L305.938 214.272
L305.568 213.329
L305.354 212.544
L304.459 210.816
L303.84 210.043
L303.045 209.088
L302.112 208.225
L300.774 207.36
L300.384 207.09
L298.656 206.274
L296.928 205.955
L295.2 205.919
L293.472 206.172
L291.744 206.846
L290.887 207.36
L290.016 207.783
L288.465 209.088
L288.288 209.269
L286.931 210.816
L286.56 211.588
L286.011 212.544
L285.497 214.272
L285.385 216
L285.503 217.728
L285.831 219.456
L286.444 221.184
L286.56 221.428
L287.213 222.912
L288.288 224.473
L288.39 224.64
L289.553 226.368
L290.016 226.876
L290.878 228.096
L291.744 228.811" style="fill:none;stroke:#000000;"/>
    <path clip-path="url(#p23ab9b749c)" d="
M279.648 224.799
L281.376 225.535
L282.374 224.64
L282.436 222.912
L281.376 221.932
L279.648 222.701
L279.48 222.912
L279.5 224.64
L279.648 224.799" style="fill:none;stroke:#000000;"/>
    <path clip-path="url(#p23ab9b749c)" d="
M276.192 207.287
L276.839 205.632
L276.192 205.049
L275.281 205.632
L276.192 207.287" style="fill:none;stroke:#000000;"/>
   </g>
   <g id="LineCollection_7">
    <path clip-path="url(#p23ab9b749c)" d="
M293.472 227.035
L295.2 226.834
L295.536 226.368
L295.2 225.675
L293.472 225.428
L292.937 226.368
L293.472 227.035" style="fill:none;stroke:#000000;"/>
    <path clip-path="url(#p23ab9b749c)" d="
M293.472 223.019
L295.2 223.617
L296.928 223.606
L298.656 223.788
L300.384 223.315
L300.863 222.912
L302.091 221.184
L302.112 220.743
L302.484 219.456
L303.237 217.728
L303.449 216
L302.865 214.272
L302.112 213.121
L301.826 212.544
L300.491 210.816
L300.384 210.712
L298.656 209.371
L296.928 209.153
L295.2 209.199
L293.472 209.385
L291.744 210.232
L291.071 210.816
L290.016 212.229
L289.772 212.544
L288.962 214.272
L288.77 216
L289.071 217.728
L290.016 219.436
L290.024 219.456
L291.101 221.184
L291.744 221.906
L293.385 222.912
L293.472 223.019" style="fill:none;stroke:#000000;"/>
   </g>
   <g id="LineCollection_8">
    <path clip-path="url(#p23ab9b749c)" d="
M298.656 221.595
L300.384 221.783
L300.949 221.184
L300.384 220.294
L299.412 219.456
L300.384 218.559
L301.027 217.728
L301.981 216
L300.384 214.335
L300.019 214.272
L299.961 212.544
L298.656 211.17
L296.928 211.008
L295.2 211.379
L293.472 210.985
L291.832 212.544
L291.744 213.204
L291.123 214.272
L290.405 216
L291.161 217.728
L291.744 218.475
L292.83 219.456
L293.472 220.009
L295.2 220.612
L296.928 220.6
L297.961 221.184
L298.656 221.595" style="fill:none;stroke:#000000;"/>
   </g>
   <g id="LineCollection_9">
    <path clip-path="url(#p23ab9b749c)" d="
M293.472 218.005
L295.2 219.284
L296.928 218.246
L297.546 217.728
L298.401 216
L297.273 214.272
L296.928 213.497
L295.2 213.308
L294.26 212.544
L293.472 211.966
L292.863 212.544
L293.269 214.272
L291.96 216
L293.187 217.728
L293.472 218.005" style="fill:none;stroke:#000000;"/>
    <path clip-path="url(#p23ab9b749c)" d="
M300.384 216.99
L301.241 216
L300.384 215.106
L299.076 216
L300.384 216.99" style="fill:none;stroke:#000000;"/>
   </g>
   <g id="LineCollection_10">
    <path clip-path="url(#p23ab9b749c)" d="
M295.2 218.462
L296.062 217.728
L296.928 216
L295.2 214.272
L293.472 216
L294.361 217.728
L295.2 218.462" style="fill:none;stroke:#000000;"/>
   </g>
   <g id="LineCollection_11">
    <path clip-path="url(#p23ab9b749c)" d="
M295.2 217.728
L296.928 216
L295.2 214.272
L293.472 216
L295.2 217.728" style="fill:none;stroke:#000000;"/>
   </g>
   <g id="LineCollection_12">
    <path clip-path="url(#p23ab9b749c)" d="
M295.2 217.728
L296.928 216
L295.2 214.272
L293.472 216
L295.2 217.728" style="fill:none;stroke:#000000;"/>
   </g>
   <g id="LineCollection_13">
    <path clip-path="url(#p23ab9b749c)" d="
M295.2 217.728
L296.928 216
L295.2 214.272
L293.472 216
L295.2 217.728" style="fill:none;stroke:#000000;"/>
   </g>
   <g id="LineCollection_14">
    <path clip-path="url(#p23ab9b749c)" d="
M295.2 217.728
L296.928 216
L295.2 214.272
L293.472 216
L295.2 217.728" style="fill:none;stroke:#000000;"/>
   </g>
   <g id="LineCollection_15">
    <path clip-path="url(#p23ab9b749c)" d="
M295.2 217.728
L296.928 216
L295.2 214.272
L293.472 216
L295.2 217.728" style="fill:none;stroke:#000000;"/>
   </g>
   <g id="LineCollection_16">
    <path clip-path="url(#p23ab9b749c)" d="
M295.2 217.728
L296.928 216
L295.2 214.272
L293.472 216
L295.2 217.728" style="fill:none;stroke:#000000;"/>
   </g>
   <g id="LineCollection_17">
    <path clip-path="url(#p23ab9b749c)" d="
M295.2 217.728
L296.928 216
L295.2 214.272
L293.472 216
L295.2 217.728" style="fill:none;stroke:#000000;"/>
   </g>
   <g id="LineCollection_18">
    <path clip-path="url(#p23ab9b749c)" d="
M295.2 217.728
L296.928 216
L295.2 214.272
L293.472 216
L295.2 217.728" style="fill:none;stroke:#000000;"/>
   </g>
   <g id="LineCollection_19">
    <path clip-path="url(#p23ab9b749c)" d="
M295.2 217.728
L296.928 216
L295.2 214.272
L293.472 216
L295.2 217.728" style="fill:none;stroke:#000000;"/>
   </g>
   <g id="patch_4">
    <path d="
M122.4 43.2
L468 43.2
L468 43.2" style="fill:none;stroke:#000000;stroke-linecap:square;stroke-linejoin:miter;"/>
   </g>
   <g id="patch_5">
    <path d="
M468 388.8
L468 43.2
L468 43.2" style="fill:none;stroke:#000000;stroke-linecap:square;stroke-linejoin:miter;"/>
   </g>
   <g id="patch_6">
    <path d="
M122.4 388.8
L468 388.8
L468 388.8" style="fill:none;stroke:#000000;stroke-linecap:square;stroke-linejoin:miter;"/>
   </g>
   <g id="patch_7">
    <path d="
M122.4 388.8
L122.4 43.2
L122.4 43.2" style="fill:none;stroke:#000000;stroke-linecap:square;stroke-linejoin:miter;"/>
   </g>
   <g id="matplotlib.axis_1">
    <g id="xtick_1">
     <g id="line2d_1">
      <defs>
       <path d="
M0 0
L0 -4" id="mb1445623b5" style="stroke:#000000;stroke-width:0.5;"/>
      </defs>
      <g>
       <use style="stroke:#000000;stroke-width:0.5;" x="122.4" xlink:href="#mb1445623b5" y="388.8"/>
      </g>
     </g>
     <g id="line2d_2">
      <defs>
       <path d="
M0 0
L0 4" id="m3a68111ca7" style="stroke:#000000;stroke-width:0.5;"/>
      </defs>
      <g>
       <use style="stroke:#000000;stroke-width:0.5;" x="122.4" xlink:href="#m3a68111ca7" y="43.2"/>
      </g>
     </g>
     <g id="text_1">
      <!-- −1.5 -->
      <defs>
       <path d="
M10.5938 35.5
L73.1875 35.5
L73.1875 27.2031
L10.5938 27.2031
z
" id="BitstreamVeraSans-Roman-2212"/>
       <path d="
M12.4062 8.29688
L28.5156 8.29688
L28.5156 63.9219
L10.9844 60.4062
L10.9844 69.3906
L28.4219 72.9062
L38.2812 72.9062
L38.2812 8.29688
L54.3906 8.29688
L54.3906 0
L12.4062 0
z
" id="BitstreamVeraSans-Roman-31"/>
       <path d="
M10.6875 12.4062
L21 12.4062
L21 0
L10.6875 0
z
" id="BitstreamVeraSans-Roman-2e"/>
       <path d="
M10.7969 72.9062
L49.5156 72.9062
L49.5156 64.5938
L19.8281 64.5938
L19.8281 46.7344
Q21.9688 47.4688 24.1094 47.8281
Q26.2656 48.1875 28.4219 48.1875
Q40.625 48.1875 47.75 41.5
Q54.8906 34.8125 54.8906 23.3906
Q54.8906 11.625 47.5625 5.09375
Q40.2344 -1.42188 26.9062 -1.42188
Q22.3125 -1.42188 17.5469 -0.640625
Q12.7969 0.140625 7.71875 1.70312
L7.71875 11.625
Q12.1094 9.23438 16.7969 8.0625
Q21.4844 6.89062 26.7031 6.89062
Q35.1562 6.89062 40.0781 11.3281
Q45.0156 15.7656 45.0156 23.3906
Q45.0156 31 40.0781 35.4375
Q35.1562 39.8906 26.7031 39.8906
Q22.75 39.8906 18.8125 39.0156
Q14.8906 38.1406 10.7969 36.2812
z
" id="BitstreamVeraSans-Roman-35"/>
      </defs>
      <g transform="translate(108.99 401.918125)scale(0.12 -0.12)">
       <use xlink:href="#BitstreamVeraSans-Roman-2212"/>
       <use x="83.7890625" xlink:href="#BitstreamVeraSans-Roman-31"/>
       <use x="147.412109375" xlink:href="#BitstreamVeraSans-Roman-2e"/>
       <use x="179.19921875" xlink:href="#BitstreamVeraSans-Roman-35"/>
      </g>
     </g>
    </g>
    <g id="xtick_2">
     <g id="line2d_3">
      <g>
       <use style="stroke:#000000;stroke-width:0.5;" x="180.0" xlink:href="#mb1445623b5" y="388.8"/>
      </g>
     </g>
     <g id="line2d_4">
      <g>
       <use style="stroke:#000000;stroke-width:0.5;" x="180.0" xlink:href="#m3a68111ca7" y="43.2"/>
      </g>
     </g>
     <g id="text_2">
      <!-- −1.0 -->
      <defs>
       <path d="
M31.7812 66.4062
Q24.1719 66.4062 20.3281 58.9062
Q16.5 51.4219 16.5 36.375
Q16.5 21.3906 20.3281 13.8906
Q24.1719 6.39062 31.7812 6.39062
Q39.4531 6.39062 43.2812 13.8906
Q47.125 21.3906 47.125 36.375
Q47.125 51.4219 43.2812 58.9062
Q39.4531 66.4062 31.7812 66.4062
M31.7812 74.2188
Q44.0469 74.2188 50.5156 64.5156
Q56.9844 54.8281 56.9844 36.375
Q56.9844 17.9688 50.5156 8.26562
Q44.0469 -1.42188 31.7812 -1.42188
Q19.5312 -1.42188 13.0625 8.26562
Q6.59375 17.9688 6.59375 36.375
Q6.59375 54.8281 13.0625 64.5156
Q19.5312 74.2188 31.7812 74.2188" id="BitstreamVeraSans-Roman-30"/>
      </defs>
      <g transform="translate(166.464375 401.918125)scale(0.12 -0.12)">
       <use xlink:href="#BitstreamVeraSans-Roman-2212"/>
       <use x="83.7890625" xlink:href="#BitstreamVeraSans-Roman-31"/>
       <use x="147.412109375" xlink:href="#BitstreamVeraSans-Roman-2e"/>
       <use x="179.19921875" xlink:href="#BitstreamVeraSans-Roman-30"/>
      </g>
     </g>
    </g>
    <g id="xtick_3">
     <g id="line2d_5">
      <g>
       <use style="stroke:#000000;stroke-width:0.5;" x="237.6" xlink:href="#mb1445623b5" y="388.8"/>
      </g>
     </g>
     <g id="line2d_6">
      <g>
       <use style="stroke:#000000;stroke-width:0.5;" x="237.6" xlink:href="#m3a68111ca7" y="43.2"/>
      </g>
     </g>
     <g id="text_3">
      <!-- −0.5 -->
      <g transform="translate(224.19 401.918125)scale(0.12 -0.12)">
       <use xlink:href="#BitstreamVeraSans-Roman-2212"/>
       <use x="83.7890625" xlink:href="#BitstreamVeraSans-Roman-30"/>
       <use x="147.412109375" xlink:href="#BitstreamVeraSans-Roman-2e"/>
       <use x="179.19921875" xlink:href="#BitstreamVeraSans-Roman-35"/>
      </g>
     </g>
    </g>
    <g id="xtick_4">
     <g id="line2d_7">
      <g>
       <use style="stroke:#000000;stroke-width:0.5;" x="295.2" xlink:href="#mb1445623b5" y="388.8"/>
      </g>
     </g>
     <g id="line2d_8">
      <g>
       <use style="stroke:#000000;stroke-width:0.5;" x="295.2" xlink:href="#m3a68111ca7" y="43.2"/>
      </g>
     </g>
     <g id="text_4">
      <!-- 0.0 -->
      <g transform="translate(286.4521875 401.918125)scale(0.12 -0.12)">
       <use xlink:href="#BitstreamVeraSans-Roman-30"/>
       <use x="63.623046875" xlink:href="#BitstreamVeraSans-Roman-2e"/>
       <use x="95.41015625" xlink:href="#BitstreamVeraSans-Roman-30"/>
      </g>
     </g>
    </g>
    <g id="xtick_5">
     <g id="line2d_9">
      <g>
       <use style="stroke:#000000;stroke-width:0.5;" x="352.8" xlink:href="#mb1445623b5" y="388.8"/>
      </g>
     </g>
     <g id="line2d_10">
      <g>
       <use style="stroke:#000000;stroke-width:0.5;" x="352.8" xlink:href="#m3a68111ca7" y="43.2"/>
      </g>
     </g>
     <g id="text_5">
      <!-- 0.5 -->
      <g transform="translate(344.1778125 401.918125)scale(0.12 -0.12)">
       <use xlink:href="#BitstreamVeraSans-Roman-30"/>
       <use x="63.623046875" xlink:href="#BitstreamVeraSans-Roman-2e"/>
       <use x="95.41015625" xlink:href="#BitstreamVeraSans-Roman-35"/>
      </g>
     </g>
    </g>
    <g id="xtick_6">
     <g id="line2d_11">
      <g>
       <use style="stroke:#000000;stroke-width:0.5;" x="410.4" xlink:href="#mb1445623b5" y="388.8"/>
      </g>
     </g>
     <g id="line2d_12">
      <g>
       <use style="stroke:#000000;stroke-width:0.5;" x="410.4" xlink:href="#m3a68111ca7" y="43.2"/>
      </g>
     </g>
     <g id="text_6">
      <!-- 1.0 -->
      <g transform="translate(401.915625 401.918125)scale(0.12 -0.12)">
       <use xlink:href="#BitstreamVeraSans-Roman-31"/>
       <use x="63.623046875" xlink:href="#BitstreamVeraSans-Roman-2e"/>
       <use x="95.41015625" xlink:href="#BitstreamVeraSans-Roman-30"/>
      </g>
     </g>
    </g>
    <g id="xtick_7">
     <g id="line2d_13">
      <g>
       <use style="stroke:#000000;stroke-width:0.5;" x="468.0" xlink:href="#mb1445623b5" y="388.8"/>
      </g>
     </g>
     <g id="line2d_14">
      <g>
       <use style="stroke:#000000;stroke-width:0.5;" x="468.0" xlink:href="#m3a68111ca7" y="43.2"/>
      </g>
     </g>
     <g id="text_7">
      <!-- 1.5 -->
      <g transform="translate(459.64125 401.918125)scale(0.12 -0.12)">
       <use xlink:href="#BitstreamVeraSans-Roman-31"/>
       <use x="63.623046875" xlink:href="#BitstreamVeraSans-Roman-2e"/>
       <use x="95.41015625" xlink:href="#BitstreamVeraSans-Roman-35"/>
      </g>
     </g>
    </g>
   </g>
   <g id="matplotlib.axis_2">
    <g id="ytick_1">
     <g id="line2d_15">
      <defs>
       <path d="
M0 0
L4 0" id="m71e820122c" style="stroke:#000000;stroke-width:0.5;"/>
      </defs>
      <g>
       <use style="stroke:#000000;stroke-width:0.5;" x="122.4" xlink:href="#m71e820122c" y="388.8"/>
      </g>
     </g>
     <g id="line2d_16">
      <defs>
       <path d="
M0 0
L-4 0" id="m81ec2b1422" style="stroke:#000000;stroke-width:0.5;"/>
      </defs>
      <g>
       <use style="stroke:#000000;stroke-width:0.5;" x="468.0" xlink:href="#m81ec2b1422" y="388.8"/>
      </g>
     </g>
     <g id="text_8">
      <!-- −1.5 -->
      <g transform="translate(91.58 392.11125)scale(0.12 -0.12)">
       <use xlink:href="#BitstreamVeraSans-Roman-2212"/>
       <use x="83.7890625" xlink:href="#BitstreamVeraSans-Roman-31"/>
       <use x="147.412109375" xlink:href="#BitstreamVeraSans-Roman-2e"/>
       <use x="179.19921875" xlink:href="#BitstreamVeraSans-Roman-35"/>
      </g>
     </g>
    </g>
    <g id="ytick_2">
     <g id="line2d_17">
      <g>
       <use style="stroke:#000000;stroke-width:0.5;" x="122.4" xlink:href="#m71e820122c" y="331.2"/>
      </g>
     </g>
     <g id="line2d_18">
      <g>
       <use style="stroke:#000000;stroke-width:0.5;" x="468.0" xlink:href="#m81ec2b1422" y="331.2"/>
      </g>
     </g>
     <g id="text_9">
      <!-- −1.0 -->
      <g transform="translate(91.32875 334.51125)scale(0.12 -0.12)">
       <use xlink:href="#BitstreamVeraSans-Roman-2212"/>
       <use x="83.7890625" xlink:href="#BitstreamVeraSans-Roman-31"/>
       <use x="147.412109375" xlink:href="#BitstreamVeraSans-Roman-2e"/>
       <use x="179.19921875" xlink:href="#BitstreamVeraSans-Roman-30"/>
      </g>
     </g>
    </g>
    <g id="ytick_3">
     <g id="line2d_19">
      <g>
       <use style="stroke:#000000;stroke-width:0.5;" x="122.4" xlink:href="#m71e820122c" y="273.6"/>
      </g>
     </g>
     <g id="line2d_20">
      <g>
       <use style="stroke:#000000;stroke-width:0.5;" x="468.0" xlink:href="#m81ec2b1422" y="273.6"/>
      </g>
     </g>
     <g id="text_10">
      <!-- −0.5 -->
      <g transform="translate(91.58 276.91125)scale(0.12 -0.12)">
       <use xlink:href="#BitstreamVeraSans-Roman-2212"/>
       <use x="83.7890625" xlink:href="#BitstreamVeraSans-Roman-30"/>
       <use x="147.412109375" xlink:href="#BitstreamVeraSans-Roman-2e"/>
       <use x="179.19921875" xlink:href="#BitstreamVeraSans-Roman-35"/>
      </g>
     </g>
    </g>
    <g id="ytick_4">
     <g id="line2d_21">
      <g>
       <use style="stroke:#000000;stroke-width:0.5;" x="122.4" xlink:href="#m71e820122c" y="216.0"/>
      </g>
     </g>
     <g id="line2d_22">
      <g>
       <use style="stroke:#000000;stroke-width:0.5;" x="468.0" xlink:href="#m81ec2b1422" y="216.0"/>
      </g>
     </g>
     <g id="text_11">
      <!-- 0.0 -->
      <g transform="translate(100.904375 219.31125)scale(0.12 -0.12)">
       <use xlink:href="#BitstreamVeraSans-Roman-30"/>
       <use x="63.623046875" xlink:href="#BitstreamVeraSans-Roman-2e"/>
       <use x="95.41015625" xlink:href="#BitstreamVeraSans-Roman-30"/>
      </g>
     </g>
    </g>
    <g id="ytick_5">
     <g id="line2d_23">
      <g>
       <use style="stroke:#000000;stroke-width:0.5;" x="122.4" xlink:href="#m71e820122c" y="158.4"/>
      </g>
     </g>
     <g id="line2d_24">
      <g>
       <use style="stroke:#000000;stroke-width:0.5;" x="468.0" xlink:href="#m81ec2b1422" y="158.4"/>
      </g>
     </g>
     <g id="text_12">
      <!-- 0.5 -->
      <g transform="translate(101.155625 161.71125)scale(0.12 -0.12)">
       <use xlink:href="#BitstreamVeraSans-Roman-30"/>
       <use x="63.623046875" xlink:href="#BitstreamVeraSans-Roman-2e"/>
       <use x="95.41015625" xlink:href="#BitstreamVeraSans-Roman-35"/>
      </g>
     </g>
    </g>
    <g id="ytick_6">
     <g id="line2d_25">
      <g>
       <use style="stroke:#000000;stroke-width:0.5;" x="122.4" xlink:href="#m71e820122c" y="100.8"/>
      </g>
     </g>
     <g id="line2d_26">
      <g>
       <use style="stroke:#000000;stroke-width:0.5;" x="468.0" xlink:href="#m81ec2b1422" y="100.8"/>
      </g>
     </g>
     <g id="text_13">
      <!-- 1.0 -->
      <g transform="translate(101.43125 104.11125)scale(0.12 -0.12)">
       <use xlink:href="#BitstreamVeraSans-Roman-31"/>
       <use x="63.623046875" xlink:href="#BitstreamVeraSans-Roman-2e"/>
       <use x="95.41015625" xlink:href="#BitstreamVeraSans-Roman-30"/>
      </g>
     </g>
    </g>
    <g id="ytick_7">
     <g id="line2d_27">
      <g>
       <use style="stroke:#000000;stroke-width:0.5;" x="122.4" xlink:href="#m71e820122c" y="43.2"/>
      </g>
     </g>
     <g id="line2d_28">
      <g>
       <use style="stroke:#000000;stroke-width:0.5;" x="468.0" xlink:href="#m81ec2b1422" y="43.2"/>
      </g>
     </g>
     <g id="text_14">
      <!-- 1.5 -->
      <g transform="translate(101.6825 46.51125)scale(0.12 -0.12)">
       <use xlink:href="#BitstreamVeraSans-Roman-31"/>
       <use x="63.623046875" xlink:href="#BitstreamVeraSans-Roman-2e"/>
       <use x="95.41015625" xlink:href="#BitstreamVeraSans-Roman-35"/>
      </g>
     </g>
    </g>
   </g>
  </g>
 </g>
 <defs>
  <clipPath id="p23ab9b749c">
   <rect height="345.6" width="345.6" x="122.4" y="43.2"/>
  </clipPath>
 </defs>
</svg>
