<?xml version="1.0" encoding="utf-8" standalone="no"?>
<!DOCTYPE svg PUBLIC "-//W3C//DTD SVG 1.1//EN"
  "http://www.w3.org/Graphics/SVG/1.1/DTD/svg11.dtd">
<!-- Created with matplotlib (http://matplotlib.org/) -->
<svg height="432pt" version="1.1" viewBox="0 0 576 432" width="576pt" xmlns="http://www.w3.org/2000/svg" xmlns:xlink="http://www.w3.org/1999/xlink">
 <defs>
  <style type="text/css">
*{stroke-linecap:butt;stroke-linejoin:round;}
  </style>
 </defs>
 <g id="figure_1">
  <g id="patch_1">
   <path d="
M0 432
L576 432
L576 0
L0 0
z
" style="fill:#ffffff;"/>
  </g>
  <g id="axes_1">
   <g id="patch_2">
    <path d="
M122.4 388.8
L468 388.8
L468 43.2
L122.4 43.2
z
" style="fill:#ffffff;"/>
   </g>
   <g id="patch_3">
    <path clip-path="url(#p23ab9b749c)" d="
M295.2 331.2
C325.751 331.2 355.056 319.062 376.659 297.459
C398.262 275.856 410.4 246.551 410.4 216
C410.4 185.449 398.262 156.144 376.659 134.541
C355.056 112.938 325.751 100.8 295.2 100.8
C264.649 100.8 235.344 112.938 213.741 134.541
C192.138 156.144 180 185.449 180 216
C180 246.551 192.138 275.856 213.741 297.459
C235.344 319.062 264.649 331.2 295.2 331.2
L295.2 331.2" style="fill:none;stroke:#000000;stroke-dasharray:6.000000,6.000000;stroke-dashoffset:0.0;stroke-linejoin:miter;"/>
   </g>
   <g id="LineCollection_1">
    <path clip-path="url(#p23ab9b749c)" d="
M293.472 319.013
L294.809 317.952
L293.472 317.527
L292.699 317.952
L293.472 319.013" style="fill:none;stroke:#000000;"/>
    <path clip-path="url(#p23ab9b749c)" d="
M302.112 318.625
L303.84 318.055
L305.568 317.496
L306.015 317.952
L307.296 318.366
L308.322 317.952
L308.854 316.224
L309.024 316.065
L310.752 315.815
L311.614 316.224
L312.48 317.051
L314.208 317.041
L315.936 316.08
L316.094 316.224
L317.664 317.904
L319.392 315.892
L321.12 314.71
L322.97 314.496
L324.576 313.475
L326.304 313.659
L328.032 312.717
L329.76 312.013
L330.978 311.04
L331.488 310.848
L333.216 308.934
L334.157 309.312
L333.339 311.04
L334.944 311.497
L335.701 311.04
L335.395 309.312
L336.672 307.883
L338.4 308.602
L339.924 307.584
L339.543 305.856
L340.128 305.291
L341.856 305.064
L342.801 305.856
L343.584 306.676
L344.095 305.856
L343.584 304.905
L342.954 304.128
L343.584 302.761
L344.247 304.128
L345.312 304.742
L347.04 304.455
L347.395 304.128
L347.397 302.4
L348.081 300.672
L348.768 299.989
L349.918 300.672
L350.496 301.326
L352.224 301.802
L353.312 300.672
L352.914 298.944
L353.952 297.714
L355.804 297.216
L354.911 295.488
L355.68 293.619
L355.898 293.76
L357.408 294.537
L358.998 293.76
L359.136 293.552
L359.448 293.76
L360.864 294.059
L362.592 294.142
L363.291 293.76
L362.592 293.436
L360.995 292.032
L363.031 290.304
L362.592 289.553
L360.864 288.762
L360.864 288.515
L362.592 286.763
L366.048 286.263
L367.179 285.12
L367.776 284.098
L368.465 283.392
L369.504 282.787
L370.374 283.392
L370.771 285.12
L370.961 286.848
L371.232 286.979
L371.371 286.848
L371.565 285.12
L371.883 283.392
L372.96 282.15
L374.688 281.844
L374.865 281.664
L374.688 281.42
L373.298 279.936
L373.629 278.208
L374.333 276.48
L374.688 276.158
L375.812 276.48
L376.416 277.575
L378.144 277.236
L378.907 276.48
L379 274.752
L378.144 273.698
L377.368 273.024
L378.144 272.592
L379.872 270.93
L381.6 270.715
L381.881 269.568
L385.159 266.112
L386.784 265.049
L389.384 264.384
L388.621 262.656
L389.042 260.928
L388.512 260.175
L387.676 260.928
L388.339 262.656
L386.784 263.675
L385.056 263.249
L384.666 262.656
L385.545 260.928
L386.245 259.2
L386.784 258.867
L388.089 257.472
L387.161 255.744
L388.441 254.016
L388.512 253.513
L389.282 252.288
L390.24 252.049
L391.926 250.56
L391.968 248.737
L392.4 248.832
L392.096 250.56
L393.696 251.585
L394.641 250.56
L394.986 248.832
L395.424 248.337
L397.152 248.664
L397.59 247.104
L399.306 245.376
L401.264 243.648
L404.064 242.768
L405.792 241.248
L407.52 240.7
L409.248 239.259
L411.542 238.464
L414.432 236.516
L417.888 233.988
L421.344 230.984
L424.024 228.096
L426.657 224.64
L427.609 222.912
L429.17 219.456
L430.287 216
L430.524 214.272
L430.504 212.544
L430.958 209.088
L431.05 205.632
L430.974 203.904
L431.109 202.176
L430.998 200.448
L428.922 198.72
L428.389 195.264
L428.256 194.656
L428.159 193.536
L428.256 191.673
L427.132 190.08
L425.934 186.624
L425.211 184.896
L426.571 181.44
L426.528 180.899
L424.8 180.63
L424.102 179.712
L424.8 178.47
L425.745 177.984
L424.8 177.623
L423.072 178.47
L421.282 177.984
L421.344 177.864
L423.072 175.353
L424.214 174.528
L423.878 172.8
L423.072 172.416
L421.344 173.462
L419.616 173.881
L419.318 172.8
L419.4 171.072
L417.888 169.057
L417.63 167.616
L417.888 166.847
L419.616 168.165
L419.925 167.616
L419.699 165.888
L419.819 164.16
L418.112 162.432
L417.888 161.788
L417.237 160.704
L415.877 158.976
L416.039 157.248
L414.432 153.752
L412.65 150.336
L410.519 146.88
L407.903 143.424
L405.792 141.085
L404.064 139.404
L402.336 137.902
L398.88 135.304
L395.424 133.154
L393.682 133.056
L391.968 132.381
L390.748 131.328
L390.24 129.978
L388.512 129.838
L388.215 129.6
L388.512 127.688
L389.13 126.144
L388.512 125.634
L386.737 126.144
L387.029 124.416
L386.784 123.68
L385.056 122.154
L383.328 122.057
L382.189 120.96
L381.6 118.928
L379.872 118.747
L378.695 117.504
L378.144 116.243
L376.416 116.357
L374.688 115.978
L374.461 115.776
L373.851 114.048
L372.899 112.32
L367.776 108.694
L364.32 106.483
L359.136 103.609
L355.68 102.059
L352.224 100.831
L348.768 99.9444
L345.312 99.3378
L343.584 99.0593
L341.856 98.9317
L340.128 98.4355
L338.4 98.4646
L334.944 97.9736
L333.216 98.352
L333.098 98.496
L331.488 99.3664
L330.195 98.496
L329.76 98.0683
L328.835 96.768
L328.032 96.2096
L326.304 96.925
L324.576 97.2176
L324.038 96.768
L323.854 95.04
L322.848 93.9392
L322.195 95.04
L319.392 96.8382
L317.604 96.768
L317.664 96.5746
L318.441 95.04
L317.664 94.3392
L315.936 93.943
L314.208 94.0159
L313.185 93.312
L312.48 91.7159
L310.752 92.8202
L309.024 92.5791
L308.532 93.312
L307.982 95.04
L307.296 95.5599
L305.568 95.265
L305.031 95.04
L304.344 93.312
L303.84 93.0587
L302.112 93.1678
L301.738 93.312
L302.112 93.5216
L303.152 95.04
L302.112 95.7153
L300.384 95.6076
L299.307 95.04
L298.656 93.8887
L297.963 95.04
L296.928 95.8208
L295.984 96.768
L295.2 97.3353
L294.281 96.768
L295.484 95.04
L295.2 94.6915
L293.469 95.04
L290.016 96.3159
L288.288 95.1016
L284.832 94.7011
L281.376 94.5171
L279.648 94.5159
L277.92 95.5158
L274.464 95.7834
L271.008 96.2698
L267.552 97.052
L264.096 98.157
L260.64 99.618
L257.184 101.485
L253.728 103.782
L250.272 106.542
L247.766 108.864
L244.501 112.32
L238.695 119.232
L238.176 119.304
L236.527 120.96
L236.448 121.56
L234.72 121.214
L234.32 120.96
L233.898 119.232
L232.992 118.569
L231.264 118.901
L230.929 119.232
L231.264 119.705
L231.981 120.96
L233.227 122.688
L231.264 124.7
L231.007 124.416
L230.668 122.688
L229.536 121.819
L227.808 122.055
L226.08 121.488
L224.352 122.204
L224.039 122.688
L219.168 127.485
L218.407 127.872
L217.44 128.919
L217.251 129.6
L217.44 130.706
L217.741 131.328
L217.44 131.809
L215.712 132.514
L215.327 133.056
L215.712 133.826
L216.039 134.784
L215.712 135.145
L213.984 134.354
L212.256 136.177
L211.484 136.512
L208.961 139.968
L210.784 141.696
L210.528 141.775
L208.8 143.87
L206.216 145.152
L203.616 147.545
L201.093 150.336
L199.688 152.064
L197.214 155.52
L194.976 159.261
L193.386 162.432
L191.965 165.888
L191.52 167.758
L191.733 169.344
L191.733 171.072
L191.307 172.8
L190.397 176.256
L189.742 179.712
L189.258 183.168
L188.964 186.624
L188.796 191.808
L188.793 193.536
L188.064 194.108
L186.336 194.595
L184.779 195.264
L186.336 195.936
L188.064 196.405
L188.849 196.992
L189.135 203.904
L188.297 205.632
L188.224 207.36
L188.064 207.554
L186.336 208.379
L185.709 209.088
L185.24 210.816
L184.608 211.609
L182.88 211.711
L181.835 212.544
L182.88 213.112
L183.758 214.272
L182.694 216
L182.381 217.728
L182.446 219.456
L181.242 222.912
L182.88 224.468
L183.52 222.912
L183.857 221.184
L183.592 219.456
L183.754 217.728
L184.608 217.145
L185.373 217.728
L185.166 219.456
L186.606 221.184
L186.336 221.562
L185.16 222.912
L185.342 224.64
L185.325 226.368
L185.97 228.096
L186.336 228.523
L188.49 231.552
L188.064 231.969
L187 233.28
L188.287 235.008
L188.064 235.42
L185.79 236.736
L187.018 238.464
L188.064 239.418
L188.681 240.192
L189.792 240.941
L190.677 241.92
L190.087 243.648
L191.52 246.159
L192.332 247.104
L193.248 248.938
L194.976 249.58
L196.069 250.56
L195.828 252.288
L196.704 252.918
L197.488 254.016
L197.118 255.744
L198.489 257.472
L198.259 259.2
L198.138 260.928
L199.066 262.656
L200.16 263.184
L201.017 264.384
L200.16 266.219
L203.616 273.217
L205.609 276.48
L208.053 279.936
L210.901 283.392
L214.211 286.848
L217.44 289.76
L220.896 292.458
L224.352 294.813
L228.44 297.216
L231.772 298.944
L235.526 300.672
L236.448 301.078
L237.703 302.4
L238.176 302.708
L239.904 302.707
L241.632 303.812
L243.36 303.856
L243.645 304.128
L243.169 305.856
L243.36 305.965
L245.088 305.764
L246.816 305.44
L247.336 305.856
L247.85 307.584
L248.544 307.803
L250.272 308.618
L252 308.716
L253.728 309.006
L255.456 308.718
L256.268 309.312
L255.456 310.488
L253.86 311.04
L255.456 311.653
L257.184 310.892
L258.912 310.511
L259.71 311.04
L260.585 312.768
L260.64 313.374
L262.368 313.015
L263.97 314.496
L264.096 314.889
L265.824 314.609
L267.552 315.056
L269.28 314.876
L270.839 316.224
L271.008 316.534
L272.736 316.262
L274.464 316.666
L276.192 316.446
L276.959 316.224
L277.92 316.104
L278.245 316.224
L279.648 317.159
L281.376 316.74
L284.832 315.197
L285.665 316.224
L286.56 317.637
L288.288 317.546
L290.016 316.792
L291.744 317.086
L292.239 316.224
L293.472 315.383
L294.676 316.224
L295.2 317.641
L295.779 316.224
L296.928 315.576
L297.839 316.224
L298.656 317.301
L300.384 317.209
L302.112 318.625
L302.112 318.625" style="fill:none;stroke:#000000;"/>
    <path clip-path="url(#p23ab9b749c)" d="
M274.464 315.756
L273.617 314.496
L274.464 314.038
L275.394 314.496
L274.464 315.756" style="fill:none;stroke:#000000;"/>
    <path clip-path="url(#p23ab9b749c)" d="
M295.2 315.308
L294.737 314.496
L295.2 314.229
L295.565 314.496
L295.2 315.308" style="fill:none;stroke:#000000;"/>
    <path clip-path="url(#p23ab9b749c)" d="
M317.664 315.374
L316.83 314.496
L317.378 312.768
L317.664 312.611
L318.596 312.768
L318.684 314.496
L317.664 315.374" style="fill:none;stroke:#000000;"/>
    <path clip-path="url(#p23ab9b749c)" d="
M267.552 312.27
L266.445 311.04
L267.552 309.921
L268.57 311.04
L267.552 312.27" style="fill:none;stroke:#000000;"/>
    <path clip-path="url(#p23ab9b749c)" d="
M271.008 311.585
L270.586 311.04
L271.008 310.792
L271.324 311.04
L271.008 311.585" style="fill:none;stroke:#000000;"/>
    <path clip-path="url(#p23ab9b749c)" d="
M322.848 312.096
L322.399 311.04
L322.848 310.452
L323.543 311.04
L322.848 312.096" style="fill:none;stroke:#000000;"/>
    <path clip-path="url(#p23ab9b749c)" d="
M364.32 289.016
L364.709 288.576
L364.32 287.832
L363.568 288.576
L364.32 289.016" style="fill:none;stroke:#000000;"/>
    <path clip-path="url(#p23ab9b749c)" d="
M369.504 275.37
L369.193 274.752
L369.504 274.435
L370.066 274.752
L369.504 275.37" style="fill:none;stroke:#000000;"/>
    <path clip-path="url(#p23ab9b749c)" d="
M376.416 275.584
L376.239 274.752
L376.416 274.336
L376.761 274.752
L376.416 275.584" style="fill:none;stroke:#000000;"/>
    <path clip-path="url(#p23ab9b749c)" d="
M381.6 275.123
L381.906 274.752
L381.6 274.177
L381.245 274.752
L381.6 275.123" style="fill:none;stroke:#000000;"/>
    <path clip-path="url(#p23ab9b749c)" d="
M381.6 266.154
L381.384 266.112
L381.6 266.095
L381.62 266.112
L381.6 266.154" style="fill:none;stroke:#000000;"/>
    <path clip-path="url(#p23ab9b749c)" d="
M383.328 264.888
L382.886 264.384
L383.328 263.652
L384.311 264.384
L383.328 264.888" style="fill:none;stroke:#000000;"/>
    <path clip-path="url(#p23ab9b749c)" d="
M391.968 259.356
L392.115 259.2
L391.968 258.997
L391.746 259.2
L391.968 259.356" style="fill:none;stroke:#000000;"/>
    <path clip-path="url(#p23ab9b749c)" d="
M391.968 255.967
L392.175 255.744
L391.968 255.42
L391.084 255.744
L391.968 255.967" style="fill:none;stroke:#000000;"/>
    <path clip-path="url(#p23ab9b749c)" d="
M191.52 237.031
L190.882 236.736
L191.52 236.52
L192.035 236.736
L191.52 237.031" style="fill:none;stroke:#000000;"/>
    <path clip-path="url(#p23ab9b749c)" d="
M184.608 233.496
L184.949 233.28
L184.608 233.039
L183.906 233.28
L184.608 233.496" style="fill:none;stroke:#000000;"/>
    <path clip-path="url(#p23ab9b749c)" d="
M182.88 229.856
L182.936 229.824
L182.88 229.791
L182.854 229.824
L182.88 229.856" style="fill:none;stroke:#000000;"/>
    <path clip-path="url(#p23ab9b749c)" d="
M191.52 229.948
L191.377 229.824
L191.52 229.381
L191.688 229.824
L191.52 229.948" style="fill:none;stroke:#000000;"/>
    <path clip-path="url(#p23ab9b749c)" d="
M182.88 226.636
L183.267 226.368
L182.88 224.895
L182.621 226.368
L182.88 226.636" style="fill:none;stroke:#000000;"/>
    <path clip-path="url(#p23ab9b749c)" d="
M188.064 226.651
L187.709 226.368
L188.064 226.048
L188.359 226.368
L188.064 226.651" style="fill:none;stroke:#000000;"/>
    <path clip-path="url(#p23ab9b749c)" d="
M188.064 219.509
L187.994 219.456
L188.064 219.406
L188.128 219.456
L188.064 219.509" style="fill:none;stroke:#000000;"/>
    <path clip-path="url(#p23ab9b749c)" d="
M188.064 216.24
L187.751 216
L188.064 215.759
L188.252 216
L188.064 216.24" style="fill:none;stroke:#000000;"/>
    <path clip-path="url(#p23ab9b749c)" d="
M186.336 214.77
L185.674 214.272
L186.336 213.762
L186.73 214.272
L186.336 214.77" style="fill:none;stroke:#000000;"/>
    <path clip-path="url(#p23ab9b749c)" d="
M188.064 212.687
L187.868 212.544
L188.064 212.393
L188.178 212.544
L188.064 212.687" style="fill:none;stroke:#000000;"/>
    <path clip-path="url(#p23ab9b749c)" d="
M182.88 208.925
L183.773 207.36
L182.88 206.824
L182.562 207.36
L182.88 208.925" style="fill:none;stroke:#000000;"/>
    <path clip-path="url(#p23ab9b749c)" d="
M184.608 204.808
L186.336 205.044
L187.776 203.904
L187.747 202.176
L186.336 201.085
L185.446 202.176
L184.608 203.169
L183.997 203.904
L184.608 204.808" style="fill:none;stroke:#000000;"/>
    <path clip-path="url(#p23ab9b749c)" d="
M428.256 186.941
L428.42 186.624
L428.256 186.415
L427.601 186.624
L428.256 186.941" style="fill:none;stroke:#000000;"/>
    <path clip-path="url(#p23ab9b749c)" d="
M414.432 167.632
L414.399 167.616
L414.432 167.504
L414.458 167.616
L414.432 167.632" style="fill:none;stroke:#000000;"/>
    <path clip-path="url(#p23ab9b749c)" d="
M416.16 165.986
L415.789 165.888
L415.852 164.16
L416.16 163.505
L417.327 164.16
L416.532 165.888
L416.16 165.986" style="fill:none;stroke:#000000;"/>
    <path clip-path="url(#p23ab9b749c)" d="
M205.344 148.853
L204.589 148.608
L205.344 147.862
L205.6 148.608
L205.344 148.853" style="fill:none;stroke:#000000;"/>
    <path clip-path="url(#p23ab9b749c)" d="
M213.984 139.498
L212.81 138.24
L213.984 137.161
L215.128 138.24
L213.984 139.498" style="fill:none;stroke:#000000;"/>
    <path clip-path="url(#p23ab9b749c)" d="
M390.24 135.267
L389.67 134.784
L390.24 134.01
L390.963 134.784
L390.24 135.267" style="fill:none;stroke:#000000;"/>
    <path clip-path="url(#p23ab9b749c)" d="
M381.6 124.656
L381.37 124.416
L381.6 123.939
L381.979 124.416
L381.6 124.656" style="fill:none;stroke:#000000;"/>
    <path clip-path="url(#p23ab9b749c)" d="
M234.72 118.277
L235.502 117.504
L234.72 116.959
L234.178 117.504
L234.72 118.277" style="fill:none;stroke:#000000;"/>
    <path clip-path="url(#p23ab9b749c)" d="
M309.024 98.5334
L308.968 98.496
L309.024 98.4535
L309.094 98.496
L309.024 98.5334" style="fill:none;stroke:#000000;"/>
    <path clip-path="url(#p23ab9b749c)" d="
M310.752 95.5814
L310.55 95.04
L310.752 94.5439
L312.48 94.6741
L312.675 95.04
L312.48 95.5399
L310.752 95.5814" style="fill:none;stroke:#000000;"/>
    <path clip-path="url(#p23ab9b749c)" d="
M326.304 96.2814
L326.448 95.04
L326.304 94.8859
L326.008 95.04
L326.304 96.2814" style="fill:none;stroke:#000000;"/>
    <path clip-path="url(#p23ab9b749c)" d="
M319.392 93.8102
L319.698 93.312
L319.392 92.9827
L318.955 93.312
L319.392 93.8102" style="fill:none;stroke:#000000;"/>
   </g>
   <g id="LineCollection_2">
    <path clip-path="url(#p23ab9b749c)" d="
M274.464 288.594
L276.192 288.687
L277.92 288.474
L281.376 288.167
L283.104 287.357
L286.003 286.848
L286.56 286.638
L288.288 285.82
L290.016 284.622
L291.744 284.99
L295.2 285.289
L302.112 286.212
L305.568 286.432
L309.024 286.348
L312.48 285.876
L315.936 284.923
L317.664 284.283
L321.12 282.495
L322.848 281.34
L324.659 279.936
L326.626 278.208
L328.335 276.48
L329.879 274.752
L330.938 273.024
L331.488 272.844
L333.864 269.568
L334.944 268.455
L335.949 267.84
L336.672 266.444
L338.4 266.372
L338.587 266.112
L340.128 264.524
L340.574 264.384
L343.142 262.656
L343.584 261.857
L345.34 260.928
L346.165 259.2
L347.04 258.245
L348.041 257.472
L348.768 256.257
L350.132 255.744
L350.496 255.468
L350.842 254.016
L352.01 252.288
L352.224 252.2
L353.72 250.56
L353.547 248.832
L353.952 248.051
L355.106 247.104
L355.75 245.376
L356.101 243.648
L356.884 241.92
L357.365 240.192
L357.198 238.464
L357.408 237.988
L358.268 236.736
L358.506 235.008
L358.357 233.28
L358.858 231.552
L359.243 229.824
L359.788 228.096
L359.136 227.281
L358.78 226.368
L359.136 225.7
L359.898 224.64
L359.225 222.912
L360.61 221.184
L360.027 219.456
L360.655 217.728
L360.952 216
L360.747 214.272
L361.052 212.544
L360.864 207.29
L360.551 203.904
L360.351 202.176
L359.692 200.448
L359.065 196.992
L358.675 195.264
L358.164 193.536
L357.223 191.808
L355.485 190.08
L355.68 189.046
L356.017 188.352
L355.68 187.572
L353.952 187.327
L352.224 187.215
L351.66 186.624
L352.224 185.703
L353.952 185.266
L354.337 184.896
L353.952 184.309
L352.224 183.478
L351.996 183.168
L352.089 181.44
L351.235 179.712
L350.496 178.667
L349.863 177.984
L348.698 176.256
L345.312 172.174
L343.584 171.489
L343.175 171.072
L342.42 169.344
L341.856 168.675
L340.128 167.118
L338.761 165.888
L338.4 165.31
L337.072 164.16
L336.672 163.98
L334.659 162.432
L333.216 161.609
L332.148 160.704
L331.488 160.323
L329.76 159.156
L328.032 159.293
L327.61 158.976
L326.267 157.248
L324.576 156.418
L320.795 155.52
L319.392 154.383
L317.664 154.771
L314.208 152.79
L312.48 153.118
L310.752 152.994
L309.024 153.071
L307.296 152.691
L306.264 152.064
L305.568 151.073
L304.216 152.064
L303.84 152.201
L302.112 151.52
L300.384 150.929
L298.656 151.881
L296.928 151.172
L293.472 151.201
L291.744 151.313
L290.016 151.307
L288.288 151.732
L286.56 151.809
L284.832 152.293
L283.104 152.534
L277.332 153.792
L276.192 154.386
L274.464 154.482
L271.008 155.331
L269.116 155.52
L267.552 156.016
L265.824 155.966
L264.096 156.217
L261.54 155.52
L260.64 155.413
L258.912 156.157
L257.184 156.652
L256.055 155.52
L257.184 154.36
L258.883 153.792
L257.225 152.064
L258.411 150.336
L257.122 148.608
L256.468 146.88
L255.456 144.552
L255.069 143.424
L254.269 141.696
L253.728 141.133
L252.795 139.968
L250.272 137.839
L248.544 137.025
L246.816 136.619
L245.014 136.512
L243.36 136.643
L241.632 137.085
L239.561 138.24
L237.609 139.968
L236.407 141.696
L235.577 143.424
L235.188 145.152
L235.114 146.88
L235.279 148.608
L235.721 150.336
L236.517 152.064
L238.582 153.792
L239.784 155.52
L240.31 157.248
L241.632 158.604
L242.021 157.248
L243.36 156.492
L244.322 157.248
L243.36 158.726
L242.186 158.976
L243.36 159.308
L245.088 160.871
L245.404 160.704
L246.158 158.976
L246.816 158.22
L248.544 158.193
L249.555 158.976
L247.953 162.432
L248.544 164.236
L249.328 165.888
L248.785 167.616
L248.544 167.844
L246.816 167.149
L246.303 167.616
L246.895 169.344
L246.816 169.529
L243.36 171.157
L241.632 171.541
L239.904 171.513
L238.019 171.072
L236.448 170.383
L234.72 168.83
L232.992 167.579
L231.264 166.614
L229.225 165.888
L227.808 165.498
L226.08 165.266
L224.352 165.278
L222.624 165.533
L220.896 166.031
L219.168 166.775
L217.44 167.97
L215.712 169.741
L214.76 171.072
L213.984 172.84
L213.44 174.528
L213.207 176.256
L213.265 177.984
L213.621 179.712
L213.984 180.296
L214.512 181.44
L215.712 183.489
L217.44 185.72
L219.168 187.185
L220.316 188.352
L220.896 189.1
L222.624 190.337
L224.493 191.808
L226.08 192.9
L227.808 192.515
L228.37 193.536
L229.536 194.915
L230.033 195.264
L230.66 196.992
L230.991 198.72
L231.106 200.448
L231.038 202.176
L230.789 203.904
L229.536 204.595
L228.755 205.632
L227.122 207.36
L226.08 208.681
L223.854 207.36
L222.624 205.572
L219.168 204.889
L215.712 205.67
L213.984 206.138
L211.65 207.36
L210.528 208.119
L208.8 209.864
L208.074 210.816
L207.072 212.746
L206.476 214.272
L206.12 216
L206.037 217.728
L206.209 219.456
L206.676 221.184
L207.431 222.912
L208.8 224.883
L210.528 226.541
L213.026 228.096
L213.984 228.651
L215.712 229.276
L217.44 229.202
L219.538 229.824
L220.896 230.098
L224.352 231.248
L224.977 231.552
L226.08 231.879
L227.808 233.377
L229.536 233.122
L229.845 233.28
L230.079 235.008
L230.145 236.736
L230.035 238.464
L229.536 240.897
L229.271 241.92
L228.701 243.648
L229.5 245.376
L227.808 247.824
L227.252 248.832
L226.501 250.56
L225.999 252.288
L225.648 254.016
L225.526 255.744
L225.601 257.472
L226.08 259.695
L226.42 260.928
L227.22 262.656
L228.379 264.384
L230.031 266.112
L231.264 267.116
L232.992 268.119
L234.72 268.869
L236.448 269.312
L239.174 269.568
L240.365 269.568
L241.632 269.496
L243.36 269.248
L245.088 268.848
L248.544 267.697
L250.272 267.087
L250.721 267.84
L253.631 269.568
L252.815 271.296
L253.728 272.797
L255.25 273.024
L255.208 274.752
L255.456 275.258
L257.184 275.971
L257.596 276.48
L259.17 278.208
L259.057 279.936
L260.644 281.664
L262.48 283.392
L264.759 285.12
L265.824 285.811
L269.28 287.46
L271.008 287.749
L272.736 288.385
L274.464 288.594
L274.464 288.594" style="fill:none;stroke:#000000;"/>
    <path clip-path="url(#p23ab9b749c)" d="
M257.184 268.004
L256.966 267.84
L257.184 267.682
L257.291 267.84
L257.184 268.004" style="fill:none;stroke:#000000;"/>
    <path clip-path="url(#p23ab9b749c)" d="
M407.52 218.033
L409.248 218.597
L410.976 218.53
L412.704 217.755
L412.741 217.728
L414.432 216.17
L414.57 216
L415.423 214.272
L415.562 212.544
L415.153 210.816
L415.146 209.088
L415.175 207.36
L414.916 205.632
L414.432 204.095
L414.39 203.904
L413.37 202.176
L412.704 201.395
L410.976 200.484
L410.545 200.448
L409.248 199.334
L409.165 198.72
L409.248 198.618
L410.514 196.992
L410.976 195.392
L411.021 195.264
L411.182 193.536
L411.499 191.808
L410.976 190.579
L410.618 190.08
L409.248 188.81
L408.306 188.352
L407.52 187.94
L406.378 188.352
L405.792 188.431
L404.064 188.481
L402.336 188.962
L400.837 190.08
L400.608 190.378
L399.724 191.808
L399.37 193.536
L399.49 195.264
L400.144 196.992
L400.608 197.701
L401.38 198.72
L402.336 199.83
L403.38 200.448
L403.624 202.176
L402.84 203.904
L402.579 205.632
L402.633 207.36
L402.998 209.088
L403.653 210.816
L404.064 211.916
L404.195 212.544
L404.309 214.272
L405.09 216
L405.792 216.768
L407.044 217.728
L407.52 218.033" style="fill:none;stroke:#000000;"/>
    <path clip-path="url(#p23ab9b749c)" d="
M229.536 207.386
L229.498 207.36
L229.536 207.328
L230.068 207.36
L229.536 207.386" style="fill:none;stroke:#000000;"/>
    <path clip-path="url(#p23ab9b749c)" d="
M226.08 205.701
L226.153 205.632
L226.08 205.555
L226.041 205.632
L226.08 205.701" style="fill:none;stroke:#000000;"/>
    <path clip-path="url(#p23ab9b749c)" d="
M398.88 184.972
L399.322 184.896
L400.608 184.777
L402.336 183.88
L403.711 183.168
L404.064 182.847
L405.1 181.44
L405.705 179.712
L405.78 177.984
L405.474 176.256
L404.468 174.528
L404.064 174.078
L402.557 172.8
L402.336 172.64
L400.608 171.913
L398.88 171.934
L397.152 172.127
L395.947 172.8
L395.424 173.089
L394.418 174.528
L393.696 175.579
L393.058 176.256
L392.798 177.984
L392.749 179.712
L393.511 181.44
L393.696 181.768
L395.092 183.168
L395.424 183.448
L397.152 184.687
L398.558 184.896
L398.88 184.972" style="fill:none;stroke:#000000;"/>
    <path clip-path="url(#p23ab9b749c)" d="
M385.056 166.39
L386.784 167.014
L388.512 167.128
L390.24 166.803
L391.931 165.888
L391.968 165.87
L393.696 164.298
L393.811 164.16
L394.853 162.432
L395.252 160.704
L395.255 158.976
L394.869 157.248
L393.865 155.52
L393.696 155.316
L392.059 153.792
L391.968 153.721
L390.24 152.795
L388.512 152.457
L386.784 152.528
L385.056 153.062
L383.923 153.792
L383.328 154.224
L382.149 155.52
L381.6 156.632
L381.279 157.248
L380.854 158.976
L380.92 160.704
L381.488 162.432
L381.6 162.633
L382.421 164.16
L383.328 165.158
L384.315 165.888
L385.056 166.39" style="fill:none;stroke:#000000;"/>
    <path clip-path="url(#p23ab9b749c)" d="
M253.728 162.443
L253.705 162.432
L253.728 162.412
L253.74 162.432
L253.728 162.443" style="fill:none;stroke:#000000;"/>
    <path clip-path="url(#p23ab9b749c)" d="
M252 161.527
L251.199 160.704
L252 159.844
L252.767 160.704
L252 161.527" style="fill:none;stroke:#000000;"/>
    <path clip-path="url(#p23ab9b749c)" d="
M366.048 147.464
L367.776 148.191
L369.504 148.35
L371.232 148.056
L372.96 147.028
L373.121 146.88
L374.651 145.152
L374.688 145.075
L375.549 143.424
L375.831 141.696
L375.691 139.968
L374.876 138.24
L374.688 137.979
L373.321 136.512
L372.96 136.221
L371.232 135.335
L369.504 135.082
L367.776 135.264
L366.048 136.036
L365.457 136.512
L364.32 137.692
L363.892 138.24
L363.057 139.968
L362.82 141.696
L363.221 143.424
L363.82 145.152
L364.32 145.908
L365.298 146.88
L366.048 147.464" style="fill:none;stroke:#000000;"/>
    <path clip-path="url(#p23ab9b749c)" d="
M341.856 134.936
L343.584 135.328
L345.312 135.251
L346.771 134.784
L347.04 134.717
L348.768 133.741
L349.384 133.056
L350.496 131.352
L350.512 131.328
L351.316 129.6
L351.6 127.872
L351.49 126.144
L350.914 124.416
L350.496 123.745
L349.81 122.688
L348.768 121.682
L347.532 120.96
L347.04 120.685
L345.312 120.154
L343.584 120.081
L341.856 120.403
L340.669 120.96
L340.128 121.205
L338.4 122.673
L338.386 122.688
L337.126 124.416
L336.672 125.91
L336.579 126.144
L336.407 127.872
L336.672 129.338
L336.705 129.6
L337.361 131.328
L338.4 132.464
L338.969 133.056
L340.128 134.144
L341.578 134.784
L341.856 134.936" style="fill:none;stroke:#000000;"/>
    <path clip-path="url(#p23ab9b749c)" d="
M271.008 133.625
L272.736 134.42
L274.464 134.746
L276.192 134.748
L277.92 134.425
L279.648 133.628
L280.383 133.056
L281.376 132.236
L282.142 131.328
L283.104 129.694
L283.154 129.6
L283.85 127.872
L284.189 126.144
L284.208 124.416
L283.907 122.688
L283.139 120.96
L283.104 120.906
L281.963 119.232
L281.376 118.654
L279.782 117.504
L279.648 117.418
L277.92 116.621
L276.192 116.294
L274.464 116.316
L272.736 116.695
L271.091 117.504
L271.008 117.543
L269.28 118.848
L268.898 119.232
L267.671 120.96
L267.552 121.254
L266.887 122.688
L266.524 124.416
L266.5 126.144
L266.789 127.872
L267.464 129.6
L267.552 129.762
L268.489 131.328
L269.28 132.247
L270.259 133.056
L271.008 133.625" style="fill:none;stroke:#000000;"/>
    <path clip-path="url(#p23ab9b749c)" d="
M310.752 128.008
L312.48 128.197
L314.208 127.945
L314.422 127.872
L315.936 127.393
L317.664 126.154
L317.674 126.144
L319.108 124.416
L319.392 123.43
L319.62 122.688
L320.193 120.96
L320.314 119.232
L320.014 117.504
L319.392 116.165
L319.233 115.776
L317.864 114.048
L317.664 113.862
L315.936 112.665
L314.864 112.32
L314.208 112.073
L312.48 111.853
L310.752 112.098
L310.203 112.32
L309.024 112.729
L307.417 114.048
L307.296 114.166
L305.94 115.776
L305.568 116.705
L305.18 117.504
L304.769 119.232
L304.5 120.96
L304.849 122.688
L305.568 124.284
L305.632 124.416
L307.05 126.144
L307.296 126.373
L309.024 127.49
L310.363 127.872
L310.752 128.008" style="fill:none;stroke:#000000;"/>
   </g>
   <g id="LineCollection_3">
    <path clip-path="url(#p23ab9b749c)" d="
M272.736 278.925
L274.464 279.333
L276.192 279.183
L277.92 278.375
L278.155 278.208
L279.648 276.786
L279.912 276.48
L280.791 274.752
L281.024 273.024
L280.857 271.296
L280.233 269.568
L279.648 268.563
L279.065 267.84
L277.92 266.667
L276.56 266.112
L276.192 265.925
L274.464 265.789
L273.527 266.112
L272.736 266.29
L271.008 267.446
L270.67 267.84
L269.459 269.568
L269.28 270.029
L268.811 271.296
L268.627 273.024
L268.954 274.752
L269.28 275.371
L269.745 276.48
L271.008 277.83
L271.564 278.208
L272.736 278.925" style="fill:none;stroke:#000000;"/>
    <path clip-path="url(#p23ab9b749c)" d="
M307.296 274.887
L309.024 275.23
L310.752 275.167
L312.48 274.687
L314.208 273.87
L315.251 273.024
L316.752 271.296
L317.664 269.08
L318.063 267.84
L318.253 266.112
L318.155 264.384
L317.664 262.132
L317.321 260.928
L316.024 257.472
L315.803 255.744
L316.133 254.016
L317.664 253.341
L319.567 252.288
L321.12 252.57
L321.583 252.288
L322.848 251.773
L326.304 251.654
L328.032 251.571
L329.76 251.753
L333.216 251.802
L334.944 251.634
L336.672 251.228
L338.4 250.479
L340.128 249.472
L340.854 248.832
L342.396 247.104
L343.332 245.376
L343.868 243.648
L344.117 241.92
L344.036 240.192
L343.584 238.265
L342.205 235.008
L341.17 233.28
L339.978 231.552
L339.49 229.824
L339.257 228.096
L339.572 226.368
L340.959 222.912
L344.091 216
L344.688 214.272
L345.08 212.544
L345.312 210.35
L345.312 208.174
L345.272 207.36
L345.024 205.632
L344.559 203.904
L343.584 201.751
L342.886 200.448
L341.643 198.72
L340.128 196.987
L336.46 193.536
L331.488 188.823
L331.103 188.352
L329.76 186.114
L328.887 184.896
L324.257 179.712
L322.118 177.984
L321.12 177.273
L317.664 175.468
L315.936 174.849
L314.208 174.372
L312.48 174.086
L310.752 173.672
L309.024 173.482
L307.296 173.938
L305.568 173.256
L295.2 172.845
L293.472 172.87
L291.744 173.1
L290.016 173.098
L286.56 173.642
L283.104 174.681
L279.337 176.256
L277.92 176.979
L276.192 178.197
L274.151 179.712
L272.736 180.364
L269.28 183.43
L267.552 185.271
L266.397 186.624
L265.238 188.352
L263.991 190.08
L263.851 191.808
L262.368 193.849
L261.078 195.264
L258.912 200.658
L258.595 202.176
L257.88 203.904
L256.67 209.088
L256.469 210.816
L256.381 214.272
L256.165 216
L256.53 217.728
L256.411 219.456
L256.995 221.184
L256.991 222.912
L257.184 223.643
L257.939 224.64
L258.04 226.368
L259.268 229.824
L260.304 231.552
L260.924 233.28
L263.799 238.464
L265.375 240.192
L266.16 241.92
L268.362 243.648
L268.771 245.376
L269.28 245.978
L271.744 247.104
L272.736 249.621
L276.192 252.568
L276.784 252.288
L277.92 252.005
L278.169 252.288
L278.32 254.016
L279.648 254.309
L281.376 255.037
L283.104 254.929
L284.832 255.121
L286.029 255.744
L286.56 257.498
L288.288 257.805
L290.016 258.739
L291.744 259.43
L294.336 260.928
L295.2 261.574
L296.928 263.391
L298.658 266.112
L299.549 267.84
L302.112 271.504
L303.84 273.141
L305.568 274.264
L307.296 274.887
L307.296 274.887" style="fill:none;stroke:#000000;"/>
    <path clip-path="url(#p23ab9b749c)" d="
M236.448 261.301
L238.176 261.414
L239.227 260.928
L239.904 260.627
L241.239 259.2
L241.615 257.472
L241.388 255.744
L239.915 254.016
L239.904 254.007
L238.176 253.157
L236.448 253.28
L235.282 254.016
L234.72 254.389
L233.675 255.744
L233.335 257.472
L233.802 259.2
L234.72 260.29
L235.807 260.928
L236.448 261.301" style="fill:none;stroke:#000000;"/>
    <path clip-path="url(#p23ab9b749c)" d="
M217.44 221.211
L217.508 221.184
L219.168 220.651
L220.316 219.456
L220.747 217.728
L220.355 216
L219.168 214.747
L217.711 214.272
L217.44 214.165
L216.927 214.272
L215.712 214.395
L213.985 216
L213.984 216.005
L213.388 217.728
L213.984 219.29
L214.027 219.456
L215.712 221.021
L217.313 221.184
L217.44 221.211" style="fill:none;stroke:#000000;"/>
    <path clip-path="url(#p23ab9b749c)" d="
M409.248 215.134
L410.976 215.073
L411.779 214.272
L411.676 212.544
L410.976 211.829
L409.248 211.762
L408.463 212.544
L408.365 214.272
L409.248 215.134" style="fill:none;stroke:#000000;"/>
    <path clip-path="url(#p23ab9b749c)" d="
M409.248 208.089
L410.119 207.36
L410.775 205.632
L409.248 204.135
L407.52 205.09
L407.064 205.632
L407.52 206.854
L407.831 207.36
L409.248 208.089" style="fill:none;stroke:#000000;"/>
    <path clip-path="url(#p23ab9b749c)" d="
M405.792 196.047
L406.936 195.264
L407.516 193.536
L405.792 191.906
L404.074 193.536
L404.683 195.264
L405.792 196.047" style="fill:none;stroke:#000000;"/>
    <path clip-path="url(#p23ab9b749c)" d="
M222.624 179.845
L224.352 179.867
L224.63 179.712
L226.08 178.785
L226.726 177.984
L227.095 176.256
L226.24 174.528
L226.08 174.357
L224.352 173.146
L222.624 173.152
L220.896 174.453
L220.829 174.528
L219.946 176.256
L220.33 177.984
L220.896 178.715
L222.406 179.712
L222.624 179.845" style="fill:none;stroke:#000000;"/>
    <path clip-path="url(#p23ab9b749c)" d="
M398.88 180.543
L400.608 179.726
L400.622 179.712
L401.458 177.984
L400.608 176.932
L398.88 176.332
L397.232 177.984
L397.858 179.712
L398.88 180.543" style="fill:none;stroke:#000000;"/>
    <path clip-path="url(#p23ab9b749c)" d="
M386.784 161.636
L388.512 162.163
L390.118 160.704
L390.157 158.976
L388.512 157.437
L386.784 157.908
L385.829 158.976
L385.922 160.704
L386.784 161.636" style="fill:none;stroke:#000000;"/>
    <path clip-path="url(#p23ab9b749c)" d="
M245.088 148.775
L245.386 148.608
L246.816 147.684
L247.403 146.88
L247.568 145.152
L246.816 144.046
L246.157 143.424
L245.088 142.755
L243.36 143.008
L242.82 143.424
L241.643 145.152
L241.712 146.88
L243.36 148.567
L244.028 148.608
L245.088 148.775" style="fill:none;stroke:#000000;"/>
    <path clip-path="url(#p23ab9b749c)" d="
M369.504 143.485
L369.605 143.424
L371.232 141.933
L371.379 141.696
L371.232 141.399
L370.369 139.968
L369.504 139.396
L368.52 139.968
L367.776 140.806
L367.293 141.696
L367.776 142.424
L369.386 143.424
L369.504 143.485" style="fill:none;stroke:#000000;"/>
    <path clip-path="url(#p23ab9b749c)" d="
M343.584 129.484
L345.312 129.312
L346.616 127.872
L346.31 126.144
L345.312 125.159
L343.584 124.907
L342.211 126.144
L341.985 127.872
L343.584 129.484" style="fill:none;stroke:#000000;"/>
    <path clip-path="url(#p23ab9b749c)" d="
M274.464 127.337
L276.192 127.534
L277.847 126.144
L277.92 125.836
L278.403 124.416
L277.92 123.563
L277.342 122.688
L276.192 121.864
L274.464 122.131
L273.785 122.688
L272.829 124.416
L273.201 126.144
L274.464 127.337" style="fill:none;stroke:#000000;"/>
    <path clip-path="url(#p23ab9b749c)" d="
M310.752 120.977
L312.48 122.042
L314.123 120.96
L314.208 120.822
L314.99 119.232
L314.208 118.024
L313.538 117.504
L312.48 116.917
L311.386 117.504
L310.752 117.94
L309.896 119.232
L310.736 120.96
L310.752 120.977" style="fill:none;stroke:#000000;"/>
   </g>
   <g id="LineCollection_4">
    <path clip-path="url(#p23ab9b749c)" d="
M274.464 276.132
L276.192 275.153
L276.561 274.752
L276.515 273.024
L276.192 272.643
L274.464 271.697
L272.996 273.024
L272.94 274.752
L274.464 276.132" style="fill:none;stroke:#000000;"/>
    <path clip-path="url(#p23ab9b749c)" d="
M309.024 270.721
L310.752 270.897
L312.319 269.568
L312.48 268.79
L312.829 267.84
L312.48 267.122
L311.884 266.112
L310.752 265.213
L309.024 265.356
L308.13 266.112
L307.343 267.84
L307.721 269.568
L309.024 270.721" style="fill:none;stroke:#000000;"/>
    <path clip-path="url(#p23ab9b749c)" d="
M236.448 258.407
L238.176 258.457
L239.013 257.472
L238.176 256.464
L236.448 256.514
L235.672 257.472
L236.448 258.407" style="fill:none;stroke:#000000;"/>
    <path clip-path="url(#p23ab9b749c)" d="
M334.944 245.675
L336.672 245.692
L337.149 245.376
L338.4 244.392
L338.947 243.648
L339.098 241.92
L338.4 240.759
L337.881 240.192
L336.672 239.264
L334.944 239.203
L333.404 240.192
L333.216 240.426
L332.317 241.92
L332.564 243.648
L333.216 244.425
L334.407 245.376
L334.944 245.675" style="fill:none;stroke:#000000;"/>
    <path clip-path="url(#p23ab9b749c)" d="
M288.288 240.264
L290.016 240.603
L293.472 240.959
L296.928 240.986
L298.656 240.796
L300.384 240.178
L302.112 240.159
L305.568 239.016
L307.296 238.1
L309.024 236.671
L310.752 235.902
L311.831 235.008
L313.5 233.28
L314.208 232.64
L315.144 231.552
L317.664 227.837
L318.521 226.368
L319.392 224.51
L319.95 222.912
L320.796 221.184
L321.12 219.254
L322.585 216
L323.122 214.272
L323.646 212.544
L322.848 211.813
L322.429 210.816
L322.848 209.521
L323.404 209.088
L322.848 208.476
L322.267 207.36
L321.12 205.561
L319.854 203.904
L319.624 202.176
L319.194 200.448
L319.093 198.72
L320.386 193.536
L320.655 191.808
L320.659 190.08
L320.317 188.352
L319.386 186.624
L317.664 184.698
L315.936 183.637
L314.208 183.251
L312.48 183.208
L310.752 183.459
L309.024 184.075
L307.296 185.029
L305.568 186.104
L303.84 187.023
L302.112 187.482
L300.384 187.161
L295.2 183.897
L293.472 183.152
L291.744 182.596
L290.016 182.426
L288.288 182.636
L286.56 183.219
L284.832 184.085
L283.775 184.896
L282.12 186.624
L280.823 188.352
L277.92 193.083
L277.566 193.536
L275.98 195.264
L271.901 198.72
L271.008 199.578
L270.284 200.448
L269.164 202.176
L268.3 203.904
L267.838 205.632
L267.639 207.36
L267.625 209.088
L268.076 212.544
L268.84 216
L269.28 218.271
L269.658 221.184
L270.014 222.912
L271.257 226.368
L271.73 228.096
L272.798 229.824
L274.464 232.05
L276.192 233.845
L277.92 235.301
L279.95 236.736
L281.376 237.399
L283.104 238.465
L286.56 239.868
L288.288 240.264
L288.288 240.264" style="fill:none;stroke:#000000;"/>
    <path clip-path="url(#p23ab9b749c)" d="
M217.44 219.051
L218.688 217.728
L217.44 216.396
L215.871 217.728
L217.44 219.051" style="fill:none;stroke:#000000;"/>
    <path clip-path="url(#p23ab9b749c)" d="
M329.76 212.758
L331.488 213.465
L333.216 213.655
L334.944 213.394
L336.429 212.544
L336.672 212.445
L338.191 210.816
L338.4 210.269
L338.908 209.088
L338.888 207.36
L338.4 206.316
L338.127 205.632
L336.672 204.145
L336.02 203.904
L334.944 203.342
L333.216 203.208
L331.488 203.703
L331.079 203.904
L329.76 204.762
L328.774 205.632
L328.032 206.921
L327.518 207.36
L326.849 209.088
L327.429 210.816
L328.032 211.155
L329.364 212.544
L329.76 212.758" style="fill:none;stroke:#000000;"/>
    <path clip-path="url(#p23ab9b749c)" d="
M405.792 194.052
L406.247 193.536
L405.792 193.106
L405.339 193.536
L405.792 194.052" style="fill:none;stroke:#000000;"/>
    <path clip-path="url(#p23ab9b749c)" d="
M398.88 178.216
L399.113 177.984
L398.88 177.794
L398.69 177.984
L398.88 178.216" style="fill:none;stroke:#000000;"/>
    <path clip-path="url(#p23ab9b749c)" d="
M222.624 176.969
L224.352 176.48
L224.502 176.256
L224.352 176.088
L222.624 175.696
L222.112 176.256
L222.624 176.969" style="fill:none;stroke:#000000;"/>
    <path clip-path="url(#p23ab9b749c)" d="
M245.088 145.362
L245.189 145.152
L245.088 145.052
L244.878 145.152
L245.088 145.362" style="fill:none;stroke:#000000;"/>
    <path clip-path="url(#p23ab9b749c)" d="
M369.504 143.047
L370.858 141.696
L369.504 140.319
L368.133 141.696
L369.504 143.047" style="fill:none;stroke:#000000;"/>
    <path clip-path="url(#p23ab9b749c)" d="
M276.192 125.151
L276.802 124.416
L276.192 123.777
L275.249 124.416
L276.192 125.151" style="fill:none;stroke:#000000;"/>
    <path clip-path="url(#p23ab9b749c)" d="
M312.48 120.686
L313.909 119.232
L312.48 117.815
L311.045 119.232
L312.48 120.686" style="fill:none;stroke:#000000;"/>
   </g>
   <g id="LineCollection_5">
    <path clip-path="url(#p23ab9b749c)" d="
M310.752 268.229
L311.037 267.84
L310.752 267.535
L310.221 267.84
L310.752 268.229" style="fill:none;stroke:#000000;"/>
    <path clip-path="url(#p23ab9b749c)" d="
M293.472 233.499
L295.2 233.498
L296.431 233.28
L296.928 233.22
L298.656 232.779
L300.384 232.03
L301.236 231.552
L302.112 231.105
L303.84 229.91
L303.948 229.824
L305.568 228.564
L306.069 228.096
L307.296 226.738
L307.615 226.368
L308.878 224.64
L309.024 224.347
L309.853 222.912
L310.481 221.184
L310.752 219.881
L310.875 219.456
L311.11 217.728
L311.234 216
L311.13 214.272
L310.798 212.544
L310.752 212.382
L310.409 210.816
L309.755 209.088
L309.024 207.783
L308.796 207.36
L307.533 205.632
L307.296 205.357
L305.797 203.904
L305.568 203.698
L303.84 202.484
L303.264 202.176
L302.112 201.493
L300.384 200.783
L299.217 200.448
L298.656 200.242
L296.928 199.771
L295.2 199.482
L293.472 199.393
L291.744 199.54
L290.016 200.142
L289.531 200.448
L288.288 201.047
L286.751 202.176
L286.56 202.297
L284.832 203.554
L284.311 203.904
L283.104 204.667
L281.376 205.284
L279.648 204.662
L278.798 203.904
L277.92 203.433
L276.192 202.863
L274.464 203.367
L273.85 203.904
L272.759 205.632
L272.736 207.004
L272.716 207.36
L272.736 207.408
L273.44 209.088
L274.464 210.3
L275.477 210.816
L276.192 211.499
L277.492 212.544
L277.92 213.275
L278.305 214.272
L278.235 216
L277.92 217.628
L277.9 217.728
L277.205 219.456
L276.626 221.184
L276.406 222.912
L276.596 224.64
L277.577 226.368
L277.92 226.761
L279.648 228.026
L279.952 228.096
L281.376 228.731
L283.104 229.158
L284.556 229.824
L284.832 229.978
L286.56 231.054
L287.459 231.552
L288.288 232.015
L290.016 232.784
L291.744 233.222
L292.24 233.28
L293.472 233.499" style="fill:none;stroke:#000000;"/>
    <path clip-path="url(#p23ab9b749c)" d="
M334.944 210.062
L336.011 209.088
L336.216 207.36
L334.944 206.169
L333.323 207.36
L333.47 209.088
L334.944 210.062" style="fill:none;stroke:#000000;"/>
    <path clip-path="url(#p23ab9b749c)" d="
M288.288 192.996
L290.016 193.295
L291.744 192.214
L292.002 191.808
L292.804 190.08
L292.461 188.352
L291.744 187.565
L290.016 186.66
L288.288 186.892
L286.82 188.352
L286.613 190.08
L287.228 191.808
L288.288 192.996" style="fill:none;stroke:#000000;"/>
    <path clip-path="url(#p23ab9b749c)" d="
M312.48 191.396
L314.208 191.803
L315.936 190.767
L316.401 190.08
L316.226 188.352
L315.936 188.013
L314.208 186.789
L312.48 187.521
L311.656 188.352
L311.449 190.08
L312.48 191.396" style="fill:none;stroke:#000000;"/>
    <path clip-path="url(#p23ab9b749c)" d="
M369.504 141.844
L369.652 141.696
L369.504 141.545
L369.354 141.696
L369.504 141.844" style="fill:none;stroke:#000000;"/>
    <path clip-path="url(#p23ab9b749c)" d="
M312.48 119.582
L312.824 119.232
L312.48 118.891
L312.135 119.232
L312.48 119.582" style="fill:none;stroke:#000000;"/>
   </g>
   <g id="LineCollection_6">
    <path clip-path="url(#p23ab9b749c)" d="
M291.744 228.811
L293.472 229.664
L295.2 229.63
L296.928 228.501
L297.459 228.096
L298.656 227.102
L300.042 226.368
L300.384 226.272
L302.112 225.341
L302.911 224.64
L303.84 223.589
L304.379 222.912
L305.233 221.184
L305.568 219.817
L305.708 219.456
L306.135 217.728
L306.217 216
L305.938 214.272
L305.568 213.316
L305.36 212.544
L304.459 210.816
L303.84 210.043
L303.045 209.088
L302.112 208.225
L300.774 207.36
L300.384 207.09
L298.656 206.273
L296.928 205.952
L295.2 205.918
L293.472 206.158
L291.744 206.818
L290.85 207.36
L290.016 207.773
L288.464 209.088
L288.288 209.268
L286.925 210.816
L286.56 211.579
L286 212.544
L285.493 214.272
L285.355 216
L285.428 217.728
L285.715 219.456
L286.374 221.184
L286.56 221.512
L287.187 222.912
L288.288 224.478
L288.387 224.64
L289.553 226.368
L290.016 226.876
L290.877 228.096
L291.744 228.811" style="fill:none;stroke:#000000;"/>
    <path clip-path="url(#p23ab9b749c)" d="
M279.648 224.799
L281.376 225.535
L282.374 224.64
L282.436 222.912
L281.376 221.932
L279.648 222.701
L279.48 222.912
L279.5 224.64
L279.648 224.799" style="fill:none;stroke:#000000;"/>
    <path clip-path="url(#p23ab9b749c)" d="
M276.192 207.287
L276.839 205.632
L276.192 205.049
L275.281 205.632
L276.192 207.287" style="fill:none;stroke:#000000;"/>
   </g>
   <g id="LineCollection_7">
    <path clip-path="url(#p23ab9b749c)" d="
M293.472 227.035
L295.2 226.834
L295.536 226.368
L295.2 225.675
L293.472 225.428
L292.937 226.368
L293.472 227.035" style="fill:none;stroke:#000000;"/>
    <path clip-path="url(#p23ab9b749c)" d="
M293.472 223.025
L295.2 223.617
L296.928 223.606
L298.656 223.788
L300.384 223.315
L300.863 222.912
L302.091 221.184
L302.112 220.744
L302.485 219.456
L303.237 217.728
L303.449 216
L302.865 214.272
L302.112 213.12
L301.826 212.544
L300.491 210.816
L300.384 210.712
L298.656 209.371
L296.928 209.153
L295.2 209.199
L293.472 209.385
L291.744 210.232
L291.071 210.816
L290.016 212.229
L289.772 212.544
L288.962 214.272
L288.769 216
L289.067 217.728
L290.015 219.456
L290.016 219.458
L291.1 221.184
L291.744 221.906
L293.381 222.912
L293.472 223.025" style="fill:none;stroke:#000000;"/>
   </g>
   <g id="LineCollection_8">
    <path clip-path="url(#p23ab9b749c)" d="
M298.656 221.595
L300.384 221.783
L300.949 221.184
L300.384 220.294
L299.412 219.456
L300.384 218.559
L301.027 217.728
L301.981 216
L300.384 214.335
L300.019 214.272
L299.961 212.544
L298.656 211.17
L296.928 211.008
L295.2 211.379
L293.472 210.985
L291.832 212.544
L291.744 213.204
L291.123 214.272
L290.405 216
L291.161 217.728
L291.744 218.475
L292.83 219.456
L293.472 220.009
L295.2 220.612
L296.928 220.6
L297.961 221.184
L298.656 221.595" style="fill:none;stroke:#000000;"/>
   </g>
   <g id="LineCollection_9">
    <path clip-path="url(#p23ab9b749c)" d="
M293.472 218.005
L295.2 219.284
L296.928 218.246
L297.546 217.728
L298.401 216
L297.273 214.272
L296.928 213.497
L295.2 213.308
L294.26 212.544
L293.472 211.966
L292.863 212.544
L293.269 214.272
L291.96 216
L293.187 217.728
L293.472 218.005" style="fill:none;stroke:#000000;"/>
    <path clip-path="url(#p23ab9b749c)" d="
M300.384 216.99
L301.241 216
L300.384 215.106
L299.076 216
L300.384 216.99" style="fill:none;stroke:#000000;"/>
   </g>
   <g id="LineCollection_10">
    <path clip-path="url(#p23ab9b749c)" d="
M295.2 218.462
L296.062 217.728
L296.928 216
L295.2 214.272
L293.472 216
L294.361 217.728
L295.2 218.462" style="fill:none;stroke:#000000;"/>
   </g>
   <g id="LineCollection_11">
    <path clip-path="url(#p23ab9b749c)" d="
M295.2 217.728
L296.928 216
L295.2 214.272
L293.472 216
L295.2 217.728" style="fill:none;stroke:#000000;"/>
   </g>
   <g id="LineCollection_12">
    <path clip-path="url(#p23ab9b749c)" d="
M295.2 217.728
L296.928 216
L295.2 214.272
L293.472 216
L295.2 217.728" style="fill:none;stroke:#000000;"/>
   </g>
   <g id="LineCollection_13">
    <path clip-path="url(#p23ab9b749c)" d="
M295.2 217.728
L296.928 216
L295.2 214.272
L293.472 216
L295.2 217.728" style="fill:none;stroke:#000000;"/>
   </g>
   <g id="LineCollection_14">
    <path clip-path="url(#p23ab9b749c)" d="
M295.2 217.728
L296.928 216
L295.2 214.272
L293.472 216
L295.2 217.728" style="fill:none;stroke:#000000;"/>
   </g>
   <g id="LineCollection_15">
    <path clip-path="url(#p23ab9b749c)" d="
M295.2 217.728
L296.928 216
L295.2 214.272
L293.472 216
L295.2 217.728" style="fill:none;stroke:#000000;"/>
   </g>
   <g id="LineCollection_16">
    <path clip-path="url(#p23ab9b749c)" d="
M295.2 217.728
L296.928 216
L295.2 214.272
L293.472 216
L295.2 217.728" style="fill:none;stroke:#000000;"/>
   </g>
   <g id="LineCollection_17">
    <path clip-path="url(#p23ab9b749c)" d="
M295.2 217.728
L296.928 216
L295.2 214.272
L293.472 216
L295.2 217.728" style="fill:none;stroke:#000000;"/>
   </g>
   <g id="LineCollection_18">
    <path clip-path="url(#p23ab9b749c)" d="
M295.2 217.728
L296.928 216
L295.2 214.272
L293.472 216
L295.2 217.728" style="fill:none;stroke:#000000;"/>
   </g>
   <g id="LineCollection_19">
    <path clip-path="url(#p23ab9b749c)" d="
M295.2 217.728
L296.928 216
L295.2 214.272
L293.472 216
L295.2 217.728" style="fill:none;stroke:#000000;"/>
   </g>
   <g id="patch_4">
    <path d="
M122.4 43.2
L468 43.2
L468 43.2" style="fill:none;stroke:#000000;stroke-linecap:square;stroke-linejoin:miter;"/>
   </g>
   <g id="patch_5">
    <path d="
M468 388.8
L468 43.2
L468 43.2" style="fill:none;stroke:#000000;stroke-linecap:square;stroke-linejoin:miter;"/>
   </g>
   <g id="patch_6">
    <path d="
M122.4 388.8
L468 388.8
L468 388.8" style="fill:none;stroke:#000000;stroke-linecap:square;stroke-linejoin:miter;"/>
   </g>
   <g id="patch_7">
    <path d="
M122.4 388.8
L122.4 43.2
L122.4 43.2" style="fill:none;stroke:#000000;stroke-linecap:square;stroke-linejoin:miter;"/>
   </g>
   <g id="matplotlib.axis_1">
    <g id="xtick_1">
     <g id="line2d_1">
      <defs>
       <path d="
M0 0
L0 -4" id="mb1445623b5" style="stroke:#000000;stroke-width:0.5;"/>
      </defs>
      <g>
       <use style="stroke:#000000;stroke-width:0.5;" x="122.4" xlink:href="#mb1445623b5" y="388.8"/>
      </g>
     </g>
     <g id="line2d_2">
      <defs>
       <path d="
M0 0
L0 4" id="m3a68111ca7" style="stroke:#000000;stroke-width:0.5;"/>
      </defs>
      <g>
       <use style="stroke:#000000;stroke-width:0.5;" x="122.4" xlink:href="#m3a68111ca7" y="43.2"/>
      </g>
     </g>
     <g id="text_1">
      <!-- −1.5 -->
      <defs>
       <path d="
M10.5938 35.5
L73.1875 35.5
L73.1875 27.2031
L10.5938 27.2031
z
" id="BitstreamVeraSans-Roman-2212"/>
       <path d="
M12.4062 8.29688
L28.5156 8.29688
L28.5156 63.9219
L10.9844 60.4062
L10.9844 69.3906
L28.4219 72.9062
L38.2812 72.9062
L38.2812 8.29688
L54.3906 8.29688
L54.3906 0
L12.4062 0
z
" id="BitstreamVeraSans-Roman-31"/>
       <path d="
M10.6875 12.4062
L21 12.4062
L21 0
L10.6875 0
z
" id="BitstreamVeraSans-Roman-2e"/>
       <path d="
M10.7969 72.9062
L49.5156 72.9062
L49.5156 64.5938
L19.8281 64.5938
L19.8281 46.7344
Q21.9688 47.4688 24.1094 47.8281
Q26.2656 48.1875 28.4219 48.1875
Q40.625 48.1875 47.75 41.5
Q54.8906 34.8125 54.8906 23.3906
Q54.8906 11.625 47.5625 5.09375
Q40.2344 -1.42188 26.9062 -1.42188
Q22.3125 -1.42188 17.5469 -0.640625
Q12.7969 0.140625 7.71875 1.70312
L7.71875 11.625
Q12.1094 9.23438 16.7969 8.0625
Q21.4844 6.89062 26.7031 6.89062
Q35.1562 6.89062 40.0781 11.3281
Q45.0156 15.7656 45.0156 23.3906
Q45.0156 31 40.0781 35.4375
Q35.1562 39.8906 26.7031 39.8906
Q22.75 39.8906 18.8125 39.0156
Q14.8906 38.1406 10.7969 36.2812
z
" id="BitstreamVeraSans-Roman-35"/>
      </defs>
      <g transform="translate(108.99 401.918125)scale(0.12 -0.12)">
       <use xlink:href="#BitstreamVeraSans-Roman-2212"/>
       <use x="83.7890625" xlink:href="#BitstreamVeraSans-Roman-31"/>
       <use x="147.412109375" xlink:href="#BitstreamVeraSans-Roman-2e"/>
       <use x="179.19921875" xlink:href="#BitstreamVeraSans-Roman-35"/>
      </g>
     </g>
    </g>
    <g id="xtick_2">
     <g id="line2d_3">
      <g>
       <use style="stroke:#000000;stroke-width:0.5;" x="180.0" xlink:href="#mb1445623b5" y="388.8"/>
      </g>
     </g>
     <g id="line2d_4">
      <g>
       <use style="stroke:#000000;stroke-width:0.5;" x="180.0" xlink:href="#m3a68111ca7" y="43.2"/>
      </g>
     </g>
     <g id="text_2">
      <!-- −1.0 -->
      <defs>
       <path d="
M31.7812 66.4062
Q24.1719 66.4062 20.3281 58.9062
Q16.5 51.4219 16.5 36.375
Q16.5 21.3906 20.3281 13.8906
Q24.1719 6.39062 31.7812 6.39062
Q39.4531 6.39062 43.2812 13.8906
Q47.125 21.3906 47.125 36.375
Q47.125 51.4219 43.2812 58.9062
Q39.4531 66.4062 31.7812 66.4062
M31.7812 74.2188
Q44.0469 74.2188 50.5156 64.5156
Q56.9844 54.8281 56.9844 36.375
Q56.9844 17.9688 50.5156 8.26562
Q44.0469 -1.42188 31.7812 -1.42188
Q19.5312 -1.42188 13.0625 8.26562
Q6.59375 17.9688 6.59375 36.375
Q6.59375 54.8281 13.0625 64.5156
Q19.5312 74.2188 31.7812 74.2188" id="BitstreamVeraSans-Roman-30"/>
      </defs>
      <g transform="translate(166.464375 401.918125)scale(0.12 -0.12)">
       <use xlink:href="#BitstreamVeraSans-Roman-2212"/>
       <use x="83.7890625" xlink:href="#BitstreamVeraSans-Roman-31"/>
       <use x="147.412109375" xlink:href="#BitstreamVeraSans-Roman-2e"/>
       <use x="179.19921875" xlink:href="#BitstreamVeraSans-Roman-30"/>
      </g>
     </g>
    </g>
    <g id="xtick_3">
     <g id="line2d_5">
      <g>
       <use style="stroke:#000000;stroke-width:0.5;" x="237.6" xlink:href="#mb1445623b5" y="388.8"/>
      </g>
     </g>
     <g id="line2d_6">
      <g>
       <use style="stroke:#000000;stroke-width:0.5;" x="237.6" xlink:href="#m3a68111ca7" y="43.2"/>
      </g>
     </g>
     <g id="text_3">
      <!-- −0.5 -->
      <g transform="translate(224.19 401.918125)scale(0.12 -0.12)">
       <use xlink:href="#BitstreamVeraSans-Roman-2212"/>
       <use x="83.7890625" xlink:href="#BitstreamVeraSans-Roman-30"/>
       <use x="147.412109375" xlink:href="#BitstreamVeraSans-Roman-2e"/>
       <use x="179.19921875" xlink:href="#BitstreamVeraSans-Roman-35"/>
      </g>
     </g>
    </g>
    <g id="xtick_4">
     <g id="line2d_7">
      <g>
       <use style="stroke:#000000;stroke-width:0.5;" x="295.2" xlink:href="#mb1445623b5" y="388.8"/>
      </g>
     </g>
     <g id="line2d_8">
      <g>
       <use style="stroke:#000000;stroke-width:0.5;" x="295.2" xlink:href="#m3a68111ca7" y="43.2"/>
      </g>
     </g>
     <g id="text_4">
      <!-- 0.0 -->
      <g transform="translate(286.4521875 401.918125)scale(0.12 -0.12)">
       <use xlink:href="#BitstreamVeraSans-Roman-30"/>
       <use x="63.623046875" xlink:href="#BitstreamVeraSans-Roman-2e"/>
       <use x="95.41015625" xlink:href="#BitstreamVeraSans-Roman-30"/>
      </g>
     </g>
    </g>
    <g id="xtick_5">
     <g id="line2d_9">
      <g>
       <use style="stroke:#000000;stroke-width:0.5;" x="352.8" xlink:href="#mb1445623b5" y="388.8"/>
      </g>
     </g>
     <g id="line2d_10">
      <g>
       <use style="stroke:#000000;stroke-width:0.5;" x="352.8" xlink:href="#m3a68111ca7" y="43.2"/>
      </g>
     </g>
     <g id="text_5">
      <!-- 0.5 -->
      <g transform="translate(344.1778125 401.918125)scale(0.12 -0.12)">
       <use xlink:href="#BitstreamVeraSans-Roman-30"/>
       <use x="63.623046875" xlink:href="#BitstreamVeraSans-Roman-2e"/>
       <use x="95.41015625" xlink:href="#BitstreamVeraSans-Roman-35"/>
      </g>
     </g>
    </g>
    <g id="xtick_6">
     <g id="line2d_11">
      <g>
       <use style="stroke:#000000;stroke-width:0.5;" x="410.4" xlink:href="#mb1445623b5" y="388.8"/>
      </g>
     </g>
     <g id="line2d_12">
      <g>
       <use style="stroke:#000000;stroke-width:0.5;" x="410.4" xlink:href="#m3a68111ca7" y="43.2"/>
      </g>
     </g>
     <g id="text_6">
      <!-- 1.0 -->
      <g transform="translate(401.915625 401.918125)scale(0.12 -0.12)">
       <use xlink:href="#BitstreamVeraSans-Roman-31"/>
       <use x="63.623046875" xlink:href="#BitstreamVeraSans-Roman-2e"/>
       <use x="95.41015625" xlink:href="#BitstreamVeraSans-Roman-30"/>
      </g>
     </g>
    </g>
    <g id="xtick_7">
     <g id="line2d_13">
      <g>
       <use style="stroke:#000000;stroke-width:0.5;" x="468.0" xlink:href="#mb1445623b5" y="388.8"/>
      </g>
     </g>
     <g id="line2d_14">
      <g>
       <use style="stroke:#000000;stroke-width:0.5;" x="468.0" xlink:href="#m3a68111ca7" y="43.2"/>
      </g>
     </g>
     <g id="text_7">
      <!-- 1.5 -->
      <g transform="translate(459.64125 401.918125)scale(0.12 -0.12)">
       <use xlink:href="#BitstreamVeraSans-Roman-31"/>
       <use x="63.623046875" xlink:href="#BitstreamVeraSans-Roman-2e"/>
       <use x="95.41015625" xlink:href="#BitstreamVeraSans-Roman-35"/>
      </g>
     </g>
    </g>
   </g>
   <g id="matplotlib.axis_2">
    <g id="ytick_1">
     <g id="line2d_15">
      <defs>
       <path d="
M0 0
L4 0" id="m71e820122c" style="stroke:#000000;stroke-width:0.5;"/>
      </defs>
      <g>
       <use style="stroke:#000000;stroke-width:0.5;" x="122.4" xlink:href="#m71e820122c" y="388.8"/>
      </g>
     </g>
     <g id="line2d_16">
      <defs>
       <path d="
M0 0
L-4 0" id="m81ec2b1422" style="stroke:#000000;stroke-width:0.5;"/>
      </defs>
      <g>
       <use style="stroke:#000000;stroke-width:0.5;" x="468.0" xlink:href="#m81ec2b1422" y="388.8"/>
      </g>
     </g>
     <g id="text_8">
      <!-- −1.5 -->
      <g transform="translate(91.58 392.11125)scale(0.12 -0.12)">
       <use xlink:href="#BitstreamVeraSans-Roman-2212"/>
       <use x="83.7890625" xlink:href="#BitstreamVeraSans-Roman-31"/>
       <use x="147.412109375" xlink:href="#BitstreamVeraSans-Roman-2e"/>
       <use x="179.19921875" xlink:href="#BitstreamVeraSans-Roman-35"/>
      </g>
     </g>
    </g>
    <g id="ytick_2">
     <g id="line2d_17">
      <g>
       <use style="stroke:#000000;stroke-width:0.5;" x="122.4" xlink:href="#m71e820122c" y="331.2"/>
      </g>
     </g>
     <g id="line2d_18">
      <g>
       <use style="stroke:#000000;stroke-width:0.5;" x="468.0" xlink:href="#m81ec2b1422" y="331.2"/>
      </g>
     </g>
     <g id="text_9">
      <!-- −1.0 -->
      <g transform="translate(91.32875 334.51125)scale(0.12 -0.12)">
       <use xlink:href="#BitstreamVeraSans-Roman-2212"/>
       <use x="83.7890625" xlink:href="#BitstreamVeraSans-Roman-31"/>
       <use x="147.412109375" xlink:href="#BitstreamVeraSans-Roman-2e"/>
       <use x="179.19921875" xlink:href="#BitstreamVeraSans-Roman-30"/>
      </g>
     </g>
    </g>
    <g id="ytick_3">
     <g id="line2d_19">
      <g>
       <use style="stroke:#000000;stroke-width:0.5;" x="122.4" xlink:href="#m71e820122c" y="273.6"/>
      </g>
     </g>
     <g id="line2d_20">
      <g>
       <use style="stroke:#000000;stroke-width:0.5;" x="468.0" xlink:href="#m81ec2b1422" y="273.6"/>
      </g>
     </g>
     <g id="text_10">
      <!-- −0.5 -->
      <g transform="translate(91.58 276.91125)scale(0.12 -0.12)">
       <use xlink:href="#BitstreamVeraSans-Roman-2212"/>
       <use x="83.7890625" xlink:href="#BitstreamVeraSans-Roman-30"/>
       <use x="147.412109375" xlink:href="#BitstreamVeraSans-Roman-2e"/>
       <use x="179.19921875" xlink:href="#BitstreamVeraSans-Roman-35"/>
      </g>
     </g>
    </g>
    <g id="ytick_4">
     <g id="line2d_21">
      <g>
       <use style="stroke:#000000;stroke-width:0.5;" x="122.4" xlink:href="#m71e820122c" y="216.0"/>
      </g>
     </g>
     <g id="line2d_22">
      <g>
       <use style="stroke:#000000;stroke-width:0.5;" x="468.0" xlink:href="#m81ec2b1422" y="216.0"/>
      </g>
     </g>
     <g id="text_11">
      <!-- 0.0 -->
      <g transform="translate(100.904375 219.31125)scale(0.12 -0.12)">
       <use xlink:href="#BitstreamVeraSans-Roman-30"/>
       <use x="63.623046875" xlink:href="#BitstreamVeraSans-Roman-2e"/>
       <use x="95.41015625" xlink:href="#BitstreamVeraSans-Roman-30"/>
      </g>
     </g>
    </g>
    <g id="ytick_5">
     <g id="line2d_23">
      <g>
       <use style="stroke:#000000;stroke-width:0.5;" x="122.4" xlink:href="#m71e820122c" y="158.4"/>
      </g>
     </g>
     <g id="line2d_24">
      <g>
       <use style="stroke:#000000;stroke-width:0.5;" x="468.0" xlink:href="#m81ec2b1422" y="158.4"/>
      </g>
     </g>
     <g id="text_12">
      <!-- 0.5 -->
      <g transform="translate(101.155625 161.71125)scale(0.12 -0.12)">
       <use xlink:href="#BitstreamVeraSans-Roman-30"/>
       <use x="63.623046875" xlink:href="#BitstreamVeraSans-Roman-2e"/>
       <use x="95.41015625" xlink:href="#BitstreamVeraSans-Roman-35"/>
      </g>
     </g>
    </g>
    <g id="ytick_6">
     <g id="line2d_25">
      <g>
       <use style="stroke:#000000;stroke-width:0.5;" x="122.4" xlink:href="#m71e820122c" y="100.8"/>
      </g>
     </g>
     <g id="line2d_26">
      <g>
       <use style="stroke:#000000;stroke-width:0.5;" x="468.0" xlink:href="#m81ec2b1422" y="100.8"/>
      </g>
     </g>
     <g id="text_13">
      <!-- 1.0 -->
      <g transform="translate(101.43125 104.11125)scale(0.12 -0.12)">
       <use xlink:href="#BitstreamVeraSans-Roman-31"/>
       <use x="63.623046875" xlink:href="#BitstreamVeraSans-Roman-2e"/>
       <use x="95.41015625" xlink:href="#BitstreamVeraSans-Roman-30"/>
      </g>
     </g>
    </g>
    <g id="ytick_7">
     <g id="line2d_27">
      <g>
       <use style="stroke:#000000;stroke-width:0.5;" x="122.4" xlink:href="#m71e820122c" y="43.2"/>
      </g>
     </g>
     <g id="line2d_28">
      <g>
       <use style="stroke:#000000;stroke-width:0.5;" x="468.0" xlink:href="#m81ec2b1422" y="43.2"/>
      </g>
     </g>
     <g id="text_14">
      <!-- 1.5 -->
      <g transform="translate(101.6825 46.51125)scale(0.12 -0.12)">
       <use xlink:href="#BitstreamVeraSans-Roman-31"/>
       <use x="63.623046875" xlink:href="#BitstreamVeraSans-Roman-2e"/>
       <use x="95.41015625" xlink:href="#BitstreamVeraSans-Roman-35"/>
      </g>
     </g>
    </g>
   </g>
  </g>
 </g>
 <defs>
  <clipPath id="p23ab9b749c">
   <rect height="345.6" width="345.6" x="122.4" y="43.2"/>
  </clipPath>
 </defs>
</svg>
