<?xml version="1.0" encoding="utf-8" standalone="no"?>
<!DOCTYPE svg PUBLIC "-//W3C//DTD SVG 1.1//EN"
  "http://www.w3.org/Graphics/SVG/1.1/DTD/svg11.dtd">
<!-- Created with matplotlib (http://matplotlib.org/) -->
<svg height="432pt" version="1.1" viewBox="0 0 576 432" width="576pt" xmlns="http://www.w3.org/2000/svg" xmlns:xlink="http://www.w3.org/1999/xlink">
 <defs>
  <style type="text/css">
*{stroke-linecap:butt;stroke-linejoin:round;}
  </style>
 </defs>
 <g id="figure_1">
  <g id="patch_1">
   <path d="
M0 432
L576 432
L576 0
L0 0
z
" style="fill:#ffffff;"/>
  </g>
  <g id="axes_1">
   <g id="patch_2">
    <path d="
M122.4 388.8
L468 388.8
L468 43.2
L122.4 43.2
z
" style="fill:#ffffff;"/>
   </g>
   <g id="patch_3">
    <path clip-path="url(#p23ab9b749c)" d="
M295.2 331.2
C325.751 331.2 355.056 319.062 376.659 297.459
C398.262 275.856 410.4 246.551 410.4 216
C410.4 185.449 398.262 156.144 376.659 134.541
C355.056 112.938 325.751 100.8 295.2 100.8
C264.649 100.8 235.344 112.938 213.741 134.541
C192.138 156.144 180 185.449 180 216
C180 246.551 192.138 275.856 213.741 297.459
C235.344 319.062 264.649 331.2 295.2 331.2
L295.2 331.2" style="fill:none;stroke:#000000;stroke-dasharray:6.000000,6.000000;stroke-dashoffset:0.0;stroke-linejoin:miter;"/>
   </g>
   <g id="LineCollection_1">
    <path clip-path="url(#p23ab9b749c)" d="
M283.104 318.713
L284.26 317.952
L284.832 317.559
L286.719 317.952
L288.288 319.022
L290.016 318.546
L291.744 317.59
L293.472 317.48
L293.857 317.952
L295.2 318.916
L296.928 317.465
L299.093 317.952
L300.384 319.017
L301.456 317.952
L302.112 317.595
L303.84 316.842
L305.568 316.841
L307.296 317.448
L309.024 317.328
L309.674 316.224
L310.752 315.539
L312.48 315.726
L313.61 316.224
L312.48 317.185
L311.938 317.952
L312.48 318.321
L314.566 317.952
L315.936 317.093
L317.664 315.806
L319.392 314.786
L320.448 314.496
L321.12 314.006
L322.848 314.735
L324.576 314.217
L326.304 312.995
L328.187 312.768
L329.76 312.394
L333.216 310.149
L334.002 309.312
L333.761 307.584
L334.944 306.857
L336.097 307.584
L336.672 309.347
L336.722 309.312
L337.495 307.584
L337.485 305.856
L338.4 305.027
L339.216 305.856
L340.128 306.609
L341.334 305.856
L341.856 305.024
L343.584 303.474
L344.133 304.128
L344.122 305.856
L345.312 306.204
L345.523 305.856
L347.381 304.128
L347.04 303.638
L345.645 302.4
L345.312 301.864
L344.877 300.672
L345.312 299.279
L347.813 300.672
L348.168 302.4
L348.768 302.829
L349.473 302.4
L350.29 300.672
L350.496 300.572
L352.224 299.456
L352.628 298.944
L353.095 297.216
L353.952 295.941
L355.68 296.443
L357.14 295.488
L355.68 294.534
L353.952 294.689
L353.473 293.76
L353.952 293.109
L355.68 292.913
L357.408 292.099
L359.136 294.36
L360.197 293.76
L359.814 292.032
L363.51 288.576
L362.592 287.106
L362.592 286.804
L364.32 286.023
L366.048 286.497
L367.776 286.379
L369.504 286.04
L370.419 285.12
L370.721 283.392
L369.296 281.664
L369.504 281.006
L371.239 279.936
L372.96 279.63
L374.337 278.208
L374.039 276.48
L378.144 270.975
L379.872 268.532
L380.081 269.568
L381.6 270.601
L382.717 269.568
L381.654 267.84
L385.056 262.622
L391.968 251.89
L394.25 248.832
L395.693 247.104
L397.307 245.376
L399.209 243.648
L400.608 242.529
L402.336 242.808
L404.064 241.539
L405.993 240.192
L408.076 238.464
L409.248 237.753
L410.214 235.008
L410.75 233.28
L410.976 233.131
L411.218 233.28
L412.704 237.711
L414.432 236.663
L417.888 234.142
L421.344 231.146
L423.072 229.373
L424.8 227.321
L426.528 224.854
L427.684 222.912
L428.519 221.184
L429.984 216.985
L430.707 214.272
L431.021 212.544
L431.073 210.816
L431.363 207.36
L431.045 205.632
L430.995 203.904
L430.569 200.448
L429.847 196.992
L428.863 193.536
L428.064 191.808
L427.205 190.08
L426.528 188.008
L424.793 186.624
L424.098 183.168
L423.061 181.44
L422.429 179.712
L421.969 177.984
L421.344 177.228
L420.858 176.256
L420.253 174.528
L420.839 172.8
L421.344 171.71
L422.582 171.072
L421.23 167.616
L419.616 165.098
L418.478 162.432
L417.523 160.704
L415.286 155.52
L413.608 152.064
L411.646 148.608
L409.248 145.13
L407.52 142.979
L405.792 141.085
L404.064 139.404
L402.336 137.902
L400.462 136.512
L398.88 135.601
L398.324 134.784
L396.747 133.056
L393.696 131.698
L393.503 131.328
L391.795 129.6
L391.968 127.819
L390.24 127.618
L385.056 122.156
L381.6 118.928
L374.688 113.635
L368.027 108.864
L364.32 106.483
L359.136 103.609
L357.408 103.192
L355.68 103.567
L352.224 102.177
L350.496 101.577
L348.768 101.18
L347.04 100.607
L346.549 101.952
L345.312 103.775
L344.604 103.68
L343.584 103.044
L343.054 101.952
L341.856 100.954
L340.203 100.224
L340.128 99.7418
L339.85 100.224
L338.4 100.406
L337.44 100.224
L336.672 99.8021
L334.944 99.05
L331.454 96.768
L329.76 97.3668
L328.993 96.768
L328.032 95.0577
L326.304 95.3641
L324.544 95.04
L322.848 95.5647
L322.235 95.04
L322.848 93.4655
L323.296 93.312
L321.12 92.9381
L320.91 93.312
L320.239 95.04
L317.664 97.2679
L317.301 96.768
L316.611 95.04
L315.936 94.4781
L315.142 95.04
L314.208 95.8797
L312.48 94.8298
L310.752 91.6256
L309.024 92.7031
L307.296 91.8661
L305.568 92.101
L305.12 93.312
L305.568 94.03
L307.296 94.5054
L309.024 93.9862
L310.284 95.04
L309.024 96.2496
L307.296 95.2196
L305.568 95.4606
L302.318 93.312
L302.112 93.1149
L300.246 93.312
L300.384 93.3465
L301.135 95.04
L300.384 96.8052
L300.357 96.768
L298.656 93.7608
L296.928 94.713
L291.744 95.2602
L290.016 96.6484
L288.288 95.6712
L286.56 96.2437
L284.832 94.8337
L284.084 95.04
L283.104 95.4719
L282.532 96.768
L281.376 97.3922
L279.648 96.3951
L277.92 95.7978
L276.192 95.8427
L274.464 95.5236
L273.738 96.768
L272.736 97.6194
L271.008 97.6752
L270.398 98.496
L269.28 99.3258
L267.552 99.0537
L266.386 98.496
L265.824 97.5526
L264.096 98.2339
L262.368 98.496
L259.187 100.224
L258.912 100.344
L253.728 103.782
L250.272 106.542
L247.766 108.864
L244.501 112.32
L238.695 119.232
L236.448 121.843
L234.72 123.697
L234.582 122.688
L232.992 121.434
L231.74 122.688
L232.992 124.272
L234.018 124.416
L232.992 125.427
L231.264 124.65
L227.808 124.998
L226.08 125.299
L224.352 126.916
L222.624 127.151
L221.904 127.872
L220.376 129.6
L219.168 130.878
L217.44 129.457
L216.65 129.6
L217.039 131.328
L216.805 133.056
L215.712 134.204
L214.443 134.784
L214.001 136.512
L215.712 137.181
L216.226 138.24
L215.712 138.782
L213.984 139.042
L212.256 140.798
L210.987 139.968
L210.528 138.155
L210.375 138.24
L208.8 140.217
L207.818 141.696
L208.8 142.267
L209.608 143.424
L209.045 145.152
L208.983 146.88
L208.8 147.02
L208.355 146.88
L207.965 145.152
L207.072 142.81
L206.037 145.152
L204.365 146.88
L203.306 148.608
L203.616 148.877
L204.241 150.336
L203.616 150.847
L202.294 150.336
L201.888 149.875
L201.554 150.336
L199.953 152.064
L198.406 153.792
L196.127 157.248
L195.144 158.976
L194.595 160.704
L193.084 164.16
L191.009 169.344
L190.938 171.072
L190.563 172.8
L189.792 174.657
L190.397 176.256
L189.742 179.712
L189.258 183.168
L188.964 186.624
L188.796 191.808
L188.821 195.264
L189.792 197.355
L191.52 198.001
L192.04 198.72
L191.52 198.993
L190.223 200.448
L191.52 201.958
L192.944 202.176
L192.697 203.904
L191.52 204.063
L190.326 203.904
L189.792 203.637
L188.894 203.904
L188.064 205.647
L186.304 205.632
L185.632 207.36
L184.608 207.583
L184.101 207.36
L183.327 205.632
L182.88 205.298
L182.694 205.632
L182.572 207.36
L181.114 209.088
L181.152 212.648
L181.206 212.544
L182.88 211.079
L183.472 210.816
L185.655 209.088
L186.336 207.593
L186.732 209.088
L186.336 210.116
L185.821 210.816
L185.197 212.544
L185.235 214.272
L184.608 215.058
L182.88 215.486
L182.374 216
L182.467 219.456
L182.204 221.184
L182.88 221.537
L184.191 221.184
L183.458 219.456
L184.159 217.728
L184.608 217.461
L184.794 217.728
L185.665 219.456
L186.336 220.25
L186.802 221.184
L187.422 222.912
L186.508 224.64
L186.832 226.368
L184.608 229.34
L184.143 229.824
L187.116 233.28
L187.223 235.008
L188.064 236.069
L189.792 234.695
L190.93 233.28
L191.52 233.016
L191.758 233.28
L191.52 236.049
L191.089 236.736
L191.52 237.514
L193.248 238.198
L194.976 238.131
L195.649 238.464
L194.976 239.219
L193.248 239.771
L191.52 238.917
L191.005 240.192
L190.656 241.92
L189.792 243.365
L189.361 243.648
L189.792 244.041
L191.52 244.854
L193.248 243.463
L193.46 243.648
L194.976 244.594
L195.944 245.376
L195.779 247.104
L194.976 248.299
L194.294 248.832
L194.976 249.717
L196.704 249.956
L196.93 250.56
L196.975 252.288
L196.386 254.016
L196.704 254.499
L198.24 255.744
L198.825 257.472
L198.432 258.059
L198.034 259.2
L198.138 260.928
L200.16 266.219
L201.888 269.977
L203.616 273.217
L205.609 276.48
L208.053 279.936
L210.901 283.392
L214.211 286.848
L215.712 287.305
L217.032 288.576
L217.44 289.76
L220.896 292.458
L222.624 293.666
L224.352 293.023
L226.08 292.869
L227.577 293.76
L225.456 295.488
L227.808 296.876
L229.536 296.349
L231.264 296.094
L232.992 297.021
L234.641 297.216
L232.992 298.052
L231.772 298.944
L232.992 299.246
L234.72 299.218
L236.448 299.577
L237.815 300.672
L238.176 301.897
L239.904 302.632
L240.941 304.128
L241.632 304.776
L243.36 304.181
L245.088 306.368
L245.885 305.856
L246.816 305.604
L247.127 305.856
L247.956 307.584
L248.544 307.807
L248.837 307.584
L250.272 306.157
L251.031 307.584
L251.058 309.312
L252 309.997
L253.728 309.39
L255.456 310.14
L257.184 311.423
L257.539 311.04
L258.912 310.265
L259.746 311.04
L260.64 312.379
L263.831 314.496
L264.096 314.931
L265.824 314.371
L267.552 313.411
L269.377 314.496
L271.008 315.892
L272.736 315.535
L274.464 316.497
L276.192 316.72
L277.92 317.877
L279.648 317.514
L281.376 316.85
L281.887 316.224
L283.104 315.595
L283.973 316.224
L283.104 317.312
L282.338 317.952
L283.104 318.713
L283.104 318.713" style="fill:none;stroke:#000000;"/>
    <path clip-path="url(#p23ab9b749c)" d="
M290.016 317.073
L288.771 316.224
L290.016 315.568
L290.476 316.224
L290.016 317.073" style="fill:none;stroke:#000000;"/>
    <path clip-path="url(#p23ab9b749c)" d="
M315.936 315.613
L315.129 314.496
L315.936 313.569
L316.817 314.496
L315.936 315.613" style="fill:none;stroke:#000000;"/>
    <path clip-path="url(#p23ab9b749c)" d="
M319.392 313.199
L319.162 312.768
L319.392 312.632
L319.688 312.768
L319.392 313.199" style="fill:none;stroke:#000000;"/>
    <path clip-path="url(#p23ab9b749c)" d="
M341.856 308.11
L342.104 307.584
L341.856 306.888
L341.537 307.584
L341.856 308.11" style="fill:none;stroke:#000000;"/>
    <path clip-path="url(#p23ab9b749c)" d="
M241.632 301.683
L240.115 300.672
L241.632 300.193
L242.117 300.672
L241.632 301.683" style="fill:none;stroke:#000000;"/>
    <path clip-path="url(#p23ab9b749c)" d="
M355.68 299.223
L355.855 298.944
L355.68 298.18
L355.378 298.944
L355.68 299.223" style="fill:none;stroke:#000000;"/>
    <path clip-path="url(#p23ab9b749c)" d="
M219.168 289.396
L218.481 288.576
L219.168 287.888
L220.022 288.576
L219.168 289.396" style="fill:none;stroke:#000000;"/>
    <path clip-path="url(#p23ab9b749c)" d="
M191.52 247.127
L191.609 247.104
L191.52 246.885
L191.47 247.104
L191.52 247.127" style="fill:none;stroke:#000000;"/>
    <path clip-path="url(#p23ab9b749c)" d="
M188.064 241.946
L188.08 241.92
L188.064 241.721
L188.032 241.92
L188.064 241.946" style="fill:none;stroke:#000000;"/>
    <path clip-path="url(#p23ab9b749c)" d="
M188.064 232.31
L187.17 231.552
L187.509 229.824
L188.064 229.463
L188.369 229.824
L188.608 231.552
L188.064 232.31" style="fill:none;stroke:#000000;"/>
    <path clip-path="url(#p23ab9b749c)" d="
M182.88 228.246
L183.038 228.096
L183.242 226.368
L183.358 224.64
L182.88 224.395
L182.588 224.64
L182.312 226.368
L182.763 228.096
L182.88 228.246" style="fill:none;stroke:#000000;"/>
    <path clip-path="url(#p23ab9b749c)" d="
M184.608 223.82
L185.722 222.912
L184.608 221.435
L184.047 222.912
L184.608 223.82" style="fill:none;stroke:#000000;"/>
    <path clip-path="url(#p23ab9b749c)" d="
M188.064 212.614
L187.967 212.544
L188.064 212.47
L188.119 212.544
L188.064 212.614" style="fill:none;stroke:#000000;"/>
    <path clip-path="url(#p23ab9b749c)" d="
M213.984 148.651
L213.949 148.608
L213.984 148.561
L214.008 148.608
L213.984 148.651" style="fill:none;stroke:#000000;"/>
    <path clip-path="url(#p23ab9b749c)" d="
M210.528 142.201
L209.684 141.696
L210.528 141.059
L210.81 141.696
L210.528 142.201" style="fill:none;stroke:#000000;"/>
    <path clip-path="url(#p23ab9b749c)" d="
M217.44 137.01
L216.4 136.512
L217.44 135.622
L218.002 136.512
L217.44 137.01" style="fill:none;stroke:#000000;"/>
    <path clip-path="url(#p23ab9b749c)" d="
M213.984 133.218
L214.016 133.056
L213.984 132.891
L213.932 133.056
L213.984 133.218" style="fill:none;stroke:#000000;"/>
    <path clip-path="url(#p23ab9b749c)" d="
M220.896 133.223
L220.524 133.056
L220.896 132.724
L221.054 133.056
L220.896 133.223" style="fill:none;stroke:#000000;"/>
    <path clip-path="url(#p23ab9b749c)" d="
M222.624 131.709
L221.934 131.328
L222.624 130.781
L224.352 131.035
L224.561 131.328
L224.352 131.548
L222.624 131.709" style="fill:none;stroke:#000000;"/>
    <path clip-path="url(#p23ab9b749c)" d="
M229.536 128.674
L229.434 127.872
L229.536 127.773
L230.411 127.872
L229.536 128.674" style="fill:none;stroke:#000000;"/>
    <path clip-path="url(#p23ab9b749c)" d="
M222.624 124.614
L222.822 124.416
L222.624 124.261
L222.469 124.416
L222.624 124.614" style="fill:none;stroke:#000000;"/>
    <path clip-path="url(#p23ab9b749c)" d="
M229.536 123.768
L230.614 122.688
L229.536 121.838
L228.685 122.688
L229.536 123.768" style="fill:none;stroke:#000000;"/>
    <path clip-path="url(#p23ab9b749c)" d="
M229.536 119.479
L229.784 119.232
L229.536 119.046
L229.35 119.232
L229.536 119.479" style="fill:none;stroke:#000000;"/>
    <path clip-path="url(#p23ab9b749c)" d="
M348.768 105.677
L347.923 105.408
L348.768 104.869
L349.286 105.408
L348.768 105.677" style="fill:none;stroke:#000000;"/>
    <path clip-path="url(#p23ab9b749c)" d="
M340.128 101.971
L340.121 101.952
L340.128 101.703
L340.138 101.952
L340.128 101.971" style="fill:none;stroke:#000000;"/>
    <path clip-path="url(#p23ab9b749c)" d="
M281.376 100.308
L281.243 100.224
L281.376 100.083
L281.559 100.224
L281.376 100.308" style="fill:none;stroke:#000000;"/>
    <path clip-path="url(#p23ab9b749c)" d="
M343.584 100.443
L343.652 100.224
L343.584 99.946
L343.444 100.224
L343.584 100.443" style="fill:none;stroke:#000000;"/>
    <path clip-path="url(#p23ab9b749c)" d="
M277.92 98.6679
L277.644 98.496
L277.92 98.1383
L279.648 97.5091
L280.139 98.496
L279.648 98.9642
L277.92 98.6679" style="fill:none;stroke:#000000;"/>
    <path clip-path="url(#p23ab9b749c)" d="
M291.744 98.7877
L291.348 98.496
L291.744 97.7251
L292.146 98.496
L291.744 98.7877" style="fill:none;stroke:#000000;"/>
    <path clip-path="url(#p23ab9b749c)" d="
M267.552 97
L269.28 97.0368
L269.684 96.768
L269.28 95.9339
L267.552 96.5409
L267.07 96.768
L267.552 97" style="fill:none;stroke:#000000;"/>
    <path clip-path="url(#p23ab9b749c)" d="
M295.2 97.2142
L294.327 96.768
L295.2 95.2339
L295.773 96.768
L295.2 97.2142" style="fill:none;stroke:#000000;"/>
    <path clip-path="url(#p23ab9b749c)" d="
M314.208 93.8958
L314.596 93.312
L314.208 91.7261
L313.524 93.312
L314.208 93.8958" style="fill:none;stroke:#000000;"/>
   </g>
   <g id="LineCollection_2">
    <path clip-path="url(#p23ab9b749c)" d="
M274.464 288.594
L276.192 288.687
L278.356 288.576
L279.648 288.451
L283.104 287.774
L288.288 286.232
L290.016 285.559
L293.472 285.265
L295.2 285.297
L302.112 286.212
L305.568 286.432
L309.024 286.348
L312.48 285.876
L315.936 284.923
L317.664 284.283
L321.12 282.495
L321.685 281.664
L322.848 280.704
L324.659 279.936
L326.626 278.208
L328.335 276.48
L329.879 274.752
L330.826 273.024
L331.488 272.268
L332.601 271.296
L333.216 270.54
L334.397 269.568
L335.362 267.84
L336.672 267.317
L340.128 264.801
L340.362 264.384
L341.856 263.163
L343.261 262.656
L343.584 262.415
L347.273 259.2
L348.855 257.472
L351.705 254.016
L352.224 252.087
L354.094 248.832
L355.106 247.104
L355.41 245.376
L355.68 244.711
L356.294 243.648
L356.823 241.92
L357.203 240.192
L357.105 238.464
L357.215 236.736
L357.408 236.332
L358.216 235.008
L358.963 233.28
L358.849 231.552
L359.234 228.096
L359.136 227.819
L358.826 226.368
L359.136 225.812
L359.547 224.64
L359.697 222.912
L359.136 221.571
L359.136 221.098
L360.584 219.456
L360.874 217.728
L361.064 214.272
L360.864 214.101
L360.078 212.544
L361.072 210.816
L360.748 205.632
L358.769 202.176
L359.136 201.341
L360.096 200.448
L359.136 199.454
L358.752 198.72
L358.475 196.992
L358.676 195.264
L358.307 193.536
L357.668 191.808
L357.408 191.51
L355.68 188.631
L355.295 188.352
L354.429 186.624
L354.439 184.896
L353.448 183.168
L352.224 181.339
L350.496 179.236
L349.053 177.984
L347.04 174.31
L345.312 172.648
L343.584 170.7
L342.618 169.344
L341.856 168.575
L340.128 168.483
L339.787 167.616
L338.377 165.888
L336.672 164.158
L333.216 161.76
L331.453 162.432
L331.26 160.704
L329.76 159.354
L328.032 159.66
L327.173 158.976
L326.304 157.436
L324.576 157.753
L324.01 157.248
L322.848 155.739
L321.12 155.055
L319.392 154.361
L318.109 155.52
L317.664 155.716
L317.412 155.52
L317.309 153.792
L315.936 153.274
L314.208 153.639
L312.48 152.916
L310.752 151.971
L310.594 152.064
L309.024 152.531
L305.568 151.078
L303.84 151.354
L302.112 150.964
L300.384 151.655
L298.656 151.764
L295.2 150.73
L293.472 151.614
L291.744 151.8
L290.016 151.771
L288.288 151.617
L286.4 152.064
L284.832 152.152
L283.104 152.575
L281.376 153.154
L279.648 153.263
L276.192 154.105
L274.464 154.411
L272.736 154.883
L267.552 155.908
L265.824 157.436
L265.381 157.248
L264.096 156.415
L262.368 155.442
L260.64 154.957
L258.912 154.739
L257.995 153.792
L258.872 152.064
L258.088 150.336
L257.124 148.608
L257.184 146.798
L255.793 145.152
L255.456 143.309
L252.971 139.968
L252 139.05
L250.912 138.24
L250.272 137.958
L248.544 137.364
L246.816 136.619
L245.014 136.512
L243.36 136.643
L241.632 137.085
L239.561 138.24
L237.609 139.968
L236.407 141.696
L235.577 143.424
L235.188 145.152
L235.114 146.88
L235.279 148.608
L235.721 150.336
L236.517 152.064
L238.176 154.783
L239.904 156.909
L241.822 157.248
L242.366 158.976
L243.36 159.911
L245.088 159.534
L245.815 158.976
L246.816 158.366
L248.544 158.259
L249.166 158.976
L248.544 160.25
L248.042 160.704
L250.078 162.432
L249.817 164.16
L248.336 165.888
L245.554 167.616
L245.581 169.344
L245.088 170.374
L243.36 171.157
L241.632 171.656
L239.904 171.814
L238.176 171.709
L236.448 170.544
L235.35 169.344
L233.054 167.616
L231.264 166.614
L229.225 165.888
L227.808 165.503
L226.08 165.271
L224.352 165.279
L222.624 165.533
L220.896 166.039
L219.168 166.775
L217.44 167.97
L215.712 169.741
L214.76 171.072
L213.984 172.84
L213.44 174.528
L213.207 176.256
L213.265 177.984
L213.621 179.712
L214.254 181.44
L215.712 183.813
L217.44 185.688
L219.168 187.662
L222.624 190.469
L224.352 191.527
L226.08 191.999
L227.808 192.624
L228.851 193.536
L230.046 195.264
L230.66 196.992
L229.536 198.207
L229.313 198.72
L229.536 199.065
L231.124 200.448
L230.985 202.176
L231.264 203.907
L230.104 205.632
L229.536 206.22
L227.808 206.739
L227.367 207.36
L226.08 208.204
L225.139 207.36
L224.352 206.216
L222.624 206.668
L221.843 207.36
L220.896 207.949
L217.613 205.632
L217.44 205.191
L213.984 206.217
L212.256 206.951
L211.844 207.36
L209.497 209.088
L208.074 210.816
L207.072 212.746
L206.476 214.272
L206.127 216
L206.037 217.728
L206.209 219.456
L206.676 221.184
L207.431 222.912
L208.8 224.883
L210.528 226.541
L212.256 227.733
L213.984 228.651
L215.712 228.074
L215.905 228.096
L217.44 229.212
L219.168 229.783
L220.896 229.644
L221.393 229.824
L222.624 230.711
L224.352 231.383
L225.062 228.096
L226.08 227.212
L227.066 228.096
L227.808 229.635
L228.918 229.824
L229.536 230.076
L231.264 231.577
L230.962 233.28
L232.421 235.008
L232.482 238.464
L231.264 239.907
L229.933 240.192
L231.264 240.815
L231.711 241.92
L231.264 242.544
L229.536 242.575
L229.066 243.648
L228.093 245.376
L228.097 247.104
L227.808 247.824
L227.252 248.832
L226.481 250.56
L225.999 252.288
L225.648 254.016
L225.526 255.744
L225.601 257.472
L226.08 259.695
L226.42 260.928
L227.22 262.656
L228.379 264.384
L230.031 266.112
L231.264 267.116
L232.992 268.119
L234.72 268.869
L236.448 269.312
L239.174 269.568
L240.365 269.568
L241.632 269.493
L243.36 269.008
L245.088 268.848
L250.272 267.087
L250.714 267.84
L252 268.64
L252.889 269.568
L252.821 271.296
L253.768 273.024
L255.456 273.737
L256.319 274.752
L257.593 276.48
L257.642 278.208
L259.057 279.936
L260.644 281.664
L262.48 283.392
L264.759 285.12
L265.824 285.811
L267.935 286.848
L269.28 287.434
L271.008 288.02
L272.736 288.385
L274.464 288.594
L274.464 288.594" style="fill:none;stroke:#000000;"/>
    <path clip-path="url(#p23ab9b749c)" d="
M234.72 240.332
L234.627 240.192
L233.954 238.464
L234.72 237.988
L236.448 238.236
L237.296 238.464
L236.448 238.691
L234.763 240.192
L234.72 240.332" style="fill:none;stroke:#000000;"/>
    <path clip-path="url(#p23ab9b749c)" d="
M238.176 237.513
L237.979 236.736
L237.772 235.008
L237.751 233.28
L238.176 232.943
L238.464 233.28
L238.516 235.008
L238.314 236.736
L238.176 237.513" style="fill:none;stroke:#000000;"/>
    <path clip-path="url(#p23ab9b749c)" d="
M226.08 231.582
L227.808 232.448
L228.57 231.552
L227.808 230.307
L226.08 231.521
L225.338 231.552
L226.08 231.582" style="fill:none;stroke:#000000;"/>
    <path clip-path="url(#p23ab9b749c)" d="
M231.264 225.57
L230.604 224.64
L231.264 223.897
L232.186 224.64
L231.264 225.57" style="fill:none;stroke:#000000;"/>
    <path clip-path="url(#p23ab9b749c)" d="
M231.264 221.617
L230.972 221.184
L231.264 220.794
L231.643 221.184
L231.264 221.617" style="fill:none;stroke:#000000;"/>
    <path clip-path="url(#p23ab9b749c)" d="
M407.52 217.863
L409.248 218.556
L410.976 218.48
L412.704 217.754
L412.741 217.728
L414.432 216.17
L414.57 216
L415.423 214.272
L415.562 212.544
L415.153 210.816
L414.432 209.472
L414.155 209.088
L414.432 208.698
L415.175 207.36
L414.993 205.632
L414.432 204.062
L414.39 203.904
L413.396 202.176
L412.704 201.719
L410.976 200.999
L409.26 202.176
L409.248 202.179
L409.239 202.176
L408.38 200.448
L409.248 199.604
L410.34 198.72
L410.976 197.977
L411.603 196.992
L412.154 195.264
L412.201 193.536
L411.775 191.808
L410.976 190.503
L410.701 190.08
L409.248 188.74
L408.36 188.352
L407.52 187.944
L406.008 188.352
L405.792 188.375
L405.505 188.352
L404.064 188.051
L403.491 188.352
L402.336 188.92
L401.058 190.08
L400.608 190.771
L399.794 191.808
L399.384 193.536
L399.518 195.264
L400.577 196.992
L400.608 197.04
L401.908 198.72
L402.336 199.187
L403.515 200.448
L403.409 202.176
L403.373 203.904
L402.583 205.632
L402.626 207.36
L402.998 209.088
L404.064 210.346
L404.442 210.816
L404.166 212.544
L404.321 214.272
L405.09 216
L405.792 216.689
L407.305 217.728
L407.52 217.863" style="fill:none;stroke:#000000;"/>
    <path clip-path="url(#p23ab9b749c)" d="
M231.264 214.618
L230.906 214.272
L231.264 213.973
L231.595 214.272
L231.264 214.618" style="fill:none;stroke:#000000;"/>
    <path clip-path="url(#p23ab9b749c)" d="
M229.536 211.359
L229.107 210.816
L229.536 209.962
L230.222 210.816
L229.536 211.359" style="fill:none;stroke:#000000;"/>
    <path clip-path="url(#p23ab9b749c)" d="
M220.896 205.991
L221.199 205.632
L220.896 204.935
L220.636 205.632
L220.896 205.991" style="fill:none;stroke:#000000;"/>
    <path clip-path="url(#p23ab9b749c)" d="
M226.08 205.992
L226.601 205.632
L226.08 205.098
L225.42 205.632
L226.08 205.992" style="fill:none;stroke:#000000;"/>
    <path clip-path="url(#p23ab9b749c)" d="
M395.424 183.547
L397.152 184.644
L398.88 184.58
L400.608 184.408
L401.959 183.168
L402.336 182.937
L404.064 182.847
L405.154 181.44
L405.705 179.712
L405.78 177.984
L405.474 176.256
L404.521 174.528
L404.064 173.999
L402.567 172.8
L402.336 172.638
L400.608 172.169
L399.515 172.8
L398.88 172.974
L398.078 172.8
L397.152 172.367
L395.947 172.8
L395.424 173.089
L393.974 174.528
L393.696 175.034
L393.005 176.256
L392.637 177.984
L392.915 179.712
L393.409 181.44
L393.696 181.871
L394.816 183.168
L395.424 183.547" style="fill:none;stroke:#000000;"/>
    <path clip-path="url(#p23ab9b749c)" d="
M345.312 179.862
L345.16 179.712
L345.312 179.443
L345.576 179.712
L345.312 179.862" style="fill:none;stroke:#000000;"/>
    <path clip-path="url(#p23ab9b749c)" d="
M331.488 168.062
L331.018 167.616
L331.488 166.912
L332.225 167.616
L331.488 168.062" style="fill:none;stroke:#000000;"/>
    <path clip-path="url(#p23ab9b749c)" d="
M385.056 166.39
L386.784 166.716
L388.512 166.796
L390.24 166.334
L391.513 165.888
L391.968 165.679
L393.696 164.274
L393.811 164.16
L394.853 162.432
L395.252 160.704
L395.255 158.976
L394.869 157.248
L393.865 155.52
L393.696 155.316
L392.059 153.792
L391.968 153.721
L390.24 152.795
L388.512 152.457
L386.784 152.528
L385.056 153.062
L383.923 153.792
L383.328 154.224
L382.149 155.52
L381.6 156.632
L381.279 157.248
L380.854 158.976
L380.92 160.704
L381.488 162.432
L381.6 162.633
L382.421 164.16
L383.328 165.158
L384.315 165.888
L385.056 166.39" style="fill:none;stroke:#000000;"/>
    <path clip-path="url(#p23ab9b749c)" d="
M253.728 156.751
L252.93 155.52
L253.728 154.632
L255.456 154.934
L256.324 155.52
L255.456 156.046
L253.728 156.751" style="fill:none;stroke:#000000;"/>
    <path clip-path="url(#p23ab9b749c)" d="
M366.048 147.442
L367.776 148.074
L369.504 148.232
L371.232 147.896
L372.96 147.052
L373.146 146.88
L374.618 145.152
L374.688 145.022
L375.516 143.424
L375.882 141.696
L375.691 139.968
L374.883 138.24
L374.688 137.979
L373.321 136.512
L372.96 136.221
L371.232 135.331
L369.504 135.269
L367.776 135.405
L366.048 136.318
L365.778 136.512
L364.32 137.671
L363.888 138.24
L363.057 139.968
L362.82 141.696
L363.185 143.424
L363.869 145.152
L364.32 145.772
L365.442 146.88
L366.048 147.442" style="fill:none;stroke:#000000;"/>
    <path clip-path="url(#p23ab9b749c)" d="
M274.464 134.787
L276.192 134.871
L277.256 134.784
L277.92 134.709
L279.648 133.958
L280.957 133.056
L281.376 132.751
L282.612 131.328
L283.104 130.699
L283.49 129.6
L284.14 127.872
L284.189 126.144
L284.208 124.416
L283.892 122.688
L283.116 120.96
L283.104 120.942
L281.95 119.232
L281.376 118.654
L279.776 117.504
L279.648 117.418
L277.92 116.621
L276.192 116.294
L274.464 116.316
L272.736 116.695
L271.091 117.504
L271.008 117.543
L269.28 118.848
L268.898 119.232
L267.671 120.96
L267.552 121.254
L266.887 122.688
L266.524 124.416
L266.5 126.144
L266.789 127.872
L267.464 129.6
L267.552 129.762
L268.489 131.328
L269.28 132.247
L270.259 133.056
L271.008 133.632
L272.736 134.422
L274.456 134.784
L274.464 134.787" style="fill:none;stroke:#000000;"/>
    <path clip-path="url(#p23ab9b749c)" d="
M343.584 135.317
L345.312 135.251
L346.009 134.784
L347.04 134.087
L348.768 133.524
L349.48 133.056
L350.496 131.65
L350.69 131.328
L351.359 129.6
L351.581 127.872
L351.415 126.144
L350.914 124.416
L350.496 123.745
L349.619 122.688
L348.768 122.017
L347.247 120.96
L347.04 120.823
L345.312 120.239
L343.584 120.212
L341.856 120.475
L340.701 120.96
L340.128 121.205
L338.4 122.673
L338.386 122.688
L337.181 124.416
L336.697 126.144
L336.672 126.402
L336.442 127.872
L336.672 129.31
L336.705 129.6
L337.361 131.328
L338.4 132.671
L338.768 133.056
L340.128 134.168
L341.856 134.762
L341.953 134.784
L343.584 135.317" style="fill:none;stroke:#000000;"/>
    <path clip-path="url(#p23ab9b749c)" d="
M310.752 128.008
L312.48 128.162
L314.208 127.954
L314.422 127.872
L315.936 127.393
L317.664 126.154
L317.674 126.144
L319.108 124.416
L319.392 123.779
L319.87 122.688
L320.193 120.96
L320.314 119.232
L320.014 117.504
L319.392 116.165
L319.233 115.776
L317.864 114.048
L317.664 113.862
L315.936 112.665
L314.864 112.32
L314.208 112.073
L312.48 111.853
L310.752 112.098
L310.203 112.32
L309.024 112.729
L307.302 114.048
L307.296 114.054
L305.922 115.776
L305.568 116.602
L305.098 117.504
L304.589 119.232
L304.5 120.96
L304.81 122.688
L305.568 124.284
L305.632 124.416
L307.05 126.144
L307.296 126.252
L309.024 127.145
L310.576 127.872
L310.752 128.008" style="fill:none;stroke:#000000;"/>
   </g>
   <g id="LineCollection_3">
    <path clip-path="url(#p23ab9b749c)" d="
M272.736 278.925
L274.464 279.333
L276.192 279.183
L277.92 278.375
L278.155 278.208
L279.648 276.786
L279.912 276.48
L280.791 274.752
L281.024 273.024
L280.857 271.296
L280.233 269.568
L279.648 268.563
L279.065 267.84
L277.92 266.667
L276.56 266.112
L276.192 265.925
L274.464 265.789
L273.527 266.112
L272.736 266.29
L271.008 267.446
L270.67 267.84
L269.459 269.568
L269.28 270.029
L268.811 271.296
L268.627 273.024
L268.954 274.752
L269.28 275.371
L269.745 276.48
L271.008 277.83
L271.564 278.208
L272.736 278.925" style="fill:none;stroke:#000000;"/>
    <path clip-path="url(#p23ab9b749c)" d="
M307.296 274.887
L309.024 275.23
L310.752 275.167
L312.48 274.687
L314.208 273.87
L315.251 273.024
L316.752 271.296
L317.664 269.08
L318.063 267.84
L318.253 266.112
L318.155 264.384
L317.664 262.132
L316.241 257.472
L316.193 255.744
L317.664 253.76
L319.392 253.288
L321.12 252.434
L321.858 252.288
L324.576 251.283
L326.304 251.541
L328.032 251.522
L331.488 251.746
L333.216 251.802
L334.944 251.634
L336.672 251.228
L338.4 250.478
L340.128 249.472
L340.854 248.832
L342.396 247.104
L343.332 245.376
L343.868 243.648
L344.117 241.92
L344.036 240.192
L343.584 238.265
L343.093 236.736
L341.856 234.54
L341.207 233.28
L340.079 231.552
L338.4 229.782
L339.461 228.096
L339.531 226.368
L340.798 222.912
L342.64 219.456
L344.13 216
L344.696 214.272
L345.08 212.544
L345.312 210.35
L345.312 208.174
L345.272 207.36
L345.024 205.632
L344.559 203.904
L343.584 201.751
L342.886 200.448
L341.643 198.72
L340.128 196.987
L336.672 193.739
L336.428 193.536
L332.944 190.08
L331.465 188.352
L329.76 186.114
L328.032 184.016
L327.511 183.168
L326.003 181.44
L324.257 179.712
L322.118 177.984
L321.12 177.273
L317.664 175.468
L315.936 174.849
L312.48 173.96
L309.024 173.477
L303.84 173.151
L296.928 172.865
L293.472 172.87
L290.016 173.116
L288.288 173.32
L286.56 173.719
L281.376 175.296
L277.92 177.029
L273.614 179.712
L271.421 181.44
L271.008 181.804
L269.28 183.735
L267.552 185.288
L265.077 188.352
L262.862 191.808
L261.078 195.264
L259.557 198.72
L259.092 200.448
L258.912 202.444
L258.912 203.946
L257.476 205.632
L257.212 207.36
L257.383 209.088
L257.184 209.645
L256.462 210.816
L256.131 214.272
L256.585 216
L256.408 217.728
L256.864 219.456
L257.184 223.206
L257.752 224.64
L258.604 228.096
L259.42 229.824
L260.095 231.552
L262.368 235.834
L262.945 236.736
L264.096 238.762
L265.093 240.192
L265.824 241.53
L266.277 241.92
L267.552 243.872
L268.771 245.376
L269.28 245.684
L270.623 247.104
L271.008 247.885
L272.736 249.621
L274.464 249.876
L275.227 250.56
L275.879 252.288
L276.192 252.568
L276.474 252.288
L277.92 251.852
L278.456 252.288
L278.32 254.016
L279.648 254.837
L281.376 254.551
L282.869 255.744
L283.104 256.35
L286.56 257.537
L288.288 258.073
L291.744 259.369
L293.472 260.352
L293.959 259.2
L295.2 258.464
L296.005 259.2
L295.2 260.663
L294.369 260.928
L295.2 261.543
L296.928 263.391
L298.658 266.112
L299.549 267.84
L302.112 271.504
L303.84 273.141
L305.568 274.264
L307.296 274.887
L307.296 274.887" style="fill:none;stroke:#000000;"/>
    <path clip-path="url(#p23ab9b749c)" d="
M236.448 261.301
L238.176 261.414
L239.227 260.928
L239.904 260.627
L241.239 259.2
L241.615 257.472
L241.388 255.744
L239.915 254.016
L239.904 254.007
L238.176 253.157
L236.448 253.28
L235.282 254.016
L234.72 254.389
L233.675 255.744
L233.335 257.472
L233.802 259.2
L234.72 260.29
L235.807 260.928
L236.448 261.301" style="fill:none;stroke:#000000;"/>
    <path clip-path="url(#p23ab9b749c)" d="
M290.016 256.608
L289.449 255.744
L290.016 255.423
L290.439 255.744
L290.016 256.608" style="fill:none;stroke:#000000;"/>
    <path clip-path="url(#p23ab9b749c)" d="
M217.44 221.211
L217.508 221.184
L219.168 220.651
L220.316 219.456
L220.747 217.728
L220.355 216
L219.168 214.747
L217.711 214.272
L217.44 214.165
L216.949 214.272
L215.712 214.402
L213.985 216
L213.984 216.005
L213.388 217.728
L213.984 219.29
L214.027 219.456
L215.712 221.021
L217.313 221.184
L217.44 221.211" style="fill:none;stroke:#000000;"/>
    <path clip-path="url(#p23ab9b749c)" d="
M409.248 215.129
L410.976 215.068
L411.778 214.272
L411.676 212.544
L410.976 211.829
L409.248 211.762
L408.463 212.544
L408.365 214.272
L409.248 215.129" style="fill:none;stroke:#000000;"/>
    <path clip-path="url(#p23ab9b749c)" d="
M409.248 207.935
L410.119 207.36
L410.775 205.632
L409.248 204.135
L407.52 205.09
L407.064 205.632
L407.52 206.854
L407.831 207.36
L409.248 207.935" style="fill:none;stroke:#000000;"/>
    <path clip-path="url(#p23ab9b749c)" d="
M405.792 196.047
L406.936 195.264
L407.516 193.536
L405.792 191.909
L404.075 193.536
L404.685 195.264
L405.792 196.047" style="fill:none;stroke:#000000;"/>
    <path clip-path="url(#p23ab9b749c)" d="
M222.624 179.845
L224.352 179.867
L224.63 179.712
L226.08 178.785
L226.726 177.984
L227.095 176.256
L226.24 174.528
L226.08 174.357
L224.352 173.146
L222.624 173.152
L220.896 174.453
L220.829 174.528
L219.946 176.256
L220.33 177.984
L220.896 178.715
L222.406 179.712
L222.624 179.845" style="fill:none;stroke:#000000;"/>
    <path clip-path="url(#p23ab9b749c)" d="
M398.88 180.54
L400.608 179.726
L400.622 179.712
L401.458 177.984
L400.608 176.932
L398.88 176.332
L397.232 177.984
L397.858 179.712
L398.88 180.54" style="fill:none;stroke:#000000;"/>
    <path clip-path="url(#p23ab9b749c)" d="
M386.784 161.636
L388.512 162.163
L390.118 160.704
L390.157 158.976
L388.512 157.437
L386.784 157.908
L385.829 158.976
L385.922 160.704
L386.784 161.636" style="fill:none;stroke:#000000;"/>
    <path clip-path="url(#p23ab9b749c)" d="
M245.088 148.775
L245.386 148.608
L246.816 147.684
L247.403 146.88
L247.568 145.152
L246.816 144.046
L246.157 143.424
L245.088 142.755
L243.36 143.008
L242.82 143.424
L241.643 145.152
L241.712 146.88
L243.36 148.567
L244.028 148.608
L245.088 148.775" style="fill:none;stroke:#000000;"/>
    <path clip-path="url(#p23ab9b749c)" d="
M369.504 143.485
L369.605 143.424
L371.232 141.933
L371.379 141.696
L371.232 141.399
L370.369 139.968
L369.504 139.396
L368.52 139.968
L367.776 140.806
L367.294 141.696
L367.776 142.417
L369.388 143.424
L369.504 143.485" style="fill:none;stroke:#000000;"/>
    <path clip-path="url(#p23ab9b749c)" d="
M343.584 129.484
L345.312 129.312
L346.616 127.872
L346.309 126.144
L345.312 125.159
L343.584 124.907
L342.211 126.144
L341.985 127.872
L343.584 129.484" style="fill:none;stroke:#000000;"/>
    <path clip-path="url(#p23ab9b749c)" d="
M274.464 127.337
L276.192 127.534
L277.847 126.144
L277.92 125.836
L278.403 124.416
L277.92 123.563
L277.342 122.688
L276.192 121.864
L274.464 122.131
L273.785 122.688
L272.829 124.416
L273.201 126.144
L274.464 127.337" style="fill:none;stroke:#000000;"/>
    <path clip-path="url(#p23ab9b749c)" d="
M310.752 120.977
L312.48 122.042
L314.123 120.96
L314.208 120.822
L314.99 119.232
L314.208 118.024
L313.538 117.504
L312.48 116.917
L311.386 117.504
L310.752 117.94
L309.896 119.232
L310.736 120.96
L310.752 120.977" style="fill:none;stroke:#000000;"/>
   </g>
   <g id="LineCollection_4">
    <path clip-path="url(#p23ab9b749c)" d="
M274.464 276.132
L276.192 275.153
L276.561 274.752
L276.515 273.024
L276.192 272.643
L274.464 271.697
L272.996 273.024
L272.94 274.752
L274.464 276.132" style="fill:none;stroke:#000000;"/>
    <path clip-path="url(#p23ab9b749c)" d="
M309.024 270.721
L310.752 270.897
L312.319 269.568
L312.48 268.79
L312.829 267.84
L312.48 267.122
L311.884 266.112
L310.752 265.213
L309.024 265.356
L308.13 266.112
L307.343 267.84
L307.721 269.568
L309.024 270.721" style="fill:none;stroke:#000000;"/>
    <path clip-path="url(#p23ab9b749c)" d="
M236.448 258.407
L238.176 258.457
L239.013 257.472
L238.176 256.464
L236.448 256.514
L235.672 257.472
L236.448 258.407" style="fill:none;stroke:#000000;"/>
    <path clip-path="url(#p23ab9b749c)" d="
M334.944 245.675
L336.672 245.692
L337.149 245.376
L338.4 244.392
L338.947 243.648
L339.098 241.92
L338.4 240.759
L337.881 240.192
L336.672 239.264
L334.944 239.203
L333.404 240.192
L333.216 240.426
L332.317 241.92
L332.564 243.648
L333.216 244.425
L334.407 245.376
L334.944 245.675" style="fill:none;stroke:#000000;"/>
    <path clip-path="url(#p23ab9b749c)" d="
M288.288 240.28
L290.016 240.557
L291.744 240.805
L295.2 241.018
L296.928 240.986
L298.656 240.834
L303.84 239.688
L305.568 239.016
L307.296 238.163
L309.205 236.736
L310.752 235.902
L312.48 234.422
L314.208 232.61
L316.36 229.824
L317.664 227.814
L319.339 224.64
L319.392 224.49
L320.066 222.912
L320.518 221.184
L322.045 217.728
L323.114 214.272
L323.668 212.544
L323.931 210.816
L323.427 209.088
L322.848 208.494
L322.293 207.36
L320.039 203.904
L319.237 200.448
L319.392 198.073
L319.561 196.992
L320.386 193.536
L320.655 191.808
L320.659 190.08
L320.317 188.352
L319.386 186.624
L317.664 184.698
L315.936 183.637
L314.208 183.251
L312.48 183.208
L310.752 183.459
L309.024 184.075
L307.296 185.029
L304.503 186.624
L303.84 187.025
L302.112 187.473
L300.384 187.161
L295.2 183.897
L293.451 183.168
L291.744 182.632
L290.016 182.426
L288.288 182.623
L286.56 183.219
L284.832 184.1
L283.104 185.54
L282.057 186.624
L279.648 190.403
L277.566 193.536
L276.192 195.343
L272.736 197.901
L270.284 200.448
L269.164 202.176
L268.3 203.904
L267.838 205.632
L267.639 207.36
L267.625 209.088
L267.772 210.816
L268.421 212.544
L268.539 214.272
L269.63 221.184
L269.914 222.912
L270.351 224.64
L271.257 226.368
L271.73 228.096
L272.798 229.824
L274.464 232.05
L276.192 233.845
L277.92 235.301
L279.95 236.736
L281.376 237.658
L284.832 239.301
L286.56 239.872
L288.288 240.28
L288.288 240.28" style="fill:none;stroke:#000000;"/>
    <path clip-path="url(#p23ab9b749c)" d="
M217.44 219.051
L218.688 217.728
L217.44 216.396
L215.871 217.728
L217.44 219.051" style="fill:none;stroke:#000000;"/>
    <path clip-path="url(#p23ab9b749c)" d="
M329.76 212.715
L331.488 213.454
L333.216 213.655
L334.944 213.394
L336.429 212.544
L336.672 212.445
L338.191 210.816
L338.4 210.269
L338.908 209.088
L338.888 207.36
L338.4 206.316
L338.127 205.632
L336.672 204.145
L336.02 203.904
L334.944 203.342
L333.216 203.208
L331.488 203.703
L331.079 203.904
L329.76 204.762
L328.774 205.632
L328.032 206.921
L327.518 207.36
L326.849 209.088
L327.338 210.816
L328.032 211.282
L329.344 212.544
L329.76 212.715" style="fill:none;stroke:#000000;"/>
    <path clip-path="url(#p23ab9b749c)" d="
M405.792 194.052
L406.247 193.536
L405.792 193.107
L405.339 193.536
L405.792 194.052" style="fill:none;stroke:#000000;"/>
    <path clip-path="url(#p23ab9b749c)" d="
M398.88 178.216
L399.113 177.984
L398.88 177.794
L398.69 177.984
L398.88 178.216" style="fill:none;stroke:#000000;"/>
    <path clip-path="url(#p23ab9b749c)" d="
M222.624 176.969
L224.352 176.48
L224.502 176.256
L224.352 176.088
L222.624 175.696
L222.112 176.256
L222.624 176.969" style="fill:none;stroke:#000000;"/>
    <path clip-path="url(#p23ab9b749c)" d="
M245.088 145.362
L245.189 145.152
L245.088 145.052
L244.878 145.152
L245.088 145.362" style="fill:none;stroke:#000000;"/>
    <path clip-path="url(#p23ab9b749c)" d="
M369.504 143.047
L370.858 141.696
L369.504 140.319
L368.133 141.696
L369.504 143.047" style="fill:none;stroke:#000000;"/>
    <path clip-path="url(#p23ab9b749c)" d="
M276.192 125.151
L276.802 124.416
L276.192 123.777
L275.249 124.416
L276.192 125.151" style="fill:none;stroke:#000000;"/>
    <path clip-path="url(#p23ab9b749c)" d="
M312.48 120.686
L313.909 119.232
L312.48 117.815
L311.045 119.232
L312.48 120.686" style="fill:none;stroke:#000000;"/>
   </g>
   <g id="LineCollection_5">
    <path clip-path="url(#p23ab9b749c)" d="
M310.752 268.229
L311.037 267.84
L310.752 267.535
L310.221 267.84
L310.752 268.229" style="fill:none;stroke:#000000;"/>
    <path clip-path="url(#p23ab9b749c)" d="
M293.472 233.499
L295.2 233.498
L296.431 233.28
L296.928 233.22
L298.656 232.779
L300.384 232.03
L301.236 231.552
L302.112 231.105
L303.84 229.91
L303.948 229.824
L305.568 228.564
L306.069 228.096
L307.296 226.809
L307.679 226.368
L308.878 224.64
L309.024 224.347
L309.853 222.912
L310.479 221.184
L310.752 219.881
L310.875 219.456
L311.143 217.728
L311.234 216
L311.13 214.272
L310.799 212.544
L310.752 212.382
L310.409 210.816
L309.755 209.088
L309.024 207.783
L308.794 207.36
L307.529 205.632
L307.296 205.355
L305.799 203.904
L305.568 203.698
L303.84 202.455
L303.307 202.176
L302.112 201.493
L300.384 200.783
L299.217 200.448
L298.656 200.242
L296.928 199.771
L295.2 199.48
L293.472 199.378
L291.744 199.54
L290.016 200.142
L289.531 200.448
L288.288 201.047
L286.751 202.176
L286.56 202.297
L284.832 203.554
L284.311 203.904
L283.104 204.667
L281.376 205.279
L279.648 204.662
L278.798 203.904
L277.92 203.433
L276.192 202.863
L274.464 203.367
L273.85 203.904
L272.759 205.632
L272.736 207.004
L272.716 207.36
L272.736 207.408
L273.44 209.088
L274.464 210.3
L275.477 210.816
L276.192 211.428
L277.546 212.544
L277.92 213.35
L278.267 214.272
L278.29 216
L277.949 217.728
L277.92 217.791
L277.205 219.456
L276.626 221.184
L276.406 222.912
L276.596 224.64
L277.577 226.368
L277.92 226.761
L279.648 228.026
L279.952 228.096
L281.376 228.731
L283.104 229.158
L284.556 229.824
L284.832 229.978
L286.56 231.054
L287.459 231.552
L288.288 232.015
L290.016 232.784
L291.744 233.222
L292.24 233.28
L293.472 233.499" style="fill:none;stroke:#000000;"/>
    <path clip-path="url(#p23ab9b749c)" d="
M334.944 210.062
L336.011 209.088
L336.216 207.36
L334.944 206.169
L333.323 207.36
L333.47 209.088
L334.944 210.062" style="fill:none;stroke:#000000;"/>
    <path clip-path="url(#p23ab9b749c)" d="
M288.288 192.996
L290.016 193.298
L291.744 192.214
L292.001 191.808
L292.804 190.08
L292.461 188.352
L291.744 187.565
L290.016 186.66
L288.288 186.892
L286.82 188.352
L286.613 190.08
L287.228 191.808
L288.288 192.996" style="fill:none;stroke:#000000;"/>
    <path clip-path="url(#p23ab9b749c)" d="
M312.48 191.396
L314.208 191.803
L315.936 190.767
L316.401 190.08
L316.226 188.352
L315.936 188.013
L314.208 186.789
L312.48 187.521
L311.656 188.352
L311.449 190.08
L312.48 191.396" style="fill:none;stroke:#000000;"/>
    <path clip-path="url(#p23ab9b749c)" d="
M369.504 141.844
L369.652 141.696
L369.504 141.545
L369.354 141.696
L369.504 141.844" style="fill:none;stroke:#000000;"/>
    <path clip-path="url(#p23ab9b749c)" d="
M312.48 119.582
L312.824 119.232
L312.48 118.891
L312.135 119.232
L312.48 119.582" style="fill:none;stroke:#000000;"/>
   </g>
   <g id="LineCollection_6">
    <path clip-path="url(#p23ab9b749c)" d="
M291.744 228.811
L293.472 229.664
L295.2 229.63
L296.928 228.501
L297.459 228.096
L298.656 227.102
L300.042 226.368
L300.384 226.272
L302.112 225.341
L302.911 224.64
L303.84 223.589
L304.381 222.912
L305.233 221.184
L305.568 219.817
L305.708 219.456
L306.135 217.728
L306.217 216
L305.938 214.272
L305.568 213.316
L305.36 212.544
L304.459 210.816
L303.84 210.043
L303.045 209.088
L302.112 208.225
L300.774 207.36
L300.384 207.09
L298.656 206.273
L296.928 205.952
L295.2 205.918
L293.472 206.158
L291.744 206.818
L290.863 207.36
L290.016 207.783
L288.464 209.088
L288.288 209.268
L286.925 210.816
L286.56 211.579
L286 212.544
L285.493 214.272
L285.353 216
L285.421 217.728
L285.713 219.456
L286.372 221.184
L286.56 221.512
L287.186 222.912
L288.288 224.479
L288.387 224.64
L289.553 226.368
L290.016 226.876
L290.878 228.096
L291.744 228.811" style="fill:none;stroke:#000000;"/>
    <path clip-path="url(#p23ab9b749c)" d="
M279.648 224.799
L281.376 225.535
L282.395 224.64
L282.436 222.912
L281.376 221.932
L279.648 222.701
L279.48 222.912
L279.5 224.64
L279.648 224.799" style="fill:none;stroke:#000000;"/>
    <path clip-path="url(#p23ab9b749c)" d="
M276.192 207.287
L276.839 205.632
L276.192 205.049
L275.281 205.632
L276.192 207.287" style="fill:none;stroke:#000000;"/>
   </g>
   <g id="LineCollection_7">
    <path clip-path="url(#p23ab9b749c)" d="
M293.472 227.035
L295.2 226.834
L295.536 226.368
L295.2 225.675
L293.472 225.428
L292.937 226.368
L293.472 227.035" style="fill:none;stroke:#000000;"/>
    <path clip-path="url(#p23ab9b749c)" d="
M293.472 223.025
L295.2 223.617
L296.928 223.606
L298.656 223.788
L300.384 223.315
L300.863 222.912
L302.091 221.184
L302.112 220.744
L302.485 219.456
L303.237 217.728
L303.449 216
L302.865 214.272
L302.112 213.12
L301.826 212.544
L300.491 210.816
L300.384 210.712
L298.656 209.371
L296.928 209.153
L295.2 209.199
L293.472 209.385
L291.744 210.235
L291.074 210.816
L290.016 212.229
L289.772 212.544
L288.962 214.272
L288.769 216
L289.066 217.728
L290.015 219.456
L290.016 219.458
L291.1 221.184
L291.744 221.906
L293.381 222.912
L293.472 223.025" style="fill:none;stroke:#000000;"/>
   </g>
   <g id="LineCollection_8">
    <path clip-path="url(#p23ab9b749c)" d="
M298.656 221.595
L300.384 221.783
L300.949 221.184
L300.384 220.294
L299.412 219.456
L300.384 218.559
L301.027 217.728
L301.981 216
L300.384 214.335
L300.019 214.272
L299.961 212.544
L298.656 211.17
L296.928 211.008
L295.2 211.379
L293.472 210.985
L291.832 212.544
L291.744 213.204
L291.123 214.272
L290.405 216
L291.161 217.728
L291.744 218.475
L292.83 219.456
L293.472 220.009
L295.2 220.612
L296.928 220.6
L297.961 221.184
L298.656 221.595" style="fill:none;stroke:#000000;"/>
   </g>
   <g id="LineCollection_9">
    <path clip-path="url(#p23ab9b749c)" d="
M293.472 218.005
L295.2 219.284
L296.928 218.246
L297.546 217.728
L298.401 216
L297.273 214.272
L296.928 213.497
L295.2 213.308
L294.26 212.544
L293.472 211.966
L292.863 212.544
L293.269 214.272
L291.96 216
L293.187 217.728
L293.472 218.005" style="fill:none;stroke:#000000;"/>
    <path clip-path="url(#p23ab9b749c)" d="
M300.384 216.99
L301.241 216
L300.384 215.106
L299.076 216
L300.384 216.99" style="fill:none;stroke:#000000;"/>
   </g>
   <g id="LineCollection_10">
    <path clip-path="url(#p23ab9b749c)" d="
M295.2 218.462
L296.062 217.728
L296.928 216
L295.2 214.272
L293.472 216
L294.361 217.728
L295.2 218.462" style="fill:none;stroke:#000000;"/>
   </g>
   <g id="LineCollection_11">
    <path clip-path="url(#p23ab9b749c)" d="
M295.2 217.728
L296.928 216
L295.2 214.272
L293.472 216
L295.2 217.728" style="fill:none;stroke:#000000;"/>
   </g>
   <g id="LineCollection_12">
    <path clip-path="url(#p23ab9b749c)" d="
M295.2 217.728
L296.928 216
L295.2 214.272
L293.472 216
L295.2 217.728" style="fill:none;stroke:#000000;"/>
   </g>
   <g id="LineCollection_13">
    <path clip-path="url(#p23ab9b749c)" d="
M295.2 217.728
L296.928 216
L295.2 214.272
L293.472 216
L295.2 217.728" style="fill:none;stroke:#000000;"/>
   </g>
   <g id="LineCollection_14">
    <path clip-path="url(#p23ab9b749c)" d="
M295.2 217.728
L296.928 216
L295.2 214.272
L293.472 216
L295.2 217.728" style="fill:none;stroke:#000000;"/>
   </g>
   <g id="LineCollection_15">
    <path clip-path="url(#p23ab9b749c)" d="
M295.2 217.728
L296.928 216
L295.2 214.272
L293.472 216
L295.2 217.728" style="fill:none;stroke:#000000;"/>
   </g>
   <g id="LineCollection_16">
    <path clip-path="url(#p23ab9b749c)" d="
M295.2 217.728
L296.928 216
L295.2 214.272
L293.472 216
L295.2 217.728" style="fill:none;stroke:#000000;"/>
   </g>
   <g id="LineCollection_17">
    <path clip-path="url(#p23ab9b749c)" d="
M295.2 217.728
L296.928 216
L295.2 214.272
L293.472 216
L295.2 217.728" style="fill:none;stroke:#000000;"/>
   </g>
   <g id="LineCollection_18">
    <path clip-path="url(#p23ab9b749c)" d="
M295.2 217.728
L296.928 216
L295.2 214.272
L293.472 216
L295.2 217.728" style="fill:none;stroke:#000000;"/>
   </g>
   <g id="LineCollection_19">
    <path clip-path="url(#p23ab9b749c)" d="
M295.2 217.728
L296.928 216
L295.2 214.272
L293.472 216
L295.2 217.728" style="fill:none;stroke:#000000;"/>
   </g>
   <g id="patch_4">
    <path d="
M122.4 43.2
L468 43.2
L468 43.2" style="fill:none;stroke:#000000;stroke-linecap:square;stroke-linejoin:miter;"/>
   </g>
   <g id="patch_5">
    <path d="
M468 388.8
L468 43.2
L468 43.2" style="fill:none;stroke:#000000;stroke-linecap:square;stroke-linejoin:miter;"/>
   </g>
   <g id="patch_6">
    <path d="
M122.4 388.8
L468 388.8
L468 388.8" style="fill:none;stroke:#000000;stroke-linecap:square;stroke-linejoin:miter;"/>
   </g>
   <g id="patch_7">
    <path d="
M122.4 388.8
L122.4 43.2
L122.4 43.2" style="fill:none;stroke:#000000;stroke-linecap:square;stroke-linejoin:miter;"/>
   </g>
   <g id="matplotlib.axis_1">
    <g id="xtick_1">
     <g id="line2d_1">
      <defs>
       <path d="
M0 0
L0 -4" id="mb1445623b5" style="stroke:#000000;stroke-width:0.5;"/>
      </defs>
      <g>
       <use style="stroke:#000000;stroke-width:0.5;" x="122.4" xlink:href="#mb1445623b5" y="388.8"/>
      </g>
     </g>
     <g id="line2d_2">
      <defs>
       <path d="
M0 0
L0 4" id="m3a68111ca7" style="stroke:#000000;stroke-width:0.5;"/>
      </defs>
      <g>
       <use style="stroke:#000000;stroke-width:0.5;" x="122.4" xlink:href="#m3a68111ca7" y="43.2"/>
      </g>
     </g>
     <g id="text_1">
      <!-- −1.5 -->
      <defs>
       <path d="
M10.5938 35.5
L73.1875 35.5
L73.1875 27.2031
L10.5938 27.2031
z
" id="BitstreamVeraSans-Roman-2212"/>
       <path d="
M12.4062 8.29688
L28.5156 8.29688
L28.5156 63.9219
L10.9844 60.4062
L10.9844 69.3906
L28.4219 72.9062
L38.2812 72.9062
L38.2812 8.29688
L54.3906 8.29688
L54.3906 0
L12.4062 0
z
" id="BitstreamVeraSans-Roman-31"/>
       <path d="
M10.6875 12.4062
L21 12.4062
L21 0
L10.6875 0
z
" id="BitstreamVeraSans-Roman-2e"/>
       <path d="
M10.7969 72.9062
L49.5156 72.9062
L49.5156 64.5938
L19.8281 64.5938
L19.8281 46.7344
Q21.9688 47.4688 24.1094 47.8281
Q26.2656 48.1875 28.4219 48.1875
Q40.625 48.1875 47.75 41.5
Q54.8906 34.8125 54.8906 23.3906
Q54.8906 11.625 47.5625 5.09375
Q40.2344 -1.42188 26.9062 -1.42188
Q22.3125 -1.42188 17.5469 -0.640625
Q12.7969 0.140625 7.71875 1.70312
L7.71875 11.625
Q12.1094 9.23438 16.7969 8.0625
Q21.4844 6.89062 26.7031 6.89062
Q35.1562 6.89062 40.0781 11.3281
Q45.0156 15.7656 45.0156 23.3906
Q45.0156 31 40.0781 35.4375
Q35.1562 39.8906 26.7031 39.8906
Q22.75 39.8906 18.8125 39.0156
Q14.8906 38.1406 10.7969 36.2812
z
" id="BitstreamVeraSans-Roman-35"/>
      </defs>
      <g transform="translate(108.99 401.918125)scale(0.12 -0.12)">
       <use xlink:href="#BitstreamVeraSans-Roman-2212"/>
       <use x="83.7890625" xlink:href="#BitstreamVeraSans-Roman-31"/>
       <use x="147.412109375" xlink:href="#BitstreamVeraSans-Roman-2e"/>
       <use x="179.19921875" xlink:href="#BitstreamVeraSans-Roman-35"/>
      </g>
     </g>
    </g>
    <g id="xtick_2">
     <g id="line2d_3">
      <g>
       <use style="stroke:#000000;stroke-width:0.5;" x="180.0" xlink:href="#mb1445623b5" y="388.8"/>
      </g>
     </g>
     <g id="line2d_4">
      <g>
       <use style="stroke:#000000;stroke-width:0.5;" x="180.0" xlink:href="#m3a68111ca7" y="43.2"/>
      </g>
     </g>
     <g id="text_2">
      <!-- −1.0 -->
      <defs>
       <path d="
M31.7812 66.4062
Q24.1719 66.4062 20.3281 58.9062
Q16.5 51.4219 16.5 36.375
Q16.5 21.3906 20.3281 13.8906
Q24.1719 6.39062 31.7812 6.39062
Q39.4531 6.39062 43.2812 13.8906
Q47.125 21.3906 47.125 36.375
Q47.125 51.4219 43.2812 58.9062
Q39.4531 66.4062 31.7812 66.4062
M31.7812 74.2188
Q44.0469 74.2188 50.5156 64.5156
Q56.9844 54.8281 56.9844 36.375
Q56.9844 17.9688 50.5156 8.26562
Q44.0469 -1.42188 31.7812 -1.42188
Q19.5312 -1.42188 13.0625 8.26562
Q6.59375 17.9688 6.59375 36.375
Q6.59375 54.8281 13.0625 64.5156
Q19.5312 74.2188 31.7812 74.2188" id="BitstreamVeraSans-Roman-30"/>
      </defs>
      <g transform="translate(166.464375 401.918125)scale(0.12 -0.12)">
       <use xlink:href="#BitstreamVeraSans-Roman-2212"/>
       <use x="83.7890625" xlink:href="#BitstreamVeraSans-Roman-31"/>
       <use x="147.412109375" xlink:href="#BitstreamVeraSans-Roman-2e"/>
       <use x="179.19921875" xlink:href="#BitstreamVeraSans-Roman-30"/>
      </g>
     </g>
    </g>
    <g id="xtick_3">
     <g id="line2d_5">
      <g>
       <use style="stroke:#000000;stroke-width:0.5;" x="237.6" xlink:href="#mb1445623b5" y="388.8"/>
      </g>
     </g>
     <g id="line2d_6">
      <g>
       <use style="stroke:#000000;stroke-width:0.5;" x="237.6" xlink:href="#m3a68111ca7" y="43.2"/>
      </g>
     </g>
     <g id="text_3">
      <!-- −0.5 -->
      <g transform="translate(224.19 401.918125)scale(0.12 -0.12)">
       <use xlink:href="#BitstreamVeraSans-Roman-2212"/>
       <use x="83.7890625" xlink:href="#BitstreamVeraSans-Roman-30"/>
       <use x="147.412109375" xlink:href="#BitstreamVeraSans-Roman-2e"/>
       <use x="179.19921875" xlink:href="#BitstreamVeraSans-Roman-35"/>
      </g>
     </g>
    </g>
    <g id="xtick_4">
     <g id="line2d_7">
      <g>
       <use style="stroke:#000000;stroke-width:0.5;" x="295.2" xlink:href="#mb1445623b5" y="388.8"/>
      </g>
     </g>
     <g id="line2d_8">
      <g>
       <use style="stroke:#000000;stroke-width:0.5;" x="295.2" xlink:href="#m3a68111ca7" y="43.2"/>
      </g>
     </g>
     <g id="text_4">
      <!-- 0.0 -->
      <g transform="translate(286.4521875 401.918125)scale(0.12 -0.12)">
       <use xlink:href="#BitstreamVeraSans-Roman-30"/>
       <use x="63.623046875" xlink:href="#BitstreamVeraSans-Roman-2e"/>
       <use x="95.41015625" xlink:href="#BitstreamVeraSans-Roman-30"/>
      </g>
     </g>
    </g>
    <g id="xtick_5">
     <g id="line2d_9">
      <g>
       <use style="stroke:#000000;stroke-width:0.5;" x="352.8" xlink:href="#mb1445623b5" y="388.8"/>
      </g>
     </g>
     <g id="line2d_10">
      <g>
       <use style="stroke:#000000;stroke-width:0.5;" x="352.8" xlink:href="#m3a68111ca7" y="43.2"/>
      </g>
     </g>
     <g id="text_5">
      <!-- 0.5 -->
      <g transform="translate(344.1778125 401.918125)scale(0.12 -0.12)">
       <use xlink:href="#BitstreamVeraSans-Roman-30"/>
       <use x="63.623046875" xlink:href="#BitstreamVeraSans-Roman-2e"/>
       <use x="95.41015625" xlink:href="#BitstreamVeraSans-Roman-35"/>
      </g>
     </g>
    </g>
    <g id="xtick_6">
     <g id="line2d_11">
      <g>
       <use style="stroke:#000000;stroke-width:0.5;" x="410.4" xlink:href="#mb1445623b5" y="388.8"/>
      </g>
     </g>
     <g id="line2d_12">
      <g>
       <use style="stroke:#000000;stroke-width:0.5;" x="410.4" xlink:href="#m3a68111ca7" y="43.2"/>
      </g>
     </g>
     <g id="text_6">
      <!-- 1.0 -->
      <g transform="translate(401.915625 401.918125)scale(0.12 -0.12)">
       <use xlink:href="#BitstreamVeraSans-Roman-31"/>
       <use x="63.623046875" xlink:href="#BitstreamVeraSans-Roman-2e"/>
       <use x="95.41015625" xlink:href="#BitstreamVeraSans-Roman-30"/>
      </g>
     </g>
    </g>
    <g id="xtick_7">
     <g id="line2d_13">
      <g>
       <use style="stroke:#000000;stroke-width:0.5;" x="468.0" xlink:href="#mb1445623b5" y="388.8"/>
      </g>
     </g>
     <g id="line2d_14">
      <g>
       <use style="stroke:#000000;stroke-width:0.5;" x="468.0" xlink:href="#m3a68111ca7" y="43.2"/>
      </g>
     </g>
     <g id="text_7">
      <!-- 1.5 -->
      <g transform="translate(459.64125 401.918125)scale(0.12 -0.12)">
       <use xlink:href="#BitstreamVeraSans-Roman-31"/>
       <use x="63.623046875" xlink:href="#BitstreamVeraSans-Roman-2e"/>
       <use x="95.41015625" xlink:href="#BitstreamVeraSans-Roman-35"/>
      </g>
     </g>
    </g>
   </g>
   <g id="matplotlib.axis_2">
    <g id="ytick_1">
     <g id="line2d_15">
      <defs>
       <path d="
M0 0
L4 0" id="m71e820122c" style="stroke:#000000;stroke-width:0.5;"/>
      </defs>
      <g>
       <use style="stroke:#000000;stroke-width:0.5;" x="122.4" xlink:href="#m71e820122c" y="388.8"/>
      </g>
     </g>
     <g id="line2d_16">
      <defs>
       <path d="
M0 0
L-4 0" id="m81ec2b1422" style="stroke:#000000;stroke-width:0.5;"/>
      </defs>
      <g>
       <use style="stroke:#000000;stroke-width:0.5;" x="468.0" xlink:href="#m81ec2b1422" y="388.8"/>
      </g>
     </g>
     <g id="text_8">
      <!-- −1.5 -->
      <g transform="translate(91.58 392.11125)scale(0.12 -0.12)">
       <use xlink:href="#BitstreamVeraSans-Roman-2212"/>
       <use x="83.7890625" xlink:href="#BitstreamVeraSans-Roman-31"/>
       <use x="147.412109375" xlink:href="#BitstreamVeraSans-Roman-2e"/>
       <use x="179.19921875" xlink:href="#BitstreamVeraSans-Roman-35"/>
      </g>
     </g>
    </g>
    <g id="ytick_2">
     <g id="line2d_17">
      <g>
       <use style="stroke:#000000;stroke-width:0.5;" x="122.4" xlink:href="#m71e820122c" y="331.2"/>
      </g>
     </g>
     <g id="line2d_18">
      <g>
       <use style="stroke:#000000;stroke-width:0.5;" x="468.0" xlink:href="#m81ec2b1422" y="331.2"/>
      </g>
     </g>
     <g id="text_9">
      <!-- −1.0 -->
      <g transform="translate(91.32875 334.51125)scale(0.12 -0.12)">
       <use xlink:href="#BitstreamVeraSans-Roman-2212"/>
       <use x="83.7890625" xlink:href="#BitstreamVeraSans-Roman-31"/>
       <use x="147.412109375" xlink:href="#BitstreamVeraSans-Roman-2e"/>
       <use x="179.19921875" xlink:href="#BitstreamVeraSans-Roman-30"/>
      </g>
     </g>
    </g>
    <g id="ytick_3">
     <g id="line2d_19">
      <g>
       <use style="stroke:#000000;stroke-width:0.5;" x="122.4" xlink:href="#m71e820122c" y="273.6"/>
      </g>
     </g>
     <g id="line2d_20">
      <g>
       <use style="stroke:#000000;stroke-width:0.5;" x="468.0" xlink:href="#m81ec2b1422" y="273.6"/>
      </g>
     </g>
     <g id="text_10">
      <!-- −0.5 -->
      <g transform="translate(91.58 276.91125)scale(0.12 -0.12)">
       <use xlink:href="#BitstreamVeraSans-Roman-2212"/>
       <use x="83.7890625" xlink:href="#BitstreamVeraSans-Roman-30"/>
       <use x="147.412109375" xlink:href="#BitstreamVeraSans-Roman-2e"/>
       <use x="179.19921875" xlink:href="#BitstreamVeraSans-Roman-35"/>
      </g>
     </g>
    </g>
    <g id="ytick_4">
     <g id="line2d_21">
      <g>
       <use style="stroke:#000000;stroke-width:0.5;" x="122.4" xlink:href="#m71e820122c" y="216.0"/>
      </g>
     </g>
     <g id="line2d_22">
      <g>
       <use style="stroke:#000000;stroke-width:0.5;" x="468.0" xlink:href="#m81ec2b1422" y="216.0"/>
      </g>
     </g>
     <g id="text_11">
      <!-- 0.0 -->
      <g transform="translate(100.904375 219.31125)scale(0.12 -0.12)">
       <use xlink:href="#BitstreamVeraSans-Roman-30"/>
       <use x="63.623046875" xlink:href="#BitstreamVeraSans-Roman-2e"/>
       <use x="95.41015625" xlink:href="#BitstreamVeraSans-Roman-30"/>
      </g>
     </g>
    </g>
    <g id="ytick_5">
     <g id="line2d_23">
      <g>
       <use style="stroke:#000000;stroke-width:0.5;" x="122.4" xlink:href="#m71e820122c" y="158.4"/>
      </g>
     </g>
     <g id="line2d_24">
      <g>
       <use style="stroke:#000000;stroke-width:0.5;" x="468.0" xlink:href="#m81ec2b1422" y="158.4"/>
      </g>
     </g>
     <g id="text_12">
      <!-- 0.5 -->
      <g transform="translate(101.155625 161.71125)scale(0.12 -0.12)">
       <use xlink:href="#BitstreamVeraSans-Roman-30"/>
       <use x="63.623046875" xlink:href="#BitstreamVeraSans-Roman-2e"/>
       <use x="95.41015625" xlink:href="#BitstreamVeraSans-Roman-35"/>
      </g>
     </g>
    </g>
    <g id="ytick_6">
     <g id="line2d_25">
      <g>
       <use style="stroke:#000000;stroke-width:0.5;" x="122.4" xlink:href="#m71e820122c" y="100.8"/>
      </g>
     </g>
     <g id="line2d_26">
      <g>
       <use style="stroke:#000000;stroke-width:0.5;" x="468.0" xlink:href="#m81ec2b1422" y="100.8"/>
      </g>
     </g>
     <g id="text_13">
      <!-- 1.0 -->
      <g transform="translate(101.43125 104.11125)scale(0.12 -0.12)">
       <use xlink:href="#BitstreamVeraSans-Roman-31"/>
       <use x="63.623046875" xlink:href="#BitstreamVeraSans-Roman-2e"/>
       <use x="95.41015625" xlink:href="#BitstreamVeraSans-Roman-30"/>
      </g>
     </g>
    </g>
    <g id="ytick_7">
     <g id="line2d_27">
      <g>
       <use style="stroke:#000000;stroke-width:0.5;" x="122.4" xlink:href="#m71e820122c" y="43.2"/>
      </g>
     </g>
     <g id="line2d_28">
      <g>
       <use style="stroke:#000000;stroke-width:0.5;" x="468.0" xlink:href="#m81ec2b1422" y="43.2"/>
      </g>
     </g>
     <g id="text_14">
      <!-- 1.5 -->
      <g transform="translate(101.6825 46.51125)scale(0.12 -0.12)">
       <use xlink:href="#BitstreamVeraSans-Roman-31"/>
       <use x="63.623046875" xlink:href="#BitstreamVeraSans-Roman-2e"/>
       <use x="95.41015625" xlink:href="#BitstreamVeraSans-Roman-35"/>
      </g>
     </g>
    </g>
   </g>
  </g>
 </g>
 <defs>
  <clipPath id="p23ab9b749c">
   <rect height="345.6" width="345.6" x="122.4" y="43.2"/>
  </clipPath>
 </defs>
</svg>
