<?xml version="1.0" encoding="utf-8" standalone="no"?>
<!DOCTYPE svg PUBLIC "-//W3C//DTD SVG 1.1//EN"
  "http://www.w3.org/Graphics/SVG/1.1/DTD/svg11.dtd">
<!-- Created with matplotlib (http://matplotlib.org/) -->
<svg height="432pt" version="1.1" viewBox="0 0 576 432" width="576pt" xmlns="http://www.w3.org/2000/svg" xmlns:xlink="http://www.w3.org/1999/xlink">
 <defs>
  <style type="text/css">
*{stroke-linecap:butt;stroke-linejoin:round;}
  </style>
 </defs>
 <g id="figure_1">
  <g id="patch_1">
   <path d="
M0 432
L576 432
L576 0
L0 0
z
" style="fill:#ffffff;"/>
  </g>
  <g id="axes_1">
   <g id="patch_2">
    <path clip-path="url(#pf926360abe)" d="
M183.544 201.521
C202.629 201.521 220.935 193.938 234.43 180.443
C247.926 166.948 255.508 148.642 255.508 129.557
C255.508 110.472 247.926 92.1658 234.43 78.6706
C220.935 65.1754 202.629 57.5928 183.544 57.5928
C164.459 57.5928 146.153 65.1754 132.658 78.6706
C119.163 92.1658 111.58 110.472 111.58 129.557
C111.58 148.642 119.163 166.948 132.658 180.443
C146.153 193.938 164.459 201.521 183.544 201.521
L183.544 201.521" style="fill:none;stroke:#000000;stroke-dasharray:6.000000,6.000000;stroke-dashoffset:0.0;stroke-linejoin:miter;"/>
   </g>
   <g id="LineCollection_1">
    <path clip-path="url(#pf926360abe)" d="
M149.001 183.105
L166.273 191.481
L183.544 195.528
L200.816 192.759
L218.087 181.842
L218.66 181.371
L235.276 164.1
L235.358 163.918
L250.408 146.828
L252.63 146.487
L269.221 129.557
L268.508 112.285
L262.167 95.0141
L252.63 82.214
L249.602 77.7427
L235.358 63.9141
L224.881 60.4714
L218.087 56.4396
L200.816 52.9138
L183.544 53.9634
L166.273 53.0766
L155.898 60.4714
L149.001 67.2096
L138.497 77.7427
L131.73 81.0555
L118.225 95.0141
L115.782 112.285
L114.762 129.557
L118.642 146.828
L124.131 164.1
L131.73 172.672
L146.538 181.371
L149.001 183.105" style="fill:none;stroke:#000000;"/>
   </g>
   <g id="LineCollection_2">
    <path clip-path="url(#pf926360abe)" d="
M166.273 176.876
L183.544 176.219
L200.816 173.867
L211.447 164.1
L218.087 155.929
L226.103 146.828
L228.698 129.557
L224.17 112.285
L218.087 104.027
L206.744 95.0141
L200.816 90.4206
L183.544 84.2812
L166.273 86.3975
L159.77 95.0141
L149.001 102.593
L140.924 112.285
L131.73 115.822
L121.035 129.557
L131.73 141.662
L143.389 146.828
L149.001 158.309
L150.163 164.1
L166.273 176.876" style="fill:none;stroke:#000000;"/>
    <path clip-path="url(#pf926360abe)" d="
M252.63 131.456
L254.491 129.557
L252.63 113.52
L249.74 129.557
L252.63 131.456" style="fill:none;stroke:#000000;"/>
   </g>
   <g id="LineCollection_3">
    <path clip-path="url(#pf926360abe)" d="
M166.273 147.393
L183.544 160.965
L200.816 151.658
L205.169 146.828
L214.944 129.557
L211.784 112.285
L200.816 101.521
L183.544 96.9676
L166.273 109.027
L162.823 112.285
L153.353 129.557
L166.126 146.828
L166.273 147.393" style="fill:none;stroke:#000000;"/>
   </g>
   <g id="LineCollection_4">
    <path clip-path="url(#pf926360abe)" d="
M183.544 146.828
L200.816 129.557
L194.707 112.285
L183.544 104.903
L174.91 112.285
L166.273 129.557
L183.544 146.828" style="fill:none;stroke:#000000;"/>
   </g>
   <g id="LineCollection_5">
    <path clip-path="url(#pf926360abe)" d="
M183.544 146.828
L200.816 129.557
L183.544 112.285
L166.273 129.557
L183.544 146.828" style="fill:none;stroke:#000000;"/>
   </g>
   <g id="LineCollection_6">
    <path clip-path="url(#pf926360abe)" d="
M183.544 146.828
L200.816 129.557
L183.544 112.285
L166.273 129.557
L183.544 146.828" style="fill:none;stroke:#000000;"/>
   </g>
   <g id="LineCollection_7">
    <path clip-path="url(#pf926360abe)" d="
M183.544 146.828
L200.816 129.557
L183.544 112.285
L166.273 129.557
L183.544 146.828" style="fill:none;stroke:#000000;"/>
   </g>
   <g id="LineCollection_8">
    <path clip-path="url(#pf926360abe)" d="
M183.544 146.828
L200.816 129.557
L183.544 112.285
L166.273 129.557
L183.544 146.828" style="fill:none;stroke:#000000;"/>
   </g>
   <g id="LineCollection_9">
    <path clip-path="url(#pf926360abe)" d="
M183.544 146.828
L200.816 129.557
L183.544 112.285
L166.273 129.557
L183.544 146.828" style="fill:none;stroke:#000000;"/>
   </g>
   <g id="LineCollection_10">
    <path clip-path="url(#pf926360abe)" d="
M183.544 146.828
L200.816 129.557
L183.544 112.285
L166.273 129.557
L183.544 146.828" style="fill:none;stroke:#000000;"/>
   </g>
   <g id="LineCollection_11">
    <path clip-path="url(#pf926360abe)" d="
M183.544 146.828
L200.816 129.557
L183.544 112.285
L166.273 129.557
L183.544 146.828" style="fill:none;stroke:#000000;"/>
   </g>
   <g id="LineCollection_12">
    <path clip-path="url(#pf926360abe)" d="
M183.544 146.828
L200.816 129.557
L183.544 112.285
L166.273 129.557
L183.544 146.828" style="fill:none;stroke:#000000;"/>
   </g>
   <g id="LineCollection_13">
    <path clip-path="url(#pf926360abe)" d="
M183.544 146.828
L200.816 129.557
L183.544 112.285
L166.273 129.557
L183.544 146.828" style="fill:none;stroke:#000000;"/>
   </g>
   <g id="LineCollection_14">
    <path clip-path="url(#pf926360abe)" d="
M183.544 146.828
L200.816 129.557
L183.544 112.285
L166.273 129.557
L183.544 146.828" style="fill:none;stroke:#000000;"/>
   </g>
   <g id="LineCollection_15">
    <path clip-path="url(#pf926360abe)" d="
M183.544 146.828
L200.816 129.557
L183.544 112.285
L166.273 129.557
L183.544 146.828" style="fill:none;stroke:#000000;"/>
   </g>
   <g id="LineCollection_16">
    <path clip-path="url(#pf926360abe)" d="
M183.544 146.828
L200.816 129.557
L183.544 112.285
L166.273 129.557
L183.544 146.828" style="fill:none;stroke:#000000;"/>
   </g>
   <g id="LineCollection_17">
    <path clip-path="url(#pf926360abe)" d="
M183.544 146.828
L200.816 129.557
L183.544 112.285
L166.273 129.557
L183.544 146.828" style="fill:none;stroke:#000000;"/>
   </g>
   <g id="LineCollection_18">
    <path clip-path="url(#pf926360abe)" d="
M183.544 146.828
L200.816 129.557
L183.544 112.285
L166.273 129.557
L183.544 146.828" style="fill:none;stroke:#000000;"/>
   </g>
   <g id="LineCollection_19">
    <path clip-path="url(#pf926360abe)" d="
M183.544 146.828
L200.816 129.557
L183.544 112.285
L166.273 129.557
L183.544 146.828" style="fill:none;stroke:#000000;"/>
   </g>
  </g>
  <g id="axes_2">
   <g id="patch_3">
    <path clip-path="url(#pb5b4644af1)" d="
M406.856 201.521
C425.941 201.521 444.247 193.938 457.742 180.443
C471.237 166.948 478.82 148.642 478.82 129.557
C478.82 110.472 471.237 92.1658 457.742 78.6706
C444.247 65.1754 425.941 57.5928 406.856 57.5928
C387.771 57.5928 369.465 65.1754 355.97 78.6706
C342.474 92.1658 334.892 110.472 334.892 129.557
C334.892 148.642 342.474 166.948 355.97 180.443
C369.465 193.938 387.771 201.521 406.856 201.521
L406.856 201.521" style="fill:none;stroke:#000000;stroke-dasharray:6.000000,6.000000;stroke-dashoffset:0.0;stroke-linejoin:miter;"/>
   </g>
   <g id="LineCollection_20">
    <path clip-path="url(#pb5b4644af1)" d="
M372.313 183.521
L389.584 194.083
L406.856 195.151
L424.127 194.436
L441.399 184.48
L445.16 181.371
L458.596 164.1
L458.67 163.928
L473.825 146.828
L475.941 146.487
L492.532 129.557
L491.913 112.285
L485.479 95.0141
L475.941 82.214
L472.939 77.7427
L458.67 63.8867
L448.192 60.4714
L441.399 56.34
L424.127 49.8759
L406.856 51.9372
L389.584 52.2205
L378.093 60.4714
L372.313 62.7456
L357.33 77.7427
L355.042 81.0958
L341.581 95.0141
L339.047 112.285
L337.77 120.225
L333.915 129.557
L337.77 136.446
L341.663 146.828
L347.443 164.1
L355.042 172.672
L369.7 181.371
L372.313 183.521" style="fill:none;stroke:#000000;"/>
   </g>
   <g id="LineCollection_21">
    <path clip-path="url(#pb5b4644af1)" d="
M389.584 177.317
L406.856 176.351
L424.127 174.167
L434.994 164.1
L441.399 156.178
L449.459 146.828
L452.832 129.557
L447.8 112.285
L441.399 104.489
L430.686 95.0141
L424.127 89.6412
L406.856 84.9979
L389.584 85.9651
L381.623 95.0141
L372.313 101.561
L364.236 112.285
L355.042 115.822
L343.94 129.557
L355.042 141.662
L366.701 146.828
L372.313 158.367
L373.459 164.1
L389.584 177.317" style="fill:none;stroke:#000000;"/>
    <path clip-path="url(#pb5b4644af1)" d="
M475.941 131.456
L477.803 129.557
L475.941 113.52
L473.051 129.557
L475.941 131.456" style="fill:none;stroke:#000000;"/>
   </g>
   <g id="LineCollection_22">
    <path clip-path="url(#pb5b4644af1)" d="
M389.584 147.671
L406.856 160.965
L424.127 155.574
L432.263 146.828
L438.512 129.557
L435.28 112.285
L424.127 101.253
L406.856 96.9732
L389.584 111.125
L388.352 112.285
L376.489 129.557
L389.362 146.828
L389.584 147.671" style="fill:none;stroke:#000000;"/>
   </g>
   <g id="LineCollection_23">
    <path clip-path="url(#pb5b4644af1)" d="
M406.856 146.828
L424.127 129.557
L418.204 112.285
L406.856 104.906
L398.439 112.285
L389.584 129.557
L406.856 146.828" style="fill:none;stroke:#000000;"/>
   </g>
   <g id="LineCollection_24">
    <path clip-path="url(#pb5b4644af1)" d="
M406.856 146.828
L424.127 129.557
L406.856 112.285
L389.584 129.557
L406.856 146.828" style="fill:none;stroke:#000000;"/>
   </g>
   <g id="LineCollection_25">
    <path clip-path="url(#pb5b4644af1)" d="
M406.856 146.828
L424.127 129.557
L406.856 112.285
L389.584 129.557
L406.856 146.828" style="fill:none;stroke:#000000;"/>
   </g>
   <g id="LineCollection_26">
    <path clip-path="url(#pb5b4644af1)" d="
M406.856 146.828
L424.127 129.557
L406.856 112.285
L389.584 129.557
L406.856 146.828" style="fill:none;stroke:#000000;"/>
   </g>
   <g id="LineCollection_27">
    <path clip-path="url(#pb5b4644af1)" d="
M406.856 146.828
L424.127 129.557
L406.856 112.285
L389.584 129.557
L406.856 146.828" style="fill:none;stroke:#000000;"/>
   </g>
   <g id="LineCollection_28">
    <path clip-path="url(#pb5b4644af1)" d="
M406.856 146.828
L424.127 129.557
L406.856 112.285
L389.584 129.557
L406.856 146.828" style="fill:none;stroke:#000000;"/>
   </g>
   <g id="LineCollection_29">
    <path clip-path="url(#pb5b4644af1)" d="
M406.856 146.828
L424.127 129.557
L406.856 112.285
L389.584 129.557
L406.856 146.828" style="fill:none;stroke:#000000;"/>
   </g>
   <g id="LineCollection_30">
    <path clip-path="url(#pb5b4644af1)" d="
M406.856 146.828
L424.127 129.557
L406.856 112.285
L389.584 129.557
L406.856 146.828" style="fill:none;stroke:#000000;"/>
   </g>
   <g id="LineCollection_31">
    <path clip-path="url(#pb5b4644af1)" d="
M406.856 146.828
L424.127 129.557
L406.856 112.285
L389.584 129.557
L406.856 146.828" style="fill:none;stroke:#000000;"/>
   </g>
   <g id="LineCollection_32">
    <path clip-path="url(#pb5b4644af1)" d="
M406.856 146.828
L424.127 129.557
L406.856 112.285
L389.584 129.557
L406.856 146.828" style="fill:none;stroke:#000000;"/>
   </g>
   <g id="LineCollection_33">
    <path clip-path="url(#pb5b4644af1)" d="
M406.856 146.828
L424.127 129.557
L406.856 112.285
L389.584 129.557
L406.856 146.828" style="fill:none;stroke:#000000;"/>
   </g>
   <g id="LineCollection_34">
    <path clip-path="url(#pb5b4644af1)" d="
M406.856 146.828
L424.127 129.557
L406.856 112.285
L389.584 129.557
L406.856 146.828" style="fill:none;stroke:#000000;"/>
   </g>
   <g id="LineCollection_35">
    <path clip-path="url(#pb5b4644af1)" d="
M406.856 146.828
L424.127 129.557
L406.856 112.285
L389.584 129.557
L406.856 146.828" style="fill:none;stroke:#000000;"/>
   </g>
   <g id="LineCollection_36">
    <path clip-path="url(#pb5b4644af1)" d="
M406.856 146.828
L424.127 129.557
L406.856 112.285
L389.584 129.557
L406.856 146.828" style="fill:none;stroke:#000000;"/>
   </g>
   <g id="LineCollection_37">
    <path clip-path="url(#pb5b4644af1)" d="
M406.856 146.828
L424.127 129.557
L406.856 112.285
L389.584 129.557
L406.856 146.828" style="fill:none;stroke:#000000;"/>
   </g>
   <g id="LineCollection_38">
    <path clip-path="url(#pb5b4644af1)" d="
M406.856 146.828
L424.127 129.557
L406.856 112.285
L389.584 129.557
L406.856 146.828" style="fill:none;stroke:#000000;"/>
   </g>
  </g>
  <g id="axes_3">
   <g id="patch_4">
    <path clip-path="url(#p5399bec49d)" d="
M183.544 374.407
C202.629 374.407 220.935 366.825 234.43 353.329
C247.926 339.834 255.508 321.528 255.508 302.443
C255.508 283.358 247.926 265.052 234.43 251.557
C220.935 238.062 202.629 230.479 183.544 230.479
C164.459 230.479 146.153 238.062 132.658 251.557
C119.163 265.052 111.58 283.358 111.58 302.443
C111.58 321.528 119.163 339.834 132.658 353.329
C146.153 366.825 164.459 374.407 183.544 374.407
L183.544 374.407" style="fill:none;stroke:#000000;stroke-dasharray:6.000000,6.000000;stroke-dashoffset:0.0;stroke-linejoin:miter;"/>
   </g>
   <g id="LineCollection_39">
    <path clip-path="url(#p5399bec49d)" d="
M149.001 358.037
L166.273 367.211
L183.544 368.464
L200.816 366.98
L218.087 355.771
L219.968 354.257
L235.358 338.057
L236.372 336.986
L251.168 319.715
L252.63 319.452
L269.238 302.443
L268.602 285.172
L262.391 267.9
L252.63 254.942
L249.627 250.629
L235.358 236.773
L224.978 233.358
L218.087 229.138
L200.816 222.442
L183.544 224.784
L166.273 224.767
L154.781 233.358
L149.001 235.632
L132.18 250.629
L131.73 251.319
L118.085 267.9
L115.722 285.172
L114.459 293.065
L110.517 302.443
L114.459 310.384
L117.566 319.715
L123.535 336.986
L131.73 346.678
L143.866 354.257
L149.001 358.037" style="fill:none;stroke:#000000;"/>
   </g>
   <g id="LineCollection_40">
    <path clip-path="url(#p5399bec49d)" d="
M166.273 350.387
L183.544 349.23
L200.816 346.919
L212.06 336.986
L218.087 329.47
L226.282 319.715
L229.521 302.443
L224.237 285.172
L218.087 277.286
L207.476 267.9
L200.816 261.707
L183.544 257.168
L166.273 258.792
L159.294 267.9
L149.001 275.442
L140.895 285.172
L131.73 288.709
L120.628 302.443
L131.73 314.595
L141.404 319.715
L149.001 332.914
L150.147 336.986
L166.273 350.387" style="fill:none;stroke:#000000;"/>
    <path clip-path="url(#p5399bec49d)" d="
M252.63 304.352
L254.493 302.443
L252.63 286.407
L249.74 302.443
L252.63 304.352" style="fill:none;stroke:#000000;"/>
   </g>
   <g id="LineCollection_41">
    <path clip-path="url(#p5399bec49d)" d="
M166.273 320.558
L183.544 333.852
L200.816 328.461
L208.951 319.715
L215.236 302.443
L211.978 285.172
L200.816 274.131
L183.544 269.854
L166.273 281.836
L162.76 285.172
L153.177 302.443
L166.033 319.715
L166.273 320.558" style="fill:none;stroke:#000000;"/>
   </g>
   <g id="LineCollection_42">
    <path clip-path="url(#p5399bec49d)" d="
M183.544 319.715
L200.816 302.443
L194.892 285.172
L183.544 277.789
L174.903 285.172
L166.273 302.443
L183.544 319.715" style="fill:none;stroke:#000000;"/>
   </g>
   <g id="LineCollection_43">
    <path clip-path="url(#p5399bec49d)" d="
M183.544 319.715
L200.816 302.443
L183.544 285.172
L166.273 302.443
L183.544 319.715" style="fill:none;stroke:#000000;"/>
   </g>
   <g id="LineCollection_44">
    <path clip-path="url(#p5399bec49d)" d="
M183.544 319.715
L200.816 302.443
L183.544 285.172
L166.273 302.443
L183.544 319.715" style="fill:none;stroke:#000000;"/>
   </g>
   <g id="LineCollection_45">
    <path clip-path="url(#p5399bec49d)" d="
M183.544 319.715
L200.816 302.443
L183.544 285.172
L166.273 302.443
L183.544 319.715" style="fill:none;stroke:#000000;"/>
   </g>
   <g id="LineCollection_46">
    <path clip-path="url(#p5399bec49d)" d="
M183.544 319.715
L200.816 302.443
L183.544 285.172
L166.273 302.443
L183.544 319.715" style="fill:none;stroke:#000000;"/>
   </g>
   <g id="LineCollection_47">
    <path clip-path="url(#p5399bec49d)" d="
M183.544 319.715
L200.816 302.443
L183.544 285.172
L166.273 302.443
L183.544 319.715" style="fill:none;stroke:#000000;"/>
   </g>
   <g id="LineCollection_48">
    <path clip-path="url(#p5399bec49d)" d="
M183.544 319.715
L200.816 302.443
L183.544 285.172
L166.273 302.443
L183.544 319.715" style="fill:none;stroke:#000000;"/>
   </g>
   <g id="LineCollection_49">
    <path clip-path="url(#p5399bec49d)" d="
M183.544 319.715
L200.816 302.443
L183.544 285.172
L166.273 302.443
L183.544 319.715" style="fill:none;stroke:#000000;"/>
   </g>
   <g id="LineCollection_50">
    <path clip-path="url(#p5399bec49d)" d="
M183.544 319.715
L200.816 302.443
L183.544 285.172
L166.273 302.443
L183.544 319.715" style="fill:none;stroke:#000000;"/>
   </g>
   <g id="LineCollection_51">
    <path clip-path="url(#p5399bec49d)" d="
M183.544 319.715
L200.816 302.443
L183.544 285.172
L166.273 302.443
L183.544 319.715" style="fill:none;stroke:#000000;"/>
   </g>
   <g id="LineCollection_52">
    <path clip-path="url(#p5399bec49d)" d="
M183.544 319.715
L200.816 302.443
L183.544 285.172
L166.273 302.443
L183.544 319.715" style="fill:none;stroke:#000000;"/>
   </g>
   <g id="LineCollection_53">
    <path clip-path="url(#p5399bec49d)" d="
M183.544 319.715
L200.816 302.443
L183.544 285.172
L166.273 302.443
L183.544 319.715" style="fill:none;stroke:#000000;"/>
   </g>
   <g id="LineCollection_54">
    <path clip-path="url(#p5399bec49d)" d="
M183.544 319.715
L200.816 302.443
L183.544 285.172
L166.273 302.443
L183.544 319.715" style="fill:none;stroke:#000000;"/>
   </g>
   <g id="LineCollection_55">
    <path clip-path="url(#p5399bec49d)" d="
M183.544 319.715
L200.816 302.443
L183.544 285.172
L166.273 302.443
L183.544 319.715" style="fill:none;stroke:#000000;"/>
   </g>
   <g id="LineCollection_56">
    <path clip-path="url(#p5399bec49d)" d="
M183.544 319.715
L200.816 302.443
L183.544 285.172
L166.273 302.443
L183.544 319.715" style="fill:none;stroke:#000000;"/>
   </g>
   <g id="LineCollection_57">
    <path clip-path="url(#p5399bec49d)" d="
M183.544 319.715
L200.816 302.443
L183.544 285.172
L166.273 302.443
L183.544 319.715" style="fill:none;stroke:#000000;"/>
   </g>
  </g>
  <g id="axes_4">
   <g id="patch_5">
    <path clip-path="url(#p0757c7786f)" d="
M406.856 374.407
C425.941 374.407 444.247 366.825 457.742 353.329
C471.237 339.834 478.82 321.528 478.82 302.443
C478.82 283.358 471.237 265.052 457.742 251.557
C444.247 238.062 425.941 230.479 406.856 230.479
C387.771 230.479 369.465 238.062 355.97 251.557
C342.474 265.052 334.892 283.358 334.892 302.443
C334.892 321.528 342.474 339.834 355.97 353.329
C369.465 366.825 387.771 374.407 406.856 374.407
L406.856 374.407" style="fill:none;stroke:#000000;stroke-dasharray:6.000000,6.000000;stroke-dashoffset:0.0;stroke-linejoin:miter;"/>
   </g>
   <g id="LineCollection_58">
    <path clip-path="url(#p0757c7786f)" d="
M372.313 358.037
L389.584 367.537
L406.856 368.629
L424.127 366.635
L441.399 356.301
L443.76 354.257
L458.67 338.065
L459.739 336.986
L474.969 319.715
L475.941 319.551
L492.549 302.443
L492.279 285.172
L486.683 267.9
L475.941 254.821
L473.032 250.629
L458.67 236.773
L449.52 233.358
L441.399 228.146
L424.127 222.442
L406.856 224.784
L389.584 224.826
L378.093 233.358
L372.313 235.632
L355.492 250.629
L355.042 251.319
L341.397 267.9
L339.002 285.172
L337.77 292.949
L333.855 302.443
L337.77 312.355
L339.727 319.715
L346.765 336.986
L355.042 346.77
L367.099 354.257
L372.313 358.037" style="fill:none;stroke:#000000;"/>
   </g>
   <g id="LineCollection_59">
    <path clip-path="url(#p0757c7786f)" d="
M389.584 350.387
L406.856 349.237
L424.127 347.054
L435.372 336.986
L441.399 329.47
L449.551 319.715
L452.832 302.443
L447.888 285.172
L441.399 276.813
L431.227 267.9
L424.127 261.842
L406.856 257.168
L389.584 258.792
L378.731 267.9
L372.313 271.995
L364.206 285.172
L355.042 288.709
L343.94 302.443
L355.042 314.717
L364.57 319.715
L372.313 332.914
L373.459 336.986
L389.584 350.387" style="fill:none;stroke:#000000;"/>
    <path clip-path="url(#p0757c7786f)" d="
M475.941 304.363
L477.805 302.443
L475.941 286.407
L473.051 302.443
L475.941 304.363" style="fill:none;stroke:#000000;"/>
   </g>
   <g id="LineCollection_60">
    <path clip-path="url(#p0757c7786f)" d="
M389.584 320.558
L406.856 333.852
L424.127 329.033
L432.835 319.715
L438.547 302.443
L435.292 285.172
L424.127 274.131
L406.856 269.854
L389.584 281.836
L386.072 285.172
L376.39 302.443
L389.344 319.715
L389.584 320.558" style="fill:none;stroke:#000000;"/>
   </g>
   <g id="LineCollection_61">
    <path clip-path="url(#p0757c7786f)" d="
M406.856 319.715
L424.127 302.443
L418.204 285.172
L406.856 277.789
L398.215 285.172
L389.584 302.443
L406.856 319.715" style="fill:none;stroke:#000000;"/>
   </g>
   <g id="LineCollection_62">
    <path clip-path="url(#p0757c7786f)" d="
M406.856 319.715
L424.127 302.443
L406.856 285.172
L389.584 302.443
L406.856 319.715" style="fill:none;stroke:#000000;"/>
   </g>
   <g id="LineCollection_63">
    <path clip-path="url(#p0757c7786f)" d="
M406.856 319.715
L424.127 302.443
L406.856 285.172
L389.584 302.443
L406.856 319.715" style="fill:none;stroke:#000000;"/>
   </g>
   <g id="LineCollection_64">
    <path clip-path="url(#p0757c7786f)" d="
M406.856 319.715
L424.127 302.443
L406.856 285.172
L389.584 302.443
L406.856 319.715" style="fill:none;stroke:#000000;"/>
   </g>
   <g id="LineCollection_65">
    <path clip-path="url(#p0757c7786f)" d="
M406.856 319.715
L424.127 302.443
L406.856 285.172
L389.584 302.443
L406.856 319.715" style="fill:none;stroke:#000000;"/>
   </g>
   <g id="LineCollection_66">
    <path clip-path="url(#p0757c7786f)" d="
M406.856 319.715
L424.127 302.443
L406.856 285.172
L389.584 302.443
L406.856 319.715" style="fill:none;stroke:#000000;"/>
   </g>
   <g id="LineCollection_67">
    <path clip-path="url(#p0757c7786f)" d="
M406.856 319.715
L424.127 302.443
L406.856 285.172
L389.584 302.443
L406.856 319.715" style="fill:none;stroke:#000000;"/>
   </g>
   <g id="LineCollection_68">
    <path clip-path="url(#p0757c7786f)" d="
M406.856 319.715
L424.127 302.443
L406.856 285.172
L389.584 302.443
L406.856 319.715" style="fill:none;stroke:#000000;"/>
   </g>
   <g id="LineCollection_69">
    <path clip-path="url(#p0757c7786f)" d="
M406.856 319.715
L424.127 302.443
L406.856 285.172
L389.584 302.443
L406.856 319.715" style="fill:none;stroke:#000000;"/>
   </g>
   <g id="LineCollection_70">
    <path clip-path="url(#p0757c7786f)" d="
M406.856 319.715
L424.127 302.443
L406.856 285.172
L389.584 302.443
L406.856 319.715" style="fill:none;stroke:#000000;"/>
   </g>
   <g id="LineCollection_71">
    <path clip-path="url(#p0757c7786f)" d="
M406.856 319.715
L424.127 302.443
L406.856 285.172
L389.584 302.443
L406.856 319.715" style="fill:none;stroke:#000000;"/>
   </g>
   <g id="LineCollection_72">
    <path clip-path="url(#p0757c7786f)" d="
M406.856 319.715
L424.127 302.443
L406.856 285.172
L389.584 302.443
L406.856 319.715" style="fill:none;stroke:#000000;"/>
   </g>
   <g id="LineCollection_73">
    <path clip-path="url(#p0757c7786f)" d="
M406.856 319.715
L424.127 302.443
L406.856 285.172
L389.584 302.443
L406.856 319.715" style="fill:none;stroke:#000000;"/>
   </g>
   <g id="LineCollection_74">
    <path clip-path="url(#p0757c7786f)" d="
M406.856 319.715
L424.127 302.443
L406.856 285.172
L389.584 302.443
L406.856 319.715" style="fill:none;stroke:#000000;"/>
   </g>
   <g id="LineCollection_75">
    <path clip-path="url(#p0757c7786f)" d="
M406.856 319.715
L424.127 302.443
L406.856 285.172
L389.584 302.443
L406.856 319.715" style="fill:none;stroke:#000000;"/>
   </g>
   <g id="LineCollection_76">
    <path clip-path="url(#p0757c7786f)" d="
M406.856 319.715
L424.127 302.443
L406.856 285.172
L389.584 302.443
L406.856 319.715" style="fill:none;stroke:#000000;"/>
   </g>
  </g>
 </g>
 <defs>
  <clipPath id="pb5b4644af1">
   <rect height="172.713643178" width="223.088455772" x="295.311544228" y="43.2"/>
  </clipPath>
  <clipPath id="pf926360abe">
   <rect height="172.713643178" width="223.088455772" x="72.0" y="43.2"/>
  </clipPath>
  <clipPath id="p5399bec49d">
   <rect height="172.713643178" width="223.088455772" x="72.0" y="216.086356822"/>
  </clipPath>
  <clipPath id="p0757c7786f">
   <rect height="172.713643178" width="223.088455772" x="295.311544228" y="216.086356822"/>
  </clipPath>
 </defs>
</svg>
