<?xml version="1.0" encoding="utf-8" standalone="no"?>
<!DOCTYPE svg PUBLIC "-//W3C//DTD SVG 1.1//EN"
  "http://www.w3.org/Graphics/SVG/1.1/DTD/svg11.dtd">
<!-- Created with matplotlib (http://matplotlib.org/) -->
<svg height="432pt" version="1.1" viewBox="0 0 576 432" width="576pt" xmlns="http://www.w3.org/2000/svg" xmlns:xlink="http://www.w3.org/1999/xlink">
 <defs>
  <style type="text/css">
*{stroke-linecap:butt;stroke-linejoin:round;}
  </style>
 </defs>
 <g id="figure_1">
  <g id="patch_1">
   <path d="
M0 432
L576 432
L576 0
L0 0
z
" style="fill:#ffffff;"/>
  </g>
  <g id="axes_1">
   <g id="patch_2">
    <path d="
M122.4 388.8
L468 388.8
L468 43.2
L122.4 43.2
z
" style="fill:#ffffff;"/>
   </g>
   <g id="patch_3">
    <path clip-path="url(#p23ab9b749c)" d="
M295.2 331.2
C325.751 331.2 355.056 319.062 376.659 297.459
C398.262 275.856 410.4 246.551 410.4 216
C410.4 185.449 398.262 156.144 376.659 134.541
C355.056 112.938 325.751 100.8 295.2 100.8
C264.649 100.8 235.344 112.938 213.741 134.541
C192.138 156.144 180 185.449 180 216
C180 246.551 192.138 275.856 213.741 297.459
C235.344 319.062 264.649 331.2 295.2 331.2
L295.2 331.2" style="fill:none;stroke:#000000;stroke-dasharray:6.000000,6.000000;stroke-dashoffset:0.0;stroke-linejoin:miter;"/>
   </g>
   <g id="LineCollection_1">
    <path clip-path="url(#p23ab9b749c)" d="
M281.376 326.629
L286.56 326.993
L291.744 327.163
L293.472 327.068
L295.2 327.167
L302.112 326.939
L303.84 326.318
L305.568 326.702
L310.752 326.19
L315.936 325.451
L317.664 325.149
L318.026 324.864
L319.392 324.213
L321.12 324.473
L324.576 323.674
L329.76 322.231
L332.264 321.408
L331.488 321.209
L330.749 319.68
L331.488 319.102
L333.433 319.68
L334.944 320.478
L338.4 319.126
L338.827 317.952
L340.128 316.405
L341.856 317.619
L343.584 316.532
L344.764 316.224
L348.087 314.496
L351.144 312.768
L350.496 312.541
L349.749 311.04
L350.496 310.044
L351.428 309.312
L352.224 308.887
L353.488 307.584
L353.952 305.848
L353.966 305.856
L356.829 307.584
L357.408 308.821
L359.196 307.584
L359.136 307.561
L358.285 305.856
L359.136 304.64
L360.864 305.159
L362.592 305.115
L363.868 304.128
L363.908 302.4
L364.32 302.025
L366.048 302.386
L366.862 300.672
L367.776 299.818
L370.073 298.944
L369.504 298.67
L368.81 297.216
L369.504 296.538
L370.89 297.216
L371.232 297.892
L374.688 294.577
L376.416 292.818
L376.816 292.032
L378.519 290.304
L377.984 288.576
L378.144 288.09
L378.983 288.576
L379.872 288.863
L380.319 288.576
L381.146 286.848
L381.6 286.341
L383.328 285.017
L388.512 278.734
L388.649 278.208
L389.82 276.48
L390.24 275.651
L392.322 274.752
L392.74 273.024
L392.742 271.296
L393.696 270.301
L394.211 269.568
L394.462 267.84
L395.424 266.336
L396.905 267.84
L397.152 269.02
L398.125 267.84
L397.829 266.112
L398.88 264.997
L400.608 264.766
L400.918 264.384
L398.88 263.334
L398.538 262.656
L398.509 260.928
L398.88 260.539
L399.531 260.928
L400.608 261.823
L402.336 262.611
L403.691 260.928
L402.336 260.451
L401.585 259.2
L402.336 258.413
L404.064 258.128
L405.792 258.324
L407.52 257.394
L408.61 255.744
L409.248 255.298
L410.976 255.913
L411.338 255.744
L410.976 255.528
L410.466 254.016
L410.976 253.626
L411.833 254.016
L412.704 255.145
L414.432 254.131
L415.048 254.016
L418.407 252.288
L421.344 250.586
L421.374 250.56
L422.406 248.832
L423.072 248.293
L426.5 247.104
L428.256 245.719
L428.452 245.376
L429.984 243.952
L430.602 243.648
L432.36 241.92
L433.951 240.192
L435.389 238.464
L437.887 235.008
L439.922 231.552
L442.08 227.381
L442.968 226.368
L444.72 222.912
L446.184 219.456
L447.361 216
L447.871 214.272
L447.264 213.944
L446.464 212.544
L447.264 211.448
L448.678 210.816
L449.254 207.36
L449.616 203.904
L449.712 202.176
L449.175 200.448
L449.751 198.72
L449.58 195.264
L449.197 191.808
L448.625 188.352
L447.847 184.896
L446.855 181.44
L446.286 179.712
L445.536 177.696
L444.249 174.528
L442.08 170
L440.352 166.821
L439.82 165.888
L438.624 164.129
L437.046 162.432
L436.896 161.219
L435.365 158.976
L435.168 158.926
L433.603 157.248
L433.44 156.303
L431.712 154.024
L431.068 155.52
L429.984 156.047
L429.489 155.52
L428.856 153.792
L429.984 152.112
L430.171 152.064
L429.984 151.832
L428.256 151.517
L426.528 149.689
L424.8 150.59
L424.557 150.336
L424.285 148.608
L422.63 146.88
L423.072 145.904
L424.337 145.152
L419.616 140.089
L416.056 136.512
L415.659 134.784
L414.432 132.53
L412.704 132.114
L412.059 131.328
L412.704 129.577
L411.234 127.872
L410.976 126.693
L409.248 124.098
L409.176 124.416
L407.52 125.459
L406.548 124.416
L407.52 122.905
L408.259 122.688
L405.585 119.232
L402.336 115.552
L398.88 112.176
L395.424 109.266
L391.968 106.761
L388.512 104.595
L385.056 102.727
L381.6 101.113
L378.144 99.7378
L374.408 98.496
L371.232 97.5783
L370.684 98.496
L369.504 99.1455
L368.597 98.496
L367.729 96.768
L364.32 96.1015
L362.592 96.1539
L353.952 92.3599
L350.496 91.2289
L347.04 90.3009
L341.856 89.2715
L338.4 88.791
L333.216 88.3216
L326.304 87.8639
L322.848 86.8034
L319.392 86.0247
L315.936 85.5066
L312.48 85.2585
L309.024 85.2598
L305.568 85.5015
L302.112 85.9865
L298.656 86.6975
L295.2 87.6171
L290.016 89.3406
L284.832 91.4079
L271.008 92.6236
L267.028 93.312
L264.096 93.9731
L258.912 95.3664
L257.184 96.0245
L255.456 96.2739
L238.176 101.26
L232.992 103.266
L228.428 105.408
L226.08 106.645
L222.39 108.864
L222.624 108.908
L223.734 110.592
L222.624 111.622
L221.094 110.592
L220.896 109.837
L217.44 112.352
L213.984 115.171
L211.431 117.504
L208.8 120.149
L208.039 120.96
L207.54 122.688
L207.072 123.197
L205.344 124.063
L203.616 126.222
L201.098 129.6
L197.638 134.784
L194.527 139.968
L193.552 141.696
L194.266 143.424
L193.248 144.611
L191.674 145.152
L190.763 146.88
L191.52 147.134
L192.473 148.608
L191.52 149.692
L189.792 149.991
L189.403 150.336
L188.217 152.064
L188.647 153.792
L188.064 154.592
L186.639 155.52
L185.889 157.248
L186.336 158.099
L186.56 158.976
L186.336 159.465
L184.608 160.379
L184.475 160.704
L184.515 162.432
L183.268 164.16
L182.88 164.924
L181.356 169.344
L181.629 171.072
L181.152 171.893
L180.255 172.8
L178.66 177.984
L177.696 182.045
L177.068 184.896
L177.179 186.624
L176.355 188.352
L175.737 191.808
L175.987 193.536
L175.968 195.313
L175.451 196.992
L174.79 198.72
L175.337 200.448
L174.491 202.176
L174.384 203.904
L174.956 205.632
L174.251 207.36
L175.386 209.088
L174.24 210.925
L174.419 214.272
L174.868 216
L174.477 217.728
L174.361 219.456
L174.489 222.912
L174.768 226.368
L175.208 229.824
L176.168 235.008
L176.555 236.736
L177.764 238.464
L178.424 241.92
L178.542 243.648
L179.148 245.376
L179.424 245.594
L180.421 247.104
L180.466 248.832
L181.218 250.56
L183.041 252.288
L182.88 254.166
L183.808 255.744
L184.608 257.664
L185.539 259.2
L187.101 262.656
L189.613 267.84
L190.531 269.568
L191.52 270.253
L192.316 271.296
L192.542 273.024
L194.793 276.48
L194.976 276.601
L196.317 278.208
L196.704 279.142
L197.916 278.208
L198.432 278.087
L198.54 278.208
L199.05 279.936
L200.16 281.365
L200.585 281.664
L200.876 283.392
L201.888 285.201
L207.072 290.469
L207.206 290.304
L208.8 289.709
L209.423 290.304
L208.859 292.032
L212.426 295.488
L213.984 296.433
L214.809 297.216
L215.712 297.901
L216.387 297.216
L217.44 296.705
L217.968 297.216
L217.781 298.944
L218.198 300.672
L220.305 302.4
L220.896 302.607
L222.712 304.128
L224.352 303.58
L224.962 304.128
L226.08 306.76
L227.808 306.615
L228.908 307.584
L229.536 309.106
L234.72 312.322
L236.448 311.998
L237.402 312.768
L238.176 314.251
L243.36 316.858
L245.088 315.62
L246.816 316.48
L248.544 319.118
L253.728 321.048
L258.912 322.671
L264.096 324.004
L269.28 325.055
L271.008 325.36
L271.282 324.864
L272.736 324.004
L273.975 324.864
L274.464 325.882
L276.192 326.103
L276.928 324.864
L277.92 324.286
L278.794 324.864
L279.648 326.474
L281.376 326.629
L281.376 326.629" style="fill:none;stroke:#000000;"/>
    <path clip-path="url(#p23ab9b749c)" d="
M352.224 312.134
L353.952 311.046
L353.981 311.04
L353.952 310.934
L352.224 310.334
L351.701 311.04
L352.224 312.134" style="fill:none;stroke:#000000;"/>
    <path clip-path="url(#p23ab9b749c)" d="
M231.264 308.606
L230.463 307.584
L231.264 307.203
L232.748 307.584
L231.264 308.606" style="fill:none;stroke:#000000;"/>
    <path clip-path="url(#p23ab9b749c)" d="
M360.864 303.017
L360.545 302.4
L360.864 302.101
L361.416 302.4
L360.864 303.017" style="fill:none;stroke:#000000;"/>
    <path clip-path="url(#p23ab9b749c)" d="
M362.592 301.257
L362.271 300.672
L362.592 300.208
L363.13 300.672
L362.592 301.257" style="fill:none;stroke:#000000;"/>
    <path clip-path="url(#p23ab9b749c)" d="
M366.048 297.425
L365.388 297.216
L366.048 297.11
L366.245 297.216
L366.048 297.425" style="fill:none;stroke:#000000;"/>
    <path clip-path="url(#p23ab9b749c)" d="
M372.96 291.276
L372.051 290.304
L372.96 289.387
L373.938 290.304
L372.96 291.276" style="fill:none;stroke:#000000;"/>
    <path clip-path="url(#p23ab9b749c)" d="
M404.064 256.007
L403.976 255.744
L404.064 255.666
L405.792 255.675
L405.958 255.744
L405.792 256.189
L404.064 256.007" style="fill:none;stroke:#000000;"/>
    <path clip-path="url(#p23ab9b749c)" d="
M412.704 253.45
L412.051 252.288
L412.704 251.744
L413.601 252.288
L412.704 253.45" style="fill:none;stroke:#000000;"/>
    <path clip-path="url(#p23ab9b749c)" d="
M440.352 184.904
L440.346 184.896
L440.352 184.887
L440.363 184.896
L440.352 184.904" style="fill:none;stroke:#000000;"/>
    <path clip-path="url(#p23ab9b749c)" d="
M438.624 179.846
L438.505 179.712
L438.624 179.547
L438.817 179.712
L438.624 179.846" style="fill:none;stroke:#000000;"/>
    <path clip-path="url(#p23ab9b749c)" d="
M442.08 180.505
L441.381 179.712
L442.08 178.767
L443.18 179.712
L442.08 180.505" style="fill:none;stroke:#000000;"/>
    <path clip-path="url(#p23ab9b749c)" d="
M440.352 178.545
L439.854 177.984
L440.352 177.298
L441.147 177.984
L440.352 178.545" style="fill:none;stroke:#000000;"/>
    <path clip-path="url(#p23ab9b749c)" d="
M435.168 169.645
L434.89 169.344
L435.168 168.943
L435.613 169.344
L435.168 169.645" style="fill:none;stroke:#000000;"/>
    <path clip-path="url(#p23ab9b749c)" d="
M433.44 163.017
L432.891 162.432
L433.44 161.591
L434.365 162.432
L433.44 163.017" style="fill:none;stroke:#000000;"/>
    <path clip-path="url(#p23ab9b749c)" d="
M431.712 159.354
L430.585 158.976
L431.712 158.326
L432.451 158.976
L431.712 159.354" style="fill:none;stroke:#000000;"/>
    <path clip-path="url(#p23ab9b749c)" d="
M407.52 129.942
L407.21 129.6
L407.52 129.117
L408.07 129.6
L407.52 129.942" style="fill:none;stroke:#000000;"/>
    <path clip-path="url(#p23ab9b749c)" d="
M374.688 102.185
L374.388 101.952
L374.688 101.356
L375.087 101.952
L374.688 102.185" style="fill:none;stroke:#000000;"/>
   </g>
   <g id="LineCollection_2">
    <path clip-path="url(#p23ab9b749c)" d="
M271.008 293.859
L272.736 294.145
L274.464 294.344
L277.92 294.511
L281.376 294.454
L293.472 293.935
L307.296 294.012
L310.752 293.716
L314.208 293.211
L317.664 292.397
L321.12 291.307
L324.576 289.875
L328.032 288.106
L331.488 285.993
L335.138 283.392
L339.48 279.936
L343.584 276.354
L348.975 271.296
L352.384 267.84
L355.68 264.149
L358.238 260.928
L360.864 257.064
L362.644 254.016
L364.365 250.56
L365.832 247.104
L367.581 241.92
L368.887 236.736
L369.783 231.552
L370.216 228.096
L369.821 226.368
L370.503 224.64
L370.669 219.456
L370.537 214.272
L370.272 210.816
L369.855 207.36
L368.171 198.72
L366.699 193.536
L363.5 184.896
L362.592 183.112
L361.248 181.44
L361.092 179.712
L358.391 174.528
L355.256 169.344
L349.506 160.704
L348.256 158.976
L347.578 157.248
L347.04 156.832
L346.366 155.52
L345.656 153.792
L345.18 152.064
L345.028 150.336
L345.312 148.551
L345.373 148.608
L346.382 150.336
L347.04 150.973
L347.318 152.064
L348.162 153.792
L348.529 155.52
L348.768 155.842
L349.544 157.248
L350.496 158.548
L350.675 157.248
L352.224 156.144
L353.304 157.248
L352.224 158.76
L350.86 158.976
L352.759 160.704
L353.952 161.517
L355.788 162.432
L357.408 163.091
L359.136 163.608
L362.592 164.234
L366.048 164.524
L369.504 164.491
L371.232 164.198
L372.96 164.288
L374.77 164.16
L376.416 163.557
L376.757 164.16
L377.255 165.888
L380.228 169.344
L381.6 170.442
L383.328 171.408
L385.056 172.134
L386.784 172.606
L387.005 172.8
L386.548 176.256
L386.546 177.984
L386.791 179.712
L387.192 181.44
L387.823 183.168
L388.762 184.896
L389.948 186.624
L389.912 190.08
L389.67 193.536
L390.084 195.264
L389.485 196.992
L389.539 200.448
L389.707 202.176
L390.194 203.904
L390.24 204.884
L390.398 205.632
L390.909 207.36
L391.968 209.719
L392.507 210.816
L393.696 212.57
L395.424 214.604
L396.776 216
L397.152 216.614
L397.531 217.728
L398.88 220.015
L399.78 221.184
L400.608 222.001
L402.336 223.359
L404.064 224.309
L405.792 224.94
L407.52 225.33
L409.248 225.452
L410.976 225.324
L412.704 224.922
L414.432 224.283
L416.667 222.912
L418.556 221.184
L419.812 219.456
L420.718 217.728
L421.344 215.336
L421.548 214.272
L421.61 212.544
L421.409 210.816
L421.612 209.088
L422.046 207.36
L422.275 205.632
L422.333 203.904
L422.239 202.176
L422.002 200.448
L421.158 196.992
L420.618 195.264
L419.2 191.808
L417.888 189.404
L417.251 188.352
L415.936 186.624
L414.337 184.896
L412.453 183.168
L411.084 181.44
L410.72 177.984
L410.347 176.256
L409.719 174.528
L408.832 172.8
L407.52 171.02
L405.792 169.326
L404.064 168.08
L402.336 167.215
L398.948 165.888
L399.173 162.432
L399.068 160.704
L398.271 157.248
L397.152 155.16
L396.212 153.792
L395.424 152.963
L393.696 151.546
L391.968 150.607
L390.24 150.001
L388.512 149.65
L386.784 149.182
L385.925 148.608
L385.487 146.88
L384.706 141.696
L384.308 139.968
L383.328 137.366
L382.98 136.512
L381.6 134.216
L380.755 133.056
L379.1 131.328
L378.144 130.499
L376.416 129.309
L374.688 128.375
L371.232 127.185
L369.504 126.857
L367.776 126.674
L364.32 126.63
L359.136 126.761
L357.408 126.465
L356.956 126.144
L355.68 124.388
L355.027 122.688
L353.923 120.96
L352.224 119.046
L350.135 117.504
L348.768 116.739
L347.04 116.131
L344.633 115.776
L343.584 115.695
L341.856 115.808
L340.128 116.107
L338.4 116.668
L336.672 117.546
L334.213 119.232
L332.406 120.96
L331.05 122.688
L330.058 124.416
L329.413 126.144
L326.28 131.328
L324.576 133.751
L322.848 135.436
L320.972 136.512
L319.392 137.004
L315.936 137.834
L307.296 141.131
L305.568 141.792
L303.84 142.351
L302.112 142.697
L295.2 143.325
L289.504 141.696
L288.288 141.132
L286.313 139.968
L285.249 138.24
L287.602 131.328
L288.03 127.872
L287.992 126.144
L287.742 124.416
L287.241 122.688
L286.438 120.96
L285.356 119.232
L283.722 117.504
L283.104 116.997
L281.08 115.776
L279.648 115.128
L277.92 114.681
L276.192 114.514
L274.464 114.595
L272.736 114.947
L270.778 115.776
L269.28 116.618
L267.552 118.121
L266.564 119.232
L265.488 120.96
L264.723 122.688
L264.303 124.416
L264.125 126.144
L264.149 127.872
L264.383 129.6
L264.096 131.381
L262.368 131.323
L258.912 130.636
L253.728 129.485
L250.272 128.979
L248.544 128.879
L246.816 128.893
L245.088 129.033
L242.238 129.6
L241.632 129.731
L239.904 130.264
L237.612 131.328
L236.448 131.942
L234.72 133.142
L232.808 134.784
L231.233 136.512
L229.536 138.932
L228.906 139.968
L227.808 142.474
L227.42 143.424
L226.879 145.152
L226.18 148.608
L225.434 153.792
L225.12 155.52
L224.352 157.99
L224.01 158.976
L222.624 160.467
L222.062 160.704
L220.896 161.063
L219.168 161.776
L217.44 162.695
L215.278 164.16
L213.292 165.888
L211.77 167.616
L210.528 169.477
L209.634 171.072
L208.8 173.313
L208.4 174.528
L208.022 176.256
L207.813 177.984
L207.751 179.712
L207.826 181.44
L208.035 183.168
L208.378 184.896
L209.389 188.352
L210.799 191.808
L211.574 193.536
L211.51 195.264
L210.528 197.115
L208.283 200.448
L205.344 204.701
L203.893 207.36
L203.132 209.088
L202.523 210.816
L201.888 213.767
L201.792 214.272
L201.611 216
L201.587 217.728
L201.888 220.428
L201.996 221.184
L202.396 222.912
L202.986 224.64
L204.675 228.096
L205.801 229.824
L207.145 231.552
L208.8 233.38
L212.338 236.736
L215.346 240.192
L217.44 243.093
L217.796 243.648
L219.168 246.178
L219.589 247.104
L220.14 248.832
L220.101 252.288
L220.193 254.016
L220.401 255.744
L221.185 259.2
L221.77 260.928
L222.624 262.725
L223.532 264.384
L224.776 266.112
L226.342 267.84
L228.36 269.568
L229.536 270.413
L232.992 272.345
L236.448 273.692
L238.176 274.16
L239.904 275.102
L243.36 277.498
L246.816 280.236
L253.728 285.908
L257.184 288.322
L258.912 289.386
L262.368 291.175
L265.824 292.548
L269.28 293.517
L271.008 293.859
L271.008 293.859" style="fill:none;stroke:#000000;"/>
    <path clip-path="url(#p23ab9b749c)" d="
M307.296 134.879
L309.024 135.426
L310.752 135.748
L312.48 135.922
L314.208 135.939
L315.936 135.435
L316.409 134.784
L317.664 134.381
L319.392 133.439
L319.67 133.056
L321.12 132.041
L321.72 131.328
L322.848 129.83
L323.035 129.6
L324.005 127.872
L324.576 126.494
L324.757 126.144
L325.232 124.416
L325.493 122.688
L325.536 120.96
L325.362 119.232
L324.943 117.504
L324.576 116.591
L324.297 115.776
L323.377 114.048
L322.848 113.331
L322.078 112.32
L321.12 111.354
L320.212 110.592
L319.392 109.984
L317.664 109.039
L317.189 108.864
L315.936 108.355
L314.208 107.942
L312.48 107.788
L310.752 107.863
L309.024 108.18
L307.296 108.782
L307.123 108.864
L305.568 109.585
L304.096 110.592
L303.84 110.787
L302.196 112.32
L302.112 112.42
L300.804 114.048
L300.384 114.805
L299.794 115.776
L299.074 117.504
L298.656 119.146
L298.628 119.232
L298.321 120.96
L298.257 122.688
L298.441 124.416
L298.656 125.264
L298.858 126.144
L299.528 127.872
L300.384 129.323
L300.558 129.6
L301.945 131.328
L302.112 131.507
L303.84 133.01
L303.909 133.056
L305.568 134.144
L307.094 134.784
L307.296 134.879" style="fill:none;stroke:#000000;"/>
   </g>
   <g id="LineCollection_3">
    <path clip-path="url(#p23ab9b749c)" d="
M271.008 280.31
L272.736 280.968
L274.464 281.191
L276.192 281.067
L277.92 280.541
L279.648 279.565
L281.376 277.965
L282.528 276.48
L283.812 273.024
L284.01 271.296
L283.975 269.568
L283.705 267.84
L282.564 264.384
L281.747 262.656
L281.215 260.928
L281.376 260.653
L283.104 259.931
L284.832 260.255
L286.582 260.928
L288.822 262.656
L290.016 263.693
L295.23 269.568
L296.928 271.518
L298.656 273.299
L300.384 274.799
L302.909 276.48
L303.84 276.981
L305.568 277.679
L307.296 278.087
L309.024 278.284
L311.023 278.208
L312.48 278.017
L314.208 277.531
L316.261 276.48
L317.664 275.551
L318.607 274.752
L320.22 273.024
L321.4 271.296
L322.381 269.568
L324.576 264.348
L325.492 262.656
L326.758 260.928
L328.032 259.785
L328.851 259.2
L329.76 258.702
L332.517 257.472
L334.944 256.667
L338.4 255.235
L340.549 254.016
L341.856 253.192
L343.584 251.729
L345.312 249.797
L346.038 248.832
L347.04 247.022
L347.82 245.376
L348.358 243.648
L348.768 241.181
L348.906 240.192
L348.987 238.464
L348.777 235.008
L347.489 224.64
L347.501 222.912
L347.835 219.456
L348.768 212.363
L348.909 209.088
L348.601 205.632
L348.269 203.904
L347.774 202.176
L346.34 198.72
L344.36 195.264
L341.856 191.73
L337.912 186.624
L333.643 181.44
L331.488 179.131
L329.76 177.482
L328.032 176.033
L325.946 174.528
L324.576 173.642
L321.12 171.887
L317.664 170.641
L315.936 170.16
L312.48 169.526
L309.024 169.174
L305.568 169.041
L300.384 169.137
L296.047 169.344
L293.472 169.299
L290.016 169.5
L286.56 170.001
L281.376 171.244
L277.92 172.336
L274.464 173.744
L271.008 175.591
L269.28 176.717
L267.552 178.006
L265.515 179.712
L263.723 181.44
L262.159 183.168
L259.54 186.624
L257.501 190.08
L254.869 195.264
L253.227 198.72
L252.564 200.448
L251.508 203.904
L250.739 207.36
L250.247 210.816
L249.948 214.272
L249.922 217.728
L250.207 221.184
L250.776 224.64
L251.204 226.368
L252.366 229.824
L253.728 232.865
L254.839 235.008
L257.184 238.749
L259.478 241.92
L262.368 245.446
L269.745 254.016
L270.847 255.744
L271.366 257.472
L270.803 259.2
L267.348 264.384
L266.543 266.112
L265.998 267.84
L265.678 269.568
L265.579 271.296
L265.824 273.218
L266.153 274.752
L266.918 276.48
L268.185 278.208
L269.28 279.217
L271.008 280.31
L271.008 280.31" style="fill:none;stroke:#000000;"/>
    <path clip-path="url(#p23ab9b749c)" d="
M234.72 261.529
L236.448 262.256
L238.176 262.355
L239.904 261.854
L241.147 260.928
L241.632 260.346
L242.458 259.2
L242.941 257.472
L242.812 255.744
L241.936 254.016
L241.632 253.661
L239.904 252.356
L239.625 252.288
L238.176 251.836
L236.448 252.027
L235.95 252.288
L234.72 252.813
L233.451 254.016
L232.992 254.815
L232.498 255.744
L232.255 257.472
L232.753 259.2
L232.992 259.561
L234.001 260.928
L234.72 261.529" style="fill:none;stroke:#000000;"/>
    <path clip-path="url(#p23ab9b749c)" d="
M215.712 223.54
L217.44 223.918
L219.168 223.787
L220.896 223.106
L221.213 222.912
L222.624 221.775
L223.17 221.184
L224.025 219.456
L224.227 217.728
L223.981 216
L223.071 214.272
L222.624 213.793
L221.08 212.544
L220.896 212.429
L219.168 211.706
L217.44 211.553
L215.712 211.924
L214.67 212.544
L213.984 212.908
L212.671 214.272
L212.256 215.085
L211.777 216
L211.475 217.728
L211.779 219.456
L212.256 220.374
L212.666 221.184
L213.984 222.559
L214.649 222.912
L215.712 223.54" style="fill:none;stroke:#000000;"/>
    <path clip-path="url(#p23ab9b749c)" d="
M407.52 216.319
L409.248 217.3
L410.976 217.26
L412.704 216.099
L412.801 216
L413.886 214.272
L413.881 212.544
L412.85 210.816
L412.704 210.594
L411.685 209.088
L412.704 207.417
L412.737 207.36
L413.01 205.632
L412.704 204.778
L412.463 203.904
L410.976 202.297
L410.637 202.176
L409.248 201.413
L407.52 201.464
L406.546 202.176
L405.792 202.701
L404.92 203.904
L404.439 205.632
L404.667 207.36
L405.792 208.902
L405.981 209.088
L406.948 210.816
L406.129 212.544
L406.157 214.272
L407.19 216
L407.52 216.319" style="fill:none;stroke:#000000;"/>
    <path clip-path="url(#p23ab9b749c)" d="
M404.064 197.108
L405.792 197.991
L407.52 197.389
L407.857 196.992
L409.063 195.264
L409.153 193.536
L408.304 191.808
L407.52 191.11
L405.792 190.528
L404.064 191.101
L403.303 191.808
L402.477 193.536
L402.608 195.264
L403.96 196.992
L404.064 197.108" style="fill:none;stroke:#000000;"/>
    <path clip-path="url(#p23ab9b749c)" d="
M220.896 181.692
L222.624 182.509
L224.352 182.638
L226.08 182.198
L227.225 181.44
L227.808 180.949
L228.781 179.712
L229.325 177.984
L229.321 176.256
L228.786 174.528
L227.808 173.303
L227.312 172.8
L226.08 171.928
L224.352 171.418
L222.624 171.472
L220.896 172.167
L220.117 172.8
L219.168 173.93
L218.748 174.528
L218.174 176.256
L218.254 177.984
L219.013 179.712
L219.168 179.935
L220.595 181.44
L220.896 181.692" style="fill:none;stroke:#000000;"/>
    <path clip-path="url(#p23ab9b749c)" d="
M398.88 181.774
L400.423 181.44
L400.608 181.42
L402.289 179.712
L402.336 179.251
L402.592 177.984
L402.336 177.45
L401.84 176.256
L400.608 175.191
L398.88 174.889
L397.152 175.693
L396.583 176.256
L395.766 177.984
L396.053 179.712
L397.152 180.996
L398.201 181.44
L398.88 181.774" style="fill:none;stroke:#000000;"/>
    <path clip-path="url(#p23ab9b749c)" d="
M386.784 162.956
L388.512 163.266
L389.989 162.432
L390.24 162.273
L391.393 160.704
L391.382 158.976
L390.24 157.459
L389.914 157.248
L388.512 156.449
L386.784 156.746
L386.109 157.248
L385.056 158.702
L384.886 158.976
L384.893 160.704
L385.056 160.974
L386.1 162.432
L386.784 162.956" style="fill:none;stroke:#000000;"/>
    <path clip-path="url(#p23ab9b749c)" d="
M243.36 152.628
L245.088 152.886
L246.816 152.615
L247.944 152.064
L248.544 151.775
L250.043 150.336
L250.272 149.96
L251.018 148.608
L251.37 146.88
L251.231 145.152
L250.508 143.424
L250.272 143.109
L249.15 141.696
L248.544 141.2
L246.816 140.289
L245.088 140.021
L243.36 140.146
L241.632 140.812
L240.544 141.696
L239.904 142.433
L239.183 143.424
L238.596 145.152
L238.54 146.88
L238.951 148.608
L239.904 150.162
L240.035 150.336
L241.632 151.815
L242.235 152.064
L243.36 152.628" style="fill:none;stroke:#000000;"/>
    <path clip-path="url(#p23ab9b749c)" d="
M366.048 145.512
L367.776 146.522
L369.504 146.711
L371.232 146.346
L372.77 145.152
L372.96 144.941
L373.967 143.424
L374.268 141.696
L373.933 139.968
L372.96 138.575
L372.661 138.24
L371.232 137.158
L369.504 136.768
L367.776 136.964
L366.048 138.001
L365.784 138.24
L364.576 139.968
L364.322 141.696
L364.551 143.424
L365.672 145.152
L366.048 145.512" style="fill:none;stroke:#000000;"/>
    <path clip-path="url(#p23ab9b749c)" d="
M341.856 130.331
L343.584 131.118
L345.312 131.019
L347.04 129.755
L347.176 129.6
L348.081 127.872
L347.914 126.144
L347.04 124.902
L346.534 124.416
L345.312 123.587
L343.584 123.446
L341.856 124.408
L341.847 124.416
L340.489 126.144
L340.359 127.872
L341.125 129.6
L341.856 130.331" style="fill:none;stroke:#000000;"/>
    <path clip-path="url(#p23ab9b749c)" d="
M274.464 128.106
L276.192 128.334
L277.089 127.872
L277.92 127.466
L279.002 126.144
L279.278 124.416
L278.509 122.688
L277.92 122.095
L276.192 121.218
L274.464 121.372
L272.871 122.688
L272.736 123.004
L272.03 124.416
L272.376 126.144
L272.736 126.657
L274.119 127.872
L274.464 128.106" style="fill:none;stroke:#000000;"/>
    <path clip-path="url(#p23ab9b749c)" d="
M310.752 123.247
L312.48 123.674
L314.208 123.169
L314.824 122.688
L315.936 121.316
L316.16 120.96
L316.489 119.232
L315.936 117.876
L315.828 117.504
L314.208 115.965
L313.257 115.776
L312.48 115.534
L311.584 115.776
L310.752 115.913
L309.031 117.504
L309.024 117.526
L308.307 119.232
L308.623 120.96
L309.024 121.572
L310.005 122.688
L310.752 123.247" style="fill:none;stroke:#000000;"/>
   </g>
   <g id="LineCollection_4">
    <path clip-path="url(#p23ab9b749c)" d="
M272.736 275.466
L274.464 276.447
L276.192 276.059
L277.379 274.752
L277.39 273.024
L276.192 271.603
L274.673 271.296
L274.464 271.224
L274.328 271.296
L272.736 272.141
L272.095 273.024
L272.147 274.752
L272.736 275.466" style="fill:none;stroke:#000000;"/>
    <path clip-path="url(#p23ab9b749c)" d="
M309.024 271.869
L310.752 271.989
L312.097 271.296
L312.48 271.107
L313.836 269.568
L314.132 267.84
L313.814 266.112
L312.48 264.488
L312.267 264.384
L310.752 263.525
L309.024 263.557
L307.633 264.384
L307.296 264.6
L306.171 266.112
L305.863 267.84
L306.266 269.568
L307.296 270.775
L308.045 271.296
L309.024 271.869" style="fill:none;stroke:#000000;"/>
    <path clip-path="url(#p23ab9b749c)" d="
M236.448 258.814
L238.176 258.853
L239.362 257.472
L238.176 256.027
L236.448 256.07
L235.316 257.472
L236.448 258.814" style="fill:none;stroke:#000000;"/>
    <path clip-path="url(#p23ab9b749c)" d="
M334.944 247.342
L336.672 247.206
L336.885 247.104
L338.4 246.551
L339.629 245.376
L340.128 244.347
L340.51 243.648
L340.722 241.92
L340.192 240.192
L340.128 240.078
L339.033 238.464
L338.4 237.825
L336.672 236.951
L334.944 236.737
L333.216 236.934
L331.488 237.848
L330.827 238.464
L329.898 240.192
L329.76 241.79
L329.745 241.92
L329.76 241.969
L330.062 243.648
L331.187 245.376
L331.488 245.644
L333.216 246.87
L334.15 247.104
L334.944 247.342" style="fill:none;stroke:#000000;"/>
    <path clip-path="url(#p23ab9b749c)" d="
M288.288 242.236
L290.016 242.682
L291.744 243.029
L293.472 243.246
L295.2 243.342
L296.928 243.32
L298.656 243.172
L300.384 242.884
L302.112 242.429
L305.568 241.072
L310.752 238.145
L312.85 236.736
L314.94 235.008
L316.615 233.28
L319.142 229.824
L320.086 228.096
L321.12 225.32
L321.36 224.64
L323.797 219.456
L324.576 217.984
L324.943 217.728
L326.304 216.97
L328.032 216.487
L333.216 215.738
L334.944 215.261
L336.683 214.272
L338.627 212.544
L339.702 210.816
L340.08 209.088
L340.059 207.36
L339.611 205.632
L338.361 203.904
L336.672 202.471
L335.859 202.176
L334.944 201.721
L333.216 201.372
L331.488 201.381
L329.76 201.656
L326.304 202.603
L324.576 202.404
L324.234 202.176
L322.91 200.448
L322.848 200.175
L322.661 198.72
L323.051 195.264
L323.144 193.536
L323.09 191.808
L322.451 188.352
L321.7 186.624
L320.519 184.896
L319.392 183.765
L317.664 182.533
L315.936 181.797
L313.478 181.44
L312.48 181.369
L310.752 181.512
L309.024 181.827
L303.84 183.401
L302.112 183.635
L300.384 183.546
L298.624 183.168
L293.472 181.564
L290.016 181.031
L288.288 181.159
L286.56 181.564
L284.832 182.207
L283.104 183.283
L281.144 184.896
L279.577 186.624
L277.005 190.08
L275.78 191.808
L274.326 193.536
L272.419 195.264
L271.008 196.288
L269.28 197.865
L268.5 198.72
L267.188 200.448
L266.182 202.176
L264.928 205.632
L264.629 207.36
L264.5 209.088
L264.505 210.816
L264.869 214.272
L265.628 217.728
L267.162 222.912
L268.543 226.368
L270.348 229.824
L271.537 231.552
L273.019 233.28
L276.192 236.335
L277.92 237.735
L279.648 238.89
L282.105 240.192
L283.104 240.679
L284.832 241.344
L288.288 242.236
L288.288 242.236" style="fill:none;stroke:#000000;"/>
    <path clip-path="url(#p23ab9b749c)" d="
M217.44 219.59
L217.634 219.456
L219.099 217.728
L217.696 216
L217.44 215.822
L216.984 216
L215.712 216.423
L214.806 217.728
L215.712 219.018
L217.093 219.456
L217.44 219.59" style="fill:none;stroke:#000000;"/>
    <path clip-path="url(#p23ab9b749c)" d="
M409.248 214.387
L410.976 214.276
L410.98 214.272
L410.976 214.242
L409.248 213.439
L409.132 214.272
L409.248 214.387" style="fill:none;stroke:#000000;"/>
    <path clip-path="url(#p23ab9b749c)" d="
M409.248 207.363
L409.252 207.36
L410.491 205.632
L409.248 204.398
L407.673 205.632
L409.242 207.36
L409.248 207.363" style="fill:none;stroke:#000000;"/>
    <path clip-path="url(#p23ab9b749c)" d="
M405.792 195.017
L407.072 193.536
L405.792 192.327
L404.508 193.536
L405.792 195.017" style="fill:none;stroke:#000000;"/>
    <path clip-path="url(#p23ab9b749c)" d="
M222.624 178.183
L224.352 178.066
L224.442 177.984
L225.495 176.256
L224.352 175
L222.624 174.875
L221.344 176.256
L222.408 177.984
L222.624 178.183" style="fill:none;stroke:#000000;"/>
    <path clip-path="url(#p23ab9b749c)" d="
M398.88 179.318
L400.206 177.984
L398.88 176.895
L397.789 177.984
L398.88 179.318" style="fill:none;stroke:#000000;"/>
    <path clip-path="url(#p23ab9b749c)" d="
M388.512 160.733
L388.543 160.704
L388.744 158.976
L388.512 158.76
L388.156 158.976
L388.462 160.704
L388.512 160.733" style="fill:none;stroke:#000000;"/>
    <path clip-path="url(#p23ab9b749c)" d="
M243.36 147.595
L245.088 147.995
L246.314 146.88
L246.58 145.152
L245.088 143.693
L243.36 144.041
L242.342 145.152
L242.676 146.88
L243.36 147.595" style="fill:none;stroke:#000000;"/>
    <path clip-path="url(#p23ab9b749c)" d="
M369.504 143.386
L371.193 141.696
L369.504 139.98
L367.788 141.696
L369.504 143.386" style="fill:none;stroke:#000000;"/>
    <path clip-path="url(#p23ab9b749c)" d="
M343.584 128.499
L345.038 127.872
L343.584 126.549
L342.961 127.872
L343.584 128.499" style="fill:none;stroke:#000000;"/>
    <path clip-path="url(#p23ab9b749c)" d="
M276.192 125.64
L277.208 124.416
L276.192 123.361
L274.652 124.416
L276.192 125.64" style="fill:none;stroke:#000000;"/>
    <path clip-path="url(#p23ab9b749c)" d="
M312.48 120.904
L314.119 119.232
L312.48 117.607
L310.83 119.232
L312.48 120.904" style="fill:none;stroke:#000000;"/>
   </g>
   <g id="LineCollection_5">
    <path clip-path="url(#p23ab9b749c)" d="
M309.024 268.138
L310.752 269.256
L311.791 267.84
L310.752 266.739
L309.024 267.632
L308.852 267.84
L309.024 268.138" style="fill:none;stroke:#000000;"/>
    <path clip-path="url(#p23ab9b749c)" d="
M334.944 243.877
L336.672 244.495
L337.568 243.648
L337.729 241.92
L336.672 240.853
L334.944 241.432
L334.486 241.92
L334.705 243.648
L334.944 243.877" style="fill:none;stroke:#000000;"/>
    <path clip-path="url(#p23ab9b749c)" d="
M288.288 233.372
L290.016 234.023
L291.744 234.437
L293.472 234.666
L295.2 234.665
L296.928 234.43
L298.656 233.913
L300.201 233.28
L300.384 233.213
L302.112 232.569
L303.84 231.644
L303.985 231.552
L305.568 230.575
L306.496 229.824
L307.296 229.17
L308.396 228.096
L309.024 227.416
L309.927 226.368
L310.752 225.134
L311.095 224.64
L312.047 222.912
L312.48 221.753
L312.737 221.184
L313.299 219.456
L313.633 217.728
L313.779 216
L313.75 214.272
L313.535 212.544
L313.086 210.816
L312.48 209.403
L312.363 209.088
L311.441 207.36
L310.752 206.444
L310.12 205.632
L309.024 204.532
L308.289 203.904
L307.296 203.051
L306.159 202.176
L305.568 201.709
L303.84 200.727
L303.102 200.448
L302.112 200.021
L300.384 199.506
L298.656 199.164
L296.946 198.72
L296.928 198.712
L295.2 198.097
L293.472 197.71
L291.744 197.699
L290.016 198.437
L289.717 198.72
L288.288 199.431
L286.943 200.448
L286.56 200.656
L284.832 202.032
L284.568 202.176
L283.104 202.955
L281.376 203.055
L279.648 202.663
L278.041 202.176
L277.92 202.142
L276.192 201.897
L275.269 202.176
L274.464 202.3
L272.736 203.543
L272.416 203.904
L271.479 205.632
L271.372 207.36
L271.82 209.088
L272.736 210.608
L272.9 210.816
L274.298 212.544
L274.464 212.776
L275.683 214.272
L276.192 215.131
L276.652 216
L276.69 217.728
L276.358 219.456
L276.192 220.214
L275.973 221.184
L275.697 222.912
L275.925 224.64
L276.192 225.214
L276.604 226.368
L277.92 227.897
L278.205 228.096
L279.648 229.167
L281.354 229.824
L281.376 229.836
L283.104 230.665
L284.807 231.552
L284.832 231.568
L286.56 232.618
L288.093 233.28
L288.288 233.372" style="fill:none;stroke:#000000;"/>
    <path clip-path="url(#p23ab9b749c)" d="
M217.44 218.154
L217.844 217.728
L217.44 217.3
L216.941 217.728
L217.44 218.154" style="fill:none;stroke:#000000;"/>
    <path clip-path="url(#p23ab9b749c)" d="
M333.216 209.966
L334.944 210.548
L336.541 209.088
L336.6 207.36
L334.944 205.807
L333.216 206.394
L332.287 207.36
L332.36 209.088
L333.216 209.966" style="fill:none;stroke:#000000;"/>
    <path clip-path="url(#p23ab9b749c)" d="
M288.288 194.753
L290.016 195.085
L291.744 194.73
L292.583 193.536
L293.337 191.808
L293.442 190.08
L293.108 188.352
L291.744 186.84
L291.31 186.624
L290.016 185.969
L288.288 186.271
L287.759 186.624
L286.56 187.779
L286.099 188.352
L285.657 190.08
L286.044 191.808
L286.56 192.839
L287.167 193.536
L288.288 194.753" style="fill:none;stroke:#000000;"/>
    <path clip-path="url(#p23ab9b749c)" d="
M312.48 192.887
L314.208 193.08
L315.936 192.099
L316.188 191.808
L317.232 190.08
L317.103 188.352
L315.936 186.989
L314.993 186.624
L314.208 186.246
L312.872 186.624
L312.48 186.698
L310.842 188.352
L310.752 189.207
L310.514 190.08
L310.752 190.716
L311.188 191.808
L312.48 192.887" style="fill:none;stroke:#000000;"/>
    <path clip-path="url(#p23ab9b749c)" d="
M369.504 142.914
L370.721 141.696
L369.504 140.46
L368.268 141.696
L369.504 142.914" style="fill:none;stroke:#000000;"/>
    <path clip-path="url(#p23ab9b749c)" d="
M312.48 120.267
L313.495 119.232
L312.48 118.226
L311.458 119.232
L312.48 120.267" style="fill:none;stroke:#000000;"/>
   </g>
   <g id="LineCollection_6">
    <path clip-path="url(#p23ab9b749c)" d="
M293.472 230.294
L295.2 230.218
L295.948 229.824
L296.928 229.273
L298.242 228.096
L298.656 227.772
L300.384 227.28
L301.998 226.368
L302.112 226.316
L303.84 224.886
L304.093 224.64
L305.474 222.912
L305.568 222.723
L306.503 221.184
L307.085 219.456
L307.296 218.178
L307.41 217.728
L307.526 216
L307.296 214.36
L307.288 214.272
L306.882 212.544
L306.037 210.816
L305.568 210.159
L304.815 209.088
L303.84 208.095
L302.953 207.36
L302.112 206.732
L300.384 205.841
L299.716 205.632
L298.656 205.175
L296.928 204.779
L295.2 204.699
L293.472 204.878
L291.744 205.371
L291.203 205.632
L290.016 206.073
L288.288 207.319
L288.241 207.36
L286.56 208.949
L286.43 209.088
L285.166 210.816
L284.832 211.673
L284.392 212.544
L283.932 214.272
L283.801 216
L283.912 217.728
L284.239 219.456
L284.783 221.184
L284.832 221.297
L285.423 222.912
L286.56 224.464
L286.682 224.64
L288.263 226.368
L288.288 226.391
L290.016 228.003
L290.083 228.096
L291.744 229.553
L292.433 229.824
L293.472 230.294" style="fill:none;stroke:#000000;"/>
    <path clip-path="url(#p23ab9b749c)" d="
M279.648 225.339
L281.376 225.887
L282.856 224.64
L282.859 222.912
L281.376 221.686
L279.648 222.279
L279.097 222.912
L279.011 224.64
L279.648 225.339" style="fill:none;stroke:#000000;"/>
    <path clip-path="url(#p23ab9b749c)" d="
M276.192 208.27
L277.218 207.36
L277.476 205.632
L276.192 204.476
L274.464 205.486
L274.332 205.632
L274.464 206.467
L274.66 207.36
L276.192 208.27" style="fill:none;stroke:#000000;"/>
    <path clip-path="url(#p23ab9b749c)" d="
M290.016 190.636
L290.571 190.08
L290.346 188.352
L290.016 188.059
L289.498 188.352
L289.141 190.08
L290.016 190.636" style="fill:none;stroke:#000000;"/>
    <path clip-path="url(#p23ab9b749c)" d="
M314.208 190.393
L314.555 190.08
L314.603 188.352
L314.208 188.014
L313.769 188.352
L313.814 190.08
L314.208 190.393" style="fill:none;stroke:#000000;"/>
   </g>
   <g id="LineCollection_7">
    <path clip-path="url(#p23ab9b749c)" d="
M293.472 227.65
L295.2 227.466
L295.887 226.368
L295.2 225.147
L293.472 224.932
L292.515 226.368
L293.472 227.65" style="fill:none;stroke:#000000;"/>
    <path clip-path="url(#p23ab9b749c)" d="
M291.744 222.941
L293.472 224.229
L295.2 224.24
L296.928 224.214
L298.656 224.266
L300.384 223.892
L301.541 222.912
L302.112 221.871
L302.57 221.184
L303.164 219.456
L303.771 217.728
L303.84 216.561
L303.927 216
L303.84 215.735
L303.576 214.272
L302.434 212.544
L302.112 212.113
L301.42 210.816
L300.384 209.781
L299.137 209.088
L298.656 208.786
L296.928 208.374
L295.2 208.398
L293.472 208.581
L292.22 209.088
L291.744 209.197
L290.016 210.441
L289.649 210.816
L288.535 212.544
L288.288 213.635
L288.039 214.272
L287.851 216
L288.123 217.728
L288.288 218.152
L288.638 219.456
L289.758 221.184
L290.016 221.493
L291.714 222.912
L291.744 222.941" style="fill:none;stroke:#000000;"/>
   </g>
   <g id="LineCollection_8">
    <path clip-path="url(#p23ab9b749c)" d="
M296.928 221.252
L298.656 222.138
L300.384 222.11
L301.243 221.184
L300.384 219.834
L299.883 219.456
L300.384 219.164
L301.678 217.728
L302.084 216
L300.624 214.272
L300.384 213.964
L300.17 212.544
L298.656 210.898
L297.436 210.816
L296.928 210.688
L296.529 210.816
L295.2 211.032
L293.472 210.84
L291.744 211.849
L291.115 212.544
L290.536 214.272
L290.117 216
L290.416 217.728
L291.744 219.305
L291.927 219.456
L293.472 220.793
L295.2 221.138
L296.413 221.184
L296.928 221.252" style="fill:none;stroke:#000000;"/>
   </g>
   <g id="LineCollection_9">
    <path clip-path="url(#p23ab9b749c)" d="
M293.472 218.556
L295.2 219.422
L296.928 218.874
L298.265 217.728
L298.656 216.018
L300.384 217.372
L301.571 216
L300.384 214.782
L298.656 215.988
L298.117 214.272
L298.656 212.79
L298.757 212.544
L298.656 212.434
L296.928 212.149
L296.278 212.544
L295.2 212.987
L294.8 212.544
L293.472 211.498
L292.358 212.544
L292.526 214.272
L291.744 215.423
L291.337 216
L291.744 216.655
L292.58 217.728
L293.472 218.556" style="fill:none;stroke:#000000;"/>
   </g>
   <g id="LineCollection_10">
    <path clip-path="url(#p23ab9b749c)" d="
M295.2 218.857
L296.483 217.728
L296.928 216.496
L297.306 216
L296.928 215.506
L295.2 214.272
L293.472 215.726
L293.238 216
L293.472 216.254
L293.973 217.728
L295.2 218.857" style="fill:none;stroke:#000000;"/>
   </g>
   <g id="LineCollection_11">
    <path clip-path="url(#p23ab9b749c)" d="
M295.2 217.728
L296.928 216
L295.2 214.272
L293.472 216
L295.2 217.728" style="fill:none;stroke:#000000;"/>
   </g>
   <g id="LineCollection_12">
    <path clip-path="url(#p23ab9b749c)" d="
M295.2 217.728
L296.928 216
L295.2 214.272
L293.472 216
L295.2 217.728" style="fill:none;stroke:#000000;"/>
   </g>
   <g id="LineCollection_13">
    <path clip-path="url(#p23ab9b749c)" d="
M295.2 217.728
L296.928 216
L295.2 214.272
L293.472 216
L295.2 217.728" style="fill:none;stroke:#000000;"/>
   </g>
   <g id="LineCollection_14">
    <path clip-path="url(#p23ab9b749c)" d="
M295.2 217.728
L296.928 216
L295.2 214.272
L293.472 216
L295.2 217.728" style="fill:none;stroke:#000000;"/>
   </g>
   <g id="LineCollection_15">
    <path clip-path="url(#p23ab9b749c)" d="
M295.2 217.728
L296.928 216
L295.2 214.272
L293.472 216
L295.2 217.728" style="fill:none;stroke:#000000;"/>
   </g>
   <g id="LineCollection_16">
    <path clip-path="url(#p23ab9b749c)" d="
M295.2 217.728
L296.928 216
L295.2 214.272
L293.472 216
L295.2 217.728" style="fill:none;stroke:#000000;"/>
   </g>
   <g id="LineCollection_17">
    <path clip-path="url(#p23ab9b749c)" d="
M295.2 217.728
L296.928 216
L295.2 214.272
L293.472 216
L295.2 217.728" style="fill:none;stroke:#000000;"/>
   </g>
   <g id="LineCollection_18">
    <path clip-path="url(#p23ab9b749c)" d="
M295.2 217.728
L296.928 216
L295.2 214.272
L293.472 216
L295.2 217.728" style="fill:none;stroke:#000000;"/>
   </g>
   <g id="LineCollection_19">
    <path clip-path="url(#p23ab9b749c)" d="
M295.2 217.728
L296.928 216
L295.2 214.272
L293.472 216
L295.2 217.728" style="fill:none;stroke:#000000;"/>
   </g>
   <g id="patch_4">
    <path d="
M122.4 43.2
L468 43.2
L468 43.2" style="fill:none;stroke:#000000;stroke-linecap:square;stroke-linejoin:miter;"/>
   </g>
   <g id="patch_5">
    <path d="
M468 388.8
L468 43.2
L468 43.2" style="fill:none;stroke:#000000;stroke-linecap:square;stroke-linejoin:miter;"/>
   </g>
   <g id="patch_6">
    <path d="
M122.4 388.8
L468 388.8
L468 388.8" style="fill:none;stroke:#000000;stroke-linecap:square;stroke-linejoin:miter;"/>
   </g>
   <g id="patch_7">
    <path d="
M122.4 388.8
L122.4 43.2
L122.4 43.2" style="fill:none;stroke:#000000;stroke-linecap:square;stroke-linejoin:miter;"/>
   </g>
   <g id="matplotlib.axis_1">
    <g id="xtick_1">
     <g id="line2d_1">
      <defs>
       <path d="
M0 0
L0 -4" id="mb1445623b5" style="stroke:#000000;stroke-width:0.5;"/>
      </defs>
      <g>
       <use style="stroke:#000000;stroke-width:0.5;" x="122.4" xlink:href="#mb1445623b5" y="388.8"/>
      </g>
     </g>
     <g id="line2d_2">
      <defs>
       <path d="
M0 0
L0 4" id="m3a68111ca7" style="stroke:#000000;stroke-width:0.5;"/>
      </defs>
      <g>
       <use style="stroke:#000000;stroke-width:0.5;" x="122.4" xlink:href="#m3a68111ca7" y="43.2"/>
      </g>
     </g>
     <g id="text_1">
      <!-- −1.5 -->
      <defs>
       <path d="
M10.5938 35.5
L73.1875 35.5
L73.1875 27.2031
L10.5938 27.2031
z
" id="BitstreamVeraSans-Roman-2212"/>
       <path d="
M12.4062 8.29688
L28.5156 8.29688
L28.5156 63.9219
L10.9844 60.4062
L10.9844 69.3906
L28.4219 72.9062
L38.2812 72.9062
L38.2812 8.29688
L54.3906 8.29688
L54.3906 0
L12.4062 0
z
" id="BitstreamVeraSans-Roman-31"/>
       <path d="
M10.6875 12.4062
L21 12.4062
L21 0
L10.6875 0
z
" id="BitstreamVeraSans-Roman-2e"/>
       <path d="
M10.7969 72.9062
L49.5156 72.9062
L49.5156 64.5938
L19.8281 64.5938
L19.8281 46.7344
Q21.9688 47.4688 24.1094 47.8281
Q26.2656 48.1875 28.4219 48.1875
Q40.625 48.1875 47.75 41.5
Q54.8906 34.8125 54.8906 23.3906
Q54.8906 11.625 47.5625 5.09375
Q40.2344 -1.42188 26.9062 -1.42188
Q22.3125 -1.42188 17.5469 -0.640625
Q12.7969 0.140625 7.71875 1.70312
L7.71875 11.625
Q12.1094 9.23438 16.7969 8.0625
Q21.4844 6.89062 26.7031 6.89062
Q35.1562 6.89062 40.0781 11.3281
Q45.0156 15.7656 45.0156 23.3906
Q45.0156 31 40.0781 35.4375
Q35.1562 39.8906 26.7031 39.8906
Q22.75 39.8906 18.8125 39.0156
Q14.8906 38.1406 10.7969 36.2812
z
" id="BitstreamVeraSans-Roman-35"/>
      </defs>
      <g transform="translate(108.99 401.918125)scale(0.12 -0.12)">
       <use xlink:href="#BitstreamVeraSans-Roman-2212"/>
       <use x="83.7890625" xlink:href="#BitstreamVeraSans-Roman-31"/>
       <use x="147.412109375" xlink:href="#BitstreamVeraSans-Roman-2e"/>
       <use x="179.19921875" xlink:href="#BitstreamVeraSans-Roman-35"/>
      </g>
     </g>
    </g>
    <g id="xtick_2">
     <g id="line2d_3">
      <g>
       <use style="stroke:#000000;stroke-width:0.5;" x="180.0" xlink:href="#mb1445623b5" y="388.8"/>
      </g>
     </g>
     <g id="line2d_4">
      <g>
       <use style="stroke:#000000;stroke-width:0.5;" x="180.0" xlink:href="#m3a68111ca7" y="43.2"/>
      </g>
     </g>
     <g id="text_2">
      <!-- −1.0 -->
      <defs>
       <path d="
M31.7812 66.4062
Q24.1719 66.4062 20.3281 58.9062
Q16.5 51.4219 16.5 36.375
Q16.5 21.3906 20.3281 13.8906
Q24.1719 6.39062 31.7812 6.39062
Q39.4531 6.39062 43.2812 13.8906
Q47.125 21.3906 47.125 36.375
Q47.125 51.4219 43.2812 58.9062
Q39.4531 66.4062 31.7812 66.4062
M31.7812 74.2188
Q44.0469 74.2188 50.5156 64.5156
Q56.9844 54.8281 56.9844 36.375
Q56.9844 17.9688 50.5156 8.26562
Q44.0469 -1.42188 31.7812 -1.42188
Q19.5312 -1.42188 13.0625 8.26562
Q6.59375 17.9688 6.59375 36.375
Q6.59375 54.8281 13.0625 64.5156
Q19.5312 74.2188 31.7812 74.2188" id="BitstreamVeraSans-Roman-30"/>
      </defs>
      <g transform="translate(166.464375 401.918125)scale(0.12 -0.12)">
       <use xlink:href="#BitstreamVeraSans-Roman-2212"/>
       <use x="83.7890625" xlink:href="#BitstreamVeraSans-Roman-31"/>
       <use x="147.412109375" xlink:href="#BitstreamVeraSans-Roman-2e"/>
       <use x="179.19921875" xlink:href="#BitstreamVeraSans-Roman-30"/>
      </g>
     </g>
    </g>
    <g id="xtick_3">
     <g id="line2d_5">
      <g>
       <use style="stroke:#000000;stroke-width:0.5;" x="237.6" xlink:href="#mb1445623b5" y="388.8"/>
      </g>
     </g>
     <g id="line2d_6">
      <g>
       <use style="stroke:#000000;stroke-width:0.5;" x="237.6" xlink:href="#m3a68111ca7" y="43.2"/>
      </g>
     </g>
     <g id="text_3">
      <!-- −0.5 -->
      <g transform="translate(224.19 401.918125)scale(0.12 -0.12)">
       <use xlink:href="#BitstreamVeraSans-Roman-2212"/>
       <use x="83.7890625" xlink:href="#BitstreamVeraSans-Roman-30"/>
       <use x="147.412109375" xlink:href="#BitstreamVeraSans-Roman-2e"/>
       <use x="179.19921875" xlink:href="#BitstreamVeraSans-Roman-35"/>
      </g>
     </g>
    </g>
    <g id="xtick_4">
     <g id="line2d_7">
      <g>
       <use style="stroke:#000000;stroke-width:0.5;" x="295.2" xlink:href="#mb1445623b5" y="388.8"/>
      </g>
     </g>
     <g id="line2d_8">
      <g>
       <use style="stroke:#000000;stroke-width:0.5;" x="295.2" xlink:href="#m3a68111ca7" y="43.2"/>
      </g>
     </g>
     <g id="text_4">
      <!-- 0.0 -->
      <g transform="translate(286.4521875 401.918125)scale(0.12 -0.12)">
       <use xlink:href="#BitstreamVeraSans-Roman-30"/>
       <use x="63.623046875" xlink:href="#BitstreamVeraSans-Roman-2e"/>
       <use x="95.41015625" xlink:href="#BitstreamVeraSans-Roman-30"/>
      </g>
     </g>
    </g>
    <g id="xtick_5">
     <g id="line2d_9">
      <g>
       <use style="stroke:#000000;stroke-width:0.5;" x="352.8" xlink:href="#mb1445623b5" y="388.8"/>
      </g>
     </g>
     <g id="line2d_10">
      <g>
       <use style="stroke:#000000;stroke-width:0.5;" x="352.8" xlink:href="#m3a68111ca7" y="43.2"/>
      </g>
     </g>
     <g id="text_5">
      <!-- 0.5 -->
      <g transform="translate(344.1778125 401.918125)scale(0.12 -0.12)">
       <use xlink:href="#BitstreamVeraSans-Roman-30"/>
       <use x="63.623046875" xlink:href="#BitstreamVeraSans-Roman-2e"/>
       <use x="95.41015625" xlink:href="#BitstreamVeraSans-Roman-35"/>
      </g>
     </g>
    </g>
    <g id="xtick_6">
     <g id="line2d_11">
      <g>
       <use style="stroke:#000000;stroke-width:0.5;" x="410.4" xlink:href="#mb1445623b5" y="388.8"/>
      </g>
     </g>
     <g id="line2d_12">
      <g>
       <use style="stroke:#000000;stroke-width:0.5;" x="410.4" xlink:href="#m3a68111ca7" y="43.2"/>
      </g>
     </g>
     <g id="text_6">
      <!-- 1.0 -->
      <g transform="translate(401.915625 401.918125)scale(0.12 -0.12)">
       <use xlink:href="#BitstreamVeraSans-Roman-31"/>
       <use x="63.623046875" xlink:href="#BitstreamVeraSans-Roman-2e"/>
       <use x="95.41015625" xlink:href="#BitstreamVeraSans-Roman-30"/>
      </g>
     </g>
    </g>
    <g id="xtick_7">
     <g id="line2d_13">
      <g>
       <use style="stroke:#000000;stroke-width:0.5;" x="468.0" xlink:href="#mb1445623b5" y="388.8"/>
      </g>
     </g>
     <g id="line2d_14">
      <g>
       <use style="stroke:#000000;stroke-width:0.5;" x="468.0" xlink:href="#m3a68111ca7" y="43.2"/>
      </g>
     </g>
     <g id="text_7">
      <!-- 1.5 -->
      <g transform="translate(459.64125 401.918125)scale(0.12 -0.12)">
       <use xlink:href="#BitstreamVeraSans-Roman-31"/>
       <use x="63.623046875" xlink:href="#BitstreamVeraSans-Roman-2e"/>
       <use x="95.41015625" xlink:href="#BitstreamVeraSans-Roman-35"/>
      </g>
     </g>
    </g>
   </g>
   <g id="matplotlib.axis_2">
    <g id="ytick_1">
     <g id="line2d_15">
      <defs>
       <path d="
M0 0
L4 0" id="m71e820122c" style="stroke:#000000;stroke-width:0.5;"/>
      </defs>
      <g>
       <use style="stroke:#000000;stroke-width:0.5;" x="122.4" xlink:href="#m71e820122c" y="388.8"/>
      </g>
     </g>
     <g id="line2d_16">
      <defs>
       <path d="
M0 0
L-4 0" id="m81ec2b1422" style="stroke:#000000;stroke-width:0.5;"/>
      </defs>
      <g>
       <use style="stroke:#000000;stroke-width:0.5;" x="468.0" xlink:href="#m81ec2b1422" y="388.8"/>
      </g>
     </g>
     <g id="text_8">
      <!-- −1.5 -->
      <g transform="translate(91.58 392.11125)scale(0.12 -0.12)">
       <use xlink:href="#BitstreamVeraSans-Roman-2212"/>
       <use x="83.7890625" xlink:href="#BitstreamVeraSans-Roman-31"/>
       <use x="147.412109375" xlink:href="#BitstreamVeraSans-Roman-2e"/>
       <use x="179.19921875" xlink:href="#BitstreamVeraSans-Roman-35"/>
      </g>
     </g>
    </g>
    <g id="ytick_2">
     <g id="line2d_17">
      <g>
       <use style="stroke:#000000;stroke-width:0.5;" x="122.4" xlink:href="#m71e820122c" y="331.2"/>
      </g>
     </g>
     <g id="line2d_18">
      <g>
       <use style="stroke:#000000;stroke-width:0.5;" x="468.0" xlink:href="#m81ec2b1422" y="331.2"/>
      </g>
     </g>
     <g id="text_9">
      <!-- −1.0 -->
      <g transform="translate(91.32875 334.51125)scale(0.12 -0.12)">
       <use xlink:href="#BitstreamVeraSans-Roman-2212"/>
       <use x="83.7890625" xlink:href="#BitstreamVeraSans-Roman-31"/>
       <use x="147.412109375" xlink:href="#BitstreamVeraSans-Roman-2e"/>
       <use x="179.19921875" xlink:href="#BitstreamVeraSans-Roman-30"/>
      </g>
     </g>
    </g>
    <g id="ytick_3">
     <g id="line2d_19">
      <g>
       <use style="stroke:#000000;stroke-width:0.5;" x="122.4" xlink:href="#m71e820122c" y="273.6"/>
      </g>
     </g>
     <g id="line2d_20">
      <g>
       <use style="stroke:#000000;stroke-width:0.5;" x="468.0" xlink:href="#m81ec2b1422" y="273.6"/>
      </g>
     </g>
     <g id="text_10">
      <!-- −0.5 -->
      <g transform="translate(91.58 276.91125)scale(0.12 -0.12)">
       <use xlink:href="#BitstreamVeraSans-Roman-2212"/>
       <use x="83.7890625" xlink:href="#BitstreamVeraSans-Roman-30"/>
       <use x="147.412109375" xlink:href="#BitstreamVeraSans-Roman-2e"/>
       <use x="179.19921875" xlink:href="#BitstreamVeraSans-Roman-35"/>
      </g>
     </g>
    </g>
    <g id="ytick_4">
     <g id="line2d_21">
      <g>
       <use style="stroke:#000000;stroke-width:0.5;" x="122.4" xlink:href="#m71e820122c" y="216.0"/>
      </g>
     </g>
     <g id="line2d_22">
      <g>
       <use style="stroke:#000000;stroke-width:0.5;" x="468.0" xlink:href="#m81ec2b1422" y="216.0"/>
      </g>
     </g>
     <g id="text_11">
      <!-- 0.0 -->
      <g transform="translate(100.904375 219.31125)scale(0.12 -0.12)">
       <use xlink:href="#BitstreamVeraSans-Roman-30"/>
       <use x="63.623046875" xlink:href="#BitstreamVeraSans-Roman-2e"/>
       <use x="95.41015625" xlink:href="#BitstreamVeraSans-Roman-30"/>
      </g>
     </g>
    </g>
    <g id="ytick_5">
     <g id="line2d_23">
      <g>
       <use style="stroke:#000000;stroke-width:0.5;" x="122.4" xlink:href="#m71e820122c" y="158.4"/>
      </g>
     </g>
     <g id="line2d_24">
      <g>
       <use style="stroke:#000000;stroke-width:0.5;" x="468.0" xlink:href="#m81ec2b1422" y="158.4"/>
      </g>
     </g>
     <g id="text_12">
      <!-- 0.5 -->
      <g transform="translate(101.155625 161.71125)scale(0.12 -0.12)">
       <use xlink:href="#BitstreamVeraSans-Roman-30"/>
       <use x="63.623046875" xlink:href="#BitstreamVeraSans-Roman-2e"/>
       <use x="95.41015625" xlink:href="#BitstreamVeraSans-Roman-35"/>
      </g>
     </g>
    </g>
    <g id="ytick_6">
     <g id="line2d_25">
      <g>
       <use style="stroke:#000000;stroke-width:0.5;" x="122.4" xlink:href="#m71e820122c" y="100.8"/>
      </g>
     </g>
     <g id="line2d_26">
      <g>
       <use style="stroke:#000000;stroke-width:0.5;" x="468.0" xlink:href="#m81ec2b1422" y="100.8"/>
      </g>
     </g>
     <g id="text_13">
      <!-- 1.0 -->
      <g transform="translate(101.43125 104.11125)scale(0.12 -0.12)">
       <use xlink:href="#BitstreamVeraSans-Roman-31"/>
       <use x="63.623046875" xlink:href="#BitstreamVeraSans-Roman-2e"/>
       <use x="95.41015625" xlink:href="#BitstreamVeraSans-Roman-30"/>
      </g>
     </g>
    </g>
    <g id="ytick_7">
     <g id="line2d_27">
      <g>
       <use style="stroke:#000000;stroke-width:0.5;" x="122.4" xlink:href="#m71e820122c" y="43.2"/>
      </g>
     </g>
     <g id="line2d_28">
      <g>
       <use style="stroke:#000000;stroke-width:0.5;" x="468.0" xlink:href="#m81ec2b1422" y="43.2"/>
      </g>
     </g>
     <g id="text_14">
      <!-- 1.5 -->
      <g transform="translate(101.6825 46.51125)scale(0.12 -0.12)">
       <use xlink:href="#BitstreamVeraSans-Roman-31"/>
       <use x="63.623046875" xlink:href="#BitstreamVeraSans-Roman-2e"/>
       <use x="95.41015625" xlink:href="#BitstreamVeraSans-Roman-35"/>
      </g>
     </g>
    </g>
   </g>
  </g>
 </g>
 <defs>
  <clipPath id="p23ab9b749c">
   <rect height="345.6" width="345.6" x="122.4" y="43.2"/>
  </clipPath>
 </defs>
</svg>
