<?xml version="1.0" encoding="utf-8" standalone="no"?>
<!DOCTYPE svg PUBLIC "-//W3C//DTD SVG 1.1//EN"
  "http://www.w3.org/Graphics/SVG/1.1/DTD/svg11.dtd">
<!-- Created with matplotlib (http://matplotlib.org/) -->
<svg height="432pt" version="1.1" viewBox="0 0 576 432" width="576pt" xmlns="http://www.w3.org/2000/svg" xmlns:xlink="http://www.w3.org/1999/xlink">
 <defs>
  <style type="text/css">
*{stroke-linecap:butt;stroke-linejoin:round;}
  </style>
 </defs>
 <g id="figure_1">
  <g id="patch_1">
   <path d="
M0 432
L576 432
L576 0
L0 0
z
" style="fill:#ffffff;"/>
  </g>
  <g id="axes_1">
   <g id="patch_2">
    <path d="
M122.4 388.8
L468 388.8
L468 43.2
L122.4 43.2
z
" style="fill:#ffffff;"/>
   </g>
   <g id="patch_3">
    <path clip-path="url(#p23ab9b749c)" d="
M295.2 331.2
C325.751 331.2 355.056 319.062 376.659 297.459
C398.262 275.856 410.4 246.551 410.4 216
C410.4 185.449 398.262 156.144 376.659 134.541
C355.056 112.938 325.751 100.8 295.2 100.8
C264.649 100.8 235.344 112.938 213.741 134.541
C192.138 156.144 180 185.449 180 216
C180 246.551 192.138 275.856 213.741 297.459
C235.344 319.062 264.649 331.2 295.2 331.2
L295.2 331.2" style="fill:none;stroke:#000000;stroke-dasharray:6.000000,6.000000;stroke-dashoffset:0.0;stroke-linejoin:miter;"/>
   </g>
   <g id="LineCollection_1">
    <path clip-path="url(#p23ab9b749c)" d="
M284.832 319.84
L286.56 320.027
L287.399 317.952
L288.288 316.141
L290.016 315.983
L291.744 316.182
L293.472 316.175
L295.2 315.871
L300.384 315.485
L302.112 314.779
L302.507 314.496
L301.691 312.768
L302.112 311.858
L307.296 311.312
L312.48 310.539
L315.936 309.869
L321.12 308.618
L326.304 307.069
L331.488 305.29
L336.672 303.186
L337.357 304.128
L336.672 305.181
L334.944 304.46
L334.213 305.856
L334.944 306.831
L336.672 306.511
L341.856 303.842
L350.496 299.216
L355.68 295.999
L359.136 293.617
L363.494 290.304
L366.048 288.176
L369.504 285.029
L372.96 281.547
L373.701 278.208
L372.745 276.48
L372.96 275.44
L375.019 273.024
L378.144 268.984
L380.151 266.112
L382.353 262.656
L385.262 257.472
L386.985 254.016
L388.536 250.56
L390.24 246.294
L391.211 243.648
L392.884 238.464
L393.861 235.008
L393.792 233.28
L395.578 229.824
L396.684 228.096
L397.164 228.096
L398.965 229.824
L399.086 235.008
L399.347 236.736
L400.608 237.887
L404.064 237.724
L405.792 236.022
L407.52 235.956
L408.428 236.736
L407.233 238.464
L407.52 240.282
L408.947 240.192
L409.248 240.015
L410.976 239.978
L412.704 239.782
L416.16 241.992
L416.582 241.92
L419.616 239.773
L421.344 238.46
L424.8 238.2
L426.528 236.481
L426.883 236.736
L429.984 239.224
L432.439 236.736
L432.618 235.008
L434.291 233.28
L434.446 231.552
L436.086 229.824
L436.552 222.912
L436.8 217.728
L436.673 216
L437.509 212.544
L438.064 209.088
L438.394 205.632
L438.527 202.176
L438.491 198.72
L438.181 193.536
L437.636 188.352
L436.88 183.168
L435.931 177.984
L434.675 172.8
L433.44 168.789
L432.42 165.888
L431.712 164.159
L429.984 163.88
L425.478 158.976
L425.354 157.248
L423.072 154.777
L421.344 156.094
L419.616 155.83
L419.322 155.52
L419.213 153.792
L417.888 152.33
L416.302 152.064
L416.16 151.694
L416.07 150.336
L414.982 148.608
L412.076 141.696
L409.248 135.733
L407.52 132.439
L405.792 129.436
L403.699 126.144
L401.203 122.688
L398.332 119.232
L395.424 116.197
L393.097 114.048
L390.24 111.692
L386.23 108.864
L383.328 107.087
L379.872 105.22
L376.416 103.592
L372.44 101.952
L369.504 100.853
L367.723 100.224
L366.048 98.4063
L362.592 96.3176
L359.136 94.5284
L355.68 93.0247
L352.224 91.7749
L347.04 90.3009
L341.856 89.2715
L338.4 88.791
L333.216 88.3216
L328.032 88.0769
L326.283 88.128
L324.576 89.4991
L322.848 88.02
L322.822 88.128
L321.994 91.584
L323.379 93.312
L322.848 95.8291
L318.675 95.04
L310.752 93.7388
L309.024 94.0068
L283.104 92.8391
L279.648 92.9103
L276.192 93.182
L272.736 93.6589
L269.28 94.3929
L265.824 95.4136
L262.275 96.768
L258.912 98.3555
L258.654 98.496
L257.184 98.7696
L255.456 97.9429
L252 98.5367
L250.272 99.9726
L248.544 100.312
L245.088 102.256
L241.632 104.338
L241.001 107.136
L239.904 108.151
L238.176 107.023
L238.054 107.136
L237.645 108.864
L236.873 110.592
L236.448 110.973
L234.72 109.519
L233.607 110.592
L233.416 112.32
L231.611 114.048
L231.414 115.776
L231.264 115.914
L224.352 116.376
L222.624 114.942
L221.786 115.776
L223.217 117.504
L222.624 118.077
L220.896 118.207
L219.168 116.779
L217.44 118.49
L213.984 118.802
L212.256 120.533
L210.528 119.145
L210.442 119.232
L209.187 120.96
L210.253 122.688
L208.417 124.416
L208.284 126.144
L206.596 127.872
L206.479 129.6
L208.8 132.261
L210.971 134.784
L207.072 138.836
L205.389 139.968
L205.186 141.696
L204.38 143.424
L205.344 144.919
L205.761 145.152
L205.957 146.88
L203.429 150.336
L201.888 152.716
L201.163 148.608
L200.16 146.865
L200.05 146.88
L198.432 147.545
L196.704 149.347
L194.976 150.226
L193.865 150.336
L192.305 152.064
L193.248 152.62
L194.902 153.792
L192.821 157.248
L191.056 160.704
L189.584 164.16
L189.792 164.215
L190.524 165.888
L190.425 167.616
L190.516 169.344
L190.415 171.072
L188.847 172.8
L188.064 173.425
L187.015 174.528
L188.488 176.256
L188.064 176.733
L186.336 176.94
L185.348 177.984
L186.336 179.115
L187.434 179.712
L186.336 180.263
L185.229 181.44
L185.174 183.168
L186.336 184.504
L188.064 181.793
L189.792 182.035
L190.726 183.168
L190.703 184.896
L190.37 186.624
L189.792 187.249
L188.064 185.708
L186.628 186.624
L186.336 187.44
L184.608 188.042
L184.503 188.352
L184.469 190.08
L185.969 191.808
L185.439 193.536
L185.419 195.264
L183.792 196.992
L183.797 200.448
L182.88 201.523
L181.919 202.176
L180.379 203.904
L180.351 205.632
L175.785 210.816
L175.768 212.544
L174.439 214.272
L174.361 219.456
L174.489 222.912
L175.783 224.64
L175.807 226.368
L177.338 228.096
L177.374 229.824
L181.152 233.966
L185.313 238.464
L189.792 243.148
L190.49 243.648
L190.947 250.56
L189.792 251.472
L186.336 251.83
L184.608 253.847
L183.208 254.016
L184.608 257.024
L186.336 256.098
L188.064 257.955
L189.792 256.577
L190.623 257.472
L189.22 259.2
L189.339 260.928
L192.587 264.384
L192.718 266.112
L194.353 267.84
L194.494 269.568
L194.976 270.072
L196.704 268.723
L198.432 268.942
L199.026 269.568
L199.155 271.296
L200.81 273.024
L199.442 274.752
L201.103 276.48
L201.265 278.208
L202.935 279.936
L203.112 281.664
L201.888 283.307
L201.401 283.392
L203.616 283.574
L205.344 283.954
L206.483 285.12
L207.072 285.462
L208.443 286.848
L208.8 287.477
L213.984 288.101
L215.712 288.134
L217.292 286.848
L217.44 285.521
L219.983 288.576
L223.192 292.032
L226.777 295.488
L229.536 297.937
L232.992 300.752
L237.564 304.128
L240.133 305.856
L243.36 307.886
L246.816 309.873
L250.272 311.661
L252.459 312.768
L253.728 313.606
L257.184 314.871
L260.64 315.945
L265.824 317.22
L270.148 317.952
L272.736 318.29
L276.192 318.582
L279.648 318.709
L281.376 319.376
L284.832 319.84
L284.832 319.84" style="fill:none;stroke:#000000;"/>
    <path clip-path="url(#p23ab9b749c)" d="
M196.704 277.208
L198.432 276.815
L198.841 276.48
L198.432 276.09
L196.704 276.389
L196.628 276.48
L196.704 277.208" style="fill:none;stroke:#000000;"/>
    <path clip-path="url(#p23ab9b749c)" d="
M207.072 277.418
L206.113 276.48
L207.072 275.349
L208.169 276.48
L207.072 277.418" style="fill:none;stroke:#000000;"/>
    <path clip-path="url(#p23ab9b749c)" d="
M210.528 144.113
L209.628 143.424
L210.092 141.696
L210.528 141.284
L210.874 141.696
L210.825 143.424
L210.528 144.113" style="fill:none;stroke:#000000;"/>
   </g>
   <g id="LineCollection_2">
    <path clip-path="url(#p23ab9b749c)" d="
M271.008 292.069
L272.736 292.549
L274.464 292.816
L276.192 292.946
L277.92 292.952
L279.648 292.837
L281.376 292.601
L284.832 291.784
L288.288 290.737
L290.016 290.555
L290.3 290.304
L288.997 288.576
L289.552 286.848
L290.016 286.532
L290.442 286.848
L290.923 288.576
L293.181 290.304
L293.472 291.337
L305.568 291.806
L309.024 291.687
L312.48 291.321
L315.936 290.623
L319.392 289.611
L322.848 288.215
L326.304 286.452
L329.76 284.315
L333.412 281.664
L336.672 279.065
L340.128 276.062
L345.312 271.229
L345.927 267.84
L347.679 266.112
L348.768 260.728
L350.567 259.2
L352.343 257.472
L353.952 255.6
L355.041 254.016
L355.68 253.365
L356.194 252.288
L356.848 250.56
L358.552 247.104
L359.848 243.648
L360.773 240.192
L361.691 235.008
L361.991 231.552
L362.102 228.096
L361.986 222.912
L361.603 217.728
L360.968 212.544
L359.834 205.632
L360.632 203.904
L360.563 202.176
L360.864 201.73
L363.108 198.72
L360.864 196.097
L359.136 195.684
L357.408 196.077
L356.603 193.536
L354.665 188.352
L353.952 186.589
L355.764 184.896
L357.408 185.395
L358.711 184.896
L356.74 181.44
L355.675 179.712
L355.222 176.256
L353.952 174.896
L352.224 174.612
L350.496 176.155
L349.347 174.528
L349.563 172.8
L348.768 169.987
L347.04 167.864
L347.04 167.565
L348.237 165.888
L346.569 164.16
L347.762 162.432
L347.04 161.54
L345.312 161.085
L340.128 155.718
L339.238 155.52
L336.672 152.586
L336.579 152.064
L334.886 150.336
L334.664 148.608
L332.961 146.88
L332.821 145.152
L331.064 143.424
L330.935 139.968
L330.956 136.512
L331.488 136.121
L331.81 136.512
L331.862 138.24
L335.335 141.696
L338.4 144.485
L340.128 144.374
L343.584 147.226
L345.965 146.88
L347.051 145.152
L347.412 143.424
L348.015 141.696
L348.768 140.304
L350.496 139.262
L352.224 137.785
L352.35 138.24
L352.637 139.968
L352.224 140.483
L351.065 141.696
L351.248 143.424
L349.766 145.152
L350.496 145.758
L351.487 146.88
L351.595 150.336
L352.224 150.946
L353.952 151.075
L356.625 153.792
L362.592 159.488
L364.32 159.506
L366.048 161.078
L367.776 161.071
L369.504 162.624
L371.232 162.606
L372.96 164.17
L376.416 164.22
L378.598 167.616
L380.228 169.344
L381.6 169.702
L383.328 171.179
L383.581 171.072
L384.446 169.344
L385.056 169.075
L387.353 169.344
L387.911 172.8
L387.497 174.528
L387.259 176.256
L387.223 177.984
L386.914 179.712
L387.208 181.44
L387.823 183.168
L388.762 184.896
L390.24 186.815
L391.968 188.352
L393.696 189.498
L395.024 190.08
L394.181 191.808
L393.696 192.455
L391.968 192.848
L391.445 193.536
L391.487 198.72
L391.968 199.224
L392.939 200.448
L392.996 203.904
L394.479 205.632
L395.477 207.36
L396.135 209.088
L396.318 210.816
L396.303 212.544
L396.89 214.272
L397.152 216.614
L397.531 217.728
L401.618 221.184
L402.336 221.697
L404.064 222.638
L404.843 222.912
L405.792 224.94
L407.52 225.33
L409.248 225.452
L410.976 225.324
L412.704 224.922
L414.432 224.283
L416.667 222.912
L418.556 221.184
L419.812 219.456
L420.718 217.728
L421.344 215.336
L421.548 214.272
L421.61 212.544
L421.344 210.564
L420.539 207.36
L421.671 205.632
L421.665 203.904
L422.239 202.176
L422.002 200.448
L421.158 196.992
L420.618 195.264
L419.616 195.045
L418.305 193.536
L418.157 191.808
L416.595 190.08
L416.383 188.352
L416.16 188.107
L414.432 187.734
L413.341 186.624
L412.704 185.357
L411.509 184.896
L411.206 183.168
L410.72 177.984
L410.347 176.256
L409.513 174.528
L409.248 173.637
L408.832 172.8
L407.52 171.02
L405.792 169.326
L404.064 168.08
L402.336 167.339
L400.608 166.573
L398.88 166.469
L397.152 166.14
L396.611 165.888
L395.438 164.16
L396.814 162.432
L396.669 158.976
L396.484 157.248
L393.186 153.792
L391.968 152.649
L390.24 152.443
L388.512 152.355
L387.97 152.064
L386.784 151.084
L385.056 152.487
L383.328 152.536
L382.013 153.792
L381.894 155.52
L381.6 155.858
L380.236 157.248
L380.226 158.976
L379.872 159.535
L378.144 159.878
L377.178 158.976
L375.813 157.248
L376.137 155.52
L378.144 153.619
L379.872 153.365
L381.125 152.064
L381.283 150.336
L382.728 148.608
L382.813 146.88
L384.004 145.152
L383.885 141.696
L383.729 139.968
L383.729 138.24
L382.98 136.512
L381.6 134.216
L380.755 133.056
L379.1 131.328
L378.144 130.499
L376.416 129.309
L374.688 128.375
L371.232 127.185
L369.504 126.857
L367.776 126.674
L364.32 126.63
L360.864 126.786
L360.209 129.6
L356.037 133.056
L356.045 134.784
L355.68 135.167
L354.46 134.784
L354.997 131.328
L355.33 129.6
L356.061 127.872
L356.184 126.144
L355.68 124.388
L355.027 122.688
L353.923 120.96
L352.224 119.046
L350.135 117.504
L348.768 116.739
L347.04 116.131
L344.633 115.776
L343.584 115.695
L341.856 115.808
L340.128 116.107
L338.4 116.668
L336.672 117.546
L334.213 119.232
L332.406 120.96
L332.389 122.688
L329.571 126.144
L327.272 129.6
L326.28 131.328
L324.576 133.751
L322.848 135.436
L320.972 136.512
L319.392 137.004
L315.936 137.834
L312.48 138.997
L312.19 141.696
L313.639 143.424
L311.606 145.152
L313.002 146.88
L312.64 148.608
L312.609 150.336
L312.404 150.336
L310.752 148.913
L309.024 149.404
L303.84 148.253
L300.384 147.657
L295.2 147.054
L290.016 146.71
L276.192 146.133
L274.464 145.934
L273.932 143.424
L275.275 141.696
L275.045 139.968
L278.294 136.512
L279.648 135.187
L281.376 135.109
L284.069 134.784
L284.985 133.056
L285.653 131.328
L286.56 130.743
L287.319 129.6
L287.41 127.872
L286.384 126.144
L286.56 125.666
L287.208 124.416
L286.874 122.688
L286.3 120.96
L284.832 119.049
L283.104 117.394
L280.677 115.776
L279.648 115.211
L277.92 114.681
L276.192 114.514
L274.464 114.595
L271.008 115.647
L269.28 116.618
L266.763 119.232
L265.824 121.277
L264.911 122.688
L264.636 127.872
L264.907 129.6
L265.824 132.076
L266.323 133.056
L267.6 134.784
L269.28 136.258
L269.792 136.512
L269.28 136.646
L267.552 136.947
L264.096 133.8
L260.64 133.884
L259.666 133.056
L258.912 130.636
L253.728 129.485
L250.272 128.979
L248.544 128.879
L246.816 128.893
L245.088 129.033
L242.238 129.6
L241.632 129.731
L239.904 130.264
L237.612 131.328
L236.448 131.942
L234.72 133.142
L232.808 134.784
L231.233 136.512
L229.536 138.932
L228.906 139.968
L227.808 142.474
L227.42 143.424
L226.879 145.152
L226.943 148.608
L225.989 150.336
L226.08 150.393
L227.808 150.759
L228.597 152.064
L227.566 153.792
L227.498 155.52
L226.754 157.248
L227.375 158.976
L224.352 159.95
L220.896 161.404
L219.141 162.432
L217.44 163.517
L215.562 164.16
L215.712 165.99
L215.411 165.888
L213.984 165.623
L213.292 165.888
L211.77 167.616
L211.573 169.344
L210.528 169.477
L209.997 171.072
L210.131 172.8
L209.47 174.528
L209.048 176.256
L208.8 178.045
L208.681 179.712
L208.8 182.104
L208.906 183.168
L209.208 184.896
L209.651 186.624
L210.886 190.08
L211.634 191.808
L212.256 192.445
L213.754 193.536
L212.897 195.264
L211.719 196.992
L206.227 203.904
L205.134 205.632
L204.185 207.36
L202.791 210.816
L202.338 212.544
L202.05 214.272
L201.907 216
L201.896 217.728
L202.021 219.456
L202.296 221.184
L202.747 222.912
L203.616 225.074
L204.207 226.368
L205.344 228.238
L207.072 230.547
L208.8 232.378
L210.528 233.899
L212.256 235.189
L213.283 236.736
L215.712 238.815
L217.44 239.368
L219.168 239.371
L220.896 240.329
L222.606 241.92
L221.646 243.648
L222.242 245.376
L221.611 247.104
L222.438 248.832
L221.772 250.56
L221.492 252.288
L221.616 255.744
L222.877 257.472
L223.417 259.2
L223.836 260.928
L224.474 262.656
L225.288 264.384
L226.42 266.112
L227.886 267.84
L229.796 269.568
L231.264 270.646
L232.451 271.296
L232.992 271.758
L234.72 272.766
L236.448 273.206
L238.176 273.208
L239.904 272.199
L241.632 272.283
L242.327 273.024
L244.253 274.752
L244.614 276.48
L244.294 278.208
L248.544 281.68
L253.728 285.908
L257.184 288.322
L258.912 289.386
L260.64 290.306
L260.641 290.304
L262.368 289.212
L264.096 290.727
L264.669 290.304
L265.824 289.594
L267.552 291.065
L269.28 290.81
L271.008 292.069
L271.008 292.069" style="fill:none;stroke:#000000;"/>
    <path clip-path="url(#p23ab9b749c)" d="
M236.448 200.578
L236.302 200.448
L234.72 199.021
L234.386 198.72
L232.992 197.45
L232.494 196.992
L232.434 195.264
L232.389 193.536
L232.992 193.063
L234.265 191.808
L234.396 190.08
L234.72 189.761
L236.448 189.781
L238.176 189.719
L238.759 190.08
L239.904 191.526
L240.316 191.808
L240.366 193.536
L241.632 195.228
L241.659 195.264
L241.632 195.513
L240.647 196.992
L239.904 198.183
L239.549 198.72
L238.458 200.448
L238.176 200.918
L236.448 200.578" style="fill:none;stroke:#000000;"/>
    <path clip-path="url(#p23ab9b749c)" d="
M362.592 195.57
L362.827 195.264
L362.592 194.996
L362.217 195.264
L362.592 195.57" style="fill:none;stroke:#000000;"/>
    <path clip-path="url(#p23ab9b749c)" d="
M236.448 193.172
L237.833 191.808
L236.448 190.387
L235.176 191.808
L236.448 193.172" style="fill:none;stroke:#000000;"/>
    <path clip-path="url(#p23ab9b749c)" d="
M390.24 191.925
L390.412 191.808
L390.24 191.617
L389.797 191.808
L390.24 191.925" style="fill:none;stroke:#000000;"/>
    <path clip-path="url(#p23ab9b749c)" d="
M238.176 186.891
L237.928 186.624
L238.176 186.37
L238.601 186.624
L238.176 186.891" style="fill:none;stroke:#000000;"/>
    <path clip-path="url(#p23ab9b749c)" d="
M355.68 171.298
L355.837 171.072
L355.68 170.01
L355.427 171.072
L355.68 171.298" style="fill:none;stroke:#000000;"/>
    <path clip-path="url(#p23ab9b749c)" d="
M343.584 167.648
L343.323 167.616
L343.584 167.57
L343.631 167.616
L343.584 167.648" style="fill:none;stroke:#000000;"/>
    <path clip-path="url(#p23ab9b749c)" d="
M252 166.419
L251.805 165.888
L252 165.703
L252.185 165.888
L252 166.419" style="fill:none;stroke:#000000;"/>
    <path clip-path="url(#p23ab9b749c)" d="
M319.392 140.764
L318.286 139.968
L319.392 138.567
L320.374 139.968
L319.392 140.764" style="fill:none;stroke:#000000;"/>
    <path clip-path="url(#p23ab9b749c)" d="
M353.952 136.679
L353.389 136.512
L353.952 135.76
L354.097 136.512
L353.952 136.679" style="fill:none;stroke:#000000;"/>
    <path clip-path="url(#p23ab9b749c)" d="
M309.024 132.189
L310.752 131.932
L312.48 132.474
L314.208 132.508
L315.936 132.016
L316.8 131.328
L317.664 130.795
L318.647 129.6
L319.392 128.496
L319.702 127.872
L321.023 126.144
L321.12 126.028
L322.564 124.416
L322.585 122.688
L322.238 120.96
L322.848 120.043
L323.566 119.232
L322.848 118.529
L322.073 117.504
L322.848 116.232
L323.415 115.776
L323.042 114.048
L322.848 113.331
L322.078 112.32
L321.12 111.354
L320.212 110.592
L319.392 109.984
L317.664 109.039
L317.189 108.864
L315.936 108.355
L314.208 107.942
L312.48 107.788
L310.752 107.863
L309.024 108.18
L307.296 108.782
L307.123 108.864
L305.568 109.585
L304.096 110.592
L303.84 110.787
L302.196 112.32
L302.112 112.42
L300.804 114.048
L300.384 114.805
L299.794 115.776
L299.074 117.504
L298.656 119.146
L298.647 119.232
L298.548 120.96
L298.656 121.161
L300.384 122.04
L300.776 122.688
L300.808 124.416
L300.91 126.144
L302.112 127.04
L302.864 127.872
L303.84 129.186
L304.261 129.6
L305.568 130.557
L307.296 130.637
L308.115 131.328
L309.024 132.189" style="fill:none;stroke:#000000;"/>
   </g>
   <g id="LineCollection_3">
    <path clip-path="url(#p23ab9b749c)" d="
M271.008 280.31
L272.736 280.968
L274.464 281.191
L276.192 281.067
L277.92 280.541
L279.014 279.936
L279.648 279.565
L281.195 278.208
L281.376 277.965
L282.15 276.48
L282.516 274.752
L282.702 273.024
L282.687 271.296
L282.519 269.568
L282.655 267.84
L281.376 266.192
L281.312 266.112
L279.648 265.172
L278.811 264.384
L277.92 263.741
L276.704 262.656
L276.192 262.155
L274.464 262.158
L273.004 260.928
L272.736 260.671
L271.008 260.822
L269.623 260.928
L269.28 261.271
L268.397 262.656
L267.552 263.96
L267.348 264.384
L266.543 266.112
L265.998 267.84
L265.824 268.785
L265.678 269.568
L265.579 271.296
L265.765 273.024
L265.824 273.218
L266.153 274.752
L266.918 276.48
L267.552 277.339
L268.185 278.208
L269.28 279.217
L270.384 279.936
L271.008 280.31" style="fill:none;stroke:#000000;"/>
    <path clip-path="url(#p23ab9b749c)" d="
M310.752 278.236
L312.48 278.017
L314.208 277.109
L316.079 276.48
L318.137 274.752
L318.986 273.024
L319.392 271.893
L319.861 271.296
L321.12 268.908
L321.667 267.84
L324.576 260.713
L326.304 258.517
L328.032 257.132
L329.76 257.01
L331.488 257.668
L331.718 257.472
L331.332 255.744
L331.488 255.65
L336.672 254.942
L340.128 254.145
L340.265 254.016
L341.856 252.68
L342.941 252.288
L343.584 251.729
L345.312 249.797
L345.678 248.832
L347.04 247.022
L347.82 245.376
L348.358 243.648
L348.768 241.181
L348.906 240.192
L348.987 238.464
L348.777 235.008
L348.024 229.824
L345.312 228.889
L343.477 229.824
L341.209 224.64
L340.598 222.912
L340.13 221.184
L343.584 220.231
L345.312 220.646
L346.636 216
L347.22 212.544
L347.347 210.816
L347.319 209.088
L346.918 205.632
L345.525 202.176
L345.312 201.775
L344.314 198.72
L343.06 196.992
L342.272 195.264
L341.856 194.814
L339.79 193.536
L336.672 190.794
L335.789 190.08
L336.086 188.352
L335.72 186.624
L336.526 184.896
L333.216 180.971
L331.488 179.131
L330.312 177.984
L329.76 177.674
L328.032 177.038
L326.304 175.633
L325.22 176.256
L324.576 176.389
L324.22 176.256
L321.945 174.528
L321.12 173.969
L318.911 172.8
L317.664 172.193
L315.936 171.538
L312.48 170.593
L309.024 170.048
L305.568 169.852
L302.112 169.93
L298.656 170.249
L295.2 170.794
L290.016 171.935
L286.56 172.95
L283.104 174.137
L279.648 175.555
L276.192 177.246
L272.044 179.712
L271.008 180.378
L267.552 183.037
L265.516 184.896
L263.86 186.624
L261.093 190.08
L259.931 191.808
L258.912 193.57
L257.761 195.264
L255.971 198.72
L255.456 200.006
L253.728 199.53
L252.857 202.176
L252 205.695
L251.626 207.36
L250.682 209.088
L250.247 210.816
L250.064 212.544
L250.781 214.272
L250.77 216
L249.922 217.728
L250.023 219.456
L251.307 221.184
L252.171 224.64
L255.456 225.762
L257.047 226.368
L258.222 229.824
L256.861 231.552
L257.184 232.198
L257.596 233.28
L258.912 235.98
L259.312 236.736
L260.64 238.85
L262.368 241.206
L264.096 243.218
L266.244 245.376
L268.205 247.104
L270.456 248.832
L271.008 249.242
L272.736 249.106
L274.063 250.56
L274.464 250.824
L276.192 251.184
L277.92 251.668
L279.536 252.288
L278.378 254.016
L279.648 254.832
L283.104 256.551
L288.288 258.445
L290.016 258.514
L291.744 257.847
L293.472 258.291
L294.496 259.2
L293.788 260.928
L295.2 263.264
L296.541 266.112
L296.928 266.789
L297.383 267.84
L298.656 269.984
L299.464 271.296
L300.939 273.024
L302.959 274.752
L303.84 275.35
L305.568 276.343
L306.446 276.48
L307.296 276.774
L309.024 277.601
L310.752 278.236
L310.752 278.236" style="fill:none;stroke:#000000;"/>
    <path clip-path="url(#p23ab9b749c)" d="
M234.72 261.399
L236.448 262.253
L238.176 262.355
L239.904 261.854
L241.147 260.928
L241.632 260.342
L242.454 259.2
L242.856 257.472
L242.607 255.744
L241.936 254.016
L241.632 253.661
L239.904 252.356
L239.625 252.288
L238.176 251.902
L236.448 252.23
L236.312 252.288
L234.72 252.824
L233.451 254.016
L232.992 254.815
L232.498 255.744
L232.255 257.472
L232.753 259.2
L232.992 259.499
L234.201 260.928
L234.72 261.399" style="fill:none;stroke:#000000;"/>
    <path clip-path="url(#p23ab9b749c)" d="
M295.2 258.19
L294.592 257.472
L295.2 257.067
L295.67 257.472
L295.2 258.19" style="fill:none;stroke:#000000;"/>
    <path clip-path="url(#p23ab9b749c)" d="
M253.728 231.679
L254.306 231.552
L253.728 230.518
L253.083 231.552
L253.728 231.679" style="fill:none;stroke:#000000;"/>
    <path clip-path="url(#p23ab9b749c)" d="
M252 228.776
L253.728 229.551
L254.467 228.096
L253.728 227.516
L252 228.053
L251.747 228.096
L252 228.776" style="fill:none;stroke:#000000;"/>
    <path clip-path="url(#p23ab9b749c)" d="
M215.712 223.54
L217.44 223.918
L219.168 223.787
L220.896 223.106
L221.162 222.912
L222.624 221.697
L223.115 221.184
L223.947 219.456
L224.175 217.728
L223.945 216
L223.042 214.272
L222.624 213.822
L221.052 212.544
L220.896 212.446
L219.168 211.721
L217.44 211.57
L215.712 211.943
L214.691 212.544
L213.984 212.919
L212.69 214.272
L212.256 215.154
L211.826 216
L211.541 217.728
L211.8 219.456
L212.256 220.374
L212.666 221.184
L213.984 222.559
L214.649 222.912
L215.712 223.54" style="fill:none;stroke:#000000;"/>
    <path clip-path="url(#p23ab9b749c)" d="
M407.52 216.319
L409.248 217.3
L410.976 217.26
L412.704 216.099
L412.801 216
L413.886 214.272
L413.881 212.544
L412.85 210.816
L412.704 210.649
L411.555 209.088
L412.704 207.401
L412.737 207.36
L413.01 205.632
L412.704 204.778
L412.463 203.904
L410.976 202.297
L410.637 202.176
L409.248 201.413
L407.52 201.464
L406.546 202.176
L405.792 202.701
L404.92 203.904
L404.439 205.632
L404.667 207.36
L405.792 208.243
L406.644 209.088
L406.948 210.816
L406.129 212.544
L406.157 214.272
L407.19 216
L407.52 216.319" style="fill:none;stroke:#000000;"/>
    <path clip-path="url(#p23ab9b749c)" d="
M404.064 197.108
L405.792 197.991
L407.52 197.389
L407.857 196.992
L409.063 195.264
L409.153 193.536
L408.304 191.808
L407.52 191.11
L405.792 190.528
L404.064 191.101
L403.303 191.808
L402.477 193.536
L402.608 195.264
L403.96 196.992
L404.064 197.108" style="fill:none;stroke:#000000;"/>
    <path clip-path="url(#p23ab9b749c)" d="
M220.896 181.692
L222.624 182.509
L224.352 182.638
L226.08 182.198
L227.225 181.44
L227.808 180.949
L228.781 179.712
L229.325 177.984
L229.321 176.256
L228.786 174.528
L227.808 173.303
L227.312 172.8
L226.08 171.928
L224.352 171.418
L222.624 171.472
L220.896 172.167
L220.117 172.8
L219.168 173.93
L218.748 174.528
L218.174 176.256
L218.254 177.984
L219.013 179.712
L219.168 179.935
L220.595 181.44
L220.896 181.692" style="fill:none;stroke:#000000;"/>
    <path clip-path="url(#p23ab9b749c)" d="
M398.88 181.774
L400.423 181.44
L400.608 181.42
L402.289 179.712
L402.336 179.251
L402.592 177.984
L402.336 177.45
L401.84 176.256
L400.608 175.191
L398.88 174.889
L397.152 175.693
L396.583 176.256
L395.766 177.984
L396.053 179.712
L397.152 180.996
L398.201 181.44
L398.88 181.774" style="fill:none;stroke:#000000;"/>
    <path clip-path="url(#p23ab9b749c)" d="
M386.784 162.956
L388.512 163.266
L389.989 162.432
L390.24 162.273
L391.393 160.704
L391.382 158.976
L390.24 157.459
L389.914 157.248
L388.512 156.449
L386.784 156.746
L386.109 157.248
L385.056 158.702
L384.886 158.976
L384.893 160.704
L385.056 160.974
L386.1 162.432
L386.784 162.956" style="fill:none;stroke:#000000;"/>
    <path clip-path="url(#p23ab9b749c)" d="
M243.36 152.628
L245.088 152.886
L246.816 152.615
L247.944 152.064
L248.544 151.775
L250.043 150.336
L250.272 149.96
L251.018 148.608
L251.37 146.88
L251.231 145.152
L250.508 143.424
L250.272 143.109
L249.15 141.696
L248.544 141.2
L246.816 140.289
L245.088 140.021
L243.36 140.146
L241.632 140.812
L240.544 141.696
L239.904 142.433
L239.183 143.424
L238.596 145.152
L238.54 146.88
L238.951 148.608
L239.904 150.162
L240.035 150.336
L241.632 151.815
L242.235 152.064
L243.36 152.628" style="fill:none;stroke:#000000;"/>
    <path clip-path="url(#p23ab9b749c)" d="
M366.048 145.512
L367.776 146.522
L369.504 146.711
L371.232 146.346
L372.77 145.152
L372.96 144.941
L373.967 143.424
L374.268 141.696
L373.933 139.968
L372.96 138.575
L372.661 138.24
L371.232 137.158
L369.504 136.768
L367.776 136.964
L366.048 138.001
L365.784 138.24
L364.576 139.968
L364.322 141.696
L364.551 143.424
L365.672 145.152
L366.048 145.512" style="fill:none;stroke:#000000;"/>
    <path clip-path="url(#p23ab9b749c)" d="
M341.856 130.331
L343.584 131.118
L345.312 131.019
L347.04 129.755
L347.176 129.6
L348.081 127.872
L347.914 126.144
L347.04 124.902
L346.534 124.416
L345.312 123.587
L343.584 123.446
L341.856 124.408
L341.847 124.416
L340.489 126.144
L340.359 127.872
L341.125 129.6
L341.856 130.331" style="fill:none;stroke:#000000;"/>
    <path clip-path="url(#p23ab9b749c)" d="
M274.464 128.106
L276.192 128.334
L277.089 127.872
L277.92 127.466
L279.002 126.144
L279.278 124.416
L278.509 122.688
L277.92 122.095
L276.192 121.218
L274.464 121.372
L272.871 122.688
L272.736 123.004
L272.03 124.416
L272.376 126.144
L272.736 126.657
L274.119 127.872
L274.464 128.106" style="fill:none;stroke:#000000;"/>
    <path clip-path="url(#p23ab9b749c)" d="
M310.752 123.247
L312.48 123.674
L314.208 123.169
L314.824 122.688
L315.936 121.316
L316.16 120.96
L316.489 119.232
L315.936 117.876
L315.828 117.504
L314.208 115.965
L313.257 115.776
L312.48 115.534
L311.584 115.776
L310.752 115.913
L309.031 117.504
L309.024 117.526
L308.307 119.232
L308.623 120.96
L309.024 121.572
L310.005 122.688
L310.752 123.247" style="fill:none;stroke:#000000;"/>
   </g>
   <g id="LineCollection_4">
    <path clip-path="url(#p23ab9b749c)" d="
M272.736 275.466
L274.464 276.447
L276.192 276.059
L277.379 274.752
L277.39 273.024
L276.192 271.603
L274.673 271.296
L274.464 271.224
L274.328 271.296
L272.736 272.141
L272.095 273.024
L272.147 274.752
L272.736 275.466" style="fill:none;stroke:#000000;"/>
    <path clip-path="url(#p23ab9b749c)" d="
M309.024 271.869
L310.752 271.989
L312.097 271.296
L312.48 271.107
L313.836 269.568
L314.132 267.84
L313.814 266.112
L312.48 264.488
L312.267 264.384
L310.752 263.525
L309.024 263.557
L307.633 264.384
L307.296 264.6
L306.171 266.112
L305.863 267.84
L306.266 269.568
L307.296 270.775
L308.045 271.296
L309.024 271.869" style="fill:none;stroke:#000000;"/>
    <path clip-path="url(#p23ab9b749c)" d="
M236.448 258.811
L238.176 258.853
L239.362 257.472
L238.176 256.027
L236.448 256.088
L235.316 257.472
L236.448 258.811" style="fill:none;stroke:#000000;"/>
    <path clip-path="url(#p23ab9b749c)" d="
M334.944 247.342
L336.672 247.206
L336.885 247.104
L338.4 246.551
L339.629 245.376
L340.128 244.347
L340.51 243.648
L340.722 241.92
L340.192 240.192
L340.128 240.078
L339.033 238.464
L338.4 237.825
L336.672 236.951
L334.944 236.737
L333.216 236.934
L331.488 237.848
L330.827 238.464
L329.898 240.192
L329.76 241.79
L329.745 241.92
L329.76 241.969
L330.062 243.648
L331.187 245.376
L331.488 245.644
L333.216 246.87
L334.15 247.104
L334.944 247.342" style="fill:none;stroke:#000000;"/>
    <path clip-path="url(#p23ab9b749c)" d="
M293.472 243.246
L295.2 243.342
L296.928 242.273
L298.656 243.172
L300.384 241.76
L301.093 241.92
L302.112 242.429
L302.494 241.92
L305.045 240.192
L305.568 239.721
L307.296 239.799
L312.48 236.674
L314.666 235.008
L315.452 233.28
L316.795 231.552
L317.842 229.824
L318.732 228.096
L319.955 224.64
L321.802 222.912
L322.395 221.184
L322.848 220.405
L323.797 219.456
L324.672 217.728
L326.304 215.487
L327.053 216
L328.032 216.164
L329.76 216.233
L333.216 215.738
L334.944 215.261
L336.683 214.272
L338.627 212.544
L339.643 210.816
L340.038 209.088
L340.059 207.36
L339.611 205.632
L338.361 203.904
L336.672 202.471
L335.859 202.176
L334.944 201.721
L333.216 201.372
L331.488 201.381
L330.452 202.176
L328.032 203.303
L326.304 203.553
L322.988 202.176
L322.848 202.066
L321.6 200.448
L322.661 198.72
L323.051 195.264
L323.144 193.536
L323.09 191.808
L322.451 188.352
L321.7 186.624
L320.519 184.896
L319.392 183.765
L317.664 183.134
L315.936 182.114
L314.208 181.651
L312.48 181.503
L310.752 181.583
L309.024 181.899
L307.296 182.462
L303.84 184.083
L298.656 186.765
L298.605 186.624
L296.23 184.896
L295.2 183.13
L291.744 181.873
L290.016 181.823
L288.288 181.324
L286.56 181.564
L284.832 182.207
L284.462 183.168
L282.56 184.896
L283.104 185.539
L283.597 186.624
L283.104 187.194
L281.895 188.352
L281.708 190.08
L281.376 190.523
L279.974 191.808
L279.648 193.658
L277.92 194.078
L276.192 194.246
L274.464 195.297
L272.736 196.086
L271.008 197.252
L269.28 198.822
L267.552 201.071
L266.881 202.176
L266.139 203.904
L265.417 207.36
L265.286 209.088
L265.309 210.816
L265.824 213.607
L265.939 214.272
L266.024 216
L267.552 218.346
L267.747 219.456
L268.479 221.184
L268.235 224.64
L268.714 226.368
L270.391 229.824
L271.578 231.552
L273.06 233.28
L274.865 235.008
L277.08 236.736
L277.92 237.337
L281.376 239.319
L284.832 240.782
L288.288 241.862
L290.016 241.349
L291.744 241.68
L292.061 241.92
L293.472 243.246
L293.472 243.246" style="fill:none;stroke:#000000;"/>
    <path clip-path="url(#p23ab9b749c)" d="
M217.44 219.59
L217.634 219.456
L219.099 217.728
L217.677 216
L217.44 215.837
L217.023 216
L215.712 216.432
L214.806 217.728
L215.712 219.018
L217.093 219.456
L217.44 219.59" style="fill:none;stroke:#000000;"/>
    <path clip-path="url(#p23ab9b749c)" d="
M409.248 214.387
L410.976 214.276
L410.98 214.272
L410.976 214.242
L409.248 213.439
L409.132 214.272
L409.248 214.387" style="fill:none;stroke:#000000;"/>
    <path clip-path="url(#p23ab9b749c)" d="
M409.248 207.363
L409.252 207.36
L410.491 205.632
L409.248 204.398
L407.673 205.632
L409.242 207.36
L409.248 207.363" style="fill:none;stroke:#000000;"/>
    <path clip-path="url(#p23ab9b749c)" d="
M405.792 195.017
L407.072 193.536
L405.792 192.327
L404.508 193.536
L405.792 195.017" style="fill:none;stroke:#000000;"/>
    <path clip-path="url(#p23ab9b749c)" d="
M222.624 178.183
L224.352 178.066
L224.442 177.984
L225.495 176.256
L224.352 175
L222.624 174.875
L221.344 176.256
L222.408 177.984
L222.624 178.183" style="fill:none;stroke:#000000;"/>
    <path clip-path="url(#p23ab9b749c)" d="
M398.88 179.318
L400.206 177.984
L398.88 176.895
L397.789 177.984
L398.88 179.318" style="fill:none;stroke:#000000;"/>
    <path clip-path="url(#p23ab9b749c)" d="
M388.512 160.733
L388.543 160.704
L388.744 158.976
L388.512 158.76
L388.156 158.976
L388.462 160.704
L388.512 160.733" style="fill:none;stroke:#000000;"/>
    <path clip-path="url(#p23ab9b749c)" d="
M243.36 147.595
L245.088 147.995
L246.314 146.88
L246.58 145.152
L245.088 143.693
L243.36 144.041
L242.342 145.152
L242.676 146.88
L243.36 147.595" style="fill:none;stroke:#000000;"/>
    <path clip-path="url(#p23ab9b749c)" d="
M369.504 143.386
L371.193 141.696
L369.504 139.98
L367.788 141.696
L369.504 143.386" style="fill:none;stroke:#000000;"/>
    <path clip-path="url(#p23ab9b749c)" d="
M343.584 128.499
L345.038 127.872
L343.584 126.549
L342.961 127.872
L343.584 128.499" style="fill:none;stroke:#000000;"/>
    <path clip-path="url(#p23ab9b749c)" d="
M276.192 125.64
L277.208 124.416
L276.192 123.361
L274.652 124.416
L276.192 125.64" style="fill:none;stroke:#000000;"/>
    <path clip-path="url(#p23ab9b749c)" d="
M312.48 120.904
L314.119 119.232
L312.48 117.607
L310.83 119.232
L312.48 120.904" style="fill:none;stroke:#000000;"/>
   </g>
   <g id="LineCollection_5">
    <path clip-path="url(#p23ab9b749c)" d="
M309.024 268.138
L310.752 269.256
L311.791 267.84
L310.752 266.739
L309.024 267.632
L308.852 267.84
L309.024 268.138" style="fill:none;stroke:#000000;"/>
    <path clip-path="url(#p23ab9b749c)" d="
M334.944 243.877
L336.672 244.495
L337.568 243.648
L337.729 241.92
L336.672 240.853
L334.944 241.432
L334.486 241.92
L334.705 243.648
L334.944 243.877" style="fill:none;stroke:#000000;"/>
    <path clip-path="url(#p23ab9b749c)" d="
M290.016 233.648
L291.744 234.201
L293.472 234.41
L295.2 234.146
L296.928 233.942
L298.656 233.831
L300.006 233.28
L300.384 233.113
L302.112 231.779
L302.48 231.552
L303.84 231.083
L305.568 230.095
L305.964 229.824
L307.296 228.464
L307.648 228.096
L308.966 226.368
L309.024 226.322
L310.39 224.64
L310.752 223.098
L310.993 222.912
L312.48 221.753
L312.672 221.184
L313.299 219.456
L313.633 217.728
L313.779 216
L313.75 214.272
L313.535 212.544
L313.086 210.816
L312.48 209.403
L312.363 209.088
L311.441 207.36
L310.752 206.444
L310.12 205.632
L309.024 204.798
L307.72 203.904
L307.296 203.477
L305.568 202.41
L305.226 202.176
L303.84 201.181
L302.123 200.448
L302.112 200.442
L300.384 199.804
L298.656 199.328
L296.928 199.078
L295.2 198.991
L293.472 198.986
L292.565 198.72
L291.744 197.98
L290.016 198.484
L289.817 198.72
L289.153 200.448
L288.288 200.82
L286.56 201.902
L284.832 202.157
L284.807 202.176
L283.965 203.904
L283.181 205.632
L283.104 205.824
L282.764 205.632
L281.376 204.841
L280.398 203.904
L279.648 203.342
L277.92 202.352
L276.398 202.176
L276.192 202.135
L276.036 202.176
L274.464 202.385
L272.736 203.681
L272.536 203.904
L271.541 205.632
L271.421 207.36
L271.861 209.088
L272.736 210.606
L272.9 210.816
L274.3 212.544
L274.464 212.776
L275.683 214.272
L276.192 215.131
L276.979 216
L277.16 217.728
L276.525 219.456
L276.192 220.566
L276.001 221.184
L275.733 222.912
L275.977 224.64
L276.192 225.099
L276.657 226.368
L277.92 227.841
L278.268 228.096
L279.648 229.143
L281.354 229.824
L281.376 229.836
L281.402 229.824
L283.104 229.505
L283.601 229.824
L284.832 231.008
L286.025 231.552
L286.56 232.059
L288.288 233.054
L288.921 233.28
L290.016 233.648" style="fill:none;stroke:#000000;"/>
    <path clip-path="url(#p23ab9b749c)" d="
M217.44 218.154
L217.844 217.728
L217.44 217.3
L216.941 217.728
L217.44 218.154" style="fill:none;stroke:#000000;"/>
    <path clip-path="url(#p23ab9b749c)" d="
M333.216 209.966
L334.944 210.548
L336.541 209.088
L336.6 207.36
L334.944 205.807
L333.216 206.394
L332.287 207.36
L332.36 209.088
L333.216 209.966" style="fill:none;stroke:#000000;"/>
    <path clip-path="url(#p23ab9b749c)" d="
M288.288 194.753
L290.016 195.085
L290.377 193.536
L291.744 192.397
L293.337 191.808
L293.442 190.08
L293.108 188.352
L291.744 186.84
L291.31 186.624
L290.016 185.969
L288.288 186.271
L287.759 186.624
L286.56 187.779
L286.099 188.352
L285.657 190.08
L286.044 191.808
L286.56 192.839
L287.167 193.536
L288.288 194.753" style="fill:none;stroke:#000000;"/>
    <path clip-path="url(#p23ab9b749c)" d="
M312.48 192.887
L314.208 193.08
L315.936 192.099
L316.188 191.808
L317.232 190.08
L317.103 188.352
L315.936 186.989
L314.993 186.624
L314.208 186.246
L312.872 186.624
L312.48 186.698
L310.842 188.352
L310.752 189.207
L310.523 190.08
L310.752 190.55
L311.348 191.808
L312.48 192.887" style="fill:none;stroke:#000000;"/>
    <path clip-path="url(#p23ab9b749c)" d="
M369.504 142.914
L370.721 141.696
L369.504 140.46
L368.268 141.696
L369.504 142.914" style="fill:none;stroke:#000000;"/>
    <path clip-path="url(#p23ab9b749c)" d="
M312.48 120.267
L313.495 119.232
L312.48 118.226
L311.458 119.232
L312.48 120.267" style="fill:none;stroke:#000000;"/>
   </g>
   <g id="LineCollection_6">
    <path clip-path="url(#p23ab9b749c)" d="
M293.472 230.294
L295.2 230.218
L295.948 229.824
L296.928 229.047
L297.767 228.096
L298.656 227.564
L300.384 227.159
L301.998 226.368
L302.112 226.316
L303.84 224.881
L304.038 224.64
L305.467 222.912
L305.568 222.723
L306.503 221.184
L307.027 219.456
L307.296 218.178
L307.41 217.728
L307.526 216
L307.296 214.36
L307.288 214.272
L306.788 212.544
L305.568 210.873
L305.538 210.816
L304.459 209.088
L303.84 208.616
L302.35 207.36
L302.112 207.169
L300.384 205.977
L299.436 205.632
L298.656 205.224
L296.928 204.985
L295.2 204.707
L293.472 204.938
L291.744 205.453
L291.364 205.632
L290.016 206.118
L288.288 207.321
L288.241 207.36
L286.56 208.949
L286.43 209.088
L285.166 210.816
L284.832 211.673
L284.392 212.544
L283.932 214.272
L283.801 216
L283.912 217.728
L284.239 219.456
L284.784 221.184
L284.832 221.297
L285.423 222.912
L286.56 224.464
L286.682 224.64
L288.263 226.368
L288.288 226.386
L290.016 227.93
L290.111 228.096
L291.744 229.553
L292.433 229.824
L293.472 230.294" style="fill:none;stroke:#000000;"/>
    <path clip-path="url(#p23ab9b749c)" d="
M279.648 225.234
L281.376 225.877
L282.856 224.64
L282.859 222.912
L281.376 221.686
L279.648 222.348
L279.171 222.912
L279.107 224.64
L279.648 225.234" style="fill:none;stroke:#000000;"/>
    <path clip-path="url(#p23ab9b749c)" d="
M276.192 208.27
L277.211 207.36
L277.476 205.632
L276.192 204.476
L274.464 205.488
L274.333 205.632
L274.464 206.467
L274.66 207.36
L276.192 208.27" style="fill:none;stroke:#000000;"/>
    <path clip-path="url(#p23ab9b749c)" d="
M290.016 190.636
L290.571 190.08
L290.346 188.352
L290.016 188.059
L289.498 188.352
L289.141 190.08
L290.016 190.636" style="fill:none;stroke:#000000;"/>
    <path clip-path="url(#p23ab9b749c)" d="
M314.208 190.393
L314.555 190.08
L314.603 188.352
L314.208 188.014
L313.769 188.352
L313.814 190.08
L314.208 190.393" style="fill:none;stroke:#000000;"/>
   </g>
   <g id="LineCollection_7">
    <path clip-path="url(#p23ab9b749c)" d="
M293.472 227.65
L295.2 227.466
L295.886 226.368
L295.2 225.234
L293.472 224.932
L292.515 226.368
L293.472 227.65" style="fill:none;stroke:#000000;"/>
    <path clip-path="url(#p23ab9b749c)" d="
M291.744 222.941
L293.472 224.025
L295.2 224.121
L296.928 224.214
L298.656 224.261
L300.384 223.869
L301.477 222.912
L302.112 221.81
L302.57 221.184
L303.045 219.456
L303.771 217.728
L303.84 216.561
L303.925 216
L303.84 215.735
L303.576 214.272
L302.381 212.544
L302.112 212.17
L301.42 210.816
L300.384 209.841
L299.089 209.088
L298.656 208.787
L296.928 208.445
L295.2 208.423
L293.472 208.583
L292.22 209.088
L291.744 209.197
L290.016 210.441
L289.649 210.816
L288.535 212.544
L288.288 213.635
L288.039 214.272
L287.851 216
L288.123 217.728
L288.288 218.152
L288.638 219.456
L289.758 221.184
L290.016 221.493
L291.714 222.912
L291.744 222.941" style="fill:none;stroke:#000000;"/>
   </g>
   <g id="LineCollection_8">
    <path clip-path="url(#p23ab9b749c)" d="
M296.928 221.252
L298.656 222.138
L300.384 222.109
L301.243 221.184
L300.384 219.917
L299.785 219.456
L300.384 219.094
L301.678 217.728
L302.084 216
L300.624 214.272
L300.384 213.964
L300.17 212.544
L298.656 210.898
L297.436 210.816
L296.928 210.69
L296.529 210.816
L295.2 211.033
L293.472 210.84
L291.744 211.849
L291.115 212.544
L290.536 214.272
L290.16 216
L290.479 217.728
L291.744 219.305
L291.934 219.456
L293.472 220.779
L295.2 221.138
L296.413 221.184
L296.928 221.252" style="fill:none;stroke:#000000;"/>
   </g>
   <g id="LineCollection_9">
    <path clip-path="url(#p23ab9b749c)" d="
M293.472 218.482
L295.2 219.422
L296.928 218.828
L298.265 217.728
L298.656 216.018
L300.384 217.372
L301.571 216
L300.384 214.782
L298.656 215.988
L298.117 214.272
L298.656 212.79
L298.757 212.544
L298.656 212.434
L296.928 212.149
L296.279 212.544
L295.2 212.989
L294.798 212.544
L293.472 211.498
L292.358 212.544
L292.526 214.272
L291.744 215.423
L291.348 216
L291.744 216.655
L292.645 217.728
L293.472 218.482" style="fill:none;stroke:#000000;"/>
   </g>
   <g id="LineCollection_10">
    <path clip-path="url(#p23ab9b749c)" d="
M295.2 218.857
L296.483 217.728
L296.928 216.496
L297.306 216
L296.928 215.506
L295.2 214.272
L293.472 215.726
L293.238 216
L293.472 216.247
L293.984 217.728
L295.2 218.857" style="fill:none;stroke:#000000;"/>
   </g>
   <g id="LineCollection_11">
    <path clip-path="url(#p23ab9b749c)" d="
M295.2 217.728
L296.928 216
L295.2 214.272
L293.472 216
L295.2 217.728" style="fill:none;stroke:#000000;"/>
   </g>
   <g id="LineCollection_12">
    <path clip-path="url(#p23ab9b749c)" d="
M295.2 217.728
L296.928 216
L295.2 214.272
L293.472 216
L295.2 217.728" style="fill:none;stroke:#000000;"/>
   </g>
   <g id="LineCollection_13">
    <path clip-path="url(#p23ab9b749c)" d="
M295.2 217.728
L296.928 216
L295.2 214.272
L293.472 216
L295.2 217.728" style="fill:none;stroke:#000000;"/>
   </g>
   <g id="LineCollection_14">
    <path clip-path="url(#p23ab9b749c)" d="
M295.2 217.728
L296.928 216
L295.2 214.272
L293.472 216
L295.2 217.728" style="fill:none;stroke:#000000;"/>
   </g>
   <g id="LineCollection_15">
    <path clip-path="url(#p23ab9b749c)" d="
M295.2 217.728
L296.928 216
L295.2 214.272
L293.472 216
L295.2 217.728" style="fill:none;stroke:#000000;"/>
   </g>
   <g id="LineCollection_16">
    <path clip-path="url(#p23ab9b749c)" d="
M295.2 217.728
L296.928 216
L295.2 214.272
L293.472 216
L295.2 217.728" style="fill:none;stroke:#000000;"/>
   </g>
   <g id="LineCollection_17">
    <path clip-path="url(#p23ab9b749c)" d="
M295.2 217.728
L296.928 216
L295.2 214.272
L293.472 216
L295.2 217.728" style="fill:none;stroke:#000000;"/>
   </g>
   <g id="LineCollection_18">
    <path clip-path="url(#p23ab9b749c)" d="
M295.2 217.728
L296.928 216
L295.2 214.272
L293.472 216
L295.2 217.728" style="fill:none;stroke:#000000;"/>
   </g>
   <g id="LineCollection_19">
    <path clip-path="url(#p23ab9b749c)" d="
M295.2 217.728
L296.928 216
L295.2 214.272
L293.472 216
L295.2 217.728" style="fill:none;stroke:#000000;"/>
   </g>
   <g id="patch_4">
    <path d="
M122.4 43.2
L468 43.2
L468 43.2" style="fill:none;stroke:#000000;stroke-linecap:square;stroke-linejoin:miter;"/>
   </g>
   <g id="patch_5">
    <path d="
M468 388.8
L468 43.2
L468 43.2" style="fill:none;stroke:#000000;stroke-linecap:square;stroke-linejoin:miter;"/>
   </g>
   <g id="patch_6">
    <path d="
M122.4 388.8
L468 388.8
L468 388.8" style="fill:none;stroke:#000000;stroke-linecap:square;stroke-linejoin:miter;"/>
   </g>
   <g id="patch_7">
    <path d="
M122.4 388.8
L122.4 43.2
L122.4 43.2" style="fill:none;stroke:#000000;stroke-linecap:square;stroke-linejoin:miter;"/>
   </g>
   <g id="matplotlib.axis_1">
    <g id="xtick_1">
     <g id="line2d_1">
      <defs>
       <path d="
M0 0
L0 -4" id="mb1445623b5" style="stroke:#000000;stroke-width:0.5;"/>
      </defs>
      <g>
       <use style="stroke:#000000;stroke-width:0.5;" x="122.4" xlink:href="#mb1445623b5" y="388.8"/>
      </g>
     </g>
     <g id="line2d_2">
      <defs>
       <path d="
M0 0
L0 4" id="m3a68111ca7" style="stroke:#000000;stroke-width:0.5;"/>
      </defs>
      <g>
       <use style="stroke:#000000;stroke-width:0.5;" x="122.4" xlink:href="#m3a68111ca7" y="43.2"/>
      </g>
     </g>
     <g id="text_1">
      <!-- −1.5 -->
      <defs>
       <path d="
M10.5938 35.5
L73.1875 35.5
L73.1875 27.2031
L10.5938 27.2031
z
" id="BitstreamVeraSans-Roman-2212"/>
       <path d="
M12.4062 8.29688
L28.5156 8.29688
L28.5156 63.9219
L10.9844 60.4062
L10.9844 69.3906
L28.4219 72.9062
L38.2812 72.9062
L38.2812 8.29688
L54.3906 8.29688
L54.3906 0
L12.4062 0
z
" id="BitstreamVeraSans-Roman-31"/>
       <path d="
M10.6875 12.4062
L21 12.4062
L21 0
L10.6875 0
z
" id="BitstreamVeraSans-Roman-2e"/>
       <path d="
M10.7969 72.9062
L49.5156 72.9062
L49.5156 64.5938
L19.8281 64.5938
L19.8281 46.7344
Q21.9688 47.4688 24.1094 47.8281
Q26.2656 48.1875 28.4219 48.1875
Q40.625 48.1875 47.75 41.5
Q54.8906 34.8125 54.8906 23.3906
Q54.8906 11.625 47.5625 5.09375
Q40.2344 -1.42188 26.9062 -1.42188
Q22.3125 -1.42188 17.5469 -0.640625
Q12.7969 0.140625 7.71875 1.70312
L7.71875 11.625
Q12.1094 9.23438 16.7969 8.0625
Q21.4844 6.89062 26.7031 6.89062
Q35.1562 6.89062 40.0781 11.3281
Q45.0156 15.7656 45.0156 23.3906
Q45.0156 31 40.0781 35.4375
Q35.1562 39.8906 26.7031 39.8906
Q22.75 39.8906 18.8125 39.0156
Q14.8906 38.1406 10.7969 36.2812
z
" id="BitstreamVeraSans-Roman-35"/>
      </defs>
      <g transform="translate(108.99 401.918125)scale(0.12 -0.12)">
       <use xlink:href="#BitstreamVeraSans-Roman-2212"/>
       <use x="83.7890625" xlink:href="#BitstreamVeraSans-Roman-31"/>
       <use x="147.412109375" xlink:href="#BitstreamVeraSans-Roman-2e"/>
       <use x="179.19921875" xlink:href="#BitstreamVeraSans-Roman-35"/>
      </g>
     </g>
    </g>
    <g id="xtick_2">
     <g id="line2d_3">
      <g>
       <use style="stroke:#000000;stroke-width:0.5;" x="180.0" xlink:href="#mb1445623b5" y="388.8"/>
      </g>
     </g>
     <g id="line2d_4">
      <g>
       <use style="stroke:#000000;stroke-width:0.5;" x="180.0" xlink:href="#m3a68111ca7" y="43.2"/>
      </g>
     </g>
     <g id="text_2">
      <!-- −1.0 -->
      <defs>
       <path d="
M31.7812 66.4062
Q24.1719 66.4062 20.3281 58.9062
Q16.5 51.4219 16.5 36.375
Q16.5 21.3906 20.3281 13.8906
Q24.1719 6.39062 31.7812 6.39062
Q39.4531 6.39062 43.2812 13.8906
Q47.125 21.3906 47.125 36.375
Q47.125 51.4219 43.2812 58.9062
Q39.4531 66.4062 31.7812 66.4062
M31.7812 74.2188
Q44.0469 74.2188 50.5156 64.5156
Q56.9844 54.8281 56.9844 36.375
Q56.9844 17.9688 50.5156 8.26562
Q44.0469 -1.42188 31.7812 -1.42188
Q19.5312 -1.42188 13.0625 8.26562
Q6.59375 17.9688 6.59375 36.375
Q6.59375 54.8281 13.0625 64.5156
Q19.5312 74.2188 31.7812 74.2188" id="BitstreamVeraSans-Roman-30"/>
      </defs>
      <g transform="translate(166.464375 401.918125)scale(0.12 -0.12)">
       <use xlink:href="#BitstreamVeraSans-Roman-2212"/>
       <use x="83.7890625" xlink:href="#BitstreamVeraSans-Roman-31"/>
       <use x="147.412109375" xlink:href="#BitstreamVeraSans-Roman-2e"/>
       <use x="179.19921875" xlink:href="#BitstreamVeraSans-Roman-30"/>
      </g>
     </g>
    </g>
    <g id="xtick_3">
     <g id="line2d_5">
      <g>
       <use style="stroke:#000000;stroke-width:0.5;" x="237.6" xlink:href="#mb1445623b5" y="388.8"/>
      </g>
     </g>
     <g id="line2d_6">
      <g>
       <use style="stroke:#000000;stroke-width:0.5;" x="237.6" xlink:href="#m3a68111ca7" y="43.2"/>
      </g>
     </g>
     <g id="text_3">
      <!-- −0.5 -->
      <g transform="translate(224.19 401.918125)scale(0.12 -0.12)">
       <use xlink:href="#BitstreamVeraSans-Roman-2212"/>
       <use x="83.7890625" xlink:href="#BitstreamVeraSans-Roman-30"/>
       <use x="147.412109375" xlink:href="#BitstreamVeraSans-Roman-2e"/>
       <use x="179.19921875" xlink:href="#BitstreamVeraSans-Roman-35"/>
      </g>
     </g>
    </g>
    <g id="xtick_4">
     <g id="line2d_7">
      <g>
       <use style="stroke:#000000;stroke-width:0.5;" x="295.2" xlink:href="#mb1445623b5" y="388.8"/>
      </g>
     </g>
     <g id="line2d_8">
      <g>
       <use style="stroke:#000000;stroke-width:0.5;" x="295.2" xlink:href="#m3a68111ca7" y="43.2"/>
      </g>
     </g>
     <g id="text_4">
      <!-- 0.0 -->
      <g transform="translate(286.4521875 401.918125)scale(0.12 -0.12)">
       <use xlink:href="#BitstreamVeraSans-Roman-30"/>
       <use x="63.623046875" xlink:href="#BitstreamVeraSans-Roman-2e"/>
       <use x="95.41015625" xlink:href="#BitstreamVeraSans-Roman-30"/>
      </g>
     </g>
    </g>
    <g id="xtick_5">
     <g id="line2d_9">
      <g>
       <use style="stroke:#000000;stroke-width:0.5;" x="352.8" xlink:href="#mb1445623b5" y="388.8"/>
      </g>
     </g>
     <g id="line2d_10">
      <g>
       <use style="stroke:#000000;stroke-width:0.5;" x="352.8" xlink:href="#m3a68111ca7" y="43.2"/>
      </g>
     </g>
     <g id="text_5">
      <!-- 0.5 -->
      <g transform="translate(344.1778125 401.918125)scale(0.12 -0.12)">
       <use xlink:href="#BitstreamVeraSans-Roman-30"/>
       <use x="63.623046875" xlink:href="#BitstreamVeraSans-Roman-2e"/>
       <use x="95.41015625" xlink:href="#BitstreamVeraSans-Roman-35"/>
      </g>
     </g>
    </g>
    <g id="xtick_6">
     <g id="line2d_11">
      <g>
       <use style="stroke:#000000;stroke-width:0.5;" x="410.4" xlink:href="#mb1445623b5" y="388.8"/>
      </g>
     </g>
     <g id="line2d_12">
      <g>
       <use style="stroke:#000000;stroke-width:0.5;" x="410.4" xlink:href="#m3a68111ca7" y="43.2"/>
      </g>
     </g>
     <g id="text_6">
      <!-- 1.0 -->
      <g transform="translate(401.915625 401.918125)scale(0.12 -0.12)">
       <use xlink:href="#BitstreamVeraSans-Roman-31"/>
       <use x="63.623046875" xlink:href="#BitstreamVeraSans-Roman-2e"/>
       <use x="95.41015625" xlink:href="#BitstreamVeraSans-Roman-30"/>
      </g>
     </g>
    </g>
    <g id="xtick_7">
     <g id="line2d_13">
      <g>
       <use style="stroke:#000000;stroke-width:0.5;" x="468.0" xlink:href="#mb1445623b5" y="388.8"/>
      </g>
     </g>
     <g id="line2d_14">
      <g>
       <use style="stroke:#000000;stroke-width:0.5;" x="468.0" xlink:href="#m3a68111ca7" y="43.2"/>
      </g>
     </g>
     <g id="text_7">
      <!-- 1.5 -->
      <g transform="translate(459.64125 401.918125)scale(0.12 -0.12)">
       <use xlink:href="#BitstreamVeraSans-Roman-31"/>
       <use x="63.623046875" xlink:href="#BitstreamVeraSans-Roman-2e"/>
       <use x="95.41015625" xlink:href="#BitstreamVeraSans-Roman-35"/>
      </g>
     </g>
    </g>
   </g>
   <g id="matplotlib.axis_2">
    <g id="ytick_1">
     <g id="line2d_15">
      <defs>
       <path d="
M0 0
L4 0" id="m71e820122c" style="stroke:#000000;stroke-width:0.5;"/>
      </defs>
      <g>
       <use style="stroke:#000000;stroke-width:0.5;" x="122.4" xlink:href="#m71e820122c" y="388.8"/>
      </g>
     </g>
     <g id="line2d_16">
      <defs>
       <path d="
M0 0
L-4 0" id="m81ec2b1422" style="stroke:#000000;stroke-width:0.5;"/>
      </defs>
      <g>
       <use style="stroke:#000000;stroke-width:0.5;" x="468.0" xlink:href="#m81ec2b1422" y="388.8"/>
      </g>
     </g>
     <g id="text_8">
      <!-- −1.5 -->
      <g transform="translate(91.58 392.11125)scale(0.12 -0.12)">
       <use xlink:href="#BitstreamVeraSans-Roman-2212"/>
       <use x="83.7890625" xlink:href="#BitstreamVeraSans-Roman-31"/>
       <use x="147.412109375" xlink:href="#BitstreamVeraSans-Roman-2e"/>
       <use x="179.19921875" xlink:href="#BitstreamVeraSans-Roman-35"/>
      </g>
     </g>
    </g>
    <g id="ytick_2">
     <g id="line2d_17">
      <g>
       <use style="stroke:#000000;stroke-width:0.5;" x="122.4" xlink:href="#m71e820122c" y="331.2"/>
      </g>
     </g>
     <g id="line2d_18">
      <g>
       <use style="stroke:#000000;stroke-width:0.5;" x="468.0" xlink:href="#m81ec2b1422" y="331.2"/>
      </g>
     </g>
     <g id="text_9">
      <!-- −1.0 -->
      <g transform="translate(91.32875 334.51125)scale(0.12 -0.12)">
       <use xlink:href="#BitstreamVeraSans-Roman-2212"/>
       <use x="83.7890625" xlink:href="#BitstreamVeraSans-Roman-31"/>
       <use x="147.412109375" xlink:href="#BitstreamVeraSans-Roman-2e"/>
       <use x="179.19921875" xlink:href="#BitstreamVeraSans-Roman-30"/>
      </g>
     </g>
    </g>
    <g id="ytick_3">
     <g id="line2d_19">
      <g>
       <use style="stroke:#000000;stroke-width:0.5;" x="122.4" xlink:href="#m71e820122c" y="273.6"/>
      </g>
     </g>
     <g id="line2d_20">
      <g>
       <use style="stroke:#000000;stroke-width:0.5;" x="468.0" xlink:href="#m81ec2b1422" y="273.6"/>
      </g>
     </g>
     <g id="text_10">
      <!-- −0.5 -->
      <g transform="translate(91.58 276.91125)scale(0.12 -0.12)">
       <use xlink:href="#BitstreamVeraSans-Roman-2212"/>
       <use x="83.7890625" xlink:href="#BitstreamVeraSans-Roman-30"/>
       <use x="147.412109375" xlink:href="#BitstreamVeraSans-Roman-2e"/>
       <use x="179.19921875" xlink:href="#BitstreamVeraSans-Roman-35"/>
      </g>
     </g>
    </g>
    <g id="ytick_4">
     <g id="line2d_21">
      <g>
       <use style="stroke:#000000;stroke-width:0.5;" x="122.4" xlink:href="#m71e820122c" y="216.0"/>
      </g>
     </g>
     <g id="line2d_22">
      <g>
       <use style="stroke:#000000;stroke-width:0.5;" x="468.0" xlink:href="#m81ec2b1422" y="216.0"/>
      </g>
     </g>
     <g id="text_11">
      <!-- 0.0 -->
      <g transform="translate(100.904375 219.31125)scale(0.12 -0.12)">
       <use xlink:href="#BitstreamVeraSans-Roman-30"/>
       <use x="63.623046875" xlink:href="#BitstreamVeraSans-Roman-2e"/>
       <use x="95.41015625" xlink:href="#BitstreamVeraSans-Roman-30"/>
      </g>
     </g>
    </g>
    <g id="ytick_5">
     <g id="line2d_23">
      <g>
       <use style="stroke:#000000;stroke-width:0.5;" x="122.4" xlink:href="#m71e820122c" y="158.4"/>
      </g>
     </g>
     <g id="line2d_24">
      <g>
       <use style="stroke:#000000;stroke-width:0.5;" x="468.0" xlink:href="#m81ec2b1422" y="158.4"/>
      </g>
     </g>
     <g id="text_12">
      <!-- 0.5 -->
      <g transform="translate(101.155625 161.71125)scale(0.12 -0.12)">
       <use xlink:href="#BitstreamVeraSans-Roman-30"/>
       <use x="63.623046875" xlink:href="#BitstreamVeraSans-Roman-2e"/>
       <use x="95.41015625" xlink:href="#BitstreamVeraSans-Roman-35"/>
      </g>
     </g>
    </g>
    <g id="ytick_6">
     <g id="line2d_25">
      <g>
       <use style="stroke:#000000;stroke-width:0.5;" x="122.4" xlink:href="#m71e820122c" y="100.8"/>
      </g>
     </g>
     <g id="line2d_26">
      <g>
       <use style="stroke:#000000;stroke-width:0.5;" x="468.0" xlink:href="#m81ec2b1422" y="100.8"/>
      </g>
     </g>
     <g id="text_13">
      <!-- 1.0 -->
      <g transform="translate(101.43125 104.11125)scale(0.12 -0.12)">
       <use xlink:href="#BitstreamVeraSans-Roman-31"/>
       <use x="63.623046875" xlink:href="#BitstreamVeraSans-Roman-2e"/>
       <use x="95.41015625" xlink:href="#BitstreamVeraSans-Roman-30"/>
      </g>
     </g>
    </g>
    <g id="ytick_7">
     <g id="line2d_27">
      <g>
       <use style="stroke:#000000;stroke-width:0.5;" x="122.4" xlink:href="#m71e820122c" y="43.2"/>
      </g>
     </g>
     <g id="line2d_28">
      <g>
       <use style="stroke:#000000;stroke-width:0.5;" x="468.0" xlink:href="#m81ec2b1422" y="43.2"/>
      </g>
     </g>
     <g id="text_14">
      <!-- 1.5 -->
      <g transform="translate(101.6825 46.51125)scale(0.12 -0.12)">
       <use xlink:href="#BitstreamVeraSans-Roman-31"/>
       <use x="63.623046875" xlink:href="#BitstreamVeraSans-Roman-2e"/>
       <use x="95.41015625" xlink:href="#BitstreamVeraSans-Roman-35"/>
      </g>
     </g>
    </g>
   </g>
  </g>
 </g>
 <defs>
  <clipPath id="p23ab9b749c">
   <rect height="345.6" width="345.6" x="122.4" y="43.2"/>
  </clipPath>
 </defs>
</svg>
