<?xml version="1.0" encoding="utf-8" standalone="no"?>
<!DOCTYPE svg PUBLIC "-//W3C//DTD SVG 1.1//EN"
  "http://www.w3.org/Graphics/SVG/1.1/DTD/svg11.dtd">
<!-- Created with matplotlib (http://matplotlib.org/) -->
<svg height="432pt" version="1.1" viewBox="0 0 576 432" width="576pt" xmlns="http://www.w3.org/2000/svg" xmlns:xlink="http://www.w3.org/1999/xlink">
 <defs>
  <style type="text/css">
*{stroke-linecap:butt;stroke-linejoin:round;}
  </style>
 </defs>
 <g id="figure_1">
  <g id="patch_1">
   <path d="
M0 432
L576 432
L576 0
L0 0
z
" style="fill:#ffffff;"/>
  </g>
  <g id="axes_1">
   <g id="patch_2">
    <path d="
M122.4 388.8
L468 388.8
L468 43.2
L122.4 43.2
z
" style="fill:#ffffff;"/>
   </g>
   <g id="patch_3">
    <path clip-path="url(#p23ab9b749c)" d="
M295.2 331.2
C325.751 331.2 355.056 319.062 376.659 297.459
C398.262 275.856 410.4 246.551 410.4 216
C410.4 185.449 398.262 156.144 376.659 134.541
C355.056 112.938 325.751 100.8 295.2 100.8
C264.649 100.8 235.344 112.938 213.741 134.541
C192.138 156.144 180 185.449 180 216
C180 246.551 192.138 275.856 213.741 297.459
C235.344 319.062 264.649 331.2 295.2 331.2
L295.2 331.2" style="fill:none;stroke:#000000;stroke-dasharray:6.000000,6.000000;stroke-dashoffset:0.0;stroke-linejoin:miter;"/>
   </g>
   <g id="LineCollection_1">
    <path clip-path="url(#p23ab9b749c)" d="
M295.2 318.155
L295.303 317.952
L295.251 316.224
L296.928 315.785
L297.459 316.224
L298.656 316.93
L300.384 316.913
L300.939 316.224
L303.84 313.652
L304.781 314.496
L303.484 316.224
L303.84 317.973
L303.904 317.952
L305.568 316.85
L309.024 317.474
L310.752 315.394
L311.787 316.224
L312.48 316.317
L315.936 316.338
L316.009 316.224
L315.519 314.496
L315.936 314.298
L317.664 311.821
L318.793 312.768
L319.032 314.496
L319.392 315.221
L321.12 315.01
L322.745 314.496
L322.848 314.183
L324.576 313.997
L326.154 312.768
L326.304 312.431
L328.032 311.817
L329.76 310.864
L331.488 311.249
L331.559 311.04
L331.488 310.774
L330.625 309.312
L331.488 308.641
L333.216 309.389
L333.516 309.312
L335.117 307.584
L336.672 306.808
L337.355 307.584
L338.4 308.053
L338.959 307.584
L338.421 305.856
L340.128 304.897
L343.584 302.654
L344.283 304.128
L345.312 305.339
L345.971 304.128
L345.312 302.896
L343.973 302.4
L344.514 300.672
L345.312 299.979
L347.04 301.599
L348.409 300.672
L348.912 298.944
L350.496 297.73
L352.224 298.013
L353.077 297.216
L353.239 295.488
L355.68 293.35
L356.036 293.76
L357.408 294.3
L357.965 293.76
L357.408 292.285
L357.114 292.032
L357.408 291.928
L359.136 292.45
L359.543 292.032
L358.989 290.304
L359.136 289.894
L360.864 288.169
L361.197 288.576
L362.592 289.124
L363.138 288.576
L362.592 287.215
L362.146 286.848
L366.048 282.565
L366.841 281.664
L369.504 281.261
L370.803 279.936
L371.232 279.228
L372.96 279.277
L373.99 278.208
L372.96 276.851
L371.014 276.48
L372.96 274.004
L374.688 274.167
L375.774 273.024
L376.416 269.566
L376.418 269.568
L378.144 271.25
L379.872 270.233
L381.22 267.84
L381.584 266.112
L381.6 264.317
L383.097 262.656
L383.328 261.382
L383.623 260.928
L385.056 260.266
L385.702 260.928
L385.799 262.656
L386.784 263.337
L387.428 262.656
L387.376 260.928
L386.784 259.99
L385.977 259.2
L385.806 257.472
L386.784 257.227
L387.367 257.472
L388.512 258.209
L390.24 258.099
L390.845 257.472
L390.24 256.61
L388.512 256.453
L388.194 255.744
L388.512 255.465
L389.861 254.016
L389.282 252.288
L391.968 248.18
L392.744 247.104
L393.696 246.763
L394.556 247.104
L395.424 248.337
L397.152 246.513
L398.334 245.376
L398.88 245.217
L400.608 243.58
L402.336 243.132
L404.064 241.576
L407.52 240.644
L409.248 239.183
L411.225 238.464
L412.704 237.271
L414.432 236.516
L420.721 231.552
L422.479 229.824
L424.024 228.096
L425.371 226.368
L427.559 222.912
L429.17 219.456
L429.984 216.985
L430.204 216
L430.123 214.272
L430.779 210.816
L431.312 205.632
L430.774 203.904
L430.617 202.176
L429.105 200.448
L428.922 198.72
L429.984 196.945
L428.389 195.264
L427.627 191.808
L426.528 188.312
L425.211 184.896
L423.544 181.44
L423.072 180.873
L422.318 179.712
L421.545 177.984
L421.42 176.256
L422.113 174.528
L422.058 172.8
L421.639 171.072
L421.344 170.727
L420.595 171.072
L419.616 171.377
L419.358 171.072
L420.438 169.344
L419.616 168.422
L417.805 169.344
L415.789 165.888
L415.729 164.16
L415.479 162.432
L416.16 161.298
L417.523 160.704
L415.286 155.52
L413.608 152.064
L411.646 148.608
L409.248 145.13
L407.52 142.979
L405.792 141.085
L404.064 139.404
L402.336 137.902
L398.88 135.304
L395.17 133.056
L393.696 132.931
L393.531 133.056
L393.015 134.784
L391.968 135.501
L390.24 133.994
L389.594 133.056
L389.163 131.328
L388.512 130.705
L387.651 129.6
L388.631 127.872
L388.512 127.524
L386.784 126.378
L386.082 126.144
L387.247 124.416
L385.58 122.688
L383.328 120.425
L379.707 117.504
L378.144 117.164
L376.66 115.776
L376.416 114.927
L369.504 109.871
L365.373 107.136
L362.437 105.408
L359.037 103.68
L355.68 102.27
L348.768 99.9966
L347.04 99.728
L345.312 99.3378
L338.187 98.496
L336.672 98.8096
L333.216 98.352
L331.488 100.539
L329.76 100.142
L328.032 99.5354
L327.677 98.496
L327.244 96.768
L326.618 95.04
L326.304 94.7878
L325.811 95.04
L325.413 96.768
L324.576 98.4778
L322.848 98.2616
L321.12 98.3678
L321.094 98.496
L319.392 99.6569
L318.533 98.496
L319.392 97.3591
L320.661 96.768
L319.392 95.3606
L317.664 96.315
L315.936 96.1998
L315.332 95.04
L312.48 93.8546
L311.089 95.04
L310.752 96.7688
L309.343 98.496
L309.598 100.224
L309.024 100.709
L308.197 100.224
L308.296 98.496
L305.771 96.768
L306.151 95.04
L305.568 94.6521
L303.84 95.7817
L302.112 95.4428
L300.384 96.0619
L298.822 96.768
L298.656 97.1389
L295.2 96.3648
L293.472 96.5675
L291.744 95.6602
L287.798 95.04
L284.832 94.7011
L281.376 94.5171
L279.648 94.5159
L277.92 95.5158
L274.464 95.7919
L271.008 96.2698
L267.552 97.052
L264.096 98.157
L260.64 99.618
L257.184 101.486
L253.728 103.782
L250.272 106.542
L247.766 108.864
L244.501 112.32
L238.176 119.829
L236.448 119.526
L235.004 120.96
L234.72 123.105
L234.208 120.96
L232.992 120.105
L232.124 120.96
L231.264 125.942
L230.916 124.416
L229.536 123.456
L227.808 125.234
L226.08 124.213
L224.352 124.618
L222.416 126.144
L221.343 127.872
L220.896 128.251
L219.58 129.6
L219.168 130.938
L217.44 133.061
L215.712 134.022
L215.033 134.784
L215.204 136.512
L213.984 139.417
L210.772 143.424
L208.8 144.196
L207.072 144.838
L205.344 146.563
L204.349 146.88
L203.616 147.545
L202.883 148.608
L201.888 149.676
L201.093 150.336
L199.688 152.064
L197.214 155.52
L194.976 159.261
L193.386 162.432
L191.503 167.616
L191.52 167.652
L192.158 169.344
L191.853 171.072
L190.816 174.528
L190.042 177.984
L189.258 183.168
L188.964 186.624
L188.796 191.808
L188.849 196.992
L188.064 197.222
L185.487 200.448
L186.336 201.49
L188.064 200.196
L188.969 200.448
L189.23 205.632
L188.064 205.904
L186.336 206.145
L185.296 207.36
L186.336 208.555
L188.064 208.78
L188.402 209.088
L189.567 210.816
L188.43 212.544
L188.064 212.833
L187.47 212.544
L186.336 211.684
L185.404 210.816
L184.608 209.194
L184.093 210.816
L184.603 212.544
L183.81 214.272
L184.608 215.072
L186.336 216.103
L186.591 216
L188.064 215.755
L189.844 214.272
L190.004 216
L189.792 216.375
L189.314 217.728
L188.391 219.456
L189.933 221.184
L189.792 221.313
L188.349 222.912
L188.064 224.081
L187.667 224.64
L188.064 225.292
L189.158 224.64
L189.864 224.64
L190.238 226.368
L189.792 226.933
L188.308 228.096
L189.294 229.824
L189.738 231.552
L188.905 233.28
L189.792 234.508
L190.618 235.008
L188.064 235.898
L186.5 235.008
L186.865 233.28
L187.489 231.552
L186.336 230.124
L185.722 231.552
L186.114 233.28
L186.257 235.008
L186.159 236.736
L186.336 237.184
L187.787 238.464
L188.064 238.958
L189.792 239.071
L191.52 239.641
L193.248 238.939
L194.564 241.92
L195.243 243.648
L195.617 245.376
L195.31 247.104
L194.976 247.31
L194.78 247.104
L193.248 246.392
L192.088 247.104
L193.248 247.722
L194.381 248.832
L193.991 250.56
L194.976 250.957
L197.181 252.288
L197.906 254.016
L198.272 255.744
L197.707 257.472
L197.95 259.2
L199.066 262.656
L200.16 263.475
L200.759 264.384
L200.355 266.112
L201.888 269.907
L207.072 278.466
L209.493 281.664
L212.551 285.12
L214.211 286.848
L217.44 289.76
L220.896 292.458
L224.352 294.813
L228.44 297.216
L231.264 298.702
L232.992 299.401
L235.526 300.672
L238.176 301.787
L243.36 303.691
L246.816 304.805
L248.544 305.601
L250.297 305.856
L251.049 307.584
L252 308.905
L253.728 308.283
L254.296 307.584
L255.456 306.478
L257.184 307.006
L257.528 307.584
L257.184 308.307
L255.456 308.728
L254.74 309.312
L257.184 311.46
L257.578 311.04
L258.912 310.372
L261.573 311.04
L262.368 312
L264.096 311.986
L264.96 312.768
L265.824 313.799
L267.162 314.496
L267.552 314.97
L269.28 316.266
L269.377 316.224
L271.008 314.811
L272.736 315.311
L273.944 316.224
L274.464 316.803
L275.336 314.496
L276.192 313.913
L276.991 314.496
L277.92 315.941
L278.641 314.496
L279.648 313.588
L280.687 314.496
L281.376 315.806
L283.104 315.508
L284.223 316.224
L284.832 317.443
L286.56 317.799
L288.288 316.516
L290.016 316.77
L291.744 317.738
L292.691 316.224
L293.472 315.241
L295.185 316.224
L295.029 317.952
L295.2 318.155
L295.2 318.155" style="fill:none;stroke:#000000;"/>
    <path clip-path="url(#p23ab9b749c)" d="
M279.648 317.144
L280.695 316.224
L279.648 315.801
L278.441 316.224
L279.648 317.144" style="fill:none;stroke:#000000;"/>
    <path clip-path="url(#p23ab9b749c)" d="
M258.912 312.884
L259.038 312.768
L258.912 312.593
L258.724 312.768
L258.912 312.884" style="fill:none;stroke:#000000;"/>
    <path clip-path="url(#p23ab9b749c)" d="
M269.28 314.063
L268.884 312.768
L267.552 311.569
L266.083 311.04
L267.552 310.729
L269.28 310.599
L269.698 311.04
L269.605 312.768
L269.28 314.063" style="fill:none;stroke:#000000;"/>
    <path clip-path="url(#p23ab9b749c)" d="
M272.736 313.918
L272.016 312.768
L272.736 312.258
L273.475 312.768
L272.736 313.918" style="fill:none;stroke:#000000;"/>
    <path clip-path="url(#p23ab9b749c)" d="
M277.92 313.032
L277.753 312.768
L277.92 312.663
L278.136 312.768
L277.92 313.032" style="fill:none;stroke:#000000;"/>
    <path clip-path="url(#p23ab9b749c)" d="
M283.104 314.11
L281.883 312.768
L283.104 311.496
L284.602 312.768
L283.104 314.11" style="fill:none;stroke:#000000;"/>
    <path clip-path="url(#p23ab9b749c)" d="
M314.208 312.905
L314.127 312.768
L314.208 312.701
L314.267 312.768
L314.208 312.905" style="fill:none;stroke:#000000;"/>
    <path clip-path="url(#p23ab9b749c)" d="
M321.12 313.569
L320.143 312.768
L321.001 311.04
L321.12 310.953
L322.848 310.715
L323.38 311.04
L322.848 311.962
L322.417 312.768
L321.12 313.569" style="fill:none;stroke:#000000;"/>
    <path clip-path="url(#p23ab9b749c)" d="
M274.464 311.132
L274.411 311.04
L274.464 310.991
L274.541 311.04
L274.464 311.132" style="fill:none;stroke:#000000;"/>
    <path clip-path="url(#p23ab9b749c)" d="
M286.56 311.866
L286.157 311.04
L286.56 310.788
L286.884 311.04
L286.56 311.866" style="fill:none;stroke:#000000;"/>
    <path clip-path="url(#p23ab9b749c)" d="
M310.752 311.439
L310.579 311.04
L310.752 310.884
L310.93 311.04
L310.752 311.439" style="fill:none;stroke:#000000;"/>
    <path clip-path="url(#p23ab9b749c)" d="
M366.048 292.062
L366.116 292.032
L366.048 291.99
L366.006 292.032
L366.048 292.062" style="fill:none;stroke:#000000;"/>
    <path clip-path="url(#p23ab9b749c)" d="
M366.048 287.826
L366.297 286.848
L366.048 286.362
L365.543 286.848
L366.048 287.826" style="fill:none;stroke:#000000;"/>
    <path clip-path="url(#p23ab9b749c)" d="
M369.504 284.279
L370.379 283.392
L369.504 282.211
L368.236 283.392
L369.504 284.279" style="fill:none;stroke:#000000;"/>
    <path clip-path="url(#p23ab9b749c)" d="
M201.888 262.908
L201.434 262.656
L201.888 262.487
L202.013 262.656
L201.888 262.908" style="fill:none;stroke:#000000;"/>
    <path clip-path="url(#p23ab9b749c)" d="
M393.696 250.834
L394.282 250.56
L393.696 250.075
L393.111 250.56
L393.696 250.834" style="fill:none;stroke:#000000;"/>
    <path clip-path="url(#p23ab9b749c)" d="
M196.704 249.016
L196.449 248.832
L196.704 248.428
L196.942 248.832
L196.704 249.016" style="fill:none;stroke:#000000;"/>
    <path clip-path="url(#p23ab9b749c)" d="
M189.792 242.868
L191.52 242.361
L192.458 241.92
L191.52 241.363
L189.792 241.588
L189.38 241.92
L189.792 242.868" style="fill:none;stroke:#000000;"/>
    <path clip-path="url(#p23ab9b749c)" d="
M191.52 237.402
L190.781 236.736
L191.52 235.388
L192.25 236.736
L191.52 237.402" style="fill:none;stroke:#000000;"/>
    <path clip-path="url(#p23ab9b749c)" d="
M191.52 230.11
L190.412 229.824
L191.52 229.153
L192.037 229.824
L191.52 230.11" style="fill:none;stroke:#000000;"/>
    <path clip-path="url(#p23ab9b749c)" d="
M182.88 228.252
L183.113 228.096
L182.88 227.905
L182.718 228.096
L182.88 228.252" style="fill:none;stroke:#000000;"/>
    <path clip-path="url(#p23ab9b749c)" d="
M182.88 223.76
L184.608 223.669
L185.836 222.912
L184.608 222.132
L182.88 222.473
L182.338 222.912
L182.88 223.76" style="fill:none;stroke:#000000;"/>
    <path clip-path="url(#p23ab9b749c)" d="
M182.88 219.606
L183.054 219.456
L182.88 219.312
L182.761 219.456
L182.88 219.606" style="fill:none;stroke:#000000;"/>
    <path clip-path="url(#p23ab9b749c)" d="
M182.88 216.53
L183.426 216
L182.88 215.456
L181.7 216
L182.88 216.53" style="fill:none;stroke:#000000;"/>
    <path clip-path="url(#p23ab9b749c)" d="
M386.784 134.929
L386.652 134.784
L386.218 133.056
L386.784 132.602
L387.24 133.056
L388.512 134.397
L389.141 134.784
L388.512 135.135
L386.784 134.929" style="fill:none;stroke:#000000;"/>
    <path clip-path="url(#p23ab9b749c)" d="
M383.328 133.602
L383.249 133.056
L383.328 132.646
L383.483 133.056
L383.328 133.602" style="fill:none;stroke:#000000;"/>
    <path clip-path="url(#p23ab9b749c)" d="
M390.24 129.879
L390.46 129.6
L390.24 129.389
L389.977 129.6
L390.24 129.879" style="fill:none;stroke:#000000;"/>
    <path clip-path="url(#p23ab9b749c)" d="
M379.872 128.119
L379.606 127.872
L379.872 127.37
L381.6 127.224
L382.154 127.872
L381.6 128.276
L379.872 128.119" style="fill:none;stroke:#000000;"/>
    <path clip-path="url(#p23ab9b749c)" d="
M229.536 126.28
L229.215 126.144
L229.536 125.854
L231.019 126.144
L229.536 126.28" style="fill:none;stroke:#000000;"/>
    <path clip-path="url(#p23ab9b749c)" d="
M383.328 126.923
L382.445 126.144
L383.328 125.075
L384.835 126.144
L383.328 126.923" style="fill:none;stroke:#000000;"/>
    <path clip-path="url(#p23ab9b749c)" d="
M227.808 123.184
L228.303 122.688
L227.808 122.324
L227.444 122.688
L227.808 123.184" style="fill:none;stroke:#000000;"/>
    <path clip-path="url(#p23ab9b749c)" d="
M374.688 119.288
L374.604 119.232
L374.688 119.121
L374.833 119.232
L374.688 119.288" style="fill:none;stroke:#000000;"/>
    <path clip-path="url(#p23ab9b749c)" d="
M234.72 118.233
L235.444 117.504
L234.72 117.006
L234.218 117.504
L234.72 118.233" style="fill:none;stroke:#000000;"/>
    <path clip-path="url(#p23ab9b749c)" d="
M307.296 102.277
L306.742 101.952
L307.296 101.275
L307.668 101.952
L307.296 102.277" style="fill:none;stroke:#000000;"/>
    <path clip-path="url(#p23ab9b749c)" d="
M312.48 100.914
L311.912 100.224
L312.48 99.0665
L314.208 99.6519
L314.943 100.224
L314.208 100.8
L312.48 100.914" style="fill:none;stroke:#000000;"/>
    <path clip-path="url(#p23ab9b749c)" d="
M302.112 98.6115
L302.039 98.496
L302.112 98.3974
L302.635 98.496
L302.112 98.6115" style="fill:none;stroke:#000000;"/>
    <path clip-path="url(#p23ab9b749c)" d="
M315.936 99.4722
L315.133 98.496
L315.936 96.9661
L316.778 98.496
L315.936 99.4722" style="fill:none;stroke:#000000;"/>
    <path clip-path="url(#p23ab9b749c)" d="
M309.024 96.2149
L310.34 95.04
L309.024 94.1187
L308.287 95.04
L309.024 96.2149" style="fill:none;stroke:#000000;"/>
    <path clip-path="url(#p23ab9b749c)" d="
M315.936 94.0128
L317.664 93.4165
L319.392 93.4183
L319.401 93.312
L319.392 93.2821
L317.664 93.0385
L315.936 92.808
L315.744 93.312
L315.936 94.0128" style="fill:none;stroke:#000000;"/>
   </g>
   <g id="LineCollection_2">
    <path clip-path="url(#p23ab9b749c)" d="
M274.464 288.585
L278.168 288.576
L279.648 288.341
L281.376 287.279
L285.005 286.848
L286.56 285.352
L287.652 285.12
L288.288 284.821
L290.016 284.541
L291.744 284.616
L293.472 284.84
L295.2 285.289
L302.112 286.212
L305.568 286.432
L309.024 286.348
L312.48 285.876
L315.936 284.923
L317.664 284.283
L321.12 282.452
L322.848 281.32
L324.659 279.936
L326.626 278.208
L328.335 276.48
L329.76 274.567
L331.488 272.469
L333.864 269.568
L334.648 267.84
L334.944 267.574
L338.4 265.98
L337.79 264.384
L338.4 264.196
L339.923 262.656
L340.128 262.005
L340.702 262.656
L341.856 263.118
L343.126 262.656
L343.584 261.663
L344.889 260.928
L345.312 260.819
L346.279 257.472
L347.04 256.593
L348.768 255.403
L350.496 254.656
L350.874 254.016
L351.036 252.288
L352.224 250.298
L353.952 249.582
L354.552 248.832
L355.226 247.104
L355.68 244.91
L356.245 243.648
L356.46 241.92
L357.259 240.192
L358.636 235.008
L358.421 233.28
L358.644 231.552
L359.136 229.761
L358.329 228.096
L358.574 226.368
L357.267 224.64
L357.408 224.421
L358.096 222.912
L359.136 221.5
L359.879 221.184
L359.781 219.456
L359.941 217.728
L360.944 216
L360.864 215.959
L359.557 214.272
L359.634 212.544
L360.875 210.816
L360.981 209.088
L360.864 208.537
L360.818 209.088
L359.136 210.219
L358.243 209.088
L359.136 207.914
L360.674 207.36
L360.635 205.632
L359.992 203.904
L359.623 202.176
L360.032 200.448
L359.677 198.72
L359.136 198.531
L357.964 196.992
L358.657 195.264
L357.615 193.536
L357.408 191.808
L355.9 190.08
L355.68 187.546
L355.591 188.352
L353.952 189.868
L353.036 188.352
L353.952 186.998
L355.363 186.624
L353.952 185.918
L353.031 184.896
L353.412 183.168
L351.988 181.44
L351.134 179.712
L350.005 177.984
L348.478 176.256
L347.04 175.115
L345.921 172.8
L342.664 169.344
L341.856 168.996
L340.43 167.616
L340.128 166.815
L338.4 167.183
L336.605 165.888
L336.443 164.16
L334.735 162.432
L331.981 160.704
L331.488 160.323
L328.032 158.323
L325.802 157.248
L324.576 156.885
L322.848 156.145
L321.12 155.865
L320.087 155.52
L319.392 154.818
L317.664 154.465
L315.936 155.016
L315.763 155.52
L314.208 156.598
L313.171 155.52
L312.761 153.792
L312.48 153.648
L310.739 152.064
L309.024 152.939
L306.792 152.064
L305.568 151.285
L305.273 152.064
L302.112 154.285
L301.309 153.792
L302.293 152.064
L302.112 151.587
L300.384 152.138
L298.656 151.911
L296.928 151.835
L295.2 151.589
L293.472 152.884
L291.744 151.617
L290.016 151.538
L289.572 152.064
L288.288 152.872
L286.56 151.886
L284.832 152.304
L283.104 153.31
L281.376 152.927
L279.648 153.671
L277.92 153.643
L276.192 153.927
L274.464 154.49
L274.218 155.52
L272.736 157.214
L271.008 156.874
L269.28 156.78
L267.552 155.711
L265.824 156.788
L264.096 156.894
L262.368 156.575
L260.545 155.52
L258.912 156.337
L258.04 155.52
L257.184 155
L256.888 155.52
L255.456 156.854
L254.682 155.52
L253.137 153.792
L253.728 153.262
L257.041 152.064
L256.965 150.336
L256.449 148.608
L256.072 146.88
L255.456 146.501
L254.45 145.152
L254.17 141.696
L253.728 141.164
L252 140.277
L251.711 139.968
L250.912 138.24
L250.272 137.829
L248.544 137.025
L246.816 136.619
L245.014 136.512
L243.36 136.643
L241.632 137.085
L239.904 138.505
L238.176 139.371
L237.609 139.968
L236.407 141.696
L235.633 143.424
L235.263 145.152
L235.267 146.88
L235.617 148.608
L235.721 150.336
L236.527 152.064
L238.176 152.506
L239.368 153.792
L239.813 155.52
L239.904 156.405
L240.412 157.248
L241.632 158.279
L243.36 157.618
L245.088 158.184
L246.113 158.976
L246.816 159.944
L247.735 158.976
L248.544 158.427
L250.272 158.729
L252 158.262
L253.728 158.079
L254.923 158.976
L254.517 160.704
L255.647 162.432
L255.456 162.534
L253.728 164.36
L252 164.607
L251.081 164.16
L252 163.121
L253.681 162.432
L250.272 161.662
L249.131 162.432
L249.853 164.16
L249.314 165.888
L249.39 167.616
L247.114 169.344
L246.816 169.548
L245.088 170.522
L243.36 171.2
L241.632 171.541
L239.904 171.513
L237.991 171.072
L236.448 170.608
L234.72 168.83
L232.992 167.579
L231.264 166.615
L229.22 165.888
L227.808 165.503
L226.08 165.274
L224.352 165.291
L222.624 165.569
L220.896 166.031
L219.168 166.775
L217.44 167.97
L215.712 169.741
L214.76 171.072
L213.984 172.877
L213.44 174.528
L213.207 176.256
L213.265 177.984
L213.704 179.712
L213.984 180.296
L214.669 181.44
L215.712 183.489
L217.44 185.72
L219.168 187.185
L221.073 188.352
L223.544 190.08
L224.352 191.527
L224.846 191.808
L226.08 192.795
L227.808 192.265
L229.027 193.536
L230.046 195.264
L230.66 196.992
L231.383 200.448
L231.391 202.176
L232.293 203.904
L231.264 205.433
L230.882 205.632
L229.828 207.36
L229.536 208.246
L229.153 207.36
L227.808 206.641
L227.077 207.36
L227.808 208.777
L228.582 209.088
L227.808 209.532
L226.08 209.552
L224.352 209.241
L222.316 209.088
L221.994 207.36
L220.858 205.632
L219.168 204.889
L215.712 206.359
L213.984 206.776
L212.256 206.989
L210.528 208.14
L208.8 209.887
L208.096 210.816
L207.072 212.802
L206.476 214.272
L206.124 216
L206.037 217.728
L206.209 219.456
L206.676 221.184
L207.511 222.912
L210.528 226.535
L213.169 228.096
L213.984 228.597
L215.712 229.24
L217.44 228.969
L219.168 229.663
L220.977 229.824
L222.023 228.096
L222.624 226.345
L222.664 226.368
L223.553 228.096
L224.352 228.78
L226.08 227.871
L226.914 228.096
L227.808 229.043
L229.073 229.824
L229.719 231.552
L230.078 233.28
L230.035 238.464
L229.536 240.897
L229.271 241.92
L228.701 243.648
L229.507 245.376
L227.808 247.824
L227.252 248.832
L226.501 250.56
L225.999 252.288
L225.648 254.016
L225.526 255.744
L225.632 257.472
L226.08 259.695
L226.42 260.928
L227.22 262.656
L228.379 264.384
L230.031 266.112
L231.264 267.116
L232.992 268.119
L234.72 268.869
L236.448 269.277
L238.176 269.509
L240.001 269.568
L241.632 269.479
L243.36 269.222
L245.088 268.792
L248.544 267.499
L252 266.038
L253.728 265.62
L255.456 265.442
L255.634 266.112
L255.796 267.84
L255.456 268.372
L254.465 269.568
L254.74 271.296
L254.667 273.024
L255.456 273.399
L256.694 274.752
L257.184 275.968
L257.599 276.48
L258.912 277.831
L259.641 278.208
L259.057 279.936
L260.947 281.664
L262.48 283.392
L264.759 285.12
L265.824 285.798
L267.915 286.848
L269.28 287.099
L271.008 288.02
L274.464 288.585
L274.464 288.585" style="fill:none;stroke:#000000;"/>
    <path clip-path="url(#p23ab9b749c)" d="
M257.184 272.208
L256.241 271.296
L256.511 269.568
L257.184 269.119
L258.912 269.285
L259.226 269.568
L258.912 269.915
L257.724 271.296
L257.184 272.208" style="fill:none;stroke:#000000;"/>
    <path clip-path="url(#p23ab9b749c)" d="
M348.768 257.626
L348.946 257.472
L348.768 257.201
L348.661 257.472
L348.768 257.626" style="fill:none;stroke:#000000;"/>
    <path clip-path="url(#p23ab9b749c)" d="
M355.68 235.554
L355.335 235.008
L355.68 234.657
L356.418 235.008
L355.68 235.554" style="fill:none;stroke:#000000;"/>
    <path clip-path="url(#p23ab9b749c)" d="
M226.08 231.804
L226.531 231.552
L226.08 231.181
L225.877 231.552
L226.08 231.804" style="fill:none;stroke:#000000;"/>
    <path clip-path="url(#p23ab9b749c)" d="
M407.52 218.033
L409.248 218.593
L410.976 218.53
L412.704 217.743
L412.725 217.728
L414.432 216.17
L414.57 216
L415.423 214.272
L415.562 212.544
L415.153 210.816
L415.038 209.088
L415.009 207.36
L414.984 205.632
L414.432 205.228
L413.652 203.904
L413.253 202.176
L412.704 201.491
L410.976 200.534
L410.303 200.448
L409.931 198.72
L410.492 196.992
L410.976 195.309
L410.99 195.264
L411.07 193.536
L410.976 193.184
L410.828 191.808
L410.051 190.08
L409.248 189.44
L408.334 188.352
L407.52 188.031
L406.382 188.352
L405.792 188.433
L404.064 188.493
L402.336 188.966
L400.841 190.08
L400.608 190.382
L399.724 191.808
L399.37 193.536
L399.49 195.264
L400.144 196.992
L400.608 197.687
L401.415 198.72
L402.336 199.699
L403.595 200.448
L403.428 202.176
L404.064 202.599
L404.44 203.904
L404.064 204.55
L402.679 205.632
L402.685 207.36
L403.263 209.088
L404.064 210.346
L404.442 210.816
L404.166 212.544
L404.321 214.272
L405.09 216
L405.792 216.766
L407.046 217.728
L407.52 218.033" style="fill:none;stroke:#000000;"/>
    <path clip-path="url(#p23ab9b749c)" d="
M224.352 208.694
L225.417 207.36
L224.352 206.544
L223.439 207.36
L224.352 208.694" style="fill:none;stroke:#000000;"/>
    <path clip-path="url(#p23ab9b749c)" d="
M407.52 202.385
L406.808 202.176
L407.52 201.045
L407.97 202.176
L407.52 202.385" style="fill:none;stroke:#000000;"/>
    <path clip-path="url(#p23ab9b749c)" d="
M353.952 193.762
L353.764 193.536
L353.952 193.221
L354.59 193.536
L353.952 193.762" style="fill:none;stroke:#000000;"/>
    <path clip-path="url(#p23ab9b749c)" d="
M395.424 183.358
L397.152 184.198
L398.88 184.532
L400.608 184.729
L402.336 184.172
L403.495 183.168
L404.064 182.655
L404.705 181.44
L405.694 179.712
L405.78 177.984
L405.474 176.256
L404.521 174.528
L404.064 174.067
L402.336 172.909
L401.88 172.8
L400.608 172.236
L398.88 172.386
L397.152 172.127
L396.512 172.8
L395.424 173.56
L394.249 174.528
L393.696 175.487
L393.096 176.256
L393.251 177.984
L392.844 179.712
L393.511 181.44
L393.696 181.614
L395.248 183.168
L395.424 183.358" style="fill:none;stroke:#000000;"/>
    <path clip-path="url(#p23ab9b749c)" d="
M340.128 173.366
L339.566 172.8
L340.128 171.954
L340.987 172.8
L340.128 173.366" style="fill:none;stroke:#000000;"/>
    <path clip-path="url(#p23ab9b749c)" d="
M246.816 166.163
L247.063 165.888
L246.816 165.764
L246.689 165.888
L246.816 166.163" style="fill:none;stroke:#000000;"/>
    <path clip-path="url(#p23ab9b749c)" d="
M255.456 166.285
L254.413 165.888
L255.456 165.399
L255.868 165.888
L255.456 166.285" style="fill:none;stroke:#000000;"/>
    <path clip-path="url(#p23ab9b749c)" d="
M385.056 166.39
L386.784 167.014
L388.512 167.128
L390.24 166.803
L391.931 165.888
L391.968 165.87
L393.696 164.298
L393.811 164.16
L394.853 162.432
L395.252 160.704
L395.255 158.976
L394.869 157.248
L393.865 155.52
L393.696 155.316
L392.059 153.792
L391.968 153.721
L390.24 152.795
L388.512 152.457
L386.784 152.528
L385.056 153.062
L383.923 153.792
L383.328 154.224
L382.149 155.52
L381.6 156.632
L381.279 157.248
L380.854 158.976
L380.92 160.704
L381.488 162.432
L381.6 162.633
L382.421 164.16
L383.328 165.158
L384.315 165.888
L385.056 166.39" style="fill:none;stroke:#000000;"/>
    <path clip-path="url(#p23ab9b749c)" d="
M262.368 164.481
L261.79 164.16
L262.368 163.633
L262.735 164.16
L262.368 164.481" style="fill:none;stroke:#000000;"/>
    <path clip-path="url(#p23ab9b749c)" d="
M331.488 164.813
L330.87 164.16
L331.488 163.129
L332.504 164.16
L331.488 164.813" style="fill:none;stroke:#000000;"/>
    <path clip-path="url(#p23ab9b749c)" d="
M258.912 160.905
L258.543 160.704
L258.912 159.447
L259.188 160.704
L258.912 160.905" style="fill:none;stroke:#000000;"/>
    <path clip-path="url(#p23ab9b749c)" d="
M272.736 159.127
L272.039 158.976
L272.736 157.519
L273.169 158.976
L272.736 159.127" style="fill:none;stroke:#000000;"/>
    <path clip-path="url(#p23ab9b749c)" d="
M276.192 157.357
L275.979 157.248
L276.192 156.901
L276.369 157.248
L276.192 157.357" style="fill:none;stroke:#000000;"/>
    <path clip-path="url(#p23ab9b749c)" d="
M290.016 154.077
L289.541 153.792
L290.016 152.833
L290.401 153.792
L290.016 154.077" style="fill:none;stroke:#000000;"/>
    <path clip-path="url(#p23ab9b749c)" d="
M366.048 147.422
L367.776 147.839
L369.504 148.301
L371.232 148.021
L372.96 146.982
L373.01 146.88
L374.618 145.152
L374.688 145.022
L375.015 143.424
L375.826 141.696
L375.647 139.968
L374.688 138.463
L374.57 138.24
L373.25 136.512
L372.96 136.267
L371.232 135.347
L369.504 135.236
L367.776 135.43
L366.048 136.104
L365.555 136.512
L364.32 137.808
L364.048 138.24
L363.208 139.968
L362.82 141.696
L363.413 143.424
L363.729 145.152
L364.32 145.79
L365.424 146.88
L366.048 147.422" style="fill:none;stroke:#000000;"/>
    <path clip-path="url(#p23ab9b749c)" d="
M341.856 134.936
L343.584 135.328
L345.312 135.226
L346.771 134.784
L347.04 134.717
L348.768 133.37
L349.117 133.056
L350.496 131.352
L350.512 131.328
L351.316 129.6
L351.592 127.872
L351.465 126.144
L350.914 124.416
L350.496 123.745
L349.81 122.688
L348.768 121.682
L347.532 120.96
L347.04 120.68
L345.312 120.154
L343.584 120.086
L341.856 120.403
L340.669 120.96
L340.128 121.206
L338.4 122.674
L338.386 122.688
L337.126 124.416
L336.672 125.91
L336.579 126.144
L336.407 127.872
L336.672 129.116
L336.742 129.6
L337.361 131.328
L338.4 132.431
L339.001 133.056
L340.128 134.114
L341.595 134.784
L341.856 134.936" style="fill:none;stroke:#000000;"/>
    <path clip-path="url(#p23ab9b749c)" d="
M271.008 133.625
L272.736 134.42
L274.464 134.746
L276.192 134.748
L277.92 134.425
L279.648 133.628
L280.383 133.056
L281.376 132.236
L282.142 131.328
L283.104 129.694
L283.154 129.6
L283.85 127.872
L284.174 126.144
L284.182 124.416
L283.907 122.688
L283.139 120.96
L283.104 120.906
L281.963 119.232
L281.376 118.654
L279.707 117.504
L279.648 117.467
L277.92 116.715
L276.192 116.361
L274.464 116.316
L272.736 116.695
L271.091 117.504
L271.008 117.543
L269.28 118.848
L268.898 119.232
L267.671 120.96
L267.552 121.261
L266.911 122.688
L266.535 124.416
L266.502 126.144
L266.789 127.872
L267.464 129.6
L267.552 129.762
L268.489 131.328
L269.28 132.247
L270.259 133.056
L271.008 133.625" style="fill:none;stroke:#000000;"/>
    <path clip-path="url(#p23ab9b749c)" d="
M310.752 128.008
L312.48 128.178
L314.208 127.9
L314.284 127.872
L315.936 126.939
L317.664 126.15
L317.673 126.144
L319.108 124.416
L319.392 123.779
L319.778 122.688
L320.146 120.96
L320.132 119.232
L319.896 117.504
L319.392 116.264
L319.183 115.776
L317.864 114.048
L317.664 113.867
L315.936 112.665
L314.864 112.32
L314.208 112.073
L312.48 111.981
L310.752 112.104
L310.203 112.32
L309.024 112.729
L307.689 114.048
L307.296 114.431
L305.922 115.776
L305.568 116.678
L305.199 117.504
L304.952 119.232
L305.327 120.96
L304.81 122.688
L305.568 123.727
L305.976 124.416
L307.235 126.144
L307.296 126.373
L309.024 127.419
L310.427 127.872
L310.752 128.008" style="fill:none;stroke:#000000;"/>
   </g>
   <g id="LineCollection_3">
    <path clip-path="url(#p23ab9b749c)" d="
M272.736 278.925
L274.464 279.333
L276.192 279.183
L277.92 278.375
L278.155 278.208
L279.648 276.786
L279.91 276.48
L280.791 274.752
L281.024 273.024
L280.857 271.296
L280.233 269.568
L279.648 268.573
L279.044 267.84
L277.92 266.679
L276.56 266.112
L276.192 265.943
L276.074 266.112
L274.464 266.811
L272.736 266.29
L271.008 267.485
L270.67 267.84
L269.459 269.568
L269.28 270.029
L268.811 271.296
L268.627 273.024
L268.954 274.752
L269.28 275.371
L269.745 276.48
L271.008 277.83
L271.564 278.208
L272.736 278.925" style="fill:none;stroke:#000000;"/>
    <path clip-path="url(#p23ab9b749c)" d="
M307.296 274.887
L309.024 275.229
L310.752 275.16
L312.48 274.687
L314.208 273.87
L315.251 273.024
L316.752 271.296
L317.664 269.08
L318.063 267.84
L318.23 266.112
L318.095 264.384
L317.664 262.449
L317.229 260.928
L316.024 257.472
L315.803 255.744
L316.068 254.016
L317.664 252.683
L319.55 252.288
L321.12 251.174
L322.848 251.683
L324.576 251.38
L328.032 251.083
L329.76 251.57
L331.488 251.824
L334.944 251.551
L336.672 251.227
L338.4 250.479
L340.128 249.472
L340.854 248.832
L342.396 247.104
L343.332 245.376
L343.834 243.648
L344.062 241.92
L343.997 240.192
L343.584 238.301
L343.011 236.736
L341.856 234.599
L340.929 233.28
L339.978 231.552
L339.165 229.824
L339.181 228.096
L338.642 226.368
L340.141 224.64
L341.856 220.961
L344.044 216
L344.629 214.272
L345.213 210.816
L345.312 208.246
L345.27 207.36
L345.022 205.632
L344.553 203.904
L343.584 201.751
L342.886 200.448
L341.637 198.72
L340.128 196.987
L332.932 190.08
L331.44 188.352
L328.247 184.896
L328.032 184.54
L327.342 183.168
L325.925 181.44
L324.576 180.447
L322.848 178.521
L321.12 177.866
L319.392 176.318
L319.079 176.256
L317.664 175.83
L315.936 174.849
L312.48 173.983
L309.024 173.477
L303.84 173.151
L303.382 174.528
L302.112 175.423
L300.705 174.528
L300.384 173.13
L298.656 172.92
L296.928 172.956
L293.472 172.871
L288.288 173.344
L284.832 174.115
L283.104 174.907
L281.376 175.398
L279.427 176.256
L277.004 177.984
L276.192 178.386
L274.409 179.712
L272.736 180.509
L269.28 183.466
L267.894 184.896
L267.552 186.664
L265.077 188.352
L262.879 191.808
L261.078 195.264
L260.9 196.992
L259.997 198.72
L259.175 200.448
L258.749 202.176
L258.994 203.904
L258.912 204.082
L257.952 205.632
L257.028 207.36
L256.945 209.088
L257.013 210.816
L256.316 212.544
L256.608 214.272
L256.417 216
L256.546 217.728
L256.833 219.456
L257.399 221.184
L257.033 222.912
L257.452 224.64
L258.912 225.958
L259.163 226.368
L258.912 227.37
L258.573 228.096
L259.375 229.824
L260.64 232.68
L262.368 233.017
L262.547 233.28
L262.368 234.038
L261.835 235.008
L262.887 236.736
L263.832 238.464
L264.096 238.619
L265.405 240.192
L265.824 241.558
L266.092 241.92
L267.552 242.539
L268.548 243.648
L269.28 244.951
L269.674 245.376
L270.715 247.104
L271.008 247.885
L271.537 247.104
L272.736 246.47
L273.195 247.104
L272.736 248.306
L271.958 248.832
L274.883 250.56
L275.862 252.288
L276.192 252.536
L279.648 253.167
L281.376 254.648
L283.104 255.957
L284.832 256.572
L286.754 257.472
L290.016 258.628
L293.472 260.309
L295.2 261.543
L296.928 263.349
L298.663 266.112
L299.549 267.84
L302.112 271.504
L303.84 273.141
L305.568 274.264
L307.296 274.887
L307.296 274.887" style="fill:none;stroke:#000000;"/>
    <path clip-path="url(#p23ab9b749c)" d="
M236.448 261.301
L238.176 261.414
L239.227 260.928
L239.904 260.627
L241.239 259.2
L241.615 257.472
L241.388 255.744
L239.915 254.016
L239.904 254.007
L238.176 253.163
L236.448 253.282
L235.3 254.016
L234.72 254.403
L233.675 255.744
L233.335 257.472
L233.802 259.2
L234.72 260.29
L235.807 260.928
L236.448 261.301" style="fill:none;stroke:#000000;"/>
    <path clip-path="url(#p23ab9b749c)" d="
M277.92 251.382
L277.245 250.56
L277.92 250.057
L278.292 250.56
L277.92 251.382" style="fill:none;stroke:#000000;"/>
    <path clip-path="url(#p23ab9b749c)" d="
M321.12 249.907
L320.653 248.832
L321.12 248.556
L321.531 248.832
L321.12 249.907" style="fill:none;stroke:#000000;"/>
    <path clip-path="url(#p23ab9b749c)" d="
M324.576 249.81
L324.203 248.832
L324.576 248.574
L325.008 248.832
L324.576 249.81" style="fill:none;stroke:#000000;"/>
    <path clip-path="url(#p23ab9b749c)" d="
M269.28 242.014
L269.158 241.92
L269.28 241.882
L269.313 241.92
L269.28 242.014" style="fill:none;stroke:#000000;"/>
    <path clip-path="url(#p23ab9b749c)" d="
M217.44 221.211
L217.508 221.184
L219.168 220.651
L220.316 219.456
L220.747 217.728
L220.355 216
L219.168 214.747
L217.711 214.272
L217.44 214.167
L216.927 214.272
L215.712 214.395
L213.985 216
L213.984 216.005
L213.388 217.728
L213.984 219.265
L214.034 219.456
L215.712 221.021
L217.313 221.184
L217.44 221.211" style="fill:none;stroke:#000000;"/>
    <path clip-path="url(#p23ab9b749c)" d="
M409.248 215.134
L410.976 215.073
L411.778 214.272
L411.675 212.544
L410.976 211.829
L409.248 211.762
L408.463 212.544
L408.365 214.272
L409.248 215.134" style="fill:none;stroke:#000000;"/>
    <path clip-path="url(#p23ab9b749c)" d="
M409.248 208.089
L410.119 207.36
L410.775 205.632
L409.248 204.135
L407.52 205.092
L407.069 205.632
L407.52 206.854
L407.831 207.36
L409.248 208.089" style="fill:none;stroke:#000000;"/>
    <path clip-path="url(#p23ab9b749c)" d="
M405.792 196.047
L406.936 195.264
L407.516 193.536
L405.792 191.906
L404.074 193.536
L404.749 195.264
L405.792 196.047" style="fill:none;stroke:#000000;"/>
    <path clip-path="url(#p23ab9b749c)" d="
M264.096 193.682
L263.315 193.536
L264.096 193.158
L264.213 193.536
L264.096 193.682" style="fill:none;stroke:#000000;"/>
    <path clip-path="url(#p23ab9b749c)" d="
M222.624 179.845
L224.352 179.867
L224.63 179.712
L226.08 178.785
L226.726 177.984
L227.095 176.256
L226.24 174.528
L226.08 174.357
L224.352 173.146
L222.624 173.152
L220.896 174.453
L220.829 174.528
L219.946 176.256
L220.331 177.984
L220.896 178.714
L222.406 179.712
L222.624 179.845" style="fill:none;stroke:#000000;"/>
    <path clip-path="url(#p23ab9b749c)" d="
M398.88 180.515
L400.608 179.726
L400.622 179.712
L401.458 177.984
L400.608 176.932
L398.88 176.332
L397.232 177.984
L397.858 179.712
L398.88 180.515" style="fill:none;stroke:#000000;"/>
    <path clip-path="url(#p23ab9b749c)" d="
M386.784 161.636
L388.512 162.163
L390.118 160.704
L390.157 158.976
L388.512 157.437
L386.784 157.908
L385.829 158.976
L385.922 160.704
L386.784 161.636" style="fill:none;stroke:#000000;"/>
    <path clip-path="url(#p23ab9b749c)" d="
M245.088 148.775
L245.386 148.608
L246.816 147.684
L247.403 146.88
L247.568 145.152
L246.816 144.046
L246.157 143.424
L245.088 142.755
L243.36 143.008
L242.82 143.424
L241.643 145.152
L241.712 146.88
L243.36 148.567
L244.028 148.608
L245.088 148.775" style="fill:none;stroke:#000000;"/>
    <path clip-path="url(#p23ab9b749c)" d="
M369.504 143.484
L369.605 143.424
L371.232 141.927
L371.376 141.696
L371.232 141.406
L370.369 139.968
L369.504 139.396
L368.52 139.968
L367.776 140.806
L367.294 141.696
L367.776 142.396
L369.393 143.424
L369.504 143.484" style="fill:none;stroke:#000000;"/>
    <path clip-path="url(#p23ab9b749c)" d="
M343.584 129.484
L345.312 129.312
L346.616 127.872
L346.31 126.144
L345.312 125.159
L343.584 124.907
L342.211 126.144
L341.985 127.872
L343.584 129.484" style="fill:none;stroke:#000000;"/>
    <path clip-path="url(#p23ab9b749c)" d="
M274.464 127.337
L276.192 127.534
L277.847 126.144
L277.92 125.836
L278.403 124.416
L277.92 123.563
L277.342 122.688
L276.192 121.864
L274.464 122.131
L273.785 122.688
L272.829 124.416
L273.201 126.144
L274.464 127.337" style="fill:none;stroke:#000000;"/>
    <path clip-path="url(#p23ab9b749c)" d="
M310.752 120.977
L312.48 122.006
L314.123 120.96
L314.208 120.822
L314.99 119.232
L314.208 118.024
L313.538 117.504
L312.48 116.917
L311.386 117.504
L310.752 117.94
L309.896 119.232
L310.736 120.96
L310.752 120.977" style="fill:none;stroke:#000000;"/>
   </g>
   <g id="LineCollection_4">
    <path clip-path="url(#p23ab9b749c)" d="
M274.464 276.132
L276.192 275.153
L276.561 274.752
L276.515 273.024
L276.192 272.643
L274.464 271.697
L272.996 273.024
L272.94 274.752
L274.464 276.132" style="fill:none;stroke:#000000;"/>
    <path clip-path="url(#p23ab9b749c)" d="
M309.024 270.721
L310.752 270.897
L312.319 269.568
L312.48 268.79
L312.829 267.84
L312.48 267.122
L311.884 266.112
L310.752 265.213
L309.024 265.356
L308.13 266.112
L307.343 267.84
L307.721 269.568
L309.024 270.721" style="fill:none;stroke:#000000;"/>
    <path clip-path="url(#p23ab9b749c)" d="
M236.448 258.407
L238.176 258.457
L239.013 257.472
L238.176 256.464
L236.448 256.514
L235.672 257.472
L236.448 258.407" style="fill:none;stroke:#000000;"/>
    <path clip-path="url(#p23ab9b749c)" d="
M334.944 245.675
L336.672 245.692
L337.149 245.376
L338.4 244.392
L338.947 243.648
L339.098 241.92
L338.4 240.759
L337.881 240.192
L336.672 239.264
L334.944 239.203
L333.404 240.192
L333.216 240.426
L332.317 241.92
L332.564 243.648
L333.216 244.425
L334.407 245.376
L334.944 245.675" style="fill:none;stroke:#000000;"/>
    <path clip-path="url(#p23ab9b749c)" d="
M288.288 240.248
L290.016 240.572
L291.744 240.788
L293.472 240.959
L295.2 240.822
L296.928 240.813
L298.656 240.673
L301.158 240.192
L302.112 240.093
L303.84 239.649
L309.024 237.117
L309.591 236.736
L310.294 235.008
L310.752 234.589
L312.48 234.338
L314.208 232.632
L316.339 229.824
L318.478 226.368
L320.733 221.184
L321.12 219.257
L322.026 217.728
L323.02 214.272
L323.668 212.544
L323.937 210.816
L323.172 209.088
L322.848 208.683
L322.254 207.36
L321.12 206.166
L319.97 203.904
L319.392 201.664
L319.062 200.448
L319.157 198.72
L319.93 195.264
L320.386 193.536
L320.61 191.808
L320.659 190.08
L320.317 188.352
L319.37 186.624
L317.664 184.698
L315.936 183.637
L314.208 183.251
L312.48 183.208
L310.752 183.459
L309.024 184.075
L305.568 186.095
L303.84 187.023
L302.112 187.561
L300.384 187.161
L298.656 186.541
L296.666 184.896
L295.2 183.904
L293.472 183.152
L291.744 182.639
L290.016 182.436
L288.288 182.627
L286.56 183.236
L284.832 184.152
L283.104 185.623
L282.074 186.624
L279.838 190.08
L279.648 190.455
L277.587 193.536
L275.98 195.264
L274.464 196.503
L274.249 196.992
L270.286 200.448
L269.17 202.176
L268.302 203.904
L267.838 205.632
L267.642 207.36
L267.625 209.088
L268.285 210.816
L268.268 212.544
L268.696 214.272
L268.863 216
L269.28 218.483
L269.541 219.456
L269.69 221.184
L270.774 224.64
L271.012 226.368
L272.074 228.096
L272.798 229.824
L274.045 231.552
L274.464 231.912
L276.192 233.845
L280.022 236.736
L281.376 237.637
L284.832 239.301
L286.56 239.698
L288.288 240.248
L288.288 240.248" style="fill:none;stroke:#000000;"/>
    <path clip-path="url(#p23ab9b749c)" d="
M217.44 219.051
L218.688 217.728
L217.44 216.396
L215.871 217.728
L217.44 219.051" style="fill:none;stroke:#000000;"/>
    <path clip-path="url(#p23ab9b749c)" d="
M329.76 212.758
L331.488 213.465
L333.216 213.655
L334.944 213.394
L336.429 212.544
L336.672 212.445
L338.191 210.816
L338.4 210.269
L338.908 209.088
L338.888 207.36
L338.4 206.316
L338.127 205.632
L336.672 204.145
L336.02 203.904
L334.944 203.342
L333.216 203.208
L331.488 203.703
L331.079 203.904
L329.76 204.762
L328.774 205.632
L328.032 207.07
L327.685 207.36
L326.849 209.088
L327.429 210.816
L328.032 211.173
L329.344 212.544
L329.76 212.758" style="fill:none;stroke:#000000;"/>
    <path clip-path="url(#p23ab9b749c)" d="
M405.792 194.052
L406.247 193.536
L405.792 193.106
L405.339 193.536
L405.792 194.052" style="fill:none;stroke:#000000;"/>
    <path clip-path="url(#p23ab9b749c)" d="
M398.88 178.216
L399.113 177.984
L398.88 177.794
L398.69 177.984
L398.88 178.216" style="fill:none;stroke:#000000;"/>
    <path clip-path="url(#p23ab9b749c)" d="
M222.624 176.969
L224.352 176.48
L224.502 176.256
L224.352 176.088
L222.624 175.696
L222.112 176.256
L222.624 176.969" style="fill:none;stroke:#000000;"/>
    <path clip-path="url(#p23ab9b749c)" d="
M245.088 145.362
L245.189 145.152
L245.088 145.052
L244.878 145.152
L245.088 145.362" style="fill:none;stroke:#000000;"/>
    <path clip-path="url(#p23ab9b749c)" d="
M369.504 143.047
L370.858 141.696
L369.504 140.319
L368.133 141.696
L369.504 143.047" style="fill:none;stroke:#000000;"/>
    <path clip-path="url(#p23ab9b749c)" d="
M276.192 125.151
L276.802 124.416
L276.192 123.777
L275.249 124.416
L276.192 125.151" style="fill:none;stroke:#000000;"/>
    <path clip-path="url(#p23ab9b749c)" d="
M312.48 120.686
L313.909 119.232
L312.48 117.815
L311.045 119.232
L312.48 120.686" style="fill:none;stroke:#000000;"/>
   </g>
   <g id="LineCollection_5">
    <path clip-path="url(#p23ab9b749c)" d="
M310.752 268.229
L311.037 267.84
L310.752 267.535
L310.221 267.84
L310.752 268.229" style="fill:none;stroke:#000000;"/>
    <path clip-path="url(#p23ab9b749c)" d="
M293.472 233.499
L295.2 233.498
L296.431 233.28
L296.928 233.22
L298.656 232.779
L300.384 231.979
L301.171 231.552
L302.112 231.104
L303.84 229.907
L303.947 229.824
L305.568 228.558
L306.066 228.096
L307.296 226.809
L307.679 226.368
L308.864 224.64
L309.024 224.329
L309.853 222.912
L310.465 221.184
L310.752 219.67
L310.811 219.456
L311.143 217.728
L311.234 216
L311.13 214.272
L310.798 212.544
L310.752 212.382
L310.409 210.816
L309.704 209.088
L309.024 207.783
L308.794 207.36
L307.504 205.632
L307.296 205.389
L305.799 203.904
L305.568 203.699
L303.84 202.466
L303.307 202.176
L302.112 201.493
L300.384 200.784
L299.217 200.448
L298.656 200.261
L296.928 199.906
L295.2 199.52
L293.472 199.413
L291.744 199.54
L290.016 200.145
L289.54 200.448
L288.288 201.068
L286.756 202.176
L286.56 202.297
L284.832 203.634
L284.421 203.904
L283.104 204.686
L281.376 205.311
L279.648 204.662
L278.798 203.904
L277.92 203.433
L276.192 202.863
L274.464 203.367
L273.85 203.904
L272.759 205.632
L272.736 207.004
L272.716 207.36
L272.736 207.408
L273.44 209.088
L274.464 210.3
L275.483 210.816
L276.192 211.459
L277.519 212.544
L277.92 213.305
L278.312 214.272
L278.519 216
L277.92 217.699
L277.908 217.728
L277.92 217.75
L278.374 219.456
L277.92 219.937
L276.626 221.184
L276.406 222.912
L276.596 224.64
L277.577 226.368
L277.92 226.761
L279.648 228.026
L279.952 228.096
L281.376 228.725
L283.104 229.154
L284.567 229.824
L284.832 229.972
L286.56 231.054
L287.478 231.552
L288.288 232
L290.016 232.784
L291.744 233.222
L292.24 233.28
L293.472 233.499" style="fill:none;stroke:#000000;"/>
    <path clip-path="url(#p23ab9b749c)" d="
M334.944 210.062
L336.011 209.088
L336.216 207.36
L334.944 206.169
L333.323 207.36
L333.47 209.088
L334.944 210.062" style="fill:none;stroke:#000000;"/>
    <path clip-path="url(#p23ab9b749c)" d="
M288.288 192.996
L290.016 193.298
L291.744 192.214
L292.001 191.808
L292.804 190.08
L292.461 188.352
L291.744 187.565
L290.016 186.66
L288.288 186.892
L286.82 188.352
L286.613 190.08
L287.228 191.808
L288.288 192.996" style="fill:none;stroke:#000000;"/>
    <path clip-path="url(#p23ab9b749c)" d="
M312.48 191.396
L314.208 191.803
L315.936 190.767
L316.401 190.08
L316.226 188.352
L315.936 188.013
L314.208 186.789
L312.48 187.521
L311.656 188.352
L311.449 190.08
L312.48 191.396" style="fill:none;stroke:#000000;"/>
    <path clip-path="url(#p23ab9b749c)" d="
M369.504 141.844
L369.652 141.696
L369.504 141.545
L369.354 141.696
L369.504 141.844" style="fill:none;stroke:#000000;"/>
    <path clip-path="url(#p23ab9b749c)" d="
M312.48 119.582
L312.824 119.232
L312.48 118.891
L312.135 119.232
L312.48 119.582" style="fill:none;stroke:#000000;"/>
   </g>
   <g id="LineCollection_6">
    <path clip-path="url(#p23ab9b749c)" d="
M291.744 228.811
L293.472 229.664
L295.2 229.63
L296.928 228.501
L297.459 228.096
L298.656 227.098
L300.04 226.368
L300.384 226.272
L302.112 225.341
L302.911 224.64
L303.84 223.589
L304.373 222.912
L305.233 221.184
L305.568 219.817
L305.708 219.456
L306.135 217.728
L306.217 216
L305.938 214.272
L305.568 213.329
L305.354 212.544
L304.459 210.816
L303.84 210.043
L303.045 209.088
L302.112 208.225
L300.774 207.36
L300.384 207.091
L298.656 206.273
L296.928 205.952
L295.2 205.919
L293.472 206.158
L291.744 206.842
L290.874 207.36
L290.016 207.773
L288.49 209.088
L288.288 209.295
L286.925 210.816
L286.56 211.579
L286.004 212.544
L285.493 214.272
L285.364 216
L285.464 217.728
L285.713 219.456
L286.373 221.184
L286.56 221.512
L287.186 222.912
L288.288 224.474
L288.39 224.64
L289.553 226.368
L290.016 226.876
L290.877 228.096
L291.744 228.811" style="fill:none;stroke:#000000;"/>
    <path clip-path="url(#p23ab9b749c)" d="
M279.648 224.799
L281.376 225.535
L282.374 224.64
L282.436 222.912
L281.376 221.932
L279.648 222.701
L279.48 222.912
L279.5 224.64
L279.648 224.799" style="fill:none;stroke:#000000;"/>
    <path clip-path="url(#p23ab9b749c)" d="
M276.192 207.287
L276.839 205.632
L276.192 205.049
L275.281 205.632
L276.192 207.287" style="fill:none;stroke:#000000;"/>
   </g>
   <g id="LineCollection_7">
    <path clip-path="url(#p23ab9b749c)" d="
M293.472 227.035
L295.2 226.834
L295.536 226.368
L295.2 225.675
L293.472 225.428
L292.937 226.368
L293.472 227.035" style="fill:none;stroke:#000000;"/>
    <path clip-path="url(#p23ab9b749c)" d="
M293.472 223.025
L295.2 223.617
L296.928 223.606
L298.656 223.788
L300.384 223.315
L300.863 222.912
L302.091 221.184
L302.112 220.744
L302.485 219.456
L303.237 217.728
L303.449 216
L302.865 214.272
L302.112 213.121
L301.826 212.544
L300.491 210.816
L300.384 210.712
L298.656 209.371
L296.928 209.153
L295.2 209.199
L293.472 209.385
L291.744 210.232
L291.071 210.816
L290.016 212.229
L289.772 212.544
L288.963 214.272
L288.772 216
L289.071 217.728
L290.015 219.456
L290.016 219.458
L291.1 221.184
L291.744 221.906
L293.381 222.912
L293.472 223.025" style="fill:none;stroke:#000000;"/>
   </g>
   <g id="LineCollection_8">
    <path clip-path="url(#p23ab9b749c)" d="
M298.656 221.595
L300.384 221.783
L300.949 221.184
L300.384 220.294
L299.412 219.456
L300.384 218.559
L301.027 217.728
L301.981 216
L300.384 214.335
L300.019 214.272
L299.961 212.544
L298.656 211.17
L296.928 211.008
L295.2 211.379
L293.472 210.985
L291.832 212.544
L291.744 213.204
L291.123 214.272
L290.405 216
L291.161 217.728
L291.744 218.475
L292.83 219.456
L293.472 220.009
L295.2 220.612
L296.928 220.6
L297.961 221.184
L298.656 221.595" style="fill:none;stroke:#000000;"/>
   </g>
   <g id="LineCollection_9">
    <path clip-path="url(#p23ab9b749c)" d="
M293.472 218.005
L295.2 219.284
L296.928 218.246
L297.546 217.728
L298.401 216
L297.273 214.272
L296.928 213.497
L295.2 213.309
L294.26 212.544
L293.472 211.966
L292.863 212.544
L293.269 214.272
L291.96 216
L293.187 217.728
L293.472 218.005" style="fill:none;stroke:#000000;"/>
    <path clip-path="url(#p23ab9b749c)" d="
M300.384 216.99
L301.241 216
L300.384 215.106
L299.076 216
L300.384 216.99" style="fill:none;stroke:#000000;"/>
   </g>
   <g id="LineCollection_10">
    <path clip-path="url(#p23ab9b749c)" d="
M295.2 218.462
L296.062 217.728
L296.928 216
L295.2 214.272
L293.472 216
L294.361 217.728
L295.2 218.462" style="fill:none;stroke:#000000;"/>
   </g>
   <g id="LineCollection_11">
    <path clip-path="url(#p23ab9b749c)" d="
M295.2 217.728
L296.928 216
L295.2 214.272
L293.472 216
L295.2 217.728" style="fill:none;stroke:#000000;"/>
   </g>
   <g id="LineCollection_12">
    <path clip-path="url(#p23ab9b749c)" d="
M295.2 217.728
L296.928 216
L295.2 214.272
L293.472 216
L295.2 217.728" style="fill:none;stroke:#000000;"/>
   </g>
   <g id="LineCollection_13">
    <path clip-path="url(#p23ab9b749c)" d="
M295.2 217.728
L296.928 216
L295.2 214.272
L293.472 216
L295.2 217.728" style="fill:none;stroke:#000000;"/>
   </g>
   <g id="LineCollection_14">
    <path clip-path="url(#p23ab9b749c)" d="
M295.2 217.728
L296.928 216
L295.2 214.272
L293.472 216
L295.2 217.728" style="fill:none;stroke:#000000;"/>
   </g>
   <g id="LineCollection_15">
    <path clip-path="url(#p23ab9b749c)" d="
M295.2 217.728
L296.928 216
L295.2 214.272
L293.472 216
L295.2 217.728" style="fill:none;stroke:#000000;"/>
   </g>
   <g id="LineCollection_16">
    <path clip-path="url(#p23ab9b749c)" d="
M295.2 217.728
L296.928 216
L295.2 214.272
L293.472 216
L295.2 217.728" style="fill:none;stroke:#000000;"/>
   </g>
   <g id="LineCollection_17">
    <path clip-path="url(#p23ab9b749c)" d="
M295.2 217.728
L296.928 216
L295.2 214.272
L293.472 216
L295.2 217.728" style="fill:none;stroke:#000000;"/>
   </g>
   <g id="LineCollection_18">
    <path clip-path="url(#p23ab9b749c)" d="
M295.2 217.728
L296.928 216
L295.2 214.272
L293.472 216
L295.2 217.728" style="fill:none;stroke:#000000;"/>
   </g>
   <g id="LineCollection_19">
    <path clip-path="url(#p23ab9b749c)" d="
M295.2 217.728
L296.928 216
L295.2 214.272
L293.472 216
L295.2 217.728" style="fill:none;stroke:#000000;"/>
   </g>
   <g id="patch_4">
    <path d="
M122.4 43.2
L468 43.2
L468 43.2" style="fill:none;stroke:#000000;stroke-linecap:square;stroke-linejoin:miter;"/>
   </g>
   <g id="patch_5">
    <path d="
M468 388.8
L468 43.2
L468 43.2" style="fill:none;stroke:#000000;stroke-linecap:square;stroke-linejoin:miter;"/>
   </g>
   <g id="patch_6">
    <path d="
M122.4 388.8
L468 388.8
L468 388.8" style="fill:none;stroke:#000000;stroke-linecap:square;stroke-linejoin:miter;"/>
   </g>
   <g id="patch_7">
    <path d="
M122.4 388.8
L122.4 43.2
L122.4 43.2" style="fill:none;stroke:#000000;stroke-linecap:square;stroke-linejoin:miter;"/>
   </g>
   <g id="matplotlib.axis_1">
    <g id="xtick_1">
     <g id="line2d_1">
      <defs>
       <path d="
M0 0
L0 -4" id="mb1445623b5" style="stroke:#000000;stroke-width:0.5;"/>
      </defs>
      <g>
       <use style="stroke:#000000;stroke-width:0.5;" x="122.4" xlink:href="#mb1445623b5" y="388.8"/>
      </g>
     </g>
     <g id="line2d_2">
      <defs>
       <path d="
M0 0
L0 4" id="m3a68111ca7" style="stroke:#000000;stroke-width:0.5;"/>
      </defs>
      <g>
       <use style="stroke:#000000;stroke-width:0.5;" x="122.4" xlink:href="#m3a68111ca7" y="43.2"/>
      </g>
     </g>
     <g id="text_1">
      <!-- 1.5 -->
      <defs>
       <path d="
M10.5938 35.5
L73.1875 35.5
L73.1875 27.2031
L10.5938 27.2031
z
" id="BitstreamVeraSans-Roman-2212"/>
       <path d="
M12.4062 8.29688
L28.5156 8.29688
L28.5156 63.9219
L10.9844 60.4062
L10.9844 69.3906
L28.4219 72.9062
L38.2812 72.9062
L38.2812 8.29688
L54.3906 8.29688
L54.3906 0
L12.4062 0
z
" id="BitstreamVeraSans-Roman-31"/>
       <path d="
M10.6875 12.4062
L21 12.4062
L21 0
L10.6875 0
z
" id="BitstreamVeraSans-Roman-2e"/>
       <path d="
M10.7969 72.9062
L49.5156 72.9062
L49.5156 64.5938
L19.8281 64.5938
L19.8281 46.7344
Q21.9688 47.4688 24.1094 47.8281
Q26.2656 48.1875 28.4219 48.1875
Q40.625 48.1875 47.75 41.5
Q54.8906 34.8125 54.8906 23.3906
Q54.8906 11.625 47.5625 5.09375
Q40.2344 -1.42188 26.9062 -1.42188
Q22.3125 -1.42188 17.5469 -0.640625
Q12.7969 0.140625 7.71875 1.70312
L7.71875 11.625
Q12.1094 9.23438 16.7969 8.0625
Q21.4844 6.89062 26.7031 6.89062
Q35.1562 6.89062 40.0781 11.3281
Q45.0156 15.7656 45.0156 23.3906
Q45.0156 31 40.0781 35.4375
Q35.1562 39.8906 26.7031 39.8906
Q22.75 39.8906 18.8125 39.0156
Q14.8906 38.1406 10.7969 36.2812
z
" id="BitstreamVeraSans-Roman-35"/>
      </defs>
      <g transform="translate(108.99 401.918125)scale(0.12 -0.12)">
       <use xlink:href="#BitstreamVeraSans-Roman-2212"/>
       <use x="83.7890625" xlink:href="#BitstreamVeraSans-Roman-31"/>
       <use x="147.412109375" xlink:href="#BitstreamVeraSans-Roman-2e"/>
       <use x="179.19921875" xlink:href="#BitstreamVeraSans-Roman-35"/>
      </g>
     </g>
    </g>
    <g id="xtick_2">
     <g id="line2d_3">
      <g>
       <use style="stroke:#000000;stroke-width:0.5;" x="180.0" xlink:href="#mb1445623b5" y="388.8"/>
      </g>
     </g>
     <g id="line2d_4">
      <g>
       <use style="stroke:#000000;stroke-width:0.5;" x="180.0" xlink:href="#m3a68111ca7" y="43.2"/>
      </g>
     </g>
     <g id="text_2">
      <!-- 1.0 -->
      <defs>
       <path d="
M31.7812 66.4062
Q24.1719 66.4062 20.3281 58.9062
Q16.5 51.4219 16.5 36.375
Q16.5 21.3906 20.3281 13.8906
Q24.1719 6.39062 31.7812 6.39062
Q39.4531 6.39062 43.2812 13.8906
Q47.125 21.3906 47.125 36.375
Q47.125 51.4219 43.2812 58.9062
Q39.4531 66.4062 31.7812 66.4062
M31.7812 74.2188
Q44.0469 74.2188 50.5156 64.5156
Q56.9844 54.8281 56.9844 36.375
Q56.9844 17.9688 50.5156 8.26562
Q44.0469 -1.42188 31.7812 -1.42188
Q19.5312 -1.42188 13.0625 8.26562
Q6.59375 17.9688 6.59375 36.375
Q6.59375 54.8281 13.0625 64.5156
Q19.5312 74.2188 31.7812 74.2188" id="BitstreamVeraSans-Roman-30"/>
      </defs>
      <g transform="translate(166.464375 401.918125)scale(0.12 -0.12)">
       <use xlink:href="#BitstreamVeraSans-Roman-2212"/>
       <use x="83.7890625" xlink:href="#BitstreamVeraSans-Roman-31"/>
       <use x="147.412109375" xlink:href="#BitstreamVeraSans-Roman-2e"/>
       <use x="179.19921875" xlink:href="#BitstreamVeraSans-Roman-30"/>
      </g>
     </g>
    </g>
    <g id="xtick_3">
     <g id="line2d_5">
      <g>
       <use style="stroke:#000000;stroke-width:0.5;" x="237.6" xlink:href="#mb1445623b5" y="388.8"/>
      </g>
     </g>
     <g id="line2d_6">
      <g>
       <use style="stroke:#000000;stroke-width:0.5;" x="237.6" xlink:href="#m3a68111ca7" y="43.2"/>
      </g>
     </g>
     <g id="text_3">
      <!-- 0.5 -->
      <g transform="translate(224.19 401.918125)scale(0.12 -0.12)">
       <use xlink:href="#BitstreamVeraSans-Roman-2212"/>
       <use x="83.7890625" xlink:href="#BitstreamVeraSans-Roman-30"/>
       <use x="147.412109375" xlink:href="#BitstreamVeraSans-Roman-2e"/>
       <use x="179.19921875" xlink:href="#BitstreamVeraSans-Roman-35"/>
      </g>
     </g>
    </g>
    <g id="xtick_4">
     <g id="line2d_7">
      <g>
       <use style="stroke:#000000;stroke-width:0.5;" x="295.2" xlink:href="#mb1445623b5" y="388.8"/>
      </g>
     </g>
     <g id="line2d_8">
      <g>
       <use style="stroke:#000000;stroke-width:0.5;" x="295.2" xlink:href="#m3a68111ca7" y="43.2"/>
      </g>
     </g>
     <g id="text_4">
      <!-- 0.0 -->
      <g transform="translate(286.4521875 401.918125)scale(0.12 -0.12)">
       <use xlink:href="#BitstreamVeraSans-Roman-30"/>
       <use x="63.623046875" xlink:href="#BitstreamVeraSans-Roman-2e"/>
       <use x="95.41015625" xlink:href="#BitstreamVeraSans-Roman-30"/>
      </g>
     </g>
    </g>
    <g id="xtick_5">
     <g id="line2d_9">
      <g>
       <use style="stroke:#000000;stroke-width:0.5;" x="352.8" xlink:href="#mb1445623b5" y="388.8"/>
      </g>
     </g>
     <g id="line2d_10">
      <g>
       <use style="stroke:#000000;stroke-width:0.5;" x="352.8" xlink:href="#m3a68111ca7" y="43.2"/>
      </g>
     </g>
     <g id="text_5">
      <!-- 0.5 -->
      <g transform="translate(344.1778125 401.918125)scale(0.12 -0.12)">
       <use xlink:href="#BitstreamVeraSans-Roman-30"/>
       <use x="63.623046875" xlink:href="#BitstreamVeraSans-Roman-2e"/>
       <use x="95.41015625" xlink:href="#BitstreamVeraSans-Roman-35"/>
      </g>
     </g>
    </g>
    <g id="xtick_6">
     <g id="line2d_11">
      <g>
       <use style="stroke:#000000;stroke-width:0.5;" x="410.4" xlink:href="#mb1445623b5" y="388.8"/>
      </g>
     </g>
     <g id="line2d_12">
      <g>
       <use style="stroke:#000000;stroke-width:0.5;" x="410.4" xlink:href="#m3a68111ca7" y="43.2"/>
      </g>
     </g>
     <g id="text_6">
      <!-- 1.0 -->
      <g transform="translate(401.915625 401.918125)scale(0.12 -0.12)">
       <use xlink:href="#BitstreamVeraSans-Roman-31"/>
       <use x="63.623046875" xlink:href="#BitstreamVeraSans-Roman-2e"/>
       <use x="95.41015625" xlink:href="#BitstreamVeraSans-Roman-30"/>
      </g>
     </g>
    </g>
    <g id="xtick_7">
     <g id="line2d_13">
      <g>
       <use style="stroke:#000000;stroke-width:0.5;" x="468.0" xlink:href="#mb1445623b5" y="388.8"/>
      </g>
     </g>
     <g id="line2d_14">
      <g>
       <use style="stroke:#000000;stroke-width:0.5;" x="468.0" xlink:href="#m3a68111ca7" y="43.2"/>
      </g>
     </g>
     <g id="text_7">
      <!-- 1.5 -->
      <g transform="translate(459.64125 401.918125)scale(0.12 -0.12)">
       <use xlink:href="#BitstreamVeraSans-Roman-31"/>
       <use x="63.623046875" xlink:href="#BitstreamVeraSans-Roman-2e"/>
       <use x="95.41015625" xlink:href="#BitstreamVeraSans-Roman-35"/>
      </g>
     </g>
    </g>
   </g>
   <g id="matplotlib.axis_2">
    <g id="ytick_1">
     <g id="line2d_15">
      <defs>
       <path d="
M0 0
L4 0" id="m71e820122c" style="stroke:#000000;stroke-width:0.5;"/>
      </defs>
      <g>
       <use style="stroke:#000000;stroke-width:0.5;" x="122.4" xlink:href="#m71e820122c" y="388.8"/>
      </g>
     </g>
     <g id="line2d_16">
      <defs>
       <path d="
M0 0
L-4 0" id="m81ec2b1422" style="stroke:#000000;stroke-width:0.5;"/>
      </defs>
      <g>
       <use style="stroke:#000000;stroke-width:0.5;" x="468.0" xlink:href="#m81ec2b1422" y="388.8"/>
      </g>
     </g>
     <g id="text_8">
      <!-- 1.5 -->
      <g transform="translate(91.58 392.11125)scale(0.12 -0.12)">
       <use xlink:href="#BitstreamVeraSans-Roman-2212"/>
       <use x="83.7890625" xlink:href="#BitstreamVeraSans-Roman-31"/>
       <use x="147.412109375" xlink:href="#BitstreamVeraSans-Roman-2e"/>
       <use x="179.19921875" xlink:href="#BitstreamVeraSans-Roman-35"/>
      </g>
     </g>
    </g>
    <g id="ytick_2">
     <g id="line2d_17">
      <g>
       <use style="stroke:#000000;stroke-width:0.5;" x="122.4" xlink:href="#m71e820122c" y="331.2"/>
      </g>
     </g>
     <g id="line2d_18">
      <g>
       <use style="stroke:#000000;stroke-width:0.5;" x="468.0" xlink:href="#m81ec2b1422" y="331.2"/>
      </g>
     </g>
     <g id="text_9">
      <!-- 1.0 -->
      <g transform="translate(91.32875 334.51125)scale(0.12 -0.12)">
       <use xlink:href="#BitstreamVeraSans-Roman-2212"/>
       <use x="83.7890625" xlink:href="#BitstreamVeraSans-Roman-31"/>
       <use x="147.412109375" xlink:href="#BitstreamVeraSans-Roman-2e"/>
       <use x="179.19921875" xlink:href="#BitstreamVeraSans-Roman-30"/>
      </g>
     </g>
    </g>
    <g id="ytick_3">
     <g id="line2d_19">
      <g>
       <use style="stroke:#000000;stroke-width:0.5;" x="122.4" xlink:href="#m71e820122c" y="273.6"/>
      </g>
     </g>
     <g id="line2d_20">
      <g>
       <use style="stroke:#000000;stroke-width:0.5;" x="468.0" xlink:href="#m81ec2b1422" y="273.6"/>
      </g>
     </g>
     <g id="text_10">
      <!-- 0.5 -->
      <g transform="translate(91.58 276.91125)scale(0.12 -0.12)">
       <use xlink:href="#BitstreamVeraSans-Roman-2212"/>
       <use x="83.7890625" xlink:href="#BitstreamVeraSans-Roman-30"/>
       <use x="147.412109375" xlink:href="#BitstreamVeraSans-Roman-2e"/>
       <use x="179.19921875" xlink:href="#BitstreamVeraSans-Roman-35"/>
      </g>
     </g>
    </g>
    <g id="ytick_4">
     <g id="line2d_21">
      <g>
       <use style="stroke:#000000;stroke-width:0.5;" x="122.4" xlink:href="#m71e820122c" y="216.0"/>
      </g>
     </g>
     <g id="line2d_22">
      <g>
       <use style="stroke:#000000;stroke-width:0.5;" x="468.0" xlink:href="#m81ec2b1422" y="216.0"/>
      </g>
     </g>
     <g id="text_11">
      <!-- 0.0 -->
      <g transform="translate(100.904375 219.31125)scale(0.12 -0.12)">
       <use xlink:href="#BitstreamVeraSans-Roman-30"/>
       <use x="63.623046875" xlink:href="#BitstreamVeraSans-Roman-2e"/>
       <use x="95.41015625" xlink:href="#BitstreamVeraSans-Roman-30"/>
      </g>
     </g>
    </g>
    <g id="ytick_5">
     <g id="line2d_23">
      <g>
       <use style="stroke:#000000;stroke-width:0.5;" x="122.4" xlink:href="#m71e820122c" y="158.4"/>
      </g>
     </g>
     <g id="line2d_24">
      <g>
       <use style="stroke:#000000;stroke-width:0.5;" x="468.0" xlink:href="#m81ec2b1422" y="158.4"/>
      </g>
     </g>
     <g id="text_12">
      <!-- 0.5 -->
      <g transform="translate(101.155625 161.71125)scale(0.12 -0.12)">
       <use xlink:href="#BitstreamVeraSans-Roman-30"/>
       <use x="63.623046875" xlink:href="#BitstreamVeraSans-Roman-2e"/>
       <use x="95.41015625" xlink:href="#BitstreamVeraSans-Roman-35"/>
      </g>
     </g>
    </g>
    <g id="ytick_6">
     <g id="line2d_25">
      <g>
       <use style="stroke:#000000;stroke-width:0.5;" x="122.4" xlink:href="#m71e820122c" y="100.8"/>
      </g>
     </g>
     <g id="line2d_26">
      <g>
       <use style="stroke:#000000;stroke-width:0.5;" x="468.0" xlink:href="#m81ec2b1422" y="100.8"/>
      </g>
     </g>
     <g id="text_13">
      <!-- 1.0 -->
      <g transform="translate(101.43125 104.11125)scale(0.12 -0.12)">
       <use xlink:href="#BitstreamVeraSans-Roman-31"/>
       <use x="63.623046875" xlink:href="#BitstreamVeraSans-Roman-2e"/>
       <use x="95.41015625" xlink:href="#BitstreamVeraSans-Roman-30"/>
      </g>
     </g>
    </g>
    <g id="ytick_7">
     <g id="line2d_27">
      <g>
       <use style="stroke:#000000;stroke-width:0.5;" x="122.4" xlink:href="#m71e820122c" y="43.2"/>
      </g>
     </g>
     <g id="line2d_28">
      <g>
       <use style="stroke:#000000;stroke-width:0.5;" x="468.0" xlink:href="#m81ec2b1422" y="43.2"/>
      </g>
     </g>
     <g id="text_14">
      <!-- 1.5 -->
      <g transform="translate(101.6825 46.51125)scale(0.12 -0.12)">
       <use xlink:href="#BitstreamVeraSans-Roman-31"/>
       <use x="63.623046875" xlink:href="#BitstreamVeraSans-Roman-2e"/>
       <use x="95.41015625" xlink:href="#BitstreamVeraSans-Roman-35"/>
      </g>
     </g>
    </g>
   </g>
  </g>
 </g>
 <defs>
  <clipPath id="p23ab9b749c">
   <rect height="345.6" width="345.6" x="122.4" y="43.2"/>
  </clipPath>
 </defs>
</svg>
