<?xml version="1.0" encoding="utf-8" standalone="no"?>
<!DOCTYPE svg PUBLIC "-//W3C//DTD SVG 1.1//EN"
  "http://www.w3.org/Graphics/SVG/1.1/DTD/svg11.dtd">
<!-- Created with matplotlib (http://matplotlib.org/) -->
<svg height="432pt" version="1.1" viewBox="0 0 576 432" width="576pt" xmlns="http://www.w3.org/2000/svg" xmlns:xlink="http://www.w3.org/1999/xlink">
 <defs>
  <style type="text/css">
*{stroke-linecap:butt;stroke-linejoin:round;}
  </style>
 </defs>
 <g id="figure_1">
  <g id="patch_1">
   <path d="
M0 432
L576 432
L576 0
L0 0
z
" style="fill:#ffffff;"/>
  </g>
  <g id="axes_1">
   <g id="patch_2">
    <path d="
M122.4 388.8
L468 388.8
L468 43.2
L122.4 43.2
z
" style="fill:#ffffff;"/>
   </g>
   <g id="patch_3">
    <path clip-path="url(#p23ab9b749c)" d="
M295.2 331.2
C325.751 331.2 355.056 319.062 376.659 297.459
C398.262 275.856 410.4 246.551 410.4 216
C410.4 185.449 398.262 156.144 376.659 134.541
C355.056 112.938 325.751 100.8 295.2 100.8
C264.649 100.8 235.344 112.938 213.741 134.541
C192.138 156.144 180 185.449 180 216
C180 246.551 192.138 275.856 213.741 297.459
C235.344 319.062 264.649 331.2 295.2 331.2
L295.2 331.2" style="fill:none;stroke:#000000;stroke-dasharray:6.000000,6.000000;stroke-dashoffset:0.0;stroke-linejoin:miter;"/>
   </g>
   <g id="LineCollection_1">
    <path clip-path="url(#p23ab9b749c)" d="
M296.928 318.563
L297.865 317.952
L298.656 317.338
L299.748 316.224
L300.384 314.57
L302.112 315.749
L303.84 315.866
L305.081 316.224
L305.568 316.821
L307.296 319.168
L307.789 317.952
L309.024 316.738
L310.752 317.198
L311.042 316.224
L311.196 314.496
L314.208 312.628
L314.436 312.768
L314.584 314.496
L315.936 316.269
L315.98 316.224
L316.895 314.496
L317.664 313.611
L318.085 312.768
L319.392 311.776
L321.16 311.04
L322.859 312.768
L323.49 311.04
L324.576 309.941
L326.304 310.009
L328.032 311.568
L329.76 311.742
L330.347 311.04
L330.872 309.312
L331.488 308.439
L332.206 309.312
L332.472 311.04
L333.216 311.403
L334.092 311.04
L333.929 309.312
L333.216 308.022
L332.65 307.584
L333.216 307.352
L334.944 307.131
L335.783 307.584
L336.672 308.797
L337.24 307.584
L336.389 305.856
L336.672 305.49
L338.4 306.106
L340.128 306.211
L341.43 305.856
L341.856 305.583
L342.645 304.128
L343.584 303.335
L345.312 303.119
L345.573 302.4
L345.312 301.749
L344.714 300.672
L345.312 300.189
L347.04 301.091
L348.768 299.544
L352.224 297.501
L355.68 296.73
L356.973 295.488
L357.408 294.428
L358.129 293.76
L359.421 292.032
L362.982 288.576
L366.281 285.12
L370.858 279.936
L371.232 279.487
L371.86 278.208
L372.96 276.972
L373.712 276.48
L375.151 274.752
L376.658 273.024
L380.36 267.84
L390.24 253.476
L392.507 250.56
L395.547 247.104
L397.277 245.376
L399.209 243.648
L400.608 242.529
L402.95 241.92
L404.064 241.369
L405.993 240.192
L409.248 237.521
L409.611 236.736
L410.74 233.28
L410.976 233.131
L411.224 233.28
L412.704 237.711
L417.888 233.988
L421.344 231.146
L423.072 229.373
L424.8 227.321
L426.528 224.854
L427.684 222.912
L428.519 221.184
L429.984 216.985
L430.287 216
L430.301 214.272
L430.758 212.544
L431.073 210.816
L430.949 209.088
L431.045 205.632
L430.814 202.176
L430.569 200.448
L429.984 198.417
L429.239 195.264
L428.256 192.258
L428.057 191.808
L427.159 190.08
L426.528 188.008
L424.8 187.188
L424.588 186.624
L424.386 184.896
L424.032 183.168
L422.945 181.44
L422.236 179.712
L421.715 177.984
L421.344 177.502
L420.858 176.256
L419.313 174.528
L419.412 172.8
L419.616 172.436
L422.582 171.072
L421.297 169.344
L419.616 165.098
L419.005 164.16
L416.039 157.248
L414.432 153.752
L412.65 150.336
L410.519 146.88
L407.903 143.424
L405.792 141.085
L404.064 139.404
L402.336 137.902
L400.39 136.512
L398.88 136.192
L397.152 135.071
L396.946 134.784
L395.424 133.465
L394.364 133.056
L394.172 131.328
L393.696 130.792
L391.968 130.038
L391.652 129.6
L391.171 127.872
L390.24 126.86
L388.859 126.144
L386.784 123.88
L383.768 120.96
L381.6 119.062
L377.514 115.776
L372.899 112.32
L367.776 108.694
L364.32 106.483
L360.864 104.554
L359.055 103.68
L357.408 103.192
L355.68 103.567
L352.224 102.177
L351.763 103.68
L350.496 104.539
L348.768 104.161
L347.04 104.085
L346.541 103.68
L345.312 102.471
L343.901 103.68
L345.312 104.272
L346.333 105.408
L347.04 107.214
L345.312 106.792
L343.922 105.408
L343.584 104.242
L341.856 104.055
L341.332 103.68
L340.128 101.908
L340.558 100.224
L340.128 99.8961
L336.672 99.7699
L336.467 100.224
L334.944 101.034
L333.665 100.224
L333.216 99.2595
L332.538 98.496
L331.488 97.9341
L330.578 98.496
L329.76 99.7664
L328.032 99.4725
L327.238 98.496
L326.304 97.6925
L325.771 96.768
L324.576 95.7477
L323.367 96.768
L322.848 97.5757
L321.12 97.6239
L320.451 96.768
L320.165 95.04
L319.392 94.4289
L318.609 95.04
L317.664 95.6121
L316.25 96.768
L316.117 98.496
L315.837 98.496
L314.208 97.3642
L312.965 98.496
L312.48 98.7136
L310.752 99.0383
L310.317 98.496
L310.752 97.9051
L312.212 96.768
L310.752 95.6053
L309.818 95.04
L310.752 93.5303
L312.48 93.8136
L312.829 93.312
L312.48 93.0116
L310.752 93.1629
L309.024 92.7479
L308.474 93.312
L308.182 95.04
L307.296 96.3217
L306.533 95.04
L305.568 94.2069
L304.192 93.312
L303.84 92.4103
L301.864 93.312
L302.458 95.04
L302.712 96.768
L302.112 97.2067
L300.097 96.768
L298.656 95.6546
L297.348 96.768
L296.928 97.3414
L295.2 97.7056
L292.919 96.768
L291.744 95.6602
L290.016 97.5234
L289.311 96.768
L288.288 96.3206
L287.502 96.768
L286.56 98.5419
L284.832 99.3724
L281.376 98.1003
L280.927 98.496
L279.648 100.078
L278.864 98.496
L277.92 97.8365
L276.402 98.496
L276.572 100.224
L276.192 100.721
L272.736 100.502
L271.008 100.633
L270.022 100.224
L269.28 99.676
L268.687 100.224
L267.552 100.857
L266.387 100.224
L264.096 98.291
L262.368 99.8141
L261.795 100.224
L260.64 101.334
L258.912 100.751
L257.184 101.486
L253.728 103.782
L250.272 106.542
L247.766 108.864
L244.501 112.32
L238.695 119.232
L236.448 121.843
L234.018 124.416
L231.264 127.066
L229.536 126.364
L227.808 126.524
L226.457 127.872
L227.808 129.516
L228.556 129.6
L227.808 130.298
L226.08 129.808
L224.56 131.328
L225.009 133.056
L223.354 134.784
L222.51 134.784
L220.896 133.521
L219.644 134.784
L220.982 136.512
L220.896 136.933
L219.168 136.782
L217.596 138.24
L217.44 139.765
L217.238 139.968
L215.712 142.071
L213.984 142.149
L213.501 141.696
L212.256 140.851
L211.641 141.696
L210.528 143.415
L208.8 142.803
L208.336 143.424
L209.092 145.152
L208.8 145.498
L207.072 145.031
L206.992 145.152
L205.344 146.709
L204.444 146.88
L205.344 147.282
L206.125 148.608
L205.675 150.336
L205.344 150.991
L204.758 150.336
L203.616 148.135
L203.529 148.608
L201.888 150.54
L201.213 152.064
L200.16 153.161
L198.417 153.792
L197.214 155.52
L196.444 157.248
L194.595 160.704
L193.084 164.16
L191.072 169.344
L190.938 171.072
L190.563 172.8
L190.397 176.256
L189.742 179.712
L189.258 183.168
L188.964 186.624
L188.796 191.808
L188.793 193.536
L189.078 195.264
L189.792 197.026
L191.52 198.001
L192.04 198.72
L191.815 200.448
L193.186 202.176
L192.86 203.904
L192.724 205.632
L190.265 207.36
L191.215 209.088
L190.661 210.816
L189.792 212.44
L188.064 210.857
L186.336 211.62
L185.256 212.544
L185.688 214.272
L185.578 216
L188.029 217.728
L188.182 219.456
L188.064 219.715
L186.708 221.184
L186.545 222.912
L187.554 224.64
L188.064 225.227
L189.335 224.64
L189.862 224.64
L189.96 226.368
L189.792 226.893
L188.064 227.203
L187.18 228.096
L189.792 229.353
L190.427 228.096
L191.52 227.581
L192.078 228.096
L191.52 229.291
L189.792 230.066
L188.064 232.113
L187.447 233.28
L188.145 235.008
L190.29 236.736
L191.52 237.372
L192.26 238.464
L192.685 240.192
L191.52 240.629
L190.713 241.92
L191.52 242.881
L192.583 241.92
L193.248 240.55
L193.772 240.192
L194.976 239.868
L195.402 240.192
L194.976 243.879
L194.53 247.104
L194.976 247.844
L196.283 248.832
L196.727 250.56
L196.975 252.288
L196.386 254.016
L196.704 254.499
L198.24 255.744
L198.836 257.472
L198.432 258.059
L198.034 259.2
L198.138 260.928
L200.16 266.219
L201.888 269.977
L203.616 273.217
L205.609 276.48
L208.053 279.936
L210.901 283.392
L214.211 286.848
L217.44 287.822
L219.168 287.888
L220.022 288.576
L218.107 290.304
L220.896 292.458
L222.624 293.666
L224.352 293.023
L226.08 292.869
L227.577 293.76
L225.456 295.488
L226.08 295.876
L227.808 295.991
L228.98 295.488
L229.536 294.894
L229.818 295.488
L229.279 297.216
L229.536 297.821
L231.825 298.944
L232.992 299.058
L233.471 298.944
L234.72 298.444
L236.218 298.944
L238.176 301.957
L238.579 300.672
L239.904 299.361
L240.652 300.672
L241.632 302.055
L242.447 302.4
L242.986 304.128
L243.36 304.453
L245.088 304.826
L246.096 305.856
L246.816 306.243
L248.544 306.675
L250.36 305.856
L251.442 307.584
L252 307.863
L253.728 306.893
L254.778 307.584
L255.456 308.331
L256.194 309.312
L255.342 311.04
L255.456 311.141
L257.184 311.68
L258.912 312.683
L259.709 311.04
L258.912 309.212
L258.591 307.584
L258.912 307.421
L260.714 307.584
L261.573 309.312
L262.368 310.408
L263.157 311.04
L262.368 311.903
L260.64 312.623
L259.472 312.768
L260.64 313.074
L262.368 313.101
L264.096 313.619
L265.824 314.613
L267.552 314.845
L269.313 314.496
L271.008 313.286
L272.736 314.196
L274.464 314.32
L274.723 314.496
L275.329 316.224
L276.192 317.344
L277.825 316.224
L276.573 314.496
L277.92 313.218
L279.461 314.496
L278.231 316.224
L279.648 316.658
L279.829 316.224
L281.376 315.114
L283.104 315.457
L284.832 314.656
L288.288 315.711
L289.171 316.224
L290.016 317.523
L293.472 317.285
L295.2 317.564
L295.601 317.952
L296.928 318.563
L296.928 318.563" style="fill:none;stroke:#000000;"/>
    <path clip-path="url(#p23ab9b749c)" d="
M296.928 316.438
L296.721 316.224
L296.281 314.496
L296.928 312.898
L297.929 314.496
L297.075 316.224
L296.928 316.438" style="fill:none;stroke:#000000;"/>
    <path clip-path="url(#p23ab9b749c)" d="
M321.12 316.572
L321.511 316.224
L321.12 314.846
L320.867 316.224
L321.12 316.572" style="fill:none;stroke:#000000;"/>
    <path clip-path="url(#p23ab9b749c)" d="
M309.024 315.743
L307.944 314.496
L309.024 313.272
L310.43 314.496
L309.024 315.743" style="fill:none;stroke:#000000;"/>
    <path clip-path="url(#p23ab9b749c)" d="
M319.392 314.594
L320.392 314.496
L319.392 314.359
L319.043 314.496
L319.392 314.594" style="fill:none;stroke:#000000;"/>
    <path clip-path="url(#p23ab9b749c)" d="
M326.304 314.888
L326.546 314.496
L326.582 312.768
L326.304 312.396
L325.495 312.768
L325.523 314.496
L326.304 314.888" style="fill:none;stroke:#000000;"/>
    <path clip-path="url(#p23ab9b749c)" d="
M281.376 312.873
L281.335 312.768
L281.376 312.74
L281.429 312.768
L281.376 312.873" style="fill:none;stroke:#000000;"/>
    <path clip-path="url(#p23ab9b749c)" d="
M265.824 312.024
L265.013 311.04
L265.824 310.67
L266.375 311.04
L265.824 312.024" style="fill:none;stroke:#000000;"/>
    <path clip-path="url(#p23ab9b749c)" d="
M253.728 309.317
L253.744 309.312
L253.728 309.299
L253.721 309.312
L253.728 309.317" style="fill:none;stroke:#000000;"/>
    <path clip-path="url(#p23ab9b749c)" d="
M328.032 309.607
L327.755 309.312
L328.032 309.143
L328.358 309.312
L328.032 309.607" style="fill:none;stroke:#000000;"/>
    <path clip-path="url(#p23ab9b749c)" d="
M338.4 309.593
L338.951 309.312
L338.4 308.839
L337.286 309.312
L338.4 309.593" style="fill:none;stroke:#000000;"/>
    <path clip-path="url(#p23ab9b749c)" d="
M343.584 306.016
L343.686 305.856
L343.584 305.69
L342.889 305.856
L343.584 306.016" style="fill:none;stroke:#000000;"/>
    <path clip-path="url(#p23ab9b749c)" d="
M338.4 304.623
L338.284 304.128
L338.4 304.082
L340.128 303.822
L340.649 304.128
L340.128 304.871
L338.4 304.623" style="fill:none;stroke:#000000;"/>
    <path clip-path="url(#p23ab9b749c)" d="
M245.088 303.498
L244.03 302.4
L245.088 301.951
L245.692 302.4
L245.088 303.498" style="fill:none;stroke:#000000;"/>
    <path clip-path="url(#p23ab9b749c)" d="
M241.632 299.021
L241.354 298.944
L241.632 298.894
L241.722 298.944
L241.632 299.021" style="fill:none;stroke:#000000;"/>
    <path clip-path="url(#p23ab9b749c)" d="
M191.52 247.115
L191.537 247.104
L191.52 247.055
L191.511 247.104
L191.52 247.115" style="fill:none;stroke:#000000;"/>
    <path clip-path="url(#p23ab9b749c)" d="
M186.336 238.544
L186.424 238.464
L186.336 238.404
L186.177 238.464
L186.336 238.544" style="fill:none;stroke:#000000;"/>
    <path clip-path="url(#p23ab9b749c)" d="
M198.432 238.545
L198.309 238.464
L198.432 238.382
L198.481 238.464
L198.432 238.545" style="fill:none;stroke:#000000;"/>
    <path clip-path="url(#p23ab9b749c)" d="
M193.248 236.888
L192.936 236.736
L191.641 235.008
L193.248 234.345
L193.984 235.008
L193.564 236.736
L193.248 236.888" style="fill:none;stroke:#000000;"/>
    <path clip-path="url(#p23ab9b749c)" d="
M184.608 233.427
L184.744 233.28
L184.608 233.078
L184.442 233.28
L184.608 233.427" style="fill:none;stroke:#000000;"/>
    <path clip-path="url(#p23ab9b749c)" d="
M189.792 234.033
L188.949 233.28
L189.792 232.657
L191.52 232.604
L191.648 233.28
L191.52 234.369
L189.792 234.033" style="fill:none;stroke:#000000;"/>
    <path clip-path="url(#p23ab9b749c)" d="
M184.608 230.298
L185.009 229.824
L184.608 229.245
L184.007 229.824
L184.608 230.298" style="fill:none;stroke:#000000;"/>
    <path clip-path="url(#p23ab9b749c)" d="
M193.248 226.974
L192.687 226.368
L193.248 225.91
L193.857 226.368
L193.248 226.974" style="fill:none;stroke:#000000;"/>
    <path clip-path="url(#p23ab9b749c)" d="
M193.248 223.105
L192.953 222.912
L193.248 222.688
L193.434 222.912
L193.248 223.105" style="fill:none;stroke:#000000;"/>
    <path clip-path="url(#p23ab9b749c)" d="
M189.792 221.447
L189.298 221.184
L189.792 220.937
L190.064 221.184
L189.792 221.447" style="fill:none;stroke:#000000;"/>
    <path clip-path="url(#p23ab9b749c)" d="
M181.152 219.539
L181.255 219.456
L181.152 219.369
L180.99 219.456
L181.152 219.539" style="fill:none;stroke:#000000;"/>
    <path clip-path="url(#p23ab9b749c)" d="
M181.152 216.084
L182.88 216.538
L183.533 216
L182.88 215.487
L181.289 214.272
L181.152 214.155
L180.701 214.272
L181.087 216
L181.152 216.084" style="fill:none;stroke:#000000;"/>
    <path clip-path="url(#p23ab9b749c)" d="
M188.064 214.637
L186.96 214.272
L188.064 213.897
L188.812 214.272
L188.064 214.637" style="fill:none;stroke:#000000;"/>
    <path clip-path="url(#p23ab9b749c)" d="
M184.608 209.883
L186.336 209.971
L188.064 210.771
L189.277 209.088
L189.707 207.36
L188.064 205.922
L186.788 207.36
L186.336 207.899
L185.552 207.36
L184.608 206.646
L182.88 206.925
L182.545 207.36
L182.88 207.741
L183.901 209.088
L184.608 209.883" style="fill:none;stroke:#000000;"/>
    <path clip-path="url(#p23ab9b749c)" d="
M189.792 205.165
L191.282 203.904
L189.792 202.63
L188.313 203.904
L189.792 205.165" style="fill:none;stroke:#000000;"/>
    <path clip-path="url(#p23ab9b749c)" d="
M188.064 201.057
L188.343 200.448
L188.064 200.251
L186.906 200.448
L188.064 201.057" style="fill:none;stroke:#000000;"/>
    <path clip-path="url(#p23ab9b749c)" d="
M210.528 150.343
L210.501 150.336
L210.528 150.324
L210.572 150.336
L210.528 150.343" style="fill:none;stroke:#000000;"/>
    <path clip-path="url(#p23ab9b749c)" d="
M210.528 147.165
L210.063 146.88
L210.528 146.482
L210.928 146.88
L210.528 147.165" style="fill:none;stroke:#000000;"/>
    <path clip-path="url(#p23ab9b749c)" d="
M213.984 145.725
L213.324 145.152
L213.984 144.474
L214.738 145.152
L213.984 145.725" style="fill:none;stroke:#000000;"/>
    <path clip-path="url(#p23ab9b749c)" d="
M217.44 135.82
L218.493 134.784
L217.44 133.959
L216.624 134.784
L217.44 135.82" style="fill:none;stroke:#000000;"/>
    <path clip-path="url(#p23ab9b749c)" d="
M215.712 133.495
L216.157 133.056
L215.712 132.709
L215.369 133.056
L215.712 133.495" style="fill:none;stroke:#000000;"/>
    <path clip-path="url(#p23ab9b749c)" d="
M220.896 130.13
L221.429 129.6
L220.896 129.208
L220.506 129.6
L220.896 130.13" style="fill:none;stroke:#000000;"/>
    <path clip-path="url(#p23ab9b749c)" d="
M229.536 123.708
L230.431 122.688
L229.536 121.961
L228.748 122.688
L229.536 123.708" style="fill:none;stroke:#000000;"/>
    <path clip-path="url(#p23ab9b749c)" d="
M307.296 105.422
L307.277 105.408
L307.296 105.386
L307.312 105.408
L307.296 105.422" style="fill:none;stroke:#000000;"/>
    <path clip-path="url(#p23ab9b749c)" d="
M267.552 103.916
L267.08 103.68
L267.552 103.277
L267.814 103.68
L267.552 103.916" style="fill:none;stroke:#000000;"/>
    <path clip-path="url(#p23ab9b749c)" d="
M279.648 102.404
L279.081 101.952
L279.648 100.309
L280.385 101.952
L279.648 102.404" style="fill:none;stroke:#000000;"/>
    <path clip-path="url(#p23ab9b749c)" d="
M348.768 102.511
L350.496 102.09
L351.557 101.952
L350.496 101.577
L348.768 101.816
L348.33 101.952
L348.768 102.511" style="fill:none;stroke:#000000;"/>
    <path clip-path="url(#p23ab9b749c)" d="
M314.208 100.341
L314.08 100.224
L314.208 99.9167
L314.267 100.224
L314.208 100.341" style="fill:none;stroke:#000000;"/>
    <path clip-path="url(#p23ab9b749c)" d="
M267.552 98.9479
L267.966 98.496
L267.552 97.1296
L267.186 98.496
L267.552 98.9479" style="fill:none;stroke:#000000;"/>
    <path clip-path="url(#p23ab9b749c)" d="
M319.392 98.5403
L319.107 98.496
L319.392 98.4142
L319.516 98.496
L319.392 98.5403" style="fill:none;stroke:#000000;"/>
    <path clip-path="url(#p23ab9b749c)" d="
M271.008 97.253
L271.348 96.768
L271.008 96.4104
L270.494 96.768
L271.008 97.253" style="fill:none;stroke:#000000;"/>
    <path clip-path="url(#p23ab9b749c)" d="
M276.192 97.8629
L276.415 96.768
L276.192 96.6003
L275.951 96.768
L276.192 97.8629" style="fill:none;stroke:#000000;"/>
    <path clip-path="url(#p23ab9b749c)" d="
M305.568 97.1842
L304.95 96.768
L305.568 96.4092
L306.41 96.768
L305.568 97.1842" style="fill:none;stroke:#000000;"/>
    <path clip-path="url(#p23ab9b749c)" d="
M274.464 95.0929
L274.499 95.04
L274.464 94.9579
L273.704 95.04
L274.464 95.0929" style="fill:none;stroke:#000000;"/>
    <path clip-path="url(#p23ab9b749c)" d="
M314.208 96.207
L315.624 95.04
L314.208 94.4946
L313.47 95.04
L314.208 96.207" style="fill:none;stroke:#000000;"/>
    <path clip-path="url(#p23ab9b749c)" d="
M315.936 94.3911
L316.253 93.312
L315.936 92.8866
L315.686 93.312
L315.936 94.3911" style="fill:none;stroke:#000000;"/>
   </g>
   <g id="LineCollection_2">
    <path clip-path="url(#p23ab9b749c)" d="
M274.464 288.594
L276.192 288.687
L278.356 288.576
L279.648 288.451
L281.376 288.13
L282.146 286.848
L283.104 286.24
L284.49 286.848
L284.832 287.289
L290.016 285.729
L291.744 285.286
L296.928 285.213
L298.656 285.777
L302.112 286.212
L305.568 286.432
L309.024 286.348
L312.48 285.876
L314.208 285.457
L314.454 285.12
L315.936 284.186
L317.664 283.962
L319.411 283.392
L323.653 279.936
L324.347 278.208
L324.576 277.986
L326.304 277.354
L328.032 275.519
L328.974 274.752
L329.76 273.884
L331.346 273.024
L332.465 271.296
L333.216 270.54
L334.944 269.129
L337.454 266.112
L338.4 265.645
L340.393 264.384
L341.189 262.656
L341.856 262.125
L343.584 262.248
L344.193 260.928
L344.695 259.2
L345.312 258.169
L347.04 258.459
L348.768 256.909
L351.367 254.016
L352.359 252.288
L352.687 250.56
L353.952 248.483
L355.226 247.104
L354.438 245.376
L355.68 243.046
L355.985 241.92
L355.68 241.566
L354.686 240.192
L355.68 238.993
L356.421 238.464
L357.408 237.046
L358.089 236.736
L357.413 235.008
L357.408 232.426
L357.408 231.51
L358.207 229.824
L357.408 229.174
L356.394 228.096
L358.147 226.368
L359.136 224.894
L359.878 224.64
L359.136 224.304
L358.134 222.912
L359.237 221.184
L358.757 219.456
L359.385 217.728
L359.569 216
L359.136 214.807
L358.719 214.272
L359.136 213.813
L359.968 212.544
L359.136 210.653
L357.968 209.088
L359.335 207.36
L359.274 205.632
L359.136 205.384
L357.817 203.904
L358.939 202.176
L357.984 200.448
L358.358 198.72
L358.847 196.992
L358.184 195.264
L358.107 193.536
L357.408 191.767
L355.719 190.08
L355.771 188.352
L355.68 187.508
L353.952 187.68
L353.033 186.624
L352.729 184.896
L352.879 183.168
L352.224 181.412
L352.183 181.44
L350.496 182.172
L349.83 181.44
L350.009 179.712
L349.865 177.984
L348.768 176.374
L347.04 177.013
L346.381 176.256
L346.024 174.528
L345.811 172.8
L345.312 172.387
L345.228 172.8
L343.584 173.965
L342.438 172.8
L343.584 171.181
L344.088 171.072
L343.584 170.351
L341.856 170.261
L340.896 169.344
L340.128 168.112
L339.602 167.616
L338.4 165.242
L334.944 164.433
L334.632 164.16
L334.633 162.432
L333.216 161.354
L331.488 160.32
L331.139 160.704
L329.76 161.451
L329.141 160.704
L328.567 158.976
L328.032 158.595
L326.304 157.921
L326.037 157.248
L324.576 156.947
L322.848 156.011
L321.12 155.881
L320.489 155.52
L317.664 154.705
L315.936 154.362
L315.374 155.52
L314.208 156.37
L313.119 155.52
L314.208 154.047
L314.937 153.792
L314.208 153.324
L312.48 153.127
L312.104 153.792
L311.801 155.52
L310.752 156.271
L309.843 155.52
L309.546 153.792
L310.765 152.064
L310.752 152.06
L308.71 152.064
L307.296 153.402
L306.659 153.792
L305.568 154.132
L305.001 153.792
L303.84 153.374
L301.807 152.064
L300.384 151.319
L296.928 151.469
L296.858 152.064
L295.955 153.792
L295.2 154.249
L294.436 153.792
L293.644 152.064
L293.472 151.299
L290.016 151.575
L288.288 151.395
L284.832 152.874
L283.104 153.13
L281.376 152.902
L277.276 153.792
L277.92 153.884
L278.84 155.52
L277.92 156.217
L276.808 155.52
L276.192 154.043
L274.464 154.528
L272.736 154.81
L270.693 155.52
L269.28 155.829
L267.552 155.687
L265.824 156.753
L264.096 156.714
L262.368 157.639
L260.64 156.44
L259.613 155.52
L258.912 153.952
L258.679 153.792
L257.977 152.064
L257.609 150.336
L257.184 149.483
L255.93 148.608
L257.184 147.24
L257.184 146.706
L256.605 145.152
L255.321 143.424
L254.247 141.696
L252 139.05
L250.272 137.829
L248.544 137.025
L246.816 137.036
L245.074 136.512
L243.36 137.042
L241.632 137.085
L239.561 138.24
L237.62 139.968
L236.407 141.696
L235.577 143.424
L235.188 145.152
L235.114 146.88
L235.279 148.608
L236.448 149.081
L237.401 150.336
L237.66 152.064
L237.579 153.792
L239.063 155.52
L239.904 156.09
L241.632 156.702
L243.36 156.65
L244.157 157.248
L245.088 158.197
L246.816 157.754
L247.645 157.248
L248.544 156.839
L249.147 157.248
L252 159.9
L252.743 160.704
L252.319 162.432
L250.405 164.16
L250.272 164.483
L249.42 165.888
L248.544 166.439
L246.816 167.382
L246.035 167.616
L245.088 168.043
L243.36 171.157
L241.632 171.656
L239.904 171.814
L238.176 171.709
L236.448 171.268
L235.35 169.344
L233.054 167.616
L231.264 166.615
L229.209 165.888
L227.808 165.503
L226.08 165.271
L224.352 165.279
L222.624 165.533
L220.896 166.031
L219.168 166.775
L217.44 167.97
L215.712 169.741
L214.76 171.072
L213.984 172.84
L213.44 174.528
L213.207 176.256
L213.265 177.984
L213.621 179.712
L214.254 181.44
L215.712 183.8
L217.44 185.688
L219.168 187.662
L220.896 189.154
L222.624 190.337
L224.352 191.527
L227.808 192.473
L228.929 193.536
L229.536 193.665
L230.965 195.264
L230.772 196.992
L231.264 198.739
L232.532 200.448
L231.423 202.176
L231.272 203.904
L232.416 205.632
L232.28 207.36
L231.264 208.54
L229.536 208.279
L228.693 209.088
L229.536 210.191
L230.331 210.816
L230.091 212.544
L229.536 212.948
L229.236 212.544
L227.504 210.816
L227.021 209.088
L227.783 207.36
L226.08 206.934
L224.352 206.364
L223.83 207.36
L225.165 209.088
L224.352 209.548
L222.624 209.46
L221.831 209.088
L221.284 207.36
L220.896 207.052
L220.556 207.36
L219.168 207.978
L218.219 207.36
L217.44 206.708
L215.712 205.756
L214.495 207.36
L213.984 207.686
L212.802 207.36
L212.256 207.016
L211.65 207.36
L209.967 209.088
L208.8 209.864
L208.074 210.816
L207.072 212.746
L206.476 214.272
L206.12 216
L206.037 217.728
L206.209 219.456
L206.676 221.184
L207.431 222.912
L208.8 224.883
L210.528 226.533
L212.256 227.681
L213.984 227.72
L215.868 228.096
L217.44 229.629
L219.168 229.439
L220.917 229.824
L222.624 228.459
L224.352 228.332
L224.846 228.096
L225.314 226.368
L227.2 224.64
L225.965 222.912
L227.808 220.977
L229.536 219.222
L229.776 219.456
L229.936 221.184
L228.263 222.912
L228.926 224.64
L231.264 226.906
L232.992 227.322
L233.799 228.096
L231.264 231.12
L229.536 229.683
L229.431 229.824
L229.536 231.579
L231.138 233.28
L231.264 234.003
L231.871 235.008
L231.791 236.736
L232.992 237.304
L233.621 236.736
L234.72 235.924
L235.412 236.736
L236.448 238.228
L237.751 238.464
L236.448 238.691
L234.927 240.192
L234.72 240.992
L233.669 241.92
L232.992 242.277
L231.264 242.544
L230.211 243.648
L229.5 245.376
L228.097 247.104
L227.808 247.824
L227.252 248.832
L226.501 250.56
L225.999 252.288
L225.648 254.016
L225.526 255.744
L225.601 257.472
L226.08 259.695
L226.42 260.928
L227.22 262.656
L228.379 264.384
L230.031 266.112
L231.264 267.116
L232.992 268.119
L234.72 268.836
L236.448 269.312
L239.174 269.568
L240.309 269.568
L241.632 269.479
L243.36 269.234
L245.088 268.809
L246.816 268.211
L248.615 267.84
L250.272 266.943
L252 266.442
L253.728 266.148
L254.662 269.568
L255.025 271.296
L255.456 272.215
L256.161 273.024
L255.456 274.328
L255.387 274.752
L255.456 275.267
L256.312 276.48
L257.184 276.962
L259.845 279.936
L260.687 281.664
L262.368 282.465
L263.357 283.392
L264.096 284.677
L265.824 285.811
L267.161 285.12
L267.658 285.12
L270.06 286.848
L271.008 288.02
L272.736 286.758
L273.002 286.848
L274.464 288.594
L274.464 288.594" style="fill:none;stroke:#000000;"/>
    <path clip-path="url(#p23ab9b749c)" d="
M238.176 237.984
L237.972 236.736
L238.176 236.559
L239.276 236.736
L238.176 237.984" style="fill:none;stroke:#000000;"/>
    <path clip-path="url(#p23ab9b749c)" d="
M236.448 235.608
L235.734 235.008
L236.448 234.447
L236.987 235.008
L236.448 235.608" style="fill:none;stroke:#000000;"/>
    <path clip-path="url(#p23ab9b749c)" d="
M239.904 235.927
L239.785 235.008
L238.176 233.686
L237.751 233.28
L238.176 232.977
L239.904 231.789
L240.432 233.28
L240.512 235.008
L239.904 235.927" style="fill:none;stroke:#000000;"/>
    <path clip-path="url(#p23ab9b749c)" d="
M227.808 233.32
L227.848 233.28
L227.808 233.242
L227.771 233.28
L227.808 233.32" style="fill:none;stroke:#000000;"/>
    <path clip-path="url(#p23ab9b749c)" d="
M238.176 230.021
L237.924 229.824
L238.176 229.625
L239.719 229.824
L238.176 230.021" style="fill:none;stroke:#000000;"/>
    <path clip-path="url(#p23ab9b749c)" d="
M231.264 223.685
L230.514 222.912
L231.264 222.223
L232.63 221.184
L232.992 220.933
L233.227 221.184
L234.72 222.53
L236.448 222.593
L236.789 222.912
L236.448 223.251
L234.72 223.433
L232.992 223.57
L231.264 223.685" style="fill:none;stroke:#000000;"/>
    <path clip-path="url(#p23ab9b749c)" d="
M232.992 217.943
L232.685 217.728
L231.264 216.333
L229.536 216.197
L227.808 216.063
L227.764 216
L227.808 215.928
L229.536 215.671
L230.873 214.272
L231.264 213.733
L232.992 213.954
L233.246 214.272
L233.263 216
L234.72 217.544
L234.856 217.728
L234.72 217.887
L232.992 217.943" style="fill:none;stroke:#000000;"/>
    <path clip-path="url(#p23ab9b749c)" d="
M407.52 217.863
L409.248 218.548
L410.976 218.472
L412.704 217.754
L412.741 217.728
L414.432 216.17
L414.57 216
L415.416 214.272
L415.562 212.544
L415.153 210.816
L414.432 209.451
L414.306 209.088
L414.432 208.719
L415.169 207.36
L414.858 205.632
L414.432 204.377
L414.315 203.904
L413.365 202.176
L412.704 201.723
L412.217 202.176
L410.976 202.504
L409.248 202.179
L409.239 202.176
L408.38 200.448
L409.248 199.604
L410.34 198.72
L410.976 197.977
L411.603 196.992
L412.154 195.264
L412.201 193.536
L411.775 191.808
L410.976 190.503
L410.701 190.08
L409.248 188.74
L408.36 188.352
L407.52 187.948
L406.008 188.352
L405.792 188.375
L405.505 188.352
L404.064 188.053
L403.499 188.352
L402.336 188.93
L401.067 190.08
L400.608 190.777
L399.794 191.808
L399.384 193.536
L399.518 195.264
L400.608 196.983
L400.612 196.992
L401.936 198.72
L402.336 199.111
L403.61 200.448
L403.751 202.176
L402.81 203.904
L403.219 205.632
L403.228 207.36
L404.064 208.518
L405.437 209.088
L404.442 210.816
L404.166 212.544
L404.321 214.272
L405.097 216
L405.792 216.689
L407.305 217.728
L407.52 217.863" style="fill:none;stroke:#000000;"/>
    <path clip-path="url(#p23ab9b749c)" d="
M360.864 214.336
L360.983 214.272
L360.864 214.136
L360.514 214.272
L360.864 214.336" style="fill:none;stroke:#000000;"/>
    <path clip-path="url(#p23ab9b749c)" d="
M234.72 212.725
L234.49 212.544
L234.72 212.229
L234.856 212.544
L234.72 212.725" style="fill:none;stroke:#000000;"/>
    <path clip-path="url(#p23ab9b749c)" d="
M405.792 205.943
L405.094 205.632
L405.792 205.199
L405.891 205.632
L405.792 205.943" style="fill:none;stroke:#000000;"/>
    <path clip-path="url(#p23ab9b749c)" d="
M405.792 202.568
L404.473 202.176
L405.255 200.448
L405.792 200.315
L406.116 200.448
L406.25 202.176
L405.792 202.568" style="fill:none;stroke:#000000;"/>
    <path clip-path="url(#p23ab9b749c)" d="
M355.68 194.301
L355.079 193.536
L355.68 192.439
L356.98 193.536
L355.68 194.301" style="fill:none;stroke:#000000;"/>
    <path clip-path="url(#p23ab9b749c)" d="
M229.536 188.554
L229.416 188.352
L229.536 188.162
L229.663 188.352
L229.536 188.554" style="fill:none;stroke:#000000;"/>
    <path clip-path="url(#p23ab9b749c)" d="
M395.424 183.539
L397.152 184.299
L398.88 184.554
L400.608 184.427
L401.957 183.168
L402.336 182.919
L404.064 182.846
L405.154 181.44
L405.705 179.712
L405.78 177.984
L405.461 176.256
L404.521 174.528
L404.064 174.018
L402.512 172.8
L402.336 172.674
L400.608 172.272
L399.56 172.8
L398.88 172.987
L398.078 172.8
L397.152 172.367
L396.047 172.8
L395.424 173.157
L393.978 174.528
L393.696 175.039
L393.014 176.256
L392.637 177.984
L392.788 179.712
L393.483 181.44
L393.696 181.75
L394.842 183.168
L395.424 183.539" style="fill:none;stroke:#000000;"/>
    <path clip-path="url(#p23ab9b749c)" d="
M385.056 166.417
L386.784 166.709
L388.512 166.539
L390.24 166.33
L391.472 165.888
L391.968 165.659
L393.696 164.274
L393.811 164.16
L394.853 162.432
L395.252 160.704
L395.255 158.976
L394.869 157.248
L393.865 155.52
L393.696 155.316
L392.059 153.792
L391.968 153.721
L390.24 152.795
L388.512 152.457
L386.784 152.528
L385.056 153.062
L383.923 153.792
L383.328 154.224
L382.149 155.52
L381.6 156.632
L381.279 157.248
L380.854 158.976
L380.92 160.704
L381.488 162.432
L381.6 162.633
L382.421 164.16
L383.328 165.158
L384.315 165.888
L385.056 166.417" style="fill:none;stroke:#000000;"/>
    <path clip-path="url(#p23ab9b749c)" d="
M314.208 160.716
L314.192 160.704
L314.208 160.681
L314.227 160.704
L314.208 160.716" style="fill:none;stroke:#000000;"/>
    <path clip-path="url(#p23ab9b749c)" d="
M324.576 161.58
L323.634 160.704
L324.576 159.53
L326.304 159.912
L326.433 160.704
L326.304 160.765
L324.576 161.58" style="fill:none;stroke:#000000;"/>
    <path clip-path="url(#p23ab9b749c)" d="
M255.456 159.461
L254.899 158.976
L253.728 158.438
L252.631 157.248
L253.728 156.235
L255.456 156.512
L257.184 156.458
L258.172 157.248
L257.993 158.976
L257.184 159.398
L255.456 159.461" style="fill:none;stroke:#000000;"/>
    <path clip-path="url(#p23ab9b749c)" d="
M283.104 159.061
L282.98 158.976
L283.104 158.815
L283.211 158.976
L283.104 159.061" style="fill:none;stroke:#000000;"/>
    <path clip-path="url(#p23ab9b749c)" d="
M310.752 160.373
L310.539 158.976
L310.752 158.647
L311.023 158.976
L310.752 160.373" style="fill:none;stroke:#000000;"/>
    <path clip-path="url(#p23ab9b749c)" d="
M274.464 157.319
L274.32 157.248
L274.464 156.94
L274.562 157.248
L274.464 157.319" style="fill:none;stroke:#000000;"/>
    <path clip-path="url(#p23ab9b749c)" d="
M288.288 157.691
L287.698 157.248
L288.288 156.496
L288.841 157.248
L288.288 157.691" style="fill:none;stroke:#000000;"/>
    <path clip-path="url(#p23ab9b749c)" d="
M291.744 155.877
L291.233 155.52
L290.016 154.85
L288.681 153.792
L290.016 152.138
L291.242 153.792
L291.744 154.84
L292.219 155.52
L291.744 155.877" style="fill:none;stroke:#000000;"/>
    <path clip-path="url(#p23ab9b749c)" d="
M366.048 147.39
L367.776 147.004
L369.504 148.099
L371.232 148.061
L372.96 146.93
L373.01 146.88
L374.578 145.152
L374.688 144.953
L375.516 143.424
L375.858 141.696
L375.691 139.968
L374.883 138.24
L374.688 137.979
L373.321 136.512
L372.96 136.224
L371.232 135.344
L369.504 135.089
L367.776 135.276
L366.048 136.097
L365.441 136.512
L364.32 137.709
L363.975 138.24
L363.089 139.968
L362.828 141.696
L363.146 143.424
L363.729 145.152
L364.32 145.916
L365.299 146.88
L366.048 147.39" style="fill:none;stroke:#000000;"/>
    <path clip-path="url(#p23ab9b749c)" d="
M276.192 134.969
L276.567 134.784
L277.92 134.425
L279.648 133.827
L280.957 133.056
L281.376 132.751
L282.142 131.328
L283.104 129.694
L283.154 129.6
L284.181 127.872
L284.174 126.144
L284.182 124.416
L283.854 122.688
L283.104 121.021
L283.08 120.96
L281.927 119.232
L281.376 118.678
L279.776 117.504
L279.648 117.42
L277.92 116.621
L276.192 116.361
L274.464 116.418
L272.736 116.793
L271.091 117.504
L271.008 117.543
L269.28 118.848
L268.898 119.232
L267.671 120.96
L267.552 121.254
L266.887 122.688
L266.525 124.416
L266.502 126.144
L266.789 127.872
L267.464 129.6
L267.552 129.762
L268.489 131.328
L269.28 132.071
L270.925 133.056
L271.008 133.138
L272.736 134.422
L274.464 134.416
L275.846 134.784
L276.192 134.969" style="fill:none;stroke:#000000;"/>
    <path clip-path="url(#p23ab9b749c)" d="
M343.584 135.328
L345.037 134.784
L345.312 134.705
L347.04 134.087
L348.768 133.524
L349.48 133.056
L350.496 131.65
L350.689 131.328
L351.359 129.6
L351.581 127.872
L351.321 126.144
L350.604 124.416
L350.496 124.213
L349.619 122.688
L348.768 122.017
L347.165 120.96
L347.04 120.885
L345.312 120.251
L343.584 120.24
L341.856 120.595
L341.071 120.96
L340.128 121.334
L338.4 122.673
L338.386 122.688
L337.311 124.416
L336.697 126.144
L336.672 126.402
L336.433 127.872
L336.672 129.31
L336.705 129.6
L337.397 131.328
L338.4 132.629
L338.808 133.056
L340.128 134.168
L341.856 134.411
L342.828 134.784
L343.584 135.328" style="fill:none;stroke:#000000;"/>
    <path clip-path="url(#p23ab9b749c)" d="
M314.208 127.925
L314.422 127.872
L315.936 127.393
L316.346 126.144
L317.664 124.895
L319.108 124.416
L319.392 123.779
L319.806 122.688
L320.179 120.96
L320.281 119.232
L320.014 117.504
L319.392 116.165
L319.233 115.776
L317.864 114.048
L317.664 113.862
L315.936 112.668
L314.864 112.32
L314.208 112.073
L312.48 111.858
L310.752 112.098
L310.203 112.32
L309.024 112.729
L307.302 114.048
L307.296 114.054
L305.922 115.776
L305.568 116.602
L305.146 117.504
L304.589 119.232
L304.5 120.96
L304.81 122.688
L305.568 124.284
L305.632 124.416
L307.05 126.144
L307.296 126.373
L309.024 126.907
L310.752 127.339
L312.48 127.538
L313.854 127.872
L314.208 127.925" style="fill:none;stroke:#000000;"/>
   </g>
   <g id="LineCollection_3">
    <path clip-path="url(#p23ab9b749c)" d="
M272.736 278.925
L274.464 279.333
L276.192 279.183
L277.92 278.375
L278.155 278.208
L279.648 276.786
L279.91 276.48
L280.787 274.752
L281.024 273.024
L280.857 271.296
L279.648 270
L279.35 269.568
L277.92 268.169
L277.461 267.84
L276.56 266.112
L276.192 266.034
L274.464 265.971
L273.527 266.112
L272.736 266.29
L271.008 267.446
L270.67 267.84
L269.459 269.568
L269.28 270.029
L268.811 271.296
L268.627 273.024
L268.954 274.752
L269.28 275.371
L269.745 276.48
L271.008 277.83
L271.564 278.208
L272.736 278.925" style="fill:none;stroke:#000000;"/>
    <path clip-path="url(#p23ab9b749c)" d="
M307.296 274.887
L309.024 275.23
L310.752 275.16
L312.48 274.687
L314.208 273.87
L315.251 273.024
L316.752 271.296
L317.664 269.08
L318.063 267.84
L318.253 266.112
L318.155 264.384
L317.664 262.132
L316.241 257.472
L316.159 255.744
L317.369 254.016
L320.159 252.288
L321.12 251.712
L321.572 250.56
L322.848 249.467
L324.222 250.56
L324.576 251.562
L326.304 251.26
L329.76 251.566
L331.488 251.302
L333.216 251.581
L334.944 251.497
L336.672 251.228
L338.4 250.479
L340.128 249.472
L340.854 248.832
L342.396 247.104
L343.332 245.376
L343.834 243.648
L344.117 241.92
L344.036 240.192
L343.584 238.359
L342.815 236.736
L342.226 235.008
L341.856 234.363
L340.128 232.164
L339.388 231.552
L338.4 229.768
L339.421 226.368
L340.128 224.301
L341.585 221.184
L343.584 217.329
L344.13 216
L345.069 212.544
L345.312 210.35
L345.312 208.174
L345.272 207.36
L345.023 205.632
L344.559 203.904
L343.584 201.756
L342.879 200.448
L341.643 198.72
L340.128 196.987
L338.37 195.264
L336.319 193.536
L334.604 191.808
L332.787 190.08
L331.163 188.352
L328.866 184.896
L327.164 183.168
L326.003 181.44
L324.248 179.712
L322.848 178.841
L321.782 177.984
L321.12 177.273
L317.664 175.468
L314.208 174.372
L312.48 173.96
L309.024 173.477
L303.84 173.151
L296.928 172.865
L293.472 172.87
L290.016 173.098
L288.288 173.32
L286.56 174.044
L283.104 174.664
L281.376 175.428
L279.648 176.382
L277.92 177.051
L276.192 178.004
L273.649 179.712
L271.008 181.863
L267.879 184.896
L268.392 186.624
L267.552 187.519
L265.824 187.911
L265.114 188.352
L263.98 190.08
L263.24 191.808
L262.368 193.098
L261.935 193.536
L262.368 194.092
L262.697 195.264
L262.368 196.624
L261.597 196.992
L260.64 197.322
L259.583 198.72
L258.912 202.434
L257.88 203.904
L257.4 205.632
L256.52 210.816
L256.941 212.544
L256.416 214.272
L256.599 216
L256.458 217.728
L256.923 219.456
L257.106 221.184
L257.062 222.912
L257.612 224.64
L258.384 226.368
L258.912 228.266
L260.155 231.552
L260.952 233.28
L262.38 235.008
L263.066 236.736
L264.316 238.464
L265.093 240.192
L266.114 241.92
L267.707 243.648
L269.28 245.711
L271.008 247.296
L274.464 251.186
L276.192 251.189
L277.92 251.702
L278.634 252.288
L279.648 254.784
L281.376 254.545
L282.872 255.744
L283.104 256.364
L284.832 256.522
L286.911 257.472
L288.288 257.69
L290.016 258.656
L290.626 257.472
L291.744 256.827
L292.614 257.472
L292.987 259.2
L294.984 260.928
L295.2 261.543
L296.928 261.568
L297.77 260.928
L298.656 260.405
L300.489 260.928
L300.384 261.085
L298.656 261.697
L297.903 262.656
L297.561 264.384
L298.663 266.112
L299.549 267.84
L302.112 271.504
L303.84 273.141
L305.568 274.262
L307.296 274.887
L307.296 274.887" style="fill:none;stroke:#000000;"/>
    <path clip-path="url(#p23ab9b749c)" d="
M236.448 261.301
L238.176 261.414
L239.227 260.928
L239.904 260.627
L241.239 259.2
L241.615 257.472
L241.388 255.744
L239.915 254.016
L239.904 254.007
L238.176 253.157
L236.448 253.28
L235.282 254.016
L234.72 254.389
L233.675 255.744
L233.335 257.472
L233.802 259.2
L234.72 260.29
L235.807 260.928
L236.448 261.301" style="fill:none;stroke:#000000;"/>
    <path clip-path="url(#p23ab9b749c)" d="
M288.288 254.06
L288.196 254.016
L288.288 254.001
L288.308 254.016
L288.288 254.06" style="fill:none;stroke:#000000;"/>
    <path clip-path="url(#p23ab9b749c)" d="
M217.44 221.211
L217.508 221.184
L219.168 220.651
L220.316 219.456
L220.747 217.728
L220.355 216
L219.168 214.753
L217.707 214.272
L217.44 214.165
L216.949 214.272
L215.712 214.402
L213.985 216
L213.984 216.005
L213.388 217.728
L213.984 219.279
L214.03 219.456
L215.712 221.021
L217.313 221.184
L217.44 221.211" style="fill:none;stroke:#000000;"/>
    <path clip-path="url(#p23ab9b749c)" d="
M409.248 215.126
L410.976 215.067
L411.777 214.272
L411.675 212.544
L410.976 211.829
L409.248 211.763
L408.463 212.544
L408.365 214.272
L409.248 215.126" style="fill:none;stroke:#000000;"/>
    <path clip-path="url(#p23ab9b749c)" d="
M409.248 207.935
L410.119 207.36
L410.775 205.632
L409.248 204.137
L407.52 205.09
L407.22 205.632
L407.52 206.854
L407.831 207.36
L409.248 207.935" style="fill:none;stroke:#000000;"/>
    <path clip-path="url(#p23ab9b749c)" d="
M405.792 195.995
L406.936 195.264
L407.516 193.536
L405.792 191.909
L404.075 193.536
L404.685 195.264
L405.792 195.995" style="fill:none;stroke:#000000;"/>
    <path clip-path="url(#p23ab9b749c)" d="
M222.624 179.836
L224.352 179.867
L224.626 179.712
L226.08 178.777
L226.726 177.984
L227.095 176.256
L226.24 174.528
L226.08 174.357
L224.352 173.146
L222.624 173.152
L220.896 174.453
L220.829 174.528
L219.946 176.256
L220.33 177.984
L220.896 178.711
L222.409 179.712
L222.624 179.836" style="fill:none;stroke:#000000;"/>
    <path clip-path="url(#p23ab9b749c)" d="
M398.88 180.54
L400.608 179.726
L400.622 179.712
L401.458 177.984
L400.608 176.932
L398.88 176.332
L397.232 177.984
L397.858 179.712
L398.88 180.54" style="fill:none;stroke:#000000;"/>
    <path clip-path="url(#p23ab9b749c)" d="
M386.784 161.636
L388.512 162.163
L390.118 160.704
L390.157 158.976
L388.512 157.437
L386.784 157.908
L385.829 158.976
L385.922 160.704
L386.784 161.636" style="fill:none;stroke:#000000;"/>
    <path clip-path="url(#p23ab9b749c)" d="
M245.088 148.775
L245.386 148.608
L246.816 147.684
L247.403 146.88
L247.552 145.152
L246.816 144.046
L246.157 143.424
L245.088 142.755
L243.36 143.008
L242.82 143.424
L241.643 145.152
L241.712 146.88
L243.36 148.567
L244.028 148.608
L245.088 148.775" style="fill:none;stroke:#000000;"/>
    <path clip-path="url(#p23ab9b749c)" d="
M369.504 143.484
L369.605 143.424
L371.232 141.933
L371.379 141.696
L371.232 141.399
L370.369 139.968
L369.504 139.399
L368.52 139.968
L367.776 140.806
L367.294 141.696
L367.776 142.414
L369.388 143.424
L369.504 143.484" style="fill:none;stroke:#000000;"/>
    <path clip-path="url(#p23ab9b749c)" d="
M343.584 129.484
L345.312 129.312
L346.616 127.872
L346.309 126.144
L345.312 125.163
L343.584 124.915
L342.211 126.144
L341.985 127.872
L343.584 129.484" style="fill:none;stroke:#000000;"/>
    <path clip-path="url(#p23ab9b749c)" d="
M274.464 127.337
L276.192 127.534
L277.847 126.144
L277.92 125.836
L278.403 124.416
L277.92 123.563
L277.342 122.688
L276.192 121.864
L274.464 122.131
L273.785 122.688
L272.829 124.416
L273.201 126.144
L274.464 127.337" style="fill:none;stroke:#000000;"/>
    <path clip-path="url(#p23ab9b749c)" d="
M310.752 120.977
L312.48 122.042
L314.123 120.96
L314.208 120.822
L314.99 119.232
L314.208 118.024
L313.538 117.504
L312.48 116.917
L311.386 117.504
L310.752 117.94
L309.904 119.232
L310.736 120.96
L310.752 120.977" style="fill:none;stroke:#000000;"/>
   </g>
   <g id="LineCollection_4">
    <path clip-path="url(#p23ab9b749c)" d="
M274.464 276.132
L276.192 275.153
L276.561 274.752
L276.515 273.024
L276.192 272.643
L274.464 271.697
L272.996 273.024
L272.94 274.752
L274.464 276.132" style="fill:none;stroke:#000000;"/>
    <path clip-path="url(#p23ab9b749c)" d="
M309.024 270.721
L310.752 270.897
L312.319 269.568
L312.48 268.79
L312.829 267.84
L312.48 267.122
L311.884 266.112
L310.752 265.213
L309.024 265.356
L308.13 266.112
L307.343 267.84
L307.721 269.568
L309.024 270.721" style="fill:none;stroke:#000000;"/>
    <path clip-path="url(#p23ab9b749c)" d="
M236.448 258.407
L238.176 258.457
L239.013 257.472
L238.176 256.464
L236.448 256.514
L235.672 257.472
L236.448 258.407" style="fill:none;stroke:#000000;"/>
    <path clip-path="url(#p23ab9b749c)" d="
M334.944 245.675
L336.672 245.692
L337.149 245.376
L338.4 244.392
L338.947 243.648
L339.098 241.92
L338.4 240.759
L337.881 240.192
L336.672 239.264
L334.944 239.203
L333.404 240.192
L333.216 240.426
L332.317 241.92
L332.564 243.648
L333.216 244.425
L334.407 245.376
L334.944 245.675" style="fill:none;stroke:#000000;"/>
    <path clip-path="url(#p23ab9b749c)" d="
M288.288 240.28
L290.016 240.594
L291.744 240.805
L295.2 241.024
L296.928 240.986
L298.656 240.668
L300.384 240.559
L303.84 239.544
L307.296 238.089
L309.024 236.657
L310.752 235.902
L311.487 235.008
L313.39 233.28
L314.208 232.216
L315.936 230.41
L317.486 228.096
L318.084 226.368
L319.392 224.259
L321.12 220.2
L323.122 214.272
L323.809 210.816
L323.317 209.088
L322.848 208.642
L320.804 205.632
L319.213 202.176
L319.252 198.72
L320.655 191.808
L320.659 190.08
L320.317 188.352
L319.386 186.624
L317.664 184.698
L315.936 183.638
L314.208 183.251
L312.48 183.208
L310.752 183.459
L309.024 184.075
L307.296 185.029
L303.84 187.035
L302.112 187.473
L300.384 187.379
L295.2 183.904
L293.453 183.168
L291.744 182.596
L290.016 182.45
L288.288 182.627
L286.56 183.237
L284.832 184.137
L283.789 184.896
L282.06 186.624
L279.811 190.08
L279.648 190.429
L277.92 193.092
L276.1 195.264
L272.736 197.909
L270.286 200.448
L269.164 202.176
L268.301 203.904
L268.2 205.632
L267.682 207.36
L268.285 210.816
L268.076 212.544
L268.81 214.272
L269.28 216.006
L269.502 217.728
L269.413 219.456
L269.658 221.184
L270.014 222.912
L271.766 228.096
L272.736 229.174
L273.158 229.824
L274.045 231.552
L274.464 232.05
L276.192 233.822
L277.92 235.301
L279.95 236.736
L281.376 237.419
L283.104 238.507
L284.832 239.301
L286.56 239.872
L288.288 240.28
L288.288 240.28" style="fill:none;stroke:#000000;"/>
    <path clip-path="url(#p23ab9b749c)" d="
M217.44 219.051
L218.688 217.728
L217.44 216.396
L215.871 217.728
L217.44 219.051" style="fill:none;stroke:#000000;"/>
    <path clip-path="url(#p23ab9b749c)" d="
M329.76 212.758
L331.488 213.442
L333.216 213.645
L334.944 213.394
L336.429 212.544
L336.672 212.445
L338.191 210.816
L338.4 210.269
L338.908 209.088
L338.888 207.36
L338.4 206.316
L338.127 205.632
L336.672 204.145
L336.02 203.904
L334.944 203.342
L333.216 203.208
L331.488 203.703
L331.079 203.904
L329.76 204.762
L328.774 205.632
L328.032 207.07
L327.7 207.36
L326.944 209.088
L327.507 210.816
L328.032 211.173
L329.344 212.544
L329.76 212.758" style="fill:none;stroke:#000000;"/>
    <path clip-path="url(#p23ab9b749c)" d="
M405.792 194.052
L406.247 193.536
L405.792 193.107
L405.339 193.536
L405.792 194.052" style="fill:none;stroke:#000000;"/>
    <path clip-path="url(#p23ab9b749c)" d="
M398.88 178.216
L399.113 177.984
L398.88 177.794
L398.69 177.984
L398.88 178.216" style="fill:none;stroke:#000000;"/>
    <path clip-path="url(#p23ab9b749c)" d="
M222.624 176.969
L224.352 176.48
L224.502 176.256
L224.352 176.088
L222.624 175.696
L222.112 176.256
L222.624 176.969" style="fill:none;stroke:#000000;"/>
    <path clip-path="url(#p23ab9b749c)" d="
M245.088 145.362
L245.189 145.152
L245.088 145.052
L244.878 145.152
L245.088 145.362" style="fill:none;stroke:#000000;"/>
    <path clip-path="url(#p23ab9b749c)" d="
M369.504 143.047
L370.858 141.696
L369.504 140.319
L368.133 141.696
L369.504 143.047" style="fill:none;stroke:#000000;"/>
    <path clip-path="url(#p23ab9b749c)" d="
M276.192 125.151
L276.802 124.416
L276.192 123.777
L275.249 124.416
L276.192 125.151" style="fill:none;stroke:#000000;"/>
    <path clip-path="url(#p23ab9b749c)" d="
M312.48 120.686
L313.909 119.232
L312.48 117.815
L311.045 119.232
L312.48 120.686" style="fill:none;stroke:#000000;"/>
   </g>
   <g id="LineCollection_5">
    <path clip-path="url(#p23ab9b749c)" d="
M310.752 268.229
L311.037 267.84
L310.752 267.535
L310.221 267.84
L310.752 268.229" style="fill:none;stroke:#000000;"/>
    <path clip-path="url(#p23ab9b749c)" d="
M293.472 233.499
L295.2 233.498
L296.431 233.28
L296.928 233.22
L298.656 232.779
L300.384 232.03
L301.236 231.552
L302.112 231.105
L303.84 229.91
L303.947 229.824
L305.568 228.56
L306.065 228.096
L307.296 226.805
L307.679 226.368
L308.829 224.64
L309.024 224.243
L309.807 222.912
L310.481 221.184
L310.752 219.881
L310.875 219.456
L311.137 217.728
L311.151 216
L311.13 214.272
L310.793 212.544
L310.752 212.397
L310.409 210.816
L309.704 209.088
L309.024 207.783
L308.796 207.36
L307.533 205.632
L307.296 205.355
L305.788 203.904
L305.568 203.709
L303.84 202.455
L303.307 202.176
L302.112 201.495
L300.384 200.783
L299.217 200.448
L298.656 200.242
L296.928 199.771
L295.2 199.48
L293.472 199.378
L291.744 199.54
L290.016 200.142
L289.531 200.448
L288.288 201.047
L286.751 202.176
L286.56 202.303
L284.832 203.755
L284.601 203.904
L283.104 204.685
L281.376 205.321
L279.648 204.662
L278.798 203.904
L277.92 203.433
L276.192 202.863
L274.464 203.367
L273.85 203.904
L272.759 205.632
L272.736 207.004
L272.716 207.36
L272.736 207.408
L273.44 209.088
L274.464 210.3
L275.477 210.816
L276.192 211.491
L277.498 212.544
L277.92 213.374
L278.258 214.272
L278.378 216
L277.92 217.689
L277.908 217.728
L277.502 219.456
L276.789 221.184
L276.406 222.912
L276.596 224.64
L277.577 226.368
L277.92 226.761
L279.648 228.026
L279.952 228.096
L281.376 228.731
L283.104 229.094
L284.591 229.824
L284.832 229.977
L286.56 231.054
L287.459 231.552
L288.288 232.015
L290.016 232.784
L291.744 233.222
L292.24 233.28
L293.472 233.499" style="fill:none;stroke:#000000;"/>
    <path clip-path="url(#p23ab9b749c)" d="
M334.944 210.062
L336.011 209.088
L336.216 207.36
L334.944 206.169
L333.323 207.36
L333.47 209.088
L334.944 210.062" style="fill:none;stroke:#000000;"/>
    <path clip-path="url(#p23ab9b749c)" d="
M279.648 207.555
L279.567 207.36
L279.648 206.957
L279.929 207.36
L279.648 207.555" style="fill:none;stroke:#000000;"/>
    <path clip-path="url(#p23ab9b749c)" d="
M288.288 192.996
L290.016 193.298
L291.744 192.212
L292.002 191.808
L292.804 190.08
L292.461 188.352
L291.744 187.565
L290.016 186.661
L288.288 186.892
L286.82 188.352
L286.613 190.08
L287.228 191.808
L288.288 192.996" style="fill:none;stroke:#000000;"/>
    <path clip-path="url(#p23ab9b749c)" d="
M312.48 191.396
L314.208 191.803
L315.936 190.767
L316.401 190.08
L316.226 188.352
L315.936 188.013
L314.208 186.789
L312.48 187.521
L311.656 188.352
L311.449 190.08
L312.48 191.396" style="fill:none;stroke:#000000;"/>
    <path clip-path="url(#p23ab9b749c)" d="
M369.504 141.844
L369.652 141.696
L369.504 141.545
L369.354 141.696
L369.504 141.844" style="fill:none;stroke:#000000;"/>
    <path clip-path="url(#p23ab9b749c)" d="
M312.48 119.582
L312.824 119.232
L312.48 118.891
L312.135 119.232
L312.48 119.582" style="fill:none;stroke:#000000;"/>
   </g>
   <g id="LineCollection_6">
    <path clip-path="url(#p23ab9b749c)" d="
M291.744 228.811
L293.472 229.664
L295.2 229.63
L296.928 228.501
L297.459 228.096
L298.656 227.098
L300.04 226.368
L300.384 226.272
L302.112 225.341
L302.911 224.64
L303.84 223.589
L304.381 222.912
L305.233 221.184
L305.568 219.816
L305.708 219.456
L306.135 217.728
L306.217 216
L305.935 214.272
L305.568 213.316
L305.359 212.544
L304.459 210.816
L303.84 210.043
L303.045 209.088
L302.112 208.225
L300.774 207.36
L300.384 207.091
L298.656 206.273
L296.928 205.952
L295.2 205.918
L293.472 206.158
L291.744 206.816
L290.863 207.36
L290.016 207.783
L288.464 209.088
L288.288 209.268
L286.925 210.816
L286.56 211.579
L286 212.544
L285.527 214.272
L285.372 216
L285.414 217.728
L285.806 219.456
L286.45 221.184
L286.56 221.384
L287.186 222.912
L288.288 224.479
L288.387 224.64
L289.553 226.368
L290.016 226.876
L290.877 228.096
L291.744 228.811" style="fill:none;stroke:#000000;"/>
    <path clip-path="url(#p23ab9b749c)" d="
M279.648 224.799
L281.376 225.535
L282.395 224.64
L282.436 222.912
L281.376 221.932
L279.648 222.701
L279.48 222.912
L279.5 224.64
L279.648 224.799" style="fill:none;stroke:#000000;"/>
    <path clip-path="url(#p23ab9b749c)" d="
M276.192 207.287
L276.839 205.632
L276.192 205.049
L275.281 205.632
L276.192 207.287" style="fill:none;stroke:#000000;"/>
   </g>
   <g id="LineCollection_7">
    <path clip-path="url(#p23ab9b749c)" d="
M293.472 227.035
L295.2 226.834
L295.536 226.368
L295.2 225.675
L293.472 225.428
L292.937 226.368
L293.472 227.035" style="fill:none;stroke:#000000;"/>
    <path clip-path="url(#p23ab9b749c)" d="
M293.472 223.019
L295.2 223.617
L296.928 223.604
L298.656 223.788
L300.384 223.315
L300.863 222.912
L302.091 221.184
L302.112 220.744
L302.485 219.456
L303.237 217.728
L303.449 216
L302.865 214.272
L302.112 213.12
L301.826 212.544
L300.491 210.816
L300.384 210.712
L298.656 209.371
L296.928 209.153
L295.2 209.199
L293.472 209.385
L291.744 210.235
L291.074 210.816
L290.016 212.229
L289.772 212.544
L288.962 214.272
L288.769 216
L289.067 217.728
L290.015 219.456
L290.016 219.458
L291.1 221.184
L291.744 221.906
L293.385 222.912
L293.472 223.019" style="fill:none;stroke:#000000;"/>
   </g>
   <g id="LineCollection_8">
    <path clip-path="url(#p23ab9b749c)" d="
M298.656 221.595
L300.384 221.783
L300.949 221.184
L300.384 220.294
L299.412 219.456
L300.384 218.559
L301.027 217.728
L301.981 216
L300.384 214.335
L300.019 214.272
L299.961 212.544
L298.656 211.17
L296.928 211.008
L295.2 211.379
L293.472 210.985
L291.832 212.544
L291.744 213.204
L291.123 214.272
L290.405 216
L291.161 217.728
L291.744 218.475
L292.83 219.456
L293.472 220.009
L295.2 220.612
L296.928 220.6
L297.961 221.184
L298.656 221.595" style="fill:none;stroke:#000000;"/>
   </g>
   <g id="LineCollection_9">
    <path clip-path="url(#p23ab9b749c)" d="
M293.472 218.005
L295.2 219.284
L296.928 218.246
L297.546 217.728
L298.401 216
L297.273 214.272
L296.928 213.497
L295.2 213.308
L294.26 212.544
L293.472 211.966
L292.863 212.544
L293.269 214.272
L291.96 216
L293.187 217.728
L293.472 218.005" style="fill:none;stroke:#000000;"/>
    <path clip-path="url(#p23ab9b749c)" d="
M300.384 216.99
L301.241 216
L300.384 215.106
L299.076 216
L300.384 216.99" style="fill:none;stroke:#000000;"/>
   </g>
   <g id="LineCollection_10">
    <path clip-path="url(#p23ab9b749c)" d="
M295.2 218.462
L296.062 217.728
L296.928 216
L295.2 214.272
L293.472 216
L294.361 217.728
L295.2 218.462" style="fill:none;stroke:#000000;"/>
   </g>
   <g id="LineCollection_11">
    <path clip-path="url(#p23ab9b749c)" d="
M295.2 217.728
L296.928 216
L295.2 214.272
L293.472 216
L295.2 217.728" style="fill:none;stroke:#000000;"/>
   </g>
   <g id="LineCollection_12">
    <path clip-path="url(#p23ab9b749c)" d="
M295.2 217.728
L296.928 216
L295.2 214.272
L293.472 216
L295.2 217.728" style="fill:none;stroke:#000000;"/>
   </g>
   <g id="LineCollection_13">
    <path clip-path="url(#p23ab9b749c)" d="
M295.2 217.728
L296.928 216
L295.2 214.272
L293.472 216
L295.2 217.728" style="fill:none;stroke:#000000;"/>
   </g>
   <g id="LineCollection_14">
    <path clip-path="url(#p23ab9b749c)" d="
M295.2 217.728
L296.928 216
L295.2 214.272
L293.472 216
L295.2 217.728" style="fill:none;stroke:#000000;"/>
   </g>
   <g id="LineCollection_15">
    <path clip-path="url(#p23ab9b749c)" d="
M295.2 217.728
L296.928 216
L295.2 214.272
L293.472 216
L295.2 217.728" style="fill:none;stroke:#000000;"/>
   </g>
   <g id="LineCollection_16">
    <path clip-path="url(#p23ab9b749c)" d="
M295.2 217.728
L296.928 216
L295.2 214.272
L293.472 216
L295.2 217.728" style="fill:none;stroke:#000000;"/>
   </g>
   <g id="LineCollection_17">
    <path clip-path="url(#p23ab9b749c)" d="
M295.2 217.728
L296.928 216
L295.2 214.272
L293.472 216
L295.2 217.728" style="fill:none;stroke:#000000;"/>
   </g>
   <g id="LineCollection_18">
    <path clip-path="url(#p23ab9b749c)" d="
M295.2 217.728
L296.928 216
L295.2 214.272
L293.472 216
L295.2 217.728" style="fill:none;stroke:#000000;"/>
   </g>
   <g id="LineCollection_19">
    <path clip-path="url(#p23ab9b749c)" d="
M295.2 217.728
L296.928 216
L295.2 214.272
L293.472 216
L295.2 217.728" style="fill:none;stroke:#000000;"/>
   </g>
   <g id="patch_4">
    <path d="
M122.4 43.2
L468 43.2
L468 43.2" style="fill:none;stroke:#000000;stroke-linecap:square;stroke-linejoin:miter;"/>
   </g>
   <g id="patch_5">
    <path d="
M468 388.8
L468 43.2
L468 43.2" style="fill:none;stroke:#000000;stroke-linecap:square;stroke-linejoin:miter;"/>
   </g>
   <g id="patch_6">
    <path d="
M122.4 388.8
L468 388.8
L468 388.8" style="fill:none;stroke:#000000;stroke-linecap:square;stroke-linejoin:miter;"/>
   </g>
   <g id="patch_7">
    <path d="
M122.4 388.8
L122.4 43.2
L122.4 43.2" style="fill:none;stroke:#000000;stroke-linecap:square;stroke-linejoin:miter;"/>
   </g>
   <g id="matplotlib.axis_1">
    <g id="xtick_1">
     <g id="line2d_1">
      <defs>
       <path d="
M0 0
L0 -4" id="mb1445623b5" style="stroke:#000000;stroke-width:0.5;"/>
      </defs>
      <g>
       <use style="stroke:#000000;stroke-width:0.5;" x="122.4" xlink:href="#mb1445623b5" y="388.8"/>
      </g>
     </g>
     <g id="line2d_2">
      <defs>
       <path d="
M0 0
L0 4" id="m3a68111ca7" style="stroke:#000000;stroke-width:0.5;"/>
      </defs>
      <g>
       <use style="stroke:#000000;stroke-width:0.5;" x="122.4" xlink:href="#m3a68111ca7" y="43.2"/>
      </g>
     </g>
     <g id="text_1">
      <!-- 1.5 -->
      <defs>
       <path d="
M10.5938 35.5
L73.1875 35.5
L73.1875 27.2031
L10.5938 27.2031
z
" id="BitstreamVeraSans-Roman-2212"/>
       <path d="
M12.4062 8.29688
L28.5156 8.29688
L28.5156 63.9219
L10.9844 60.4062
L10.9844 69.3906
L28.4219 72.9062
L38.2812 72.9062
L38.2812 8.29688
L54.3906 8.29688
L54.3906 0
L12.4062 0
z
" id="BitstreamVeraSans-Roman-31"/>
       <path d="
M10.6875 12.4062
L21 12.4062
L21 0
L10.6875 0
z
" id="BitstreamVeraSans-Roman-2e"/>
       <path d="
M10.7969 72.9062
L49.5156 72.9062
L49.5156 64.5938
L19.8281 64.5938
L19.8281 46.7344
Q21.9688 47.4688 24.1094 47.8281
Q26.2656 48.1875 28.4219 48.1875
Q40.625 48.1875 47.75 41.5
Q54.8906 34.8125 54.8906 23.3906
Q54.8906 11.625 47.5625 5.09375
Q40.2344 -1.42188 26.9062 -1.42188
Q22.3125 -1.42188 17.5469 -0.640625
Q12.7969 0.140625 7.71875 1.70312
L7.71875 11.625
Q12.1094 9.23438 16.7969 8.0625
Q21.4844 6.89062 26.7031 6.89062
Q35.1562 6.89062 40.0781 11.3281
Q45.0156 15.7656 45.0156 23.3906
Q45.0156 31 40.0781 35.4375
Q35.1562 39.8906 26.7031 39.8906
Q22.75 39.8906 18.8125 39.0156
Q14.8906 38.1406 10.7969 36.2812
z
" id="BitstreamVeraSans-Roman-35"/>
      </defs>
      <g transform="translate(108.99 401.918125)scale(0.12 -0.12)">
       <use xlink:href="#BitstreamVeraSans-Roman-2212"/>
       <use x="83.7890625" xlink:href="#BitstreamVeraSans-Roman-31"/>
       <use x="147.412109375" xlink:href="#BitstreamVeraSans-Roman-2e"/>
       <use x="179.19921875" xlink:href="#BitstreamVeraSans-Roman-35"/>
      </g>
     </g>
    </g>
    <g id="xtick_2">
     <g id="line2d_3">
      <g>
       <use style="stroke:#000000;stroke-width:0.5;" x="180.0" xlink:href="#mb1445623b5" y="388.8"/>
      </g>
     </g>
     <g id="line2d_4">
      <g>
       <use style="stroke:#000000;stroke-width:0.5;" x="180.0" xlink:href="#m3a68111ca7" y="43.2"/>
      </g>
     </g>
     <g id="text_2">
      <!-- 1.0 -->
      <defs>
       <path d="
M31.7812 66.4062
Q24.1719 66.4062 20.3281 58.9062
Q16.5 51.4219 16.5 36.375
Q16.5 21.3906 20.3281 13.8906
Q24.1719 6.39062 31.7812 6.39062
Q39.4531 6.39062 43.2812 13.8906
Q47.125 21.3906 47.125 36.375
Q47.125 51.4219 43.2812 58.9062
Q39.4531 66.4062 31.7812 66.4062
M31.7812 74.2188
Q44.0469 74.2188 50.5156 64.5156
Q56.9844 54.8281 56.9844 36.375
Q56.9844 17.9688 50.5156 8.26562
Q44.0469 -1.42188 31.7812 -1.42188
Q19.5312 -1.42188 13.0625 8.26562
Q6.59375 17.9688 6.59375 36.375
Q6.59375 54.8281 13.0625 64.5156
Q19.5312 74.2188 31.7812 74.2188" id="BitstreamVeraSans-Roman-30"/>
      </defs>
      <g transform="translate(166.464375 401.918125)scale(0.12 -0.12)">
       <use xlink:href="#BitstreamVeraSans-Roman-2212"/>
       <use x="83.7890625" xlink:href="#BitstreamVeraSans-Roman-31"/>
       <use x="147.412109375" xlink:href="#BitstreamVeraSans-Roman-2e"/>
       <use x="179.19921875" xlink:href="#BitstreamVeraSans-Roman-30"/>
      </g>
     </g>
    </g>
    <g id="xtick_3">
     <g id="line2d_5">
      <g>
       <use style="stroke:#000000;stroke-width:0.5;" x="237.6" xlink:href="#mb1445623b5" y="388.8"/>
      </g>
     </g>
     <g id="line2d_6">
      <g>
       <use style="stroke:#000000;stroke-width:0.5;" x="237.6" xlink:href="#m3a68111ca7" y="43.2"/>
      </g>
     </g>
     <g id="text_3">
      <!-- 0.5 -->
      <g transform="translate(224.19 401.918125)scale(0.12 -0.12)">
       <use xlink:href="#BitstreamVeraSans-Roman-2212"/>
       <use x="83.7890625" xlink:href="#BitstreamVeraSans-Roman-30"/>
       <use x="147.412109375" xlink:href="#BitstreamVeraSans-Roman-2e"/>
       <use x="179.19921875" xlink:href="#BitstreamVeraSans-Roman-35"/>
      </g>
     </g>
    </g>
    <g id="xtick_4">
     <g id="line2d_7">
      <g>
       <use style="stroke:#000000;stroke-width:0.5;" x="295.2" xlink:href="#mb1445623b5" y="388.8"/>
      </g>
     </g>
     <g id="line2d_8">
      <g>
       <use style="stroke:#000000;stroke-width:0.5;" x="295.2" xlink:href="#m3a68111ca7" y="43.2"/>
      </g>
     </g>
     <g id="text_4">
      <!-- 0.0 -->
      <g transform="translate(286.4521875 401.918125)scale(0.12 -0.12)">
       <use xlink:href="#BitstreamVeraSans-Roman-30"/>
       <use x="63.623046875" xlink:href="#BitstreamVeraSans-Roman-2e"/>
       <use x="95.41015625" xlink:href="#BitstreamVeraSans-Roman-30"/>
      </g>
     </g>
    </g>
    <g id="xtick_5">
     <g id="line2d_9">
      <g>
       <use style="stroke:#000000;stroke-width:0.5;" x="352.8" xlink:href="#mb1445623b5" y="388.8"/>
      </g>
     </g>
     <g id="line2d_10">
      <g>
       <use style="stroke:#000000;stroke-width:0.5;" x="352.8" xlink:href="#m3a68111ca7" y="43.2"/>
      </g>
     </g>
     <g id="text_5">
      <!-- 0.5 -->
      <g transform="translate(344.1778125 401.918125)scale(0.12 -0.12)">
       <use xlink:href="#BitstreamVeraSans-Roman-30"/>
       <use x="63.623046875" xlink:href="#BitstreamVeraSans-Roman-2e"/>
       <use x="95.41015625" xlink:href="#BitstreamVeraSans-Roman-35"/>
      </g>
     </g>
    </g>
    <g id="xtick_6">
     <g id="line2d_11">
      <g>
       <use style="stroke:#000000;stroke-width:0.5;" x="410.4" xlink:href="#mb1445623b5" y="388.8"/>
      </g>
     </g>
     <g id="line2d_12">
      <g>
       <use style="stroke:#000000;stroke-width:0.5;" x="410.4" xlink:href="#m3a68111ca7" y="43.2"/>
      </g>
     </g>
     <g id="text_6">
      <!-- 1.0 -->
      <g transform="translate(401.915625 401.918125)scale(0.12 -0.12)">
       <use xlink:href="#BitstreamVeraSans-Roman-31"/>
       <use x="63.623046875" xlink:href="#BitstreamVeraSans-Roman-2e"/>
       <use x="95.41015625" xlink:href="#BitstreamVeraSans-Roman-30"/>
      </g>
     </g>
    </g>
    <g id="xtick_7">
     <g id="line2d_13">
      <g>
       <use style="stroke:#000000;stroke-width:0.5;" x="468.0" xlink:href="#mb1445623b5" y="388.8"/>
      </g>
     </g>
     <g id="line2d_14">
      <g>
       <use style="stroke:#000000;stroke-width:0.5;" x="468.0" xlink:href="#m3a68111ca7" y="43.2"/>
      </g>
     </g>
     <g id="text_7">
      <!-- 1.5 -->
      <g transform="translate(459.64125 401.918125)scale(0.12 -0.12)">
       <use xlink:href="#BitstreamVeraSans-Roman-31"/>
       <use x="63.623046875" xlink:href="#BitstreamVeraSans-Roman-2e"/>
       <use x="95.41015625" xlink:href="#BitstreamVeraSans-Roman-35"/>
      </g>
     </g>
    </g>
   </g>
   <g id="matplotlib.axis_2">
    <g id="ytick_1">
     <g id="line2d_15">
      <defs>
       <path d="
M0 0
L4 0" id="m71e820122c" style="stroke:#000000;stroke-width:0.5;"/>
      </defs>
      <g>
       <use style="stroke:#000000;stroke-width:0.5;" x="122.4" xlink:href="#m71e820122c" y="388.8"/>
      </g>
     </g>
     <g id="line2d_16">
      <defs>
       <path d="
M0 0
L-4 0" id="m81ec2b1422" style="stroke:#000000;stroke-width:0.5;"/>
      </defs>
      <g>
       <use style="stroke:#000000;stroke-width:0.5;" x="468.0" xlink:href="#m81ec2b1422" y="388.8"/>
      </g>
     </g>
     <g id="text_8">
      <!-- 1.5 -->
      <g transform="translate(91.58 392.11125)scale(0.12 -0.12)">
       <use xlink:href="#BitstreamVeraSans-Roman-2212"/>
       <use x="83.7890625" xlink:href="#BitstreamVeraSans-Roman-31"/>
       <use x="147.412109375" xlink:href="#BitstreamVeraSans-Roman-2e"/>
       <use x="179.19921875" xlink:href="#BitstreamVeraSans-Roman-35"/>
      </g>
     </g>
    </g>
    <g id="ytick_2">
     <g id="line2d_17">
      <g>
       <use style="stroke:#000000;stroke-width:0.5;" x="122.4" xlink:href="#m71e820122c" y="331.2"/>
      </g>
     </g>
     <g id="line2d_18">
      <g>
       <use style="stroke:#000000;stroke-width:0.5;" x="468.0" xlink:href="#m81ec2b1422" y="331.2"/>
      </g>
     </g>
     <g id="text_9">
      <!-- 1.0 -->
      <g transform="translate(91.32875 334.51125)scale(0.12 -0.12)">
       <use xlink:href="#BitstreamVeraSans-Roman-2212"/>
       <use x="83.7890625" xlink:href="#BitstreamVeraSans-Roman-31"/>
       <use x="147.412109375" xlink:href="#BitstreamVeraSans-Roman-2e"/>
       <use x="179.19921875" xlink:href="#BitstreamVeraSans-Roman-30"/>
      </g>
     </g>
    </g>
    <g id="ytick_3">
     <g id="line2d_19">
      <g>
       <use style="stroke:#000000;stroke-width:0.5;" x="122.4" xlink:href="#m71e820122c" y="273.6"/>
      </g>
     </g>
     <g id="line2d_20">
      <g>
       <use style="stroke:#000000;stroke-width:0.5;" x="468.0" xlink:href="#m81ec2b1422" y="273.6"/>
      </g>
     </g>
     <g id="text_10">
      <!-- 0.5 -->
      <g transform="translate(91.58 276.91125)scale(0.12 -0.12)">
       <use xlink:href="#BitstreamVeraSans-Roman-2212"/>
       <use x="83.7890625" xlink:href="#BitstreamVeraSans-Roman-30"/>
       <use x="147.412109375" xlink:href="#BitstreamVeraSans-Roman-2e"/>
       <use x="179.19921875" xlink:href="#BitstreamVeraSans-Roman-35"/>
      </g>
     </g>
    </g>
    <g id="ytick_4">
     <g id="line2d_21">
      <g>
       <use style="stroke:#000000;stroke-width:0.5;" x="122.4" xlink:href="#m71e820122c" y="216.0"/>
      </g>
     </g>
     <g id="line2d_22">
      <g>
       <use style="stroke:#000000;stroke-width:0.5;" x="468.0" xlink:href="#m81ec2b1422" y="216.0"/>
      </g>
     </g>
     <g id="text_11">
      <!-- 0.0 -->
      <g transform="translate(100.904375 219.31125)scale(0.12 -0.12)">
       <use xlink:href="#BitstreamVeraSans-Roman-30"/>
       <use x="63.623046875" xlink:href="#BitstreamVeraSans-Roman-2e"/>
       <use x="95.41015625" xlink:href="#BitstreamVeraSans-Roman-30"/>
      </g>
     </g>
    </g>
    <g id="ytick_5">
     <g id="line2d_23">
      <g>
       <use style="stroke:#000000;stroke-width:0.5;" x="122.4" xlink:href="#m71e820122c" y="158.4"/>
      </g>
     </g>
     <g id="line2d_24">
      <g>
       <use style="stroke:#000000;stroke-width:0.5;" x="468.0" xlink:href="#m81ec2b1422" y="158.4"/>
      </g>
     </g>
     <g id="text_12">
      <!-- 0.5 -->
      <g transform="translate(101.155625 161.71125)scale(0.12 -0.12)">
       <use xlink:href="#BitstreamVeraSans-Roman-30"/>
       <use x="63.623046875" xlink:href="#BitstreamVeraSans-Roman-2e"/>
       <use x="95.41015625" xlink:href="#BitstreamVeraSans-Roman-35"/>
      </g>
     </g>
    </g>
    <g id="ytick_6">
     <g id="line2d_25">
      <g>
       <use style="stroke:#000000;stroke-width:0.5;" x="122.4" xlink:href="#m71e820122c" y="100.8"/>
      </g>
     </g>
     <g id="line2d_26">
      <g>
       <use style="stroke:#000000;stroke-width:0.5;" x="468.0" xlink:href="#m81ec2b1422" y="100.8"/>
      </g>
     </g>
     <g id="text_13">
      <!-- 1.0 -->
      <g transform="translate(101.43125 104.11125)scale(0.12 -0.12)">
       <use xlink:href="#BitstreamVeraSans-Roman-31"/>
       <use x="63.623046875" xlink:href="#BitstreamVeraSans-Roman-2e"/>
       <use x="95.41015625" xlink:href="#BitstreamVeraSans-Roman-30"/>
      </g>
     </g>
    </g>
    <g id="ytick_7">
     <g id="line2d_27">
      <g>
       <use style="stroke:#000000;stroke-width:0.5;" x="122.4" xlink:href="#m71e820122c" y="43.2"/>
      </g>
     </g>
     <g id="line2d_28">
      <g>
       <use style="stroke:#000000;stroke-width:0.5;" x="468.0" xlink:href="#m81ec2b1422" y="43.2"/>
      </g>
     </g>
     <g id="text_14">
      <!-- 1.5 -->
      <g transform="translate(101.6825 46.51125)scale(0.12 -0.12)">
       <use xlink:href="#BitstreamVeraSans-Roman-31"/>
       <use x="63.623046875" xlink:href="#BitstreamVeraSans-Roman-2e"/>
       <use x="95.41015625" xlink:href="#BitstreamVeraSans-Roman-35"/>
      </g>
     </g>
    </g>
   </g>
  </g>
 </g>
 <defs>
  <clipPath id="p23ab9b749c">
   <rect height="345.6" width="345.6" x="122.4" y="43.2"/>
  </clipPath>
 </defs>
</svg>
