<?xml version="1.0" encoding="utf-8" standalone="no"?>
<!DOCTYPE svg PUBLIC "-//W3C//DTD SVG 1.1//EN"
  "http://www.w3.org/Graphics/SVG/1.1/DTD/svg11.dtd">
<!-- Created with matplotlib (http://matplotlib.org/) -->
<svg height="432pt" version="1.1" viewBox="0 0 576 432" width="576pt" xmlns="http://www.w3.org/2000/svg" xmlns:xlink="http://www.w3.org/1999/xlink">
 <defs>
  <style type="text/css">
*{stroke-linecap:butt;stroke-linejoin:round;}
  </style>
 </defs>
 <g id="figure_1">
  <g id="patch_1">
   <path d="
M0 432
L576 432
L576 0
L0 0
z
" style="fill:#ffffff;"/>
  </g>
  <g id="axes_1">
   <g id="patch_2">
    <path d="
M122.4 388.8
L468 388.8
L468 43.2
L122.4 43.2
z
" style="fill:#ffffff;"/>
   </g>
   <g id="patch_3">
    <path clip-path="url(#p23ab9b749c)" d="
M295.2 331.2
C325.751 331.2 355.056 319.062 376.659 297.459
C398.262 275.856 410.4 246.551 410.4 216
C410.4 185.449 398.262 156.144 376.659 134.541
C355.056 112.938 325.751 100.8 295.2 100.8
C264.649 100.8 235.344 112.938 213.741 134.541
C192.138 156.144 180 185.449 180 216
C180 246.551 192.138 275.856 213.741 297.459
C235.344 319.062 264.649 331.2 295.2 331.2
L295.2 331.2" style="fill:none;stroke:#000000;stroke-dasharray:6.000000,6.000000;stroke-dashoffset:0.0;stroke-linejoin:miter;"/>
   </g>
   <g id="LineCollection_1">
    <path clip-path="url(#p23ab9b749c)" d="
M284.832 326.672
L284.989 326.592
L285.481 324.864
L286.56 323.296
L287.604 324.864
L288.288 325.547
L289.399 324.864
L290.016 323.433
L291.744 324.192
L293.472 325.505
L295.234 326.592
L296.39 324.864
L296.928 324.547
L297.365 324.864
L298.656 327.091
L298.956 326.592
L299.632 324.864
L300.384 324.349
L302.112 325.449
L303.84 326.318
L305.568 325.588
L307.296 325.267
L309.024 324.127
L310.752 325.367
L312.48 323.964
L314.208 321.705
L315.458 323.136
L315.936 324.477
L316.779 323.136
L317.664 322.557
L318.424 323.136
L319.392 324.818
L321.659 323.136
L322.848 322.243
L324.576 322.415
L325.162 321.408
L324.576 321.135
L323.689 319.68
L324.29 317.952
L324.576 317.785
L326.304 317.306
L326.991 316.224
L328.032 315.739
L328.658 316.224
L328.554 317.952
L328.776 319.68
L329.494 321.408
L329.76 321.666
L330.114 321.408
L330.375 319.68
L331.488 317.16
L333.228 316.224
L334.944 314.92
L336.672 315.223
L338.4 314.486
L341.856 313.926
L343.584 313.925
L344.261 312.768
L343.584 311.522
L342.804 311.04
L343.584 310.758
L345.312 311.01
L346.861 309.312
L347.562 307.584
L348.768 306.974
L349.569 307.584
L348.922 309.312
L350.558 311.04
L351.606 309.312
L352.224 307.39
L353.939 305.856
L352.946 304.128
L353.43 302.4
L353.952 302.004
L354.476 302.4
L354.777 304.128
L355.68 305.513
L357.408 304.942
L358.715 304.128
L359.136 302.593
L360.864 303.453
L363.149 302.4
L362.571 300.672
L362.634 298.944
L364.437 297.216
L366.048 296.504
L367.189 295.488
L366.673 293.76
L367.776 292.853
L369.504 293.422
L370.973 292.032
L371.395 292.032
L372.96 292.287
L373.178 292.032
L375.39 288.576
L375.891 286.848
L376.416 286.312
L377.121 285.12
L376.416 283.291
L377.708 281.664
L377.658 279.936
L378.144 277.573
L378.313 278.208
L379.872 279.297
L381.6 279.02
L383.328 279.341
L385.056 277.468
L385.864 278.208
L386.784 278.662
L387.085 278.208
L387.978 276.48
L386.784 275.98
L385.056 275.933
L383.328 275.62
L382.463 274.752
L383.328 274.226
L385.056 272.439
L386.784 273.472
L387.756 273.024
L388.512 272.525
L389.653 271.296
L388.451 269.568
L387.468 267.84
L386.157 266.112
L386.784 263.446
L387.118 264.384
L388.512 265.59
L390.24 265.009
L391.18 264.384
L391.576 262.656
L390.24 261.313
L389.557 260.928
L390.24 260.417
L391.968 259.982
L392.736 259.2
L391.968 258.186
L391.007 257.472
L391.968 256.735
L392.53 255.744
L391.35 254.016
L391.968 252.651
L392.732 254.016
L393.696 254.718
L394.835 254.016
L395.32 252.288
L395.145 250.56
L395.424 250.529
L397.152 249.317
L398.451 252.288
L398.88 252.638
L400.608 253.411
L401.615 254.016
L402.336 254.777
L402.866 254.016
L402.336 253.367
L401.661 252.288
L402.336 251.682
L404.064 251.324
L404.584 250.56
L405.792 249.848
L406.898 248.832
L407.52 247.236
L408.64 248.832
L408.128 250.56
L409.248 251.484
L409.946 250.56
L409.726 248.832
L410.976 248.078
L411.821 247.104
L412.704 245.345
L412.767 245.376
L414.432 246.58
L414.949 247.104
L415.511 248.832
L414.967 250.56
L416.16 250.972
L416.474 250.56
L417.888 249.02
L419.489 250.56
L419.616 250.841
L419.761 250.56
L421.541 248.832
L421.344 248.524
L419.616 248.312
L417.888 247.571
L417.753 247.104
L417.888 246.987
L419.616 246.263
L421.344 246.086
L423.072 247.365
L424.8 247.304
L425.06 247.104
L425.375 245.376
L426.243 243.648
L426.124 241.92
L426.528 241.535
L428.256 240.757
L429.984 240.012
L431.712 240.74
L433.44 240.768
L433.598 240.192
L435.24 238.464
L436.199 236.736
L436.896 236.452
L437.673 235.008
L436.896 234.33
L436.433 233.28
L436.896 232.745
L438.316 233.28
L438.624 233.652
L438.952 233.28
L439.775 231.552
L440.894 229.824
L442.248 226.368
L443.144 224.64
L443.892 221.184
L444.867 219.456
L446.047 217.728
L446.002 214.272
L446.464 212.544
L447.264 211.448
L448.678 210.816
L447.783 209.088
L445.536 207.667
L445.338 207.36
L445.309 205.632
L445.536 205.321
L447.264 204.722
L448.744 205.632
L448.992 207.459
L449.065 207.36
L449.17 202.176
L449.758 200.448
L448.992 198.519
L447.796 196.992
L447.634 195.264
L448.992 193.612
L449.415 193.536
L448.992 191.757
L447.264 189.668
L445.536 189.383
L444.639 190.08
L444.266 191.808
L443.808 192.122
L443.557 191.808
L443.07 188.352
L443.024 186.624
L443.808 185.629
L445.536 187.215
L445.973 186.624
L445.935 184.896
L445.536 184.469
L443.808 184.189
L442.08 185.513
L439.942 183.168
L442.08 180.503
L443.808 182.012
L445.536 181.701
L445.753 181.44
L440.352 175.416
L438.624 175.117
L437.057 176.256
L436.896 177.035
L436.228 176.256
L435.185 174.528
L436.896 174.155
L437.988 172.8
L437.741 169.344
L436.896 168.395
L435.168 169.645
L433.632 169.344
L434.763 167.616
L433.44 166.115
L432.937 165.888
L433.44 165.57
L435.168 165.08
L435.961 164.16
L435.168 163.245
L433.44 163.017
L431.712 161.095
L430.179 160.704
L431.712 160.116
L432.603 158.976
L430.876 157.248
L429.984 156.247
L428.256 157.014
L427.408 155.52
L428.256 155.091
L429.004 153.792
L428.256 152.963
L426.645 153.792
L426.528 154.095
L426.138 152.064
L424.8 150.59
L424.018 150.336
L422.738 148.608
L423.072 148.382
L423.788 146.88
L423.072 146.485
L421.344 146.836
L417.888 142.815
L415.155 139.968
L414.432 139.476
L414.036 138.24
L414.683 136.512
L414.432 136.167
L412.704 136.783
L412.474 136.512
L410.976 135.048
L408.911 134.784
L409.248 134.686
L410.465 133.056
L410.208 131.328
L409.248 130.315
L407.52 129.942
L407.21 129.6
L406.783 126.144
L407.925 124.416
L408.259 122.688
L402.336 121.447
L400.192 119.232
L400.608 118.548
L402.336 118.033
L402.692 117.504
L402.549 115.776
L402.336 115.734
L400.657 114.048
L400.608 113.799
L398.88 112.176
L397.783 115.776
L397.152 116.153
L394.986 115.776
L395.023 114.048
L393.696 112.746
L391.968 112.467
L391.812 112.32
L393.696 109.198
L394.896 108.864
L393.696 108.658
L391.968 107.048
L390.24 108.097
L388.512 106.509
L386.784 106.257
L381.862 101.952
L381.6 101.113
L379.872 101.508
L378.308 100.224
L378.144 99.7378
L376.416 99.8919
L374.688 99.7108
L372.96 98.3549
L371.232 97.5783
L370.684 98.496
L371.847 100.224
L371.232 100.579
L369.504 100.374
L369.297 100.224
L367.776 98.8492
L366.048 98.4063
L364.32 97.3188
L362.592 95.8273
L360.864 95.3895
L357.408 93.7414
L353.952 92.3599
L350.496 91.2289
L347.04 90.3009
L341.856 89.2715
L338.4 88.791
L336.672 89.511
L334.944 88.4509
L331.488 88.2185
L330.826 89.856
L329.76 90.5877
L328.651 89.856
L328.032 88.4992
L326.304 87.8639
L324.576 88.0154
L322.848 86.8034
L319.392 86.0247
L317.664 86.1807
L315.936 86.172
L314.208 85.3503
L310.752 85.2288
L307.296 85.3507
L305.568 85.5015
L305.159 86.4
L303.84 87.3207
L302.319 86.4
L302.112 85.9865
L300.35 86.4
L298.102 88.128
L297.361 89.856
L296.928 90.1833
L295.2 90.423
L293.472 89.471
L291.744 89.4285
L291.265 89.856
L290.016 91.4819
L288.288 90.7491
L286.56 91.1808
L284.47 91.584
L283.104 91.9913
L281.376 91.7112
L279.648 91.8627
L277.92 92.1651
L276.192 92.9558
L274.464 92.2883
L272.736 92.7192
L271.008 93.9789
L267.552 94.0883
L265.824 93.6318
L264.096 94.1422
L262.368 94.4354
L262.029 95.04
L260.64 96.0192
L258.912 95.9767
L257.184 96.2428
L255.456 96.9321
L253.728 96.9826
L250.272 97.7681
L248.544 98.406
L247.713 98.496
L247.363 100.224
L246.816 100.593
L245.858 100.224
L245.088 99.2828
L243.36 99.6157
L242.415 101.952
L241.632 102.548
L239.904 101.541
L238.176 101.26
L232.992 103.266
L228.428 105.408
L231.264 105.929
L232.016 107.136
L230.272 108.864
L229.536 109.401
L228.725 108.864
L227.808 105.717
L226.08 107.068
L225.234 107.136
L222.39 108.864
L220.896 109.837
L220.788 110.592
L219.168 112.147
L217.44 112.352
L215.311 114.048
L215.712 114.127
L216.834 115.776
L215.712 116.868
L214.119 115.776
L213.984 115.171
L213.3 115.776
L212.854 117.504
L213.984 117.872
L215.004 119.232
L213.984 120.246
L212.318 119.232
L212.256 118.876
L210.411 119.232
L208.8 120.852
L208.382 120.96
L207.964 122.688
L207.072 123.197
L205.344 124.38
L205.049 124.416
L204.579 126.144
L203.616 127.225
L202.354 127.872
L201.888 128.517
L201.783 129.6
L200.12 131.328
L200.16 131.781
L200.46 133.056
L201.888 133.736
L202.84 134.784
L200.889 136.512
L199.341 138.24
L199.517 139.968
L198.432 141.822
L198.076 143.424
L196.113 146.88
L196.704 147.472
L197.308 148.608
L196.704 149.63
L194.976 149.12
L194.162 150.336
L193.248 151.325
L191.52 150.349
L189.915 152.064
L191.399 153.792
L189.792 155.019
L188.191 153.792
L188.064 153.349
L187.409 153.792
L187.335 155.52
L188.064 156.402
L188.495 157.248
L188.064 157.917
L186.336 156.933
L186.258 157.248
L186.228 160.704
L184.569 162.432
L183.601 164.16
L184.608 164.685
L185.466 165.888
L184.608 167.119
L183.24 167.616
L183.797 169.344
L181.152 171.354
L180.278 172.8
L181.152 173.423
L181.709 174.528
L181.152 175.263
L179.424 175.617
L179.315 176.256
L179.424 177.269
L181.152 177.174
L182.88 178.542
L183.449 179.712
L182.88 181.169
L182.059 179.712
L181.152 178.624
L179.424 178.132
L178.983 179.712
L178.862 181.44
L178.985 183.168
L178.789 184.896
L179.424 185.245
L180.284 186.624
L179.424 187.793
L177.696 187.18
L176.427 188.352
L177.792 190.08
L177.696 190.203
L176.787 191.808
L177.696 192.151
L179.424 192.089
L180.485 193.536
L179.424 194.597
L175.206 195.264
L175.968 195.462
L177.126 196.992
L176.737 198.72
L177.696 199.364
L178.544 200.448
L177.696 201.707
L176.156 200.448
L175.968 200.096
L175.337 200.448
L175.178 202.176
L175.865 203.904
L175.756 205.632
L174.745 207.36
L174.24 209.091
L175.968 211.395
L177.696 211.375
L178.685 212.544
L177.696 213.805
L175.968 213.763
L174.366 214.272
L174.378 216
L175.457 217.728
L175.162 219.456
L174.406 221.184
L175.75 224.64
L175.25 226.368
L175.968 227.249
L176.469 228.096
L175.566 229.824
L175.657 231.552
L176.555 236.736
L177.696 238.671
L178.94 240.192
L178.979 241.92
L179.391 243.648
L179.148 245.376
L179.424 246.11
L179.479 245.376
L181.152 244.08
L182.88 244.994
L183.196 245.376
L182.88 245.886
L182.333 247.104
L182.519 248.832
L182.88 249.322
L183.993 248.832
L184.608 248.289
L186.336 248.142
L186.943 248.832
L186.336 249.624
L184.608 249.361
L184.035 250.56
L184.608 251.097
L186.336 253.046
L188.064 253.78
L189.706 254.016
L188.064 254.339
L186.336 256.927
L184.82 257.472
L185.539 259.2
L186.336 259.376
L186.571 259.2
L186.991 257.472
L188.064 256.84
L189.792 256.944
L190.224 257.472
L189.792 259.224
L190.687 260.928
L189.792 262.161
L187.417 262.656
L188.359 264.384
L189.792 264.655
L191.52 265.16
L192.371 266.112
L191.344 267.84
L191.52 269.462
L193.248 268.649
L194.976 268.687
L197.236 271.296
L196.704 272.222
L194.976 272.466
L194.431 273.024
L194.976 273.404
L196.704 274.899
L198.432 277.125
L200.16 277.302
L201.031 278.208
L200.16 279.619
L199.338 279.936
L200.16 280.152
L201.7 281.664
L202.012 283.392
L203.616 284.339
L205.344 283.756
L206.358 285.12
L207.113 286.848
L208.171 288.576
L208.8 289.213
L214.138 290.304
L213.023 292.032
L213.058 293.76
L213.984 294.508
L214.799 295.488
L215.712 296.019
L216.93 297.216
L217.44 298.677
L219.168 296.744
L220.896 297.52
L222.624 297.27
L223.264 298.944
L222.624 299.873
L221.833 300.672
L222.624 301.437
L223.521 300.672
L224.352 300.12
L226.08 299.747
L227.441 300.672
L226.08 301.542
L224.965 302.4
L226.08 303.447
L227.646 304.128
L226.08 305.458
L225.896 305.856
L226.08 306.19
L227.808 306.355
L229.464 305.856
L228.061 304.128
L229.536 303.511
L231.264 303.532
L231.901 304.128
L231.264 305.652
L229.92 305.856
L231.264 306.373
L231.808 305.856
L232.992 305.605
L234.72 305.402
L234.812 305.856
L237.457 309.312
L238.176 310.873
L239.16 309.312
L239.904 308.882
L241.632 309.023
L242.095 309.312
L242.182 311.04
L243.36 312.337
L245.088 310.656
L245.434 311.04
L247.445 312.768
L246.816 313.427
L245.218 314.496
L245.088 314.828
L244.762 316.224
L245.088 316.938
L245.88 316.224
L249.084 314.496
L250.272 313.035
L250.693 314.496
L250.748 316.224
L249.811 317.952
L252 320.114
L253.728 320.016
L254.117 319.68
L252.69 317.952
L253.728 317.006
L254.823 316.224
L255.456 315.619
L256.252 316.224
L255.497 317.952
L256.867 319.68
L256.963 321.408
L257.184 321.679
L258.912 321.405
L260.64 319.483
L260.914 319.68
L262.368 320.332
L263.443 321.408
L263.079 323.136
L264.096 324.004
L264.584 323.136
L265.043 321.408
L265.824 320.757
L267.552 322.135
L269.28 321.593
L269.497 321.408
L271.008 320.839
L271.609 321.408
L271.008 322.298
L270.249 323.136
L271.008 323.879
L272.736 322.638
L274.668 323.136
L276.192 324.218
L277.92 325.189
L279.648 325.905
L279.969 324.864
L281.376 323.94
L282.561 324.864
L283.104 326.345
L284.018 326.592
L284.832 326.672
L284.832 326.672" style="fill:none;stroke:#000000;"/>
    <path clip-path="url(#p23ab9b749c)" d="
M269.28 325.055
L269.379 324.864
L269.28 324.762
L269.189 324.864
L269.28 325.055" style="fill:none;stroke:#000000;"/>
    <path clip-path="url(#p23ab9b749c)" d="
M314.208 325.725
L315.413 324.864
L314.208 324.513
L313.705 324.864
L314.208 325.725" style="fill:none;stroke:#000000;"/>
    <path clip-path="url(#p23ab9b749c)" d="
M283.104 323.395
L282.957 323.136
L283.104 322.899
L283.241 323.136
L283.104 323.395" style="fill:none;stroke:#000000;"/>
    <path clip-path="url(#p23ab9b749c)" d="
M293.472 323.179
L293.442 323.136
L293.472 323.083
L295.2 322.664
L295.559 323.136
L295.2 323.733
L293.472 323.179" style="fill:none;stroke:#000000;"/>
    <path clip-path="url(#p23ab9b749c)" d="
M305.568 323.471
L305.39 323.136
L305.568 323.012
L305.82 323.136
L305.568 323.471" style="fill:none;stroke:#000000;"/>
    <path clip-path="url(#p23ab9b749c)" d="
M326.304 323.215
L326.584 323.136
L326.304 323.068
L326.131 323.136
L326.304 323.215" style="fill:none;stroke:#000000;"/>
    <path clip-path="url(#p23ab9b749c)" d="
M321.12 321.943
L320.758 321.408
L321.12 321.229
L321.429 321.408
L321.12 321.943" style="fill:none;stroke:#000000;"/>
    <path clip-path="url(#p23ab9b749c)" d="
M314.208 320.665
L313.967 319.68
L314.208 319.522
L314.424 319.68
L314.208 320.665" style="fill:none;stroke:#000000;"/>
    <path clip-path="url(#p23ab9b749c)" d="
M326.304 320.835
L327.729 319.68
L326.304 318.441
L325.57 319.68
L326.304 320.835" style="fill:none;stroke:#000000;"/>
    <path clip-path="url(#p23ab9b749c)" d="
M258.912 318.198
L258.733 317.952
L258.912 317.795
L259.113 317.952
L258.912 318.198" style="fill:none;stroke:#000000;"/>
    <path clip-path="url(#p23ab9b749c)" d="
M334.944 318.905
L335.343 317.952
L334.944 317.653
L334.156 317.952
L334.944 318.905" style="fill:none;stroke:#000000;"/>
    <path clip-path="url(#p23ab9b749c)" d="
M340.128 316.862
L340.513 316.224
L340.128 314.921
L339.531 316.224
L340.128 316.862" style="fill:none;stroke:#000000;"/>
    <path clip-path="url(#p23ab9b749c)" d="
M241.632 315.22
L242.011 314.496
L241.632 313.443
L240.758 314.496
L241.632 315.22" style="fill:none;stroke:#000000;"/>
    <path clip-path="url(#p23ab9b749c)" d="
M236.448 313.008
L236.644 312.768
L236.448 312.194
L236.208 312.768
L236.448 313.008" style="fill:none;stroke:#000000;"/>
    <path clip-path="url(#p23ab9b749c)" d="
M232.992 309.744
L233.473 309.312
L233.081 307.584
L232.992 307.171
L232.601 307.584
L232.276 309.312
L232.992 309.744" style="fill:none;stroke:#000000;"/>
    <path clip-path="url(#p23ab9b749c)" d="
M345.312 307.885
L344.876 307.584
L345.312 307.328
L346.034 307.584
L345.312 307.885" style="fill:none;stroke:#000000;"/>
    <path clip-path="url(#p23ab9b749c)" d="
M238.176 306.042
L238.082 305.856
L238.176 305.79
L238.286 305.856
L238.176 306.042" style="fill:none;stroke:#000000;"/>
    <path clip-path="url(#p23ab9b749c)" d="
M236.448 304.129
L236.442 304.128
L236.448 304.127
L236.449 304.128
L236.448 304.129" style="fill:none;stroke:#000000;"/>
    <path clip-path="url(#p23ab9b749c)" d="
M359.136 302.29
L358.574 300.672
L359.136 299.789
L359.712 300.672
L359.136 302.29" style="fill:none;stroke:#000000;"/>
    <path clip-path="url(#p23ab9b749c)" d="
M357.408 299.589
L356.709 298.944
L357.408 298.266
L358.382 298.944
L357.408 299.589" style="fill:none;stroke:#000000;"/>
    <path clip-path="url(#p23ab9b749c)" d="
M367.776 298.521
L369.504 297.61
L370.384 297.216
L369.723 295.488
L369.504 293.985
L369.055 295.488
L367.776 296.8
L367.449 297.216
L367.776 298.521" style="fill:none;stroke:#000000;"/>
    <path clip-path="url(#p23ab9b749c)" d="
M374.688 294.119
L374.808 293.76
L374.688 293.639
L374.545 293.76
L374.688 294.119" style="fill:none;stroke:#000000;"/>
    <path clip-path="url(#p23ab9b749c)" d="
M210.528 293.417
L210.977 292.032
L210.528 291.553
L210.118 292.032
L210.528 293.417" style="fill:none;stroke:#000000;"/>
    <path clip-path="url(#p23ab9b749c)" d="
M217.44 291.028
L217.342 290.304
L217.44 290.193
L217.51 290.304
L217.44 291.028" style="fill:none;stroke:#000000;"/>
    <path clip-path="url(#p23ab9b749c)" d="
M376.416 290.338
L376.452 290.304
L376.416 290.222
L376.221 290.304
L376.416 290.338" style="fill:none;stroke:#000000;"/>
    <path clip-path="url(#p23ab9b749c)" d="
M367.776 288.722
L367.668 288.576
L367.776 288.081
L368.089 288.576
L367.776 288.722" style="fill:none;stroke:#000000;"/>
    <path clip-path="url(#p23ab9b749c)" d="
M210.528 287.104
L210.242 286.848
L208.8 285.421
L208.487 285.12
L208.8 284.95
L210.528 284.581
L211.014 285.12
L211.111 286.848
L210.528 287.104" style="fill:none;stroke:#000000;"/>
    <path clip-path="url(#p23ab9b749c)" d="
M372.96 287.396
L372.393 286.848
L371.55 285.12
L372.96 284.494
L373.55 285.12
L373.515 286.848
L372.96 287.396" style="fill:none;stroke:#000000;"/>
    <path clip-path="url(#p23ab9b749c)" d="
M378.144 287.01
L378.581 286.848
L378.144 286.698
L377.738 286.848
L378.144 287.01" style="fill:none;stroke:#000000;"/>
    <path clip-path="url(#p23ab9b749c)" d="
M369.504 285.135
L369.49 285.12
L369.504 285.112
L369.697 285.12
L369.504 285.135" style="fill:none;stroke:#000000;"/>
    <path clip-path="url(#p23ab9b749c)" d="
M379.872 286.045
L380.247 285.12
L379.872 284.497
L379.45 285.12
L379.872 286.045" style="fill:none;stroke:#000000;"/>
    <path clip-path="url(#p23ab9b749c)" d="
M208.8 281.863
L208.588 281.664
L208.8 281.539
L208.924 281.664
L208.8 281.863" style="fill:none;stroke:#000000;"/>
    <path clip-path="url(#p23ab9b749c)" d="
M374.688 281.725
L374.631 281.664
L374.688 281.597
L374.751 281.664
L374.688 281.725" style="fill:none;stroke:#000000;"/>
    <path clip-path="url(#p23ab9b749c)" d="
M381.6 282.148
L382.098 281.664
L381.6 280.452
L380.878 281.664
L381.6 282.148" style="fill:none;stroke:#000000;"/>
    <path clip-path="url(#p23ab9b749c)" d="
M379.872 275.323
L378.894 274.752
L379.821 273.024
L379.847 271.296
L379.872 271.277
L379.894 271.296
L380.528 273.024
L380.501 274.752
L379.872 275.323" style="fill:none;stroke:#000000;"/>
    <path clip-path="url(#p23ab9b749c)" d="
M198.432 274.12
L197.268 273.024
L198.432 272.259
L200.16 272.619
L200.636 273.024
L200.16 273.644
L198.432 274.12" style="fill:none;stroke:#000000;"/>
    <path clip-path="url(#p23ab9b749c)" d="
M393.696 273.15
L393.712 273.024
L393.696 273.01
L393.663 273.024
L393.696 273.15" style="fill:none;stroke:#000000;"/>
    <path clip-path="url(#p23ab9b749c)" d="
M193.248 271.465
L193.422 271.296
L193.248 271.094
L191.525 271.296
L193.248 271.465" style="fill:none;stroke:#000000;"/>
    <path clip-path="url(#p23ab9b749c)" d="
M386.784 271.484
L386.723 271.296
L386.784 271.233
L386.888 271.296
L386.784 271.484" style="fill:none;stroke:#000000;"/>
    <path clip-path="url(#p23ab9b749c)" d="
M391.968 270.788
L392.459 269.568
L392.766 267.84
L391.968 266.495
L390.24 267.627
L390.024 267.84
L390.24 268.321
L390.861 269.568
L391.968 270.788" style="fill:none;stroke:#000000;"/>
    <path clip-path="url(#p23ab9b749c)" d="
M385.056 268.398
L383.779 267.84
L385.056 267.263
L385.875 267.84
L385.056 268.398" style="fill:none;stroke:#000000;"/>
    <path clip-path="url(#p23ab9b749c)" d="
M383.328 266.944
L383.236 266.112
L383.328 265.666
L383.572 266.112
L383.328 266.944" style="fill:none;stroke:#000000;"/>
    <path clip-path="url(#p23ab9b749c)" d="
M193.248 264.776
L192.78 264.384
L193.248 264.073
L193.548 264.384
L193.248 264.776" style="fill:none;stroke:#000000;"/>
    <path clip-path="url(#p23ab9b749c)" d="
M198.432 264.486
L198.115 264.384
L198.432 264.316
L199.029 264.384
L198.432 264.486" style="fill:none;stroke:#000000;"/>
    <path clip-path="url(#p23ab9b749c)" d="
M196.704 263.074
L196.501 262.656
L196.704 262.561
L196.799 262.656
L196.704 263.074" style="fill:none;stroke:#000000;"/>
    <path clip-path="url(#p23ab9b749c)" d="
M393.696 262.093
L394.109 260.928
L393.696 260.314
L393.069 260.928
L393.696 262.093" style="fill:none;stroke:#000000;"/>
    <path clip-path="url(#p23ab9b749c)" d="
M402.336 261.156
L402.487 260.928
L402.336 260.652
L402.123 260.928
L402.336 261.156" style="fill:none;stroke:#000000;"/>
    <path clip-path="url(#p23ab9b749c)" d="
M193.248 259.684
L192.91 259.2
L193.248 258.57
L194.976 258.938
L195.22 259.2
L194.976 259.519
L193.248 259.684" style="fill:none;stroke:#000000;"/>
    <path clip-path="url(#p23ab9b749c)" d="
M395.424 259.878
L397.152 259.837
L398.796 259.2
L397.152 258.133
L396.544 257.472
L396.084 255.744
L395.424 254.951
L395.025 255.744
L394.408 257.472
L394.506 259.2
L395.424 259.878" style="fill:none;stroke:#000000;"/>
    <path clip-path="url(#p23ab9b749c)" d="
M388.512 259.152
L388.098 257.472
L388.512 256.418
L389.448 257.472
L388.512 259.152" style="fill:none;stroke:#000000;"/>
    <path clip-path="url(#p23ab9b749c)" d="
M402.336 258.117
L402.859 257.472
L402.336 256.708
L401.742 257.472
L402.336 258.117" style="fill:none;stroke:#000000;"/>
    <path clip-path="url(#p23ab9b749c)" d="
M184.608 257.154
L184.992 255.744
L184.827 254.016
L184.608 253.827
L184.309 254.016
L183.607 255.744
L184.608 257.154" style="fill:none;stroke:#000000;"/>
    <path clip-path="url(#p23ab9b749c)" d="
M404.064 256.236
L404.537 255.744
L404.064 255.243
L403.336 255.744
L404.064 256.236" style="fill:none;stroke:#000000;"/>
    <path clip-path="url(#p23ab9b749c)" d="
M405.792 254.627
L406.457 254.016
L405.792 253.192
L405.148 254.016
L405.792 254.627" style="fill:none;stroke:#000000;"/>
    <path clip-path="url(#p23ab9b749c)" d="
M182.88 252.603
L183.079 252.288
L182.88 252.071
L182.664 252.288
L182.88 252.603" style="fill:none;stroke:#000000;"/>
    <path clip-path="url(#p23ab9b749c)" d="
M407.52 252.469
L407.719 252.288
L407.52 251.99
L407.268 252.288
L407.52 252.469" style="fill:none;stroke:#000000;"/>
    <path clip-path="url(#p23ab9b749c)" d="
M412.704 252.732
L413.548 252.288
L414.05 250.56
L412.949 248.832
L412.704 248.631
L412.443 248.832
L412.118 250.56
L412.223 252.288
L412.704 252.732" style="fill:none;stroke:#000000;"/>
    <path clip-path="url(#p23ab9b749c)" d="
M188.064 251.408
L187.154 250.56
L188.064 249.842
L189.792 250.332
L189.998 250.56
L189.792 250.835
L188.064 251.408" style="fill:none;stroke:#000000;"/>
    <path clip-path="url(#p23ab9b749c)" d="
M400.608 251.05
L400.217 250.56
L398.88 248.99
L398.256 248.832
L397.881 247.104
L398.88 246.474
L399.419 247.104
L400.608 248.393
L401.124 248.832
L401.04 250.56
L400.608 251.05" style="fill:none;stroke:#000000;"/>
    <path clip-path="url(#p23ab9b749c)" d="
M393.696 249.945
L393.557 248.832
L393.696 248.669
L393.951 248.832
L393.696 249.945" style="fill:none;stroke:#000000;"/>
    <path clip-path="url(#p23ab9b749c)" d="
M404.064 249.781
L403.633 248.832
L404.064 248.325
L404.529 248.832
L404.064 249.781" style="fill:none;stroke:#000000;"/>
    <path clip-path="url(#p23ab9b749c)" d="
M391.968 247.24
L391.447 247.104
L391.968 246.961
L392.128 247.104
L391.968 247.24" style="fill:none;stroke:#000000;"/>
    <path clip-path="url(#p23ab9b749c)" d="
M405.792 247.548
L405.307 247.104
L405.792 246.627
L407.315 247.104
L405.792 247.548" style="fill:none;stroke:#000000;"/>
    <path clip-path="url(#p23ab9b749c)" d="
M402.336 245.471
L402.279 245.376
L402.336 245.257
L402.569 245.376
L402.336 245.471" style="fill:none;stroke:#000000;"/>
    <path clip-path="url(#p23ab9b749c)" d="
M416.16 245.772
L415.759 245.376
L416.16 244.941
L416.51 245.376
L416.16 245.772" style="fill:none;stroke:#000000;"/>
    <path clip-path="url(#p23ab9b749c)" d="
M428.256 245.719
L428.656 245.376
L428.256 243.76
L428.171 245.376
L428.256 245.719" style="fill:none;stroke:#000000;"/>
    <path clip-path="url(#p23ab9b749c)" d="
M184.608 244.107
L184.064 243.648
L184.608 243.266
L184.955 243.648
L184.608 244.107" style="fill:none;stroke:#000000;"/>
    <path clip-path="url(#p23ab9b749c)" d="
M405.792 243.834
L405.674 243.648
L405.792 243.564
L407.52 243.52
L409.074 241.92
L409.248 241.801
L409.393 241.92
L409.592 243.648
L409.248 244.118
L407.52 244.474
L405.792 243.834" style="fill:none;stroke:#000000;"/>
    <path clip-path="url(#p23ab9b749c)" d="
M419.616 244.199
L419.211 243.648
L419.616 243.127
L420.12 243.648
L419.616 244.199" style="fill:none;stroke:#000000;"/>
    <path clip-path="url(#p23ab9b749c)" d="
M429.984 241.993
L430.057 241.92
L429.984 241.516
L429.954 241.92
L429.984 241.993" style="fill:none;stroke:#000000;"/>
    <path clip-path="url(#p23ab9b749c)" d="
M181.152 239.253
L180.178 238.464
L181.152 237.786
L182.88 238.3
L183.017 238.464
L182.88 238.66
L181.152 239.253" style="fill:none;stroke:#000000;"/>
    <path clip-path="url(#p23ab9b749c)" d="
M177.696 233.282
L177.677 233.28
L176.137 231.552
L177.696 230.476
L178.566 231.552
L177.697 233.28
L177.696 233.282" style="fill:none;stroke:#000000;"/>
    <path clip-path="url(#p23ab9b749c)" d="
M177.696 223.382
L176.924 222.912
L177.696 222.467
L178.041 222.912
L177.696 223.382" style="fill:none;stroke:#000000;"/>
    <path clip-path="url(#p23ab9b749c)" d="
M177.696 207.619
L177.314 207.36
L177.696 207.149
L177.834 207.36
L177.696 207.619" style="fill:none;stroke:#000000;"/>
    <path clip-path="url(#p23ab9b749c)" d="
M181.152 201.155
L180.334 200.448
L181.152 199.379
L181.753 200.448
L181.152 201.155" style="fill:none;stroke:#000000;"/>
    <path clip-path="url(#p23ab9b749c)" d="
M443.808 197.075
L443.745 196.992
L443.691 195.264
L443.808 195.102
L444.032 195.264
L445.536 196.331
L446.43 196.992
L445.536 197.629
L443.808 197.075" style="fill:none;stroke:#000000;"/>
    <path clip-path="url(#p23ab9b749c)" d="
M442.08 193.618
L442.014 193.536
L442.08 193.447
L442.194 193.536
L442.08 193.618" style="fill:none;stroke:#000000;"/>
    <path clip-path="url(#p23ab9b749c)" d="
M445.536 194.562
L444.663 193.536
L445.536 192.458
L446.822 193.536
L445.536 194.562" style="fill:none;stroke:#000000;"/>
    <path clip-path="url(#p23ab9b749c)" d="
M438.624 191.992
L438.562 191.808
L438.624 191.342
L438.717 191.808
L438.624 191.992" style="fill:none;stroke:#000000;"/>
    <path clip-path="url(#p23ab9b749c)" d="
M186.336 188.401
L186.209 188.352
L186.336 188.302
L186.377 188.352
L186.336 188.401" style="fill:none;stroke:#000000;"/>
    <path clip-path="url(#p23ab9b749c)" d="
M436.896 181.482
L436.775 181.44
L436.815 179.712
L436.896 178.949
L438.624 179.302
L440.352 178.992
L441.173 179.712
L440.352 180.322
L438.624 180.056
L436.953 181.44
L436.896 181.482" style="fill:none;stroke:#000000;"/>
    <path clip-path="url(#p23ab9b749c)" d="
M445.536 178.006
L445.65 177.984
L445.536 177.963
L445.511 177.984
L445.536 178.006" style="fill:none;stroke:#000000;"/>
    <path clip-path="url(#p23ab9b749c)" d="
M182.88 176.685
L182.575 176.256
L182.88 176.047
L183.003 176.256
L182.88 176.685" style="fill:none;stroke:#000000;"/>
    <path clip-path="url(#p23ab9b749c)" d="
M443.808 174.628
L444.249 174.528
L443.808 174.446
L443.706 174.528
L443.808 174.628" style="fill:none;stroke:#000000;"/>
    <path clip-path="url(#p23ab9b749c)" d="
M435.168 174.472
L434.675 172.8
L435.168 172.685
L435.297 172.8
L435.168 174.472" style="fill:none;stroke:#000000;"/>
    <path clip-path="url(#p23ab9b749c)" d="
M440.352 171.653
L440.744 171.072
L440.352 170.634
L439.786 171.072
L440.352 171.653" style="fill:none;stroke:#000000;"/>
    <path clip-path="url(#p23ab9b749c)" d="
M431.712 169.714
L431.612 169.344
L431.712 169.208
L433.081 169.344
L431.712 169.714" style="fill:none;stroke:#000000;"/>
    <path clip-path="url(#p23ab9b749c)" d="
M440.352 167.717
L440.806 167.616
L440.352 167.527
L440.202 167.616
L440.352 167.717" style="fill:none;stroke:#000000;"/>
    <path clip-path="url(#p23ab9b749c)" d="
M438.624 166.235
L438.84 165.888
L438.624 165.646
L438.293 165.888
L438.624 166.235" style="fill:none;stroke:#000000;"/>
    <path clip-path="url(#p23ab9b749c)" d="
M436.896 162.69
L437.696 162.432
L436.896 162.265
L436.57 162.432
L436.896 162.69" style="fill:none;stroke:#000000;"/>
    <path clip-path="url(#p23ab9b749c)" d="
M191.52 159.53
L190.852 158.976
L191.52 157.669
L191.915 158.976
L191.52 159.53" style="fill:none;stroke:#000000;"/>
    <path clip-path="url(#p23ab9b749c)" d="
M433.44 157.524
L434.137 157.248
L433.44 157.091
L433.188 157.248
L433.44 157.524" style="fill:none;stroke:#000000;"/>
    <path clip-path="url(#p23ab9b749c)" d="
M429.984 152.132
L430.171 152.064
L429.984 152.013
L429.903 152.064
L429.984 152.132" style="fill:none;stroke:#000000;"/>
    <path clip-path="url(#p23ab9b749c)" d="
M428.256 150.541
L428.388 150.336
L428.256 150.233
L428.011 150.336
L428.256 150.541" style="fill:none;stroke:#000000;"/>
    <path clip-path="url(#p23ab9b749c)" d="
M191.52 150.325
L193.248 149.168
L194.217 148.608
L193.809 146.88
L194.976 145.832
L196.035 145.152
L195.505 143.424
L194.976 142.034
L194.413 143.424
L193.248 144.737
L192.738 145.152
L191.52 146.596
L191.258 146.88
L189.896 148.608
L191.52 150.325" style="fill:none;stroke:#000000;"/>
    <path clip-path="url(#p23ab9b749c)" d="
M196.704 142.34
L198.375 141.696
L197.154 139.968
L197.006 138.24
L196.721 136.512
L196.704 136.308
L196.576 136.512
L195.53 138.24
L195.679 139.968
L195.241 141.696
L196.704 142.34" style="fill:none;stroke:#000000;"/>
    <path clip-path="url(#p23ab9b749c)" d="
M201.888 138.493
L201.501 138.24
L201.888 137.898
L202.118 138.24
L201.888 138.493" style="fill:none;stroke:#000000;"/>
    <path clip-path="url(#p23ab9b749c)" d="
M205.344 138.517
L205.045 138.24
L205.344 137.965
L205.55 138.24
L205.344 138.517" style="fill:none;stroke:#000000;"/>
    <path clip-path="url(#p23ab9b749c)" d="
M416.16 139.249
L416.401 138.24
L416.16 137.974
L415.406 138.24
L416.16 139.249" style="fill:none;stroke:#000000;"/>
    <path clip-path="url(#p23ab9b749c)" d="
M203.616 137.073
L202.862 136.512
L203.616 135.61
L204.14 136.512
L203.616 137.073" style="fill:none;stroke:#000000;"/>
    <path clip-path="url(#p23ab9b749c)" d="
M198.432 134.889
L200.16 134.937
L200.29 134.784
L200.16 134.138
L198.432 133.56
L197.638 134.784
L198.432 134.889" style="fill:none;stroke:#000000;"/>
    <path clip-path="url(#p23ab9b749c)" d="
M412.704 133.751
L414.432 133.162
L414.511 133.056
L414.432 132.53
L412.704 132.597
L411.927 133.056
L412.704 133.751" style="fill:none;stroke:#000000;"/>
    <path clip-path="url(#p23ab9b749c)" d="
M205.344 130.367
L204.224 129.6
L205.344 128.55
L206.002 127.872
L207.072 126.854
L207.786 127.872
L208.8 128.676
L209.529 129.6
L208.8 130.356
L207.072 130.187
L205.344 130.367" style="fill:none;stroke:#000000;"/>
    <path clip-path="url(#p23ab9b749c)" d="
M412.704 129.617
L412.717 129.6
L412.704 129.577
L412.685 129.6
L412.704 129.617" style="fill:none;stroke:#000000;"/>
    <path clip-path="url(#p23ab9b749c)" d="
M410.976 128.091
L411.234 127.872
L410.976 127.704
L410.729 127.872
L410.976 128.091" style="fill:none;stroke:#000000;"/>
    <path clip-path="url(#p23ab9b749c)" d="
M212.256 126.691
L211.531 126.144
L212.256 125.435
L212.791 126.144
L212.256 126.691" style="fill:none;stroke:#000000;"/>
    <path clip-path="url(#p23ab9b749c)" d="
M210.528 125.343
L209.326 124.416
L210.528 123.071
L211.439 124.416
L210.528 125.343" style="fill:none;stroke:#000000;"/>
    <path clip-path="url(#p23ab9b749c)" d="
M405.792 125.055
L405.197 124.416
L405.792 123.459
L406.845 124.416
L405.792 125.055" style="fill:none;stroke:#000000;"/>
    <path clip-path="url(#p23ab9b749c)" d="
M217.44 122.999
L216.918 122.688
L217.44 122.265
L217.752 122.688
L217.44 122.999" style="fill:none;stroke:#000000;"/>
    <path clip-path="url(#p23ab9b749c)" d="
M219.168 118.266
L218.173 117.504
L219.168 116.48
L220.896 116.515
L222.2 115.776
L222.624 115.321
L222.931 115.776
L223.16 117.504
L222.624 118.021
L220.896 118.267
L219.168 118.266" style="fill:none;stroke:#000000;"/>
    <path clip-path="url(#p23ab9b749c)" d="
M398.88 117.894
L398.494 117.504
L398.88 116.86
L399.53 117.504
L398.88 117.894" style="fill:none;stroke:#000000;"/>
    <path clip-path="url(#p23ab9b749c)" d="
M231.264 115.93
L231.064 115.776
L231.264 115.558
L231.431 115.776
L231.264 115.93" style="fill:none;stroke:#000000;"/>
    <path clip-path="url(#p23ab9b749c)" d="
M220.896 114.936
L219.696 114.048
L220.896 112.786
L221.824 114.048
L220.896 114.936" style="fill:none;stroke:#000000;"/>
    <path clip-path="url(#p23ab9b749c)" d="
M390.24 110.813
L388.752 110.592
L390.24 110.169
L390.615 110.592
L390.24 110.813" style="fill:none;stroke:#000000;"/>
    <path clip-path="url(#p23ab9b749c)" d="
M388.512 110.415
L388.155 108.864
L388.512 108.229
L389.056 108.864
L388.512 110.415" style="fill:none;stroke:#000000;"/>
    <path clip-path="url(#p23ab9b749c)" d="
M239.904 105.414
L239.895 105.408
L239.904 105.395
L239.911 105.408
L239.904 105.414" style="fill:none;stroke:#000000;"/>
    <path clip-path="url(#p23ab9b749c)" d="
M381.6 106.11
L381.404 105.408
L381.6 105.043
L381.88 105.408
L381.6 106.11" style="fill:none;stroke:#000000;"/>
    <path clip-path="url(#p23ab9b749c)" d="
M238.176 104.267
L237.211 103.68
L238.176 102.344
L238.906 103.68
L238.176 104.267" style="fill:none;stroke:#000000;"/>
    <path clip-path="url(#p23ab9b749c)" d="
M379.872 104.05
L379.421 103.68
L379.872 102.834
L380.5 103.68
L379.872 104.05" style="fill:none;stroke:#000000;"/>
    <path clip-path="url(#p23ab9b749c)" d="
M374.688 102.185
L374.388 101.952
L374.688 101.356
L376.416 100.928
L377.128 101.952
L376.416 103.592
L374.688 102.185" style="fill:none;stroke:#000000;"/>
    <path clip-path="url(#p23ab9b749c)" d="
M298.656 91.7551
L298.395 91.584
L298.656 91.2336
L298.869 91.584
L298.656 91.7551" style="fill:none;stroke:#000000;"/>
    <path clip-path="url(#p23ab9b749c)" d="
M333.216 92.021
L332.846 91.584
L333.216 91.1935
L333.424 91.584
L333.216 92.021" style="fill:none;stroke:#000000;"/>
    <path clip-path="url(#p23ab9b749c)" d="
M324.576 90.2724
L324.036 89.856
L324.576 88.2297
L325.314 89.856
L324.576 90.2724" style="fill:none;stroke:#000000;"/>
   </g>
   <g id="LineCollection_2">
    <path clip-path="url(#p23ab9b749c)" d="
M272.736 294.145
L274.464 294.344
L276.192 292.946
L277.92 294.511
L279.648 294.505
L281.376 294.098
L283.104 294.372
L284.832 294.27
L285.13 293.76
L286.56 292.861
L288.288 292.899
L290.016 291.578
L291.744 291.302
L293.472 291.786
L293.899 292.032
L293.403 293.76
L293.472 293.935
L296.928 293.991
L297.1 293.76
L298.656 292.927
L300.149 293.76
L300.384 294.078
L302.112 294.105
L303.84 293.923
L303.98 293.76
L305.568 292.675
L307.19 293.76
L307.296 294.012
L310.752 293.716
L311.982 292.032
L312.48 291.745
L313.131 292.032
L314.208 293.211
L315.936 292.339
L317.664 292.397
L318.847 292.032
L318.984 290.304
L319.392 290.031
L321.12 290.766
L322.848 290.626
L326.304 289.033
L326.545 288.576
L328.032 287.386
L329.76 287.084
L333.216 284.803
L333.55 283.392
L334.944 282.074
L336.672 281.879
L337.37 281.664
L340.128 279.389
L340.356 278.208
L341.856 276.743
L343.584 276.354
L345.335 274.752
L345.682 273.024
L348.768 270.065
L349.425 269.568
L350.496 268.498
L352.224 268.01
L352.384 267.84
L352.224 267.716
L351.631 266.112
L351.754 264.384
L352.224 263.147
L353.206 264.384
L353.952 266.135
L353.972 266.112
L356.906 262.656
L356.521 260.928
L357.408 259.957
L359.136 259.666
L359.136 259.111
L358.059 257.472
L359.136 256.304
L360.864 256.008
L361.687 255.744
L363.563 252.288
L362.996 250.56
L363.166 248.832
L364.32 247.487
L365.832 247.104
L364.811 245.376
L364.936 243.648
L367.87 240.192
L368.502 238.464
L366.048 237.798
L365.283 236.736
L365.336 235.008
L366.048 234.122
L367.776 235.371
L369.22 235.008
L369.504 233.278
L367.776 232.399
L367.264 231.552
L366.836 229.824
L368.272 228.096
L368.332 226.368
L368.726 224.64
L367.455 222.912
L367.011 221.184
L366.048 220.117
L365.201 219.456
L366.048 218.793
L367.776 218.36
L369.504 219.743
L370.669 219.456
L369.833 217.728
L369.795 216
L370.537 214.272
L369.504 213.914
L368.496 212.544
L369.504 211.093
L370.272 210.816
L369.726 209.088
L368.564 207.36
L369.585 205.632
L369.504 205.179
L367.776 204.708
L366.583 205.632
L366.048 206.567
L365.59 205.632
L365.45 203.904
L364.32 203.08
L363.538 202.176
L364.32 200.977
L366.048 201.961
L368.595 200.448
L367.776 200.105
L366.048 199.767
L365.197 198.72
L364.32 197.071
L364.129 196.992
L364.456 195.264
L364.32 195.22
L362.478 191.808
L362.592 189.88
L361.619 188.352
L360.864 187.443
L360.541 186.624
L360.864 186.056
L362.592 185.17
L363.5 184.896
L362.592 183.125
L362.518 183.168
L360.864 184.02
L360.148 183.168
L361.169 181.44
L361.092 179.712
L360.864 179.621
L360.753 179.712
L359.136 180.596
L358.374 179.712
L359.509 177.984
L359.136 177.556
L355.68 178.797
L355.251 177.984
L357.408 174.819
L357.648 174.528
L355.68 172.458
L354.337 172.8
L354.595 174.528
L354.254 176.256
L353.952 176.43
L353.224 176.256
L353.617 174.528
L353.952 172.502
L354.39 171.072
L355.256 169.344
L353.952 167.577
L352.385 165.888
L352.224 164.858
L350.496 165.318
L349.404 164.16
L349.151 162.432
L349.366 160.704
L348.256 158.976
L347.578 157.248
L347.04 156.832
L346.366 155.52
L345.887 153.792
L345.312 152.517
L343.584 153.41
L341.856 153.1
L341.125 153.792
L340.128 154.548
L339.394 153.792
L340.899 152.064
L341.856 150.905
L343.584 150.598
L345.312 148.551
L345.416 146.88
L347.04 145.385
L348.768 146.135
L349.34 146.88
L348.768 147.777
L347.708 148.608
L348.768 149.337
L349.569 150.336
L349.66 152.064
L350.496 152.457
L352.224 152.849
L353.106 153.792
L353.304 157.248
L352.224 158.76
L351.827 158.976
L352.224 159.298
L353.952 159.422
L354.276 158.976
L355.68 157.891
L359.136 157.966
L362.112 160.704
L362.592 164.172
L362.602 164.16
L364.32 162.706
L366.048 162.741
L367.717 164.16
L367.776 164.539
L367.823 164.16
L369.504 162.688
L371.203 164.16
L371.232 164.4
L371.283 164.16
L372.96 162.788
L374.688 162.914
L376.416 164.22
L378.598 167.616
L380.228 169.344
L381.6 170.442
L382.754 171.072
L385.056 171.788
L386.784 172.529
L387.091 172.8
L386.559 176.256
L386.604 177.984
L387.192 181.44
L387.823 183.168
L388.762 184.896
L390.24 186.683
L391.513 188.352
L390.24 189.997
L389.912 190.08
L389.797 191.808
L390.106 193.536
L390.084 195.264
L389.485 196.992
L389.471 198.72
L390.151 200.448
L390.24 202.283
L391.582 203.904
L390.398 205.632
L391.968 205.963
L393.696 204.783
L394.36 205.632
L394.394 207.36
L395.424 208.717
L396.135 209.088
L395.743 210.816
L395.858 212.544
L395.292 214.272
L395.424 214.604
L396.776 216
L397.152 216.614
L397.531 217.728
L399.78 221.184
L400.608 222.001
L402.336 223.359
L404.064 224.309
L405.792 224.94
L407.52 225.33
L409.248 225.452
L410.976 225.324
L412.704 224.922
L414.432 224.283
L416.667 222.912
L418.556 221.184
L419.812 219.456
L420.718 217.728
L421.344 215.336
L421.548 214.272
L421.61 212.544
L421.344 210.564
L421.091 209.088
L421.344 208.461
L422.046 207.36
L422.275 205.632
L422.333 203.904
L422.239 202.176
L422.002 200.448
L421.158 196.992
L420.618 195.264
L419.2 191.808
L417.888 189.404
L417.251 188.352
L416.16 188.002
L414.864 186.624
L414.432 184.987
L412.704 185.357
L412.197 184.896
L411.951 183.168
L411.065 181.44
L410.72 177.984
L410.347 176.256
L409.719 174.528
L408.832 172.8
L407.52 171.02
L405.792 169.326
L404.064 168.08
L402.336 167.215
L400.608 166.573
L398.88 166.17
L397.147 165.888
L397.152 165.88
L398.88 164.867
L399.036 164.16
L399.173 162.432
L399.068 160.704
L398.271 157.248
L397.152 155.16
L396.212 153.792
L395.424 152.963
L393.696 151.546
L391.968 150.607
L390.24 150.816
L389.212 150.336
L388.512 149.65
L386.784 150.119
L385.925 148.608
L385.487 146.88
L384.706 141.696
L384.308 139.968
L383.328 137.366
L382.98 136.512
L381.6 134.216
L380.755 133.056
L379.1 131.328
L378.144 130.499
L376.416 129.309
L374.688 128.375
L371.232 127.185
L369.504 126.857
L367.776 126.674
L364.32 126.63
L359.136 126.761
L357.408 127.198
L356.184 126.144
L355.68 124.388
L355.027 122.688
L353.923 120.96
L352.224 119.046
L350.135 117.504
L348.768 116.739
L347.04 116.131
L344.633 115.776
L343.584 115.695
L341.856 115.808
L340.128 116.107
L338.4 116.668
L336.672 117.546
L334.213 119.232
L332.406 120.96
L331.05 122.688
L330.058 124.416
L329.413 126.144
L326.28 131.328
L326.133 133.056
L324.576 134.694
L323.516 134.784
L322.848 135.436
L320.972 136.512
L319.392 137.004
L317.664 137.402
L317.542 138.24
L314.208 141.15
L310.752 141.29
L309.527 141.696
L310.264 143.424
L309.639 145.152
L309.528 146.88
L309.024 147.247
L307.296 145.868
L305.568 145.876
L304.613 145.152
L304.09 143.424
L303.84 143.188
L303.547 143.424
L302.99 145.152
L302.112 145.797
L300.384 145.744
L299.121 145.152
L300.587 143.424
L300.384 143.223
L298.656 143.035
L298.456 143.424
L296.928 144.436
L293.472 144.427
L291.744 143.072
L290.016 142.896
L288.288 143.602
L286.933 143.424
L288.288 142.475
L288.458 141.696
L288.288 141.205
L286.56 140.399
L284.693 141.696
L283.104 142.375
L282.323 141.696
L283.391 139.968
L284.832 138.326
L285.249 138.24
L284.832 137.941
L284.261 136.512
L284.832 135.841
L285.381 134.784
L286.56 133.259
L286.974 133.056
L287.602 131.328
L287.584 129.6
L287.992 126.144
L287.742 124.416
L287.241 122.688
L286.438 120.96
L285.356 119.232
L283.722 117.504
L283.104 116.997
L281.08 115.776
L279.648 115.128
L277.92 114.681
L276.192 114.514
L274.464 114.595
L272.736 114.947
L270.778 115.776
L269.28 116.618
L267.552 118.121
L266.564 119.232
L265.488 120.96
L264.723 122.688
L264.303 124.416
L264.125 126.144
L264.149 127.872
L264.383 129.6
L265.474 133.056
L265.824 133.251
L267.56 134.784
L267.552 134.79
L265.824 135.246
L264.096 135.524
L263.069 136.512
L262.368 137.01
L261.839 136.512
L261.376 134.784
L262.368 133.436
L263.618 133.056
L262.368 131.325
L258.912 130.636
L253.728 129.485
L250.272 128.979
L248.544 128.879
L246.816 128.893
L245.088 129.033
L242.238 129.6
L241.632 129.731
L239.904 130.264
L237.612 131.328
L236.448 131.942
L234.72 133.142
L232.808 134.784
L231.233 136.512
L229.536 138.932
L228.906 139.968
L227.808 142.474
L227.42 143.424
L226.879 145.152
L226.18 148.608
L225.434 153.792
L225.997 155.52
L224.655 157.248
L224.991 158.976
L224.352 159.95
L222.624 160.76
L219.168 161.776
L217.44 162.695
L215.278 164.16
L213.292 165.888
L211.77 167.616
L210.601 169.344
L210.777 171.072
L210.528 171.456
L208.947 172.8
L208.022 176.256
L207.813 177.984
L207.751 179.712
L207.826 181.44
L208.906 183.168
L208.504 184.896
L208.8 185.147
L209.816 186.624
L210.054 190.08
L210.528 191.199
L211.064 191.808
L211.574 193.536
L211.775 195.264
L211.216 196.992
L210.528 197.862
L209.504 198.72
L205.851 203.904
L204.793 205.632
L203.616 207.989
L203.132 209.088
L202.523 210.816
L201.888 213.767
L201.792 214.272
L201.611 216
L201.587 217.728
L201.888 220.428
L201.996 221.184
L202.396 222.912
L203.764 226.368
L205.344 229.141
L205.801 229.824
L207.145 231.552
L208.8 233.38
L210.792 235.008
L212.522 236.736
L213.984 237.562
L214.867 238.464
L215.346 240.192
L216.654 241.92
L220.71 243.648
L218.768 245.376
L219.168 246.178
L219.85 247.104
L220.14 248.832
L220.101 252.288
L220.471 254.016
L220.896 254.485
L221.616 255.744
L220.747 257.472
L221.77 260.928
L222.624 262.725
L223.532 264.384
L224.352 265.13
L225.142 266.112
L226.342 267.84
L227.808 269.157
L229.536 270.273
L231.264 271.374
L232.992 271.854
L236.448 273.281
L238.176 273.857
L239.904 274.057
L241.632 274.098
L242.387 274.752
L243.36 277.498
L245.088 277.103
L246.252 278.208
L246.447 279.936
L246.816 280.236
L248.544 280.408
L249.844 281.664
L250.272 283.133
L252.702 285.12
L255.456 287.164
L258.912 289.386
L262.368 291.175
L265.824 292.548
L267.552 292.53
L269.28 293.517
L271.008 292.985
L272.417 293.76
L272.736 294.145
L272.736 294.145" style="fill:none;stroke:#000000;"/>
    <path clip-path="url(#p23ab9b749c)" d="
M290.016 293.863
L290.108 293.76
L290.016 293.531
L289.855 293.76
L290.016 293.863" style="fill:none;stroke:#000000;"/>
    <path clip-path="url(#p23ab9b749c)" d="
M281.376 292.572
L281.204 292.032
L281.376 291.93
L282.413 292.032
L281.376 292.572" style="fill:none;stroke:#000000;"/>
    <path clip-path="url(#p23ab9b749c)" d="
M295.2 290.314
L295.195 290.304
L295.2 290.301
L295.205 290.304
L295.2 290.314" style="fill:none;stroke:#000000;"/>
    <path clip-path="url(#p23ab9b749c)" d="
M331.488 282.434
L331.047 281.664
L331.488 281.247
L332.19 281.664
L331.488 282.434" style="fill:none;stroke:#000000;"/>
    <path clip-path="url(#p23ab9b749c)" d="
M252 280.095
L251.848 279.936
L252 279.862
L252.074 279.936
L252 280.095" style="fill:none;stroke:#000000;"/>
    <path clip-path="url(#p23ab9b749c)" d="
M334.944 281.102
L334.22 279.936
L334.944 279.237
L336.045 279.936
L334.944 281.102" style="fill:none;stroke:#000000;"/>
    <path clip-path="url(#p23ab9b749c)" d="
M250.272 278.577
L249.916 278.208
L250.272 278.013
L250.466 278.208
L250.272 278.577" style="fill:none;stroke:#000000;"/>
    <path clip-path="url(#p23ab9b749c)" d="
M348.768 267.964
L348.725 267.84
L348.768 267.681
L348.892 267.84
L348.768 267.964" style="fill:none;stroke:#000000;"/>
    <path clip-path="url(#p23ab9b749c)" d="
M355.68 259.321
L355.628 259.2
L355.68 259.143
L355.825 259.2
L355.68 259.321" style="fill:none;stroke:#000000;"/>
    <path clip-path="url(#p23ab9b749c)" d="
M359.136 254.253
L359.026 254.016
L359.136 253.885
L359.455 254.016
L359.136 254.253" style="fill:none;stroke:#000000;"/>
    <path clip-path="url(#p23ab9b749c)" d="
M362.592 228.216
L362.552 228.096
L362.592 227.992
L362.662 228.096
L362.592 228.216" style="fill:none;stroke:#000000;"/>
    <path clip-path="url(#p23ab9b749c)" d="
M366.048 226.872
L365.684 226.368
L366.048 225.886
L366.761 226.368
L366.048 226.872" style="fill:none;stroke:#000000;"/>
    <path clip-path="url(#p23ab9b749c)" d="
M362.592 224.708
L362.548 224.64
L362.592 224.608
L362.636 224.64
L362.592 224.708" style="fill:none;stroke:#000000;"/>
    <path clip-path="url(#p23ab9b749c)" d="
M393.696 211.261
L394.504 210.816
L393.696 210.376
L392.507 210.816
L393.696 211.261" style="fill:none;stroke:#000000;"/>
    <path clip-path="url(#p23ab9b749c)" d="
M391.968 192.848
L390.412 191.808
L391.968 190.714
L392.749 191.808
L391.968 192.848" style="fill:none;stroke:#000000;"/>
    <path clip-path="url(#p23ab9b749c)" d="
M350.496 169.739
L350.123 169.344
L350.496 168.737
L352.224 168.602
L353.117 169.344
L352.224 169.749
L350.496 169.739" style="fill:none;stroke:#000000;"/>
    <path clip-path="url(#p23ab9b749c)" d="
M347.04 166.422
L345.327 165.888
L345.312 165.843
L345.105 164.16
L345.312 163.835
L345.655 164.16
L347.04 165.14
L347.825 165.888
L347.04 166.422" style="fill:none;stroke:#000000;"/>
    <path clip-path="url(#p23ab9b749c)" d="
M357.408 162.561
L357.502 162.432
L357.408 162.33
L357.265 162.432
L357.408 162.561" style="fill:none;stroke:#000000;"/>
    <path clip-path="url(#p23ab9b749c)" d="
M359.136 161.124
L359.492 160.704
L359.136 160.331
L358.69 160.704
L359.136 161.124" style="fill:none;stroke:#000000;"/>
    <path clip-path="url(#p23ab9b749c)" d="
M364.32 162.068
L363.16 160.704
L364.32 159.788
L365.409 160.704
L364.32 162.068" style="fill:none;stroke:#000000;"/>
    <path clip-path="url(#p23ab9b749c)" d="
M340.128 159.148
L339.955 158.976
L339.552 157.248
L340.128 156.498
L340.906 157.248
L340.383 158.976
L340.128 159.148" style="fill:none;stroke:#000000;"/>
    <path clip-path="url(#p23ab9b749c)" d="
M227.808 157.73
L226.942 157.248
L227.808 156.702
L228.171 157.248
L227.808 157.73" style="fill:none;stroke:#000000;"/>
    <path clip-path="url(#p23ab9b749c)" d="
M376.416 158.465
L376.287 157.248
L376.416 157.139
L376.567 157.248
L376.416 158.465" style="fill:none;stroke:#000000;"/>
    <path clip-path="url(#p23ab9b749c)" d="
M355.68 156.669
L354.536 155.52
L355.68 154.627
L356.577 155.52
L355.68 156.669" style="fill:none;stroke:#000000;"/>
    <path clip-path="url(#p23ab9b749c)" d="
M348.768 154.187
L348.877 153.792
L348.768 153.487
L347.869 153.792
L348.768 154.187" style="fill:none;stroke:#000000;"/>
    <path clip-path="url(#p23ab9b749c)" d="
M229.536 152.764
L228.552 152.064
L229.536 151.375
L230.045 152.064
L229.536 152.764" style="fill:none;stroke:#000000;"/>
    <path clip-path="url(#p23ab9b749c)" d="
M336.672 150.672
L336.34 150.336
L336.672 149.943
L337.099 150.336
L336.672 150.672" style="fill:none;stroke:#000000;"/>
    <path clip-path="url(#p23ab9b749c)" d="
M347.04 150.475
L347.112 150.336
L347.04 150.187
L347.011 150.336
L347.04 150.475" style="fill:none;stroke:#000000;"/>
    <path clip-path="url(#p23ab9b749c)" d="
M298.656 147.228
L298.43 146.88
L298.656 146.296
L298.81 146.88
L298.656 147.228" style="fill:none;stroke:#000000;"/>
    <path clip-path="url(#p23ab9b749c)" d="
M352.224 147.675
L351.297 146.88
L352.224 146.169
L352.826 146.88
L352.224 147.675" style="fill:none;stroke:#000000;"/>
    <path clip-path="url(#p23ab9b749c)" d="
M284.832 146.005
L283.86 145.152
L284.832 144.39
L285.443 145.152
L284.832 146.005" style="fill:none;stroke:#000000;"/>
    <path clip-path="url(#p23ab9b749c)" d="
M343.584 146.546
L342.434 145.152
L343.584 144.054
L345.021 145.152
L343.584 146.546" style="fill:none;stroke:#000000;"/>
    <path clip-path="url(#p23ab9b749c)" d="
M350.496 145.854
L349.612 145.152
L350.496 144.524
L351.001 145.152
L350.496 145.854" style="fill:none;stroke:#000000;"/>
    <path clip-path="url(#p23ab9b749c)" d="
M307.296 143.974
L307.915 143.424
L307.296 143.068
L306.863 143.424
L307.296 143.974" style="fill:none;stroke:#000000;"/>
    <path clip-path="url(#p23ab9b749c)" d="
M321.12 144.23
L320.162 143.424
L321.12 142.321
L322.047 143.424
L321.12 144.23" style="fill:none;stroke:#000000;"/>
    <path clip-path="url(#p23ab9b749c)" d="
M352.224 144.024
L351.492 143.424
L352.224 142.855
L352.682 143.424
L352.224 144.024" style="fill:none;stroke:#000000;"/>
    <path clip-path="url(#p23ab9b749c)" d="
M272.736 142.163
L272.244 141.696
L272.736 141.053
L273.343 141.696
L272.736 142.163" style="fill:none;stroke:#000000;"/>
    <path clip-path="url(#p23ab9b749c)" d="
M279.648 142.055
L279.243 141.696
L279.648 141.021
L280.192 141.696
L279.648 142.055" style="fill:none;stroke:#000000;"/>
    <path clip-path="url(#p23ab9b749c)" d="
M274.464 140.237
L274.174 139.968
L274.464 139.294
L276.192 139.827
L276.354 139.968
L276.192 140.073
L274.464 140.237" style="fill:none;stroke:#000000;"/>
    <path clip-path="url(#p23ab9b749c)" d="
M352.224 140.238
L351.887 139.968
L352.224 139.704
L352.432 139.968
L352.224 140.238" style="fill:none;stroke:#000000;"/>
    <path clip-path="url(#p23ab9b749c)" d="
M271.008 138.323
L270.918 138.24
L271.008 138.112
L271.444 138.24
L271.008 138.323" style="fill:none;stroke:#000000;"/>
    <path clip-path="url(#p23ab9b749c)" d="
M307.296 134.875
L307.416 134.784
L309.024 134.3
L309.965 134.784
L310.752 135.649
L312.48 135.922
L314.208 135.939
L315.936 134.937
L316.281 134.784
L317.664 134.239
L319.392 133.439
L319.67 133.056
L321.12 132.041
L321.537 131.328
L321.12 130.759
L320.855 129.6
L321.12 129.327
L322.634 129.6
L322.848 129.745
L323.035 129.6
L324.005 127.872
L324.576 126.494
L324.757 126.144
L325.143 124.416
L325.493 122.688
L325.536 120.96
L325.362 119.232
L324.78 117.504
L324.576 116.591
L324.297 115.776
L323.377 114.048
L322.848 113.331
L322.078 112.32
L321.12 111.354
L320.212 110.592
L319.392 109.984
L317.664 109.039
L317.189 108.864
L315.936 108.355
L314.208 107.942
L312.48 107.788
L310.752 107.863
L309.024 108.18
L307.296 108.782
L307.123 108.864
L305.568 109.585
L304.096 110.592
L303.84 110.787
L302.196 112.32
L302.112 112.42
L300.804 114.048
L300.384 114.805
L299.794 115.776
L299.074 117.504
L298.656 119.146
L298.628 119.232
L298.321 120.96
L298.257 122.688
L298.441 124.416
L298.656 125.264
L298.858 126.144
L299.963 127.872
L300.384 129.323
L300.558 129.6
L301.945 131.328
L302.112 131.507
L303.84 133.01
L303.909 133.056
L305.568 133.508
L307.25 134.784
L307.296 134.875" style="fill:none;stroke:#000000;"/>
    <path clip-path="url(#p23ab9b749c)" d="
M355.68 134.969
L355.444 134.784
L355.68 134.543
L355.856 134.784
L355.68 134.969" style="fill:none;stroke:#000000;"/>
    <path clip-path="url(#p23ab9b749c)" d="
M357.408 130.074
L356.344 129.6
L357.408 128.625
L358.022 129.6
L357.408 130.074" style="fill:none;stroke:#000000;"/>
   </g>
   <g id="LineCollection_3">
    <path clip-path="url(#p23ab9b749c)" d="
M271.008 280.31
L272.736 280.968
L274.464 281.191
L276.192 281.067
L277.92 280.541
L279.648 279.565
L281.376 277.965
L282.528 276.48
L283.277 274.752
L283.104 274.396
L282.84 273.024
L283.104 272.252
L284.01 271.296
L283.975 269.568
L283.38 267.84
L282.202 266.112
L282.564 264.384
L281.747 262.656
L281.376 262.552
L279.936 260.928
L280.01 259.2
L281.174 255.744
L281.381 255.744
L282.063 257.472
L284.832 258.69
L285.486 259.2
L286.56 260.913
L288.288 259.801
L289.369 260.928
L288.822 262.656
L290.016 262.855
L291.744 263.53
L292.509 264.384
L292.254 266.112
L293.757 267.84
L298.34 273.024
L300.384 274.799
L302.909 276.48
L303.84 276.981
L305.568 277.679
L307.296 278.087
L309.024 278.284
L311.023 278.208
L312.48 278.017
L314.208 277.531
L316.261 276.48
L317.664 275.551
L318.607 274.752
L320.22 273.024
L321.4 271.296
L322.381 269.568
L324.576 264.348
L325.492 262.656
L326.758 260.928
L328.032 259.785
L328.851 259.2
L329.76 258.702
L330.395 257.472
L331.488 256.729
L333.216 257.252
L334.944 256.667
L338.4 255.235
L340.549 254.016
L341.856 253.192
L343.584 251.729
L345.312 249.797
L346.038 248.832
L347.04 247.022
L347.82 245.376
L348.358 243.648
L348.768 241.181
L348.906 240.192
L348.987 238.464
L348.777 235.008
L348.303 231.552
L347.04 230.963
L346.213 229.824
L347.04 228.449
L347.772 228.096
L347.04 226.068
L346.52 226.368
L345.312 226.914
L344.001 226.368
L345.312 224.109
L347.04 221.541
L347.293 221.184
L346.456 219.456
L347.04 218.501
L348.089 217.728
L347.711 216
L348.585 214.272
L348.138 212.544
L348.839 210.816
L348.768 210.675
L348.159 209.088
L347.874 207.36
L348.601 205.632
L348.003 203.904
L347.04 200.325
L346.34 198.72
L345.312 196.856
L343.584 196.249
L342.474 195.264
L342.447 193.536
L341.856 191.768
L340.406 190.08
L340.128 189.455
L335.112 183.168
L332.063 179.712
L329.76 177.482
L328.032 176.033
L325.946 174.528
L324.576 173.642
L321.12 171.887
L317.664 170.641
L315.936 170.16
L312.48 169.526
L309.024 169.174
L307.296 169.106
L306.761 169.344
L305.568 169.686
L304.43 169.344
L303.84 169.043
L302.112 169.927
L300.384 169.601
L298.656 169.827
L296.928 169.394
L295.061 169.344
L293.472 169.636
L291.744 169.367
L290.016 170.319
L288.288 169.845
L286.56 171.217
L286.198 171.072
L284.832 170.404
L283.104 170.793
L282.839 171.072
L281.376 171.885
L279.648 172.214
L277.92 172.39
L276.192 173.007
L274.464 174.036
L272.736 174.627
L269.976 176.256
L269.28 176.717
L267.552 178.393
L265.515 179.712
L263.723 181.44
L262.368 182.928
L261.915 184.896
L260.64 186.279
L259.54 186.624
L259.383 188.352
L258.912 189.366
L257.184 191.101
L257.002 191.808
L254.869 195.264
L253.999 196.992
L255.456 198.222
L255.651 198.72
L255.456 198.984
L253.728 199.045
L252.915 200.448
L253.296 202.176
L251.084 205.632
L251.28 207.36
L252 208.313
L252.168 209.088
L252 209.313
L250.272 210.64
L250.247 210.816
L250.117 212.544
L250.587 214.272
L250.001 216
L250.14 217.728
L250.101 219.456
L250.272 219.795
L250.511 219.456
L252 218.788
L252.431 219.456
L252 220.655
L251.307 221.184
L250.452 222.912
L251.49 224.64
L251.204 226.368
L251.917 228.096
L252 228.776
L252.366 229.824
L253.405 231.552
L253.923 233.28
L255.865 236.736
L257.184 238.557
L258.912 239.391
L259.621 240.192
L260.64 243.375
L260.864 243.648
L262.368 244.265
L263.43 245.376
L263.79 247.104
L264.096 247.474
L264.289 247.104
L265.824 246.458
L267.222 247.104
L267.552 247.628
L269.058 248.832
L266.855 250.56
L267.552 251.417
L269.28 251.275
L271.056 250.56
L272.1 254.016
L272.409 255.744
L271.366 257.472
L270.803 259.2
L267.348 264.384
L266.543 266.112
L265.998 267.84
L265.678 269.568
L265.579 271.296
L265.824 273.218
L266.153 274.752
L266.918 276.48
L268.185 278.208
L269.28 279.217
L271.008 280.31
L271.008 280.31" style="fill:none;stroke:#000000;"/>
    <path clip-path="url(#p23ab9b749c)" d="
M234.72 261.529
L236.448 262.256
L238.176 262.355
L239.904 261.854
L241.147 260.928
L241.632 260.346
L242.458 259.2
L242.941 257.472
L242.812 255.744
L241.936 254.016
L241.632 253.661
L239.904 252.356
L239.625 252.288
L238.176 251.836
L236.448 252.027
L235.95 252.288
L234.72 252.813
L233.451 254.016
L232.992 254.815
L232.498 255.744
L232.255 257.472
L232.753 259.2
L232.992 259.561
L234.001 260.928
L234.72 261.529" style="fill:none;stroke:#000000;"/>
    <path clip-path="url(#p23ab9b749c)" d="
M276.192 258.549
L275.062 257.472
L276.192 256.61
L277.92 256.784
L278.873 257.472
L277.92 258.552
L276.192 258.549" style="fill:none;stroke:#000000;"/>
    <path clip-path="url(#p23ab9b749c)" d="
M274.464 252.992
L273.849 252.288
L274.464 251.593
L275.205 252.288
L274.464 252.992" style="fill:none;stroke:#000000;"/>
    <path clip-path="url(#p23ab9b749c)" d="
M215.712 223.54
L217.44 223.918
L219.168 223.787
L220.896 223.106
L221.213 222.912
L222.624 221.775
L223.17 221.184
L224.025 219.456
L224.227 217.728
L223.981 216
L223.071 214.272
L222.624 213.793
L221.08 212.544
L220.896 212.429
L219.168 211.706
L217.44 211.553
L215.712 211.924
L214.67 212.544
L213.984 212.908
L212.671 214.272
L212.256 215.085
L211.777 216
L211.475 217.728
L211.779 219.456
L212.256 220.374
L212.666 221.184
L213.984 222.559
L214.649 222.912
L215.712 223.54" style="fill:none;stroke:#000000;"/>
    <path clip-path="url(#p23ab9b749c)" d="
M407.52 216.319
L409.248 217.3
L410.976 217.26
L412.704 216.099
L412.801 216
L413.886 214.272
L413.881 212.544
L412.85 210.816
L412.704 210.594
L411.685 209.088
L412.704 207.417
L412.737 207.36
L413.01 205.632
L412.704 204.778
L412.463 203.904
L410.976 202.297
L410.637 202.176
L409.248 201.413
L407.52 201.464
L406.546 202.176
L405.792 202.701
L404.92 203.904
L404.439 205.632
L404.667 207.36
L405.792 208.902
L405.981 209.088
L406.948 210.816
L406.129 212.544
L406.157 214.272
L407.19 216
L407.52 216.319" style="fill:none;stroke:#000000;"/>
    <path clip-path="url(#p23ab9b749c)" d="
M404.064 197.108
L405.792 197.991
L407.52 197.389
L407.857 196.992
L409.063 195.264
L409.153 193.536
L408.304 191.808
L407.52 191.11
L405.792 190.528
L404.064 191.101
L403.303 191.808
L402.477 193.536
L402.608 195.264
L403.96 196.992
L404.064 197.108" style="fill:none;stroke:#000000;"/>
    <path clip-path="url(#p23ab9b749c)" d="
M334.944 188.363
L334.934 188.352
L334.944 188.33
L334.97 188.352
L334.944 188.363" style="fill:none;stroke:#000000;"/>
    <path clip-path="url(#p23ab9b749c)" d="
M220.896 181.692
L222.624 182.509
L224.352 182.638
L226.08 182.198
L227.225 181.44
L227.808 180.949
L228.781 179.712
L229.325 177.984
L229.321 176.256
L228.786 174.528
L227.808 173.303
L227.312 172.8
L226.08 171.928
L224.352 171.418
L222.624 171.472
L220.896 172.167
L220.117 172.8
L219.168 173.93
L218.748 174.528
L218.174 176.256
L218.254 177.984
L219.013 179.712
L219.168 179.935
L220.595 181.44
L220.896 181.692" style="fill:none;stroke:#000000;"/>
    <path clip-path="url(#p23ab9b749c)" d="
M267.552 182.111
L266.776 181.44
L267.552 180.625
L267.926 181.44
L267.552 182.111" style="fill:none;stroke:#000000;"/>
    <path clip-path="url(#p23ab9b749c)" d="
M398.88 181.774
L400.423 181.44
L400.608 181.42
L402.289 179.712
L402.336 179.251
L402.592 177.984
L402.336 177.45
L401.84 176.256
L400.608 175.191
L398.88 174.889
L397.152 175.693
L396.583 176.256
L395.766 177.984
L396.053 179.712
L397.152 180.996
L398.201 181.44
L398.88 181.774" style="fill:none;stroke:#000000;"/>
    <path clip-path="url(#p23ab9b749c)" d="
M277.92 174.573
L277.788 174.528
L277.92 174.147
L277.984 174.528
L277.92 174.573" style="fill:none;stroke:#000000;"/>
    <path clip-path="url(#p23ab9b749c)" d="
M386.784 162.956
L388.512 163.266
L389.989 162.432
L390.24 162.273
L391.393 160.704
L391.382 158.976
L390.24 157.459
L389.914 157.248
L388.512 156.449
L386.784 156.746
L386.109 157.248
L385.056 158.702
L384.886 158.976
L384.893 160.704
L385.056 160.974
L386.1 162.432
L386.784 162.956" style="fill:none;stroke:#000000;"/>
    <path clip-path="url(#p23ab9b749c)" d="
M243.36 152.628
L245.088 152.886
L246.816 152.615
L247.944 152.064
L248.544 151.775
L250.043 150.336
L250.272 149.96
L251.018 148.608
L251.37 146.88
L251.231 145.152
L250.508 143.424
L250.272 143.109
L249.15 141.696
L248.544 141.2
L246.816 140.289
L245.088 140.021
L243.36 140.146
L241.632 140.812
L240.544 141.696
L239.904 142.433
L239.183 143.424
L238.596 145.152
L238.54 146.88
L238.951 148.608
L239.904 150.162
L240.035 150.336
L241.632 151.815
L242.235 152.064
L243.36 152.628" style="fill:none;stroke:#000000;"/>
    <path clip-path="url(#p23ab9b749c)" d="
M366.048 145.512
L367.776 146.522
L369.504 146.711
L371.232 146.346
L372.77 145.152
L372.96 144.941
L373.967 143.424
L374.268 141.696
L373.933 139.968
L372.96 138.575
L372.661 138.24
L371.232 137.158
L369.504 136.768
L367.776 136.964
L366.048 138.001
L365.784 138.24
L364.576 139.968
L364.322 141.696
L364.551 143.424
L365.672 145.152
L366.048 145.512" style="fill:none;stroke:#000000;"/>
    <path clip-path="url(#p23ab9b749c)" d="
M341.856 130.331
L343.584 131.118
L345.312 131.019
L347.04 129.755
L347.176 129.6
L348.081 127.872
L347.914 126.144
L347.04 124.902
L346.534 124.416
L345.312 123.587
L343.584 123.446
L341.856 124.408
L341.847 124.416
L340.489 126.144
L340.359 127.872
L341.125 129.6
L341.856 130.331" style="fill:none;stroke:#000000;"/>
    <path clip-path="url(#p23ab9b749c)" d="
M274.464 128.106
L276.192 128.334
L277.089 127.872
L277.92 127.466
L279.002 126.144
L279.278 124.416
L278.509 122.688
L277.92 122.095
L276.192 121.218
L274.464 121.372
L272.871 122.688
L272.736 123.004
L272.03 124.416
L272.376 126.144
L272.736 126.657
L274.119 127.872
L274.464 128.106" style="fill:none;stroke:#000000;"/>
    <path clip-path="url(#p23ab9b749c)" d="
M310.752 123.247
L312.48 123.674
L314.208 123.169
L314.824 122.688
L315.936 121.316
L316.16 120.96
L316.489 119.232
L315.936 117.876
L315.828 117.504
L314.208 115.965
L313.257 115.776
L312.48 115.534
L311.584 115.776
L310.752 115.913
L309.031 117.504
L309.024 117.526
L308.307 119.232
L308.623 120.96
L309.024 121.572
L310.005 122.688
L310.752 123.247" style="fill:none;stroke:#000000;"/>
   </g>
   <g id="LineCollection_4">
    <path clip-path="url(#p23ab9b749c)" d="
M272.736 275.466
L274.464 276.447
L276.192 276.059
L277.379 274.752
L277.39 273.024
L276.192 271.603
L274.673 271.296
L274.464 271.224
L274.328 271.296
L272.736 272.141
L272.095 273.024
L272.147 274.752
L272.736 275.466" style="fill:none;stroke:#000000;"/>
    <path clip-path="url(#p23ab9b749c)" d="
M309.024 271.869
L310.752 271.989
L312.097 271.296
L312.48 271.107
L313.836 269.568
L314.132 267.84
L313.814 266.112
L312.48 264.488
L312.267 264.384
L310.752 263.525
L309.024 263.557
L307.633 264.384
L307.296 264.6
L306.171 266.112
L305.863 267.84
L306.266 269.568
L307.296 270.775
L308.045 271.296
L309.024 271.869" style="fill:none;stroke:#000000;"/>
    <path clip-path="url(#p23ab9b749c)" d="
M236.448 258.814
L238.176 258.853
L239.362 257.472
L238.176 256.027
L236.448 256.07
L235.316 257.472
L236.448 258.814" style="fill:none;stroke:#000000;"/>
    <path clip-path="url(#p23ab9b749c)" d="
M334.944 247.342
L336.672 247.206
L336.885 247.104
L338.4 246.551
L339.629 245.376
L340.128 244.347
L340.51 243.648
L340.722 241.92
L340.192 240.192
L340.128 240.078
L339.033 238.464
L338.4 237.825
L336.672 236.951
L334.944 236.737
L333.216 236.934
L331.488 237.848
L330.827 238.464
L329.898 240.192
L329.76 241.79
L329.745 241.92
L329.76 241.969
L330.062 243.648
L331.187 245.376
L331.488 245.644
L333.216 246.87
L334.15 247.104
L334.944 247.342" style="fill:none;stroke:#000000;"/>
    <path clip-path="url(#p23ab9b749c)" d="
M288.288 242.236
L290.016 242.682
L291.744 243.029
L293.472 243.246
L295.2 243.342
L296.928 243.32
L298.656 243.172
L300.384 242.884
L302.112 242.429
L305.568 241.072
L307.296 240.064
L309.534 238.464
L310.752 237.869
L314.208 235.384
L315.936 233.86
L316.484 233.28
L317.664 231.465
L319.036 229.824
L319.212 228.096
L319.392 227.791
L320.713 226.368
L321.986 222.912
L322.395 221.184
L322.848 220.405
L323.797 219.456
L324.744 217.728
L326.304 216.584
L328.032 216.487
L333.216 215.738
L334.944 215.261
L336.683 214.272
L338.627 212.544
L339.702 210.816
L340.08 209.088
L340.059 207.36
L339.611 205.632
L338.361 203.904
L336.672 202.471
L335.859 202.176
L334.944 201.721
L333.216 201.476
L331.488 201.381
L329.76 201.656
L326.304 202.603
L324.576 202.404
L324.234 202.176
L322.05 200.448
L322.661 198.72
L323.051 195.264
L323.144 193.536
L323.09 191.808
L322.451 188.352
L321.7 186.624
L320.519 184.896
L319.392 183.765
L317.664 182.533
L315.936 181.797
L313.478 181.44
L312.48 181.369
L310.752 181.512
L309.024 181.827
L303.84 183.401
L302.112 183.635
L300.384 183.546
L298.624 183.168
L296.928 182.611
L295.2 182.198
L293.472 181.564
L291.641 181.44
L290.016 181.031
L286.56 181.564
L284.832 182.207
L283.104 183.283
L281.144 184.896
L279.577 186.624
L278.814 188.352
L277.359 190.08
L276.192 191.538
L275.78 191.808
L274.326 193.536
L271.008 196.632
L267.764 200.448
L267.552 200.958
L266.825 202.176
L265.458 203.904
L264.928 205.632
L264.629 207.36
L264.5 209.088
L264.505 210.816
L264.97 212.544
L264.869 214.272
L265.205 216
L265.824 218.422
L266.08 219.456
L267.552 223.015
L267.82 224.64
L269.417 228.096
L271.008 230.766
L271.537 231.552
L273.019 233.28
L274.837 235.008
L276.963 236.736
L277.92 237.735
L279.648 238.787
L281.376 239.863
L283.405 240.192
L284.832 241.078
L287.049 241.92
L288.288 242.236
L288.288 242.236" style="fill:none;stroke:#000000;"/>
    <path clip-path="url(#p23ab9b749c)" d="
M217.44 219.59
L217.634 219.456
L219.099 217.728
L217.696 216
L217.44 215.822
L216.984 216
L215.712 216.423
L214.806 217.728
L215.712 219.018
L217.093 219.456
L217.44 219.59" style="fill:none;stroke:#000000;"/>
    <path clip-path="url(#p23ab9b749c)" d="
M409.248 214.387
L410.976 214.276
L410.98 214.272
L410.976 214.242
L409.248 213.439
L409.132 214.272
L409.248 214.387" style="fill:none;stroke:#000000;"/>
    <path clip-path="url(#p23ab9b749c)" d="
M409.248 207.363
L409.252 207.36
L410.491 205.632
L409.248 204.398
L407.673 205.632
L409.242 207.36
L409.248 207.363" style="fill:none;stroke:#000000;"/>
    <path clip-path="url(#p23ab9b749c)" d="
M405.792 195.017
L407.072 193.536
L405.792 192.327
L404.508 193.536
L405.792 195.017" style="fill:none;stroke:#000000;"/>
    <path clip-path="url(#p23ab9b749c)" d="
M222.624 178.183
L224.352 178.066
L224.442 177.984
L225.495 176.256
L224.352 175
L222.624 174.875
L221.344 176.256
L222.408 177.984
L222.624 178.183" style="fill:none;stroke:#000000;"/>
    <path clip-path="url(#p23ab9b749c)" d="
M398.88 179.318
L400.206 177.984
L398.88 176.895
L397.789 177.984
L398.88 179.318" style="fill:none;stroke:#000000;"/>
    <path clip-path="url(#p23ab9b749c)" d="
M388.512 160.733
L388.543 160.704
L388.744 158.976
L388.512 158.76
L388.156 158.976
L388.462 160.704
L388.512 160.733" style="fill:none;stroke:#000000;"/>
    <path clip-path="url(#p23ab9b749c)" d="
M243.36 147.595
L245.088 147.995
L246.314 146.88
L246.58 145.152
L245.088 143.693
L243.36 144.041
L242.342 145.152
L242.676 146.88
L243.36 147.595" style="fill:none;stroke:#000000;"/>
    <path clip-path="url(#p23ab9b749c)" d="
M369.504 143.386
L371.193 141.696
L369.504 139.98
L367.788 141.696
L369.504 143.386" style="fill:none;stroke:#000000;"/>
    <path clip-path="url(#p23ab9b749c)" d="
M343.584 128.499
L345.038 127.872
L343.584 126.549
L342.961 127.872
L343.584 128.499" style="fill:none;stroke:#000000;"/>
    <path clip-path="url(#p23ab9b749c)" d="
M276.192 125.64
L277.208 124.416
L276.192 123.361
L274.652 124.416
L276.192 125.64" style="fill:none;stroke:#000000;"/>
    <path clip-path="url(#p23ab9b749c)" d="
M312.48 120.904
L314.119 119.232
L312.48 117.607
L310.83 119.232
L312.48 120.904" style="fill:none;stroke:#000000;"/>
   </g>
   <g id="LineCollection_5">
    <path clip-path="url(#p23ab9b749c)" d="
M309.024 268.138
L310.752 269.256
L311.791 267.84
L310.752 266.739
L309.024 267.632
L308.852 267.84
L309.024 268.138" style="fill:none;stroke:#000000;"/>
    <path clip-path="url(#p23ab9b749c)" d="
M334.944 243.877
L336.672 244.495
L337.568 243.648
L337.729 241.92
L336.672 240.853
L334.944 241.432
L334.486 241.92
L334.705 243.648
L334.944 243.877" style="fill:none;stroke:#000000;"/>
    <path clip-path="url(#p23ab9b749c)" d="
M288.288 233.372
L290.016 233.891
L291.744 234.437
L293.472 234.666
L295.2 234.5
L296.928 234.43
L298.656 233.913
L300.201 233.28
L300.384 233.205
L302.112 232.569
L303.84 231.641
L303.985 231.552
L305.568 230.417
L306.168 229.824
L307.296 228.952
L308.291 228.096
L309.024 227.196
L309.572 226.368
L310.752 224.984
L311.032 224.64
L311.382 222.912
L312.48 221.504
L312.737 221.184
L313.299 219.456
L313.633 217.728
L313.779 216
L313.75 214.272
L313.535 212.544
L313.086 210.816
L312.48 209.403
L312.363 209.088
L311.441 207.36
L310.752 206.444
L310.12 205.632
L309.024 204.532
L308.243 203.904
L307.296 203.222
L305.644 202.176
L305.568 202.103
L303.84 200.727
L303.102 200.448
L302.112 200.021
L300.384 199.594
L298.656 199.176
L296.946 198.72
L296.928 198.712
L295.2 198.097
L293.472 197.71
L292.26 198.72
L291.744 198.87
L290.574 198.72
L290.016 198.437
L289.717 198.72
L288.288 199.431
L287.307 200.448
L286.56 200.912
L284.832 202.039
L284.568 202.176
L283.104 203.013
L281.376 203.055
L279.648 202.663
L278.041 202.176
L277.92 202.142
L276.192 201.897
L275.269 202.176
L274.464 202.3
L272.736 203.543
L272.416 203.904
L271.479 205.632
L271.372 207.36
L271.82 209.088
L272.736 210.608
L272.9 210.816
L274.298 212.544
L274.464 212.776
L275.683 214.272
L276.192 215.131
L276.652 216
L276.69 217.728
L276.525 219.456
L276.192 220.517
L275.979 221.184
L275.697 222.912
L275.925 224.64
L276.192 225.214
L276.634 226.368
L277.92 227.88
L278.205 228.096
L279.648 229.167
L281.354 229.824
L281.376 229.835
L283.104 230.644
L284.808 231.552
L284.832 231.568
L286.56 232.618
L288.093 233.28
L288.288 233.372" style="fill:none;stroke:#000000;"/>
    <path clip-path="url(#p23ab9b749c)" d="
M217.44 218.154
L217.844 217.728
L217.44 217.3
L216.941 217.728
L217.44 218.154" style="fill:none;stroke:#000000;"/>
    <path clip-path="url(#p23ab9b749c)" d="
M333.216 209.966
L334.944 210.548
L336.541 209.088
L336.6 207.36
L334.944 205.807
L333.216 206.394
L332.287 207.36
L332.36 209.088
L333.216 209.966" style="fill:none;stroke:#000000;"/>
    <path clip-path="url(#p23ab9b749c)" d="
M288.288 194.753
L290.016 195.085
L291.744 194.73
L292.583 193.536
L293.337 191.808
L293.442 190.08
L293.108 188.352
L291.744 186.84
L291.31 186.624
L290.016 185.969
L288.288 186.271
L287.759 186.624
L286.56 187.779
L286.099 188.352
L285.657 190.08
L286.044 191.808
L286.56 192.839
L287.167 193.536
L288.288 194.753" style="fill:none;stroke:#000000;"/>
    <path clip-path="url(#p23ab9b749c)" d="
M312.48 192.887
L314.208 193.08
L315.936 192.099
L316.188 191.808
L317.232 190.08
L317.103 188.352
L315.936 186.989
L314.993 186.624
L314.208 186.246
L312.872 186.624
L312.48 186.698
L310.842 188.352
L310.752 189.207
L310.514 190.08
L310.752 190.716
L311.188 191.808
L312.48 192.887" style="fill:none;stroke:#000000;"/>
    <path clip-path="url(#p23ab9b749c)" d="
M369.504 142.914
L370.721 141.696
L369.504 140.46
L368.268 141.696
L369.504 142.914" style="fill:none;stroke:#000000;"/>
    <path clip-path="url(#p23ab9b749c)" d="
M312.48 120.267
L313.495 119.232
L312.48 118.226
L311.458 119.232
L312.48 120.267" style="fill:none;stroke:#000000;"/>
   </g>
   <g id="LineCollection_6">
    <path clip-path="url(#p23ab9b749c)" d="
M293.472 230.294
L295.2 230.218
L295.948 229.824
L296.928 229.273
L298.242 228.096
L298.656 227.772
L300.384 227.28
L301.998 226.368
L302.112 226.316
L303.84 224.886
L304.066 224.64
L305.474 222.912
L305.568 222.723
L306.503 221.184
L307.085 219.456
L307.296 218.178
L307.41 217.728
L307.526 216
L307.296 214.36
L307.288 214.272
L306.882 212.544
L306.037 210.816
L305.568 210.159
L304.815 209.088
L303.84 208.188
L302.86 207.36
L302.112 206.732
L300.384 205.852
L299.716 205.632
L298.656 205.175
L296.928 204.779
L295.2 204.699
L293.472 204.937
L291.744 205.439
L291.324 205.632
L290.016 206.073
L288.288 207.319
L288.241 207.36
L286.56 208.949
L286.43 209.088
L285.166 210.816
L284.832 211.673
L284.392 212.544
L283.932 214.272
L283.801 216
L283.912 217.728
L284.239 219.456
L284.784 221.184
L284.832 221.297
L285.423 222.912
L286.56 224.464
L286.682 224.64
L288.263 226.368
L288.288 226.391
L290.016 228.003
L290.083 228.096
L291.744 229.553
L292.433 229.824
L293.472 230.294" style="fill:none;stroke:#000000;"/>
    <path clip-path="url(#p23ab9b749c)" d="
M279.648 225.339
L281.376 225.887
L282.856 224.64
L282.859 222.912
L281.376 221.686
L279.648 222.281
L279.097 222.912
L279.011 224.64
L279.648 225.339" style="fill:none;stroke:#000000;"/>
    <path clip-path="url(#p23ab9b749c)" d="
M276.192 208.27
L277.218 207.36
L277.476 205.632
L276.192 204.476
L274.464 205.486
L274.332 205.632
L274.464 206.467
L274.66 207.36
L276.192 208.27" style="fill:none;stroke:#000000;"/>
    <path clip-path="url(#p23ab9b749c)" d="
M290.016 190.636
L290.571 190.08
L290.346 188.352
L290.016 188.059
L289.498 188.352
L289.141 190.08
L290.016 190.636" style="fill:none;stroke:#000000;"/>
    <path clip-path="url(#p23ab9b749c)" d="
M314.208 190.393
L314.555 190.08
L314.603 188.352
L314.208 188.014
L313.769 188.352
L313.814 190.08
L314.208 190.393" style="fill:none;stroke:#000000;"/>
   </g>
   <g id="LineCollection_7">
    <path clip-path="url(#p23ab9b749c)" d="
M293.472 227.65
L295.2 227.466
L295.887 226.368
L295.2 225.147
L293.472 224.932
L292.515 226.368
L293.472 227.65" style="fill:none;stroke:#000000;"/>
    <path clip-path="url(#p23ab9b749c)" d="
M291.744 222.941
L293.472 224.229
L295.2 224.201
L296.928 224.214
L298.656 224.266
L300.384 223.892
L301.541 222.912
L302.112 221.871
L302.57 221.184
L303.164 219.456
L303.771 217.728
L303.84 216.561
L303.927 216
L303.84 215.735
L303.576 214.272
L302.434 212.544
L302.112 212.113
L301.42 210.816
L300.384 209.781
L299.137 209.088
L298.656 208.786
L296.928 208.374
L295.2 208.398
L293.472 208.581
L292.22 209.088
L291.744 209.197
L290.016 210.441
L289.649 210.816
L288.535 212.544
L288.288 213.635
L288.039 214.272
L287.851 216
L288.123 217.728
L288.288 218.152
L288.638 219.456
L289.758 221.184
L290.016 221.493
L291.714 222.912
L291.744 222.941" style="fill:none;stroke:#000000;"/>
   </g>
   <g id="LineCollection_8">
    <path clip-path="url(#p23ab9b749c)" d="
M296.928 221.252
L298.656 222.138
L300.384 222.11
L301.243 221.184
L300.384 219.834
L299.883 219.456
L300.384 219.164
L301.678 217.728
L302.084 216
L300.624 214.272
L300.384 213.964
L300.17 212.544
L298.656 210.898
L297.436 210.816
L296.928 210.688
L296.529 210.816
L295.2 211.033
L293.472 210.84
L291.744 211.849
L291.115 212.544
L290.536 214.272
L290.117 216
L290.416 217.728
L291.744 219.305
L291.927 219.456
L293.472 220.793
L295.2 221.138
L296.413 221.184
L296.928 221.252" style="fill:none;stroke:#000000;"/>
   </g>
   <g id="LineCollection_9">
    <path clip-path="url(#p23ab9b749c)" d="
M293.472 218.556
L295.2 219.422
L296.928 218.874
L298.265 217.728
L298.656 216.018
L300.384 217.372
L301.571 216
L300.384 214.782
L298.656 215.988
L298.117 214.272
L298.656 212.79
L298.757 212.544
L298.656 212.434
L296.928 212.149
L296.279 212.544
L295.2 212.988
L294.798 212.544
L293.472 211.498
L292.358 212.544
L292.526 214.272
L291.744 215.423
L291.337 216
L291.744 216.655
L292.58 217.728
L293.472 218.556" style="fill:none;stroke:#000000;"/>
   </g>
   <g id="LineCollection_10">
    <path clip-path="url(#p23ab9b749c)" d="
M295.2 218.857
L296.483 217.728
L296.928 216.496
L297.306 216
L296.928 215.506
L295.2 214.272
L293.472 215.726
L293.238 216
L293.472 216.254
L293.973 217.728
L295.2 218.857" style="fill:none;stroke:#000000;"/>
   </g>
   <g id="LineCollection_11">
    <path clip-path="url(#p23ab9b749c)" d="
M295.2 217.728
L296.928 216
L295.2 214.272
L293.472 216
L295.2 217.728" style="fill:none;stroke:#000000;"/>
   </g>
   <g id="LineCollection_12">
    <path clip-path="url(#p23ab9b749c)" d="
M295.2 217.728
L296.928 216
L295.2 214.272
L293.472 216
L295.2 217.728" style="fill:none;stroke:#000000;"/>
   </g>
   <g id="LineCollection_13">
    <path clip-path="url(#p23ab9b749c)" d="
M295.2 217.728
L296.928 216
L295.2 214.272
L293.472 216
L295.2 217.728" style="fill:none;stroke:#000000;"/>
   </g>
   <g id="LineCollection_14">
    <path clip-path="url(#p23ab9b749c)" d="
M295.2 217.728
L296.928 216
L295.2 214.272
L293.472 216
L295.2 217.728" style="fill:none;stroke:#000000;"/>
   </g>
   <g id="LineCollection_15">
    <path clip-path="url(#p23ab9b749c)" d="
M295.2 217.728
L296.928 216
L295.2 214.272
L293.472 216
L295.2 217.728" style="fill:none;stroke:#000000;"/>
   </g>
   <g id="LineCollection_16">
    <path clip-path="url(#p23ab9b749c)" d="
M295.2 217.728
L296.928 216
L295.2 214.272
L293.472 216
L295.2 217.728" style="fill:none;stroke:#000000;"/>
   </g>
   <g id="LineCollection_17">
    <path clip-path="url(#p23ab9b749c)" d="
M295.2 217.728
L296.928 216
L295.2 214.272
L293.472 216
L295.2 217.728" style="fill:none;stroke:#000000;"/>
   </g>
   <g id="LineCollection_18">
    <path clip-path="url(#p23ab9b749c)" d="
M295.2 217.728
L296.928 216
L295.2 214.272
L293.472 216
L295.2 217.728" style="fill:none;stroke:#000000;"/>
   </g>
   <g id="LineCollection_19">
    <path clip-path="url(#p23ab9b749c)" d="
M295.2 217.728
L296.928 216
L295.2 214.272
L293.472 216
L295.2 217.728" style="fill:none;stroke:#000000;"/>
   </g>
   <g id="patch_4">
    <path d="
M122.4 43.2
L468 43.2
L468 43.2" style="fill:none;stroke:#000000;stroke-linecap:square;stroke-linejoin:miter;"/>
   </g>
   <g id="patch_5">
    <path d="
M468 388.8
L468 43.2
L468 43.2" style="fill:none;stroke:#000000;stroke-linecap:square;stroke-linejoin:miter;"/>
   </g>
   <g id="patch_6">
    <path d="
M122.4 388.8
L468 388.8
L468 388.8" style="fill:none;stroke:#000000;stroke-linecap:square;stroke-linejoin:miter;"/>
   </g>
   <g id="patch_7">
    <path d="
M122.4 388.8
L122.4 43.2
L122.4 43.2" style="fill:none;stroke:#000000;stroke-linecap:square;stroke-linejoin:miter;"/>
   </g>
   <g id="matplotlib.axis_1">
    <g id="xtick_1">
     <g id="line2d_1">
      <defs>
       <path d="
M0 0
L0 -4" id="mb1445623b5" style="stroke:#000000;stroke-width:0.5;"/>
      </defs>
      <g>
       <use style="stroke:#000000;stroke-width:0.5;" x="122.4" xlink:href="#mb1445623b5" y="388.8"/>
      </g>
     </g>
     <g id="line2d_2">
      <defs>
       <path d="
M0 0
L0 4" id="m3a68111ca7" style="stroke:#000000;stroke-width:0.5;"/>
      </defs>
      <g>
       <use style="stroke:#000000;stroke-width:0.5;" x="122.4" xlink:href="#m3a68111ca7" y="43.2"/>
      </g>
     </g>
     <g id="text_1">
      <!-- 1.5 -->
      <defs>
       <path d="
M10.5938 35.5
L73.1875 35.5
L73.1875 27.2031
L10.5938 27.2031
z
" id="BitstreamVeraSans-Roman-2212"/>
       <path d="
M12.4062 8.29688
L28.5156 8.29688
L28.5156 63.9219
L10.9844 60.4062
L10.9844 69.3906
L28.4219 72.9062
L38.2812 72.9062
L38.2812 8.29688
L54.3906 8.29688
L54.3906 0
L12.4062 0
z
" id="BitstreamVeraSans-Roman-31"/>
       <path d="
M10.6875 12.4062
L21 12.4062
L21 0
L10.6875 0
z
" id="BitstreamVeraSans-Roman-2e"/>
       <path d="
M10.7969 72.9062
L49.5156 72.9062
L49.5156 64.5938
L19.8281 64.5938
L19.8281 46.7344
Q21.9688 47.4688 24.1094 47.8281
Q26.2656 48.1875 28.4219 48.1875
Q40.625 48.1875 47.75 41.5
Q54.8906 34.8125 54.8906 23.3906
Q54.8906 11.625 47.5625 5.09375
Q40.2344 -1.42188 26.9062 -1.42188
Q22.3125 -1.42188 17.5469 -0.640625
Q12.7969 0.140625 7.71875 1.70312
L7.71875 11.625
Q12.1094 9.23438 16.7969 8.0625
Q21.4844 6.89062 26.7031 6.89062
Q35.1562 6.89062 40.0781 11.3281
Q45.0156 15.7656 45.0156 23.3906
Q45.0156 31 40.0781 35.4375
Q35.1562 39.8906 26.7031 39.8906
Q22.75 39.8906 18.8125 39.0156
Q14.8906 38.1406 10.7969 36.2812
z
" id="BitstreamVeraSans-Roman-35"/>
      </defs>
      <g transform="translate(108.99 401.918125)scale(0.12 -0.12)">
       <use xlink:href="#BitstreamVeraSans-Roman-2212"/>
       <use x="83.7890625" xlink:href="#BitstreamVeraSans-Roman-31"/>
       <use x="147.412109375" xlink:href="#BitstreamVeraSans-Roman-2e"/>
       <use x="179.19921875" xlink:href="#BitstreamVeraSans-Roman-35"/>
      </g>
     </g>
    </g>
    <g id="xtick_2">
     <g id="line2d_3">
      <g>
       <use style="stroke:#000000;stroke-width:0.5;" x="180.0" xlink:href="#mb1445623b5" y="388.8"/>
      </g>
     </g>
     <g id="line2d_4">
      <g>
       <use style="stroke:#000000;stroke-width:0.5;" x="180.0" xlink:href="#m3a68111ca7" y="43.2"/>
      </g>
     </g>
     <g id="text_2">
      <!-- 1.0 -->
      <defs>
       <path d="
M31.7812 66.4062
Q24.1719 66.4062 20.3281 58.9062
Q16.5 51.4219 16.5 36.375
Q16.5 21.3906 20.3281 13.8906
Q24.1719 6.39062 31.7812 6.39062
Q39.4531 6.39062 43.2812 13.8906
Q47.125 21.3906 47.125 36.375
Q47.125 51.4219 43.2812 58.9062
Q39.4531 66.4062 31.7812 66.4062
M31.7812 74.2188
Q44.0469 74.2188 50.5156 64.5156
Q56.9844 54.8281 56.9844 36.375
Q56.9844 17.9688 50.5156 8.26562
Q44.0469 -1.42188 31.7812 -1.42188
Q19.5312 -1.42188 13.0625 8.26562
Q6.59375 17.9688 6.59375 36.375
Q6.59375 54.8281 13.0625 64.5156
Q19.5312 74.2188 31.7812 74.2188" id="BitstreamVeraSans-Roman-30"/>
      </defs>
      <g transform="translate(166.464375 401.918125)scale(0.12 -0.12)">
       <use xlink:href="#BitstreamVeraSans-Roman-2212"/>
       <use x="83.7890625" xlink:href="#BitstreamVeraSans-Roman-31"/>
       <use x="147.412109375" xlink:href="#BitstreamVeraSans-Roman-2e"/>
       <use x="179.19921875" xlink:href="#BitstreamVeraSans-Roman-30"/>
      </g>
     </g>
    </g>
    <g id="xtick_3">
     <g id="line2d_5">
      <g>
       <use style="stroke:#000000;stroke-width:0.5;" x="237.6" xlink:href="#mb1445623b5" y="388.8"/>
      </g>
     </g>
     <g id="line2d_6">
      <g>
       <use style="stroke:#000000;stroke-width:0.5;" x="237.6" xlink:href="#m3a68111ca7" y="43.2"/>
      </g>
     </g>
     <g id="text_3">
      <!-- 0.5 -->
      <g transform="translate(224.19 401.918125)scale(0.12 -0.12)">
       <use xlink:href="#BitstreamVeraSans-Roman-2212"/>
       <use x="83.7890625" xlink:href="#BitstreamVeraSans-Roman-30"/>
       <use x="147.412109375" xlink:href="#BitstreamVeraSans-Roman-2e"/>
       <use x="179.19921875" xlink:href="#BitstreamVeraSans-Roman-35"/>
      </g>
     </g>
    </g>
    <g id="xtick_4">
     <g id="line2d_7">
      <g>
       <use style="stroke:#000000;stroke-width:0.5;" x="295.2" xlink:href="#mb1445623b5" y="388.8"/>
      </g>
     </g>
     <g id="line2d_8">
      <g>
       <use style="stroke:#000000;stroke-width:0.5;" x="295.2" xlink:href="#m3a68111ca7" y="43.2"/>
      </g>
     </g>
     <g id="text_4">
      <!-- 0.0 -->
      <g transform="translate(286.4521875 401.918125)scale(0.12 -0.12)">
       <use xlink:href="#BitstreamVeraSans-Roman-30"/>
       <use x="63.623046875" xlink:href="#BitstreamVeraSans-Roman-2e"/>
       <use x="95.41015625" xlink:href="#BitstreamVeraSans-Roman-30"/>
      </g>
     </g>
    </g>
    <g id="xtick_5">
     <g id="line2d_9">
      <g>
       <use style="stroke:#000000;stroke-width:0.5;" x="352.8" xlink:href="#mb1445623b5" y="388.8"/>
      </g>
     </g>
     <g id="line2d_10">
      <g>
       <use style="stroke:#000000;stroke-width:0.5;" x="352.8" xlink:href="#m3a68111ca7" y="43.2"/>
      </g>
     </g>
     <g id="text_5">
      <!-- 0.5 -->
      <g transform="translate(344.1778125 401.918125)scale(0.12 -0.12)">
       <use xlink:href="#BitstreamVeraSans-Roman-30"/>
       <use x="63.623046875" xlink:href="#BitstreamVeraSans-Roman-2e"/>
       <use x="95.41015625" xlink:href="#BitstreamVeraSans-Roman-35"/>
      </g>
     </g>
    </g>
    <g id="xtick_6">
     <g id="line2d_11">
      <g>
       <use style="stroke:#000000;stroke-width:0.5;" x="410.4" xlink:href="#mb1445623b5" y="388.8"/>
      </g>
     </g>
     <g id="line2d_12">
      <g>
       <use style="stroke:#000000;stroke-width:0.5;" x="410.4" xlink:href="#m3a68111ca7" y="43.2"/>
      </g>
     </g>
     <g id="text_6">
      <!-- 1.0 -->
      <g transform="translate(401.915625 401.918125)scale(0.12 -0.12)">
       <use xlink:href="#BitstreamVeraSans-Roman-31"/>
       <use x="63.623046875" xlink:href="#BitstreamVeraSans-Roman-2e"/>
       <use x="95.41015625" xlink:href="#BitstreamVeraSans-Roman-30"/>
      </g>
     </g>
    </g>
    <g id="xtick_7">
     <g id="line2d_13">
      <g>
       <use style="stroke:#000000;stroke-width:0.5;" x="468.0" xlink:href="#mb1445623b5" y="388.8"/>
      </g>
     </g>
     <g id="line2d_14">
      <g>
       <use style="stroke:#000000;stroke-width:0.5;" x="468.0" xlink:href="#m3a68111ca7" y="43.2"/>
      </g>
     </g>
     <g id="text_7">
      <!-- 1.5 -->
      <g transform="translate(459.64125 401.918125)scale(0.12 -0.12)">
       <use xlink:href="#BitstreamVeraSans-Roman-31"/>
       <use x="63.623046875" xlink:href="#BitstreamVeraSans-Roman-2e"/>
       <use x="95.41015625" xlink:href="#BitstreamVeraSans-Roman-35"/>
      </g>
     </g>
    </g>
   </g>
   <g id="matplotlib.axis_2">
    <g id="ytick_1">
     <g id="line2d_15">
      <defs>
       <path d="
M0 0
L4 0" id="m71e820122c" style="stroke:#000000;stroke-width:0.5;"/>
      </defs>
      <g>
       <use style="stroke:#000000;stroke-width:0.5;" x="122.4" xlink:href="#m71e820122c" y="388.8"/>
      </g>
     </g>
     <g id="line2d_16">
      <defs>
       <path d="
M0 0
L-4 0" id="m81ec2b1422" style="stroke:#000000;stroke-width:0.5;"/>
      </defs>
      <g>
       <use style="stroke:#000000;stroke-width:0.5;" x="468.0" xlink:href="#m81ec2b1422" y="388.8"/>
      </g>
     </g>
     <g id="text_8">
      <!-- 1.5 -->
      <g transform="translate(91.58 392.11125)scale(0.12 -0.12)">
       <use xlink:href="#BitstreamVeraSans-Roman-2212"/>
       <use x="83.7890625" xlink:href="#BitstreamVeraSans-Roman-31"/>
       <use x="147.412109375" xlink:href="#BitstreamVeraSans-Roman-2e"/>
       <use x="179.19921875" xlink:href="#BitstreamVeraSans-Roman-35"/>
      </g>
     </g>
    </g>
    <g id="ytick_2">
     <g id="line2d_17">
      <g>
       <use style="stroke:#000000;stroke-width:0.5;" x="122.4" xlink:href="#m71e820122c" y="331.2"/>
      </g>
     </g>
     <g id="line2d_18">
      <g>
       <use style="stroke:#000000;stroke-width:0.5;" x="468.0" xlink:href="#m81ec2b1422" y="331.2"/>
      </g>
     </g>
     <g id="text_9">
      <!-- 1.0 -->
      <g transform="translate(91.32875 334.51125)scale(0.12 -0.12)">
       <use xlink:href="#BitstreamVeraSans-Roman-2212"/>
       <use x="83.7890625" xlink:href="#BitstreamVeraSans-Roman-31"/>
       <use x="147.412109375" xlink:href="#BitstreamVeraSans-Roman-2e"/>
       <use x="179.19921875" xlink:href="#BitstreamVeraSans-Roman-30"/>
      </g>
     </g>
    </g>
    <g id="ytick_3">
     <g id="line2d_19">
      <g>
       <use style="stroke:#000000;stroke-width:0.5;" x="122.4" xlink:href="#m71e820122c" y="273.6"/>
      </g>
     </g>
     <g id="line2d_20">
      <g>
       <use style="stroke:#000000;stroke-width:0.5;" x="468.0" xlink:href="#m81ec2b1422" y="273.6"/>
      </g>
     </g>
     <g id="text_10">
      <!-- 0.5 -->
      <g transform="translate(91.58 276.91125)scale(0.12 -0.12)">
       <use xlink:href="#BitstreamVeraSans-Roman-2212"/>
       <use x="83.7890625" xlink:href="#BitstreamVeraSans-Roman-30"/>
       <use x="147.412109375" xlink:href="#BitstreamVeraSans-Roman-2e"/>
       <use x="179.19921875" xlink:href="#BitstreamVeraSans-Roman-35"/>
      </g>
     </g>
    </g>
    <g id="ytick_4">
     <g id="line2d_21">
      <g>
       <use style="stroke:#000000;stroke-width:0.5;" x="122.4" xlink:href="#m71e820122c" y="216.0"/>
      </g>
     </g>
     <g id="line2d_22">
      <g>
       <use style="stroke:#000000;stroke-width:0.5;" x="468.0" xlink:href="#m81ec2b1422" y="216.0"/>
      </g>
     </g>
     <g id="text_11">
      <!-- 0.0 -->
      <g transform="translate(100.904375 219.31125)scale(0.12 -0.12)">
       <use xlink:href="#BitstreamVeraSans-Roman-30"/>
       <use x="63.623046875" xlink:href="#BitstreamVeraSans-Roman-2e"/>
       <use x="95.41015625" xlink:href="#BitstreamVeraSans-Roman-30"/>
      </g>
     </g>
    </g>
    <g id="ytick_5">
     <g id="line2d_23">
      <g>
       <use style="stroke:#000000;stroke-width:0.5;" x="122.4" xlink:href="#m71e820122c" y="158.4"/>
      </g>
     </g>
     <g id="line2d_24">
      <g>
       <use style="stroke:#000000;stroke-width:0.5;" x="468.0" xlink:href="#m81ec2b1422" y="158.4"/>
      </g>
     </g>
     <g id="text_12">
      <!-- 0.5 -->
      <g transform="translate(101.155625 161.71125)scale(0.12 -0.12)">
       <use xlink:href="#BitstreamVeraSans-Roman-30"/>
       <use x="63.623046875" xlink:href="#BitstreamVeraSans-Roman-2e"/>
       <use x="95.41015625" xlink:href="#BitstreamVeraSans-Roman-35"/>
      </g>
     </g>
    </g>
    <g id="ytick_6">
     <g id="line2d_25">
      <g>
       <use style="stroke:#000000;stroke-width:0.5;" x="122.4" xlink:href="#m71e820122c" y="100.8"/>
      </g>
     </g>
     <g id="line2d_26">
      <g>
       <use style="stroke:#000000;stroke-width:0.5;" x="468.0" xlink:href="#m81ec2b1422" y="100.8"/>
      </g>
     </g>
     <g id="text_13">
      <!-- 1.0 -->
      <g transform="translate(101.43125 104.11125)scale(0.12 -0.12)">
       <use xlink:href="#BitstreamVeraSans-Roman-31"/>
       <use x="63.623046875" xlink:href="#BitstreamVeraSans-Roman-2e"/>
       <use x="95.41015625" xlink:href="#BitstreamVeraSans-Roman-30"/>
      </g>
     </g>
    </g>
    <g id="ytick_7">
     <g id="line2d_27">
      <g>
       <use style="stroke:#000000;stroke-width:0.5;" x="122.4" xlink:href="#m71e820122c" y="43.2"/>
      </g>
     </g>
     <g id="line2d_28">
      <g>
       <use style="stroke:#000000;stroke-width:0.5;" x="468.0" xlink:href="#m81ec2b1422" y="43.2"/>
      </g>
     </g>
     <g id="text_14">
      <!-- 1.5 -->
      <g transform="translate(101.6825 46.51125)scale(0.12 -0.12)">
       <use xlink:href="#BitstreamVeraSans-Roman-31"/>
       <use x="63.623046875" xlink:href="#BitstreamVeraSans-Roman-2e"/>
       <use x="95.41015625" xlink:href="#BitstreamVeraSans-Roman-35"/>
      </g>
     </g>
    </g>
   </g>
  </g>
 </g>
 <defs>
  <clipPath id="p23ab9b749c">
   <rect height="345.6" width="345.6" x="122.4" y="43.2"/>
  </clipPath>
 </defs>
</svg>
