<?xml version="1.0" encoding="utf-8" standalone="no"?>
<!DOCTYPE svg PUBLIC "-//W3C//DTD SVG 1.1//EN"
  "http://www.w3.org/Graphics/SVG/1.1/DTD/svg11.dtd">
<!-- Created with matplotlib (http://matplotlib.org/) -->
<svg height="432pt" version="1.1" viewBox="0 0 576 432" width="576pt" xmlns="http://www.w3.org/2000/svg" xmlns:xlink="http://www.w3.org/1999/xlink">
 <defs>
  <style type="text/css">
*{stroke-linecap:butt;stroke-linejoin:round;}
  </style>
 </defs>
 <g id="figure_1">
  <g id="patch_1">
   <path d="
M0 432
L576 432
L576 0
L0 0
z
" style="fill:#ffffff;"/>
  </g>
  <g id="axes_1">
   <g id="patch_2">
    <path d="
M122.4 388.8
L468 388.8
L468 43.2
L122.4 43.2
z
" style="fill:#ffffff;"/>
   </g>
   <g id="patch_3">
    <path clip-path="url(#p23ab9b749c)" d="
M295.2 331.2
C325.751 331.2 355.056 319.062 376.659 297.459
C398.262 275.856 410.4 246.551 410.4 216
C410.4 185.449 398.262 156.144 376.659 134.541
C355.056 112.938 325.751 100.8 295.2 100.8
C264.649 100.8 235.344 112.938 213.741 134.541
C192.138 156.144 180 185.449 180 216
C180 246.551 192.138 275.856 213.741 297.459
C235.344 319.062 264.649 331.2 295.2 331.2
L295.2 331.2" style="fill:none;stroke:#000000;stroke-dasharray:6.000000,6.000000;stroke-dashoffset:0.0;stroke-linejoin:miter;"/>
   </g>
   <g id="LineCollection_1">
    <path clip-path="url(#p23ab9b749c)" d="
M277.92 318.069
L279.648 318.323
L281.376 318.537
L286.56 318.955
L291.744 319.05
L295.2 318.98
L300.384 319.251
L305.568 319.242
L309.024 319.057
L312.48 318.72
L315.936 318.218
L321.12 317.174
L324.648 316.224
L328.032 315.162
L333.216 313.16
L337.736 311.04
L340.959 309.312
L343.868 307.584
L347.04 305.512
L352.224 301.935
L357.003 298.944
L359.511 297.216
L362.592 294.929
L368.319 290.304
L372.095 286.848
L375.486 283.392
L378.554 279.936
L381.6 276.152
L383.926 273.024
L387.441 267.84
L391.968 260.468
L397.035 252.288
L398.88 249.74
L400.608 247.653
L402.819 245.376
L405.792 242.788
L407.52 241.461
L411.794 238.464
L414.432 236.663
L417.888 234.142
L421.344 231.146
L423.072 229.373
L424.8 227.321
L426.528 224.854
L427.684 222.912
L429.28 219.456
L430.388 216
L431.105 212.544
L431.454 209.088
L431.514 205.632
L431.319 202.176
L430.732 195.264
L430.199 191.808
L429.476 188.352
L428.482 184.896
L427.26 181.44
L426.528 179.707
L424.8 174.134
L423.698 171.072
L422.201 167.616
L419.463 162.432
L414.432 153.752
L412.65 150.336
L410.519 146.88
L407.903 143.424
L405.792 141.085
L404.064 139.404
L402.336 137.902
L398.324 134.784
L391.968 127.776
L388.512 124.375
L385.056 121.516
L381.6 118.928
L375.235 114.048
L370.522 110.592
L366.048 107.558
L362.445 105.408
L359.136 103.609
L355.68 102.059
L352.224 100.831
L347.04 99.4993
L343.584 98.8884
L333.216 97.6709
L329.76 95.8422
L326.304 94.3277
L322.848 93.1691
L319.392 92.3101
L315.936 91.8057
L312.48 91.6107
L309.024 91.708
L305.568 92.101
L302.112 92.7919
L293.463 95.04
L290.016 95.3482
L284.832 94.7011
L281.376 94.5171
L277.92 94.5794
L274.464 94.9164
L271.008 95.5162
L267.552 96.4459
L264.096 97.7045
L260.64 99.3516
L257.184 101.431
L253.728 103.782
L250.272 106.542
L247.766 108.864
L246.816 109.837
L245.088 111.163
L239.904 113.098
L236.448 114.621
L232.992 116.372
L229.536 118.426
L225.935 120.96
L222.624 123.595
L219.873 126.144
L217.44 128.714
L215.207 131.328
L212.256 135.207
L210.118 138.24
L204.272 146.88
L201.888 149.418
L199.688 152.064
L197.214 155.52
L194.976 159.261
L193.386 162.432
L191.965 165.888
L190.867 169.344
L190.048 172.8
L189.478 176.256
L188.924 181.44
L188.778 184.896
L188.322 186.624
L186.336 190.825
L185.195 193.536
L183.93 196.992
L182.879 200.448
L181.992 203.904
L181.348 207.36
L180.915 210.816
L180.701 214.272
L180.729 217.728
L181.009 221.184
L181.514 224.64
L182.276 228.096
L183.3 231.552
L184.608 235.028
L186.167 238.464
L188.064 241.978
L190.167 245.376
L193.248 249.717
L195.246 252.288
L196.014 254.016
L198.138 260.928
L200.16 266.219
L201.888 269.977
L203.616 273.217
L205.609 276.48
L208.053 279.936
L210.901 283.392
L214.211 286.848
L217.44 289.76
L220.896 292.458
L224.352 294.813
L239.904 304.229
L249.366 309.312
L253.151 311.04
L255.456 311.997
L260.64 313.817
L268.725 316.224
L271.008 316.768
L277.233 317.952
L277.92 318.069
L277.92 318.069" style="fill:none;stroke:#000000;"/>
   </g>
   <g id="LineCollection_2">
    <path clip-path="url(#p23ab9b749c)" d="
M274.464 288.594
L276.192 288.687
L278.356 288.576
L279.648 288.451
L283.104 287.774
L291.744 285.388
L293.472 285.265
L296.928 285.552
L303.84 286.356
L307.296 286.433
L310.752 286.166
L312.48 285.876
L315.936 284.923
L317.664 284.283
L321.12 282.495
L322.848 281.34
L324.659 279.936
L326.626 278.208
L328.335 276.48
L334.944 269.137
L345.374 260.928
L347.273 259.2
L348.946 257.472
L350.496 255.633
L352.224 253.191
L352.799 252.288
L354.552 248.832
L355.226 247.104
L356.333 243.648
L357.408 240.01
L358.268 236.736
L359.274 231.552
L360.096 226.368
L360.642 221.184
L361.071 214.272
L361.072 210.816
L360.751 205.632
L360.373 202.176
L359.749 198.72
L358.848 195.264
L357.668 191.808
L356.214 188.352
L353.952 184.046
L352.224 181.22
L350.01 177.984
L347.04 174.146
L344.403 171.072
L341.856 168.417
L339.137 165.888
L336.672 163.837
L333.216 161.314
L329.464 158.976
L326.304 157.266
L322.425 155.52
L319.392 154.361
L314.208 152.786
L310.752 151.971
L307.296 151.314
L303.84 150.89
L300.384 150.683
L296.928 150.669
L293.472 150.834
L290.016 151.166
L286.56 151.666
L281.376 152.663
L274.464 154.343
L271.008 155.132
L268.615 155.52
L265.824 155.684
L263.297 155.52
L262.368 155.35
L260.64 154.544
L259.96 153.792
L258.912 151.97
L257.945 148.608
L256.605 145.152
L255.456 143.23
L254.4 141.696
L253.728 140.968
L252.971 139.968
L252 139.05
L250.272 137.829
L248.544 137.025
L246.816 136.619
L245.014 136.512
L243.36 136.643
L241.632 137.085
L239.561 138.24
L237.609 139.968
L236.407 141.696
L235.577 143.424
L235.188 145.152
L235.114 146.88
L235.279 148.608
L235.721 150.336
L236.517 152.064
L238.176 154.783
L239.904 156.909
L240.31 157.248
L241.632 158.604
L242.186 158.976
L243.36 160.097
L244.285 160.704
L245.088 161.599
L246.011 162.432
L246.643 164.16
L246.264 165.888
L244.93 167.616
L243.36 168.696
L241.632 169.497
L239.904 169.839
L238.176 169.855
L236.448 169.576
L234.72 168.83
L232.992 167.579
L231.264 166.614
L229.225 165.888
L227.808 165.498
L226.08 165.266
L224.352 165.278
L222.624 165.533
L220.896 166.031
L219.168 166.775
L217.44 167.97
L215.712 169.741
L214.76 171.072
L213.984 172.84
L213.44 174.528
L213.207 176.256
L213.265 177.984
L213.621 179.712
L214.254 181.44
L215.712 183.813
L219.168 187.662
L222.624 190.515
L224.493 191.808
L226.609 193.536
L227.886 195.264
L228.422 196.992
L228.43 198.72
L228.103 200.448
L227.393 202.176
L226.039 203.904
L224.352 204.798
L219.168 204.889
L217.44 205.162
L213.984 206.138
L212.256 206.951
L210.528 208.119
L208.8 209.864
L208.074 210.816
L207.072 212.746
L206.476 214.272
L206.12 216
L206.037 217.728
L206.209 219.456
L206.676 221.184
L207.431 222.912
L208.8 224.883
L210.528 226.541
L212.256 227.733
L213.984 228.651
L215.712 229.276
L217.44 229.629
L219.538 229.824
L220.896 230.098
L224.739 231.552
L226.08 232.351
L227.808 233.739
L228.915 235.008
L229.902 236.736
L230.035 238.464
L229.536 240.897
L229.271 241.92
L226.481 250.56
L225.999 252.288
L225.648 254.016
L225.526 255.744
L225.601 257.472
L226.08 259.695
L226.42 260.928
L227.22 262.656
L228.379 264.384
L230.031 266.112
L231.264 267.116
L232.992 268.119
L234.72 268.869
L236.448 269.312
L239.174 269.568
L240.365 269.568
L241.632 269.496
L245.088 269.028
L246.816 268.932
L248.544 269.042
L250.328 269.568
L252.329 271.296
L253.768 273.024
L257.633 278.208
L259.057 279.936
L260.644 281.664
L262.48 283.392
L264.759 285.12
L265.824 285.811
L269.28 287.46
L271.008 288.02
L272.736 288.385
L274.464 288.594
L274.464 288.594" style="fill:none;stroke:#000000;"/>
    <path clip-path="url(#p23ab9b749c)" d="
M407.52 218.033
L409.248 218.599
L410.976 218.53
L412.704 217.755
L412.741 217.728
L414.432 216.17
L414.57 216
L415.423 214.272
L415.562 212.544
L415.268 210.816
L415.146 209.088
L415.175 207.36
L414.993 205.632
L414.432 204.062
L414.39 203.904
L413.396 202.176
L412.704 201.391
L411.287 200.448
L410.976 199.948
L410.34 198.72
L410.976 197.977
L411.603 196.992
L412.154 195.264
L412.201 193.536
L411.775 191.808
L410.976 190.503
L410.701 190.08
L409.248 188.74
L408.36 188.352
L407.52 187.94
L405.792 187.689
L404.064 188.046
L403.459 188.352
L402.336 188.88
L400.802 190.08
L400.608 190.378
L399.724 191.808
L399.37 193.536
L399.49 195.264
L400.144 196.992
L400.608 197.701
L401.38 198.72
L402.336 199.836
L403.16 200.448
L403.213 202.176
L402.753 203.904
L402.565 205.632
L402.626 207.36
L402.998 209.088
L403.638 210.816
L404.051 212.544
L404.064 212.595
L404.309 214.272
L405.09 216
L405.792 216.768
L407.044 217.728
L407.52 218.033" style="fill:none;stroke:#000000;"/>
    <path clip-path="url(#p23ab9b749c)" d="
M398.88 184.978
L399.423 184.896
L400.608 184.805
L402.336 184.217
L403.729 183.168
L404.064 182.847
L405.154 181.44
L405.705 179.712
L405.78 177.984
L405.474 176.256
L404.525 174.528
L404.064 173.999
L402.567 172.8
L402.336 172.638
L400.608 171.913
L398.88 171.763
L397.152 172.127
L395.947 172.8
L395.424 173.089
L393.974 174.528
L393.696 175.034
L393.005 176.256
L392.637 177.984
L392.749 179.712
L393.409 181.44
L393.696 181.871
L394.703 183.168
L395.424 183.807
L397.152 184.687
L398.558 184.896
L398.88 184.978" style="fill:none;stroke:#000000;"/>
    <path clip-path="url(#p23ab9b749c)" d="
M385.056 166.417
L386.784 167.067
L388.512 167.176
L390.24 166.826
L391.931 165.888
L391.968 165.87
L393.696 164.298
L393.811 164.16
L394.853 162.432
L395.252 160.704
L395.255 158.976
L394.869 157.248
L393.865 155.52
L393.696 155.316
L392.059 153.792
L391.968 153.721
L390.24 152.795
L388.512 152.457
L386.784 152.528
L385.056 153.062
L383.923 153.792
L383.328 154.224
L382.149 155.52
L381.6 156.632
L381.279 157.248
L380.854 158.976
L380.92 160.704
L381.488 162.432
L381.6 162.633
L382.421 164.16
L383.328 165.158
L384.315 165.888
L385.056 166.417" style="fill:none;stroke:#000000;"/>
    <path clip-path="url(#p23ab9b749c)" d="
M366.048 147.464
L367.776 148.191
L369.504 148.35
L371.232 148.061
L372.96 147.052
L373.146 146.88
L374.651 145.152
L374.688 145.082
L375.589 143.424
L375.882 141.696
L375.691 139.968
L374.883 138.24
L374.688 137.979
L373.321 136.512
L372.96 136.221
L371.232 135.331
L369.504 135.077
L367.776 135.259
L366.048 136.036
L365.441 136.512
L364.32 137.671
L363.875 138.24
L363.054 139.968
L362.808 141.696
L362.955 143.424
L363.7 145.152
L364.32 145.921
L365.294 146.88
L366.048 147.464" style="fill:none;stroke:#000000;"/>
    <path clip-path="url(#p23ab9b749c)" d="
M274.464 134.787
L276.192 134.969
L277.256 134.784
L277.92 134.709
L279.648 134.087
L281.045 133.056
L281.376 132.812
L282.7 131.328
L283.104 130.699
L283.721 129.6
L284.276 127.872
L284.438 126.144
L284.311 124.416
L283.921 122.688
L283.139 120.96
L283.104 120.906
L281.981 119.232
L281.376 118.636
L279.782 117.504
L279.648 117.418
L277.92 116.621
L276.192 116.294
L274.464 116.316
L272.736 116.695
L271.091 117.504
L271.008 117.543
L269.28 118.848
L268.898 119.232
L267.671 120.96
L267.552 121.254
L266.887 122.688
L266.524 124.416
L266.5 126.144
L266.789 127.872
L267.464 129.6
L267.552 129.762
L268.489 131.328
L269.28 132.247
L270.259 133.056
L271.008 133.632
L272.736 134.422
L274.456 134.784
L274.464 134.787" style="fill:none;stroke:#000000;"/>
    <path clip-path="url(#p23ab9b749c)" d="
M341.856 134.936
L343.584 135.328
L345.312 135.251
L346.771 134.784
L347.04 134.717
L348.768 133.741
L349.48 133.056
L350.496 131.65
L350.69 131.328
L351.359 129.6
L351.6 127.872
L351.49 126.144
L350.914 124.416
L350.496 123.745
L349.81 122.688
L348.768 121.682
L347.532 120.96
L347.04 120.68
L345.312 120.154
L343.584 120.081
L341.856 120.403
L340.669 120.96
L340.128 121.205
L338.4 122.673
L338.386 122.688
L337.126 124.416
L336.672 125.91
L336.579 126.144
L336.407 127.872
L336.672 129.338
L336.705 129.6
L337.361 131.328
L338.4 132.671
L338.768 133.056
L340.128 134.168
L341.564 134.784
L341.856 134.936" style="fill:none;stroke:#000000;"/>
    <path clip-path="url(#p23ab9b749c)" d="
M310.752 128.008
L312.48 128.197
L314.208 127.954
L314.422 127.872
L315.936 127.393
L317.664 126.154
L317.674 126.144
L319.108 124.416
L319.392 123.779
L319.87 122.688
L320.193 120.96
L320.314 119.232
L320.014 117.504
L319.392 116.165
L319.233 115.776
L317.864 114.048
L317.664 113.862
L315.936 112.665
L314.864 112.32
L314.208 112.073
L312.48 111.853
L310.752 112.098
L310.203 112.32
L309.024 112.729
L307.302 114.048
L307.296 114.054
L305.922 115.776
L305.568 116.602
L305.098 117.504
L304.589 119.232
L304.5 120.96
L304.81 122.688
L305.568 124.284
L305.632 124.416
L307.05 126.144
L307.296 126.373
L309.024 127.49
L310.363 127.872
L310.752 128.008" style="fill:none;stroke:#000000;"/>
   </g>
   <g id="LineCollection_3">
    <path clip-path="url(#p23ab9b749c)" d="
M272.736 278.925
L274.464 279.333
L276.192 279.183
L277.92 278.375
L278.155 278.208
L279.648 276.786
L279.912 276.48
L280.791 274.752
L281.024 273.024
L280.857 271.296
L280.233 269.568
L279.648 268.563
L279.065 267.84
L277.92 266.667
L276.56 266.112
L276.192 265.925
L274.464 265.789
L273.527 266.112
L272.736 266.29
L271.008 267.446
L270.67 267.84
L269.459 269.568
L269.28 270.029
L268.811 271.296
L268.627 273.024
L268.954 274.752
L269.28 275.371
L269.745 276.48
L271.008 277.83
L271.564 278.208
L272.736 278.925" style="fill:none;stroke:#000000;"/>
    <path clip-path="url(#p23ab9b749c)" d="
M307.296 274.887
L309.024 275.23
L310.752 275.167
L312.48 274.687
L314.208 273.87
L315.251 273.024
L316.752 271.296
L317.664 269.08
L318.063 267.84
L318.253 266.112
L318.155 264.384
L317.664 262.132
L316.245 257.472
L316.277 255.744
L318.122 254.016
L319.392 253.309
L322.033 252.288
L322.848 252.078
L324.576 251.79
L326.304 251.654
L329.76 251.753
L333.216 251.802
L334.944 251.634
L336.672 251.228
L338.4 250.479
L340.128 249.472
L340.854 248.832
L342.396 247.104
L343.332 245.376
L343.868 243.648
L344.117 241.92
L344.036 240.192
L343.584 238.265
L343.093 236.736
L341.856 234.297
L340.22 231.552
L339.619 229.824
L339.461 228.096
L339.708 226.368
L340.225 224.64
L341.856 221.027
L343.584 217.329
L344.13 216
L344.696 214.272
L345.08 212.544
L345.312 210.35
L345.312 208.174
L345.272 207.36
L345.024 205.632
L344.559 203.904
L343.584 201.751
L342.886 200.448
L341.643 198.72
L340.128 196.987
L336.464 193.536
L333.216 190.381
L331.465 188.352
L327.513 183.168
L326.003 181.44
L324.257 179.712
L322.118 177.984
L321.12 177.273
L317.664 175.468
L315.936 174.849
L312.48 173.96
L309.024 173.477
L303.84 173.151
L296.928 172.865
L293.472 172.87
L290.016 173.098
L286.56 173.642
L283.563 174.528
L283.104 174.664
L281.376 175.296
L277.92 176.953
L274.464 179.095
L272.736 180.364
L271.008 181.804
L269.28 183.43
L267.552 185.271
L265.824 187.369
L264.096 189.821
L262.862 191.808
L261.078 195.264
L259.557 198.72
L257.763 203.904
L256.942 207.36
L256.41 210.816
L256.131 214.272
L256.212 217.728
L256.632 221.184
L257.418 224.64
L257.925 226.368
L259.268 229.824
L260.924 233.28
L262.785 236.736
L264.876 240.192
L267.552 243.872
L270.291 247.104
L272.736 249.621
L276.192 252.568
L278.32 254.016
L279.648 254.837
L283.104 256.364
L291.744 259.444
L294.336 260.928
L295.2 261.574
L296.928 263.391
L298.658 266.112
L299.549 267.84
L302.112 271.504
L303.84 273.141
L305.568 274.264
L307.296 274.887
L307.296 274.887" style="fill:none;stroke:#000000;"/>
    <path clip-path="url(#p23ab9b749c)" d="
M236.448 261.301
L238.176 261.414
L239.227 260.928
L239.904 260.627
L241.239 259.2
L241.615 257.472
L241.388 255.744
L239.915 254.016
L239.904 254.007
L238.176 253.157
L236.448 253.28
L235.282 254.016
L234.72 254.389
L233.675 255.744
L233.335 257.472
L233.802 259.2
L234.72 260.29
L235.807 260.928
L236.448 261.301" style="fill:none;stroke:#000000;"/>
    <path clip-path="url(#p23ab9b749c)" d="
M217.44 221.211
L217.508 221.184
L219.168 220.651
L220.316 219.456
L220.747 217.728
L220.355 216
L219.168 214.747
L217.711 214.272
L217.44 214.165
L216.927 214.272
L215.712 214.395
L213.985 216
L213.984 216.005
L213.388 217.728
L213.984 219.29
L214.027 219.456
L215.712 221.021
L217.313 221.184
L217.44 221.211" style="fill:none;stroke:#000000;"/>
    <path clip-path="url(#p23ab9b749c)" d="
M409.248 215.134
L410.976 215.073
L411.779 214.272
L411.676 212.544
L410.976 211.829
L409.248 211.762
L408.463 212.544
L408.365 214.272
L409.248 215.134" style="fill:none;stroke:#000000;"/>
    <path clip-path="url(#p23ab9b749c)" d="
M409.248 208.089
L410.119 207.36
L410.775 205.632
L409.248 204.135
L407.52 205.09
L407.064 205.632
L407.52 206.854
L407.831 207.36
L409.248 208.089" style="fill:none;stroke:#000000;"/>
    <path clip-path="url(#p23ab9b749c)" d="
M405.792 196.047
L406.936 195.264
L407.516 193.536
L405.792 191.906
L404.074 193.536
L404.683 195.264
L405.792 196.047" style="fill:none;stroke:#000000;"/>
    <path clip-path="url(#p23ab9b749c)" d="
M222.624 179.845
L224.352 179.867
L224.63 179.712
L226.08 178.785
L226.726 177.984
L227.095 176.256
L226.24 174.528
L226.08 174.357
L224.352 173.146
L222.624 173.152
L220.896 174.453
L220.829 174.528
L219.946 176.256
L220.33 177.984
L220.896 178.715
L222.406 179.712
L222.624 179.845" style="fill:none;stroke:#000000;"/>
    <path clip-path="url(#p23ab9b749c)" d="
M398.88 180.543
L400.608 179.726
L400.622 179.712
L401.458 177.984
L400.608 176.932
L398.88 176.332
L397.232 177.984
L397.858 179.712
L398.88 180.543" style="fill:none;stroke:#000000;"/>
    <path clip-path="url(#p23ab9b749c)" d="
M386.784 161.636
L388.512 162.163
L390.118 160.704
L390.157 158.976
L388.512 157.437
L386.784 157.908
L385.829 158.976
L385.922 160.704
L386.784 161.636" style="fill:none;stroke:#000000;"/>
    <path clip-path="url(#p23ab9b749c)" d="
M245.088 148.775
L245.386 148.608
L246.816 147.684
L247.403 146.88
L247.568 145.152
L246.816 144.046
L246.157 143.424
L245.088 142.755
L243.36 143.008
L242.82 143.424
L241.643 145.152
L241.712 146.88
L243.36 148.567
L244.028 148.608
L245.088 148.775" style="fill:none;stroke:#000000;"/>
    <path clip-path="url(#p23ab9b749c)" d="
M369.504 143.485
L369.605 143.424
L371.232 141.933
L371.379 141.696
L371.232 141.399
L370.369 139.968
L369.504 139.396
L368.52 139.968
L367.776 140.806
L367.293 141.696
L367.776 142.424
L369.386 143.424
L369.504 143.485" style="fill:none;stroke:#000000;"/>
    <path clip-path="url(#p23ab9b749c)" d="
M343.584 129.484
L345.312 129.312
L346.616 127.872
L346.31 126.144
L345.312 125.159
L343.584 124.907
L342.211 126.144
L341.985 127.872
L343.584 129.484" style="fill:none;stroke:#000000;"/>
    <path clip-path="url(#p23ab9b749c)" d="
M274.464 127.337
L276.192 127.534
L277.847 126.144
L277.92 125.836
L278.403 124.416
L277.92 123.563
L277.342 122.688
L276.192 121.864
L274.464 122.131
L273.785 122.688
L272.829 124.416
L273.201 126.144
L274.464 127.337" style="fill:none;stroke:#000000;"/>
    <path clip-path="url(#p23ab9b749c)" d="
M310.752 120.977
L312.48 122.042
L314.123 120.96
L314.208 120.822
L314.99 119.232
L314.208 118.024
L313.538 117.504
L312.48 116.917
L311.386 117.504
L310.752 117.94
L309.896 119.232
L310.736 120.96
L310.752 120.977" style="fill:none;stroke:#000000;"/>
   </g>
   <g id="LineCollection_4">
    <path clip-path="url(#p23ab9b749c)" d="
M274.464 276.132
L276.192 275.153
L276.561 274.752
L276.515 273.024
L276.192 272.643
L274.464 271.697
L272.996 273.024
L272.94 274.752
L274.464 276.132" style="fill:none;stroke:#000000;"/>
    <path clip-path="url(#p23ab9b749c)" d="
M309.024 270.721
L310.752 270.897
L312.319 269.568
L312.48 268.79
L312.829 267.84
L312.48 267.122
L311.884 266.112
L310.752 265.213
L309.024 265.356
L308.13 266.112
L307.343 267.84
L307.721 269.568
L309.024 270.721" style="fill:none;stroke:#000000;"/>
    <path clip-path="url(#p23ab9b749c)" d="
M236.448 258.407
L238.176 258.457
L239.013 257.472
L238.176 256.464
L236.448 256.514
L235.672 257.472
L236.448 258.407" style="fill:none;stroke:#000000;"/>
    <path clip-path="url(#p23ab9b749c)" d="
M334.944 245.675
L336.672 245.692
L337.149 245.376
L338.4 244.392
L338.947 243.648
L339.098 241.92
L338.4 240.759
L337.881 240.192
L336.672 239.264
L334.944 239.203
L333.404 240.192
L333.216 240.426
L332.317 241.92
L332.564 243.648
L333.216 244.425
L334.407 245.376
L334.944 245.675" style="fill:none;stroke:#000000;"/>
    <path clip-path="url(#p23ab9b749c)" d="
M288.288 240.28
L290.016 240.603
L293.472 240.959
L296.928 240.986
L298.656 240.834
L300.384 240.565
L303.84 239.688
L305.568 239.016
L307.296 238.163
L309.594 236.736
L311.831 235.008
L313.637 233.28
L315.144 231.552
L316.42 229.824
L318.521 226.368
L320.137 222.912
L322.045 217.728
L323.668 212.544
L323.937 210.816
L323.427 209.088
L322.848 208.452
L322.332 207.36
L321.12 205.523
L319.64 202.176
L319.238 200.448
L319.392 198.073
L319.561 196.992
L320.386 193.536
L320.655 191.808
L320.659 190.08
L320.317 188.352
L319.386 186.624
L317.664 184.698
L315.936 183.637
L314.208 183.251
L312.48 183.208
L310.752 183.459
L309.024 184.075
L307.296 185.029
L304.503 186.624
L303.84 187.023
L302.112 187.473
L300.384 187.161
L295.2 183.897
L293.472 183.152
L291.744 182.596
L290.016 182.426
L288.288 182.623
L286.56 183.219
L284.832 184.082
L283.104 185.54
L282.057 186.624
L279.648 190.403
L277.566 193.536
L275.98 195.264
L271.901 198.72
L271.008 199.578
L270.284 200.448
L269.164 202.176
L268.3 203.904
L267.838 205.632
L267.639 207.36
L267.625 209.088
L267.772 210.816
L268.076 212.544
L268.84 216
L269.914 222.912
L270.351 224.64
L271.73 228.096
L272.798 229.824
L274.464 232.05
L276.192 233.845
L277.92 235.301
L279.95 236.736
L281.376 237.658
L284.832 239.301
L286.56 239.872
L288.288 240.28
L288.288 240.28" style="fill:none;stroke:#000000;"/>
    <path clip-path="url(#p23ab9b749c)" d="
M217.44 219.051
L218.688 217.728
L217.44 216.396
L215.871 217.728
L217.44 219.051" style="fill:none;stroke:#000000;"/>
    <path clip-path="url(#p23ab9b749c)" d="
M329.76 212.758
L331.488 213.465
L333.216 213.655
L334.944 213.394
L336.429 212.544
L336.672 212.445
L338.191 210.816
L338.4 210.269
L338.908 209.088
L338.888 207.36
L338.4 206.316
L338.127 205.632
L336.672 204.145
L336.02 203.904
L334.944 203.342
L333.216 203.208
L331.488 203.703
L331.079 203.904
L329.76 204.762
L328.774 205.632
L328.032 206.921
L327.518 207.36
L326.767 209.088
L327.285 210.816
L328.032 211.282
L329.344 212.544
L329.76 212.758" style="fill:none;stroke:#000000;"/>
    <path clip-path="url(#p23ab9b749c)" d="
M405.792 194.052
L406.247 193.536
L405.792 193.106
L405.339 193.536
L405.792 194.052" style="fill:none;stroke:#000000;"/>
    <path clip-path="url(#p23ab9b749c)" d="
M398.88 178.216
L399.113 177.984
L398.88 177.794
L398.69 177.984
L398.88 178.216" style="fill:none;stroke:#000000;"/>
    <path clip-path="url(#p23ab9b749c)" d="
M222.624 176.969
L224.352 176.48
L224.502 176.256
L224.352 176.088
L222.624 175.696
L222.112 176.256
L222.624 176.969" style="fill:none;stroke:#000000;"/>
    <path clip-path="url(#p23ab9b749c)" d="
M245.088 145.362
L245.189 145.152
L245.088 145.052
L244.878 145.152
L245.088 145.362" style="fill:none;stroke:#000000;"/>
    <path clip-path="url(#p23ab9b749c)" d="
M369.504 143.047
L370.858 141.696
L369.504 140.319
L368.133 141.696
L369.504 143.047" style="fill:none;stroke:#000000;"/>
    <path clip-path="url(#p23ab9b749c)" d="
M276.192 125.151
L276.802 124.416
L276.192 123.777
L275.249 124.416
L276.192 125.151" style="fill:none;stroke:#000000;"/>
    <path clip-path="url(#p23ab9b749c)" d="
M312.48 120.686
L313.909 119.232
L312.48 117.815
L311.045 119.232
L312.48 120.686" style="fill:none;stroke:#000000;"/>
   </g>
   <g id="LineCollection_5">
    <path clip-path="url(#p23ab9b749c)" d="
M310.752 268.229
L311.037 267.84
L310.752 267.535
L310.221 267.84
L310.752 268.229" style="fill:none;stroke:#000000;"/>
    <path clip-path="url(#p23ab9b749c)" d="
M293.472 233.499
L295.2 233.498
L296.431 233.28
L296.928 233.22
L298.656 232.779
L300.384 232.03
L301.236 231.552
L302.112 231.105
L303.84 229.91
L303.948 229.824
L305.568 228.564
L306.069 228.096
L307.296 226.809
L307.679 226.368
L308.878 224.64
L309.024 224.347
L309.853 222.912
L310.481 221.184
L310.752 219.881
L310.875 219.456
L311.143 217.728
L311.234 216
L311.13 214.272
L310.799 212.544
L310.752 212.382
L310.409 210.816
L309.755 209.088
L309.024 207.783
L308.796 207.36
L307.533 205.632
L307.296 205.355
L305.799 203.904
L305.568 203.698
L303.84 202.455
L303.307 202.176
L302.112 201.493
L300.384 200.783
L299.217 200.448
L298.656 200.242
L296.928 199.771
L295.2 199.48
L293.472 199.378
L291.744 199.54
L290.016 200.142
L289.531 200.448
L288.288 201.047
L286.751 202.176
L286.56 202.297
L284.832 203.554
L284.311 203.904
L283.104 204.667
L281.376 205.279
L279.648 204.662
L278.798 203.904
L277.92 203.433
L276.192 202.863
L274.464 203.367
L273.85 203.904
L272.759 205.632
L272.736 207.004
L272.716 207.36
L272.736 207.408
L273.44 209.088
L274.464 210.3
L275.477 210.816
L276.192 211.499
L277.492 212.544
L277.92 213.377
L278.238 214.272
L278.234 216
L277.92 217.628
L277.9 217.728
L277.205 219.456
L276.626 221.184
L276.406 222.912
L276.596 224.64
L277.577 226.368
L277.92 226.761
L279.648 228.026
L279.952 228.096
L281.376 228.731
L283.104 229.16
L284.556 229.824
L284.832 229.978
L286.56 231.054
L287.459 231.552
L288.288 232.015
L290.016 232.784
L291.744 233.222
L292.24 233.28
L293.472 233.499" style="fill:none;stroke:#000000;"/>
    <path clip-path="url(#p23ab9b749c)" d="
M334.944 210.062
L336.011 209.088
L336.216 207.36
L334.944 206.169
L333.323 207.36
L333.47 209.088
L334.944 210.062" style="fill:none;stroke:#000000;"/>
    <path clip-path="url(#p23ab9b749c)" d="
M288.288 192.996
L290.016 193.298
L291.744 192.214
L292.002 191.808
L292.804 190.08
L292.461 188.352
L291.744 187.565
L290.016 186.66
L288.288 186.892
L286.82 188.352
L286.613 190.08
L287.228 191.808
L288.288 192.996" style="fill:none;stroke:#000000;"/>
    <path clip-path="url(#p23ab9b749c)" d="
M312.48 191.396
L314.208 191.803
L315.936 190.767
L316.401 190.08
L316.226 188.352
L315.936 188.013
L314.208 186.789
L312.48 187.521
L311.656 188.352
L311.449 190.08
L312.48 191.396" style="fill:none;stroke:#000000;"/>
    <path clip-path="url(#p23ab9b749c)" d="
M369.504 141.844
L369.652 141.696
L369.504 141.545
L369.354 141.696
L369.504 141.844" style="fill:none;stroke:#000000;"/>
    <path clip-path="url(#p23ab9b749c)" d="
M312.48 119.582
L312.824 119.232
L312.48 118.891
L312.135 119.232
L312.48 119.582" style="fill:none;stroke:#000000;"/>
   </g>
   <g id="LineCollection_6">
    <path clip-path="url(#p23ab9b749c)" d="
M291.744 228.811
L293.472 229.664
L295.2 229.63
L296.928 228.501
L297.459 228.096
L298.656 227.102
L300.042 226.368
L300.384 226.272
L302.112 225.341
L302.911 224.64
L303.84 223.589
L304.381 222.912
L305.233 221.184
L305.568 219.817
L305.708 219.456
L306.135 217.728
L306.217 216
L305.938 214.272
L305.568 213.316
L305.36 212.544
L304.459 210.816
L303.84 210.043
L303.045 209.088
L302.112 208.225
L300.774 207.36
L300.384 207.09
L298.656 206.273
L296.928 205.952
L295.2 205.918
L293.472 206.158
L291.744 206.816
L290.85 207.36
L290.016 207.773
L288.464 209.088
L288.288 209.268
L286.925 210.816
L286.56 211.579
L286 212.544
L285.493 214.272
L285.353 216
L285.414 217.728
L285.713 219.456
L286.372 221.184
L286.56 221.512
L287.186 222.912
L288.288 224.479
L288.387 224.64
L289.553 226.368
L290.016 226.876
L290.877 228.096
L291.744 228.811" style="fill:none;stroke:#000000;"/>
    <path clip-path="url(#p23ab9b749c)" d="
M279.648 224.799
L281.376 225.535
L282.395 224.64
L282.436 222.912
L281.376 221.932
L279.648 222.701
L279.48 222.912
L279.5 224.64
L279.648 224.799" style="fill:none;stroke:#000000;"/>
    <path clip-path="url(#p23ab9b749c)" d="
M276.192 207.287
L276.839 205.632
L276.192 205.049
L275.281 205.632
L276.192 207.287" style="fill:none;stroke:#000000;"/>
   </g>
   <g id="LineCollection_7">
    <path clip-path="url(#p23ab9b749c)" d="
M293.472 227.035
L295.2 226.834
L295.536 226.368
L295.2 225.675
L293.472 225.428
L292.937 226.368
L293.472 227.035" style="fill:none;stroke:#000000;"/>
    <path clip-path="url(#p23ab9b749c)" d="
M293.472 223.025
L295.2 223.617
L296.928 223.606
L298.656 223.788
L300.384 223.315
L300.863 222.912
L302.091 221.184
L302.112 220.744
L302.485 219.456
L303.237 217.728
L303.449 216
L302.865 214.272
L302.112 213.12
L301.826 212.544
L300.491 210.816
L300.384 210.712
L298.656 209.371
L296.928 209.153
L295.2 209.199
L293.472 209.385
L291.744 210.232
L291.071 210.816
L290.016 212.229
L289.772 212.544
L288.962 214.272
L288.769 216
L289.066 217.728
L290.015 219.456
L290.016 219.458
L291.1 221.184
L291.744 221.906
L293.381 222.912
L293.472 223.025" style="fill:none;stroke:#000000;"/>
   </g>
   <g id="LineCollection_8">
    <path clip-path="url(#p23ab9b749c)" d="
M298.656 221.595
L300.384 221.783
L300.949 221.184
L300.384 220.294
L299.412 219.456
L300.384 218.559
L301.027 217.728
L301.981 216
L300.384 214.335
L300.019 214.272
L299.961 212.544
L298.656 211.17
L296.928 211.008
L295.2 211.379
L293.472 210.985
L291.832 212.544
L291.744 213.204
L291.123 214.272
L290.405 216
L291.161 217.728
L291.744 218.475
L292.83 219.456
L293.472 220.009
L295.2 220.612
L296.928 220.6
L297.961 221.184
L298.656 221.595" style="fill:none;stroke:#000000;"/>
   </g>
   <g id="LineCollection_9">
    <path clip-path="url(#p23ab9b749c)" d="
M293.472 218.005
L295.2 219.284
L296.928 218.246
L297.546 217.728
L298.401 216
L297.273 214.272
L296.928 213.497
L295.2 213.308
L294.26 212.544
L293.472 211.966
L292.863 212.544
L293.269 214.272
L291.96 216
L293.187 217.728
L293.472 218.005" style="fill:none;stroke:#000000;"/>
    <path clip-path="url(#p23ab9b749c)" d="
M300.384 216.99
L301.241 216
L300.384 215.106
L299.076 216
L300.384 216.99" style="fill:none;stroke:#000000;"/>
   </g>
   <g id="LineCollection_10">
    <path clip-path="url(#p23ab9b749c)" d="
M295.2 218.462
L296.062 217.728
L296.928 216
L295.2 214.272
L293.472 216
L294.361 217.728
L295.2 218.462" style="fill:none;stroke:#000000;"/>
   </g>
   <g id="LineCollection_11">
    <path clip-path="url(#p23ab9b749c)" d="
M295.2 217.728
L296.928 216
L295.2 214.272
L293.472 216
L295.2 217.728" style="fill:none;stroke:#000000;"/>
   </g>
   <g id="LineCollection_12">
    <path clip-path="url(#p23ab9b749c)" d="
M295.2 217.728
L296.928 216
L295.2 214.272
L293.472 216
L295.2 217.728" style="fill:none;stroke:#000000;"/>
   </g>
   <g id="LineCollection_13">
    <path clip-path="url(#p23ab9b749c)" d="
M295.2 217.728
L296.928 216
L295.2 214.272
L293.472 216
L295.2 217.728" style="fill:none;stroke:#000000;"/>
   </g>
   <g id="LineCollection_14">
    <path clip-path="url(#p23ab9b749c)" d="
M295.2 217.728
L296.928 216
L295.2 214.272
L293.472 216
L295.2 217.728" style="fill:none;stroke:#000000;"/>
   </g>
   <g id="LineCollection_15">
    <path clip-path="url(#p23ab9b749c)" d="
M295.2 217.728
L296.928 216
L295.2 214.272
L293.472 216
L295.2 217.728" style="fill:none;stroke:#000000;"/>
   </g>
   <g id="LineCollection_16">
    <path clip-path="url(#p23ab9b749c)" d="
M295.2 217.728
L296.928 216
L295.2 214.272
L293.472 216
L295.2 217.728" style="fill:none;stroke:#000000;"/>
   </g>
   <g id="LineCollection_17">
    <path clip-path="url(#p23ab9b749c)" d="
M295.2 217.728
L296.928 216
L295.2 214.272
L293.472 216
L295.2 217.728" style="fill:none;stroke:#000000;"/>
   </g>
   <g id="LineCollection_18">
    <path clip-path="url(#p23ab9b749c)" d="
M295.2 217.728
L296.928 216
L295.2 214.272
L293.472 216
L295.2 217.728" style="fill:none;stroke:#000000;"/>
   </g>
   <g id="LineCollection_19">
    <path clip-path="url(#p23ab9b749c)" d="
M295.2 217.728
L296.928 216
L295.2 214.272
L293.472 216
L295.2 217.728" style="fill:none;stroke:#000000;"/>
   </g>
   <g id="patch_4">
    <path d="
M122.4 43.2
L468 43.2
L468 43.2" style="fill:none;stroke:#000000;stroke-linecap:square;stroke-linejoin:miter;"/>
   </g>
   <g id="patch_5">
    <path d="
M468 388.8
L468 43.2
L468 43.2" style="fill:none;stroke:#000000;stroke-linecap:square;stroke-linejoin:miter;"/>
   </g>
   <g id="patch_6">
    <path d="
M122.4 388.8
L468 388.8
L468 388.8" style="fill:none;stroke:#000000;stroke-linecap:square;stroke-linejoin:miter;"/>
   </g>
   <g id="patch_7">
    <path d="
M122.4 388.8
L122.4 43.2
L122.4 43.2" style="fill:none;stroke:#000000;stroke-linecap:square;stroke-linejoin:miter;"/>
   </g>
   <g id="matplotlib.axis_1">
    <g id="xtick_1">
     <g id="line2d_1">
      <defs>
       <path d="
M0 0
L0 -4" id="mb1445623b5" style="stroke:#000000;stroke-width:0.5;"/>
      </defs>
      <g>
       <use style="stroke:#000000;stroke-width:0.5;" x="122.4" xlink:href="#mb1445623b5" y="388.8"/>
      </g>
     </g>
     <g id="line2d_2">
      <defs>
       <path d="
M0 0
L0 4" id="m3a68111ca7" style="stroke:#000000;stroke-width:0.5;"/>
      </defs>
      <g>
       <use style="stroke:#000000;stroke-width:0.5;" x="122.4" xlink:href="#m3a68111ca7" y="43.2"/>
      </g>
     </g>
     <g id="text_1">
      <!-- −1.5 -->
      <defs>
       <path d="
M10.5938 35.5
L73.1875 35.5
L73.1875 27.2031
L10.5938 27.2031
z
" id="BitstreamVeraSans-Roman-2212"/>
       <path d="
M12.4062 8.29688
L28.5156 8.29688
L28.5156 63.9219
L10.9844 60.4062
L10.9844 69.3906
L28.4219 72.9062
L38.2812 72.9062
L38.2812 8.29688
L54.3906 8.29688
L54.3906 0
L12.4062 0
z
" id="BitstreamVeraSans-Roman-31"/>
       <path d="
M10.6875 12.4062
L21 12.4062
L21 0
L10.6875 0
z
" id="BitstreamVeraSans-Roman-2e"/>
       <path d="
M10.7969 72.9062
L49.5156 72.9062
L49.5156 64.5938
L19.8281 64.5938
L19.8281 46.7344
Q21.9688 47.4688 24.1094 47.8281
Q26.2656 48.1875 28.4219 48.1875
Q40.625 48.1875 47.75 41.5
Q54.8906 34.8125 54.8906 23.3906
Q54.8906 11.625 47.5625 5.09375
Q40.2344 -1.42188 26.9062 -1.42188
Q22.3125 -1.42188 17.5469 -0.640625
Q12.7969 0.140625 7.71875 1.70312
L7.71875 11.625
Q12.1094 9.23438 16.7969 8.0625
Q21.4844 6.89062 26.7031 6.89062
Q35.1562 6.89062 40.0781 11.3281
Q45.0156 15.7656 45.0156 23.3906
Q45.0156 31 40.0781 35.4375
Q35.1562 39.8906 26.7031 39.8906
Q22.75 39.8906 18.8125 39.0156
Q14.8906 38.1406 10.7969 36.2812
z
" id="BitstreamVeraSans-Roman-35"/>
      </defs>
      <g transform="translate(108.99 401.918125)scale(0.12 -0.12)">
       <use xlink:href="#BitstreamVeraSans-Roman-2212"/>
       <use x="83.7890625" xlink:href="#BitstreamVeraSans-Roman-31"/>
       <use x="147.412109375" xlink:href="#BitstreamVeraSans-Roman-2e"/>
       <use x="179.19921875" xlink:href="#BitstreamVeraSans-Roman-35"/>
      </g>
     </g>
    </g>
    <g id="xtick_2">
     <g id="line2d_3">
      <g>
       <use style="stroke:#000000;stroke-width:0.5;" x="180.0" xlink:href="#mb1445623b5" y="388.8"/>
      </g>
     </g>
     <g id="line2d_4">
      <g>
       <use style="stroke:#000000;stroke-width:0.5;" x="180.0" xlink:href="#m3a68111ca7" y="43.2"/>
      </g>
     </g>
     <g id="text_2">
      <!-- −1.0 -->
      <defs>
       <path d="
M31.7812 66.4062
Q24.1719 66.4062 20.3281 58.9062
Q16.5 51.4219 16.5 36.375
Q16.5 21.3906 20.3281 13.8906
Q24.1719 6.39062 31.7812 6.39062
Q39.4531 6.39062 43.2812 13.8906
Q47.125 21.3906 47.125 36.375
Q47.125 51.4219 43.2812 58.9062
Q39.4531 66.4062 31.7812 66.4062
M31.7812 74.2188
Q44.0469 74.2188 50.5156 64.5156
Q56.9844 54.8281 56.9844 36.375
Q56.9844 17.9688 50.5156 8.26562
Q44.0469 -1.42188 31.7812 -1.42188
Q19.5312 -1.42188 13.0625 8.26562
Q6.59375 17.9688 6.59375 36.375
Q6.59375 54.8281 13.0625 64.5156
Q19.5312 74.2188 31.7812 74.2188" id="BitstreamVeraSans-Roman-30"/>
      </defs>
      <g transform="translate(166.464375 401.918125)scale(0.12 -0.12)">
       <use xlink:href="#BitstreamVeraSans-Roman-2212"/>
       <use x="83.7890625" xlink:href="#BitstreamVeraSans-Roman-31"/>
       <use x="147.412109375" xlink:href="#BitstreamVeraSans-Roman-2e"/>
       <use x="179.19921875" xlink:href="#BitstreamVeraSans-Roman-30"/>
      </g>
     </g>
    </g>
    <g id="xtick_3">
     <g id="line2d_5">
      <g>
       <use style="stroke:#000000;stroke-width:0.5;" x="237.6" xlink:href="#mb1445623b5" y="388.8"/>
      </g>
     </g>
     <g id="line2d_6">
      <g>
       <use style="stroke:#000000;stroke-width:0.5;" x="237.6" xlink:href="#m3a68111ca7" y="43.2"/>
      </g>
     </g>
     <g id="text_3">
      <!-- −0.5 -->
      <g transform="translate(224.19 401.918125)scale(0.12 -0.12)">
       <use xlink:href="#BitstreamVeraSans-Roman-2212"/>
       <use x="83.7890625" xlink:href="#BitstreamVeraSans-Roman-30"/>
       <use x="147.412109375" xlink:href="#BitstreamVeraSans-Roman-2e"/>
       <use x="179.19921875" xlink:href="#BitstreamVeraSans-Roman-35"/>
      </g>
     </g>
    </g>
    <g id="xtick_4">
     <g id="line2d_7">
      <g>
       <use style="stroke:#000000;stroke-width:0.5;" x="295.2" xlink:href="#mb1445623b5" y="388.8"/>
      </g>
     </g>
     <g id="line2d_8">
      <g>
       <use style="stroke:#000000;stroke-width:0.5;" x="295.2" xlink:href="#m3a68111ca7" y="43.2"/>
      </g>
     </g>
     <g id="text_4">
      <!-- 0.0 -->
      <g transform="translate(286.4521875 401.918125)scale(0.12 -0.12)">
       <use xlink:href="#BitstreamVeraSans-Roman-30"/>
       <use x="63.623046875" xlink:href="#BitstreamVeraSans-Roman-2e"/>
       <use x="95.41015625" xlink:href="#BitstreamVeraSans-Roman-30"/>
      </g>
     </g>
    </g>
    <g id="xtick_5">
     <g id="line2d_9">
      <g>
       <use style="stroke:#000000;stroke-width:0.5;" x="352.8" xlink:href="#mb1445623b5" y="388.8"/>
      </g>
     </g>
     <g id="line2d_10">
      <g>
       <use style="stroke:#000000;stroke-width:0.5;" x="352.8" xlink:href="#m3a68111ca7" y="43.2"/>
      </g>
     </g>
     <g id="text_5">
      <!-- 0.5 -->
      <g transform="translate(344.1778125 401.918125)scale(0.12 -0.12)">
       <use xlink:href="#BitstreamVeraSans-Roman-30"/>
       <use x="63.623046875" xlink:href="#BitstreamVeraSans-Roman-2e"/>
       <use x="95.41015625" xlink:href="#BitstreamVeraSans-Roman-35"/>
      </g>
     </g>
    </g>
    <g id="xtick_6">
     <g id="line2d_11">
      <g>
       <use style="stroke:#000000;stroke-width:0.5;" x="410.4" xlink:href="#mb1445623b5" y="388.8"/>
      </g>
     </g>
     <g id="line2d_12">
      <g>
       <use style="stroke:#000000;stroke-width:0.5;" x="410.4" xlink:href="#m3a68111ca7" y="43.2"/>
      </g>
     </g>
     <g id="text_6">
      <!-- 1.0 -->
      <g transform="translate(401.915625 401.918125)scale(0.12 -0.12)">
       <use xlink:href="#BitstreamVeraSans-Roman-31"/>
       <use x="63.623046875" xlink:href="#BitstreamVeraSans-Roman-2e"/>
       <use x="95.41015625" xlink:href="#BitstreamVeraSans-Roman-30"/>
      </g>
     </g>
    </g>
    <g id="xtick_7">
     <g id="line2d_13">
      <g>
       <use style="stroke:#000000;stroke-width:0.5;" x="468.0" xlink:href="#mb1445623b5" y="388.8"/>
      </g>
     </g>
     <g id="line2d_14">
      <g>
       <use style="stroke:#000000;stroke-width:0.5;" x="468.0" xlink:href="#m3a68111ca7" y="43.2"/>
      </g>
     </g>
     <g id="text_7">
      <!-- 1.5 -->
      <g transform="translate(459.64125 401.918125)scale(0.12 -0.12)">
       <use xlink:href="#BitstreamVeraSans-Roman-31"/>
       <use x="63.623046875" xlink:href="#BitstreamVeraSans-Roman-2e"/>
       <use x="95.41015625" xlink:href="#BitstreamVeraSans-Roman-35"/>
      </g>
     </g>
    </g>
   </g>
   <g id="matplotlib.axis_2">
    <g id="ytick_1">
     <g id="line2d_15">
      <defs>
       <path d="
M0 0
L4 0" id="m71e820122c" style="stroke:#000000;stroke-width:0.5;"/>
      </defs>
      <g>
       <use style="stroke:#000000;stroke-width:0.5;" x="122.4" xlink:href="#m71e820122c" y="388.8"/>
      </g>
     </g>
     <g id="line2d_16">
      <defs>
       <path d="
M0 0
L-4 0" id="m81ec2b1422" style="stroke:#000000;stroke-width:0.5;"/>
      </defs>
      <g>
       <use style="stroke:#000000;stroke-width:0.5;" x="468.0" xlink:href="#m81ec2b1422" y="388.8"/>
      </g>
     </g>
     <g id="text_8">
      <!-- −1.5 -->
      <g transform="translate(91.58 392.11125)scale(0.12 -0.12)">
       <use xlink:href="#BitstreamVeraSans-Roman-2212"/>
       <use x="83.7890625" xlink:href="#BitstreamVeraSans-Roman-31"/>
       <use x="147.412109375" xlink:href="#BitstreamVeraSans-Roman-2e"/>
       <use x="179.19921875" xlink:href="#BitstreamVeraSans-Roman-35"/>
      </g>
     </g>
    </g>
    <g id="ytick_2">
     <g id="line2d_17">
      <g>
       <use style="stroke:#000000;stroke-width:0.5;" x="122.4" xlink:href="#m71e820122c" y="331.2"/>
      </g>
     </g>
     <g id="line2d_18">
      <g>
       <use style="stroke:#000000;stroke-width:0.5;" x="468.0" xlink:href="#m81ec2b1422" y="331.2"/>
      </g>
     </g>
     <g id="text_9">
      <!-- −1.0 -->
      <g transform="translate(91.32875 334.51125)scale(0.12 -0.12)">
       <use xlink:href="#BitstreamVeraSans-Roman-2212"/>
       <use x="83.7890625" xlink:href="#BitstreamVeraSans-Roman-31"/>
       <use x="147.412109375" xlink:href="#BitstreamVeraSans-Roman-2e"/>
       <use x="179.19921875" xlink:href="#BitstreamVeraSans-Roman-30"/>
      </g>
     </g>
    </g>
    <g id="ytick_3">
     <g id="line2d_19">
      <g>
       <use style="stroke:#000000;stroke-width:0.5;" x="122.4" xlink:href="#m71e820122c" y="273.6"/>
      </g>
     </g>
     <g id="line2d_20">
      <g>
       <use style="stroke:#000000;stroke-width:0.5;" x="468.0" xlink:href="#m81ec2b1422" y="273.6"/>
      </g>
     </g>
     <g id="text_10">
      <!-- −0.5 -->
      <g transform="translate(91.58 276.91125)scale(0.12 -0.12)">
       <use xlink:href="#BitstreamVeraSans-Roman-2212"/>
       <use x="83.7890625" xlink:href="#BitstreamVeraSans-Roman-30"/>
       <use x="147.412109375" xlink:href="#BitstreamVeraSans-Roman-2e"/>
       <use x="179.19921875" xlink:href="#BitstreamVeraSans-Roman-35"/>
      </g>
     </g>
    </g>
    <g id="ytick_4">
     <g id="line2d_21">
      <g>
       <use style="stroke:#000000;stroke-width:0.5;" x="122.4" xlink:href="#m71e820122c" y="216.0"/>
      </g>
     </g>
     <g id="line2d_22">
      <g>
       <use style="stroke:#000000;stroke-width:0.5;" x="468.0" xlink:href="#m81ec2b1422" y="216.0"/>
      </g>
     </g>
     <g id="text_11">
      <!-- 0.0 -->
      <g transform="translate(100.904375 219.31125)scale(0.12 -0.12)">
       <use xlink:href="#BitstreamVeraSans-Roman-30"/>
       <use x="63.623046875" xlink:href="#BitstreamVeraSans-Roman-2e"/>
       <use x="95.41015625" xlink:href="#BitstreamVeraSans-Roman-30"/>
      </g>
     </g>
    </g>
    <g id="ytick_5">
     <g id="line2d_23">
      <g>
       <use style="stroke:#000000;stroke-width:0.5;" x="122.4" xlink:href="#m71e820122c" y="158.4"/>
      </g>
     </g>
     <g id="line2d_24">
      <g>
       <use style="stroke:#000000;stroke-width:0.5;" x="468.0" xlink:href="#m81ec2b1422" y="158.4"/>
      </g>
     </g>
     <g id="text_12">
      <!-- 0.5 -->
      <g transform="translate(101.155625 161.71125)scale(0.12 -0.12)">
       <use xlink:href="#BitstreamVeraSans-Roman-30"/>
       <use x="63.623046875" xlink:href="#BitstreamVeraSans-Roman-2e"/>
       <use x="95.41015625" xlink:href="#BitstreamVeraSans-Roman-35"/>
      </g>
     </g>
    </g>
    <g id="ytick_6">
     <g id="line2d_25">
      <g>
       <use style="stroke:#000000;stroke-width:0.5;" x="122.4" xlink:href="#m71e820122c" y="100.8"/>
      </g>
     </g>
     <g id="line2d_26">
      <g>
       <use style="stroke:#000000;stroke-width:0.5;" x="468.0" xlink:href="#m81ec2b1422" y="100.8"/>
      </g>
     </g>
     <g id="text_13">
      <!-- 1.0 -->
      <g transform="translate(101.43125 104.11125)scale(0.12 -0.12)">
       <use xlink:href="#BitstreamVeraSans-Roman-31"/>
       <use x="63.623046875" xlink:href="#BitstreamVeraSans-Roman-2e"/>
       <use x="95.41015625" xlink:href="#BitstreamVeraSans-Roman-30"/>
      </g>
     </g>
    </g>
    <g id="ytick_7">
     <g id="line2d_27">
      <g>
       <use style="stroke:#000000;stroke-width:0.5;" x="122.4" xlink:href="#m71e820122c" y="43.2"/>
      </g>
     </g>
     <g id="line2d_28">
      <g>
       <use style="stroke:#000000;stroke-width:0.5;" x="468.0" xlink:href="#m81ec2b1422" y="43.2"/>
      </g>
     </g>
     <g id="text_14">
      <!-- 1.5 -->
      <g transform="translate(101.6825 46.51125)scale(0.12 -0.12)">
       <use xlink:href="#BitstreamVeraSans-Roman-31"/>
       <use x="63.623046875" xlink:href="#BitstreamVeraSans-Roman-2e"/>
       <use x="95.41015625" xlink:href="#BitstreamVeraSans-Roman-35"/>
      </g>
     </g>
    </g>
   </g>
  </g>
 </g>
 <defs>
  <clipPath id="p23ab9b749c">
   <rect height="345.6" width="345.6" x="122.4" y="43.2"/>
  </clipPath>
 </defs>
</svg>
