<?xml version="1.0" encoding="utf-8" standalone="no"?>
<!DOCTYPE svg PUBLIC "-//W3C//DTD SVG 1.1//EN"
  "http://www.w3.org/Graphics/SVG/1.1/DTD/svg11.dtd">
<!-- Created with matplotlib (http://matplotlib.org/) -->
<svg height="432pt" version="1.1" viewBox="0 0 576 432" width="576pt" xmlns="http://www.w3.org/2000/svg" xmlns:xlink="http://www.w3.org/1999/xlink">
 <defs>
  <style type="text/css">
*{stroke-linecap:butt;stroke-linejoin:round;}
  </style>
 </defs>
 <g id="figure_1">
  <g id="patch_1">
   <path d="
M0 432
L576 432
L576 0
L0 0
z
" style="fill:#ffffff;"/>
  </g>
  <g id="axes_1">
   <g id="patch_2">
    <path d="
M122.4 388.8
L468 388.8
L468 43.2
L122.4 43.2
z
" style="fill:#ffffff;"/>
   </g>
   <g id="patch_3">
    <path clip-path="url(#p23ab9b749c)" d="
M295.2 331.2
C325.751 331.2 355.056 319.062 376.659 297.459
C398.262 275.856 410.4 246.551 410.4 216
C410.4 185.449 398.262 156.144 376.659 134.541
C355.056 112.938 325.751 100.8 295.2 100.8
C264.649 100.8 235.344 112.938 213.741 134.541
C192.138 156.144 180 185.449 180 216
C180 246.551 192.138 275.856 213.741 297.459
C235.344 319.062 264.649 331.2 295.2 331.2
L295.2 331.2" style="fill:none;stroke:#000000;stroke-dasharray:6.000000,6.000000;stroke-dashoffset:0.0;stroke-linejoin:miter;"/>
   </g>
   <g id="LineCollection_1">
    <path clip-path="url(#p23ab9b749c)" d="
M283.104 319.768
L288.288 320.519
L293.472 320.956
L298.656 321.1
L303.84 320.958
L307.296 320.701
L307.576 319.68
L309.024 318.54
L309.362 317.952
L310.752 316.724
L312.195 317.952
L312.48 319.73
L314.665 319.68
L314.208 319.649
L313.045 317.952
L314.208 317.023
L315.496 317.952
L315.936 319.459
L317.664 318.166
L319.392 318.744
L324.576 317.399
L326.304 316.885
L326.401 316.224
L328.032 314.754
L328.55 314.496
L329.76 313.492
L331.274 314.496
L331.488 315.139
L333.216 314.473
L333.789 311.04
L334.944 310.003
L336.293 311.04
L336.672 312.824
L338.4 311.267
L340.128 311.582
L341.26 311.04
L340.539 309.312
L341.32 307.584
L341.856 307.131
L343.584 306.535
L345.312 306.416
L347.04 307.741
L348.267 307.584
L348.768 307.333
L349.174 305.856
L348.768 305.317
L347.04 304.498
L346.857 304.128
L347.04 303.972
L348.371 302.4
L348.768 301.512
L349.836 300.672
L350.496 300.472
L352.224 300.356
L352.732 300.672
L353.231 302.4
L353.952 303.138
L354.559 302.4
L354.985 300.672
L355.68 300.058
L357.408 299.873
L358.737 300.672
L359.136 301.753
L369.504 295.77
L375.347 292.032
L378.144 290.082
L382.399 286.848
L385.056 284.638
L388.512 281.494
L391.968 278.013
L395.424 274.122
L397.696 271.296
L400.608 267.258
L402.482 264.384
L404.532 260.928
L406.365 257.472
L407.996 254.016
L409.435 250.56
L410.976 246.275
L411.821 243.648
L413.178 238.464
L413.899 235.008
L414.708 229.824
L415.236 224.64
L415.489 219.456
L415.522 214.272
L415.349 209.088
L414.918 203.904
L414.198 198.72
L413.56 195.264
L412.308 190.08
L410.976 185.725
L410.103 183.168
L407.996 177.984
L405.471 172.8
L403.54 169.344
L400.608 164.742
L398.88 162.298
L396.335 158.976
L393.382 155.52
L390.105 152.064
L386.465 148.608
L382.399 145.152
L379.872 143.19
L375.347 139.968
L371.232 137.287
L364.102 133.056
L359.136 130.247
L358.737 131.328
L357.408 132.127
L356.504 131.328
L356.202 129.6
L355.68 129.274
L355.244 129.6
L354.221 133.056
L353.952 133.222
L352.161 133.056
L352.224 132.952
L353.439 131.328
L352.224 129.863
L350.496 131.528
L348.768 132.091
L348.654 131.328
L348.768 131.145
L349.959 129.6
L350.496 128.708
L352.224 128.876
L352.611 127.872
L352.224 127.524
L350.496 127.308
L349.776 127.872
L348.768 128.515
L347.04 129.847
L345.312 129.757
L345.134 129.6
L345.312 129.324
L346.857 127.872
L347.658 126.144
L347.04 123.779
L345.312 124.142
L343.584 122.574
L343.455 122.688
L343.121 124.416
L340.986 126.144
L340.128 126.79
L338.4 126.438
L338.066 126.144
L338.4 125.654
L340.128 125.185
L340.814 124.416
L340.128 120.418
L338.4 120.733
L336.589 119.232
L336.293 120.96
L337.847 122.688
L336.672 123.585
L331.932 119.232
L333.153 117.504
L331.488 117.338
L329.76 116.248
L324.576 114.601
L323.976 117.504
L322.848 118.365
L321.846 117.504
L321.54 115.776
L321.12 115.493
L319.392 113.94
L315.936 113.846
L314.208 112.234
L310.752 111.693
L307.296 111.299
L305.568 112.046
L303.84 111.042
L298.656 110.9
L293.472 111.044
L288.288 111.481
L283.104 112.232
L277.92 113.246
L272.736 114.58
L267.552 116.22
L262.368 118.171
L258.912 119.659
L257.184 120.838
L256.158 120.96
L252.75 122.688
L249.609 124.416
L246.692 126.144
L243.36 128.254
L243.034 129.6
L241.632 130.898
L239.904 130.624
L236.448 133.195
L232.343 136.512
L230.358 138.24
L231.264 138.479
L232.182 139.968
L231.264 140.866
L229.818 139.968
L229.536 138.979
L228.472 139.968
L228.994 141.696
L230.15 143.424
L229.536 144.033
L227.808 142.873
L224.956 143.424
L226.08 143.729
L226.967 145.152
L226.08 146.042
L224.649 145.152
L224.352 144.041
L220.896 147.692
L218.585 150.336
L215.712 153.917
L213.242 157.248
L209.807 162.432
L206.81 167.616
L205.025 171.072
L203.41 174.528
L201.954 177.984
L203.26 179.712
L201.888 181.234
L200.631 181.44
L198.933 186.624
L197.538 191.808
L196.447 196.992
L195.617 202.176
L195.076 207.36
L194.777 212.544
L194.734 217.728
L194.976 223.216
L195.406 228.096
L196.136 233.28
L197.144 238.464
L197.973 241.92
L199.462 247.104
L201.266 252.288
L203.616 257.915
L205.344 261.551
L205.383 260.928
L207.072 259.525
L208.393 260.928
L207.072 262.515
L205.891 262.656
L207.758 266.112
L210.907 271.296
L213.984 275.774
L215.807 278.208
L219.168 282.345
L222.624 286.174
L226.675 290.304
L230.358 293.76
L232.992 296.04
L234.434 297.216
L234.72 297.267
L236.632 298.944
L239.904 301.376
L245.088 304.87
L250.272 307.969
L255.456 310.706
L260.64 313.099
L264.096 314.498
L267.552 315.78
L272.736 317.42
L277.92 318.754
L283.104 319.768
L283.104 319.768" style="fill:none;stroke:#000000;"/>
    <path clip-path="url(#p23ab9b749c)" d="
M314.208 315.735
L313.166 314.496
L314.208 313.572
L315.304 314.496
L314.208 315.735" style="fill:none;stroke:#000000;"/>
    <path clip-path="url(#p23ab9b749c)" d="
M310.752 313.39
L310.262 312.768
L310.752 312.355
L311.269 312.768
L310.752 313.39" style="fill:none;stroke:#000000;"/>
    <path clip-path="url(#p23ab9b749c)" d="
M317.664 313.868
L316.747 312.768
L317.664 311.952
L318.641 312.768
L317.664 313.868" style="fill:none;stroke:#000000;"/>
    <path clip-path="url(#p23ab9b749c)" d="
M324.576 311.921
L323.892 311.04
L324.576 310.44
L326.304 310.314
L327.216 311.04
L326.304 312.075
L324.576 311.921" style="fill:none;stroke:#000000;"/>
    <path clip-path="url(#p23ab9b749c)" d="
M331.488 312.326
L330.494 311.04
L331.488 310.151
L332.627 311.04
L331.488 312.326" style="fill:none;stroke:#000000;"/>
    <path clip-path="url(#p23ab9b749c)" d="
M343.584 309.944
L344.829 309.312
L343.584 309.173
L343.455 309.312
L343.584 309.944" style="fill:none;stroke:#000000;"/>
    <path clip-path="url(#p23ab9b749c)" d="
M324.576 307.744
L324.457 307.584
L324.576 307.481
L324.712 307.584
L324.576 307.744" style="fill:none;stroke:#000000;"/>
    <path clip-path="url(#p23ab9b749c)" d="
M329.76 305.924
L329.711 305.856
L329.76 305.813
L329.818 305.856
L329.76 305.924" style="fill:none;stroke:#000000;"/>
    <path clip-path="url(#p23ab9b749c)" d="
M329.76 302.559
L329.636 302.4
L329.76 302.289
L329.901 302.4
L329.76 302.559" style="fill:none;stroke:#000000;"/>
    <path clip-path="url(#p23ab9b749c)" d="
M336.672 302.727
L336.423 302.4
L336.554 300.672
L336.672 300.566
L336.811 300.672
L336.965 302.4
L336.672 302.727" style="fill:none;stroke:#000000;"/>
    <path clip-path="url(#p23ab9b749c)" d="
M343.584 302.541
L343.492 302.4
L343.584 302.318
L344.072 302.4
L343.584 302.541" style="fill:none;stroke:#000000;"/>
    <path clip-path="url(#p23ab9b749c)" d="
M353.952 299.261
L353.766 298.944
L353.952 298.778
L354.221 298.944
L353.952 299.261" style="fill:none;stroke:#000000;"/>
    <path clip-path="url(#p23ab9b749c)" d="
M213.984 261.483
L213.381 260.928
L213.984 260.466
L214.413 260.928
L213.984 261.483" style="fill:none;stroke:#000000;"/>
    <path clip-path="url(#p23ab9b749c)" d="
M213.984 252.444
L213.811 252.288
L213.984 252.154
L214.106 252.288
L213.984 252.444" style="fill:none;stroke:#000000;"/>
    <path clip-path="url(#p23ab9b749c)" d="
M208.8 249.377
L208.187 248.832
L208.8 248.352
L209.231 248.832
L208.8 249.377" style="fill:none;stroke:#000000;"/>
    <path clip-path="url(#p23ab9b749c)" d="
M200.16 239.756
L198.67 238.464
L200.16 237.271
L201.206 238.464
L200.16 239.756" style="fill:none;stroke:#000000;"/>
    <path clip-path="url(#p23ab9b749c)" d="
M295.2 216
L295.2 216
L295.2 216
L295.2 216
L295.2 216" style="fill:none;stroke:#000000;"/>
    <path clip-path="url(#p23ab9b749c)" d="
M213.984 174.84
L213.579 174.528
L213.984 174.158
L214.271 174.528
L213.984 174.84" style="fill:none;stroke:#000000;"/>
    <path clip-path="url(#p23ab9b749c)" d="
M215.712 160.025
L214.318 158.976
L215.712 157.652
L216.714 158.976
L215.712 160.025" style="fill:none;stroke:#000000;"/>
    <path clip-path="url(#p23ab9b749c)" d="
M340.128 131.505
L339.933 131.328
L340.128 131.068
L341.163 131.328
L340.128 131.505" style="fill:none;stroke:#000000;"/>
    <path clip-path="url(#p23ab9b749c)" d="
M334.944 128.189
L334.592 127.872
L334.944 127.411
L336.672 127.807
L336.728 127.872
L336.672 127.912
L334.944 128.189" style="fill:none;stroke:#000000;"/>
    <path clip-path="url(#p23ab9b749c)" d="
M329.76 123.094
L329.293 122.688
L329.76 122.043
L330.309 122.688
L329.76 123.094" style="fill:none;stroke:#000000;"/>
    <path clip-path="url(#p23ab9b749c)" d="
M310.752 121.465
L310.171 120.96
L310.752 120.261
L311.357 120.96
L310.752 121.465" style="fill:none;stroke:#000000;"/>
    <path clip-path="url(#p23ab9b749c)" d="
M329.76 119.874
L328.987 119.232
L329.76 117.999
L330.727 119.232
L329.76 119.874" style="fill:none;stroke:#000000;"/>
    <path clip-path="url(#p23ab9b749c)" d="
M317.664 116.732
L316.543 115.776
L317.664 114.313
L318.889 115.776
L317.664 116.732" style="fill:none;stroke:#000000;"/>
   </g>
   <g id="LineCollection_2">
    <path clip-path="url(#p23ab9b749c)" d="
M286.56 295.767
L288.288 296.093
L290.016 296.373
L293.472 296.799
L296.928 297.063
L302.112 297.176
L305.568 297.068
L309.024 296.809
L312.48 296.389
L315.936 295.792
L321.12 294.636
L326.304 293.112
L331.488 291.239
L336.672 289.006
L341.856 286.437
L347.04 283.513
L352.709 279.936
L355.68 277.892
L360.864 273.984
L364.32 271.075
L367.818 267.84
L371.232 264.327
L374.193 260.928
L376.855 257.472
L379.872 252.943
L381.284 250.56
L383.328 246.589
L384.662 243.648
L386.567 238.464
L388.003 233.28
L388.974 228.096
L389.4 224.64
L389.65 221.184
L389.772 216
L389.65 210.816
L389.4 207.36
L388.974 203.904
L388.003 198.72
L387.097 195.264
L385.351 190.08
L383.092 184.896
L381.284 181.44
L379.217 177.984
L376.416 173.942
L374.193 171.072
L371.18 167.616
L367.776 164.119
L364.067 160.704
L359.885 157.248
L357.408 155.37
L352.709 152.064
L348.768 149.514
L343.584 146.498
L338.4 143.812
L331.488 140.761
L326.304 138.888
L321.12 137.364
L315.936 136.208
L312.48 135.611
L309.024 135.191
L305.568 134.932
L300.384 134.825
L296.928 134.937
L293.472 135.201
L290.016 135.627
L286.56 136.233
L281.376 137.404
L276.192 138.952
L271.008 140.867
L265.357 143.424
L262.016 145.152
L258.912 146.926
L255.456 149.09
L251.271 152.064
L248.544 154.209
L245.071 157.248
L241.542 160.704
L238.176 164.44
L235.618 167.616
L232.992 171.323
L230.946 174.528
L228.981 177.984
L227.25 181.44
L225.735 184.896
L224.352 188.566
L223.263 191.808
L221.887 196.992
L221.192 200.448
L220.429 205.632
L220.109 209.088
L219.909 214.272
L219.942 219.456
L220.249 224.64
L220.651 228.096
L221.515 233.28
L222.314 236.736
L223.813 241.92
L225.735 247.104
L228.096 252.288
L229.934 255.744
L232.007 259.2
L234.72 263.155
L236.972 266.112
L239.935 269.568
L243.36 273.132
L247.001 276.48
L250.272 279.18
L253.728 281.715
L257.184 284.032
L262.368 287.046
L265.824 288.813
L269.28 290.385
L272.736 291.8
L278.528 293.76
L281.376 294.596
L285.276 295.488
L286.56 295.767
L286.56 295.767" style="fill:none;stroke:#000000;"/>
    <path clip-path="url(#p23ab9b749c)" d="
M295.2 216
L295.2 216
L295.2 216
L295.2 216
L295.2 216" style="fill:none;stroke:#000000;"/>
   </g>
   <g id="LineCollection_3">
    <path clip-path="url(#p23ab9b749c)" d="
M290.016 280.191
L291.744 280.495
L293.472 280.744
L296.928 281.089
L300.384 281.25
L303.84 281.237
L307.296 281.052
L310.752 280.682
L315.002 279.936
L317.664 279.393
L321.12 278.461
L326.933 276.48
L329.76 275.36
L334.944 272.882
L338.4 270.993
L341.856 268.884
L347.04 265.249
L350.496 262.468
L354.145 259.2
L357.567 255.744
L360.864 251.965
L363.298 248.832
L366.048 244.722
L367.692 241.92
L369.504 238.364
L370.969 235.008
L372.208 231.552
L373.13 228.096
L373.84 224.64
L374.247 221.184
L374.406 217.728
L374.353 212.544
L374.078 209.088
L373.527 205.632
L372.698 202.176
L371.619 198.72
L370.273 195.264
L368.64 191.808
L366.048 187.278
L364.32 184.644
L361.997 181.44
L359.121 177.984
L355.68 174.297
L352.224 171.039
L348.145 167.616
L345.312 165.484
L340.745 162.432
L337.849 160.704
L334.944 159.118
L329.76 156.64
L326.304 155.265
L322.848 154.064
L317.664 152.607
L312.48 151.579
L309.024 151.109
L305.568 150.833
L302.112 150.735
L298.656 150.809
L295.2 151.06
L291.744 151.505
L286.56 152.516
L283.104 153.435
L277.92 155.183
L272.736 157.427
L269.28 159.213
L265.824 161.258
L261.65 164.16
L258.912 166.324
L255.456 169.453
L252 173.071
L249.355 176.256
L246.816 179.841
L244.739 183.168
L242.885 186.624
L241.31 190.08
L239.989 193.536
L238.392 198.72
L237.258 203.904
L236.781 207.36
L236.448 211.961
L236.369 214.272
L236.417 219.456
L236.781 224.64
L237.258 228.096
L237.972 231.552
L239.383 236.736
L241.31 241.92
L243.775 247.104
L245.762 250.56
L248.544 254.644
L250.743 257.472
L253.843 260.928
L257.429 264.384
L260.64 267.082
L264.096 269.577
L267.552 271.804
L271.008 273.729
L274.464 275.394
L277.92 276.817
L281.376 278.026
L286.56 279.484
L290.016 280.191
L290.016 280.191" style="fill:none;stroke:#000000;"/>
    <path clip-path="url(#p23ab9b749c)" d="
M295.2 216
L295.2 216
L295.2 216
L295.2 216
L295.2 216" style="fill:none;stroke:#000000;"/>
   </g>
   <g id="LineCollection_4">
    <path clip-path="url(#p23ab9b749c)" d="
M290.016 268.167
L291.744 268.53
L293.472 268.821
L296.928 269.218
L300.384 269.398
L303.84 269.383
L307.296 269.172
L310.752 268.746
L314.208 268.067
L319.392 266.705
L324.576 264.806
L329.76 262.368
L333.216 260.432
L337.692 257.472
L340.128 255.641
L343.584 252.772
L345.963 250.56
L349.299 247.104
L352.227 243.648
L354.903 240.192
L358.369 235.008
L360.864 230.534
L362.056 228.096
L363.405 224.64
L363.907 222.912
L364.569 219.456
L364.756 217.728
L364.816 216
L364.756 214.272
L364.32 211.2
L363.907 209.088
L363.405 207.36
L362.056 203.904
L360.355 200.448
L358.369 196.992
L354.903 191.808
L352.224 188.349
L349.299 184.896
L345.963 181.44
L343.584 179.228
L339.993 176.256
L336.672 173.792
L331.488 170.562
L328.032 168.746
L324.576 167.194
L321.062 165.888
L317.664 164.776
L312.48 163.558
L309.024 163.012
L305.568 162.697
L302.112 162.586
L298.656 162.667
L295.2 162.951
L291.744 163.47
L288.288 164.253
L284.832 165.203
L279.648 167.169
L274.464 169.769
L271.008 171.911
L267.512 174.528
L265.453 176.256
L263.599 177.984
L261.919 179.712
L259.001 183.168
L256.513 186.624
L254.449 190.08
L252.733 193.536
L250.737 198.72
L249.329 203.904
L248.731 207.36
L248.196 212.544
L248.094 216
L248.196 219.456
L248.544 223.071
L248.996 226.368
L249.741 229.824
L251.328 235.008
L252.733 238.464
L254.449 241.92
L257.184 246.346
L257.693 247.104
L260.64 250.843
L262.368 252.763
L264.096 254.5
L265.824 256.076
L269.772 259.2
L272.339 260.928
L274.464 262.231
L278.717 264.384
L281.376 265.557
L286.56 267.317
L290.016 268.167
L290.016 268.167" style="fill:none;stroke:#000000;"/>
    <path clip-path="url(#p23ab9b749c)" d="
M295.2 216
L295.2 216
L295.2 216
L295.2 216
L295.2 216" style="fill:none;stroke:#000000;"/>
   </g>
   <g id="LineCollection_5">
    <path clip-path="url(#p23ab9b749c)" d="
M293.472 259.463
L295.2 259.753
L296.928 259.964
L300.384 260.177
L303.84 260.135
L307.296 259.837
L310.953 259.2
L314.208 258.501
L317.664 257.396
L319.392 256.807
L322.848 255.319
L326.304 253.542
L329.76 251.442
L333.345 248.832
L336.672 246.08
L339.23 243.648
L342.446 240.192
L345.312 236.689
L349.278 231.552
L352.224 227.833
L356.25 222.912
L357.408 220.994
L358.179 219.456
L358.652 217.728
L358.788 216
L358.652 214.272
L358.179 212.544
L357.314 210.816
L355.68 208.294
L348.768 199.788
L345.276 195.264
L342.446 191.808
L339.23 188.352
L336.672 185.92
L333.216 183.065
L329.76 180.558
L325.382 177.984
L322.848 176.681
L317.664 174.604
L312.48 173.09
L307.296 172.163
L303.84 171.865
L300.384 171.823
L296.928 172.036
L293.472 172.537
L288.288 173.726
L284.832 174.923
L281.823 176.256
L279.648 177.316
L275.795 179.712
L273.433 181.44
L271.381 183.168
L269.28 185.185
L266.464 188.352
L265.156 190.08
L262.925 193.536
L261.135 196.992
L259.712 200.448
L258.669 203.904
L257.864 207.36
L257.403 210.816
L257.197 214.272
L257.197 217.728
L257.403 221.184
L257.864 224.64
L258.669 228.096
L260.408 233.28
L262.368 237.397
L262.925 238.464
L265.156 241.92
L267.552 244.934
L269.563 247.104
L272.736 250.014
L275.795 252.288
L277.92 253.678
L281.823 255.744
L283.104 256.374
L286.56 257.688
L288.288 258.274
L291.744 259.111
L293.472 259.463
L293.472 259.463" style="fill:none;stroke:#000000;"/>
    <path clip-path="url(#p23ab9b749c)" d="
M295.2 216
L295.2 216
L295.2 216
L295.2 216
L295.2 216" style="fill:none;stroke:#000000;"/>
   </g>
   <g id="LineCollection_6">
    <path clip-path="url(#p23ab9b749c)" d="
M296.928 252.473
L298.656 252.637
L300.384 252.713
L303.84 252.615
L307.296 252.204
L310.752 251.573
L314.059 250.56
L315.936 249.956
L319.392 248.451
L322.848 246.603
L326.304 244.341
L329.76 241.586
L333.025 238.464
L334.944 236.346
L337.405 233.28
L340.831 228.096
L343.584 223.347
L345.312 220.976
L347.04 219.828
L348.768 219.693
L350.496 219.786
L352.354 219.456
L353.952 218.893
L354.975 217.728
L355.516 216
L354.975 214.272
L353.952 213.107
L352.224 212.46
L350.496 212.214
L348.768 212.307
L347.04 212.172
L345.166 210.816
L343.584 208.653
L340.831 203.904
L337.405 198.72
L334.618 195.264
L331.488 192.002
L329.365 190.08
L326.304 187.659
L322.848 185.397
L318.496 183.168
L315.936 182.044
L310.752 180.427
L307.296 179.796
L302.112 179.295
L298.656 179.363
L295.2 179.765
L291.744 180.391
L290.016 180.872
L286.56 182.081
L283.104 183.711
L279.648 185.811
L276.423 188.352
L276.192 188.549
L274.464 190.197
L272.736 192.072
L271.008 194.262
L270.275 195.264
L268.225 198.72
L266.669 202.176
L265.579 205.632
L265.118 207.36
L264.544 210.816
L264.315 214.272
L264.315 217.728
L264.544 221.184
L265.118 224.64
L266.086 228.096
L266.669 229.824
L268.225 233.28
L270.275 236.736
L272.736 239.928
L272.958 240.192
L274.58 241.92
L276.423 243.648
L278.561 245.376
L279.648 246.189
L283.104 248.289
L286.56 249.919
L291.744 251.609
L295.2 252.235
L296.928 252.473
L296.928 252.473" style="fill:none;stroke:#000000;"/>
    <path clip-path="url(#p23ab9b749c)" d="
M295.2 216
L295.2 216
L295.2 216
L295.2 216
L295.2 216" style="fill:none;stroke:#000000;"/>
   </g>
   <g id="LineCollection_7">
    <path clip-path="url(#p23ab9b749c)" d="
M293.472 245.852
L295.2 246.21
L298.656 246.587
L302.112 246.605
L305.568 246.28
L307.296 245.966
L310.752 245.072
L312.48 244.523
L315.936 243.061
L319.392 241.175
L323.214 238.464
L325.285 236.736
L327.094 235.008
L328.692 233.28
L330.093 231.552
L332.476 228.096
L334.217 224.64
L335.286 221.184
L335.624 219.456
L335.781 217.728
L335.781 214.272
L335.624 212.544
L335.286 210.816
L334.217 207.36
L332.476 203.904
L330.093 200.448
L328.032 197.994
L326.304 196.209
L324.576 194.631
L321.12 191.989
L317.664 189.864
L315.936 188.939
L310.752 186.928
L305.568 185.72
L302.112 185.395
L298.656 185.413
L295.2 185.79
L293.472 186.148
L288.288 187.776
L284.832 189.469
L281.376 191.835
L279.337 193.536
L277.614 195.264
L274.878 198.72
L272.923 202.176
L271.478 205.632
L270.238 210.816
L269.918 214.272
L269.918 217.728
L270.238 221.184
L270.567 222.912
L271.478 226.368
L272.115 228.096
L273.795 231.552
L274.878 233.28
L277.614 236.736
L279.648 238.754
L283.104 241.46
L286.56 243.416
L290.016 244.883
L293.472 245.852
L293.472 245.852" style="fill:none;stroke:#000000;"/>
    <path clip-path="url(#p23ab9b749c)" d="
M295.2 216
L295.2 216
L295.2 216
L295.2 216
L295.2 216" style="fill:none;stroke:#000000;"/>
    <path clip-path="url(#p23ab9b749c)" d="
M352.224 217.194
L353.616 216
L352.224 214.806
L351.052 216
L352.224 217.194" style="fill:none;stroke:#000000;"/>
   </g>
   <g id="patch_4">
    <path d="
M122.4 43.2
L468 43.2
L468 43.2" style="fill:none;stroke:#000000;stroke-linecap:square;stroke-linejoin:miter;"/>
   </g>
   <g id="patch_5">
    <path d="
M468 388.8
L468 43.2
L468 43.2" style="fill:none;stroke:#000000;stroke-linecap:square;stroke-linejoin:miter;"/>
   </g>
   <g id="patch_6">
    <path d="
M122.4 388.8
L468 388.8
L468 388.8" style="fill:none;stroke:#000000;stroke-linecap:square;stroke-linejoin:miter;"/>
   </g>
   <g id="patch_7">
    <path d="
M122.4 388.8
L122.4 43.2
L122.4 43.2" style="fill:none;stroke:#000000;stroke-linecap:square;stroke-linejoin:miter;"/>
   </g>
   <g id="matplotlib.axis_1">
    <g id="xtick_1">
     <g id="line2d_1">
      <defs>
       <path d="
M0 0
L0 -4" id="mb1445623b5" style="stroke:#000000;stroke-width:0.5;"/>
      </defs>
      <g>
       <use style="stroke:#000000;stroke-width:0.5;" x="122.4" xlink:href="#mb1445623b5" y="388.8"/>
      </g>
     </g>
     <g id="line2d_2">
      <defs>
       <path d="
M0 0
L0 4" id="m3a68111ca7" style="stroke:#000000;stroke-width:0.5;"/>
      </defs>
      <g>
       <use style="stroke:#000000;stroke-width:0.5;" x="122.4" xlink:href="#m3a68111ca7" y="43.2"/>
      </g>
     </g>
     <g id="text_1">
      <!-- −1.5 -->
      <defs>
       <path d="
M10.5938 35.5
L73.1875 35.5
L73.1875 27.2031
L10.5938 27.2031
z
" id="BitstreamVeraSans-Roman-2212"/>
       <path d="
M12.4062 8.29688
L28.5156 8.29688
L28.5156 63.9219
L10.9844 60.4062
L10.9844 69.3906
L28.4219 72.9062
L38.2812 72.9062
L38.2812 8.29688
L54.3906 8.29688
L54.3906 0
L12.4062 0
z
" id="BitstreamVeraSans-Roman-31"/>
       <path d="
M10.6875 12.4062
L21 12.4062
L21 0
L10.6875 0
z
" id="BitstreamVeraSans-Roman-2e"/>
       <path d="
M10.7969 72.9062
L49.5156 72.9062
L49.5156 64.5938
L19.8281 64.5938
L19.8281 46.7344
Q21.9688 47.4688 24.1094 47.8281
Q26.2656 48.1875 28.4219 48.1875
Q40.625 48.1875 47.75 41.5
Q54.8906 34.8125 54.8906 23.3906
Q54.8906 11.625 47.5625 5.09375
Q40.2344 -1.42188 26.9062 -1.42188
Q22.3125 -1.42188 17.5469 -0.640625
Q12.7969 0.140625 7.71875 1.70312
L7.71875 11.625
Q12.1094 9.23438 16.7969 8.0625
Q21.4844 6.89062 26.7031 6.89062
Q35.1562 6.89062 40.0781 11.3281
Q45.0156 15.7656 45.0156 23.3906
Q45.0156 31 40.0781 35.4375
Q35.1562 39.8906 26.7031 39.8906
Q22.75 39.8906 18.8125 39.0156
Q14.8906 38.1406 10.7969 36.2812
z
" id="BitstreamVeraSans-Roman-35"/>
      </defs>
      <g transform="translate(108.99 401.918125)scale(0.12 -0.12)">
       <use xlink:href="#BitstreamVeraSans-Roman-2212"/>
       <use x="83.7890625" xlink:href="#BitstreamVeraSans-Roman-31"/>
       <use x="147.412109375" xlink:href="#BitstreamVeraSans-Roman-2e"/>
       <use x="179.19921875" xlink:href="#BitstreamVeraSans-Roman-35"/>
      </g>
     </g>
    </g>
    <g id="xtick_2">
     <g id="line2d_3">
      <g>
       <use style="stroke:#000000;stroke-width:0.5;" x="180.0" xlink:href="#mb1445623b5" y="388.8"/>
      </g>
     </g>
     <g id="line2d_4">
      <g>
       <use style="stroke:#000000;stroke-width:0.5;" x="180.0" xlink:href="#m3a68111ca7" y="43.2"/>
      </g>
     </g>
     <g id="text_2">
      <!-- −1.0 -->
      <defs>
       <path d="
M31.7812 66.4062
Q24.1719 66.4062 20.3281 58.9062
Q16.5 51.4219 16.5 36.375
Q16.5 21.3906 20.3281 13.8906
Q24.1719 6.39062 31.7812 6.39062
Q39.4531 6.39062 43.2812 13.8906
Q47.125 21.3906 47.125 36.375
Q47.125 51.4219 43.2812 58.9062
Q39.4531 66.4062 31.7812 66.4062
M31.7812 74.2188
Q44.0469 74.2188 50.5156 64.5156
Q56.9844 54.8281 56.9844 36.375
Q56.9844 17.9688 50.5156 8.26562
Q44.0469 -1.42188 31.7812 -1.42188
Q19.5312 -1.42188 13.0625 8.26562
Q6.59375 17.9688 6.59375 36.375
Q6.59375 54.8281 13.0625 64.5156
Q19.5312 74.2188 31.7812 74.2188" id="BitstreamVeraSans-Roman-30"/>
      </defs>
      <g transform="translate(166.464375 401.918125)scale(0.12 -0.12)">
       <use xlink:href="#BitstreamVeraSans-Roman-2212"/>
       <use x="83.7890625" xlink:href="#BitstreamVeraSans-Roman-31"/>
       <use x="147.412109375" xlink:href="#BitstreamVeraSans-Roman-2e"/>
       <use x="179.19921875" xlink:href="#BitstreamVeraSans-Roman-30"/>
      </g>
     </g>
    </g>
    <g id="xtick_3">
     <g id="line2d_5">
      <g>
       <use style="stroke:#000000;stroke-width:0.5;" x="237.6" xlink:href="#mb1445623b5" y="388.8"/>
      </g>
     </g>
     <g id="line2d_6">
      <g>
       <use style="stroke:#000000;stroke-width:0.5;" x="237.6" xlink:href="#m3a68111ca7" y="43.2"/>
      </g>
     </g>
     <g id="text_3">
      <!-- −0.5 -->
      <g transform="translate(224.19 401.918125)scale(0.12 -0.12)">
       <use xlink:href="#BitstreamVeraSans-Roman-2212"/>
       <use x="83.7890625" xlink:href="#BitstreamVeraSans-Roman-30"/>
       <use x="147.412109375" xlink:href="#BitstreamVeraSans-Roman-2e"/>
       <use x="179.19921875" xlink:href="#BitstreamVeraSans-Roman-35"/>
      </g>
     </g>
    </g>
    <g id="xtick_4">
     <g id="line2d_7">
      <g>
       <use style="stroke:#000000;stroke-width:0.5;" x="295.2" xlink:href="#mb1445623b5" y="388.8"/>
      </g>
     </g>
     <g id="line2d_8">
      <g>
       <use style="stroke:#000000;stroke-width:0.5;" x="295.2" xlink:href="#m3a68111ca7" y="43.2"/>
      </g>
     </g>
     <g id="text_4">
      <!-- 0.0 -->
      <g transform="translate(286.4521875 401.918125)scale(0.12 -0.12)">
       <use xlink:href="#BitstreamVeraSans-Roman-30"/>
       <use x="63.623046875" xlink:href="#BitstreamVeraSans-Roman-2e"/>
       <use x="95.41015625" xlink:href="#BitstreamVeraSans-Roman-30"/>
      </g>
     </g>
    </g>
    <g id="xtick_5">
     <g id="line2d_9">
      <g>
       <use style="stroke:#000000;stroke-width:0.5;" x="352.8" xlink:href="#mb1445623b5" y="388.8"/>
      </g>
     </g>
     <g id="line2d_10">
      <g>
       <use style="stroke:#000000;stroke-width:0.5;" x="352.8" xlink:href="#m3a68111ca7" y="43.2"/>
      </g>
     </g>
     <g id="text_5">
      <!-- 0.5 -->
      <g transform="translate(344.1778125 401.918125)scale(0.12 -0.12)">
       <use xlink:href="#BitstreamVeraSans-Roman-30"/>
       <use x="63.623046875" xlink:href="#BitstreamVeraSans-Roman-2e"/>
       <use x="95.41015625" xlink:href="#BitstreamVeraSans-Roman-35"/>
      </g>
     </g>
    </g>
    <g id="xtick_6">
     <g id="line2d_11">
      <g>
       <use style="stroke:#000000;stroke-width:0.5;" x="410.4" xlink:href="#mb1445623b5" y="388.8"/>
      </g>
     </g>
     <g id="line2d_12">
      <g>
       <use style="stroke:#000000;stroke-width:0.5;" x="410.4" xlink:href="#m3a68111ca7" y="43.2"/>
      </g>
     </g>
     <g id="text_6">
      <!-- 1.0 -->
      <g transform="translate(401.915625 401.918125)scale(0.12 -0.12)">
       <use xlink:href="#BitstreamVeraSans-Roman-31"/>
       <use x="63.623046875" xlink:href="#BitstreamVeraSans-Roman-2e"/>
       <use x="95.41015625" xlink:href="#BitstreamVeraSans-Roman-30"/>
      </g>
     </g>
    </g>
    <g id="xtick_7">
     <g id="line2d_13">
      <g>
       <use style="stroke:#000000;stroke-width:0.5;" x="468.0" xlink:href="#mb1445623b5" y="388.8"/>
      </g>
     </g>
     <g id="line2d_14">
      <g>
       <use style="stroke:#000000;stroke-width:0.5;" x="468.0" xlink:href="#m3a68111ca7" y="43.2"/>
      </g>
     </g>
     <g id="text_7">
      <!-- 1.5 -->
      <g transform="translate(459.64125 401.918125)scale(0.12 -0.12)">
       <use xlink:href="#BitstreamVeraSans-Roman-31"/>
       <use x="63.623046875" xlink:href="#BitstreamVeraSans-Roman-2e"/>
       <use x="95.41015625" xlink:href="#BitstreamVeraSans-Roman-35"/>
      </g>
     </g>
    </g>
   </g>
   <g id="matplotlib.axis_2">
    <g id="ytick_1">
     <g id="line2d_15">
      <defs>
       <path d="
M0 0
L4 0" id="m71e820122c" style="stroke:#000000;stroke-width:0.5;"/>
      </defs>
      <g>
       <use style="stroke:#000000;stroke-width:0.5;" x="122.4" xlink:href="#m71e820122c" y="388.8"/>
      </g>
     </g>
     <g id="line2d_16">
      <defs>
       <path d="
M0 0
L-4 0" id="m81ec2b1422" style="stroke:#000000;stroke-width:0.5;"/>
      </defs>
      <g>
       <use style="stroke:#000000;stroke-width:0.5;" x="468.0" xlink:href="#m81ec2b1422" y="388.8"/>
      </g>
     </g>
     <g id="text_8">
      <!-- −1.5 -->
      <g transform="translate(91.58 392.11125)scale(0.12 -0.12)">
       <use xlink:href="#BitstreamVeraSans-Roman-2212"/>
       <use x="83.7890625" xlink:href="#BitstreamVeraSans-Roman-31"/>
       <use x="147.412109375" xlink:href="#BitstreamVeraSans-Roman-2e"/>
       <use x="179.19921875" xlink:href="#BitstreamVeraSans-Roman-35"/>
      </g>
     </g>
    </g>
    <g id="ytick_2">
     <g id="line2d_17">
      <g>
       <use style="stroke:#000000;stroke-width:0.5;" x="122.4" xlink:href="#m71e820122c" y="331.2"/>
      </g>
     </g>
     <g id="line2d_18">
      <g>
       <use style="stroke:#000000;stroke-width:0.5;" x="468.0" xlink:href="#m81ec2b1422" y="331.2"/>
      </g>
     </g>
     <g id="text_9">
      <!-- −1.0 -->
      <g transform="translate(91.32875 334.51125)scale(0.12 -0.12)">
       <use xlink:href="#BitstreamVeraSans-Roman-2212"/>
       <use x="83.7890625" xlink:href="#BitstreamVeraSans-Roman-31"/>
       <use x="147.412109375" xlink:href="#BitstreamVeraSans-Roman-2e"/>
       <use x="179.19921875" xlink:href="#BitstreamVeraSans-Roman-30"/>
      </g>
     </g>
    </g>
    <g id="ytick_3">
     <g id="line2d_19">
      <g>
       <use style="stroke:#000000;stroke-width:0.5;" x="122.4" xlink:href="#m71e820122c" y="273.6"/>
      </g>
     </g>
     <g id="line2d_20">
      <g>
       <use style="stroke:#000000;stroke-width:0.5;" x="468.0" xlink:href="#m81ec2b1422" y="273.6"/>
      </g>
     </g>
     <g id="text_10">
      <!-- −0.5 -->
      <g transform="translate(91.58 276.91125)scale(0.12 -0.12)">
       <use xlink:href="#BitstreamVeraSans-Roman-2212"/>
       <use x="83.7890625" xlink:href="#BitstreamVeraSans-Roman-30"/>
       <use x="147.412109375" xlink:href="#BitstreamVeraSans-Roman-2e"/>
       <use x="179.19921875" xlink:href="#BitstreamVeraSans-Roman-35"/>
      </g>
     </g>
    </g>
    <g id="ytick_4">
     <g id="line2d_21">
      <g>
       <use style="stroke:#000000;stroke-width:0.5;" x="122.4" xlink:href="#m71e820122c" y="216.0"/>
      </g>
     </g>
     <g id="line2d_22">
      <g>
       <use style="stroke:#000000;stroke-width:0.5;" x="468.0" xlink:href="#m81ec2b1422" y="216.0"/>
      </g>
     </g>
     <g id="text_11">
      <!-- 0.0 -->
      <g transform="translate(100.904375 219.31125)scale(0.12 -0.12)">
       <use xlink:href="#BitstreamVeraSans-Roman-30"/>
       <use x="63.623046875" xlink:href="#BitstreamVeraSans-Roman-2e"/>
       <use x="95.41015625" xlink:href="#BitstreamVeraSans-Roman-30"/>
      </g>
     </g>
    </g>
    <g id="ytick_5">
     <g id="line2d_23">
      <g>
       <use style="stroke:#000000;stroke-width:0.5;" x="122.4" xlink:href="#m71e820122c" y="158.4"/>
      </g>
     </g>
     <g id="line2d_24">
      <g>
       <use style="stroke:#000000;stroke-width:0.5;" x="468.0" xlink:href="#m81ec2b1422" y="158.4"/>
      </g>
     </g>
     <g id="text_12">
      <!-- 0.5 -->
      <g transform="translate(101.155625 161.71125)scale(0.12 -0.12)">
       <use xlink:href="#BitstreamVeraSans-Roman-30"/>
       <use x="63.623046875" xlink:href="#BitstreamVeraSans-Roman-2e"/>
       <use x="95.41015625" xlink:href="#BitstreamVeraSans-Roman-35"/>
      </g>
     </g>
    </g>
    <g id="ytick_6">
     <g id="line2d_25">
      <g>
       <use style="stroke:#000000;stroke-width:0.5;" x="122.4" xlink:href="#m71e820122c" y="100.8"/>
      </g>
     </g>
     <g id="line2d_26">
      <g>
       <use style="stroke:#000000;stroke-width:0.5;" x="468.0" xlink:href="#m81ec2b1422" y="100.8"/>
      </g>
     </g>
     <g id="text_13">
      <!-- 1.0 -->
      <g transform="translate(101.43125 104.11125)scale(0.12 -0.12)">
       <use xlink:href="#BitstreamVeraSans-Roman-31"/>
       <use x="63.623046875" xlink:href="#BitstreamVeraSans-Roman-2e"/>
       <use x="95.41015625" xlink:href="#BitstreamVeraSans-Roman-30"/>
      </g>
     </g>
    </g>
    <g id="ytick_7">
     <g id="line2d_27">
      <g>
       <use style="stroke:#000000;stroke-width:0.5;" x="122.4" xlink:href="#m71e820122c" y="43.2"/>
      </g>
     </g>
     <g id="line2d_28">
      <g>
       <use style="stroke:#000000;stroke-width:0.5;" x="468.0" xlink:href="#m81ec2b1422" y="43.2"/>
      </g>
     </g>
     <g id="text_14">
      <!-- 1.5 -->
      <g transform="translate(101.6825 46.51125)scale(0.12 -0.12)">
       <use xlink:href="#BitstreamVeraSans-Roman-31"/>
       <use x="63.623046875" xlink:href="#BitstreamVeraSans-Roman-2e"/>
       <use x="95.41015625" xlink:href="#BitstreamVeraSans-Roman-35"/>
      </g>
     </g>
    </g>
   </g>
  </g>
 </g>
 <defs>
  <clipPath id="p23ab9b749c">
   <rect height="345.6" width="345.6" x="122.4" y="43.2"/>
  </clipPath>
 </defs>
</svg>
